G04 Layer_Color=32896*
%FSTAX24Y24*%
%MOIN*%
G70*
G01*
G75*
%ADD53C,0.0118*%
%ADD54C,0.0079*%
%ADD57R,0.1063X0.0630*%
G36*
X044314Y020458D02*
X044341Y020456D01*
X044365Y020453D01*
X044384Y020448D01*
X044401Y020444D01*
X044407Y020443D01*
X044413Y020441D01*
X044417Y020439D01*
X04442Y020438D01*
X044421Y020437D01*
X044423D01*
X044442Y020429D01*
X044461Y020419D01*
X044476Y020409D01*
X04449Y020399D01*
X044502Y02039D01*
X04451Y020384D01*
X044515Y020379D01*
X044518Y020377D01*
X044532Y020361D01*
X044546Y020343D01*
X044558Y020326D01*
X044569Y020308D01*
X044578Y020292D01*
X044585Y02028D01*
X044588Y020274D01*
X04459Y020271D01*
X044591Y020269D01*
Y020268D01*
X044428Y020255D01*
X044419Y020272D01*
X044409Y020286D01*
X044401Y020298D01*
X044393Y020308D01*
X044387Y020316D01*
X044381Y020321D01*
X044378Y020324D01*
X044377Y020325D01*
X044366Y020331D01*
X044356Y020337D01*
X044346Y02034D01*
X044337Y020343D01*
X044329Y020344D01*
X044323Y020345D01*
X044318D01*
X044307Y020344D01*
X044298Y020342D01*
X04429Y020339D01*
X044284Y020336D01*
X044279Y020332D01*
X044276Y020329D01*
X044275Y020327D01*
X044274Y020326D01*
X04427Y020318D01*
X044267Y020311D01*
X044266Y020303D01*
Y020295D01*
Y020289D01*
X044267Y020283D01*
X044268Y02028D01*
Y020279D01*
X044273Y020269D01*
X044278Y02026D01*
X044285Y02025D01*
X044291Y020243D01*
X044298Y020235D01*
X044302Y02023D01*
X044307Y020226D01*
X044308Y020225D01*
X044314Y02022D01*
X044321Y020213D01*
X044339Y0202D01*
X044359Y020187D01*
X04438Y020173D01*
X044399Y020161D01*
X044407Y020155D01*
X044414Y020151D01*
X04442Y020148D01*
X044425Y020144D01*
X044428Y020143D01*
X044429Y020142D01*
X044456Y020126D01*
X044482Y02011D01*
X044505Y020095D01*
X044526Y020081D01*
X044546Y020067D01*
X044564Y020055D01*
X044579Y020043D01*
X044593Y020032D01*
X044606Y020022D01*
X044616Y020013D01*
X044626Y020006D01*
X044632Y02D01*
X044638Y019995D01*
X044642Y019991D01*
X044644Y019989D01*
X044646Y019988D01*
X044668Y019964D01*
X044688Y019939D01*
X044706Y019916D01*
X044719Y019895D01*
X04473Y019877D01*
X044734Y019869D01*
X044737Y019862D01*
X044741Y019858D01*
X044743Y019854D01*
X044744Y019851D01*
Y01985D01*
X044243D01*
X044197Y019986D01*
X044459D01*
X044448Y019994D01*
X044438Y02D01*
X044428Y020007D01*
X04442Y020012D01*
X044415Y020015D01*
X044411Y020019D01*
X044407Y02002D01*
X044406Y020021D01*
X044396Y020027D01*
X044383Y020035D01*
X04437Y020043D01*
X044356Y02005D01*
X044343Y020058D01*
X044332Y020065D01*
X044327Y020067D01*
X044324Y020069D01*
X044323Y02007D01*
X044322D01*
X044303Y020081D01*
X044285Y020092D01*
X044268Y020103D01*
X044253Y020113D01*
X04424Y020123D01*
X044227Y020131D01*
X044216Y02014D01*
X044205Y020148D01*
X044196Y020154D01*
X044189Y020161D01*
X044182Y020166D01*
X044177Y020171D01*
X044173Y020175D01*
X04417Y020177D01*
X044168Y020179D01*
X04415Y020198D01*
X044136Y020217D01*
X044125Y020235D01*
X044115Y02025D01*
X044109Y020265D01*
X044103Y020276D01*
X044102Y020279D01*
X044101Y020282D01*
X0441Y020283D01*
Y020284D01*
X044095Y020303D01*
X044092Y02032D01*
X044091Y020337D01*
Y02035D01*
X044094Y020362D01*
X044095Y02037D01*
X044096Y020375D01*
X044097Y020377D01*
X044103Y020391D01*
X044112Y020405D01*
X044121Y020414D01*
X044131Y020423D01*
X044139Y02043D01*
X044147Y020435D01*
X044152Y020437D01*
X044154Y020438D01*
X044162Y020442D01*
X044171Y020445D01*
X044192Y02045D01*
X044213Y020454D01*
X044235Y020457D01*
X044253Y020458D01*
X044262D01*
X04427Y020459D01*
X044284D01*
X044314Y020458D01*
D02*
G37*
G36*
X045431D02*
X045458Y020456D01*
X045482Y020453D01*
X045501Y020448D01*
X045518Y020444D01*
X045524Y020443D01*
X04553Y020441D01*
X045534Y020439D01*
X045537Y020438D01*
X045539Y020437D01*
X04554D01*
X045559Y020429D01*
X045578Y020419D01*
X045593Y020409D01*
X045607Y020399D01*
X045619Y02039D01*
X045627Y020384D01*
X045633Y020379D01*
X045635Y020377D01*
X045649Y020361D01*
X045663Y020343D01*
X045675Y020326D01*
X045686Y020308D01*
X045695Y020292D01*
X045702Y02028D01*
X045705Y020274D01*
X045707Y020271D01*
X045708Y020269D01*
Y020268D01*
X045545Y020255D01*
X045536Y020272D01*
X045526Y020286D01*
X045518Y020298D01*
X04551Y020308D01*
X045504Y020316D01*
X045498Y020321D01*
X045495Y020324D01*
X045494Y020325D01*
X045483Y020331D01*
X045473Y020337D01*
X045463Y02034D01*
X045454Y020343D01*
X045446Y020344D01*
X04544Y020345D01*
X045435D01*
X045424Y020344D01*
X045415Y020342D01*
X045407Y020339D01*
X045401Y020336D01*
X045396Y020332D01*
X045393Y020329D01*
X045392Y020327D01*
X045391Y020326D01*
X045387Y020318D01*
X045384Y020311D01*
X045383Y020303D01*
Y020295D01*
Y020289D01*
X045384Y020283D01*
X045385Y02028D01*
Y020279D01*
X04539Y020269D01*
X045395Y02026D01*
X045402Y02025D01*
X045408Y020243D01*
X045415Y020235D01*
X045419Y02023D01*
X045424Y020226D01*
X045425Y020225D01*
X045431Y02022D01*
X045438Y020213D01*
X045457Y0202D01*
X045476Y020187D01*
X045497Y020173D01*
X045516Y020161D01*
X045524Y020155D01*
X045531Y020151D01*
X045537Y020148D01*
X045542Y020144D01*
X045545Y020143D01*
X045546Y020142D01*
X045574Y020126D01*
X045599Y02011D01*
X045622Y020095D01*
X045643Y020081D01*
X045663Y020067D01*
X045681Y020055D01*
X045696Y020043D01*
X04571Y020032D01*
X045723Y020022D01*
X045733Y020013D01*
X045743Y020006D01*
X045749Y02D01*
X045755Y019995D01*
X045759Y019991D01*
X045761Y019989D01*
X045763Y019988D01*
X045786Y019964D01*
X045805Y019939D01*
X045823Y019916D01*
X045836Y019895D01*
X045847Y019877D01*
X045851Y019869D01*
X045854Y019862D01*
X045858Y019858D01*
X04586Y019854D01*
X045861Y019851D01*
Y01985D01*
X04536D01*
X045314Y019986D01*
X045576D01*
X045565Y019994D01*
X045555Y02D01*
X045545Y020007D01*
X045537Y020012D01*
X045532Y020015D01*
X045528Y020019D01*
X045524Y02002D01*
X045523Y020021D01*
X045513Y020027D01*
X0455Y020035D01*
X045487Y020043D01*
X045473Y02005D01*
X04546Y020058D01*
X045449Y020065D01*
X045445Y020067D01*
X045441Y020069D01*
X04544Y02007D01*
X045439D01*
X04542Y020081D01*
X045402Y020092D01*
X045385Y020103D01*
X04537Y020113D01*
X045357Y020123D01*
X045344Y020131D01*
X045333Y02014D01*
X045322Y020148D01*
X045313Y020154D01*
X045306Y020161D01*
X045299Y020166D01*
X045294Y020171D01*
X04529Y020175D01*
X045287Y020177D01*
X045285Y020179D01*
X045267Y020198D01*
X045253Y020217D01*
X045242Y020235D01*
X045232Y02025D01*
X045226Y020265D01*
X04522Y020276D01*
X045219Y020279D01*
X045218Y020282D01*
X045217Y020283D01*
Y020284D01*
X045212Y020303D01*
X04521Y02032D01*
X045208Y020337D01*
Y02035D01*
X045211Y020362D01*
X045212Y02037D01*
X045213Y020375D01*
X045214Y020377D01*
X04522Y020391D01*
X045229Y020405D01*
X045238Y020414D01*
X045248Y020423D01*
X045257Y02043D01*
X045264Y020435D01*
X045269Y020437D01*
X045271Y020438D01*
X045279Y020442D01*
X045288Y020445D01*
X045309Y02045D01*
X04533Y020454D01*
X045352Y020457D01*
X04537Y020458D01*
X045379D01*
X045387Y020459D01*
X045401D01*
X045431Y020458D01*
D02*
G37*
G36*
X04172Y020457D02*
X041752Y020453D01*
X041768Y020449D01*
X041782Y020446D01*
X041795Y020443D01*
X041807Y020439D01*
X041818Y020435D01*
X041828Y020432D01*
X041835Y020429D01*
X041842Y020425D01*
X041847Y020422D01*
X041852Y020421D01*
X041854Y020419D01*
X041855D01*
X04188Y020402D01*
X041902Y020384D01*
X041922Y020364D01*
X041938Y020345D01*
X041951Y020329D01*
X041957Y020321D01*
X041961Y020315D01*
X041966Y020311D01*
X041968Y020306D01*
X041969Y020304D01*
X04197Y020303D01*
X041821Y020276D01*
X041812Y020291D01*
X041805Y020304D01*
X041797Y020314D01*
X04179Y020323D01*
X041784Y020329D01*
X04178Y020333D01*
X041776Y020336D01*
X041775Y020337D01*
X041767Y020343D01*
X041757Y020348D01*
X041748Y020351D01*
X041739Y020353D01*
X041733Y020354D01*
X041727Y020355D01*
X041722D01*
X041712Y020354D01*
X041703Y020353D01*
X041697Y02035D01*
X041691Y020348D01*
X041687Y020344D01*
X041685Y020341D01*
X041682Y02034D01*
Y020339D01*
X041679Y020332D01*
X041677Y020325D01*
Y020318D01*
Y020311D01*
X041678Y020305D01*
X041679Y0203D01*
X04168Y020296D01*
Y020295D01*
X041685Y020285D01*
X04169Y020276D01*
X041697Y020267D01*
X041703Y02026D01*
X04171Y020254D01*
X041715Y020249D01*
X041718Y020247D01*
X04172Y020246D01*
X041731Y020239D01*
X041741Y020235D01*
X041751Y020231D01*
X041761Y020229D01*
X041769Y020227D01*
X041775Y020226D01*
X041787D01*
X041794Y020227D01*
X041802D01*
X041851Y020109D01*
X041838Y020113D01*
X041826Y020115D01*
X041816Y020117D01*
X041807Y020118D01*
X041802Y020119D01*
X041793D01*
X04178Y020118D01*
X041769Y020116D01*
X04176Y020112D01*
X041753Y020108D01*
X041749Y020104D01*
X041745Y0201D01*
X041744Y020097D01*
X041743Y020096D01*
X041738Y020086D01*
X041736Y020077D01*
Y020066D01*
X041737Y020056D01*
X041739Y020046D01*
X04174Y020038D01*
X041741Y020034D01*
X041743Y020032D01*
X041748Y020018D01*
X041756Y020004D01*
X041763Y019992D01*
X04177Y019984D01*
X041776Y019976D01*
X041782Y019971D01*
X041786Y019967D01*
X041787Y019966D01*
X041799Y019959D01*
X04181Y019952D01*
X041821Y019948D01*
X041831Y019945D01*
X04184Y019943D01*
X041846Y019942D01*
X041852D01*
X041863Y019943D01*
X041873Y019945D01*
X04188Y019948D01*
X041887Y019952D01*
X041891Y019955D01*
X041894Y019957D01*
X041897Y01996D01*
X041898Y019961D01*
X041902Y019969D01*
X041904Y01998D01*
X041906Y019991D01*
Y020003D01*
X041905Y020014D01*
Y020023D01*
X041904Y020029D01*
Y020031D01*
X042078Y020008D01*
Y019988D01*
X042077Y019969D01*
X042075Y019954D01*
X042073Y01994D01*
X042069Y019929D01*
X042066Y019921D01*
X042065Y019917D01*
X042064Y019915D01*
X042056Y019902D01*
X042046Y019891D01*
X042037Y019881D01*
X042028Y019873D01*
X042019Y019867D01*
X042011Y019862D01*
X042007Y01986D01*
X042005Y019859D01*
X041987Y019853D01*
X041968Y019848D01*
X041948Y019845D01*
X041928Y019843D01*
X04191Y019842D01*
X041902D01*
X041896Y019841D01*
X041882D01*
X041852Y019842D01*
X041825Y019845D01*
X041799Y019848D01*
X041779Y019854D01*
X041761Y019858D01*
X041755Y01986D01*
X041749Y019861D01*
X041745Y019863D01*
X04174Y019865D01*
X041739Y019866D01*
X041738D01*
X041716Y019877D01*
X041697Y019889D01*
X041679Y019901D01*
X041664Y019913D01*
X041652Y019924D01*
X041642Y019932D01*
X041637Y019938D01*
X041634Y01994D01*
X041619Y019959D01*
X041606Y019976D01*
X041595Y019992D01*
X041586Y020009D01*
X04158Y020022D01*
X041575Y020032D01*
X041573Y020038D01*
X041572Y020039D01*
Y020041D01*
X041568Y020056D01*
X041564Y020069D01*
X041563Y020081D01*
Y020092D01*
Y0201D01*
Y020106D01*
X041564Y02011D01*
Y020112D01*
X041568Y020123D01*
X041572Y020132D01*
X041576Y020141D01*
X041582Y020148D01*
X041586Y020153D01*
X041591Y020157D01*
X041593Y02016D01*
X041594Y020161D01*
X0416Y020165D01*
X041608Y020168D01*
X041623Y020175D01*
X04163Y020177D01*
X041635Y020179D01*
X04164Y02018D01*
X041641D01*
X041622Y020189D01*
X041606Y020199D01*
X041592Y020209D01*
X04158Y020217D01*
X041571Y020224D01*
X041563Y02023D01*
X041559Y020234D01*
X041558Y020235D01*
X041547Y020247D01*
X041537Y020259D01*
X041529Y020271D01*
X041524Y020282D01*
X041518Y020291D01*
X041515Y020298D01*
X041514Y020303D01*
X041513Y020305D01*
X04151Y020317D01*
X041508Y020329D01*
X041505Y02034D01*
Y020351D01*
X041508Y02037D01*
X041512Y020385D01*
X041517Y020398D01*
X041523Y020408D01*
X041527Y020413D01*
X041528Y020415D01*
X041536Y020423D01*
X041546Y02043D01*
X041557Y020436D01*
X041568Y020441D01*
X041594Y020448D01*
X041619Y020454D01*
X041643Y020457D01*
X041654Y020458D01*
X041664D01*
X041671Y020459D01*
X041682D01*
X04172Y020457D01*
D02*
G37*
G36*
X040714Y01985D02*
X040559D01*
X040537Y019914D01*
X040529Y0199D01*
X040523Y019889D01*
X040515Y019879D01*
X04051Y019871D01*
X040504Y019866D01*
X0405Y019862D01*
X040497Y01986D01*
X040495Y019859D01*
X040483Y019853D01*
X040471Y019848D01*
X040459Y019845D01*
X040447Y019843D01*
X040437Y019842D01*
X04043Y019841D01*
X040422D01*
X040403Y019842D01*
X040385Y019845D01*
X040368Y019849D01*
X040352Y019854D01*
X040339Y019858D01*
X040329Y019862D01*
X040323Y019866D01*
X040321Y019867D01*
X040302Y019878D01*
X040284Y019891D01*
X040268Y019904D01*
X040255Y019917D01*
X040243Y019929D01*
X040235Y019939D01*
X04023Y019945D01*
X040228Y019947D01*
Y019948D01*
X040212Y019968D01*
X040199Y01999D01*
X040188Y020011D01*
X040178Y020031D01*
X040171Y020048D01*
X040168Y020055D01*
X040165Y020061D01*
X040163Y020067D01*
X040162Y02007D01*
X040161Y020072D01*
Y020073D01*
X040154Y020093D01*
X04015Y02011D01*
X040147Y020128D01*
X040146Y020143D01*
X040145Y020159D01*
Y020172D01*
Y020184D01*
X040146Y020195D01*
X040148Y020204D01*
X040149Y020212D01*
X040151Y02022D01*
X040153Y020225D01*
X040154Y020231D01*
X040157Y020234D01*
X040158Y020235D01*
Y020236D01*
X040164Y020246D01*
X040172Y020256D01*
X04018Y020264D01*
X040188Y02027D01*
X040207Y02028D01*
X040225Y020286D01*
X040242Y020291D01*
X04025Y020292D01*
X040256Y020293D01*
X040262Y020294D01*
X040283D01*
X040297Y020292D01*
X04031Y02029D01*
X040321Y020288D01*
X04033Y020285D01*
X040337Y020283D01*
X040341Y020282D01*
X040343Y020281D01*
X040357Y020276D01*
X04037Y020269D01*
X040382Y020262D01*
X040392Y020257D01*
X0404Y02025D01*
X040408Y020246D01*
X040412Y020243D01*
X040413Y020242D01*
X040342Y020449D01*
X040511D01*
X040714Y01985D01*
D02*
G37*
G36*
X04094Y020293D02*
X040956Y020292D01*
X040969Y020291D01*
X04098Y020289D01*
X040988Y020288D01*
X040994Y020286D01*
X040996D01*
X041011Y020284D01*
X041024Y020281D01*
X041036Y020278D01*
X041046Y020274D01*
X041054Y020271D01*
X041059Y020269D01*
X041064Y020268D01*
X041065Y020267D01*
X041079Y02026D01*
X041091Y020253D01*
X041102Y020246D01*
X041111Y020239D01*
X041118Y020234D01*
X041124Y02023D01*
X041127Y020226D01*
X041128Y020225D01*
X041137Y020215D01*
X041147Y020204D01*
X041154Y020194D01*
X041162Y020184D01*
X041168Y020174D01*
X041172Y020166D01*
X041175Y020162D01*
X041176Y02016D01*
X041022Y020143D01*
X041016Y020153D01*
X041008Y020161D01*
X041001Y020167D01*
X040996Y020173D01*
X040992Y020177D01*
X040987Y020179D01*
X040985Y020182D01*
X040984D01*
X040974Y020186D01*
X040963Y020189D01*
X040952Y020191D01*
X040941Y020194D01*
X040933D01*
X040925Y020195D01*
X040907D01*
X040899Y020192D01*
X040892Y02019D01*
X040887Y020188D01*
X040882Y020186D01*
X04088Y020184D01*
X040878Y020183D01*
Y020182D01*
X040876Y020176D01*
X040875Y02017D01*
Y020156D01*
X040877Y02015D01*
X040878Y020144D01*
X040879Y020141D01*
Y02014D01*
X040892Y020136D01*
X040904Y020131D01*
X040916Y020128D01*
X040926Y020125D01*
X040934Y020123D01*
X04094Y02012D01*
X040945Y020119D01*
X040946D01*
X040952Y020118D01*
X04096Y020116D01*
X040969Y020114D01*
X040979Y020112D01*
X040999Y020107D01*
X041022Y020103D01*
X041042Y0201D01*
X041052Y020097D01*
X041059Y020096D01*
X041066Y020095D01*
X041071Y020094D01*
X041075Y020093D01*
X041076D01*
X041105Y020086D01*
X04113Y020079D01*
X041151Y020071D01*
X041169Y020063D01*
X041182Y020057D01*
X041192Y020051D01*
X041197Y020047D01*
X041199Y020046D01*
X041214Y020034D01*
X041224Y02002D01*
X041234Y020007D01*
X041242Y019994D01*
X041248Y019983D01*
X041253Y019974D01*
X041255Y019967D01*
X041256Y019966D01*
Y019965D01*
X041261Y019945D01*
X041262Y019929D01*
X041261Y019914D01*
X041257Y019901D01*
X041254Y01989D01*
X041251Y019882D01*
X041247Y019878D01*
X041246Y019875D01*
X041241Y019869D01*
X041233Y019863D01*
X041218Y019856D01*
X0412Y019849D01*
X041183Y019845D01*
X041167Y019843D01*
X041152Y019842D01*
X041148Y019841D01*
X04114D01*
X041118Y019842D01*
X041099Y019844D01*
X04108Y019846D01*
X041064Y019849D01*
X04105Y019853D01*
X04104Y019856D01*
X041033Y019857D01*
X041031Y019858D01*
X041017Y019863D01*
X041003Y019871D01*
X040989Y019878D01*
X040976Y019885D01*
X040965Y019892D01*
X040958Y019897D01*
X040952Y019902D01*
X04095Y019903D01*
X040952Y019891D01*
X040953Y019882D01*
X040954Y019878D01*
Y019875D01*
X040953Y019868D01*
X040952Y01986D01*
X040951Y019854D01*
X04095Y019851D01*
Y01985D01*
X040794D01*
X040796Y019868D01*
Y019875D01*
Y019882D01*
Y019888D01*
Y019891D01*
Y019893D01*
Y019894D01*
X040795Y019902D01*
X040793Y019909D01*
X040789Y019925D01*
X040787Y019931D01*
X040785Y019937D01*
X040784Y019941D01*
Y019942D01*
X040718Y020133D01*
X040713Y020156D01*
X040711Y020167D01*
Y020177D01*
X04071Y020186D01*
Y020192D01*
Y020197D01*
Y020198D01*
X040711Y02021D01*
X040712Y020221D01*
X040714Y02023D01*
X040717Y020237D01*
X040721Y020243D01*
X040723Y020247D01*
X040724Y020249D01*
X040725Y02025D01*
X040734Y020259D01*
X040744Y020267D01*
X040754Y020273D01*
X040764Y020278D01*
X040774Y020281D01*
X040782Y020283D01*
X040786Y020285D01*
X040788D01*
X040806Y020289D01*
X040824Y020291D01*
X040844Y020292D01*
X040864Y020293D01*
X04088Y020294D01*
X040924D01*
X04094Y020293D01*
D02*
G37*
G36*
X043744Y020438D02*
X043762Y02042D01*
X04378Y020403D01*
X043796Y02039D01*
X04381Y020378D01*
X043823Y02037D01*
X043827Y020367D01*
X04383Y020365D01*
X043831Y020363D01*
X043832D01*
X043856Y020349D01*
X043882Y020337D01*
X043908Y020326D01*
X043932Y020316D01*
X043954Y020308D01*
X043962Y020305D01*
X043971Y020302D01*
X043978Y020301D01*
X043982Y020298D01*
X043985Y020297D01*
X043986D01*
X044033Y020162D01*
X044011Y020168D01*
X04399Y020174D01*
X043971Y02018D01*
X043956Y020186D01*
X043943Y02019D01*
X043933Y020194D01*
X043927Y020196D01*
X043925Y020197D01*
X043908Y020204D01*
X043891Y020213D01*
X043875Y020222D01*
X043861Y02023D01*
X043848Y020237D01*
X043838Y020243D01*
X043831Y020247D01*
X04383Y020248D01*
X043829D01*
X043964Y01985D01*
X043795D01*
X043589Y020459D01*
X043726D01*
X043744Y020438D01*
D02*
G37*
G36*
X048119D02*
X048138Y02042D01*
X048155Y020403D01*
X048172Y02039D01*
X048186Y020378D01*
X048198Y02037D01*
X048202Y020367D01*
X048205Y020365D01*
X048207Y020363D01*
X048208D01*
X048232Y020349D01*
X048257Y020337D01*
X048283Y020326D01*
X048307Y020316D01*
X048329Y020308D01*
X048338Y020305D01*
X048346Y020302D01*
X048353Y020301D01*
X048357Y020298D01*
X048361Y020297D01*
X048362D01*
X048409Y020162D01*
X048386Y020168D01*
X048365Y020174D01*
X048346Y02018D01*
X048331Y020186D01*
X048318Y02019D01*
X048308Y020194D01*
X048303Y020196D01*
X048301Y020197D01*
X048283Y020204D01*
X048267Y020213D01*
X04825Y020222D01*
X048236Y02023D01*
X048223Y020237D01*
X048213Y020243D01*
X048207Y020247D01*
X048205Y020248D01*
X048204D01*
X048339Y01985D01*
X04817D01*
X047964Y020459D01*
X048102D01*
X048119Y020438D01*
D02*
G37*
G36*
X047Y020983D02*
X047006Y020992D01*
X047013Y021001D01*
X04702Y021007D01*
X047027Y021013D01*
X047033Y021017D01*
X047038Y02102D01*
X047041Y021021D01*
X047042Y021022D01*
X047053Y021027D01*
X047064Y02103D01*
X047075Y021032D01*
X047085Y021034D01*
X047095D01*
X047102Y021035D01*
X047108D01*
X047123Y021034D01*
X047138Y021033D01*
X047165Y021027D01*
X047191Y021017D01*
X047213Y021007D01*
X047223Y021002D01*
X047233Y020996D01*
X04724Y020991D01*
X047247Y020986D01*
X047251Y020983D01*
X047256Y02098D01*
X047258Y020979D01*
X047259Y020978D01*
X047272Y020967D01*
X047284Y020955D01*
X047306Y020928D01*
X047324Y0209D01*
X04734Y020874D01*
X047346Y020862D01*
X047352Y02085D01*
X047356Y02084D01*
X047361Y02083D01*
X047363Y020823D01*
X047365Y020817D01*
X047367Y020814D01*
Y020813D01*
X047373Y020795D01*
X047377Y020778D01*
X04738Y020762D01*
X047382Y020746D01*
X047385Y020719D01*
Y020705D01*
X047384Y020694D01*
X047382Y020685D01*
X047381Y020675D01*
X04738Y020667D01*
X047379Y020661D01*
X047378Y020655D01*
X047377Y020652D01*
X047376Y02065D01*
Y020649D01*
X04737Y020637D01*
X047364Y020627D01*
X047356Y020618D01*
X047349Y02061D01*
X047339Y020604D01*
X04733Y020598D01*
X04731Y020591D01*
X047293Y020585D01*
X047284Y020584D01*
X047277Y020583D01*
X047272Y020582D01*
X047263D01*
X047247Y020583D01*
X047232Y020585D01*
X047216Y020587D01*
X047203Y020592D01*
X047192Y020595D01*
X047185Y020597D01*
X047179Y020599D01*
X047177Y0206D01*
X047165Y020607D01*
X047151Y020615D01*
X047138Y020625D01*
X047126Y020633D01*
X047115Y020642D01*
X047106Y020649D01*
X0471Y020653D01*
X047098Y020655D01*
X04712Y020592D01*
X046964D01*
X046761Y021191D01*
X046929D01*
X047Y020983D01*
D02*
G37*
G36*
X040369Y021034D02*
X040381Y021033D01*
X040392Y02103D01*
X040401Y021027D01*
X04041Y021023D01*
X040416Y021021D01*
X04042Y021019D01*
X040421Y021018D01*
X040432Y02101D01*
X040444Y021001D01*
X040455Y020991D01*
X040466Y02098D01*
X040475Y02097D01*
X040482Y020962D01*
X040487Y020957D01*
X040489Y020955D01*
X040465Y021026D01*
X040621D01*
X040768Y020592D01*
X0406D01*
X040551Y020737D01*
X040545Y020756D01*
X040538Y020773D01*
X040531Y020788D01*
X040525Y020803D01*
X040518Y020816D01*
X040512Y020828D01*
X040506Y020838D01*
X040501Y020847D01*
X040495Y020855D01*
X040491Y020862D01*
X040487Y020867D01*
X040483Y020872D01*
X040479Y020877D01*
X040477Y020879D01*
X040467Y020888D01*
X040456Y020894D01*
X040446Y0209D01*
X040437Y020903D01*
X04043Y020905D01*
X040423Y020907D01*
X040411D01*
X040404Y020904D01*
X040389Y0209D01*
X040384Y020898D01*
X04038Y020896D01*
X040376Y020894D01*
X040375Y020893D01*
X040283Y021013D01*
X040297Y02102D01*
X04031Y021026D01*
X040322Y02103D01*
X040333Y021032D01*
X040342Y021034D01*
X040349Y021035D01*
X040356D01*
X040369Y021034D01*
D02*
G37*
G36*
X045095Y020592D02*
X044917D01*
X04486Y020759D01*
X045038D01*
X045095Y020592D01*
D02*
G37*
G36*
X043005Y021034D02*
X043029Y021033D01*
X04305Y02103D01*
X043067Y021028D01*
X043081Y021025D01*
X043092Y021021D01*
X043099Y02102D01*
X0431Y021019D01*
X043101D01*
X043119Y021013D01*
X043135Y021006D01*
X043149Y020998D01*
X043161Y020991D01*
X043171Y020984D01*
X043179Y020979D01*
X043183Y020974D01*
X043185Y020973D01*
X043197Y020961D01*
X043208Y020949D01*
X043217Y020936D01*
X043224Y020925D01*
X043229Y020914D01*
X043232Y020907D01*
X043234Y020901D01*
X043236Y020899D01*
X043239Y020885D01*
X043241Y020872D01*
X043242Y020861D01*
X043241Y02085D01*
X04324Y020842D01*
X043238Y020835D01*
X043237Y020831D01*
Y02083D01*
X043231Y020819D01*
X043225Y02081D01*
X043217Y020803D01*
X04321Y020797D01*
X043204Y020792D01*
X043198Y020788D01*
X043195Y020787D01*
X043194Y020786D01*
X043187Y020784D01*
X043181Y020781D01*
X043165Y020776D01*
X043146Y020772D01*
X043127Y020768D01*
X043111Y020763D01*
X043103Y020762D01*
X043097Y02076D01*
X043091Y020759D01*
X043087D01*
X043085Y020758D01*
X043084D01*
X043065Y020755D01*
X04305Y020751D01*
X043039Y020748D01*
X04303Y020746D01*
X043025Y020744D01*
X04302Y020741D01*
X043018Y02074D01*
X043014Y020736D01*
X04301Y020732D01*
X043008Y020727D01*
Y020723D01*
Y020716D01*
X043009Y020714D01*
Y020713D01*
X043012Y020708D01*
X043015Y020702D01*
X043022Y020693D01*
X043029Y020689D01*
X043031Y020687D01*
X043032D01*
X043041Y020682D01*
X043051Y020679D01*
X043069Y020675D01*
X043077Y020674D01*
X043084Y020673D01*
X043089D01*
X0431Y020674D01*
X043109Y020675D01*
X043116Y020677D01*
X043123Y020679D01*
X043127Y020681D01*
X043131Y020682D01*
X043133Y020685D01*
X043134D01*
X043138Y02069D01*
X043142Y020697D01*
X043145Y020712D01*
X043146Y020719D01*
X043147Y020723D01*
Y020727D01*
Y020728D01*
X043318Y020713D01*
Y020691D01*
X043315Y020672D01*
X04331Y020654D01*
X043304Y020641D01*
X043298Y02063D01*
X043291Y020622D01*
X043287Y020617D01*
X043286Y020616D01*
X043277Y02061D01*
X043267Y020605D01*
X043256Y0206D01*
X043244Y020596D01*
X043218Y020591D01*
X043192Y020586D01*
X043167Y020584D01*
X043156Y020583D01*
X043147D01*
X043138Y020582D01*
X043127D01*
X043097Y020583D01*
X043069Y020585D01*
X043046Y020588D01*
X043026Y020593D01*
X043009Y020596D01*
X043003Y020598D01*
X042997Y020599D01*
X042993Y0206D01*
X04299Y020602D01*
X042989Y020603D01*
X042987D01*
X042968Y020611D01*
X042949Y02062D01*
X042934Y02063D01*
X042921Y020639D01*
X042911Y020646D01*
X042903Y020653D01*
X042898Y020657D01*
X042897Y020658D01*
X042885Y020672D01*
X042875Y020685D01*
X042866Y020698D01*
X04286Y020709D01*
X042855Y020719D01*
X042852Y020725D01*
X042851Y020731D01*
X04285Y020732D01*
X042845Y020745D01*
X042844Y020758D01*
X042843Y02077D01*
Y02078D01*
X042844Y020787D01*
X042846Y020794D01*
X042848Y020798D01*
Y020799D01*
X042853Y02081D01*
X04286Y02082D01*
X042867Y020829D01*
X042875Y020835D01*
X042881Y020841D01*
X042888Y020844D01*
X042892Y020846D01*
X042893Y020847D01*
X042909Y020854D01*
X042926Y02086D01*
X042945Y020864D01*
X042963Y020867D01*
X042981Y02087D01*
X042989Y020872D01*
X042995Y020873D01*
X043001D01*
X043005Y020874D01*
X043008D01*
X043026Y020876D01*
X043041Y020879D01*
X043052Y020881D01*
X043061Y020884D01*
X043067Y020886D01*
X043071Y020888D01*
X043073Y020889D01*
X043074D01*
X043078Y020892D01*
X04308Y020896D01*
X043081Y0209D01*
X043083Y020904D01*
Y020911D01*
X043081Y020912D01*
Y020913D01*
X043079Y020919D01*
X043076Y020923D01*
X043069Y020931D01*
X043063Y020935D01*
X043062Y020937D01*
X043061D01*
X043054Y02094D01*
X043046Y020944D01*
X043032Y020947D01*
X043026Y020948D01*
X043006D01*
X042997Y020946D01*
X042991Y020944D01*
X042984Y020941D01*
X04298Y020939D01*
X042977Y020937D01*
X042974Y020936D01*
X042973Y020935D01*
X042969Y020931D01*
X042967Y020926D01*
X042963Y020916D01*
X042962Y020912D01*
Y020908D01*
Y020905D01*
Y020904D01*
X042801Y02092D01*
X042802Y020935D01*
X042804Y020948D01*
X042806Y020959D01*
X042809Y020969D01*
X042813Y020976D01*
X042816Y020982D01*
X042817Y020985D01*
X042818Y020986D01*
X042825Y020995D01*
X042832Y021003D01*
X042841Y021009D01*
X042849Y021015D01*
X042856Y021018D01*
X042862Y021021D01*
X042866Y021023D01*
X042867D01*
X042881Y021028D01*
X042899Y02103D01*
X042916Y021032D01*
X042935Y021034D01*
X042952D01*
X042959Y021035D01*
X042979D01*
X043005Y021034D01*
D02*
G37*
G36*
X046233Y020457D02*
X046265Y020453D01*
X046281Y020449D01*
X046295Y020446D01*
X046308Y020443D01*
X04632Y020439D01*
X046331Y020435D01*
X046341Y020432D01*
X046348Y020429D01*
X046355Y020425D01*
X04636Y020422D01*
X046365Y020421D01*
X046367Y020419D01*
X046368D01*
X046393Y020402D01*
X046415Y020384D01*
X046435Y020364D01*
X046451Y020345D01*
X046464Y020329D01*
X04647Y020321D01*
X046474Y020315D01*
X046479Y020311D01*
X046481Y020306D01*
X046482Y020304D01*
X046483Y020303D01*
X046334Y020276D01*
X046325Y020291D01*
X046318Y020304D01*
X04631Y020314D01*
X046303Y020323D01*
X046297Y020329D01*
X046293Y020333D01*
X046289Y020336D01*
X046288Y020337D01*
X04628Y020343D01*
X04627Y020348D01*
X046261Y020351D01*
X046252Y020353D01*
X046246Y020354D01*
X04624Y020355D01*
X046235D01*
X046225Y020354D01*
X046216Y020353D01*
X04621Y02035D01*
X046204Y020348D01*
X0462Y020344D01*
X046198Y020341D01*
X046195Y02034D01*
Y020339D01*
X046192Y020332D01*
X04619Y020325D01*
Y020318D01*
Y020311D01*
X046191Y020305D01*
X046192Y0203D01*
X046193Y020296D01*
Y020295D01*
X046198Y020285D01*
X046203Y020276D01*
X04621Y020267D01*
X046216Y02026D01*
X046223Y020254D01*
X046228Y020249D01*
X046231Y020247D01*
X046233Y020246D01*
X046244Y020239D01*
X046254Y020235D01*
X046264Y020231D01*
X046274Y020229D01*
X046282Y020227D01*
X046288Y020226D01*
X0463D01*
X046307Y020227D01*
X046315D01*
X046364Y020109D01*
X046351Y020113D01*
X046339Y020115D01*
X046329Y020117D01*
X04632Y020118D01*
X046315Y020119D01*
X046306D01*
X046293Y020118D01*
X046282Y020116D01*
X046273Y020112D01*
X046266Y020108D01*
X046262Y020104D01*
X046258Y0201D01*
X046257Y020097D01*
X046256Y020096D01*
X046251Y020086D01*
X046249Y020077D01*
Y020066D01*
X04625Y020056D01*
X046252Y020046D01*
X046253Y020038D01*
X046254Y020034D01*
X046256Y020032D01*
X046261Y020018D01*
X046269Y020004D01*
X046276Y019992D01*
X046283Y019984D01*
X046289Y019976D01*
X046295Y019971D01*
X046299Y019967D01*
X0463Y019966D01*
X046312Y019959D01*
X046323Y019952D01*
X046334Y019948D01*
X046344Y019945D01*
X046353Y019943D01*
X046359Y019942D01*
X046365D01*
X046376Y019943D01*
X046386Y019945D01*
X046393Y019948D01*
X0464Y019952D01*
X046404Y019955D01*
X046407Y019957D01*
X04641Y01996D01*
X046411Y019961D01*
X046415Y019969D01*
X046417Y01998D01*
X046419Y019991D01*
Y020003D01*
X046418Y020014D01*
Y020023D01*
X046417Y020029D01*
Y020031D01*
X046591Y020008D01*
Y019988D01*
X04659Y019969D01*
X046588Y019954D01*
X046586Y01994D01*
X046582Y019929D01*
X046579Y019921D01*
X046578Y019917D01*
X046577Y019915D01*
X046569Y019902D01*
X046559Y019891D01*
X04655Y019881D01*
X046541Y019873D01*
X046532Y019867D01*
X046524Y019862D01*
X04652Y01986D01*
X046518Y019859D01*
X0465Y019853D01*
X046481Y019848D01*
X046461Y019845D01*
X046441Y019843D01*
X046423Y019842D01*
X046415D01*
X046409Y019841D01*
X046395D01*
X046365Y019842D01*
X046338Y019845D01*
X046312Y019848D01*
X046292Y019854D01*
X046274Y019858D01*
X046268Y01986D01*
X046262Y019861D01*
X046258Y019863D01*
X046253Y019865D01*
X046252Y019866D01*
X046251D01*
X046229Y019877D01*
X04621Y019889D01*
X046192Y019901D01*
X046177Y019913D01*
X046165Y019924D01*
X046155Y019932D01*
X04615Y019938D01*
X046147Y01994D01*
X046132Y019959D01*
X046119Y019976D01*
X046108Y019992D01*
X046099Y020009D01*
X046093Y020022D01*
X046088Y020032D01*
X046086Y020038D01*
X046085Y020039D01*
Y020041D01*
X046081Y020056D01*
X046077Y020069D01*
X046076Y020081D01*
Y020092D01*
Y0201D01*
Y020106D01*
X046077Y02011D01*
Y020112D01*
X046081Y020123D01*
X046085Y020132D01*
X046089Y020141D01*
X046095Y020148D01*
X046099Y020153D01*
X046104Y020157D01*
X046106Y02016D01*
X046107Y020161D01*
X046113Y020165D01*
X046121Y020168D01*
X046136Y020175D01*
X046143Y020177D01*
X046148Y020179D01*
X046153Y02018D01*
X046154D01*
X046135Y020189D01*
X046119Y020199D01*
X046105Y020209D01*
X046093Y020217D01*
X046084Y020224D01*
X046076Y02023D01*
X046072Y020234D01*
X046071Y020235D01*
X04606Y020247D01*
X04605Y020259D01*
X046042Y020271D01*
X046037Y020282D01*
X046031Y020291D01*
X046028Y020298D01*
X046027Y020303D01*
X046026Y020305D01*
X046023Y020317D01*
X046021Y020329D01*
X046018Y02034D01*
Y020351D01*
X046021Y02037D01*
X046025Y020385D01*
X04603Y020398D01*
X046036Y020408D01*
X04604Y020413D01*
X046041Y020415D01*
X046049Y020423D01*
X046059Y02043D01*
X04607Y020436D01*
X046081Y020441D01*
X046107Y020448D01*
X046132Y020454D01*
X046156Y020457D01*
X046167Y020458D01*
X046177D01*
X046184Y020459D01*
X046195D01*
X046233Y020457D01*
D02*
G37*
G36*
X039977Y020983D02*
X039984Y020992D01*
X03999Y021001D01*
X039997Y021007D01*
X040005Y021013D01*
X04001Y021017D01*
X040016Y02102D01*
X040019Y021021D01*
X04002Y021022D01*
X040031Y021027D01*
X040042Y02103D01*
X040053Y021032D01*
X040063Y021034D01*
X040072D01*
X040079Y021035D01*
X040086D01*
X040101Y021034D01*
X040115Y021033D01*
X040142Y021027D01*
X040169Y021017D01*
X04019Y021007D01*
X0402Y021002D01*
X04021Y020996D01*
X040218Y020991D01*
X040224Y020986D01*
X040229Y020983D01*
X040233Y02098D01*
X040235Y020979D01*
X040236Y020978D01*
X04025Y020967D01*
X040262Y020955D01*
X040283Y020928D01*
X040302Y0209D01*
X040317Y020874D01*
X040324Y020862D01*
X040329Y02085D01*
X040334Y02084D01*
X040338Y02083D01*
X04034Y020823D01*
X040342Y020817D01*
X040345Y020814D01*
Y020813D01*
X04035Y020795D01*
X040354Y020778D01*
X040358Y020762D01*
X04036Y020746D01*
X040362Y020719D01*
Y020705D01*
X040361Y020694D01*
X04036Y020685D01*
X040359Y020675D01*
X040358Y020667D01*
X040357Y020661D01*
X040356Y020655D01*
X040354Y020652D01*
X040353Y02065D01*
Y020649D01*
X040348Y020637D01*
X040341Y020627D01*
X040334Y020618D01*
X040326Y02061D01*
X040316Y020604D01*
X040307Y020598D01*
X040288Y020591D01*
X04027Y020585D01*
X040262Y020584D01*
X040255Y020583D01*
X04025Y020582D01*
X040241D01*
X040224Y020583D01*
X040209Y020585D01*
X040194Y020587D01*
X040181Y020592D01*
X04017Y020595D01*
X040162Y020597D01*
X040157Y020599D01*
X040154Y0206D01*
X040142Y020607D01*
X040128Y020615D01*
X040115Y020625D01*
X040103Y020633D01*
X040092Y020642D01*
X040083Y020649D01*
X040078Y020653D01*
X040076Y020655D01*
X040098Y020592D01*
X039941D01*
X039738Y021191D01*
X039906D01*
X039977Y020983D01*
D02*
G37*
G36*
X041529Y021034D02*
X04155Y021032D01*
X04157Y02103D01*
X041588Y021026D01*
X041607Y02102D01*
X041623Y021015D01*
X04164Y021009D01*
X041654Y021004D01*
X041667Y020997D01*
X041678Y020992D01*
X041689Y020986D01*
X041698Y020981D01*
X041704Y020976D01*
X041709Y020974D01*
X041712Y020972D01*
X041713Y020971D01*
X041729Y020959D01*
X041744Y020946D01*
X041757Y020932D01*
X041769Y020919D01*
X041781Y020904D01*
X041791Y020891D01*
X041799Y020878D01*
X041807Y020865D01*
X041814Y020853D01*
X041819Y020842D01*
X041825Y020832D01*
X041828Y020823D01*
X041831Y020817D01*
X041833Y020811D01*
X041834Y020808D01*
Y020807D01*
X04184Y020787D01*
X041844Y020769D01*
X041846Y020751D01*
Y020735D01*
Y02072D01*
X041844Y020705D01*
X041841Y020692D01*
X041838Y02068D01*
X041834Y02067D01*
X04183Y020661D01*
X041826Y020653D01*
X041822Y020646D01*
X041819Y020641D01*
X041816Y020638D01*
X041815Y020635D01*
X041814Y020634D01*
X041804Y020626D01*
X041794Y020617D01*
X041771Y020604D01*
X041746Y020595D01*
X041721Y020588D01*
X041699Y020585D01*
X041689Y020583D01*
X04168D01*
X041673Y020582D01*
X041663D01*
X041641Y020583D01*
X04162Y020585D01*
X0416Y020587D01*
X041581Y020592D01*
X041563Y020596D01*
X041546Y020602D01*
X04153Y020608D01*
X041515Y020614D01*
X041503Y020619D01*
X041491Y020626D01*
X041481Y020631D01*
X041473Y020635D01*
X041466Y02064D01*
X041462Y020643D01*
X041458Y020644D01*
X041457Y020645D01*
X041441Y020657D01*
X041427Y02067D01*
X041414Y020685D01*
X0414Y020698D01*
X041389Y020712D01*
X04138Y020725D01*
X041371Y020739D01*
X041363Y020751D01*
X041356Y020763D01*
X04135Y020774D01*
X041346Y020784D01*
X041341Y020793D01*
X041338Y020799D01*
X041336Y020805D01*
X041335Y020808D01*
Y020809D01*
X041329Y020826D01*
X041326Y020841D01*
X041324Y020856D01*
X041322Y02087D01*
Y020896D01*
X041324Y020917D01*
X041326Y020927D01*
X041328Y020935D01*
X04133Y020943D01*
X041333Y020948D01*
X041334Y020952D01*
X041336Y020957D01*
X041337Y020958D01*
Y020959D01*
X041346Y020972D01*
X041357Y020984D01*
X041369Y020994D01*
X041382Y021004D01*
X041395Y02101D01*
X041409Y021017D01*
X041424Y021022D01*
X041439Y021026D01*
X041452Y021029D01*
X041465Y021031D01*
X041477Y021033D01*
X041488Y021034D01*
X041497Y021035D01*
X041509D01*
X041529Y021034D01*
D02*
G37*
G36*
X043641Y035983D02*
X043596Y035977D01*
X043592Y035983D01*
X043587Y035988D01*
X043583Y035993D01*
X043579Y035997D01*
X043574Y035999D01*
X043571Y036002D01*
X043569Y036003D01*
X043568Y036004D01*
X043561Y036007D01*
X043554Y03601D01*
X043547Y036012D01*
X04354Y036013D01*
X043535Y036014D01*
X04353Y036014D01*
X04352D01*
X043513Y036013D01*
X043501Y03601D01*
X043491Y036007D01*
X043483Y036003D01*
X043476Y035998D01*
X043471Y035994D01*
X043468Y035992D01*
X043467Y035991D01*
Y035991D01*
X043459Y035981D01*
X043454Y035971D01*
X04345Y035961D01*
X043447Y03595D01*
X043445Y035941D01*
X043445Y035937D01*
Y035934D01*
X043444Y035931D01*
Y035929D01*
Y035928D01*
Y035927D01*
Y035919D01*
X043445Y035912D01*
X043448Y035898D01*
X043452Y035887D01*
X043456Y035877D01*
X04346Y03587D01*
X043464Y035863D01*
X043466Y035862D01*
X043467Y03586D01*
X043468Y03586D01*
X043468Y035859D01*
X043473Y035855D01*
X043477Y035851D01*
X043487Y035844D01*
X043496Y03584D01*
X043506Y035837D01*
X043514Y035835D01*
X04352Y035834D01*
X043523Y035833D01*
X043526D01*
X043536Y035834D01*
X043546Y035836D01*
X043554Y035839D01*
X043561Y035842D01*
X043567Y035846D01*
X043571Y035848D01*
X043574Y035851D01*
X043575Y035851D01*
X043581Y035859D01*
X043587Y035867D01*
X043591Y035877D01*
X043595Y035885D01*
X043597Y035893D01*
X043599Y035899D01*
X043599Y035902D01*
X0436Y035904D01*
Y035905D01*
Y035906D01*
X043649Y035902D01*
X043648Y035893D01*
X043646Y035885D01*
X043641Y035869D01*
X043635Y035856D01*
X043632Y03585D01*
X043629Y035845D01*
X043626Y03584D01*
X043622Y035835D01*
X04362Y035832D01*
X043617Y035829D01*
X043615Y035827D01*
X043614Y035825D01*
X043612Y035824D01*
X043612Y035823D01*
X043605Y035818D01*
X043599Y035814D01*
X043591Y03581D01*
X043584Y035807D01*
X04357Y035802D01*
X043556Y035798D01*
X04355Y035797D01*
X043544Y035796D01*
X043539Y035796D01*
X043535Y035795D01*
X043531Y035795D01*
X043526D01*
X043514Y035795D01*
X043503Y035797D01*
X043493Y035799D01*
X043483Y035802D01*
X043474Y035806D01*
X043466Y03581D01*
X043458Y035813D01*
X043452Y035818D01*
X043445Y035822D01*
X04344Y035826D01*
X043435Y035831D01*
X043432Y035834D01*
X043429Y035837D01*
X043427Y035839D01*
X043425Y035841D01*
X043425Y035841D01*
X043419Y035848D01*
X043415Y035856D01*
X04341Y035863D01*
X043407Y035871D01*
X043402Y035886D01*
X043398Y035901D01*
X043397Y035907D01*
X043396Y035913D01*
X043395Y035918D01*
X043395Y035922D01*
X043394Y035926D01*
Y035929D01*
Y035931D01*
Y035931D01*
X043395Y035941D01*
X043396Y035951D01*
X043398Y03596D01*
X0434Y035968D01*
X043403Y035976D01*
X043405Y035984D01*
X043409Y035991D01*
X043412Y035997D01*
X043415Y036002D01*
X043418Y036007D01*
X043421Y036011D01*
X043424Y036015D01*
X043426Y036018D01*
X043428Y036019D01*
X043429Y03602D01*
X043429Y036021D01*
X043436Y036027D01*
X043443Y036033D01*
X04345Y036037D01*
X043457Y036041D01*
X043464Y036045D01*
X043471Y036048D01*
X043485Y036052D01*
X043491Y036053D01*
X043496Y036054D01*
X043501Y036055D01*
X043506Y036055D01*
X043509Y036056D01*
X043521D01*
X043528Y036055D01*
X043541Y036052D01*
X043554Y036048D01*
X043565Y036044D01*
X043574Y036039D01*
X043577Y036037D01*
X043581Y036035D01*
X043584Y036034D01*
X043585Y036033D01*
X043586Y036032D01*
X043587Y036032D01*
X043566Y036135D01*
X043413D01*
Y03618D01*
X043604D01*
X043641Y035983D01*
D02*
G37*
G36*
X043806Y036178D02*
X043812Y036169D01*
X043819Y03616D01*
X043826Y036152D01*
X043833Y036145D01*
X043838Y03614D01*
X04384Y036138D01*
X043842Y036136D01*
X043842Y036136D01*
X043843Y036135D01*
X043854Y036126D01*
X043866Y036117D01*
X043877Y036109D01*
X043888Y036103D01*
X043898Y036098D01*
X043902Y036095D01*
X043905Y036094D01*
X043908Y036092D01*
X04391Y036092D01*
X043911Y03609D01*
X043912D01*
Y036045D01*
X043903Y036048D01*
X043895Y036052D01*
X043887Y036056D01*
X043879Y03606D01*
X043872Y036063D01*
X043867Y036066D01*
X043863Y036068D01*
X043863Y036069D01*
X043862D01*
X043852Y036075D01*
X043843Y036081D01*
X043836Y036087D01*
X043829Y036092D01*
X043824Y036095D01*
X043821Y036099D01*
X043818Y036101D01*
X043817Y036102D01*
Y035801D01*
X04377D01*
Y036187D01*
X043801D01*
X043806Y036178D01*
D02*
G37*
G36*
X044858Y020458D02*
X044879Y020456D01*
X0449Y020453D01*
X044921Y020448D01*
X04494Y020443D01*
X044957Y020437D01*
X044972Y020431D01*
X044988Y020425D01*
X045001Y020419D01*
X045012Y020412D01*
X045022Y020407D01*
X04503Y020401D01*
X045037Y020397D01*
X045041Y020394D01*
X045044Y020391D01*
X045046Y02039D01*
X045061Y020376D01*
X045076Y020361D01*
X04509Y020343D01*
X045104Y020325D01*
X045129Y020285D01*
X045149Y020246D01*
X045158Y020227D01*
X045166Y02021D01*
X045172Y020194D01*
X045178Y020179D01*
X045183Y020168D01*
X045187Y02016D01*
X045188Y020154D01*
X045189Y020152D01*
X045196Y020127D01*
X045203Y020103D01*
X045208Y020081D01*
X045213Y020062D01*
X045216Y020046D01*
X045218Y020034D01*
Y02003D01*
X045219Y020026D01*
Y020025D01*
Y020024D01*
X045222Y020004D01*
Y019986D01*
Y019971D01*
X04522Y019959D01*
X045219Y019948D01*
X045217Y019941D01*
X045216Y019936D01*
Y019935D01*
X04521Y019918D01*
X045202Y019904D01*
X045193Y019892D01*
X045184Y019882D01*
X045177Y019874D01*
X04517Y019869D01*
X045165Y019866D01*
X045164Y019865D01*
X045147Y019857D01*
X04513Y01985D01*
X04511Y019846D01*
X045091Y019844D01*
X045075Y019842D01*
X045067D01*
X045061Y019841D01*
X045049D01*
X045024Y019842D01*
X045001Y019844D01*
X044979Y019847D01*
X044958Y019853D01*
X04494Y019858D01*
X044922Y019865D01*
X044906Y019871D01*
X04489Y019879D01*
X044877Y019885D01*
X044866Y019892D01*
X044856Y019898D01*
X044848Y019904D01*
X044842Y019909D01*
X044837Y019913D01*
X044835Y019915D01*
X044834Y019916D01*
X044818Y019931D01*
X044804Y019948D01*
X044791Y019966D01*
X044778Y019985D01*
X044755Y020024D01*
X044735Y020063D01*
X044726Y020082D01*
X044719Y020098D01*
X044712Y020114D01*
X044707Y020128D01*
X044702Y020139D01*
X044699Y020147D01*
X044698Y020152D01*
X044697Y020154D01*
X044688Y02018D01*
X044682Y020207D01*
X044676Y02023D01*
X044672Y02025D01*
X04467Y020268D01*
X044668Y020276D01*
X044667Y020281D01*
Y020286D01*
X044666Y02029D01*
Y020292D01*
Y020293D01*
X044665Y020306D01*
Y020317D01*
Y020328D01*
X044666Y020337D01*
X044667Y020344D01*
Y02035D01*
X044668Y020353D01*
Y020354D01*
X044671Y020364D01*
X044674Y020374D01*
X044677Y020383D01*
X044681Y020389D01*
X044685Y020396D01*
X044687Y0204D01*
X044689Y020403D01*
X04469Y020405D01*
X044697Y020413D01*
X044705Y020421D01*
X044713Y020427D01*
X044722Y020433D01*
X044729Y020437D01*
X044735Y020442D01*
X04474Y020443D01*
X044741Y020444D01*
X044754Y020449D01*
X044769Y020453D01*
X044784Y020456D01*
X0448Y020457D01*
X044814Y020458D01*
X044825Y020459D01*
X044835D01*
X044858Y020458D01*
D02*
G37*
G36*
X044168Y036191D02*
X044186Y036188D01*
X044201Y036185D01*
X044209Y036183D01*
X044215Y03618D01*
X044221Y036178D01*
X044227Y036176D01*
X044231Y036174D01*
X044236Y036173D01*
X044239Y036171D01*
X044241Y03617D01*
X044242Y036169D01*
X044243Y036169D01*
X044258Y036159D01*
X044271Y036148D01*
X044282Y036137D01*
X044291Y036126D01*
X044298Y036116D01*
X044301Y036112D01*
X044303Y036108D01*
X044306Y036105D01*
X044307Y036103D01*
X044307Y036101D01*
X044308Y0361D01*
X044316Y036083D01*
X044321Y036065D01*
X044325Y036048D01*
X044328Y036032D01*
X044329Y036024D01*
X04433Y036017D01*
X04433Y036012D01*
Y036006D01*
X044331Y036002D01*
Y035999D01*
Y035997D01*
Y035996D01*
X04433Y035976D01*
X044327Y035957D01*
X044325Y035939D01*
X044322Y035931D01*
X044321Y035924D01*
X044319Y035917D01*
X044317Y035911D01*
X044315Y035906D01*
X044314Y035901D01*
X044312Y035898D01*
X044312Y035895D01*
X044311Y035893D01*
Y035893D01*
X044302Y035876D01*
X044293Y035861D01*
X044283Y035848D01*
X044278Y035843D01*
X044273Y035838D01*
X044269Y035834D01*
X044265Y03583D01*
X044261Y035827D01*
X044257Y035825D01*
X044255Y035822D01*
X044253Y035821D01*
X044252Y03582D01*
X044251Y03582D01*
X044243Y035815D01*
X044236Y035811D01*
X044219Y035805D01*
X044202Y035801D01*
X044186Y035798D01*
X044179Y035797D01*
X044172Y035796D01*
X044166Y035795D01*
X044161D01*
X044156Y035795D01*
X04415D01*
X044139Y035795D01*
X044129Y035796D01*
X044119Y035797D01*
X044109Y0358D01*
X0441Y035802D01*
X044092Y035805D01*
X044084Y035808D01*
X044077Y035811D01*
X044071Y035814D01*
X044065Y035817D01*
X04406Y03582D01*
X044056Y035822D01*
X044053Y035825D01*
X04405Y035826D01*
X044049Y035827D01*
X044049Y035827D01*
X044041Y035834D01*
X044034Y035841D01*
X044028Y035848D01*
X044022Y035856D01*
X044012Y035872D01*
X044004Y035887D01*
X044001Y035894D01*
X043998Y035901D01*
X043996Y035907D01*
X043994Y035912D01*
X043993Y035917D01*
X043992Y03592D01*
X043991Y035922D01*
Y035923D01*
X044042Y035936D01*
X044044Y035927D01*
X044047Y035918D01*
X04405Y035911D01*
X044053Y035903D01*
X044056Y035897D01*
X044059Y035891D01*
X044063Y035886D01*
X044066Y035881D01*
X044069Y035876D01*
X044073Y035873D01*
X044075Y03587D01*
X044078Y035867D01*
X04408Y035865D01*
X044081Y035863D01*
X044082Y035863D01*
X044083Y035862D01*
X044088Y035858D01*
X044094Y035855D01*
X044106Y035848D01*
X044118Y035844D01*
X04413Y035841D01*
X04414Y035839D01*
X044144Y035838D01*
X044147D01*
X044151Y035838D01*
X044155D01*
X044167Y035838D01*
X04418Y035841D01*
X044191Y035843D01*
X044201Y035847D01*
X044209Y03585D01*
X044212Y035852D01*
X044215Y035853D01*
X044217Y035854D01*
X044219Y035855D01*
X04422Y035856D01*
X04422D01*
X044231Y035863D01*
X04424Y035872D01*
X044247Y035881D01*
X044253Y03589D01*
X044258Y035898D01*
X044262Y035904D01*
X044263Y035907D01*
X044264Y035909D01*
X044265Y03591D01*
Y035911D01*
X044269Y035925D01*
X044272Y035939D01*
X044275Y035954D01*
X044277Y035967D01*
X044277Y035973D01*
X044278Y035979D01*
Y035984D01*
X044278Y035988D01*
Y035991D01*
Y035994D01*
Y035996D01*
Y035996D01*
X044278Y03601D01*
X044277Y036024D01*
X044275Y036036D01*
X044272Y036047D01*
X044271Y036057D01*
X04427Y03606D01*
X044268Y036064D01*
X044268Y036067D01*
X044267Y036068D01*
X044267Y036069D01*
Y03607D01*
X044261Y036083D01*
X044255Y036094D01*
X044248Y036104D01*
X044241Y036112D01*
X044235Y036119D01*
X04423Y036123D01*
X044226Y036126D01*
X044226Y036127D01*
X044225D01*
X044214Y036134D01*
X044201Y03614D01*
X044189Y036144D01*
X044177Y036146D01*
X044166Y036148D01*
X044162Y036148D01*
X044158D01*
X044155Y036149D01*
X044151D01*
X044137Y036148D01*
X044124Y036146D01*
X044114Y036143D01*
X044104Y036139D01*
X044097Y036135D01*
X044091Y036133D01*
X044088Y03613D01*
X044087Y036129D01*
X044078Y036121D01*
X04407Y036112D01*
X044063Y036102D01*
X044058Y036092D01*
X044053Y036083D01*
X044051Y036078D01*
X04405Y036075D01*
X044049Y036072D01*
X044048Y03607D01*
X044048Y036069D01*
Y036068D01*
X043998Y03608D01*
X044001Y03609D01*
X044004Y036099D01*
X044009Y036107D01*
X044013Y036115D01*
X044017Y036123D01*
X044022Y036129D01*
X044026Y036136D01*
X044031Y036141D01*
X044035Y036146D01*
X044039Y03615D01*
X044043Y036154D01*
X044046Y036157D01*
X044049Y03616D01*
X044051Y036161D01*
X044052Y036162D01*
X044053Y036163D01*
X04406Y036168D01*
X044068Y036173D01*
X044076Y036176D01*
X044084Y03618D01*
X044101Y036185D01*
X044116Y036188D01*
X044123Y03619D01*
X044129Y03619D01*
X044135Y036191D01*
X04414Y036191D01*
X044144Y036192D01*
X04415D01*
X044168Y036191D01*
D02*
G37*
G36*
X044372Y040406D02*
X04439Y040404D01*
X044405Y0404D01*
X044412Y040398D01*
X044419Y040396D01*
X044425Y040394D01*
X044431Y040391D01*
X044435Y04039D01*
X04444Y040388D01*
X044442Y040386D01*
X044444Y040385D01*
X044446Y040385D01*
X044447Y040384D01*
X044462Y040375D01*
X044474Y040364D01*
X044486Y040353D01*
X044495Y040342D01*
X044502Y040332D01*
X044505Y040327D01*
X044507Y040323D01*
X044509Y04032D01*
X044511Y040318D01*
X044511Y040317D01*
X044512Y040316D01*
X044519Y040299D01*
X044525Y040281D01*
X044529Y040263D01*
X044532Y040247D01*
X044533Y04024D01*
X044533Y040233D01*
X044534Y040227D01*
Y040222D01*
X044534Y040218D01*
Y040214D01*
Y040212D01*
Y040212D01*
X044533Y040192D01*
X044531Y040172D01*
X044528Y040155D01*
X044526Y040147D01*
X044524Y04014D01*
X044523Y040133D01*
X044521Y040127D01*
X044519Y040121D01*
X044518Y040117D01*
X044516Y040113D01*
X044516Y040111D01*
X044514Y040109D01*
Y040108D01*
X044506Y040092D01*
X044497Y040077D01*
X044487Y040064D01*
X044482Y040059D01*
X044477Y040054D01*
X044473Y04005D01*
X044468Y040046D01*
X044464Y040042D01*
X044461Y04004D01*
X044459Y040038D01*
X044457Y040036D01*
X044456Y040036D01*
X044455Y040035D01*
X044447Y040031D01*
X04444Y040027D01*
X044423Y040021D01*
X044406Y040016D01*
X04439Y040014D01*
X044382Y040012D01*
X044376Y040011D01*
X04437Y040011D01*
X044365D01*
X04436Y04001D01*
X044354D01*
X044343Y040011D01*
X044332Y040012D01*
X044322Y040013D01*
X044313Y040015D01*
X044304Y040018D01*
X044296Y040021D01*
X044288Y040024D01*
X044281Y040027D01*
X044275Y04003D01*
X044269Y040032D01*
X044264Y040035D01*
X04426Y040038D01*
X044257Y04004D01*
X044254Y040041D01*
X044253Y040042D01*
X044252Y040043D01*
X044245Y04005D01*
X044238Y040056D01*
X044232Y040064D01*
X044226Y040072D01*
X044216Y040087D01*
X044208Y040103D01*
X044205Y04011D01*
X044202Y040117D01*
X0442Y040123D01*
X044198Y040128D01*
X044196Y040132D01*
X044195Y040136D01*
X044195Y040138D01*
Y040138D01*
X044246Y040151D01*
X044248Y040142D01*
X044251Y040134D01*
X044254Y040126D01*
X044256Y040119D01*
X04426Y040112D01*
X044263Y040107D01*
X044267Y040101D01*
X04427Y040096D01*
X044273Y040092D01*
X044276Y040088D01*
X044279Y040085D01*
X044281Y040082D01*
X044284Y040081D01*
X044285Y040079D01*
X044286Y040078D01*
X044286Y040078D01*
X044292Y040073D01*
X044298Y04007D01*
X04431Y040064D01*
X044322Y04006D01*
X044334Y040057D01*
X044343Y040055D01*
X044347Y040054D01*
X044351D01*
X044355Y040053D01*
X044358D01*
X044371Y040054D01*
X044383Y040056D01*
X044395Y040059D01*
X044405Y040062D01*
X044412Y040066D01*
X044416Y040067D01*
X044418Y040068D01*
X044421Y04007D01*
X044422Y040071D01*
X044423Y040071D01*
X044424D01*
X044435Y040079D01*
X044443Y040087D01*
X044451Y040097D01*
X044457Y040106D01*
X044462Y040113D01*
X044466Y04012D01*
X044467Y040123D01*
X044468Y040125D01*
X044468Y040126D01*
Y040126D01*
X044473Y040141D01*
X044476Y040155D01*
X044479Y040169D01*
X044481Y040183D01*
X044481Y040189D01*
X044482Y040194D01*
Y040199D01*
X044482Y040203D01*
Y040207D01*
Y040209D01*
Y040211D01*
Y040212D01*
X044482Y040226D01*
X044481Y040239D01*
X044478Y040252D01*
X044476Y040263D01*
X044474Y040272D01*
X044473Y040276D01*
X044472Y040279D01*
X044472Y040282D01*
X044471Y040284D01*
X044471Y040285D01*
Y040285D01*
X044465Y040298D01*
X044459Y04031D01*
X044452Y040319D01*
X044445Y040328D01*
X044439Y040334D01*
X044434Y040339D01*
X04443Y040342D01*
X04443Y040343D01*
X044429D01*
X044417Y04035D01*
X044405Y040355D01*
X044392Y040359D01*
X044381Y040362D01*
X04437Y040363D01*
X044366Y040364D01*
X044362D01*
X044359Y040364D01*
X044355D01*
X044341Y040364D01*
X044328Y040362D01*
X044317Y040358D01*
X044308Y040355D01*
X044301Y040351D01*
X044295Y040348D01*
X044292Y040346D01*
X044291Y040345D01*
X044282Y040337D01*
X044274Y040327D01*
X044267Y040317D01*
X044261Y040307D01*
X044257Y040298D01*
X044255Y040294D01*
X044254Y04029D01*
X044253Y040288D01*
X044252Y040285D01*
X044251Y040284D01*
Y040284D01*
X044201Y040295D01*
X044205Y040305D01*
X044208Y040314D01*
X044213Y040323D01*
X044216Y040331D01*
X044221Y040338D01*
X044226Y040345D01*
X04423Y040352D01*
X044235Y040357D01*
X044239Y040362D01*
X044243Y040366D01*
X044247Y04037D01*
X04425Y040373D01*
X044252Y040375D01*
X044255Y040377D01*
X044256Y040378D01*
X044256Y040378D01*
X044264Y040383D01*
X044272Y040388D01*
X04428Y040392D01*
X044288Y040395D01*
X044305Y0404D01*
X04432Y040404D01*
X044327Y040405D01*
X044333Y040406D01*
X044339Y040406D01*
X044344Y040407D01*
X044348Y040408D01*
X044353D01*
X044372Y040406D01*
D02*
G37*
G36*
X043728Y040402D02*
X043739Y040401D01*
X043749Y040399D01*
X043758Y040396D01*
X043766Y040392D01*
X043775Y040389D01*
X043782Y040384D01*
X043788Y04038D01*
X043794Y040376D01*
X0438Y040372D01*
X043804Y040369D01*
X043807Y040365D01*
X04381Y040362D01*
X043812Y04036D01*
X043813Y040359D01*
X043814Y040358D01*
X043821Y040348D01*
X043827Y040337D01*
X043833Y040324D01*
X043838Y040312D01*
X043842Y040298D01*
X043845Y040285D01*
X043848Y040271D01*
X04385Y040258D01*
X043852Y040246D01*
X043853Y040234D01*
X043854Y040223D01*
X043855Y040214D01*
Y040207D01*
X043855Y040201D01*
Y040199D01*
Y040197D01*
Y040197D01*
Y040196D01*
X043855Y040178D01*
X043853Y040162D01*
X043852Y040146D01*
X043849Y040132D01*
X043846Y040119D01*
X043843Y040107D01*
X04384Y040097D01*
X043836Y040087D01*
X043833Y04008D01*
X04383Y040072D01*
X043827Y040067D01*
X043823Y040062D01*
X043821Y040058D01*
X04382Y040056D01*
X043818Y040054D01*
X043818Y040053D01*
X043811Y040046D01*
X043803Y040039D01*
X043795Y040033D01*
X043787Y040029D01*
X043779Y040024D01*
X043771Y040021D01*
X043764Y040018D01*
X043756Y040016D01*
X043749Y040014D01*
X043742Y040012D01*
X043737Y040011D01*
X043732Y040011D01*
X043727D01*
X043725Y04001D01*
X043722D01*
X043709Y040011D01*
X043697Y040013D01*
X043687Y040015D01*
X043677Y040019D01*
X04367Y040021D01*
X043665Y040024D01*
X043663Y040025D01*
X043661Y040026D01*
X04366Y040026D01*
X04366D01*
X04365Y040033D01*
X043641Y040041D01*
X043634Y040048D01*
X043628Y040056D01*
X043623Y040063D01*
X04362Y040069D01*
X043619Y040071D01*
X043618Y040073D01*
X043617Y040073D01*
Y040074D01*
X043611Y040086D01*
X043608Y040098D01*
X043605Y040109D01*
X043603Y04012D01*
X043601Y040128D01*
Y040132D01*
X043601Y040135D01*
Y040138D01*
Y04014D01*
Y040141D01*
Y040141D01*
X043601Y040151D01*
X043603Y040161D01*
X043604Y04017D01*
X043606Y040178D01*
X043609Y040186D01*
X043611Y040194D01*
X043614Y040201D01*
X043618Y040207D01*
X043621Y040212D01*
X043624Y040217D01*
X043626Y040221D01*
X043629Y040225D01*
X043631Y040228D01*
X043633Y040229D01*
X043634Y040231D01*
X043634Y040231D01*
X04364Y040237D01*
X043647Y040243D01*
X043654Y040247D01*
X043661Y040251D01*
X043667Y040255D01*
X043674Y040258D01*
X043687Y040262D01*
X043692Y040263D01*
X043698Y040264D01*
X043702Y040265D01*
X043707Y040265D01*
X04371Y040266D01*
X043715D01*
X043725Y040265D01*
X043734Y040264D01*
X043743Y040262D01*
X043751Y04026D01*
X043757Y040257D01*
X043762Y040255D01*
X043766Y040254D01*
X043766Y040253D01*
X043767D01*
X043776Y040248D01*
X043783Y040242D01*
X043791Y040236D01*
X043796Y040229D01*
X043801Y040223D01*
X043805Y040219D01*
X043807Y040216D01*
X043808Y040215D01*
Y040225D01*
X043807Y040235D01*
X043807Y040244D01*
X043806Y040253D01*
X043805Y040261D01*
X043804Y040268D01*
X043803Y040274D01*
X043801Y04028D01*
X0438Y040286D01*
X043799Y04029D01*
X043798Y040294D01*
X043797Y040298D01*
X043796Y0403D01*
X043796Y040302D01*
X043795Y040303D01*
Y040303D01*
X04379Y040314D01*
X043784Y040324D01*
X043778Y040332D01*
X043772Y040339D01*
X043767Y040344D01*
X043764Y040348D01*
X043761Y04035D01*
X04376Y040351D01*
X043753Y040355D01*
X043746Y040358D01*
X04374Y04036D01*
X043733Y040362D01*
X043728Y040363D01*
X043724Y040364D01*
X04372D01*
X04371Y040363D01*
X0437Y04036D01*
X043692Y040357D01*
X043685Y040354D01*
X04368Y04035D01*
X043676Y040347D01*
X043674Y040344D01*
X043672Y040343D01*
X043669Y040338D01*
X043665Y040332D01*
X043661Y040325D01*
X043659Y040319D01*
X043657Y040313D01*
X043655Y040308D01*
X043655Y040304D01*
X043654Y040304D01*
Y040303D01*
X043607Y040307D01*
X04361Y040323D01*
X043615Y040337D01*
X043621Y040349D01*
X043627Y040359D01*
X043633Y040367D01*
X043635Y04037D01*
X043638Y040373D01*
X04364Y040374D01*
X043641Y040376D01*
X043642Y040376D01*
X043643Y040377D01*
X043648Y040381D01*
X043654Y040385D01*
X043666Y040392D01*
X043679Y040396D01*
X04369Y040399D01*
X043701Y040401D01*
X043705Y040402D01*
X043709D01*
X043712Y040403D01*
X043717D01*
X043728Y040402D01*
D02*
G37*
G36*
X04401Y040393D02*
X044016Y040384D01*
X044023Y040375D01*
X04403Y040368D01*
X044037Y040361D01*
X044042Y040355D01*
X044044Y040354D01*
X044045Y040352D01*
X044046Y040352D01*
X044047Y040351D01*
X044058Y040342D01*
X04407Y040333D01*
X044081Y040325D01*
X044092Y040319D01*
X044102Y040313D01*
X044105Y040311D01*
X044109Y040309D01*
X044111Y040308D01*
X044114Y040307D01*
X044115Y040306D01*
X044115D01*
Y040261D01*
X044107Y040264D01*
X044099Y040268D01*
X04409Y040272D01*
X044083Y040275D01*
X044076Y040279D01*
X04407Y040282D01*
X044067Y040284D01*
X044067Y040284D01*
X044066D01*
X044056Y04029D01*
X044047Y040297D01*
X044039Y040302D01*
X044033Y040307D01*
X044028Y040311D01*
X044024Y040314D01*
X044022Y040317D01*
X044021Y040317D01*
Y040017D01*
X043974D01*
Y040403D01*
X044004D01*
X04401Y040393D01*
D02*
G37*
G36*
X042751Y01985D02*
X042422D01*
X04241Y019851D01*
X042396Y019853D01*
X042381Y019855D01*
X042368Y019856D01*
X042357Y019857D01*
X042352D01*
X042349Y019858D01*
X042346D01*
X042328Y019861D01*
X042313Y019863D01*
X0423Y019867D01*
X042289Y01987D01*
X04228Y019873D01*
X042275Y019875D01*
X04227Y019878D01*
X042269D01*
X042253Y019886D01*
X042238Y019896D01*
X042225Y019906D01*
X042214Y019916D01*
X042204Y019924D01*
X042196Y01993D01*
X042192Y019936D01*
X042191Y019937D01*
X042179Y019951D01*
X042168Y019965D01*
X042159Y019979D01*
X042152Y019992D01*
X042147Y020003D01*
X042144Y020012D01*
X042141Y020018D01*
X04214Y02002D01*
X042135Y020041D01*
X042132Y020059D01*
X042131Y020076D01*
X042132Y020089D01*
X042134Y0201D01*
X042136Y020108D01*
X042137Y020113D01*
X042138Y020115D01*
X042147Y020128D01*
X042158Y020139D01*
X04217Y020149D01*
X042183Y020156D01*
X042195Y020162D01*
X042205Y020165D01*
X042213Y020167D01*
X042214Y020168D01*
X042215D01*
X042197Y020175D01*
X042182Y020182D01*
X042169Y020188D01*
X042157Y020195D01*
X042148Y0202D01*
X042141Y020204D01*
X042137Y020208D01*
X042136Y020209D01*
X04212Y020224D01*
X042106Y020239D01*
X042096Y020255D01*
X042087Y020269D01*
X04208Y020281D01*
X042076Y020291D01*
X042074Y020297D01*
X042073Y020298D01*
Y0203D01*
X042069Y020312D01*
X042067Y020323D01*
X042065Y020343D01*
X042066Y020361D01*
X042069Y020376D01*
X042074Y020389D01*
X042078Y020398D01*
X042081Y020403D01*
X042082Y020406D01*
X042089Y020413D01*
X042097Y02042D01*
X042114Y020431D01*
X042134Y020438D01*
X042154Y020444D01*
X042172Y020447D01*
X042181Y020448D01*
X042187D01*
X042193Y020449D01*
X042548D01*
X042751Y01985D01*
D02*
G37*
G36*
X0433Y020004D02*
X043059D01*
X043014Y020133D01*
X043255D01*
X0433Y020004D01*
D02*
G37*
G36*
X047586Y020458D02*
X047611Y020455D01*
X047633Y020452D01*
X047652Y020447D01*
X047669Y020442D01*
X047675Y020439D01*
X047681Y020438D01*
X047685Y020436D01*
X047688Y020435D01*
X04769Y020434D01*
X047691D01*
X047711Y020424D01*
X047731Y020412D01*
X047749Y020399D01*
X047764Y020387D01*
X047776Y020376D01*
X047786Y020367D01*
X047791Y020362D01*
X047792Y020361D01*
X047793Y02036D01*
X047809Y020341D01*
X047823Y020323D01*
X047834Y020304D01*
X047843Y020288D01*
X04785Y020272D01*
X047855Y020261D01*
X047857Y020257D01*
X047858Y020254D01*
X047859Y020253D01*
Y020251D01*
X047863Y020235D01*
X047867Y02022D01*
X047869Y020206D01*
X04787Y020192D01*
Y020167D01*
X047867Y020147D01*
X047864Y020138D01*
X047862Y02013D01*
X04786Y020124D01*
X047858Y020117D01*
X047856Y020113D01*
X047853Y020109D01*
X047852Y020108D01*
Y020107D01*
X047845Y020097D01*
X047837Y020089D01*
X047828Y020081D01*
X047819Y020074D01*
X0478Y020065D01*
X047781Y020058D01*
X047764Y020054D01*
X047756Y020053D01*
X04775Y020051D01*
X047744Y02005D01*
X047737D01*
X047721Y020051D01*
X047707Y020053D01*
X047694Y020055D01*
X047682Y020058D01*
X047672Y02006D01*
X047666Y020062D01*
X04766Y020063D01*
X047659Y020065D01*
X047645Y020071D01*
X047632Y020078D01*
X047618Y020085D01*
X047608Y020092D01*
X047597Y020098D01*
X047589Y020104D01*
X047585Y020108D01*
X047582Y020109D01*
X04759Y020092D01*
X047597Y020077D01*
X047603Y020062D01*
X04761Y020049D01*
X047616Y020037D01*
X047622Y020027D01*
X047626Y020018D01*
X047631Y02001D01*
X047635Y020003D01*
X047638Y019998D01*
X047645Y019989D01*
X047648Y019984D01*
X047649Y019983D01*
X047662Y019969D01*
X047676Y01996D01*
X04769Y019953D01*
X0477Y019949D01*
X047711Y019945D01*
X047719Y019944D01*
X047723Y019943D01*
X047726D01*
X047733Y019944D01*
X04774Y019945D01*
X04775Y019951D01*
X047756Y019955D01*
X047757Y019956D01*
X047758Y019957D01*
X047762Y019964D01*
X047764Y019972D01*
X047765Y019987D01*
Y019995D01*
Y020001D01*
X047764Y020006D01*
Y020007D01*
X047935Y019985D01*
Y019967D01*
X047934Y019952D01*
X047932Y019939D01*
X047929Y019927D01*
X047927Y019918D01*
X047923Y01991D01*
X047922Y019906D01*
X047921Y019905D01*
X047915Y019894D01*
X047906Y019884D01*
X047898Y019875D01*
X04789Y019869D01*
X047882Y019863D01*
X047875Y01986D01*
X047871Y019858D01*
X04787Y019857D01*
X047855Y019851D01*
X047838Y019847D01*
X04782Y019845D01*
X047803Y019843D01*
X047787Y019842D01*
X047775Y019841D01*
X047763D01*
X04774Y019842D01*
X047719Y019844D01*
X047698Y019847D01*
X047679Y019853D01*
X047659Y019858D01*
X047641Y019865D01*
X047625Y019871D01*
X04761Y019878D01*
X047597Y019884D01*
X047585Y019892D01*
X047574Y019897D01*
X047565Y019903D01*
X047558Y019908D01*
X047553Y019912D01*
X04755Y019914D01*
X047549Y019915D01*
X047531Y01993D01*
X047515Y019947D01*
X047499Y019965D01*
X047485Y019984D01*
X04746Y020023D01*
X047449Y020043D01*
X047438Y020061D01*
X047429Y02008D01*
X047422Y020097D01*
X047414Y020113D01*
X047409Y020126D01*
X047404Y020137D01*
X047401Y020145D01*
X0474Y02015D01*
X047399Y020152D01*
X047392Y020172D01*
X047387Y020191D01*
X047382Y020209D01*
X047379Y020226D01*
X047376Y020242D01*
X047374Y020257D01*
X047373Y02027D01*
X047371Y020282D01*
X04737Y020293D01*
Y020302D01*
Y020311D01*
Y020317D01*
Y020323D01*
X047371Y020326D01*
Y020328D01*
Y020329D01*
X047377Y020353D01*
X047384Y020373D01*
X047392Y02039D01*
X047402Y020403D01*
X047411Y020414D01*
X047418Y020422D01*
X047423Y020426D01*
X047425Y020427D01*
X047444Y020438D01*
X047464Y020446D01*
X047486Y020452D01*
X047508Y020455D01*
X047528Y020458D01*
X047537D01*
X047544Y020459D01*
X047558D01*
X047586Y020458D01*
D02*
G37*
G36*
X041547Y01985D02*
X04138D01*
X041176Y020449D01*
X041344D01*
X041547Y01985D01*
D02*
G37*
G36*
X046119Y019841D02*
X046036D01*
X045674Y020459D01*
X045758D01*
X046119Y019841D01*
D02*
G37*
G36*
X046766Y020458D02*
X046788Y020456D01*
X046809Y020453D01*
X046829Y020448D01*
X046848Y020443D01*
X046865Y020437D01*
X046881Y020431D01*
X046896Y020425D01*
X046909Y020419D01*
X04692Y020412D01*
X04693Y020407D01*
X046939Y020401D01*
X046945Y020397D01*
X04695Y020394D01*
X046953Y020391D01*
X046954Y02039D01*
X046969Y020376D01*
X046985Y020361D01*
X046999Y020343D01*
X047012Y020325D01*
X047037Y020285D01*
X047058Y020246D01*
X047067Y020227D01*
X047074Y02021D01*
X047081Y020194D01*
X047086Y020179D01*
X047092Y020168D01*
X047095Y02016D01*
X047096Y020154D01*
X047097Y020152D01*
X047105Y020127D01*
X047111Y020103D01*
X047117Y020081D01*
X047121Y020062D01*
X047124Y020046D01*
X047127Y020034D01*
Y02003D01*
X047128Y020026D01*
Y020025D01*
Y020024D01*
X04713Y020004D01*
Y019986D01*
Y019971D01*
X047129Y019959D01*
X047128Y019948D01*
X047126Y019941D01*
X047124Y019936D01*
Y019935D01*
X047118Y019918D01*
X04711Y019904D01*
X047102Y019892D01*
X047093Y019882D01*
X047085Y019874D01*
X047079Y019869D01*
X047073Y019866D01*
X047072Y019865D01*
X047056Y019857D01*
X047038Y01985D01*
X047018Y019846D01*
X047Y019844D01*
X046983Y019842D01*
X046976D01*
X046969Y019841D01*
X046957D01*
X046932Y019842D01*
X046909Y019844D01*
X046887Y019847D01*
X046867Y019853D01*
X046848Y019858D01*
X04683Y019865D01*
X046814Y019871D01*
X046799Y019879D01*
X046786Y019885D01*
X046775Y019892D01*
X046765Y019898D01*
X046756Y019904D01*
X046751Y019909D01*
X046745Y019913D01*
X046743Y019915D01*
X046742Y019916D01*
X046727Y019931D01*
X046712Y019948D01*
X046699Y019966D01*
X046686Y019985D01*
X046663Y020024D01*
X046644Y020063D01*
X046635Y020082D01*
X046627Y020098D01*
X046621Y020114D01*
X046615Y020128D01*
X046611Y020139D01*
X046607Y020147D01*
X046606Y020152D01*
X046605Y020154D01*
X046597Y02018D01*
X04659Y020207D01*
X046585Y02023D01*
X04658Y02025D01*
X046578Y020268D01*
X046577Y020276D01*
X046576Y020281D01*
Y020286D01*
X046575Y02029D01*
Y020292D01*
Y020293D01*
X046574Y020306D01*
Y020317D01*
Y020328D01*
X046575Y020337D01*
X046576Y020344D01*
Y02035D01*
X046577Y020353D01*
Y020354D01*
X046579Y020364D01*
X046582Y020374D01*
X046586Y020383D01*
X046589Y020389D01*
X046593Y020396D01*
X046595Y0204D01*
X046598Y020403D01*
X046599Y020405D01*
X046605Y020413D01*
X046613Y020421D01*
X046622Y020427D01*
X04663Y020433D01*
X046637Y020437D01*
X046644Y020442D01*
X046648Y020443D01*
X046649Y020444D01*
X046662Y020449D01*
X046677Y020453D01*
X046693Y020456D01*
X046708Y020457D01*
X046722Y020458D01*
X046733Y020459D01*
X046743D01*
X046766Y020458D01*
D02*
G37*
G36*
X047469Y019841D02*
X047386D01*
X047024Y020459D01*
X047108D01*
X047469Y019841D01*
D02*
G37*
G36*
X045367Y020592D02*
X045201D01*
X045054Y021026D01*
X04522D01*
X045367Y020592D01*
D02*
G37*
G36*
X048376Y021034D02*
X048393Y021033D01*
X048409Y02103D01*
X048422Y021027D01*
X048433Y021023D01*
X04844Y021021D01*
X048446Y021019D01*
X048448Y021018D01*
X048463Y02101D01*
X048478Y021003D01*
X048493Y020993D01*
X048506Y020983D01*
X048517Y020975D01*
X048527Y020968D01*
X048532Y020963D01*
X048533Y020961D01*
X048534D01*
X048513Y021026D01*
X048669D01*
X048815Y020592D01*
X048648D01*
X048574Y020813D01*
X048567Y02083D01*
X04856Y020844D01*
X048553Y020856D01*
X048545Y020866D01*
X04854Y020874D01*
X048536Y020879D01*
X048532Y020882D01*
X048531Y020884D01*
X048521Y020891D01*
X048511Y020897D01*
X048503Y0209D01*
X048494Y020903D01*
X048486Y020904D01*
X048481Y020905D01*
X048477D01*
X048464Y020903D01*
X048456Y0209D01*
X048451Y020897D01*
X048449Y020894D01*
X048444Y020886D01*
X04844Y020878D01*
X048439Y020872D01*
Y020869D01*
Y020868D01*
Y020864D01*
X04844Y020858D01*
X048444Y020845D01*
X048446Y02084D01*
X048448Y020834D01*
X048449Y020831D01*
Y02083D01*
X04853Y020592D01*
X048363D01*
X048287Y020816D01*
X048281Y020832D01*
X048274Y020846D01*
X048267Y020858D01*
X04826Y020867D01*
X048255Y020875D01*
X04825Y020879D01*
X048247Y020882D01*
X048246Y020884D01*
X048236Y020891D01*
X048226Y020897D01*
X048217Y0209D01*
X048209Y020903D01*
X048202Y020904D01*
X048197Y020905D01*
X048191D01*
X048182Y020904D01*
X048176Y020902D01*
X048169Y020898D01*
X048165Y020894D01*
X048162Y02089D01*
X04816Y020886D01*
X048157Y020884D01*
Y020882D01*
X048155Y020877D01*
Y020869D01*
X048157Y020855D01*
X048158Y020849D01*
X04816Y020843D01*
X048162Y02084D01*
Y020839D01*
X048245Y020592D01*
X048078D01*
X047986Y020864D01*
X04798Y02088D01*
X047977Y020894D01*
X047972Y020922D01*
X04797Y020944D01*
X047972Y020962D01*
X047974Y020976D01*
X047977Y020986D01*
X047979Y020992D01*
X04798Y020994D01*
X047991Y021008D01*
X048005Y021018D01*
X048022Y021026D01*
X048037Y02103D01*
X048052Y021033D01*
X048064Y021034D01*
X048069Y021035D01*
X048075D01*
X048093Y021034D01*
X048109Y021033D01*
X048123Y02103D01*
X048135Y021028D01*
X048146Y021025D01*
X048154Y021021D01*
X048158Y02102D01*
X048161Y021019D01*
X048175Y021013D01*
X04819Y021004D01*
X048205Y020994D01*
X04822Y020984D01*
X048233Y020975D01*
X048243Y020968D01*
X048249Y020963D01*
X04825Y020961D01*
X048251D01*
X048255Y020974D01*
X048259Y020985D01*
X048264Y020995D01*
X04827Y021003D01*
X048275Y021009D01*
X048279Y021014D01*
X048282Y021016D01*
X048283Y021017D01*
X048293Y021023D01*
X048305Y021028D01*
X048317Y021031D01*
X04833Y021033D01*
X048341Y021034D01*
X04835Y021035D01*
X048358D01*
X048376Y021034D01*
D02*
G37*
G36*
X042444Y020592D02*
X042289D01*
X042267Y020655D01*
X04226Y020641D01*
X042253Y02063D01*
X042245Y02062D01*
X04224Y020612D01*
X042234Y020607D01*
X04223Y020604D01*
X042227Y020602D01*
X042226Y0206D01*
X042214Y020594D01*
X042202Y02059D01*
X04219Y020586D01*
X042178Y020584D01*
X042168Y020583D01*
X04216Y020582D01*
X042152D01*
X042133Y020583D01*
X042115Y020586D01*
X042098Y020591D01*
X042082Y020595D01*
X042069Y020599D01*
X042059Y020604D01*
X042053Y020607D01*
X042051Y020608D01*
X042032Y020619D01*
X042015Y020632D01*
X041998Y020645D01*
X041985Y020658D01*
X041973Y02067D01*
X041966Y02068D01*
X04196Y020687D01*
X041958Y020688D01*
Y020689D01*
X041943Y02071D01*
X041929Y020732D01*
X041919Y020752D01*
X041909Y020772D01*
X041901Y02079D01*
X041898Y020796D01*
X041896Y020803D01*
X041893Y020808D01*
X041892Y020811D01*
X041891Y020814D01*
Y020815D01*
X041885Y020834D01*
X04188Y020852D01*
X041877Y020869D01*
X041876Y020885D01*
X041875Y0209D01*
Y020913D01*
Y020925D01*
X041876Y020936D01*
X041878Y020946D01*
X041879Y020954D01*
X041881Y020961D01*
X041884Y020967D01*
X041885Y020972D01*
X041887Y020975D01*
X041888Y020976D01*
Y020978D01*
X041894Y020987D01*
X041902Y020997D01*
X04191Y021005D01*
X041919Y021011D01*
X041937Y021021D01*
X041956Y021028D01*
X041972Y021032D01*
X04198Y021033D01*
X041986Y021034D01*
X041992Y021035D01*
X042014D01*
X042027Y021033D01*
X04204Y021031D01*
X042051Y021029D01*
X042061Y021027D01*
X042067Y021025D01*
X042072Y021023D01*
X042074Y021022D01*
X042087Y021017D01*
X0421Y02101D01*
X042112Y021004D01*
X042122Y020998D01*
X042131Y020992D01*
X042138Y020987D01*
X042143Y020984D01*
X042144Y020983D01*
X042073Y021191D01*
X042241D01*
X042444Y020592D01*
D02*
G37*
G36*
X045203Y021077D02*
X045037D01*
X044997Y021191D01*
X045164D01*
X045203Y021077D01*
D02*
G37*
G36*
X047646Y021034D02*
X047661Y021033D01*
X047674Y021032D01*
X047685Y02103D01*
X047694Y021029D01*
X047699Y021028D01*
X047702D01*
X047717Y021026D01*
X04773Y021022D01*
X047742Y021019D01*
X047752Y021016D01*
X047759Y021013D01*
X047765Y02101D01*
X047769Y021009D01*
X04777Y021008D01*
X047785Y021002D01*
X047797Y020994D01*
X047808Y020987D01*
X047816Y020981D01*
X047824Y020975D01*
X047829Y020971D01*
X047833Y020968D01*
X047834Y020967D01*
X047843Y020957D01*
X047852Y020946D01*
X04786Y020935D01*
X047868Y020925D01*
X047873Y020915D01*
X047878Y020908D01*
X047881Y020903D01*
X047882Y020901D01*
X047728Y020885D01*
X047721Y020894D01*
X047714Y020902D01*
X047707Y020909D01*
X047702Y020914D01*
X047697Y020919D01*
X047693Y020921D01*
X047691Y020923D01*
X04769D01*
X04768Y020927D01*
X047669Y020931D01*
X047658Y020933D01*
X047647Y020935D01*
X047638D01*
X047631Y020936D01*
X047613D01*
X047604Y020934D01*
X047598Y020932D01*
X047592Y020929D01*
X047588Y020927D01*
X047586Y020925D01*
X047584Y020924D01*
Y020923D01*
X047581Y020917D01*
X04758Y020911D01*
Y020898D01*
X047582Y020891D01*
X047584Y020886D01*
X047585Y020882D01*
Y020881D01*
X047598Y020877D01*
X04761Y020873D01*
X047622Y020869D01*
X047632Y020866D01*
X047639Y020864D01*
X047646Y020862D01*
X04765Y020861D01*
X047651D01*
X047658Y02086D01*
X047666Y020857D01*
X047674Y020855D01*
X047684Y020853D01*
X047705Y020849D01*
X047728Y020844D01*
X047747Y020841D01*
X047757Y020839D01*
X047765Y020838D01*
X047772Y020837D01*
X047777Y020835D01*
X04778Y020834D01*
X047781D01*
X047811Y020828D01*
X047836Y02082D01*
X047857Y020813D01*
X047874Y020805D01*
X047887Y020798D01*
X047897Y020793D01*
X047903Y020788D01*
X047905Y020787D01*
X047919Y020775D01*
X04793Y020761D01*
X04794Y020748D01*
X047948Y020735D01*
X047954Y020724D01*
X047958Y020715D01*
X047961Y020709D01*
X047962Y020708D01*
Y020707D01*
X047966Y020687D01*
X047967Y02067D01*
X047966Y020655D01*
X047963Y020642D01*
X04796Y020631D01*
X047956Y020623D01*
X047953Y020619D01*
X047952Y020617D01*
X047946Y02061D01*
X047939Y020605D01*
X047923Y020597D01*
X047906Y020591D01*
X047888Y020586D01*
X047872Y020584D01*
X047858Y020583D01*
X047853Y020582D01*
X047846D01*
X047824Y020583D01*
X047804Y020585D01*
X047786Y020587D01*
X047769Y020591D01*
X047755Y020594D01*
X047745Y020597D01*
X047739Y020598D01*
X047737Y020599D01*
X047722Y020605D01*
X047708Y020612D01*
X047695Y020619D01*
X047682Y020627D01*
X047671Y020633D01*
X047663Y020639D01*
X047658Y020643D01*
X047656Y020644D01*
X047658Y020632D01*
X047659Y020623D01*
X04766Y020619D01*
Y020617D01*
X047659Y020609D01*
X047658Y020602D01*
X047657Y020595D01*
X047656Y020593D01*
Y020592D01*
X047499D01*
X047502Y020609D01*
Y020617D01*
Y020623D01*
Y020629D01*
Y020632D01*
Y020634D01*
Y020635D01*
X0475Y020643D01*
X047498Y020651D01*
X047495Y020666D01*
X047493Y020673D01*
X047491Y020678D01*
X04749Y020682D01*
Y020684D01*
X047424Y020875D01*
X047418Y020898D01*
X047416Y020909D01*
Y020919D01*
X047415Y020927D01*
Y020934D01*
Y020938D01*
Y020939D01*
X047416Y020951D01*
X047417Y020962D01*
X04742Y020971D01*
X047423Y020979D01*
X047426Y020984D01*
X047428Y020988D01*
X047429Y020991D01*
X047431Y020992D01*
X047439Y021001D01*
X047449Y021008D01*
X04746Y021015D01*
X04747Y021019D01*
X04748Y021022D01*
X047487Y021025D01*
X047492Y021027D01*
X047494D01*
X047511Y02103D01*
X04753Y021032D01*
X04755Y021033D01*
X047569Y021034D01*
X047586Y021035D01*
X047629D01*
X047646Y021034D01*
D02*
G37*
G36*
X045005Y020858D02*
X044827D01*
X04477Y021026D01*
X044948D01*
X045005Y020858D01*
D02*
G37*
G36*
X040995Y021034D02*
X04101Y021033D01*
X041023Y021032D01*
X041034Y02103D01*
X041043Y021029D01*
X041048Y021028D01*
X041051D01*
X041066Y021026D01*
X041079Y021022D01*
X041091Y021019D01*
X041101Y021016D01*
X041109Y021013D01*
X041114Y02101D01*
X041118Y021009D01*
X04112Y021008D01*
X041134Y021002D01*
X041146Y020994D01*
X041157Y020987D01*
X041165Y020981D01*
X041173Y020975D01*
X041179Y020971D01*
X041182Y020968D01*
X041183Y020967D01*
X041192Y020957D01*
X041202Y020946D01*
X041209Y020935D01*
X041217Y020925D01*
X041222Y020915D01*
X041227Y020908D01*
X04123Y020903D01*
X041231Y020901D01*
X041077Y020885D01*
X04107Y020894D01*
X041063Y020902D01*
X041056Y020909D01*
X041051Y020914D01*
X041046Y020919D01*
X041042Y020921D01*
X04104Y020923D01*
X041039D01*
X041029Y020927D01*
X041018Y020931D01*
X041007Y020933D01*
X040996Y020935D01*
X040987D01*
X04098Y020936D01*
X040962D01*
X040953Y020934D01*
X040947Y020932D01*
X040941Y020929D01*
X040937Y020927D01*
X040935Y020925D01*
X040933Y020924D01*
Y020923D01*
X04093Y020917D01*
X040929Y020911D01*
Y020898D01*
X040932Y020891D01*
X040933Y020886D01*
X040934Y020882D01*
Y020881D01*
X040947Y020877D01*
X040959Y020873D01*
X040971Y020869D01*
X040981Y020866D01*
X040988Y020864D01*
X040995Y020862D01*
X040999Y020861D01*
X041D01*
X041007Y02086D01*
X041015Y020857D01*
X041023Y020855D01*
X041033Y020853D01*
X041054Y020849D01*
X041077Y020844D01*
X041097Y020841D01*
X041106Y020839D01*
X041114Y020838D01*
X041121Y020837D01*
X041126Y020835D01*
X041129Y020834D01*
X04113D01*
X04116Y020828D01*
X041185Y02082D01*
X041206Y020813D01*
X041223Y020805D01*
X041236Y020798D01*
X041246Y020793D01*
X041252Y020788D01*
X041254Y020787D01*
X041268Y020775D01*
X041279Y020761D01*
X041289Y020748D01*
X041297Y020735D01*
X041303Y020724D01*
X041308Y020715D01*
X04131Y020709D01*
X041311Y020708D01*
Y020707D01*
X041315Y020687D01*
X041316Y02067D01*
X041315Y020655D01*
X041312Y020642D01*
X041309Y020631D01*
X041305Y020623D01*
X041302Y020619D01*
X041301Y020617D01*
X041295Y02061D01*
X041288Y020605D01*
X041273Y020597D01*
X041255Y020591D01*
X041238Y020586D01*
X041221Y020584D01*
X041207Y020583D01*
X041203Y020582D01*
X041195D01*
X041173Y020583D01*
X041153Y020585D01*
X041135Y020587D01*
X041118Y020591D01*
X041104Y020594D01*
X041094Y020597D01*
X041088Y020598D01*
X041086Y020599D01*
X041071Y020605D01*
X041057Y020612D01*
X041044Y020619D01*
X041031Y020627D01*
X04102Y020633D01*
X041012Y020639D01*
X041007Y020643D01*
X041005Y020644D01*
X041007Y020632D01*
X041008Y020623D01*
X041009Y020619D01*
Y020617D01*
X041008Y020609D01*
X041007Y020602D01*
X041006Y020595D01*
X041005Y020593D01*
Y020592D01*
X040848D01*
X040851Y020609D01*
Y020617D01*
Y020623D01*
Y020629D01*
Y020632D01*
Y020634D01*
Y020635D01*
X04085Y020643D01*
X040847Y020651D01*
X040844Y020666D01*
X040842Y020673D01*
X04084Y020678D01*
X040839Y020682D01*
Y020684D01*
X040773Y020875D01*
X040768Y020898D01*
X040765Y020909D01*
Y020919D01*
X040764Y020927D01*
Y020934D01*
Y020938D01*
Y020939D01*
X040765Y020951D01*
X040766Y020962D01*
X040769Y020971D01*
X040772Y020979D01*
X040775Y020984D01*
X040777Y020988D01*
X040779Y020991D01*
X04078Y020992D01*
X040788Y021001D01*
X040798Y021008D01*
X040809Y021015D01*
X040819Y021019D01*
X040829Y021022D01*
X040836Y021025D01*
X040841Y021027D01*
X040843D01*
X04086Y02103D01*
X040879Y021032D01*
X040899Y021033D01*
X040918Y021034D01*
X040935Y021035D01*
X040979D01*
X040995Y021034D01*
D02*
G37*
G36*
X045599D02*
X045614Y021033D01*
X045627Y021032D01*
X045638Y02103D01*
X045647Y021029D01*
X045652Y021028D01*
X045654D01*
X04567Y021026D01*
X045683Y021022D01*
X045695Y021019D01*
X045705Y021016D01*
X045712Y021013D01*
X045718Y02101D01*
X045722Y021009D01*
X045723Y021008D01*
X045737Y021002D01*
X045749Y020994D01*
X04576Y020987D01*
X045769Y020981D01*
X045777Y020975D01*
X045782Y020971D01*
X045786Y020968D01*
X045787Y020967D01*
X045795Y020957D01*
X045805Y020946D01*
X045813Y020935D01*
X045821Y020925D01*
X045826Y020915D01*
X04583Y020908D01*
X045834Y020903D01*
X045835Y020901D01*
X045681Y020885D01*
X045674Y020894D01*
X045666Y020902D01*
X04566Y020909D01*
X045654Y020914D01*
X04565Y020919D01*
X045646Y020921D01*
X045643Y020923D01*
X045642D01*
X045633Y020927D01*
X045622Y020931D01*
X045611Y020933D01*
X0456Y020935D01*
X045591D01*
X045583Y020936D01*
X045566D01*
X045557Y020934D01*
X045551Y020932D01*
X045545Y020929D01*
X045541Y020927D01*
X045539Y020925D01*
X045536Y020924D01*
Y020923D01*
X045534Y020917D01*
X045533Y020911D01*
Y020898D01*
X045535Y020891D01*
X045536Y020886D01*
X045537Y020882D01*
Y020881D01*
X045551Y020877D01*
X045563Y020873D01*
X045575Y020869D01*
X045584Y020866D01*
X045592Y020864D01*
X045599Y020862D01*
X045603Y020861D01*
X045604D01*
X045611Y02086D01*
X045618Y020857D01*
X045627Y020855D01*
X045637Y020853D01*
X045658Y020849D01*
X045681Y020844D01*
X0457Y020841D01*
X04571Y020839D01*
X045718Y020838D01*
X045724Y020837D01*
X04573Y020835D01*
X045733Y020834D01*
X045734D01*
X045764Y020828D01*
X045789Y02082D01*
X04581Y020813D01*
X045827Y020805D01*
X04584Y020798D01*
X04585Y020793D01*
X045855Y020788D01*
X045858Y020787D01*
X045872Y020775D01*
X045883Y020761D01*
X045893Y020748D01*
X0459Y020735D01*
X045907Y020724D01*
X045911Y020715D01*
X045913Y020709D01*
X045915Y020708D01*
Y020707D01*
X045919Y020687D01*
X04592Y02067D01*
X045919Y020655D01*
X045916Y020642D01*
X045912Y020631D01*
X045909Y020623D01*
X045906Y020619D01*
X045905Y020617D01*
X045899Y02061D01*
X045892Y020605D01*
X045876Y020597D01*
X045859Y020591D01*
X045841Y020586D01*
X045825Y020584D01*
X045811Y020583D01*
X045806Y020582D01*
X045799D01*
X045777Y020583D01*
X045757Y020585D01*
X045739Y020587D01*
X045722Y020591D01*
X045708Y020594D01*
X045698Y020597D01*
X045692Y020598D01*
X045689Y020599D01*
X045675Y020605D01*
X045661Y020612D01*
X045648Y020619D01*
X045635Y020627D01*
X045624Y020633D01*
X045616Y020639D01*
X045611Y020643D01*
X045608Y020644D01*
X045611Y020632D01*
X045612Y020623D01*
X045613Y020619D01*
Y020617D01*
X045612Y020609D01*
X045611Y020602D01*
X04561Y020595D01*
X045608Y020593D01*
Y020592D01*
X045452D01*
X045454Y020609D01*
Y020617D01*
Y020623D01*
Y020629D01*
Y020632D01*
Y020634D01*
Y020635D01*
X045453Y020643D01*
X045451Y020651D01*
X045448Y020666D01*
X045446Y020673D01*
X045443Y020678D01*
X045442Y020682D01*
Y020684D01*
X045377Y020875D01*
X045371Y020898D01*
X045369Y020909D01*
Y020919D01*
X045368Y020927D01*
Y020934D01*
Y020938D01*
Y020939D01*
X045369Y020951D01*
X04537Y020962D01*
X045372Y020971D01*
X045376Y020979D01*
X045379Y020984D01*
X045381Y020988D01*
X045382Y020991D01*
X045383Y020992D01*
X045392Y021001D01*
X045402Y021008D01*
X045413Y021015D01*
X045423Y021019D01*
X045433Y021022D01*
X04544Y021025D01*
X045445Y021027D01*
X045447D01*
X045464Y02103D01*
X045483Y021032D01*
X045502Y021033D01*
X045522Y021034D01*
X045539Y021035D01*
X045582D01*
X045599Y021034D01*
D02*
G37*
G36*
X035319Y014102D02*
X035083Y014378D01*
X035555D01*
X035319Y014102D01*
D02*
G37*
G36*
X036713D02*
X036476Y014378D01*
X036949D01*
X036713Y014102D01*
D02*
G37*
G36*
X023203Y026406D02*
X022927Y026169D01*
Y026642D01*
X023203Y026406D01*
D02*
G37*
G36*
X033925Y014102D02*
X033689Y014378D01*
X034161D01*
X033925Y014102D01*
D02*
G37*
G36*
Y011484D02*
X033689Y01176D01*
X034161D01*
X033925Y011484D01*
D02*
G37*
G36*
X035319D02*
X035083Y01176D01*
X035555D01*
X035319Y011484D01*
D02*
G37*
G36*
X036713D02*
X036476Y01176D01*
X036949D01*
X036713Y011484D01*
D02*
G37*
G36*
X042609Y021104D02*
X042637Y021026D01*
X042698D01*
X042738Y020904D01*
X042677D01*
X04273Y020751D01*
X042737Y020726D01*
X042743Y020704D01*
X042747Y020686D01*
X042749Y02067D01*
X04275Y020659D01*
X042751Y020652D01*
Y020646D01*
Y020645D01*
X042749Y020634D01*
X042746Y020625D01*
X042742Y020616D01*
X042736Y020609D01*
X042732Y020604D01*
X042727Y0206D01*
X042725Y020598D01*
X042724Y020597D01*
X042713Y020592D01*
X0427Y020588D01*
X042686Y020585D01*
X042672Y020584D01*
X042658Y020583D01*
X042648Y020582D01*
X042638D01*
X042617Y020583D01*
X042596Y020584D01*
X042576Y020586D01*
X042558Y020588D01*
X042542Y020591D01*
X042535Y020592D01*
X042528Y020593D01*
X042524Y020594D01*
X042521Y020595D01*
X042517D01*
X042491Y02071D01*
X042504Y020707D01*
X042515Y020704D01*
X042524Y020702D01*
X042532Y020701D01*
X042538D01*
X042543Y0207D01*
X042546D01*
X042552Y020701D01*
X042558Y020702D01*
X042562Y020704D01*
X042566Y020707D01*
X042569Y020711D01*
X04257Y020713D01*
Y020717D01*
Y020723D01*
X042567Y020735D01*
X042566Y02074D01*
X042563Y020746D01*
X042562Y020749D01*
Y02075D01*
X04251Y020904D01*
X042418D01*
X042378Y021026D01*
X042469D01*
X042413Y021191D01*
X042609Y021104D01*
D02*
G37*
G36*
X046508Y021034D02*
X046529Y021033D01*
X046548Y02103D01*
X046567Y021026D01*
X046585Y021021D01*
X046602Y021016D01*
X046617Y021009D01*
X046632Y021004D01*
X046645Y020998D01*
X046656Y020992D01*
X046665Y020986D01*
X046674Y020982D01*
X046681Y020978D01*
X046685Y020975D01*
X046688Y020973D01*
X046689Y020972D01*
X046705Y02096D01*
X046719Y020947D01*
X046732Y020934D01*
X046744Y02092D01*
X046755Y020905D01*
X046765Y020892D01*
X046782Y020866D01*
X046789Y020854D01*
X046794Y020843D01*
X046799Y020832D01*
X046803Y020823D01*
X046806Y020817D01*
X046807Y020811D01*
X04681Y020808D01*
Y020807D01*
X046817Y020781D01*
X046822Y020758D01*
X046824Y020736D01*
X046825Y020719D01*
X046824Y020703D01*
X046823Y020692D01*
X046822Y020688D01*
X046821Y020685D01*
Y020684D01*
Y020682D01*
X046814Y020664D01*
X046805Y020649D01*
X046797Y020635D01*
X046787Y020625D01*
X046778Y020617D01*
X046771Y02061D01*
X046767Y020607D01*
X046765Y020606D01*
X046747Y020598D01*
X046728Y020592D01*
X046706Y020587D01*
X046685Y020585D01*
X046666Y020583D01*
X046658D01*
X046651Y020582D01*
X046637D01*
X046601Y020583D01*
X046569Y020586D01*
X046542Y020591D01*
X04653Y020594D01*
X046519Y020596D01*
X046509Y020598D01*
X0465Y020602D01*
X046493Y020604D01*
X046486Y020606D01*
X046482Y020608D01*
X046479Y020609D01*
X046476Y02061D01*
X046475D01*
X046451Y020622D01*
X046429Y020637D01*
X046409Y020653D01*
X04639Y020668D01*
X046374Y020682D01*
X046362Y020693D01*
X046357Y020698D01*
X046354Y020701D01*
X046353Y020703D01*
X046352Y020704D01*
X046511Y02072D01*
X046519Y020712D01*
X046527Y020707D01*
X046533Y020701D01*
X046539Y020698D01*
X046543Y020694D01*
X046546Y020692D01*
X046548Y020691D01*
X04655D01*
X046559Y020687D01*
X046568Y020685D01*
X046577Y020682D01*
X046585Y02068D01*
X046591D01*
X046595Y020679D01*
X0466D01*
X046613Y02068D01*
X046625Y020684D01*
X046634Y020688D01*
X046641Y020693D01*
X046647Y020699D01*
X04665Y020703D01*
X046652Y020707D01*
X046653Y020708D01*
X046657Y020716D01*
X046658Y020725D01*
Y020735D01*
Y020745D01*
X046657Y020754D01*
X046656Y020761D01*
X046654Y020766D01*
Y020768D01*
X046321D01*
X046315Y020786D01*
X046305Y020817D01*
X046299Y020844D01*
X046296Y020867D01*
X046294Y020888D01*
Y020903D01*
Y02091D01*
X046295Y020915D01*
Y02092D01*
X046296Y020923D01*
Y020924D01*
Y020925D01*
X046301Y020944D01*
X046309Y02096D01*
X046318Y020974D01*
X046327Y020986D01*
X046336Y020995D01*
X046343Y021002D01*
X046348Y021006D01*
X046351Y021007D01*
X046359Y021013D01*
X046369Y021017D01*
X04639Y021023D01*
X046413Y021029D01*
X046435Y021032D01*
X046456Y021034D01*
X046464D01*
X046472Y021035D01*
X046487D01*
X046508Y021034D01*
D02*
G37*
G36*
X046096Y021104D02*
X046123Y021026D01*
X046184D01*
X046225Y020904D01*
X046164D01*
X046216Y020751D01*
X046224Y020726D01*
X046229Y020704D01*
X046234Y020686D01*
X046236Y02067D01*
X046237Y020659D01*
X046238Y020652D01*
Y020646D01*
Y020645D01*
X046236Y020634D01*
X046233Y020625D01*
X046228Y020616D01*
X046223Y020609D01*
X046218Y020604D01*
X046214Y0206D01*
X046212Y020598D01*
X046211Y020597D01*
X0462Y020592D01*
X046187Y020588D01*
X046172Y020585D01*
X046158Y020584D01*
X046145Y020583D01*
X046134Y020582D01*
X046124D01*
X046104Y020583D01*
X046083Y020584D01*
X046063Y020586D01*
X046045Y020588D01*
X046028Y020591D01*
X046022Y020592D01*
X046015Y020593D01*
X046011Y020594D01*
X046007Y020595D01*
X046004D01*
X045978Y02071D01*
X045991Y020707D01*
X046002Y020704D01*
X046011Y020702D01*
X046018Y020701D01*
X046025D01*
X046029Y0207D01*
X046033D01*
X046039Y020701D01*
X046045Y020702D01*
X046049Y020704D01*
X046052Y020707D01*
X046056Y020711D01*
X046057Y020713D01*
Y020717D01*
Y020723D01*
X046053Y020735D01*
X046052Y02074D01*
X04605Y020746D01*
X046049Y020749D01*
Y02075D01*
X045996Y020904D01*
X045905D01*
X045864Y021026D01*
X045956D01*
X045899Y021191D01*
X046096Y021104D01*
D02*
G37*
G36*
X044051D02*
X044078Y021026D01*
X044139D01*
X04418Y020904D01*
X044119D01*
X044171Y020751D01*
X044179Y020726D01*
X044184Y020704D01*
X044189Y020686D01*
X044191Y02067D01*
X044192Y020659D01*
X044193Y020652D01*
Y020646D01*
Y020645D01*
X044191Y020634D01*
X044188Y020625D01*
X044183Y020616D01*
X044178Y020609D01*
X044173Y020604D01*
X044169Y0206D01*
X044167Y020598D01*
X044166Y020597D01*
X044155Y020592D01*
X044142Y020588D01*
X044127Y020585D01*
X044113Y020584D01*
X0441Y020583D01*
X044089Y020582D01*
X044079D01*
X044059Y020583D01*
X044038Y020584D01*
X044018Y020586D01*
X044Y020588D01*
X043983Y020591D01*
X043977Y020592D01*
X04397Y020593D01*
X043966Y020594D01*
X043962Y020595D01*
X043959D01*
X043933Y02071D01*
X043946Y020707D01*
X043957Y020704D01*
X043966Y020702D01*
X043973Y020701D01*
X04398D01*
X043984Y0207D01*
X043988D01*
X043994Y020701D01*
X044Y020702D01*
X044004Y020704D01*
X044007Y020707D01*
X044011Y020711D01*
X044012Y020713D01*
Y020717D01*
Y020723D01*
X044008Y020735D01*
X044007Y02074D01*
X044005Y020746D01*
X044004Y020749D01*
Y02075D01*
X043951Y020904D01*
X04386D01*
X043819Y021026D01*
X043911D01*
X043854Y021191D01*
X044051Y021104D01*
D02*
G37*
G36*
X043533Y021034D02*
X043554Y021033D01*
X043573Y02103D01*
X043592Y021026D01*
X043609Y021021D01*
X043627Y021016D01*
X043642Y021009D01*
X043656Y021004D01*
X043669Y020998D01*
X04368Y020992D01*
X04369Y020986D01*
X043699Y020982D01*
X043706Y020978D01*
X04371Y020975D01*
X043713Y020973D01*
X043714Y020972D01*
X04373Y02096D01*
X043744Y020947D01*
X043757Y020934D01*
X043769Y02092D01*
X04378Y020905D01*
X04379Y020892D01*
X043807Y020866D01*
X043814Y020854D01*
X043819Y020843D01*
X043824Y020832D01*
X043828Y020823D01*
X043831Y020817D01*
X043832Y020811D01*
X043835Y020808D01*
Y020807D01*
X043842Y020781D01*
X043847Y020758D01*
X043849Y020736D01*
X04385Y020719D01*
X043849Y020703D01*
X043848Y020692D01*
X043847Y020688D01*
X043845Y020685D01*
Y020684D01*
Y020682D01*
X043839Y020664D01*
X04383Y020649D01*
X043821Y020635D01*
X043812Y020625D01*
X043803Y020617D01*
X043796Y02061D01*
X043792Y020607D01*
X04379Y020606D01*
X043772Y020598D01*
X043753Y020592D01*
X043731Y020587D01*
X04371Y020585D01*
X043691Y020583D01*
X043683D01*
X043676Y020582D01*
X043662D01*
X043626Y020583D01*
X043594Y020586D01*
X043567Y020591D01*
X043555Y020594D01*
X043544Y020596D01*
X043534Y020598D01*
X043525Y020602D01*
X043518Y020604D01*
X043511Y020606D01*
X043507Y020608D01*
X043503Y020609D01*
X043501Y02061D01*
X0435D01*
X043476Y020622D01*
X043454Y020637D01*
X043433Y020653D01*
X043415Y020668D01*
X043398Y020682D01*
X043386Y020693D01*
X043382Y020698D01*
X043379Y020701D01*
X043378Y020703D01*
X043377Y020704D01*
X043536Y02072D01*
X043544Y020712D01*
X043551Y020707D01*
X043558Y020701D01*
X043563Y020698D01*
X043568Y020694D01*
X043571Y020692D01*
X043573Y020691D01*
X043574D01*
X043584Y020687D01*
X043593Y020685D01*
X043602Y020682D01*
X043609Y02068D01*
X043616D01*
X04362Y020679D01*
X043625D01*
X043638Y02068D01*
X04365Y020684D01*
X043659Y020688D01*
X043666Y020693D01*
X043672Y020699D01*
X043675Y020703D01*
X043677Y020707D01*
X043678Y020708D01*
X043682Y020716D01*
X043683Y020725D01*
Y020735D01*
Y020745D01*
X043682Y020754D01*
X04368Y020761D01*
X043679Y020766D01*
Y020768D01*
X043346D01*
X043339Y020786D01*
X04333Y020817D01*
X043324Y020844D01*
X043321Y020867D01*
X043319Y020888D01*
Y020903D01*
Y02091D01*
X04332Y020915D01*
Y02092D01*
X043321Y020923D01*
Y020924D01*
Y020925D01*
X043326Y020944D01*
X043334Y02096D01*
X043343Y020974D01*
X043351Y020986D01*
X043361Y020995D01*
X043368Y021002D01*
X043373Y021006D01*
X043375Y021007D01*
X043384Y021013D01*
X043394Y021017D01*
X043415Y021023D01*
X043438Y021029D01*
X04346Y021032D01*
X04348Y021034D01*
X043489D01*
X043497Y021035D01*
X043512D01*
X043533Y021034D01*
D02*
G37*
%LPC*%
G36*
X040965Y020797D02*
X040963D01*
X040972Y02077D01*
X040976Y020759D01*
X040981Y020749D01*
X040985Y02074D01*
X040989Y020734D01*
X040993Y020727D01*
X040996Y020723D01*
X040998Y020721D01*
X040999Y02072D01*
X041006Y020713D01*
X041013Y020707D01*
X041028Y020697D01*
X041034Y020693D01*
X04104Y02069D01*
X041043Y020689D01*
X041044Y020688D01*
X041055Y020684D01*
X041065Y02068D01*
X041075Y020678D01*
X041082Y020677D01*
X04109Y020676D01*
X041095Y020675D01*
X0411D01*
X04111Y020676D01*
X041117Y020677D01*
X041124Y020679D01*
X041128Y020681D01*
X041133Y020684D01*
X041135Y020685D01*
X041137Y020687D01*
X041139Y020691D01*
X041141Y020697D01*
Y020708D01*
X04114Y020712D01*
Y020715D01*
X041139Y020717D01*
Y020719D01*
X041137Y020725D01*
X041133Y020731D01*
X041125Y02074D01*
X041118Y020747D01*
X041116Y020748D01*
X041115Y020749D01*
X041106Y020755D01*
X041095Y020759D01*
X041083Y020763D01*
X041071Y020768D01*
X041061Y020771D01*
X041051Y020773D01*
X041044Y020774D01*
X041043Y020775D01*
X041042D01*
X041012Y020783D01*
X040999Y020786D01*
X040987Y02079D01*
X040977Y020793D01*
X04097Y020795D01*
X040965Y020797D01*
D02*
G37*
G36*
X043727Y040224D02*
X043724D01*
X043712Y040223D01*
X043702Y040221D01*
X043693Y040217D01*
X043685Y040213D01*
X043679Y040208D01*
X043675Y040205D01*
X043672Y040202D01*
X043671Y040201D01*
X043664Y040192D01*
X043658Y040182D01*
X043654Y040171D01*
X043652Y040161D01*
X04365Y040152D01*
X04365Y040148D01*
Y040145D01*
X043649Y040142D01*
Y04014D01*
Y040139D01*
Y040138D01*
X04365Y040123D01*
X043653Y040111D01*
X043656Y0401D01*
X04366Y04009D01*
X043664Y040083D01*
X043667Y040077D01*
X04367Y040074D01*
X043671Y040073D01*
Y040073D01*
X043675Y040068D01*
X043679Y040065D01*
X043688Y040059D01*
X043697Y040055D01*
X043705Y040052D01*
X043712Y04005D01*
X043717Y04005D01*
X04372Y040049D01*
X043722D01*
X04373Y04005D01*
X043737Y040051D01*
X043744Y040053D01*
X04375Y040055D01*
X043755Y040057D01*
X043759Y040059D01*
X043761Y04006D01*
X043762Y040061D01*
X043769Y040066D01*
X043774Y040071D01*
X043779Y040077D01*
X043783Y040082D01*
X043786Y040087D01*
X043788Y040091D01*
X04379Y040093D01*
X043791Y040095D01*
X043794Y040103D01*
X043796Y040111D01*
X043798Y040119D01*
X0438Y040126D01*
X0438Y040132D01*
X043801Y040137D01*
Y04014D01*
Y040141D01*
X0438Y040154D01*
X043797Y040166D01*
X043793Y040177D01*
X04379Y040185D01*
X043786Y040192D01*
X043782Y040197D01*
X04378Y0402D01*
X043779Y040201D01*
X04377Y040209D01*
X043761Y040214D01*
X043751Y040219D01*
X043743Y040222D01*
X043735Y040223D01*
X04373Y040224D01*
X043727Y040224D01*
D02*
G37*
G36*
X040081Y020911D02*
X040077D01*
X040066Y02091D01*
X040056Y020907D01*
X040047Y020903D01*
X040042Y020899D01*
X040036Y020893D01*
X040033Y02089D01*
X040032Y020887D01*
X040031Y020886D01*
X040028Y020875D01*
X040027Y020863D01*
Y020851D01*
X040028Y020838D01*
X040031Y020827D01*
X040033Y020818D01*
X040034Y020811D01*
X040035Y02081D01*
Y020809D01*
X040043Y02079D01*
X040051Y020772D01*
X040059Y020758D01*
X040067Y020747D01*
X040074Y020738D01*
X040079Y020732D01*
X040083Y020728D01*
X040084Y020727D01*
X040095Y02072D01*
X040106Y020713D01*
X040117Y020709D01*
X040126Y020707D01*
X040134Y020704D01*
X04014Y020703D01*
X040146D01*
X040156Y020704D01*
X040164Y020707D01*
X040172Y020711D01*
X040177Y020715D01*
X040182Y02072D01*
X040185Y020724D01*
X040186Y020726D01*
X040187Y020727D01*
X04019Y020738D01*
Y02075D01*
X040189Y020763D01*
X040188Y020775D01*
X040186Y020787D01*
X040183Y020796D01*
X040182Y020803D01*
X040181Y020804D01*
Y020805D01*
X040173Y020825D01*
X040165Y020842D01*
X040157Y020855D01*
X04015Y020867D01*
X040143Y020875D01*
X040138Y020881D01*
X040135Y020885D01*
X040134Y020886D01*
X040123Y020894D01*
X040113Y0209D01*
X040103Y020904D01*
X040094Y020908D01*
X040088Y02091D01*
X040081Y020911D01*
D02*
G37*
G36*
X047616Y020797D02*
X047614D01*
X047623Y02077D01*
X047627Y020759D01*
X047632Y020749D01*
X047636Y02074D01*
X04764Y020734D01*
X047644Y020727D01*
X047647Y020723D01*
X047649Y020721D01*
X04765Y02072D01*
X047657Y020713D01*
X047664Y020707D01*
X047679Y020697D01*
X047685Y020693D01*
X047691Y02069D01*
X047694Y020689D01*
X047695Y020688D01*
X047706Y020684D01*
X047716Y02068D01*
X047726Y020678D01*
X047733Y020677D01*
X047741Y020676D01*
X047746Y020675D01*
X047751D01*
X047761Y020676D01*
X047768Y020677D01*
X047775Y020679D01*
X047779Y020681D01*
X047784Y020684D01*
X047786Y020685D01*
X047788Y020687D01*
X04779Y020691D01*
X047792Y020697D01*
Y020708D01*
X047791Y020712D01*
Y020715D01*
X04779Y020717D01*
Y020719D01*
X047788Y020725D01*
X047784Y020731D01*
X047776Y02074D01*
X047769Y020747D01*
X047767Y020748D01*
X047766Y020749D01*
X047757Y020755D01*
X047746Y020759D01*
X047734Y020763D01*
X047722Y020768D01*
X047711Y020771D01*
X047702Y020773D01*
X047695Y020774D01*
X047694Y020775D01*
X047693D01*
X047663Y020783D01*
X04765Y020786D01*
X047638Y02079D01*
X047628Y020793D01*
X047621Y020795D01*
X047616Y020797D01*
D02*
G37*
G36*
X041551Y020921D02*
X041545D01*
X041533Y02092D01*
X041523Y020916D01*
X041514Y020912D01*
X041508Y020907D01*
X041503Y020901D01*
X041499Y020897D01*
X041498Y020893D01*
X041497Y020892D01*
X041492Y020881D01*
X041491Y020868D01*
X041492Y020854D01*
X041494Y020841D01*
X041497Y020828D01*
X041499Y020818D01*
X041501Y020811D01*
X041502Y02081D01*
Y020809D01*
X041511Y020787D01*
X04152Y02077D01*
X041528Y020755D01*
X041537Y020743D01*
X041544Y020733D01*
X04155Y020726D01*
X041555Y020722D01*
X041556Y020721D01*
X041568Y020712D01*
X04158Y020705D01*
X041591Y020701D01*
X041602Y020698D01*
X04161Y020696D01*
X041617Y020694D01*
X041623D01*
X041635Y020696D01*
X041645Y020699D01*
X041654Y020703D01*
X041661Y020709D01*
X041666Y020713D01*
X041669Y020717D01*
X041671Y020721D01*
X041673Y020722D01*
X041676Y020734D01*
X041678Y020747D01*
X041677Y020761D01*
X041675Y020774D01*
X041673Y020787D01*
X04167Y020797D01*
X041669Y020802D01*
X041668Y020805D01*
X041667Y020806D01*
Y020807D01*
X041659Y020827D01*
X041651Y020844D01*
X041643Y02086D01*
X041634Y020872D01*
X041627Y02088D01*
X041621Y020887D01*
X041617Y020891D01*
X041616Y020892D01*
X041603Y020902D01*
X041591Y020909D01*
X041579Y020914D01*
X041568Y020917D01*
X041558Y02092D01*
X041551Y020921D01*
D02*
G37*
G36*
X045569Y020797D02*
X045567D01*
X045576Y02077D01*
X04558Y020759D01*
X045584Y020749D01*
X045589Y02074D01*
X045593Y020734D01*
X045596Y020727D01*
X0456Y020723D01*
X045602Y020721D01*
X045603Y02072D01*
X04561Y020713D01*
X045617Y020707D01*
X045631Y020697D01*
X045638Y020693D01*
X045643Y02069D01*
X045647Y020689D01*
X045648Y020688D01*
X045659Y020684D01*
X045669Y02068D01*
X045678Y020678D01*
X045686Y020677D01*
X045694Y020676D01*
X045699Y020675D01*
X045704D01*
X045713Y020676D01*
X045721Y020677D01*
X045728Y020679D01*
X045732Y020681D01*
X045736Y020684D01*
X045739Y020685D01*
X045741Y020687D01*
X045743Y020691D01*
X045745Y020697D01*
Y020708D01*
X045744Y020712D01*
Y020715D01*
X045743Y020717D01*
Y020719D01*
X045741Y020725D01*
X045736Y020731D01*
X045729Y02074D01*
X045722Y020747D01*
X04572Y020748D01*
X045719Y020749D01*
X04571Y020755D01*
X045699Y020759D01*
X045687Y020763D01*
X045675Y020768D01*
X045664Y020771D01*
X045654Y020773D01*
X045648Y020774D01*
X045647Y020775D01*
X045646D01*
X045616Y020783D01*
X045603Y020786D01*
X045591Y02079D01*
X045581Y020793D01*
X045574Y020795D01*
X045569Y020797D01*
D02*
G37*
G36*
X047104Y020911D02*
X047099D01*
X047088Y02091D01*
X047079Y020907D01*
X04707Y020903D01*
X047064Y020899D01*
X047059Y020893D01*
X047056Y02089D01*
X047055Y020887D01*
X047053Y020886D01*
X04705Y020875D01*
X047049Y020863D01*
Y020851D01*
X04705Y020838D01*
X047053Y020827D01*
X047056Y020818D01*
X047057Y020811D01*
X047058Y02081D01*
Y020809D01*
X047065Y02079D01*
X047073Y020772D01*
X047082Y020758D01*
X047089Y020747D01*
X047096Y020738D01*
X047102Y020732D01*
X047106Y020728D01*
X047107Y020727D01*
X047118Y02072D01*
X047129Y020713D01*
X04714Y020709D01*
X047149Y020707D01*
X047156Y020704D01*
X047163Y020703D01*
X047168D01*
X047178Y020704D01*
X047187Y020707D01*
X047194Y020711D01*
X0472Y020715D01*
X047204Y02072D01*
X047208Y020724D01*
X047209Y020726D01*
X04721Y020727D01*
X047213Y020738D01*
Y02075D01*
X047212Y020763D01*
X047211Y020775D01*
X047209Y020787D01*
X047205Y020796D01*
X047204Y020803D01*
X047203Y020804D01*
Y020805D01*
X047196Y020825D01*
X047188Y020842D01*
X047179Y020855D01*
X047173Y020867D01*
X047166Y020875D01*
X047161Y020881D01*
X047157Y020885D01*
X047156Y020886D01*
X047145Y020894D01*
X047135Y0209D01*
X047126Y020904D01*
X047117Y020908D01*
X04711Y02091D01*
X047104Y020911D01*
D02*
G37*
G36*
X04248Y020101D02*
X042386D01*
X04237Y0201D01*
X042356Y020098D01*
X042345Y020095D01*
X042337Y020093D01*
X042331Y02009D01*
X042327Y020086D01*
X042325Y020085D01*
X042324Y020084D01*
X04232Y020078D01*
X042317Y020071D01*
X042316Y020063D01*
Y020057D01*
Y02005D01*
X042317Y020046D01*
X042319Y020043D01*
Y020042D01*
X042323Y020032D01*
X042328Y020023D01*
X042334Y020014D01*
X042339Y020008D01*
X042345Y020002D01*
X042349Y019999D01*
X042352Y019997D01*
X042354Y019996D01*
X042363Y01999D01*
X042375Y019986D01*
X042387Y019984D01*
X042399Y019982D01*
X04241Y01998D01*
X042419Y019979D01*
X042521D01*
X04248Y020101D01*
D02*
G37*
G36*
X043545Y020937D02*
X043538D01*
X043526Y020936D01*
X043516Y020934D01*
X043509Y020931D01*
X043502Y020926D01*
X043497Y020922D01*
X043494Y020919D01*
X043492Y020916D01*
X043491Y020915D01*
X043487Y020907D01*
X043485Y020896D01*
X043484Y020885D01*
X043485Y020874D01*
Y020864D01*
X043487Y020855D01*
X043488Y02085D01*
Y020849D01*
Y020847D01*
X043652D01*
X043645Y020861D01*
X043639Y020873D01*
X043632Y020882D01*
X043626Y020891D01*
X04362Y020897D01*
X043616Y020902D01*
X043614Y020904D01*
X043613Y020905D01*
X0436Y020916D01*
X043586Y020924D01*
X043574Y020929D01*
X043562Y020933D01*
X043553Y020936D01*
X043545Y020937D01*
D02*
G37*
G36*
X047594Y020355D02*
X047589D01*
X047577Y020354D01*
X047566Y020351D01*
X047557Y020347D01*
X047551Y020341D01*
X047545Y020336D01*
X047542Y020331D01*
X04754Y020328D01*
X047539Y020327D01*
X047534Y020316D01*
X047532Y020304D01*
Y020291D01*
X047533Y020279D01*
X047535Y020268D01*
X047538Y020259D01*
X047539Y020254D01*
X04754Y020253D01*
Y020251D01*
X047546Y020235D01*
X047554Y02022D01*
X047562Y020207D01*
X04757Y020197D01*
X047577Y020189D01*
X047582Y020183D01*
X047587Y020179D01*
X047588Y020178D01*
X0476Y02017D01*
X047612Y020164D01*
X047623Y02016D01*
X047633Y020156D01*
X047641Y020154D01*
X047649Y020153D01*
X047655D01*
X047667Y020154D01*
X047676Y020157D01*
X047685Y020162D01*
X047692Y020166D01*
X047696Y020171D01*
X047699Y020175D01*
X047702Y020178D01*
X047703Y020179D01*
X047706Y02019D01*
X047707Y020202D01*
Y020215D01*
X047705Y020227D01*
X047703Y020238D01*
X0477Y020247D01*
X047699Y020254D01*
X047698Y020256D01*
X047692Y020273D01*
X047684Y020289D01*
X047676Y020301D01*
X047669Y020312D01*
X047662Y020319D01*
X047657Y020326D01*
X047653Y020329D01*
X047652Y02033D01*
X04764Y020339D01*
X047629Y020344D01*
X047618Y020349D01*
X047609Y020352D01*
X047601Y020354D01*
X047594Y020355D01*
D02*
G37*
G36*
X04652Y020937D02*
X046513D01*
X046501Y020936D01*
X046492Y020934D01*
X046484Y020931D01*
X046477Y020926D01*
X046472Y020922D01*
X046469Y020919D01*
X046468Y020916D01*
X046466Y020915D01*
X046462Y020907D01*
X04646Y020896D01*
X046459Y020885D01*
X04646Y020874D01*
Y020864D01*
X046462Y020855D01*
X046463Y02085D01*
Y020849D01*
Y020847D01*
X046627D01*
X046621Y020861D01*
X046614Y020873D01*
X046607Y020882D01*
X046601Y020891D01*
X046595Y020897D01*
X046591Y020902D01*
X046589Y020904D01*
X046588Y020905D01*
X046575Y020916D01*
X046562Y020924D01*
X04655Y020929D01*
X046538Y020933D01*
X046528Y020936D01*
X04652Y020937D01*
D02*
G37*
G36*
X040368Y02017D02*
X040362D01*
X040352Y020168D01*
X040343Y020165D01*
X040337Y020162D01*
X040331Y020157D01*
X040328Y020152D01*
X040325Y020149D01*
X040323Y020145D01*
Y020144D01*
X040319Y020135D01*
X040318Y020123D01*
X040319Y02011D01*
X040321Y020097D01*
X040323Y020086D01*
X040326Y020078D01*
X040327Y020071D01*
X040328Y02007D01*
Y020069D01*
X040336Y020049D01*
X040345Y020032D01*
X040352Y020018D01*
X04036Y020006D01*
X040366Y019997D01*
X040372Y01999D01*
X040376Y019987D01*
X040377Y019986D01*
X040388Y019978D01*
X040398Y019972D01*
X040408Y019967D01*
X040417Y019965D01*
X040424Y019963D01*
X04043Y019962D01*
X040435D01*
X040446Y019963D01*
X040456Y019966D01*
X040464Y019969D01*
X04047Y019975D01*
X040475Y019979D01*
X040478Y019983D01*
X040479Y019986D01*
X04048Y019987D01*
X040483Y019998D01*
X040484Y02001D01*
X040483Y020024D01*
X040481Y020037D01*
X040479Y020049D01*
X040476Y020059D01*
X040475Y020066D01*
X040474Y020067D01*
Y020068D01*
X040467Y020086D01*
X040458Y020102D01*
X040451Y020115D01*
X040443Y020126D01*
X040436Y020133D01*
X040431Y02014D01*
X040428Y020143D01*
X040427Y020144D01*
X040415Y020153D01*
X040404Y020159D01*
X040393Y020163D01*
X040383Y020166D01*
X040374Y020168D01*
X040368Y02017D01*
D02*
G37*
G36*
X042403Y020328D02*
X042321D01*
X042307Y020327D01*
X042295Y020326D01*
X042285Y020324D01*
X042277Y02032D01*
X042273Y020317D01*
X042268Y020315D01*
X042267Y020314D01*
X042266Y020313D01*
X042263Y020307D01*
X042261Y020301D01*
X04226Y020294D01*
Y020288D01*
X042261Y020281D01*
X042262Y020277D01*
X042263Y020273D01*
Y020272D01*
X042267Y020262D01*
X042272Y020254D01*
X042277Y020246D01*
X042282Y020239D01*
X042287Y020235D01*
X042291Y020232D01*
X042293Y02023D01*
X042295Y020229D01*
X042303Y020224D01*
X042314Y020221D01*
X042335Y020217D01*
X042345Y020215D01*
X042352Y020214D01*
X042441D01*
X042403Y020328D01*
D02*
G37*
G36*
X042098Y020911D02*
X042092D01*
X042082Y02091D01*
X042074Y020907D01*
X042067Y020903D01*
X042062Y020899D01*
X042058Y020893D01*
X042055Y02089D01*
X042053Y020887D01*
Y020886D01*
X04205Y020876D01*
X042049Y020864D01*
X04205Y020852D01*
X042051Y020839D01*
X042053Y020828D01*
X042056Y020819D01*
X042057Y020813D01*
X042058Y020811D01*
Y02081D01*
X042066Y020791D01*
X042075Y020773D01*
X042082Y020759D01*
X04209Y020747D01*
X042097Y020738D01*
X042102Y020732D01*
X042106Y020728D01*
X042108Y020727D01*
X042119Y02072D01*
X042128Y020713D01*
X042138Y020709D01*
X042147Y020707D01*
X042155Y020704D01*
X04216Y020703D01*
X042166D01*
X042176Y020704D01*
X042186Y020708D01*
X042194Y020711D01*
X0422Y020716D01*
X042205Y020721D01*
X042208Y020724D01*
X042209Y020727D01*
X04221Y020728D01*
X042214Y020739D01*
X042215Y020751D01*
X042214Y020766D01*
X042211Y020779D01*
X042209Y020791D01*
X042206Y0208D01*
X042205Y020807D01*
X042204Y020808D01*
Y020809D01*
X042197Y020828D01*
X042188Y020843D01*
X042181Y020856D01*
X042173Y020867D01*
X042167Y020875D01*
X042161Y020881D01*
X042158Y020885D01*
X042157Y020886D01*
X042145Y020894D01*
X042134Y0209D01*
X042123Y020904D01*
X042113Y020908D01*
X042104Y02091D01*
X042098Y020911D01*
D02*
G37*
G36*
X040911Y020056D02*
X040909D01*
X040917Y020029D01*
X040922Y020018D01*
X040926Y020008D01*
X04093Y019999D01*
X040935Y019992D01*
X040938Y019986D01*
X040941Y019982D01*
X040944Y019979D01*
X040945Y019978D01*
X040951Y019972D01*
X040959Y019965D01*
X040973Y019955D01*
X04098Y019952D01*
X040985Y019949D01*
X040988Y019948D01*
X040989Y019947D01*
X041Y019942D01*
X04101Y019939D01*
X04102Y019937D01*
X041028Y019936D01*
X041035Y019935D01*
X041041Y019933D01*
X041045D01*
X041055Y019935D01*
X041063Y019936D01*
X041069Y019938D01*
X041074Y01994D01*
X041078Y019942D01*
X04108Y019943D01*
X041082Y019945D01*
X041085Y01995D01*
X041087Y019955D01*
Y019966D01*
X041086Y019971D01*
Y019974D01*
X041085Y019976D01*
Y019977D01*
X041082Y019984D01*
X041078Y019989D01*
X04107Y019999D01*
X041064Y020006D01*
X041062Y020007D01*
X041061Y020008D01*
X041052Y020013D01*
X041041Y020018D01*
X041029Y020022D01*
X041017Y020026D01*
X041006Y02003D01*
X040996Y020032D01*
X040989Y020033D01*
X040988Y020034D01*
X040987D01*
X040958Y020042D01*
X040945Y020045D01*
X040933Y020048D01*
X040923Y020051D01*
X040915Y020054D01*
X040911Y020056D01*
D02*
G37*
G36*
X046788Y020349D02*
X046786D01*
X046771Y020347D01*
X046762Y020342D01*
X046753Y020336D01*
X046747Y020328D01*
X046743Y02032D01*
X04674Y020314D01*
X046739Y020309D01*
Y020307D01*
X046738Y020298D01*
X046739Y020289D01*
X04674Y020277D01*
X046741Y020265D01*
X046746Y020238D01*
X046753Y020211D01*
X046761Y020187D01*
X046764Y020175D01*
X046766Y020166D01*
X046769Y020157D01*
X04677Y020152D01*
X046773Y020148D01*
Y020147D01*
X046782Y020118D01*
X046792Y020094D01*
X0468Y020073D01*
X046807Y020057D01*
X046813Y020044D01*
X046817Y020035D01*
X046821Y02003D01*
X046822Y020027D01*
X04683Y020014D01*
X046838Y020002D01*
X046846Y019994D01*
X046853Y019985D01*
X04686Y019979D01*
X046864Y019975D01*
X046868Y019973D01*
X046869Y019972D01*
X046879Y019966D01*
X046887Y019962D01*
X046896Y019959D01*
X046904Y019956D01*
X046909Y019955D01*
X046915Y019954D01*
X046919D01*
X046932Y019956D01*
X046943Y019961D01*
X046951Y019967D01*
X046956Y019975D01*
X046961Y019983D01*
X046963Y019989D01*
X046965Y019994D01*
Y019996D01*
Y020004D01*
Y020014D01*
X046964Y020025D01*
X046962Y020037D01*
X046957Y020063D01*
X046951Y02009D01*
X046944Y020114D01*
X046941Y020125D01*
X046938Y020133D01*
X046935Y020141D01*
X046933Y020147D01*
X046932Y020151D01*
Y020152D01*
X046924Y020173D01*
X046918Y020191D01*
X046911Y020208D01*
X046905Y020224D01*
X046898Y020237D01*
X046893Y02025D01*
X046887Y020261D01*
X046882Y020271D01*
X046877Y02028D01*
X046873Y020288D01*
X04687Y020293D01*
X046867Y020297D01*
X046864Y020302D01*
X046862Y020304D01*
X046861Y020306D01*
X046848Y02032D01*
X046836Y020331D01*
X046823Y020339D01*
X046811Y020343D01*
X046801Y020347D01*
X046793Y020348D01*
X046788Y020349D01*
D02*
G37*
G36*
X044879D02*
X044877D01*
X044863Y020347D01*
X044853Y020342D01*
X044844Y020336D01*
X044839Y020328D01*
X044835Y02032D01*
X044831Y020314D01*
X04483Y020309D01*
Y020307D01*
X044829Y020298D01*
X04483Y020289D01*
X044831Y020277D01*
X044832Y020265D01*
X044838Y020238D01*
X044844Y020211D01*
X044852Y020187D01*
X044855Y020175D01*
X044858Y020166D01*
X044861Y020157D01*
X044862Y020152D01*
X044864Y020148D01*
Y020147D01*
X044874Y020118D01*
X044884Y020094D01*
X044891Y020073D01*
X044899Y020057D01*
X044905Y020044D01*
X044909Y020035D01*
X044912Y02003D01*
X044913Y020027D01*
X044922Y020014D01*
X04493Y020002D01*
X044937Y019994D01*
X044945Y019985D01*
X044952Y019979D01*
X044956Y019975D01*
X044959Y019973D01*
X04496Y019972D01*
X04497Y019966D01*
X044979Y019962D01*
X044988Y019959D01*
X044995Y019956D01*
X045001Y019955D01*
X045006Y019954D01*
X045011D01*
X045024Y019956D01*
X045035Y019961D01*
X045042Y019967D01*
X045048Y019975D01*
X045052Y019983D01*
X045054Y019989D01*
X045057Y019994D01*
Y019996D01*
Y020004D01*
Y020014D01*
X045055Y020025D01*
X045053Y020037D01*
X045049Y020063D01*
X045042Y02009D01*
X045036Y020114D01*
X045032Y020125D01*
X045029Y020133D01*
X045027Y020141D01*
X045025Y020147D01*
X045024Y020151D01*
Y020152D01*
X045016Y020173D01*
X04501Y020191D01*
X045003Y020208D01*
X044996Y020224D01*
X04499Y020237D01*
X044984Y02025D01*
X044979Y020261D01*
X044973Y020271D01*
X044969Y02028D01*
X044965Y020288D01*
X044961Y020293D01*
X044958Y020297D01*
X044956Y020302D01*
X044954Y020304D01*
X044953Y020306D01*
X04494Y02032D01*
X044928Y020331D01*
X044914Y020339D01*
X044902Y020343D01*
X044893Y020347D01*
X044885Y020348D01*
X044879Y020349D01*
D02*
G37*
%LPD*%
D53*
X02695Y042496D02*
G03*
X02695Y042496I-000363J0D01*
G01*
X051594Y029374D02*
Y030657D01*
X052303D01*
Y029374D02*
Y030657D01*
X051594Y029374D02*
X052303D01*
X050276D02*
Y030657D01*
X050984D01*
Y029374D02*
Y030657D01*
X050276Y029374D02*
X050984D01*
X048957D02*
Y030657D01*
X049665D01*
Y029374D02*
Y030657D01*
X048957Y029374D02*
X049665D01*
X057028Y020756D02*
Y022039D01*
X056319Y020756D02*
X057028D01*
X056319D02*
Y022039D01*
X057028D01*
Y027094D02*
Y028378D01*
X056319Y027094D02*
X057028D01*
X056319D02*
Y028378D01*
X057028D01*
Y033394D02*
Y034677D01*
X056319Y033394D02*
X057028D01*
X056319D02*
Y034677D01*
X057028D01*
X057028Y039693D02*
Y040976D01*
X056319Y039693D02*
X057028D01*
X056319D02*
Y040976D01*
X057028D01*
X025217Y040941D02*
X027972D01*
X025217D02*
Y043854D01*
X027972D01*
Y040941D02*
Y043854D01*
X026587Y042142D02*
Y04285D01*
X026224Y042496D02*
X026941D01*
X037421Y036795D02*
Y038079D01*
X036713Y036795D02*
X037421D01*
X036713D02*
Y038079D01*
X037421D01*
X037618Y036795D02*
Y038079D01*
X038327D01*
Y036795D02*
Y038079D01*
X037618Y036795D02*
X038327D01*
X034287Y039713D02*
X035571D01*
Y039004D02*
Y039713D01*
X034287Y039004D02*
X035571D01*
X034287D02*
Y039713D01*
Y037791D02*
X035571D01*
Y037083D02*
Y037791D01*
X034287Y037083D02*
X035571D01*
X034287D02*
Y037791D01*
X038941Y042646D02*
Y043929D01*
X038232Y042646D02*
X038941D01*
X038232D02*
Y043929D01*
X038941D01*
X047358Y038224D02*
X047665D01*
X047358D02*
Y039366D01*
X047665D01*
Y038224D02*
Y039366D01*
X046764Y035441D02*
X048047D01*
X046764D02*
Y03615D01*
X048047D01*
Y035441D02*
Y03615D01*
X04678Y037941D02*
X048063D01*
Y037232D02*
Y037941D01*
X04678Y037232D02*
X048063D01*
X04678D02*
Y037941D01*
X040441Y037862D02*
Y039146D01*
X039732Y037862D02*
X040441D01*
X039732D02*
Y039146D01*
X040441D01*
X041425Y037862D02*
Y039146D01*
X040717Y037862D02*
X041425D01*
X040717D02*
Y039146D01*
X041425D01*
X042409Y037862D02*
Y039146D01*
X041701Y037862D02*
X042409D01*
X041701D02*
Y039146D01*
X042409D01*
X039732Y036244D02*
Y037528D01*
X040441D01*
Y036244D02*
Y037528D01*
X039732Y036244D02*
X040441D01*
X040717D02*
Y037528D01*
X041425D01*
Y036244D02*
Y037528D01*
X040717Y036244D02*
X041425D01*
X041701D02*
Y037528D01*
X042409D01*
Y036244D02*
Y037528D01*
X041701Y036244D02*
X042409D01*
X042854Y032543D02*
Y033827D01*
X042146Y032543D02*
X042854D01*
X042146D02*
Y033827D01*
X042854D01*
X04188Y032543D02*
Y033827D01*
X041171Y032543D02*
X04188D01*
X041171D02*
Y033827D01*
X04188D01*
X040906Y032543D02*
Y033827D01*
X040197Y032543D02*
X040906D01*
X040197D02*
Y033827D01*
X040906D01*
X039931Y032543D02*
Y033827D01*
X039222Y032543D02*
X039931D01*
X039222D02*
Y033827D01*
X039931D01*
X025697Y015772D02*
Y017055D01*
X026406D01*
Y015772D02*
Y017055D01*
X025697Y015772D02*
X026406D01*
X027406Y015756D02*
Y017039D01*
X026697Y015756D02*
X027406D01*
X026697D02*
Y017039D01*
X027406D01*
X028406Y015756D02*
Y017039D01*
X027697Y015756D02*
X028406D01*
X027697D02*
Y017039D01*
X028406D01*
X029406Y015756D02*
Y017039D01*
X028697Y015756D02*
X029406D01*
X028697D02*
Y017039D01*
X029406D01*
X029697Y015772D02*
Y017055D01*
X030406D01*
Y015772D02*
Y017055D01*
X029697Y015772D02*
X030406D01*
X031004Y006766D02*
Y015427D01*
X025098Y006766D02*
X031004D01*
X025098D02*
Y015427D01*
X031004D01*
X038453Y015152D02*
X040028D01*
Y012002D02*
Y015152D01*
X038453Y012002D02*
X040028D01*
X038453D02*
Y015152D01*
X036713Y013945D02*
Y014063D01*
X036516Y014102D02*
X036909D01*
X036713Y014378D02*
Y014535D01*
X036122Y013039D02*
Y015402D01*
Y013039D02*
X037303D01*
Y015402D01*
X036122D02*
X037303D01*
X035319Y013945D02*
Y014063D01*
X035122Y014102D02*
X035516D01*
X035319Y014378D02*
Y014535D01*
X034728Y013039D02*
Y015402D01*
Y013039D02*
X035909D01*
Y015402D01*
X034728D02*
X035909D01*
X033925Y013945D02*
Y014063D01*
X033728Y014102D02*
X034122D01*
X033925Y014378D02*
Y014535D01*
X033335Y013039D02*
Y015402D01*
Y013039D02*
X034516D01*
Y015402D01*
X033335D02*
X034516D01*
X036713Y011327D02*
Y011445D01*
X036516Y011484D02*
X036909D01*
X036713Y01176D02*
Y011917D01*
X036122Y010421D02*
Y012783D01*
Y010421D02*
X037303D01*
Y012783D01*
X036122D02*
X037303D01*
X035319Y011327D02*
Y011445D01*
X035122Y011484D02*
X035516D01*
X035319Y01176D02*
Y011917D01*
X034728Y010421D02*
Y012783D01*
Y010421D02*
X035909D01*
Y012783D01*
X034728D02*
X035909D01*
X033925Y011327D02*
Y011445D01*
X033728Y011484D02*
X034122D01*
X033925Y01176D02*
Y011917D01*
X033335Y010421D02*
Y012783D01*
Y010421D02*
X034516D01*
Y012783D01*
X033335D02*
X034516D01*
X04876Y008925D02*
Y010972D01*
X049823Y008925D02*
Y010972D01*
X04876D02*
X049823D01*
X04876Y008925D02*
X049823D01*
X047382D02*
X048445D01*
X047382Y010972D02*
X048445D01*
Y008925D02*
Y010972D01*
X047382Y008925D02*
Y010972D01*
X051476Y008925D02*
Y010972D01*
X052539Y008925D02*
Y010972D01*
X051476D02*
X052539D01*
X051476Y008925D02*
X052539D01*
X050098D02*
X051161D01*
X050098Y010972D02*
X051161D01*
Y008925D02*
Y010972D01*
X050098Y008925D02*
Y010972D01*
X047106Y006766D02*
Y015427D01*
X041201Y006766D02*
X047106D01*
X041201D02*
Y015427D01*
X047106D01*
X045799Y015772D02*
Y017055D01*
X046508D01*
Y015772D02*
Y017055D01*
X045799Y015772D02*
X046508D01*
X0455Y015756D02*
Y017039D01*
X044791Y015756D02*
X0455D01*
X044791D02*
Y017039D01*
X0455D01*
X044508Y015756D02*
Y017039D01*
X043799Y015756D02*
X044508D01*
X043799D02*
Y017039D01*
X044508D01*
X043508Y015756D02*
Y017039D01*
X042799Y015756D02*
X043508D01*
X042799D02*
Y017039D01*
X043508D01*
X042508Y015756D02*
Y017039D01*
X041799Y015756D02*
X042508D01*
X041799D02*
Y017039D01*
X042508D01*
X038957Y032543D02*
Y033827D01*
X038248Y032543D02*
X038957D01*
X038248D02*
Y033827D01*
X038957D01*
X025945Y025992D02*
Y026701D01*
X024661D02*
X025945D01*
X024661Y025992D02*
Y026701D01*
Y025992D02*
X025945D01*
X024661Y025067D02*
Y025776D01*
Y025067D02*
X025945D01*
Y025776D01*
X024661D02*
X025945D01*
X024677Y026917D02*
Y027626D01*
Y026917D02*
X025961D01*
Y027626D01*
X024677D02*
X025961D01*
X025925Y030661D02*
X026634D01*
X025925Y029378D02*
Y030661D01*
Y029378D02*
X026634D01*
Y030661D01*
X021904Y025815D02*
Y026996D01*
X024266D01*
Y025815D02*
Y026996D01*
X021904Y025815D02*
X024266D01*
X02277Y026406D02*
X022927D01*
X023203Y026209D02*
Y026602D01*
X023242Y026406D02*
X02336D01*
X035622Y023587D02*
X036331D01*
Y02487D01*
X035622D02*
X036331D01*
X035622Y023587D02*
Y02487D01*
X036559Y026189D02*
X037268D01*
X036559Y024906D02*
Y026189D01*
Y024906D02*
X037268D01*
Y026189D01*
X037522D02*
X03823D01*
X037522Y024906D02*
Y026189D01*
Y024906D02*
X03823D01*
Y026189D01*
X038484Y024906D02*
X039193D01*
Y026189D01*
X038484D02*
X039193D01*
X038484Y024906D02*
Y026189D01*
X04011Y024909D02*
Y026193D01*
X039402Y024909D02*
X04011D01*
X039402D02*
Y026193D01*
X04011D01*
X046772Y024906D02*
X04748D01*
Y026189D01*
X046772D02*
X04748D01*
X046772Y024906D02*
Y026189D01*
X045728Y026173D02*
X046437D01*
X045728Y02489D02*
Y026173D01*
Y02489D02*
X046437D01*
Y026173D01*
X044439D02*
X045148D01*
X044439Y02489D02*
Y026173D01*
Y02489D02*
X045148D01*
Y026173D01*
X049478D02*
X050187D01*
X049478Y02489D02*
Y026173D01*
Y02489D02*
X050187D01*
Y026173D01*
X043189Y039043D02*
X044472D01*
X043189D02*
Y039752D01*
X044472D01*
Y039043D02*
Y039752D01*
X042992Y034831D02*
X044276D01*
X042992D02*
Y035539D01*
X044276D01*
Y034831D02*
Y035539D01*
X040353Y035001D02*
X040288Y035067D01*
Y035198D01*
X040353Y035264D01*
X040616D01*
X040681Y035198D01*
Y035067D01*
X040616Y035001D01*
X040681Y03487D02*
Y034739D01*
Y034805D01*
X040288D01*
X040353Y03487D01*
X038463Y035001D02*
X038398Y035067D01*
Y035198D01*
X038463Y035264D01*
X038726D01*
X038791Y035198D01*
Y035067D01*
X038726Y035001D01*
X038791Y034608D02*
Y03487D01*
X038529Y034608D01*
X038463D01*
X038398Y034673D01*
Y034805D01*
X038463Y03487D01*
X043483Y038458D02*
X043417Y038524D01*
Y038655D01*
X043483Y03872D01*
X043745D01*
X043811Y038655D01*
Y038524D01*
X043745Y038458D01*
X043483Y038327D02*
X043417Y038261D01*
Y03813D01*
X043483Y038065D01*
X043549D01*
X043614Y03813D01*
Y038196D01*
Y03813D01*
X04368Y038065D01*
X043745D01*
X043811Y03813D01*
Y038261D01*
X043745Y038327D01*
X044249Y038458D02*
X044183Y038524D01*
Y038655D01*
X044249Y03872D01*
X044511D01*
X044577Y038655D01*
Y038524D01*
X044511Y038458D01*
X044577Y03813D02*
X044183D01*
X04438Y038327D01*
Y038065D01*
X045015Y038458D02*
X044949Y038524D01*
Y038655D01*
X045015Y03872D01*
X045277D01*
X045343Y038655D01*
Y038524D01*
X045277Y038458D01*
X044949Y038065D02*
Y038327D01*
X045146D01*
X04508Y038196D01*
Y03813D01*
X045146Y038065D01*
X045277D01*
X045343Y03813D01*
Y038261D01*
X045277Y038327D01*
X045015Y036875D02*
X044949Y036941D01*
Y037072D01*
X045015Y037138D01*
X045277D01*
X045343Y037072D01*
Y036941D01*
X045277Y036875D01*
X044949Y036482D02*
X045015Y036613D01*
X045146Y036744D01*
X045277D01*
X045343Y036679D01*
Y036547D01*
X045277Y036482D01*
X045211D01*
X045146Y036547D01*
Y036744D01*
X044249Y036848D02*
X044183Y036913D01*
Y037045D01*
X044249Y03711D01*
X044511D01*
X044577Y037045D01*
Y036913D01*
X044511Y036848D01*
X044183Y036717D02*
Y036454D01*
X044249D01*
X044511Y036717D01*
X044577D01*
X043483Y036848D02*
X043417Y036913D01*
Y037045D01*
X043483Y03711D01*
X043745D01*
X043811Y037045D01*
Y036913D01*
X043745Y036848D01*
X043483Y036717D02*
X043417Y036651D01*
Y03652D01*
X043483Y036454D01*
X043549D01*
X043614Y03652D01*
X04368Y036454D01*
X043745D01*
X043811Y03652D01*
Y036651D01*
X043745Y036717D01*
X04368D01*
X043614Y036651D01*
X043549Y036717D01*
X043483D01*
X043614Y036651D02*
Y03652D01*
X039408Y035001D02*
X039343Y035067D01*
Y035198D01*
X039408Y035264D01*
X039671D01*
X039736Y035198D01*
Y035067D01*
X039671Y035001D01*
Y03487D02*
X039736Y034805D01*
Y034673D01*
X039671Y034608D01*
X039408D01*
X039343Y034673D01*
Y034805D01*
X039408Y03487D01*
X039474D01*
X039539Y034805D01*
Y034608D01*
X041298Y035001D02*
X041232Y035067D01*
Y035198D01*
X041298Y035264D01*
X04156D01*
X041626Y035198D01*
Y035067D01*
X04156Y035001D01*
X041626Y03487D02*
Y034739D01*
Y034805D01*
X041232D01*
X041298Y03487D01*
Y034542D02*
X041232Y034477D01*
Y034345D01*
X041298Y03428D01*
X04156D01*
X041626Y034345D01*
Y034477D01*
X04156Y034542D01*
X041298D01*
X042243Y035001D02*
X042177Y035067D01*
Y035198D01*
X042243Y035264D01*
X042505D01*
X042571Y035198D01*
Y035067D01*
X042505Y035001D01*
X042571Y03487D02*
Y034739D01*
Y034805D01*
X042177D01*
X042243Y03487D01*
X042571Y034542D02*
Y034411D01*
Y034477D01*
X042177D01*
X042243Y034542D01*
X03356Y039509D02*
X033626Y039575D01*
X033757D01*
X033823Y039509D01*
Y039247D01*
X033757Y039181D01*
X033626D01*
X03356Y039247D01*
X033429Y039181D02*
X033298D01*
X033364D01*
Y039575D01*
X033429Y039509D01*
X032839Y039181D02*
X033101D01*
X032839Y039443D01*
Y039509D01*
X032905Y039575D01*
X033036D01*
X033101Y039509D01*
X03356Y037608D02*
X033626Y037673D01*
X033757D01*
X033823Y037608D01*
Y037345D01*
X033757Y03728D01*
X033626D01*
X03356Y037345D01*
X033429Y03728D02*
X033298D01*
X033364D01*
Y037673D01*
X033429Y037608D01*
X033101D02*
X033036Y037673D01*
X032905D01*
X032839Y037608D01*
Y037542D01*
X032905Y037476D01*
X03297D01*
X032905D01*
X032839Y037411D01*
Y037345D01*
X032905Y03728D01*
X033036D01*
X033101Y037345D01*
X036837Y039088D02*
X036772Y039154D01*
Y039285D01*
X036837Y03935D01*
X0371D01*
X037165Y039285D01*
Y039154D01*
X0371Y039088D01*
X037165Y038957D02*
Y038826D01*
Y038891D01*
X036772D01*
X036837Y038957D01*
X037165Y038432D02*
X036772D01*
X036969Y038629D01*
Y038366D01*
X044751Y027364D02*
X044685Y027429D01*
Y02756D01*
X044751Y027626D01*
X045013D01*
X045079Y02756D01*
Y027429D01*
X045013Y027364D01*
X045079Y027232D02*
Y027101D01*
Y027167D01*
X044685D01*
X044751Y027232D01*
Y026904D02*
X044685Y026839D01*
Y026708D01*
X044751Y026642D01*
X044816D01*
X044882Y026708D01*
X044948Y026642D01*
X045013D01*
X045079Y026708D01*
Y026839D01*
X045013Y026904D01*
X044948D01*
X044882Y026839D01*
X044816Y026904D01*
X044751D01*
X044882Y026839D02*
Y026708D01*
X028932Y018131D02*
X028866Y018197D01*
Y018328D01*
X028932Y018394D01*
X029194D01*
X02926Y018328D01*
Y018197D01*
X029194Y018131D01*
X02926Y017738D02*
Y018D01*
X028997Y017738D01*
X028932D01*
X028866Y017803D01*
Y017935D01*
X028932Y018D01*
Y017607D02*
X028866Y017541D01*
Y01741D01*
X028932Y017344D01*
X029194D01*
X02926Y01741D01*
Y017541D01*
X029194Y017607D01*
X028932D01*
X043973Y018167D02*
X043908Y018232D01*
Y018364D01*
X043973Y018429D01*
X044236D01*
X044301Y018364D01*
Y018232D01*
X044236Y018167D01*
X044301Y018036D02*
Y017904D01*
Y01797D01*
X043908D01*
X043973Y018036D01*
X044236Y017708D02*
X044301Y017642D01*
Y017511D01*
X044236Y017445D01*
X043973D01*
X043908Y017511D01*
Y017642D01*
X043973Y017708D01*
X044039D01*
X044104Y017642D01*
Y017445D01*
X049664Y027312D02*
X049599Y027378D01*
Y027509D01*
X049664Y027575D01*
X049927D01*
X049992Y027509D01*
Y027378D01*
X049927Y027312D01*
X049992Y026919D02*
Y027181D01*
X04973Y026919D01*
X049664D01*
X049599Y026984D01*
Y027116D01*
X049664Y027181D01*
X049992Y026788D02*
Y026656D01*
Y026722D01*
X049599D01*
X049664Y026788D01*
X027123Y027415D02*
X027189Y02748D01*
X02732D01*
X027386Y027415D01*
Y027152D01*
X02732Y027087D01*
X027189D01*
X027123Y027152D01*
X02673Y027087D02*
X026992D01*
X02673Y027349D01*
Y027415D01*
X026795Y02748D01*
X026927D01*
X026992Y027415D01*
X026402Y027087D02*
Y02748D01*
X026599Y027283D01*
X026336D01*
X057609Y04062D02*
X057543Y040685D01*
Y040816D01*
X057609Y040882D01*
X057871D01*
X057937Y040816D01*
Y040685D01*
X057871Y04062D01*
X057937Y040226D02*
Y040488D01*
X057675Y040226D01*
X057609D01*
X057543Y040292D01*
Y040423D01*
X057609Y040488D01*
X057543Y039832D02*
Y040095D01*
X05774D01*
X057675Y039964D01*
Y039898D01*
X05774Y039832D01*
X057871D01*
X057937Y039898D01*
Y040029D01*
X057871Y040095D01*
X057609Y034328D02*
X057543Y034394D01*
Y034525D01*
X057609Y034591D01*
X057871D01*
X057937Y034525D01*
Y034394D01*
X057871Y034328D01*
X057609Y034197D02*
X057543Y034131D01*
Y034D01*
X057609Y033935D01*
X057675D01*
X05774Y034D01*
Y034066D01*
Y034D01*
X057806Y033935D01*
X057871D01*
X057937Y034D01*
Y034131D01*
X057871Y034197D01*
X057609Y033803D02*
X057543Y033738D01*
Y033607D01*
X057609Y033541D01*
X057871D01*
X057937Y033607D01*
Y033738D01*
X057871Y033803D01*
X057609D01*
X057609Y028053D02*
X057543Y028118D01*
Y028249D01*
X057609Y028315D01*
X057871D01*
X057937Y028249D01*
Y028118D01*
X057871Y028053D01*
X057609Y027921D02*
X057543Y027856D01*
Y027725D01*
X057609Y027659D01*
X057675D01*
X05774Y027725D01*
Y02779D01*
Y027725D01*
X057806Y027659D01*
X057871D01*
X057937Y027725D01*
Y027856D01*
X057871Y027921D01*
X057937Y027528D02*
Y027397D01*
Y027462D01*
X057543D01*
X057609Y027528D01*
X057609Y021588D02*
X057543Y021654D01*
Y021785D01*
X057609Y02185D01*
X057871D01*
X057937Y021785D01*
Y021654D01*
X057871Y021588D01*
X057609Y021457D02*
X057543Y021391D01*
Y02126D01*
X057609Y021194D01*
X057675D01*
X05774Y02126D01*
Y021326D01*
Y02126D01*
X057806Y021194D01*
X057871D01*
X057937Y02126D01*
Y021391D01*
X057871Y021457D01*
X057937Y020801D02*
Y021063D01*
X057675Y020801D01*
X057609D01*
X057543Y020866D01*
Y020998D01*
X057609Y021063D01*
X051126Y014213D02*
X05152D01*
Y014016D01*
X051454Y01395D01*
X051192D01*
X051126Y014016D01*
Y014213D01*
X05152Y013557D02*
Y013819D01*
X051257Y013557D01*
X051192D01*
X051126Y013622D01*
Y013753D01*
X051192Y013819D01*
X035164Y010067D02*
X035557D01*
Y00987D01*
X035491Y009805D01*
X035229D01*
X035164Y00987D01*
Y010067D01*
Y009411D02*
X035229Y009542D01*
X03536Y009673D01*
X035491D01*
X035557Y009608D01*
Y009477D01*
X035491Y009411D01*
X035426D01*
X03536Y009477D01*
Y009673D01*
X035138Y016839D02*
X035531D01*
Y016642D01*
X035466Y016576D01*
X035204D01*
X035138Y016642D01*
Y016839D01*
X035466Y016445D02*
X035531Y016379D01*
Y016248D01*
X035466Y016183D01*
X035204D01*
X035138Y016248D01*
Y016379D01*
X035204Y016445D01*
X035269D01*
X035335Y016379D01*
Y016183D01*
X036599Y016839D02*
X036992D01*
Y016642D01*
X036927Y016576D01*
X036664D01*
X036599Y016642D01*
Y016839D01*
X036992Y016445D02*
Y016314D01*
Y016379D01*
X036599D01*
X036664Y016445D01*
Y016117D02*
X036599Y016051D01*
Y01592D01*
X036664Y015855D01*
X036927D01*
X036992Y01592D01*
Y016051D01*
X036927Y016117D01*
X036664D01*
X033171Y028653D02*
Y02826D01*
X032974D01*
X032909Y028325D01*
Y028588D01*
X032974Y028653D01*
X033171D01*
X032778Y02826D02*
X032646D01*
X032712D01*
Y028653D01*
X032778Y028588D01*
X032187Y02826D02*
X03245D01*
X032187Y028522D01*
Y028588D01*
X032253Y028653D01*
X032384D01*
X03245Y028588D01*
X023673Y027886D02*
Y027492D01*
X023476D01*
X023411Y027558D01*
Y02782D01*
X023476Y027886D01*
X023673D01*
X02328Y027492D02*
X023148D01*
X023214D01*
Y027886D01*
X02328Y02782D01*
X022952D02*
X022886Y027886D01*
X022755D01*
X022689Y02782D01*
Y027755D01*
X022755Y027689D01*
X02282D01*
X022755D01*
X022689Y027623D01*
Y027558D01*
X022755Y027492D01*
X022886D01*
X022952Y027558D01*
X031269Y01651D02*
Y016773D01*
X031335Y016838D01*
X031466D01*
X031532Y016773D01*
Y01651D01*
X031466Y016445D01*
X031335D01*
X0314Y016576D02*
X031269Y016445D01*
X031335D02*
X031269Y01651D01*
X031138Y016445D02*
X031007D01*
X031072D01*
Y016838D01*
X031138Y016773D01*
X048009Y016286D02*
Y016548D01*
X048075Y016614D01*
X048206D01*
X048272Y016548D01*
Y016286D01*
X048206Y01622D01*
X048075D01*
X04814Y016352D02*
X048009Y01622D01*
X048075D02*
X048009Y016286D01*
X047616Y01622D02*
X047878D01*
X047616Y016483D01*
Y016548D01*
X047681Y016614D01*
X047812D01*
X047878Y016548D01*
X049946Y038919D02*
X049684D01*
X049618Y038984D01*
Y039116D01*
X049684Y039181D01*
X049946D01*
X050012Y039116D01*
Y038984D01*
X049881Y03905D02*
X050012Y038919D01*
Y038984D02*
X049946Y038919D01*
X049684Y038788D02*
X049618Y038722D01*
Y038591D01*
X049684Y038525D01*
X049749D01*
X049815Y038591D01*
Y038656D01*
Y038591D01*
X049881Y038525D01*
X049946D01*
X050012Y038591D01*
Y038722D01*
X049946Y038788D01*
X049402Y031811D02*
X049008D01*
Y031614D01*
X049074Y031549D01*
X049205D01*
X04927Y031614D01*
Y031811D01*
Y03168D02*
X049402Y031549D01*
Y031417D02*
Y031286D01*
Y031352D01*
X049008D01*
X049074Y031417D01*
X050874Y031811D02*
X05048D01*
Y031614D01*
X050546Y031549D01*
X050677D01*
X050743Y031614D01*
Y031811D01*
Y03168D02*
X050874Y031549D01*
Y031155D02*
Y031417D01*
X050612Y031155D01*
X050546D01*
X05048Y031221D01*
Y031352D01*
X050546Y031417D01*
X053087Y030406D02*
X052693D01*
Y030209D01*
X052759Y030143D01*
X05289D01*
X052955Y030209D01*
Y030406D01*
Y030274D02*
X053087Y030143D01*
X052693Y02975D02*
Y030012D01*
X05289D01*
X052824Y029881D01*
Y029815D01*
X05289Y02975D01*
X053021D01*
X053087Y029815D01*
Y029946D01*
X053021Y030012D01*
X038157Y03935D02*
X037764D01*
Y039154D01*
X037829Y039088D01*
X037961D01*
X038026Y039154D01*
Y03935D01*
Y039219D02*
X038157Y039088D01*
X038092Y038957D02*
X038157Y038891D01*
Y03876D01*
X038092Y038694D01*
X037829D01*
X037764Y03876D01*
Y038891D01*
X037829Y038957D01*
X037895D01*
X037961Y038891D01*
Y038694D01*
X046287Y027626D02*
X045894D01*
Y027429D01*
X045959Y027364D01*
X046091D01*
X046156Y027429D01*
Y027626D01*
Y027495D02*
X046287Y027364D01*
Y027232D02*
Y027101D01*
Y027167D01*
X045894D01*
X045959Y027232D01*
Y026904D02*
X045894Y026839D01*
Y026708D01*
X045959Y026642D01*
X046222D01*
X046287Y026708D01*
Y026839D01*
X046222Y026904D01*
X045959D01*
X047354Y027495D02*
X046961D01*
Y027298D01*
X047026Y027232D01*
X047158D01*
X047223Y027298D01*
Y027495D01*
Y027364D02*
X047354Y027232D01*
Y027101D02*
Y02697D01*
Y027036D01*
X046961D01*
X047026Y027101D01*
X047354Y026773D02*
Y026642D01*
Y026708D01*
X046961D01*
X047026Y026773D01*
X045324Y018429D02*
X04493D01*
Y018232D01*
X044996Y018167D01*
X045127D01*
X045193Y018232D01*
Y018429D01*
Y018298D02*
X045324Y018167D01*
Y018036D02*
Y017904D01*
Y01797D01*
X04493D01*
X044996Y018036D01*
X045324Y017445D02*
Y017708D01*
X045061Y017445D01*
X044996D01*
X04493Y017511D01*
Y017642D01*
X044996Y017708D01*
X028283Y018417D02*
X02789D01*
Y018221D01*
X027955Y018155D01*
X028087D01*
X028152Y018221D01*
Y018417D01*
Y018286D02*
X028283Y018155D01*
Y018024D02*
Y017893D01*
Y017958D01*
X02789D01*
X027955Y018024D01*
Y017696D02*
X02789Y01763D01*
Y017499D01*
X027955Y017433D01*
X028021D01*
X028087Y017499D01*
Y017565D01*
Y017499D01*
X028152Y017433D01*
X028218D01*
X028283Y017499D01*
Y01763D01*
X028218Y017696D01*
X02622Y01839D02*
X025827D01*
Y018193D01*
X025892Y018127D01*
X026024D01*
X026089Y018193D01*
Y01839D01*
Y018259D02*
X02622Y018127D01*
Y017996D02*
Y017865D01*
Y017931D01*
X025827D01*
X025892Y017996D01*
X02622Y017471D02*
X025827D01*
X026024Y017668D01*
Y017406D01*
X043279Y018429D02*
X042885D01*
Y018232D01*
X042951Y018167D01*
X043082D01*
X043147Y018232D01*
Y018429D01*
Y018298D02*
X043279Y018167D01*
Y018036D02*
Y017904D01*
Y01797D01*
X042885D01*
X042951Y018036D01*
X042885Y017445D02*
X042951Y017576D01*
X043082Y017708D01*
X043213D01*
X043279Y017642D01*
Y017511D01*
X043213Y017445D01*
X043147D01*
X043082Y017511D01*
Y017708D01*
X042256Y018429D02*
X041862D01*
Y018232D01*
X041928Y018167D01*
X042059D01*
X042125Y018232D01*
Y018429D01*
Y018298D02*
X042256Y018167D01*
Y018036D02*
Y017904D01*
Y01797D01*
X041862D01*
X041928Y018036D01*
X041862Y017708D02*
Y017445D01*
X041928D01*
X04219Y017708D01*
X042256D01*
X027272Y018406D02*
X026878D01*
Y018209D01*
X026944Y018143D01*
X027075D01*
X02714Y018209D01*
Y018406D01*
Y018274D02*
X027272Y018143D01*
Y018012D02*
Y017881D01*
Y017946D01*
X026878D01*
X026944Y018012D01*
X027206Y017684D02*
X027272Y017618D01*
Y017487D01*
X027206Y017422D01*
X026944D01*
X026878Y017487D01*
Y017618D01*
X026944Y017684D01*
X027009D01*
X027075Y017618D01*
Y017422D01*
X046346Y018429D02*
X045953D01*
Y018232D01*
X046018Y018167D01*
X04615D01*
X046215Y018232D01*
Y018429D01*
Y018298D02*
X046346Y018167D01*
Y017773D02*
Y018036D01*
X046084Y017773D01*
X046018D01*
X045953Y017839D01*
Y01797D01*
X046018Y018036D01*
Y017642D02*
X045953Y017576D01*
Y017445D01*
X046018Y01738D01*
X046281D01*
X046346Y017445D01*
Y017576D01*
X046281Y017642D01*
X046018D01*
X039476Y011468D02*
X039083D01*
Y011272D01*
X039148Y011206D01*
X03928D01*
X039345Y011272D01*
Y011468D01*
Y011337D02*
X039476Y011206D01*
Y010813D02*
Y011075D01*
X039214Y010813D01*
X039148D01*
X039083Y010878D01*
Y011009D01*
X039148Y011075D01*
X039476Y010419D02*
Y010681D01*
X039214Y010419D01*
X039148D01*
X039083Y010485D01*
Y010616D01*
X039148Y010681D01*
X036134Y02311D02*
X03574D01*
Y022913D01*
X035806Y022848D01*
X035937D01*
X036003Y022913D01*
Y02311D01*
Y022979D02*
X036134Y022848D01*
Y022454D02*
Y022717D01*
X035871Y022454D01*
X035806D01*
X03574Y02252D01*
Y022651D01*
X035806Y022717D01*
Y022323D02*
X03574Y022257D01*
Y022126D01*
X035806Y022061D01*
X035871D01*
X035937Y022126D01*
Y022192D01*
Y022126D01*
X036003Y022061D01*
X036068D01*
X036134Y022126D01*
Y022257D01*
X036068Y022323D01*
X038134Y027571D02*
X03774D01*
Y027374D01*
X037806Y027308D01*
X037937D01*
X038003Y027374D01*
Y027571D01*
Y02744D02*
X038134Y027308D01*
Y026915D02*
Y027177D01*
X037871Y026915D01*
X037806D01*
X03774Y026981D01*
Y027112D01*
X037806Y027177D01*
X038134Y026587D02*
X03774D01*
X037937Y026784D01*
Y026521D01*
X038992Y027571D02*
X038599D01*
Y027374D01*
X038664Y027308D01*
X038795D01*
X038861Y027374D01*
Y027571D01*
Y02744D02*
X038992Y027308D01*
Y026915D02*
Y027177D01*
X03873Y026915D01*
X038664D01*
X038599Y026981D01*
Y027112D01*
X038664Y027177D01*
X038599Y026521D02*
Y026784D01*
X038795D01*
X03873Y026653D01*
Y026587D01*
X038795Y026521D01*
X038927D01*
X038992Y026587D01*
Y026718D01*
X038927Y026784D01*
X037079Y027571D02*
X036685D01*
Y027374D01*
X036751Y027308D01*
X036882D01*
X036948Y027374D01*
Y027571D01*
Y02744D02*
X037079Y027308D01*
Y026915D02*
Y027177D01*
X036816Y026915D01*
X036751D01*
X036685Y026981D01*
Y027112D01*
X036751Y027177D01*
X036685Y026521D02*
X036751Y026653D01*
X036882Y026784D01*
X037013D01*
X037079Y026718D01*
Y026587D01*
X037013Y026521D01*
X036948D01*
X036882Y026587D01*
Y026784D01*
X027555Y030602D02*
X027162D01*
Y030406D01*
X027227Y03034D01*
X027358D01*
X027424Y030406D01*
Y030602D01*
Y030471D02*
X027555Y03034D01*
Y029946D02*
Y030209D01*
X027293Y029946D01*
X027227D01*
X027162Y030012D01*
Y030143D01*
X027227Y030209D01*
X027162Y029815D02*
Y029553D01*
X027227D01*
X02749Y029815D01*
X027555D01*
X027386Y025213D02*
Y025606D01*
X027189D01*
X027123Y025541D01*
Y025409D01*
X027189Y025344D01*
X027386D01*
X027255D02*
X027123Y025213D01*
X02673D02*
X026992D01*
X02673Y025475D01*
Y025541D01*
X026795Y025606D01*
X026927D01*
X026992Y025541D01*
X026599D02*
X026533Y025606D01*
X026402D01*
X026336Y025541D01*
Y025475D01*
X026402Y025409D01*
X026336Y025344D01*
Y025278D01*
X026402Y025213D01*
X026533D01*
X026599Y025278D01*
Y025344D01*
X026533Y025409D01*
X026599Y025475D01*
Y025541D01*
X026533Y025409D02*
X026402D01*
X027386Y026138D02*
Y026531D01*
X027189D01*
X027123Y026466D01*
Y026335D01*
X027189Y026269D01*
X027386D01*
X027255D02*
X027123Y026138D01*
X02673D02*
X026992D01*
X02673Y0264D01*
Y026466D01*
X026795Y026531D01*
X026927D01*
X026992Y026466D01*
X026599Y026203D02*
X026533Y026138D01*
X026402D01*
X026336Y026203D01*
Y026466D01*
X026402Y026531D01*
X026533D01*
X026599Y026466D01*
Y0264D01*
X026533Y026335D01*
X026336D01*
X047921Y034728D02*
Y035122D01*
X047724D01*
X047659Y035056D01*
Y034925D01*
X047724Y03486D01*
X047921D01*
X04779D02*
X047659Y034728D01*
X047528Y035056D02*
X047462Y035122D01*
X047331D01*
X047265Y035056D01*
Y034991D01*
X047331Y034925D01*
X047396D01*
X047331D01*
X047265Y03486D01*
Y034794D01*
X047331Y034728D01*
X047462D01*
X047528Y034794D01*
X047134Y035056D02*
X047069Y035122D01*
X046937D01*
X046872Y035056D01*
Y034794D01*
X046937Y034728D01*
X047069D01*
X047134Y034794D01*
Y035056D01*
X049504Y037339D02*
Y037732D01*
X049307D01*
X049242Y037667D01*
Y037535D01*
X049307Y03747D01*
X049504D01*
X049373D02*
X049242Y037339D01*
X04911Y037667D02*
X049045Y037732D01*
X048914D01*
X048848Y037667D01*
Y037601D01*
X048914Y037535D01*
X048979D01*
X048914D01*
X048848Y03747D01*
Y037404D01*
X048914Y037339D01*
X049045D01*
X04911Y037404D01*
X048717Y037339D02*
X048586D01*
X048651D01*
Y037732D01*
X048717Y037667D01*
X038744Y042386D02*
X038351D01*
Y042189D01*
X038416Y042123D01*
X038547D01*
X038613Y042189D01*
Y042386D01*
Y042255D02*
X038744Y042123D01*
X038416Y041992D02*
X038351Y041927D01*
Y041795D01*
X038416Y04173D01*
X038482D01*
X038547Y041795D01*
Y041861D01*
Y041795D01*
X038613Y04173D01*
X038679D01*
X038744Y041795D01*
Y041927D01*
X038679Y041992D01*
X038744Y041336D02*
Y041599D01*
X038482Y041336D01*
X038416D01*
X038351Y041402D01*
Y041533D01*
X038416Y041599D01*
X026988Y040606D02*
Y040344D01*
X026857Y040213D01*
X026726Y040344D01*
Y040606D01*
X026595Y040213D02*
Y040606D01*
X026398D01*
X026332Y040541D01*
Y040409D01*
X026398Y040344D01*
X026595D01*
X026463D02*
X026332Y040213D01*
X026201D02*
X02607D01*
X026135D01*
Y040606D01*
X026201Y040541D01*
X04863Y014252D02*
X049024D01*
Y014055D01*
X048958Y01399D01*
X048696D01*
X04863Y014055D01*
Y014252D01*
Y013596D02*
Y013858D01*
X048827D01*
X048761Y013727D01*
Y013662D01*
X048827Y013596D01*
X048958D01*
X049024Y013662D01*
Y013793D01*
X048958Y013858D01*
X033807Y010067D02*
X034201D01*
Y00987D01*
X034135Y009805D01*
X033873D01*
X033807Y00987D01*
Y010067D01*
X033873Y009673D02*
X033807Y009608D01*
Y009477D01*
X033873Y009411D01*
X033938D01*
X034004Y009477D01*
X03407Y009411D01*
X034135D01*
X034201Y009477D01*
Y009608D01*
X034135Y009673D01*
X03407D01*
X034004Y009608D01*
X033938Y009673D01*
X033873D01*
X034004Y009608D02*
Y009477D01*
X033725Y016839D02*
X034118D01*
Y016642D01*
X034053Y016576D01*
X03379D01*
X033725Y016642D01*
Y016839D01*
X034118Y016445D02*
Y016314D01*
Y016379D01*
X033725D01*
X03379Y016445D01*
X034118Y016117D02*
Y015986D01*
Y016051D01*
X033725D01*
X03379Y016117D01*
X03652Y010067D02*
X036913D01*
Y00987D01*
X036848Y009805D01*
X036585D01*
X03652Y00987D01*
Y010067D01*
Y009673D02*
Y009411D01*
X036585D01*
X036848Y009673D01*
X036913D01*
X030209Y01837D02*
X029815D01*
Y018173D01*
X029881Y018108D01*
X030012D01*
X030077Y018173D01*
Y01837D01*
Y018239D02*
X030209Y018108D01*
Y017714D02*
Y017976D01*
X029946Y017714D01*
X029881D01*
X029815Y01778D01*
Y017911D01*
X029881Y017976D01*
X030209Y017583D02*
Y017452D01*
Y017517D01*
X029815D01*
X029881Y017583D01*
X039637Y027305D02*
X039571Y02737D01*
Y027501D01*
X039637Y027567D01*
X039899D01*
X039965Y027501D01*
Y02737D01*
X039899Y027305D01*
X039965Y026911D02*
Y027173D01*
X039702Y026911D01*
X039637D01*
X039571Y026977D01*
Y027108D01*
X039637Y027173D01*
Y02678D02*
X039571Y026714D01*
Y026583D01*
X039637Y026517D01*
X039702D01*
X039768Y026583D01*
Y026649D01*
Y026583D01*
X039833Y026517D01*
X039899D01*
X039965Y026583D01*
Y026714D01*
X039899Y02678D01*
X044041Y043415D02*
X043976Y04348D01*
Y043612D01*
X044041Y043677D01*
X044303D01*
X044369Y043612D01*
Y04348D01*
X044303Y043415D01*
X043976Y043284D02*
X044369D01*
Y043021D01*
X043976Y04289D02*
X044369D01*
X044238D01*
X043976Y042628D01*
X044172Y042824D01*
X044369Y042628D01*
X047187Y043677D02*
X047122Y043612D01*
Y04348D01*
X047187Y043415D01*
X047253D01*
X047318Y04348D01*
Y043546D01*
Y04348D01*
X047384Y043415D01*
X04745D01*
X047515Y04348D01*
Y043612D01*
X04745Y043677D01*
X047515Y043284D02*
X04745D01*
Y043218D01*
X047515D01*
Y043284D01*
X047187Y042956D02*
X047122Y04289D01*
Y042759D01*
X047187Y042693D01*
X047253D01*
X047318Y042759D01*
Y042824D01*
Y042759D01*
X047384Y042693D01*
X04745D01*
X047515Y042759D01*
Y04289D01*
X04745Y042956D01*
X047122Y042562D02*
X047384D01*
X047515Y042431D01*
X047384Y0423D01*
X047122D01*
X042992Y043415D02*
X042927Y04348D01*
Y043612D01*
X042992Y043677D01*
X043255D01*
X04332Y043612D01*
Y04348D01*
X043255Y043415D01*
X043124D01*
Y043546D01*
X04332Y043284D02*
X042927D01*
X04332Y043021D01*
X042927D01*
Y04289D02*
X04332D01*
Y042693D01*
X043255Y042628D01*
X042992D01*
X042927Y042693D01*
Y04289D01*
X041944Y043677D02*
X041878Y043612D01*
Y04348D01*
X041944Y043415D01*
X042009D01*
X042075Y04348D01*
Y043546D01*
Y04348D01*
X04214Y043415D01*
X042206D01*
X042272Y04348D01*
Y043612D01*
X042206Y043677D01*
X042272Y043284D02*
X042206D01*
Y043218D01*
X042272D01*
Y043284D01*
X041944Y042956D02*
X041878Y04289D01*
Y042759D01*
X041944Y042693D01*
X042009D01*
X042075Y042759D01*
Y042824D01*
Y042759D01*
X04214Y042693D01*
X042206D01*
X042272Y042759D01*
Y04289D01*
X042206Y042956D01*
X041878Y042562D02*
X04214D01*
X042272Y042431D01*
X04214Y0423D01*
X041878D01*
X046073Y043677D02*
X046467D01*
Y04348D01*
X046401Y043415D01*
X046139D01*
X046073Y04348D01*
Y043677D01*
Y043284D02*
Y043152D01*
Y043218D01*
X046467D01*
Y043284D01*
Y043152D01*
X046073Y042759D02*
Y04289D01*
X046139Y042956D01*
X046401D01*
X046467Y04289D01*
Y042759D01*
X046401Y042693D01*
X046139D01*
X046073Y042759D01*
X045418Y043677D02*
X045024D01*
Y04348D01*
X04509Y043415D01*
X045221D01*
X045287Y04348D01*
Y043677D01*
Y043546D02*
X045418Y043415D01*
X04509Y043021D02*
X045024Y043087D01*
Y043218D01*
X04509Y043284D01*
X045155D01*
X045221Y043218D01*
Y043087D01*
X045287Y043021D01*
X045352D01*
X045418Y043087D01*
Y043218D01*
X045352Y043284D01*
X045024Y04289D02*
Y042628D01*
Y042759D01*
X045418D01*
X049613Y043677D02*
X049219D01*
Y04348D01*
X049285Y043415D01*
X049416D01*
X049482Y04348D01*
Y043677D01*
Y043546D02*
X049613Y043415D01*
X049219Y043284D02*
X049613Y043021D01*
X049219D02*
X049613Y043284D01*
X048236Y043415D02*
X04817Y04348D01*
Y043612D01*
X048236Y043677D01*
X048498D01*
X048564Y043612D01*
Y04348D01*
X048498Y043415D01*
X048367D01*
Y043546D01*
X048564Y043284D02*
X04817D01*
X048564Y043021D01*
X04817D01*
Y04289D02*
X048564D01*
Y042693D01*
X048498Y042628D01*
X048236D01*
X04817Y042693D01*
Y04289D01*
X050268Y043677D02*
Y043415D01*
Y043546D01*
X050661D01*
X050268Y043284D02*
X050661Y043021D01*
X050268D02*
X050661Y043284D01*
D54*
X029311Y027823D02*
Y029083D01*
X031673D01*
Y027823D02*
Y029083D01*
X029311Y027823D02*
X031673D01*
X03128D02*
Y029083D01*
X028917Y028453D02*
X029311D01*
X031673D02*
X032067D01*
D57*
X049272Y00924D02*
D03*
X047894Y00924D02*
D03*
X051988Y00924D02*
D03*
X05061Y00924D02*
D03*
M02*
