G04 Layer_Color=255*
%FSTAX24Y24*%
%MOIN*%
G70*
G01*
G75*
%ADD16R,0.0472X0.0354*%
%ADD20R,0.0472X0.1575*%
%ADD32C,0.0591*%
%ADD33C,0.0630*%
%ADD34C,0.1181*%
%ADD35C,0.0512*%
%ADD36C,0.1417*%
%ADD37C,0.0787*%
%ADD38C,0.1378*%
%ADD39C,0.1024*%
%ADD40C,0.0984*%
%ADD41C,0.0433*%
%ADD42C,0.0394*%
%ADD45R,0.0354X0.0472*%
G04:AMPARAMS|DCode=46|XSize=31.5mil|YSize=35.4mil|CornerRadius=1.6mil|HoleSize=0mil|Usage=FLASHONLY|Rotation=90.000|XOffset=0mil|YOffset=0mil|HoleType=Round|Shape=RoundedRectangle|*
%AMROUNDEDRECTD46*
21,1,0.0315,0.0323,0,0,90.0*
21,1,0.0283,0.0354,0,0,90.0*
1,1,0.0032,0.0161,0.0142*
1,1,0.0032,0.0161,-0.0142*
1,1,0.0032,-0.0161,-0.0142*
1,1,0.0032,-0.0161,0.0142*
%
%ADD46ROUNDEDRECTD46*%
%ADD47R,0.1378X0.0630*%
%ADD48R,0.0618X0.0612*%
%ADD49R,0.0612X0.0618*%
D16*
X051949Y030343D02*
D03*
Y029673D02*
D03*
X05063Y030343D02*
D03*
Y029673D02*
D03*
X049311Y030343D02*
D03*
Y029673D02*
D03*
X056673Y021071D02*
D03*
Y02174D02*
D03*
Y027409D02*
D03*
Y028079D02*
D03*
Y033709D02*
D03*
Y034378D02*
D03*
X056673Y040008D02*
D03*
Y040677D02*
D03*
X037067Y03711D02*
D03*
Y03778D02*
D03*
X037972Y037764D02*
D03*
Y037094D02*
D03*
X038587Y042961D02*
D03*
Y04363D02*
D03*
X040087Y038177D02*
D03*
Y038846D02*
D03*
X041071Y038177D02*
D03*
Y038846D02*
D03*
X042055Y038177D02*
D03*
Y038846D02*
D03*
X040087Y037213D02*
D03*
Y036543D02*
D03*
X041071Y037213D02*
D03*
Y036543D02*
D03*
X042055Y037213D02*
D03*
Y036543D02*
D03*
X0425Y032858D02*
D03*
Y033528D02*
D03*
X041526Y032858D02*
D03*
Y033528D02*
D03*
X040551Y032858D02*
D03*
Y033528D02*
D03*
X039577Y032858D02*
D03*
Y033528D02*
D03*
X026051Y01674D02*
D03*
Y016071D02*
D03*
X027051Y016071D02*
D03*
Y01674D02*
D03*
X028051Y016071D02*
D03*
Y01674D02*
D03*
X029051Y016071D02*
D03*
Y01674D02*
D03*
X030051Y01674D02*
D03*
Y016071D02*
D03*
X046154Y01674D02*
D03*
Y016071D02*
D03*
X045146D02*
D03*
Y01674D02*
D03*
X044154Y016071D02*
D03*
Y01674D02*
D03*
X043154Y016071D02*
D03*
Y01674D02*
D03*
X042154Y016071D02*
D03*
Y01674D02*
D03*
X038602Y032858D02*
D03*
Y033528D02*
D03*
X02628Y030362D02*
D03*
Y029693D02*
D03*
X035976Y023886D02*
D03*
Y024555D02*
D03*
X036913Y02589D02*
D03*
Y02522D02*
D03*
X037876Y02589D02*
D03*
Y02522D02*
D03*
X038839Y025205D02*
D03*
Y025874D02*
D03*
X039756Y025224D02*
D03*
Y025894D02*
D03*
X047126Y025205D02*
D03*
Y025874D02*
D03*
X046083D02*
D03*
Y025205D02*
D03*
X044793Y025874D02*
D03*
Y025205D02*
D03*
X049833Y025874D02*
D03*
Y025205D02*
D03*
D20*
X049291Y012232D02*
D03*
Y007665D02*
D03*
X047913D02*
D03*
Y012232D02*
D03*
X052008D02*
D03*
Y007665D02*
D03*
X05063D02*
D03*
Y012232D02*
D03*
D32*
X032461Y028453D02*
D03*
X028524D02*
D03*
D33*
X024587Y044673D02*
D03*
X025587D02*
D03*
X026587D02*
D03*
X027587D02*
D03*
X028587D02*
D03*
X029587D02*
D03*
X030587D02*
D03*
X031587D02*
D03*
X032587D02*
D03*
X033587D02*
D03*
X034587D02*
D03*
X035587D02*
D03*
X036587D02*
D03*
X037587D02*
D03*
X038587D02*
D03*
X039587D02*
D03*
X048642Y038795D02*
D03*
Y035795D02*
D03*
X036083Y039358D02*
D03*
Y037437D02*
D03*
X047252Y041524D02*
D03*
X048252D02*
D03*
X049252D02*
D03*
X050252D02*
D03*
X046055Y041524D02*
D03*
X045055D02*
D03*
X044055D02*
D03*
X043055D02*
D03*
X042055D02*
D03*
X055728Y013807D02*
D03*
X05376D02*
D03*
D34*
X022421Y032469D02*
D03*
Y044673D02*
D03*
X051949Y032469D02*
D03*
X051949Y044673D02*
D03*
D35*
X027587Y042508D02*
D03*
X025587D02*
D03*
X026587Y043508D02*
D03*
X030766Y020886D02*
D03*
Y021886D02*
D03*
Y022886D02*
D03*
Y023886D02*
D03*
X033925D02*
D03*
Y022886D02*
D03*
Y021886D02*
D03*
Y020886D02*
D03*
D36*
X028051Y007856D02*
D03*
X044154D02*
D03*
D37*
X030051Y01464D02*
D03*
X026051D02*
D03*
X028051D02*
D03*
X046154D02*
D03*
X042154D02*
D03*
X044154D02*
D03*
X05872Y009949D02*
D03*
Y011917D02*
D03*
X056673Y023217D02*
D03*
Y019673D02*
D03*
Y029516D02*
D03*
Y025972D02*
D03*
Y035815D02*
D03*
Y032272D02*
D03*
Y042114D02*
D03*
Y038571D02*
D03*
X023169Y011917D02*
D03*
Y009949D02*
D03*
D38*
X059429Y044673D02*
D03*
Y007665D02*
D03*
X022421Y032469D02*
D03*
Y044673D02*
D03*
X051949Y032469D02*
D03*
Y044673D02*
D03*
X022421Y007665D02*
D03*
D39*
X038091Y007856D02*
D03*
X034154D02*
D03*
D40*
X059134Y020461D02*
D03*
X054213D02*
D03*
X059134Y022429D02*
D03*
X054213D02*
D03*
X059134Y02676D02*
D03*
X054213D02*
D03*
X059134Y028728D02*
D03*
X054213D02*
D03*
X059134Y033059D02*
D03*
X054213D02*
D03*
X059134Y035028D02*
D03*
X054213D02*
D03*
X059134Y039358D02*
D03*
X054213D02*
D03*
X059134Y041327D02*
D03*
X054213D02*
D03*
D41*
X038882Y014665D02*
D03*
X039945D02*
D03*
X04098D02*
D03*
X042098Y01385D02*
D03*
Y013154D02*
D03*
D42*
X04108Y030126D02*
D03*
X038118D02*
D03*
X039105D02*
D03*
X040093D02*
D03*
X042067D02*
D03*
D45*
X035256Y039358D02*
D03*
X034587D02*
D03*
X035256Y037437D02*
D03*
X034587D02*
D03*
X047079Y035795D02*
D03*
X047748D02*
D03*
X047748Y037587D02*
D03*
X047079D02*
D03*
X025646Y026346D02*
D03*
X024976D02*
D03*
X024961Y025421D02*
D03*
X02563D02*
D03*
X024976Y027272D02*
D03*
X025646D02*
D03*
X043504Y039398D02*
D03*
X044173D02*
D03*
X043307Y035185D02*
D03*
X043976D02*
D03*
D46*
X047945Y038795D02*
D03*
X047079Y039169D02*
D03*
Y038421D02*
D03*
D47*
X03924Y012514D02*
D03*
Y01464D02*
D03*
D48*
X036713Y013467D02*
D03*
Y014974D02*
D03*
X035319Y013467D02*
D03*
Y014974D02*
D03*
X033925Y013467D02*
D03*
Y014974D02*
D03*
X036713Y010848D02*
D03*
Y012356D02*
D03*
X035319Y010848D02*
D03*
Y012356D02*
D03*
X033925Y010848D02*
D03*
Y012356D02*
D03*
D49*
X022331Y026406D02*
D03*
X023839D02*
D03*
M02*
