G04 Layer_Color=255*
%FSTAX24Y24*%
%MOIN*%
G70*
G01*
G75*
%ADD11R,0.1063X0.0610*%
%ADD12R,0.0610X0.0394*%
%ADD13R,0.0787X0.0492*%
%ADD14R,0.0630X0.1378*%
%ADD15R,0.1378X0.0630*%
%ADD16R,0.0472X0.0354*%
%ADD17R,0.0885X0.0291*%
%ADD18R,0.0885X0.1319*%
%ADD19R,0.0472X0.0709*%
%ADD20R,0.0472X0.1575*%
%ADD21R,0.0571X0.0236*%
%ADD22R,0.0748X0.2087*%
G04:AMPARAMS|DCode=23|XSize=275.2mil|YSize=393.7mil|CornerRadius=13.8mil|HoleSize=0mil|Usage=FLASHONLY|Rotation=180.000|XOffset=0mil|YOffset=0mil|HoleType=Round|Shape=RoundedRectangle|*
%AMROUNDEDRECTD23*
21,1,0.2752,0.3662,0,0,180.0*
21,1,0.2477,0.3937,0,0,180.0*
1,1,0.0275,-0.1238,0.1831*
1,1,0.0275,0.1238,0.1831*
1,1,0.0275,0.1238,-0.1831*
1,1,0.0275,-0.1238,-0.1831*
%
%ADD23ROUNDEDRECTD23*%
G04:AMPARAMS|DCode=24|XSize=85mil|YSize=42.1mil|CornerRadius=4.2mil|HoleSize=0mil|Usage=FLASHONLY|Rotation=0.000|XOffset=0mil|YOffset=0mil|HoleType=Round|Shape=RoundedRectangle|*
%AMROUNDEDRECTD24*
21,1,0.0850,0.0337,0,0,0.0*
21,1,0.0766,0.0421,0,0,0.0*
1,1,0.0084,0.0383,-0.0169*
1,1,0.0084,-0.0383,-0.0169*
1,1,0.0084,-0.0383,0.0169*
1,1,0.0084,0.0383,0.0169*
%
%ADD24ROUNDEDRECTD24*%
%ADD25O,0.0118X0.0709*%
%ADD26O,0.0709X0.0118*%
%ADD32C,0.0591*%
%ADD33C,0.0630*%
%ADD34C,0.1181*%
%ADD35C,0.0512*%
%ADD36C,0.1417*%
%ADD37C,0.0787*%
%ADD38C,0.1378*%
%ADD39C,0.1024*%
%ADD40C,0.0984*%
%ADD41C,0.0433*%
%ADD42C,0.0394*%
D11*
X032362Y025352D02*
D03*
Y026396D02*
D03*
D12*
X049311Y030539D02*
D03*
Y029673D02*
D03*
X051949D02*
D03*
Y030539D02*
D03*
X05063Y029673D02*
D03*
Y030539D02*
D03*
X02628Y029673D02*
D03*
Y030539D02*
D03*
D13*
X042114Y011868D02*
D03*
Y013344D02*
D03*
D14*
X024429Y01464D02*
D03*
X022303D02*
D03*
X059673D02*
D03*
X057547D02*
D03*
D15*
X022303Y01802D02*
D03*
X024508D02*
D03*
Y029476D02*
D03*
X022303D02*
D03*
D16*
X0425Y033512D02*
D03*
Y032843D02*
D03*
X041526Y033512D02*
D03*
Y032843D02*
D03*
X040551Y033512D02*
D03*
Y032843D02*
D03*
X039577Y033512D02*
D03*
Y032843D02*
D03*
X038602Y033512D02*
D03*
Y032843D02*
D03*
D17*
X024595Y03428D02*
D03*
Y036091D02*
D03*
Y035185D02*
D03*
Y038768D02*
D03*
Y040579D02*
D03*
Y039673D02*
D03*
D18*
X022331Y035185D02*
D03*
Y039673D02*
D03*
D19*
X023512Y037429D02*
D03*
X022331D02*
D03*
X023512Y041878D02*
D03*
X022331D02*
D03*
D20*
X047913Y012232D02*
D03*
Y007665D02*
D03*
X049291D02*
D03*
Y012232D02*
D03*
X05063D02*
D03*
Y007665D02*
D03*
X052008D02*
D03*
Y012232D02*
D03*
D21*
X037608Y024386D02*
D03*
Y023886D02*
D03*
Y023386D02*
D03*
Y022886D02*
D03*
X039754Y024386D02*
D03*
Y023886D02*
D03*
Y023386D02*
D03*
Y022886D02*
D03*
X04265Y024386D02*
D03*
Y023886D02*
D03*
Y023386D02*
D03*
Y022886D02*
D03*
X044795Y024386D02*
D03*
Y023886D02*
D03*
Y023386D02*
D03*
Y022886D02*
D03*
X047715Y024386D02*
D03*
Y023886D02*
D03*
Y023386D02*
D03*
Y022886D02*
D03*
X04986Y024386D02*
D03*
Y023886D02*
D03*
Y023386D02*
D03*
Y022886D02*
D03*
D22*
X023839Y026406D02*
D03*
X0225D02*
D03*
D23*
X023839Y022508D02*
D03*
D24*
X028051Y023886D02*
D03*
Y023217D02*
D03*
Y022547D02*
D03*
Y021878D02*
D03*
Y021209D02*
D03*
D25*
X039587Y040067D02*
D03*
X039783D02*
D03*
X03998D02*
D03*
X040177D02*
D03*
X040374D02*
D03*
X040571D02*
D03*
X040768D02*
D03*
X040965D02*
D03*
X041161D02*
D03*
X041358D02*
D03*
X041555D02*
D03*
X041752D02*
D03*
X041949D02*
D03*
X042146D02*
D03*
X042343D02*
D03*
X042539D02*
D03*
Y035697D02*
D03*
X042343D02*
D03*
X042146D02*
D03*
X041949D02*
D03*
X041752D02*
D03*
X041555D02*
D03*
X041358D02*
D03*
X041161D02*
D03*
X040965D02*
D03*
X040768D02*
D03*
X040571D02*
D03*
X040374D02*
D03*
X040177D02*
D03*
X03998D02*
D03*
X039783D02*
D03*
X039587D02*
D03*
D26*
X043248Y039358D02*
D03*
Y039161D02*
D03*
Y038965D02*
D03*
Y038768D02*
D03*
Y038571D02*
D03*
Y038374D02*
D03*
Y038177D02*
D03*
Y03798D02*
D03*
Y037783D02*
D03*
Y037587D02*
D03*
Y03739D02*
D03*
Y037193D02*
D03*
Y036996D02*
D03*
Y036799D02*
D03*
Y036602D02*
D03*
Y036406D02*
D03*
X038878D02*
D03*
Y036602D02*
D03*
Y036799D02*
D03*
Y036996D02*
D03*
Y037193D02*
D03*
Y03739D02*
D03*
Y037587D02*
D03*
Y037783D02*
D03*
Y03798D02*
D03*
Y038177D02*
D03*
Y038374D02*
D03*
Y038571D02*
D03*
Y038768D02*
D03*
Y038965D02*
D03*
Y039161D02*
D03*
Y039358D02*
D03*
D32*
X032461Y028453D02*
D03*
X028524D02*
D03*
D33*
X024587Y044673D02*
D03*
X025587D02*
D03*
X026587D02*
D03*
X027587D02*
D03*
X028587D02*
D03*
X029587D02*
D03*
X030587D02*
D03*
X031587D02*
D03*
X032587D02*
D03*
X033587D02*
D03*
X034587D02*
D03*
X035587D02*
D03*
X036587D02*
D03*
X037587D02*
D03*
X038587D02*
D03*
X039587D02*
D03*
X048642Y038795D02*
D03*
Y035795D02*
D03*
X036083Y039358D02*
D03*
Y037437D02*
D03*
X047252Y041524D02*
D03*
X048252D02*
D03*
X049252D02*
D03*
X050252D02*
D03*
X046055Y041524D02*
D03*
X045055D02*
D03*
X044055D02*
D03*
X043055D02*
D03*
X042055D02*
D03*
X055728Y013807D02*
D03*
X05376D02*
D03*
D34*
X022421Y032469D02*
D03*
Y044673D02*
D03*
X051949Y032469D02*
D03*
X051949Y044673D02*
D03*
D35*
X027587Y042508D02*
D03*
X025587D02*
D03*
X026587Y043508D02*
D03*
X030766Y020886D02*
D03*
Y021886D02*
D03*
Y022886D02*
D03*
Y023886D02*
D03*
X033925D02*
D03*
Y022886D02*
D03*
Y021886D02*
D03*
Y020886D02*
D03*
D36*
X028051Y007856D02*
D03*
X044154D02*
D03*
D37*
X030051Y01464D02*
D03*
X026051D02*
D03*
X028051D02*
D03*
X046154D02*
D03*
X042154D02*
D03*
X044154D02*
D03*
X05872Y009949D02*
D03*
Y011917D02*
D03*
X056673Y023217D02*
D03*
Y019673D02*
D03*
Y029516D02*
D03*
Y025972D02*
D03*
Y035815D02*
D03*
Y032272D02*
D03*
Y042114D02*
D03*
Y038571D02*
D03*
X023169Y011917D02*
D03*
Y009949D02*
D03*
D38*
X059429Y044673D02*
D03*
Y007665D02*
D03*
X022421Y032469D02*
D03*
Y044673D02*
D03*
X051949Y032469D02*
D03*
Y044673D02*
D03*
X022421Y007665D02*
D03*
D39*
X038091Y007856D02*
D03*
X034154D02*
D03*
D40*
X059134Y020461D02*
D03*
X054213D02*
D03*
X059134Y022429D02*
D03*
X054213D02*
D03*
X059134Y02676D02*
D03*
X054213D02*
D03*
X059134Y028728D02*
D03*
X054213D02*
D03*
X059134Y033059D02*
D03*
X054213D02*
D03*
X059134Y035028D02*
D03*
X054213D02*
D03*
X059134Y039358D02*
D03*
X054213D02*
D03*
X059134Y041327D02*
D03*
X054213D02*
D03*
D41*
X038882Y014665D02*
D03*
X039945D02*
D03*
X04098D02*
D03*
X042098Y01385D02*
D03*
Y013154D02*
D03*
D42*
X04108Y030126D02*
D03*
X038118D02*
D03*
X039105D02*
D03*
X040093D02*
D03*
X042067D02*
D03*
M02*
