G04 Layer_Color=32768*
%FSTAX24Y24*%
%MOIN*%
G70*
G01*
G75*
%ADD54C,0.0079*%
%ADD56C,0.0039*%
%ADD95C,0.0020*%
D54*
X02813Y027665D02*
X032854D01*
Y02924D01*
X02813D02*
X032854D01*
X02813Y027665D02*
Y02924D01*
D56*
X032362Y025677D02*
Y026071D01*
X032165Y025874D02*
X032559D01*
X038484Y023636D02*
X038878D01*
X038681Y023439D02*
Y023833D01*
X043526Y023636D02*
X043919D01*
X043722Y023439D02*
Y023833D01*
X048591Y023636D02*
X048984D01*
X048787Y023439D02*
Y023833D01*
X041063Y037685D02*
Y038079D01*
X040866Y037882D02*
X04126D01*
D95*
X031732Y024949D02*
X032992D01*
X031732Y026799D02*
X032992D01*
X031732Y024949D02*
Y026799D01*
X032992Y024949D02*
Y026799D01*
X037224Y022553D02*
Y024718D01*
X040138Y022553D02*
Y024718D01*
X037224D02*
X040138D01*
X037224Y022553D02*
X040138D01*
X042266D02*
Y024718D01*
X045179Y022553D02*
Y024718D01*
X042266D02*
X045179D01*
X042266Y022553D02*
X045179D01*
X047331Y022553D02*
Y024718D01*
X050244Y022553D02*
Y024718D01*
X047331D02*
X050244D01*
X047331Y022553D02*
X050244D01*
X038425Y035244D02*
X043701D01*
X038425Y04052D02*
X043701D01*
Y035244D02*
Y04052D01*
X038425Y035244D02*
Y04052D01*
M02*
