G04 Layer_Color=128*
%FSTAX24Y24*%
%MOIN*%
G70*
G01*
G75*
%ADD97C,0.0020*%
D97*
X032264Y028453D02*
X032657D01*
X032461Y028256D02*
Y02865D01*
X028327Y028453D02*
X02872D01*
X028524Y028256D02*
Y02865D01*
X02439Y044673D02*
X024783D01*
X024587Y044476D02*
Y04487D01*
X021929Y032469D02*
X022913D01*
X022421Y031976D02*
Y032961D01*
X021929Y044673D02*
X022913D01*
X022421Y044181D02*
Y045165D01*
X051457Y032469D02*
X052441D01*
X051949Y031976D02*
Y032961D01*
X051457Y044673D02*
X052441D01*
X051949Y044181D02*
Y045165D01*
X02539Y044673D02*
X025783D01*
X025587Y044476D02*
Y04487D01*
X02639Y044673D02*
X026783D01*
X026587Y044476D02*
Y04487D01*
X02739Y044673D02*
X027783D01*
X027587Y044476D02*
Y04487D01*
X02839Y044673D02*
X028783D01*
X028587Y044476D02*
Y04487D01*
X02939Y044673D02*
X029783D01*
X029587Y044476D02*
Y04487D01*
X03039Y044673D02*
X030783D01*
X030587Y044476D02*
Y04487D01*
X03139Y044673D02*
X031783D01*
X031587Y044476D02*
Y04487D01*
X03239Y044673D02*
X032783D01*
X032587Y044476D02*
Y04487D01*
X03339Y044673D02*
X033783D01*
X033587Y044476D02*
Y04487D01*
X03439Y044673D02*
X034783D01*
X034587Y044476D02*
Y04487D01*
X03539Y044673D02*
X035783D01*
X035587Y044476D02*
Y04487D01*
X03639Y044673D02*
X036783D01*
X036587Y044476D02*
Y04487D01*
X03739Y044673D02*
X037783D01*
X037587Y044476D02*
Y04487D01*
X03839Y044673D02*
X038783D01*
X038587Y044476D02*
Y04487D01*
X03939Y044673D02*
X039783D01*
X039587Y044476D02*
Y04487D01*
X048445Y038795D02*
X048839D01*
X048642Y038598D02*
Y038992D01*
X048445Y035795D02*
X048839D01*
X048642Y035598D02*
Y035992D01*
X035886Y039358D02*
X03628D01*
X036083Y039161D02*
Y039555D01*
X035886Y037437D02*
X03628D01*
X036083Y03724D02*
Y037634D01*
X027429Y042508D02*
X027744D01*
X027587Y04235D02*
Y042665D01*
X025429Y042508D02*
X025744D01*
X025587Y04235D02*
Y042665D01*
X026429Y043508D02*
X026744D01*
X026587Y04335D02*
Y043665D01*
X027441Y007856D02*
X028661D01*
X028051Y007246D02*
Y008467D01*
X029795Y01464D02*
X030307D01*
X030051Y014384D02*
Y014896D01*
X025795Y01464D02*
X026307D01*
X026051Y014384D02*
Y014896D01*
X027795Y01464D02*
X028307D01*
X028051Y014384D02*
Y014896D01*
X043543Y007856D02*
X044764D01*
X044154Y007246D02*
Y008467D01*
X045898Y01464D02*
X046409D01*
X046154Y014384D02*
Y014896D01*
X041898Y01464D02*
X042409D01*
X042154Y014384D02*
Y014896D01*
X043898Y01464D02*
X044409D01*
X044154Y014384D02*
Y014896D01*
X058799Y044673D02*
X060059D01*
X059429Y044043D02*
Y045303D01*
X058799Y007665D02*
X060059D01*
X059429Y007035D02*
Y008295D01*
X021791Y032469D02*
X023051D01*
X022421Y031839D02*
Y033098D01*
X021791Y044673D02*
X023051D01*
X022421Y044043D02*
Y045303D01*
X051319Y032469D02*
X052579D01*
X051949Y031839D02*
Y033098D01*
X051319Y044673D02*
X052579D01*
X051949Y044043D02*
Y045303D01*
X021791Y007665D02*
X023051D01*
X022421Y007035D02*
Y008295D01*
X047055Y041524D02*
X047449D01*
X047252Y041327D02*
Y04172D01*
X048055Y041524D02*
X048449D01*
X048252Y041327D02*
Y04172D01*
X049055Y041524D02*
X049449D01*
X049252Y041327D02*
Y04172D01*
X050055Y041524D02*
X050449D01*
X050252Y041327D02*
Y04172D01*
X037795Y007856D02*
X038386D01*
X038091Y007561D02*
Y008152D01*
X033858Y007856D02*
X034449D01*
X034154Y007561D02*
Y008152D01*
X058465Y009949D02*
X058976D01*
X05872Y009693D02*
Y010205D01*
X058465Y011917D02*
X058976D01*
X05872Y011661D02*
Y012173D01*
X058819Y020461D02*
X059449D01*
X059134Y020146D02*
Y020776D01*
X053898Y020461D02*
X054528D01*
X054213Y020146D02*
Y020776D01*
X058819Y022429D02*
X059449D01*
X059134Y022114D02*
Y022744D01*
X053898Y022429D02*
X054528D01*
X054213Y022114D02*
Y022744D01*
X05628Y023217D02*
X057067D01*
X056673Y022823D02*
Y02361D01*
X05628Y019673D02*
X057067D01*
X056673Y01928D02*
Y020067D01*
X058819Y02676D02*
X059449D01*
X059134Y026445D02*
Y027075D01*
X053898Y02676D02*
X054528D01*
X054213Y026445D02*
Y027075D01*
X058819Y028728D02*
X059449D01*
X059134Y028413D02*
Y029043D01*
X053898Y028728D02*
X054528D01*
X054213Y028413D02*
Y029043D01*
X05628Y029516D02*
X057067D01*
X056673Y029122D02*
Y029909D01*
X05628Y025972D02*
X057067D01*
X056673Y025579D02*
Y026366D01*
X058819Y033059D02*
X059449D01*
X059134Y032744D02*
Y033374D01*
X053898Y033059D02*
X054528D01*
X054213Y032744D02*
Y033374D01*
X058819Y035028D02*
X059449D01*
X059134Y034713D02*
Y035343D01*
X053898Y035028D02*
X054528D01*
X054213Y034713D02*
Y035343D01*
X05628Y035815D02*
X057067D01*
X056673Y035421D02*
Y036209D01*
X05628Y032272D02*
X057067D01*
X056673Y031878D02*
Y032665D01*
X058819Y039358D02*
X059449D01*
X059134Y039043D02*
Y039673D01*
X053898Y039358D02*
X054528D01*
X054213Y039043D02*
Y039673D01*
X058819Y041327D02*
X059449D01*
X059134Y041012D02*
Y041642D01*
X053898Y041327D02*
X054528D01*
X054213Y041012D02*
Y041642D01*
X05628Y042114D02*
X057067D01*
X056673Y04172D02*
Y042508D01*
X05628Y038571D02*
X057067D01*
X056673Y038177D02*
Y038965D01*
X022913Y011917D02*
X023425D01*
X023169Y011661D02*
Y012173D01*
X022913Y009949D02*
X023425D01*
X023169Y009693D02*
Y010205D01*
X038764Y014665D02*
X039D01*
X038882Y014547D02*
Y014783D01*
X039827Y014665D02*
X040063D01*
X039945Y014547D02*
Y014783D01*
X040862Y014665D02*
X041098D01*
X04098Y014547D02*
Y014783D01*
X04198Y01385D02*
X042217D01*
X042098Y013732D02*
Y013968D01*
X04198Y013154D02*
X042217D01*
X042098Y013035D02*
Y013272D01*
X040962Y030126D02*
X041198D01*
X04108Y030008D02*
Y030244D01*
X038Y030126D02*
X038236D01*
X038118Y030008D02*
Y030244D01*
X038987Y030126D02*
X039223D01*
X039105Y030008D02*
Y030244D01*
X039974Y030126D02*
X040211D01*
X040093Y030008D02*
Y030244D01*
X041949Y030126D02*
X042185D01*
X042067Y030008D02*
Y030244D01*
X030608Y020886D02*
X030923D01*
X030766Y020728D02*
Y021043D01*
X030608Y021886D02*
X030923D01*
X030766Y021728D02*
Y022043D01*
X030608Y022886D02*
X030923D01*
X030766Y022728D02*
Y023043D01*
X030608Y023886D02*
X030923D01*
X030766Y023728D02*
Y024043D01*
X033768Y023886D02*
X034083D01*
X033925Y023728D02*
Y024043D01*
X033768Y022886D02*
X034083D01*
X033925Y022728D02*
Y023043D01*
X033768Y021886D02*
X034083D01*
X033925Y021728D02*
Y022043D01*
X033768Y020886D02*
X034083D01*
X033925Y020728D02*
Y021043D01*
X045858Y041524D02*
X046252D01*
X046055Y041327D02*
Y04172D01*
X044858Y041524D02*
X045252D01*
X045055Y041327D02*
Y04172D01*
X043858Y041524D02*
X044252D01*
X044055Y041327D02*
Y04172D01*
X042858Y041524D02*
X043252D01*
X043055Y041327D02*
Y04172D01*
X041858Y041524D02*
X042252D01*
X042055Y041327D02*
Y04172D01*
X055532Y013807D02*
X055925D01*
X055728Y01361D02*
Y014004D01*
X053563Y013807D02*
X053957D01*
X05376Y01361D02*
Y014004D01*
X032222Y026366D02*
X032502D01*
X032362Y026226D02*
Y026506D01*
X035921Y024555D02*
X036039D01*
X03598Y024496D02*
Y024614D01*
X042055Y011868D02*
X042173D01*
X042114Y011809D02*
Y011927D01*
X059382Y013D02*
X059618D01*
X0595Y012882D02*
Y013118D01*
X058382Y013D02*
X058618D01*
X0585Y012882D02*
Y013118D01*
X057882Y012D02*
X058118D01*
X058Y011882D02*
Y012118D01*
X057382Y01D02*
X057618D01*
X0575Y009882D02*
Y010118D01*
X056382Y01D02*
X056618D01*
X0565Y009882D02*
Y010118D01*
X055382Y01D02*
X055618D01*
X0555Y009882D02*
Y010118D01*
X053882Y013D02*
X054118D01*
X054Y012882D02*
Y013118D01*
X053882Y011D02*
X054118D01*
X054Y010882D02*
Y011118D01*
X054382Y01D02*
X054618D01*
X0545Y009882D02*
Y010118D01*
X053882Y009D02*
X054118D01*
X054Y008882D02*
Y009118D01*
X052882Y009D02*
X053118D01*
X053Y008882D02*
Y009118D01*
X053382Y008D02*
X053618D01*
X0535Y007882D02*
Y008118D01*
X052882Y007D02*
X053118D01*
X053Y006882D02*
Y007118D01*
X051382Y008D02*
X051618D01*
X0515Y007882D02*
Y008118D01*
X049882Y007D02*
X050118D01*
X05Y006882D02*
Y007118D01*
X048382Y008D02*
X048618D01*
X0485Y007882D02*
Y008118D01*
X049882Y012D02*
X050118D01*
X05Y011882D02*
Y012118D01*
X046882Y012D02*
X047118D01*
X047Y011882D02*
Y012118D01*
X045882Y012D02*
X046118D01*
X046Y011882D02*
Y012118D01*
X045382Y013D02*
X045618D01*
X0455Y012882D02*
Y013118D01*
X044882Y012D02*
X045118D01*
X045Y011882D02*
Y012118D01*
X044382Y013D02*
X044618D01*
X0445Y012882D02*
Y013118D01*
X043882Y012D02*
X044118D01*
X044Y011882D02*
Y012118D01*
X044382Y011D02*
X044618D01*
X0445Y010882D02*
Y011118D01*
X043882Y01D02*
X044118D01*
X044Y009882D02*
Y010118D01*
X043382Y011D02*
X043618D01*
X0435Y010882D02*
Y011118D01*
X042882Y01D02*
X043118D01*
X043Y009882D02*
Y010118D01*
X042382Y009D02*
X042618D01*
X0425Y008882D02*
Y009118D01*
X041882Y008D02*
X042118D01*
X042Y007882D02*
Y008118D01*
X041382Y009D02*
X041618D01*
X0415Y008882D02*
Y009118D01*
X040882Y008D02*
X041118D01*
X041Y007882D02*
Y008118D01*
X039882Y008D02*
X040118D01*
X04Y007882D02*
Y008118D01*
X038882Y008D02*
X039118D01*
X039Y007882D02*
Y008118D01*
X041508Y03948D02*
X041626D01*
X041567Y039421D02*
Y039539D01*
X044098Y039398D02*
X044217D01*
X044157Y039339D02*
Y039457D01*
X03726Y037193D02*
X037378D01*
X037319Y037134D02*
Y037252D01*
X043236Y035189D02*
X043354D01*
X043295Y03513D02*
Y035248D01*
X041996Y036539D02*
X042114D01*
X042055Y03648D02*
Y036598D01*
X042469Y038177D02*
X042587D01*
X042528Y038118D02*
Y038236D01*
X041996Y038846D02*
X042114D01*
X042055Y038787D02*
Y038906D01*
X041016Y038839D02*
X041134D01*
X041075Y03878D02*
Y038898D01*
X040031Y038846D02*
X04015D01*
X040091Y038787D02*
Y038906D01*
X05189Y030937D02*
X052008D01*
X051949Y030878D02*
Y030996D01*
X050571Y030937D02*
X050689D01*
X05063Y030878D02*
Y030996D01*
X049252Y030937D02*
X04937D01*
X049311Y030878D02*
Y030996D01*
X05189Y029673D02*
X052008D01*
X051949Y029614D02*
Y029732D01*
X050571Y029673D02*
X050689D01*
X05063Y029614D02*
Y029732D01*
X049252Y029673D02*
X04937D01*
X049311Y029614D02*
Y029732D01*
X039687Y023394D02*
X039805D01*
X039746Y023335D02*
Y023453D01*
X022185Y01802D02*
X022421D01*
X022303Y017902D02*
Y018138D01*
X027933Y023217D02*
X028169D01*
X028051Y023098D02*
Y023335D01*
X02372Y026406D02*
X023957D01*
X023839Y026287D02*
Y026524D01*
X024917Y027272D02*
X025035D01*
X024976Y027213D02*
Y027331D01*
X027933Y021209D02*
X028169D01*
X028051Y021091D02*
Y021327D01*
X026319Y021209D02*
X026555D01*
X026437Y021091D02*
Y021327D01*
X027106Y021209D02*
X027343D01*
X027224Y021091D02*
Y021327D01*
X025992Y01674D02*
X02611D01*
X026051Y016681D02*
Y016799D01*
X026992Y016071D02*
X02711D01*
X027051Y016012D02*
Y01613D01*
X022185Y029476D02*
X022421D01*
X022303Y029358D02*
Y029594D01*
X042087Y01674D02*
X042205D01*
X042146Y016681D02*
Y016799D01*
X043094Y016071D02*
X043213D01*
X043154Y016012D02*
Y01613D01*
X038543Y033512D02*
X038661D01*
X038602Y033453D02*
Y033571D01*
X039518Y033528D02*
X039636D01*
X039577Y033468D02*
Y033587D01*
X040492Y033512D02*
X04061D01*
X040551Y033453D02*
Y033571D01*
X041467Y033528D02*
X041585D01*
X041526Y033468D02*
Y033587D01*
X042441Y033512D02*
X042559D01*
X0425Y033453D02*
Y033571D01*
X037549Y023386D02*
X037667D01*
X037608Y023327D02*
Y023445D01*
X039695Y023886D02*
X039813D01*
X039754Y023827D02*
Y023945D01*
X039695Y02522D02*
X039813D01*
X039754Y025161D02*
Y02528D01*
X044732Y025203D02*
X04485D01*
X044791Y025144D02*
Y025262D01*
X044736Y022886D02*
X044854D01*
X044795Y022827D02*
Y022945D01*
X046024Y025874D02*
X046142D01*
X046083Y025815D02*
Y025933D01*
X035843Y036591D02*
X035961D01*
X035902Y036531D02*
Y03665D01*
X035843Y036197D02*
X035961D01*
X035902Y036138D02*
Y036256D01*
X04165Y023028D02*
X041768D01*
X041709Y022968D02*
Y023087D01*
X040957Y020886D02*
X041075D01*
X041016Y020827D02*
Y020945D01*
X042925Y020886D02*
X043043D01*
X042984Y020827D02*
Y020945D01*
X026992Y01674D02*
X02711D01*
X027051Y016681D02*
Y016799D01*
X032224Y010807D02*
X032461D01*
X032343Y010689D02*
Y010925D01*
X027311Y018146D02*
X027429D01*
X02737Y018087D02*
Y018205D01*
X036114Y020886D02*
X036232D01*
X036173Y020827D02*
Y020945D01*
X049774Y025211D02*
X049892D01*
X049833Y025152D02*
Y02527D01*
X041012Y036543D02*
X04113D01*
X041071Y036484D02*
Y036602D01*
X040028Y036543D02*
X040146D01*
X040087Y036484D02*
Y036602D01*
X037913Y037764D02*
X038031D01*
X037972Y037705D02*
Y037823D01*
X047685Y037583D02*
X047803D01*
X047744Y037524D02*
Y037642D01*
X022272Y035185D02*
X02239D01*
X022331Y035126D02*
Y035244D01*
X02622Y029693D02*
X026339D01*
X02628Y029634D02*
Y029752D01*
X022213Y041878D02*
X022449D01*
X022331Y04176D02*
Y041996D01*
X022213Y037429D02*
X022449D01*
X022331Y037311D02*
Y037547D01*
X027469Y037429D02*
X027705D01*
X027587Y037311D02*
Y037547D01*
X035705Y027398D02*
X035941D01*
X035823Y02728D02*
Y027516D01*
X026461Y042437D02*
X026697D01*
X026579Y042319D02*
Y042555D01*
X03878Y025224D02*
X038898D01*
X038839Y025165D02*
Y025283D01*
X047673Y023878D02*
X047791D01*
X047732Y023819D02*
Y023937D01*
X047656Y023386D02*
X047774D01*
X047715Y023327D02*
Y023445D01*
X039437Y041331D02*
X039555D01*
X039496Y041272D02*
Y04139D01*
X035917Y023886D02*
X036035D01*
X035976Y023827D02*
Y023945D01*
X025441Y018D02*
X025559D01*
X0255Y017941D02*
Y018059D01*
X025441Y03D02*
X025559D01*
X0255Y029941D02*
Y030059D01*
X023941Y033D02*
X024059D01*
X024Y032941D02*
Y033059D01*
X025441Y036D02*
X025559D01*
X0255Y035941D02*
Y036059D01*
X023941Y039D02*
X024059D01*
X024Y038941D02*
Y039059D01*
X026941Y027D02*
X027059D01*
X027Y026941D02*
Y027059D01*
X028441Y03D02*
X028559D01*
X0285Y029941D02*
Y030059D01*
X026941Y033D02*
X027059D01*
X027Y032941D02*
Y033059D01*
X028441Y036D02*
X028559D01*
X0285Y035941D02*
Y036059D01*
X026941Y039D02*
X027059D01*
X027Y038941D02*
Y039059D01*
X031441Y012D02*
X031559D01*
X0315Y011941D02*
Y012059D01*
X029941Y021D02*
X030059D01*
X03Y020941D02*
Y021059D01*
X031441Y024D02*
X031559D01*
X0315Y023941D02*
Y024059D01*
X029941Y027D02*
X030059D01*
X03Y026941D02*
Y027059D01*
X031441Y03D02*
X031559D01*
X0315Y029941D02*
Y030059D01*
X029941Y033D02*
X030059D01*
X03Y032941D02*
Y033059D01*
X031441Y036D02*
X031559D01*
X0315Y035941D02*
Y036059D01*
X029941Y039D02*
X030059D01*
X03Y038941D02*
Y039059D01*
X034441Y018D02*
X034559D01*
X0345Y017941D02*
Y018059D01*
X034441Y024D02*
X034559D01*
X0345Y023941D02*
Y024059D01*
X034441Y03D02*
X034559D01*
X0345Y029941D02*
Y030059D01*
X032941Y033D02*
X033059D01*
X033Y032941D02*
Y033059D01*
X034441Y036D02*
X034559D01*
X0345Y035941D02*
Y036059D01*
X032941Y039D02*
X033059D01*
X033Y038941D02*
Y039059D01*
X037441Y012D02*
X037559D01*
X0375Y011941D02*
Y012059D01*
X035941Y015D02*
X036059D01*
X036Y014941D02*
Y015059D01*
X037441Y018D02*
X037559D01*
X0375Y017941D02*
Y018059D01*
X037441Y03D02*
X037559D01*
X0375Y029941D02*
Y030059D01*
X035941Y033D02*
X036059D01*
X036Y032941D02*
Y033059D01*
X037441Y036D02*
X037559D01*
X0375Y035941D02*
Y036059D01*
X040441Y012D02*
X040559D01*
X0405Y011941D02*
Y012059D01*
X038941Y027D02*
X039059D01*
X039Y026941D02*
Y027059D01*
X041941Y027D02*
X042059D01*
X042Y026941D02*
Y027059D01*
X043441Y03D02*
X043559D01*
X0435Y029941D02*
Y030059D01*
X041941Y033D02*
X042059D01*
X042Y032941D02*
Y033059D01*
X043441Y036D02*
X043559D01*
X0435Y035941D02*
Y036059D01*
X043441Y042D02*
X043559D01*
X0435Y041941D02*
Y042059D01*
X046441Y03D02*
X046559D01*
X0465Y029941D02*
Y030059D01*
X046441Y036D02*
X046559D01*
X0465Y035941D02*
Y036059D01*
X046441Y042D02*
X046559D01*
X0465Y041941D02*
Y042059D01*
X047941Y021D02*
X048059D01*
X048Y020941D02*
Y021059D01*
X047941Y027D02*
X048059D01*
X048Y026941D02*
Y027059D01*
X049441Y036D02*
X049559D01*
X0495Y035941D02*
Y036059D01*
X049441Y042D02*
X049559D01*
X0495Y041941D02*
Y042059D01*
X050941Y021D02*
X051059D01*
X051Y020941D02*
Y021059D01*
X052441Y024D02*
X052559D01*
X0525Y023941D02*
Y024059D01*
X050941Y027D02*
X051059D01*
X051Y026941D02*
Y027059D01*
X052441Y03D02*
X052559D01*
X0525Y029941D02*
Y030059D01*
X050941Y033D02*
X051059D01*
X051Y032941D02*
Y033059D01*
X050941Y039D02*
X051059D01*
X051Y038941D02*
Y039059D01*
X052441Y042D02*
X052559D01*
X0525Y041941D02*
Y042059D01*
X055441Y012D02*
X055559D01*
X0555Y011941D02*
Y012059D01*
X055441Y024D02*
X055559D01*
X0555Y023941D02*
Y024059D01*
X055441Y03D02*
X055559D01*
X0555Y029941D02*
Y030059D01*
X055441Y036D02*
X055559D01*
X0555Y035941D02*
Y036059D01*
X055441Y042D02*
X055559D01*
X0555Y041941D02*
Y042059D01*
X056941Y015D02*
X057059D01*
X057Y014941D02*
Y015059D01*
X058441Y024D02*
X058559D01*
X0585Y023941D02*
Y024059D01*
X056941Y027D02*
X057059D01*
X057Y026941D02*
Y027059D01*
X058441Y03D02*
X058559D01*
X0585Y029941D02*
Y030059D01*
X056941Y033D02*
X057059D01*
X057Y032941D02*
Y033059D01*
X058441Y036D02*
X058559D01*
X0585Y035941D02*
Y036059D01*
X058441Y042D02*
X058559D01*
X0585Y041941D02*
Y042059D01*
X044047Y018602D02*
X044165D01*
X044106Y018543D02*
Y018661D01*
X044035Y019961D02*
X044154D01*
X044094Y019902D02*
Y02002D01*
X044028Y021406D02*
X044146D01*
X044087Y021346D02*
Y021465D01*
X039842Y035146D02*
X039961D01*
X039902Y035087D02*
Y035205D01*
M02*
