G04 Layer_Physical_Order=1*
G04 Layer_Color=255*
%FSTAX24Y24*%
%MOIN*%
G70*
G01*
G75*
%ADD10C,0.0197*%
%ADD11R,0.1063X0.0610*%
%ADD12R,0.0610X0.0394*%
%ADD13R,0.0787X0.0492*%
%ADD14R,0.0630X0.1378*%
%ADD15R,0.1378X0.0630*%
%ADD16R,0.0472X0.0354*%
%ADD17R,0.0885X0.0291*%
%ADD18R,0.0885X0.1319*%
%ADD19R,0.0472X0.0709*%
%ADD20R,0.0472X0.1575*%
%ADD21R,0.0571X0.0236*%
%ADD22R,0.0748X0.2087*%
G04:AMPARAMS|DCode=23|XSize=275.2mil|YSize=393.7mil|CornerRadius=13.8mil|HoleSize=0mil|Usage=FLASHONLY|Rotation=180.000|XOffset=0mil|YOffset=0mil|HoleType=Round|Shape=RoundedRectangle|*
%AMROUNDEDRECTD23*
21,1,0.2752,0.3662,0,0,180.0*
21,1,0.2477,0.3937,0,0,180.0*
1,1,0.0275,-0.1238,0.1831*
1,1,0.0275,0.1238,0.1831*
1,1,0.0275,0.1238,-0.1831*
1,1,0.0275,-0.1238,-0.1831*
%
%ADD23ROUNDEDRECTD23*%
G04:AMPARAMS|DCode=24|XSize=85mil|YSize=42.1mil|CornerRadius=4.2mil|HoleSize=0mil|Usage=FLASHONLY|Rotation=0.000|XOffset=0mil|YOffset=0mil|HoleType=Round|Shape=RoundedRectangle|*
%AMROUNDEDRECTD24*
21,1,0.0850,0.0337,0,0,0.0*
21,1,0.0766,0.0421,0,0,0.0*
1,1,0.0084,0.0383,-0.0169*
1,1,0.0084,-0.0383,-0.0169*
1,1,0.0084,-0.0383,0.0169*
1,1,0.0084,0.0383,0.0169*
%
%ADD24ROUNDEDRECTD24*%
%ADD25O,0.0118X0.0709*%
%ADD26O,0.0709X0.0118*%
%ADD27C,0.0098*%
%ADD28C,0.0394*%
%ADD29C,0.0591*%
%ADD30C,0.0421*%
%ADD31C,0.0291*%
%ADD32C,0.0591*%
%ADD33C,0.0630*%
%ADD34C,0.1181*%
%ADD35C,0.0512*%
%ADD36C,0.1417*%
%ADD37C,0.0787*%
%ADD38C,0.1378*%
%ADD39C,0.1024*%
%ADD40C,0.0984*%
%ADD41C,0.0433*%
%ADD42C,0.0394*%
%ADD43C,0.0500*%
%ADD44C,0.0236*%
G36*
X039626Y033767D02*
X039628Y03375D01*
X03963Y033735D01*
X039634Y033722D01*
X039638Y033711D01*
X039644Y033703D01*
X03965Y033696D01*
X039657Y033691D01*
X039666Y033688D01*
X039675Y033687D01*
X039627D01*
X039627Y033682D01*
X039629Y033672D01*
X039631Y033661D01*
X039634Y033652D01*
X039638Y033643D01*
X039642Y033634D01*
X039647Y033626D01*
X039653Y033619D01*
X039659Y033612D01*
X039494D01*
X0395Y033619D01*
X039506Y033626D01*
X039511Y033634D01*
X039516Y033643D01*
X039519Y033652D01*
X039522Y033661D01*
X039525Y033672D01*
X039526Y033682D01*
X039527Y033687D01*
X039478D01*
X039488Y033688D01*
X039496Y033691D01*
X039503Y033696D01*
X03951Y033703D01*
X039515Y033711D01*
X03952Y033722D01*
X039523Y033735D01*
X039526Y03375D01*
X039527Y033767D01*
X039528Y033786D01*
X039626D01*
X039626Y033767D01*
D02*
G37*
G36*
X043211Y035106D02*
X043204Y035113D01*
X043197Y035118D01*
X043189Y035123D01*
X04318Y035128D01*
X043171Y035131D01*
X043161Y035134D01*
X043151Y035137D01*
X04314Y035138D01*
X043129Y035139D01*
X043117Y03514D01*
Y035238D01*
X043129Y035239D01*
X04314Y03524D01*
X043151Y035241D01*
X043161Y035244D01*
X043171Y035247D01*
X04318Y03525D01*
X043189Y035255D01*
X043197Y03526D01*
X043204Y035265D01*
X043211Y035272D01*
Y035106D01*
D02*
G37*
G36*
X04255Y033767D02*
X042551Y03375D01*
X042554Y033735D01*
X042557Y033722D01*
X042562Y033711D01*
X042567Y033703D01*
X042573Y033696D01*
X042581Y033691D01*
X042589Y033688D01*
X042598Y033687D01*
X042549D01*
X04255Y033678D01*
X042551Y033667D01*
X042552Y033656D01*
X042555Y033646D01*
X042558Y033636D01*
X042561Y033627D01*
X042566Y033618D01*
X042571Y03361D01*
X042576Y033603D01*
X042583Y033596D01*
X042417D01*
X042424Y033603D01*
X042429Y03361D01*
X042434Y033618D01*
X042439Y033627D01*
X042442Y033636D01*
X042445Y033646D01*
X042448Y033656D01*
X042449Y033667D01*
X04245Y033678D01*
X042451Y033687D01*
X042402D01*
X042411Y033688D01*
X042419Y033691D01*
X042427Y033696D01*
X042433Y033703D01*
X042438Y033711D01*
X042443Y033722D01*
X042446Y033735D01*
X042449Y03375D01*
X04245Y033767D01*
X042451Y033786D01*
X042549D01*
X04255Y033767D01*
D02*
G37*
G36*
X041575Y033767D02*
X041577Y03375D01*
X041579Y033735D01*
X041583Y033722D01*
X041587Y033711D01*
X041592Y033702D01*
X041599Y033695D01*
X041606Y033691D01*
X041614Y033688D01*
X041623Y033687D01*
X041576D01*
X041576Y033682D01*
X041578Y033672D01*
X04158Y033661D01*
X041583Y033652D01*
X041587Y033643D01*
X041591Y033634D01*
X041596Y033626D01*
X041602Y033619D01*
X041608Y033612D01*
X041443Y033612D01*
X041449Y033619D01*
X041455Y033626D01*
X04146Y033634D01*
X041464Y033643D01*
X041468Y033652D01*
X041471Y033661D01*
X041473Y033672D01*
X041475Y033682D01*
X041475Y033687D01*
X041428D01*
X041437Y033688D01*
X041445Y033691D01*
X041453Y033695D01*
X041459Y033702D01*
X041464Y033711D01*
X041469Y033722D01*
X041472Y033735D01*
X041474Y03375D01*
X041476Y033767D01*
X041476Y033785D01*
X041575D01*
X041575Y033767D01*
D02*
G37*
G36*
X040231Y035377D02*
X04023Y035372D01*
X040229Y035366D01*
X040228Y035348D01*
X040226Y035273D01*
X040128D01*
X040123Y035379D01*
X040232D01*
X040231Y035377D01*
D02*
G37*
G36*
X040428D02*
X040427Y035372D01*
X040426Y035366D01*
X040425Y035348D01*
X040423Y035273D01*
X040325D01*
X04032Y035379D01*
X040429D01*
X040428Y035377D01*
D02*
G37*
G36*
X039848Y035305D02*
X039865Y03529D01*
X039873Y035284D01*
X039882Y035279D01*
X039891Y035274D01*
X039899Y03527D01*
X039908Y035266D01*
X039917Y035263D01*
X039925Y035261D01*
X039786Y035172D01*
X039788Y035181D01*
X039788Y03519D01*
X039788Y035199D01*
X039786Y035207D01*
X039783Y035216D01*
X039779Y035225D01*
X039774Y035234D01*
X039768Y035243D01*
X039761Y035252D01*
X039753Y03526D01*
X039839Y035313D01*
X039848Y035305D01*
D02*
G37*
G36*
X03964Y035377D02*
X039639Y035372D01*
X039638Y035366D01*
X039637Y035348D01*
X039636Y035273D01*
X039537D01*
X039532Y035379D01*
X039641D01*
X03964Y035377D01*
D02*
G37*
G36*
X0406Y03373D02*
X040603Y033687D01*
X040604Y033687D01*
X0406D01*
X040601Y033678D01*
X040602Y033667D01*
X040603Y033656D01*
X040606Y033646D01*
X040609Y033636D01*
X040612Y033627D01*
X040617Y033618D01*
X040622Y03361D01*
X040627Y033603D01*
X040634Y033596D01*
X040469D01*
X040475Y033603D01*
X040481Y03361D01*
X040486Y033618D01*
X04049Y033627D01*
X040494Y033636D01*
X040497Y033646D01*
X040499Y033656D01*
X040501Y033667D01*
X040502Y033678D01*
X040502Y033687D01*
X040499D01*
X040499Y033687D01*
X0405Y033689D01*
X0405Y033691D01*
X040501Y033695D01*
X040502Y033713D01*
X040502Y03374D01*
X0406D01*
X0406Y03373D01*
D02*
G37*
G36*
X040729Y032666D02*
X040713Y03266D01*
X040698Y03265D01*
X040685Y032636D01*
X040674Y032618D01*
X040665Y032596D01*
X040658Y032571D01*
X040654Y032541D01*
X040651Y032507D01*
X04065Y03247D01*
X040453D01*
X040452Y032507D01*
X040449Y032541D01*
X040444Y032571D01*
X040437Y032596D01*
X040428Y032618D01*
X040417Y032636D01*
X040405Y03265D01*
X04039Y03266D01*
X040373Y032666D01*
X040354Y032668D01*
X040748D01*
X040729Y032666D01*
D02*
G37*
G36*
X041704D02*
X041687Y03266D01*
X041672Y03265D01*
X041659Y032636D01*
X041649Y032618D01*
X04164Y032596D01*
X041633Y032571D01*
X041628Y032541D01*
X041625Y032507D01*
X041624Y03247D01*
X041427D01*
X041426Y032507D01*
X041423Y032541D01*
X041418Y032571D01*
X041411Y032596D01*
X041403Y032618D01*
X041392Y032636D01*
X041379Y03265D01*
X041364Y03266D01*
X041347Y032666D01*
X041329Y032668D01*
X041722D01*
X041704Y032666D01*
D02*
G37*
G36*
X038781D02*
X038764Y03266D01*
X038749Y03265D01*
X038736Y032636D01*
X038725Y032618D01*
X038717Y032596D01*
X03871Y032571D01*
X038705Y032541D01*
X038702Y032507D01*
X038701Y03247D01*
X038504D01*
X038503Y032507D01*
X0385Y032541D01*
X038495Y032571D01*
X038488Y032596D01*
X038479Y032618D01*
X038469Y032636D01*
X038456Y03265D01*
X038441Y03266D01*
X038424Y032666D01*
X038406Y032668D01*
X038799D01*
X038781Y032666D01*
D02*
G37*
G36*
X039755D02*
X039738Y03266D01*
X039723Y03265D01*
X039711Y032636D01*
X0397Y032618D01*
X039691Y032596D01*
X039684Y032571D01*
X039679Y032541D01*
X039676Y032507D01*
X039675Y03247D01*
X039478D01*
X039477Y032507D01*
X039474Y032541D01*
X039469Y032571D01*
X039463Y032596D01*
X039454Y032618D01*
X039443Y032636D01*
X03943Y03265D01*
X039415Y03266D01*
X039399Y032666D01*
X03938Y032668D01*
X039774D01*
X039755Y032666D01*
D02*
G37*
G36*
X053716Y03363D02*
X053746Y033612D01*
X053782Y033597D01*
X053824Y033584D01*
X053872Y033574D01*
X053927Y033565D01*
X054055Y033554D01*
X054128Y033551D01*
X054208Y033551D01*
X05372Y033064D01*
X05372Y033144D01*
X053707Y033345D01*
X053698Y0334D01*
X053687Y033448D01*
X053674Y03349D01*
X053659Y033526D01*
X053642Y033556D01*
X053623Y033579D01*
X053692Y033649D01*
X053716Y03363D01*
D02*
G37*
G36*
X038652Y033767D02*
X038654Y03375D01*
X038656Y033735D01*
X038659Y033722D01*
X038664Y033711D01*
X038669Y033703D01*
X038676Y033696D01*
X038683Y033691D01*
X038691Y033688D01*
X038701Y033687D01*
X038652D01*
X038652Y033678D01*
X038653Y033667D01*
X038655Y033656D01*
X038657Y033646D01*
X03866Y033636D01*
X038664Y033627D01*
X038668Y033618D01*
X038673Y03361D01*
X038679Y033603D01*
X038685Y033596D01*
X03852D01*
X038526Y033603D01*
X038532Y03361D01*
X038537Y033618D01*
X038541Y033627D01*
X038545Y033636D01*
X038548Y033646D01*
X03855Y033656D01*
X038552Y033667D01*
X038553Y033678D01*
X038553Y033687D01*
X038504D01*
X038513Y033688D01*
X038522Y033691D01*
X038529Y033696D01*
X038535Y033703D01*
X038541Y033711D01*
X038545Y033722D01*
X038549Y033735D01*
X038551Y03375D01*
X038553Y033767D01*
X038553Y033786D01*
X038652D01*
X038652Y033767D01*
D02*
G37*
G36*
X042678Y032666D02*
X042661Y03266D01*
X042647Y03265D01*
X042634Y032636D01*
X042623Y032618D01*
X042614Y032596D01*
X042607Y032571D01*
X042602Y032541D01*
X042599Y032507D01*
X042598Y03247D01*
X042402D01*
X042401Y032507D01*
X042398Y032541D01*
X042393Y032571D01*
X042386Y032596D01*
X042377Y032618D01*
X042366Y032636D01*
X042353Y03265D01*
X042339Y03266D01*
X042322Y032666D01*
X042303Y032668D01*
X042697D01*
X042678Y032666D01*
D02*
G37*
G36*
X042886Y036156D02*
X042953Y036147D01*
X043543D01*
X043566Y03615D01*
X043566Y03615D01*
X043567Y036151D01*
X043572Y036151D01*
X043576Y036151D01*
X043658Y036155D01*
X048216D01*
X048238Y03611D01*
X048195Y036053D01*
X048143Y035929D01*
X048126Y035795D01*
X048143Y035662D01*
X048195Y035537D01*
X048277Y03543D01*
X048384Y035348D01*
X048508Y035297D01*
X048642Y035279D01*
X048775Y035297D01*
X0489Y035348D01*
X049007Y03543D01*
X049089Y035537D01*
X04914Y035662D01*
X049158Y035795D01*
X04914Y035929D01*
X049089Y036053D01*
X049046Y03611D01*
X049068Y036155D01*
X051535D01*
X05254Y035149D01*
Y033805D01*
X05256Y033709D01*
X052614Y033627D01*
X052879Y033362D01*
Y032571D01*
X052829Y032569D01*
X052822Y032642D01*
X052771Y032809D01*
X052689Y032963D01*
X052578Y033098D01*
X052443Y033209D01*
X052289Y033291D01*
X052122Y033342D01*
X051949Y033359D01*
X051775Y033342D01*
X051608Y033291D01*
X051454Y033209D01*
X051319Y033098D01*
X051209Y032963D01*
X051126Y032809D01*
X051076Y032642D01*
X051059Y032469D01*
X051076Y032295D01*
X051126Y032128D01*
X051209Y031974D01*
X051319Y031839D01*
X051361Y031805D01*
X051343Y031755D01*
X049462D01*
X046138Y035079D01*
X046057Y035133D01*
X045961Y035152D01*
X043645D01*
X043613Y035189D01*
X043602Y035271D01*
X04357Y035348D01*
X04352Y035414D01*
X043454Y035464D01*
X043377Y035496D01*
X043295Y035507D01*
X043213Y035496D01*
X043136Y035464D01*
X043105Y03544D01*
X042797D01*
Y035992D01*
X042795Y036015D01*
X042795Y036015D01*
X042794Y036016D01*
X042794Y036021D01*
X042794Y036025D01*
X04279Y036107D01*
Y03615D01*
X04284Y036175D01*
X042886Y036156D01*
D02*
G37*
G36*
X040624Y035377D02*
X040623Y035372D01*
X040623Y035366D01*
X040621Y035348D01*
X04062Y035273D01*
X040522D01*
X040516Y035379D01*
X040625D01*
X040624Y035377D01*
D02*
G37*
G36*
X042146Y036616D02*
X042154Y03661D01*
X042162Y036605D01*
X04217Y036601D01*
X042179Y036597D01*
X042189Y036594D01*
X042199Y036592D01*
X04221Y03659D01*
X042221Y036589D01*
X042233Y036589D01*
Y03649D01*
X042221Y03649D01*
X04221Y036489D01*
X042199Y036487D01*
X042189Y036485D01*
X042179Y036482D01*
X04217Y036478D01*
X042162Y036474D01*
X042154Y036469D01*
X042146Y036463D01*
X042139Y036457D01*
Y036622D01*
X042146Y036616D01*
D02*
G37*
G36*
X035985Y036676D02*
X035992Y036671D01*
X036001Y036666D01*
X03601Y036662D01*
X036019Y036659D01*
X036029Y036656D01*
X036039Y036654D01*
X03605Y036653D01*
X036062Y036652D01*
X036074Y036652D01*
X036084Y036553D01*
X036072Y036553D01*
X036061Y036552D01*
X03605Y03655D01*
X03604Y036547D01*
X036031Y036544D01*
X036022Y03654D01*
X036014Y036535D01*
X036007Y03653D01*
X036Y036524D01*
X035994Y036517D01*
X035977Y036681D01*
X035985Y036676D01*
D02*
G37*
G36*
X043568Y036459D02*
X043573Y036458D01*
X043579Y036457D01*
X043596Y036456D01*
X043672Y036455D01*
Y036356D01*
X043566Y036351D01*
Y03646D01*
X043568Y036459D01*
D02*
G37*
G36*
X041147Y036452D02*
X041142Y036445D01*
X041136Y036437D01*
X041132Y036428D01*
X041128Y036419D01*
X041125Y036409D01*
X041123Y036399D01*
X041121Y036388D01*
X04112Y036377D01*
X04112Y036365D01*
X041022D01*
X041021Y036377D01*
X04102Y036388D01*
X041019Y036399D01*
X041016Y036409D01*
X041013Y036419D01*
X04101Y036428D01*
X041005Y036437D01*
X041Y036445D01*
X040995Y036452D01*
X040988Y036459D01*
X041154D01*
X041147Y036452D01*
D02*
G37*
G36*
X040136Y03671D02*
X040137Y036698D01*
X040139Y036687D01*
X040141Y036677D01*
X040144Y036668D01*
X040148Y036658D01*
X040152Y03665D01*
X040157Y036642D01*
X040163Y036635D01*
X040169Y036628D01*
X040004D01*
X04001Y036635D01*
X040016Y036642D01*
X040021Y03665D01*
X040025Y036658D01*
X040029Y036668D01*
X040032Y036677D01*
X040034Y036687D01*
X040036Y036698D01*
X040037Y03671D01*
X040037Y036722D01*
X040136D01*
X040136Y03671D01*
D02*
G37*
G36*
X043568Y036853D02*
X043573Y036852D01*
X043579Y036851D01*
X043596Y03685D01*
X043672Y036848D01*
Y03675D01*
X043566Y036745D01*
Y036854D01*
X043568Y036853D01*
D02*
G37*
G36*
X03856Y036548D02*
X038558Y036549D01*
X038553Y03655D01*
X038547Y036551D01*
X03853Y036552D01*
X038454Y036553D01*
Y036652D01*
X03856Y036657D01*
Y036548D01*
D02*
G37*
G36*
X043568Y036656D02*
X043573Y036655D01*
X043579Y036654D01*
X043596Y036653D01*
X043672Y036652D01*
Y036553D01*
X043566Y036548D01*
Y036657D01*
X043568Y036656D01*
D02*
G37*
G36*
X03856Y036351D02*
X038558Y036352D01*
X038553Y036353D01*
X038547Y036354D01*
X03853Y036355D01*
X038454Y036356D01*
Y036455D01*
X03856Y03646D01*
Y036351D01*
D02*
G37*
G36*
X041215Y035377D02*
X041214Y035372D01*
X041213Y035366D01*
X041212Y035348D01*
X041211Y035273D01*
X041112D01*
X041107Y035379D01*
X041216D01*
X041215Y035377D01*
D02*
G37*
G36*
X041412D02*
X041411Y035372D01*
X04141Y035366D01*
X041409Y035348D01*
X041407Y035273D01*
X041309D01*
X041304Y035379D01*
X041413D01*
X041412Y035377D01*
D02*
G37*
G36*
X040821D02*
X04082Y035372D01*
X04082Y035366D01*
X040818Y035348D01*
X040817Y035273D01*
X040718D01*
X040713Y035379D01*
X040822D01*
X040821Y035377D01*
D02*
G37*
G36*
X041018D02*
X041017Y035372D01*
X041016Y035366D01*
X041015Y035348D01*
X041014Y035273D01*
X040915D01*
X04091Y035379D01*
X041019D01*
X041018Y035377D01*
D02*
G37*
G36*
X042594Y036015D02*
X042485D01*
X042486Y036017D01*
X042487Y036021D01*
X042488Y036028D01*
X042489Y036045D01*
X04249Y036121D01*
X042589D01*
X042594Y036015D01*
D02*
G37*
G36*
X036068Y036266D02*
X03606Y036258D01*
X036046Y03624D01*
X03604Y036232D01*
X036034Y036223D01*
X03603Y036214D01*
X036026Y036205D01*
X036023Y036196D01*
X03602Y036187D01*
X036018Y036179D01*
X035922Y036313D01*
X035931Y036312D01*
X03594Y036312D01*
X035949Y036313D01*
X035958Y036315D01*
X035967Y036318D01*
X035976Y036322D01*
X035985Y036327D01*
X035994Y036333D01*
X036003Y036341D01*
X036011Y036349D01*
X036068Y036266D01*
D02*
G37*
G36*
X042396Y035377D02*
X042395Y035372D01*
X042394Y035366D01*
X042393Y035348D01*
X042392Y035273D01*
X042293D01*
X042288Y035379D01*
X042397D01*
X042396Y035377D01*
D02*
G37*
G36*
X040035Y036015D02*
X039926D01*
X039927Y036017D01*
X039928Y036021D01*
X039929Y036028D01*
X03993Y036045D01*
X039931Y036121D01*
X04003D01*
X040035Y036015D01*
D02*
G37*
G36*
X042826Y024268D02*
X042809Y024262D01*
X042794Y024252D01*
X042782Y024238D01*
X042771Y024221D01*
X042762Y024199D01*
X042755Y024173D01*
X04275Y024143D01*
X042749Y024136D01*
X04275Y024128D01*
X042755Y024099D01*
X042762Y024073D01*
X042771Y024051D01*
X042782Y024033D01*
X042794Y024019D01*
X042809Y024009D01*
X042826Y024004D01*
X042844Y024002D01*
X042451D01*
X042469Y024004D01*
X042486Y024009D01*
X042501Y024019D01*
X042514Y024033D01*
X042525Y024051D01*
X042533Y024073D01*
X04254Y024099D01*
X042545Y024128D01*
X042546Y024136D01*
X042545Y024143D01*
X04254Y024173D01*
X042533Y024199D01*
X042525Y024221D01*
X042514Y024238D01*
X042501Y024252D01*
X042486Y024262D01*
X042469Y024268D01*
X042451Y02427D01*
X042844D01*
X042826Y024268D01*
D02*
G37*
G36*
X04743Y024269D02*
X047428Y024272D01*
X047422Y024276D01*
X047413Y024278D01*
X047399Y024281D01*
X047381Y024283D01*
X047304Y024287D01*
X047233Y024287D01*
Y024484D01*
X047271Y024484D01*
X047413Y024493D01*
X047422Y024496D01*
X047428Y024499D01*
X04743Y024503D01*
Y024269D01*
D02*
G37*
G36*
X04004Y023999D02*
X040046Y023996D01*
X040056Y023993D01*
X04007Y023991D01*
X040087Y023989D01*
X040164Y023985D01*
X040235Y023984D01*
Y023787D01*
X040198Y023787D01*
X040056Y023778D01*
X040046Y023776D01*
X04004Y023772D01*
X040038Y023769D01*
Y024003D01*
X04004Y023999D01*
D02*
G37*
G36*
X044511Y023769D02*
X044509Y023772D01*
X044503Y023776D01*
X044493Y023778D01*
X04448Y023781D01*
X044462Y023783D01*
X044385Y023787D01*
X044314Y023787D01*
Y023984D01*
X044352Y023984D01*
X044493Y023993D01*
X044503Y023996D01*
X044509Y023999D01*
X044511Y024003D01*
Y023769D01*
D02*
G37*
G36*
X039855Y024662D02*
X039858Y024628D01*
X039863Y024599D01*
X03987Y024573D01*
X039879Y024551D01*
X03989Y024533D01*
X039903Y024519D01*
X039917Y024509D01*
X039934Y024504D01*
X039953Y024502D01*
X039559D01*
X039578Y024504D01*
X039594Y024509D01*
X039609Y024519D01*
X039622Y024533D01*
X039633Y024551D01*
X039642Y024573D01*
X039649Y024599D01*
X039654Y024628D01*
X039657Y024662D01*
X039657Y0247D01*
X039854D01*
X039855Y024662D01*
D02*
G37*
G36*
X042749D02*
X042752Y024628D01*
X042757Y024599D01*
X042764Y024573D01*
X042773Y024551D01*
X042783Y024533D01*
X042796Y024519D01*
X042811Y024509D01*
X042828Y024504D01*
X042846Y024502D01*
X042453D01*
X042471Y024504D01*
X042488Y024509D01*
X042503Y024519D01*
X042516Y024533D01*
X042527Y024551D01*
X042535Y024573D01*
X042542Y024599D01*
X042547Y024628D01*
X04255Y024662D01*
X042551Y0247D01*
X042748D01*
X042749Y024662D01*
D02*
G37*
G36*
X037324Y024269D02*
X037322Y024272D01*
X037316Y024276D01*
X037306Y024278D01*
X037293Y024281D01*
X037275Y024283D01*
X037198Y024287D01*
X037127Y024287D01*
Y024484D01*
X037165Y024484D01*
X037306Y024493D01*
X037316Y024496D01*
X037322Y024499D01*
X037324Y024503D01*
Y024269D01*
D02*
G37*
G36*
X037708Y024662D02*
X037711Y024628D01*
X037716Y024599D01*
X037722Y024573D01*
X037731Y024551D01*
X037742Y024533D01*
X037755Y024519D01*
X03777Y024509D01*
X037786Y024504D01*
X037805Y024502D01*
X037411D01*
X03743Y024504D01*
X037447Y024509D01*
X037462Y024519D01*
X037474Y024533D01*
X037485Y024551D01*
X037494Y024573D01*
X037501Y024599D01*
X037506Y024628D01*
X037509Y024662D01*
X03751Y0247D01*
X037707D01*
X037708Y024662D01*
D02*
G37*
G36*
X037894Y023999D02*
X0379Y023996D01*
X03791Y023993D01*
X037924Y023991D01*
X037942Y023989D01*
X038018Y023985D01*
X038089Y023984D01*
Y023787D01*
X038052Y023787D01*
X03791Y023778D01*
X0379Y023776D01*
X037894Y023772D01*
X037892Y023769D01*
Y024003D01*
X037894Y023999D01*
D02*
G37*
G36*
X042246Y015226D02*
X042251Y015193D01*
X04226Y01516D01*
X042266Y015146D01*
X0425D01*
X042697Y014949D01*
Y01302D01*
X0425Y012823D01*
X041673D01*
X041516Y01298D01*
Y013965D01*
X041516D01*
X041319Y014161D01*
X038563D01*
X038366Y014358D01*
Y014949D01*
X038563Y015146D01*
X042027D01*
X042032Y015157D01*
X04204Y01519D01*
X042045Y015223D01*
X042047Y015255D01*
X042244Y015259D01*
X042246Y015226D01*
D02*
G37*
G36*
X053716Y021031D02*
X053746Y021014D01*
X053782Y020999D01*
X053824Y020986D01*
X053872Y020975D01*
X053927Y020966D01*
X054055Y020955D01*
X054128Y020953D01*
X054208Y020953D01*
X05372Y020466D01*
X05372Y020545D01*
X053707Y020746D01*
X053698Y020801D01*
X053687Y02085D01*
X053674Y020892D01*
X053659Y020928D01*
X053642Y020957D01*
X053623Y020981D01*
X053692Y02105D01*
X053716Y021031D01*
D02*
G37*
G36*
X054547Y014122D02*
Y010697D01*
X054705Y010539D01*
X058957D01*
X059232Y010264D01*
Y009634D01*
X058799Y009201D01*
X054705D01*
X054547Y009043D01*
Y007587D01*
X053681Y00672D01*
X047579D01*
X047421Y006878D01*
Y008453D01*
X047815Y008846D01*
X052146D01*
X053327Y010028D01*
Y014201D01*
X053484Y014358D01*
X054311D01*
X054547Y014122D01*
D02*
G37*
G36*
X060374Y015303D02*
Y011799D01*
X059783Y011209D01*
X058091D01*
X057579Y01172D01*
Y012626D01*
X058248Y013295D01*
X05872D01*
X059035Y01361D01*
Y015382D01*
X059232Y015579D01*
X060098D01*
X060374Y015303D01*
D02*
G37*
G36*
X044971Y023768D02*
X044955Y023762D01*
X04494Y023752D01*
X044927Y023738D01*
X044916Y023721D01*
X044907Y023699D01*
X044901Y023673D01*
X044896Y023643D01*
X044895Y023636D01*
X044896Y023628D01*
X044901Y023599D01*
X044907Y023573D01*
X044916Y023551D01*
X044927Y023533D01*
X04494Y023519D01*
X044955Y023509D01*
X044971Y023504D01*
X04499Y023502D01*
X044596D01*
X044615Y023504D01*
X044632Y023509D01*
X044647Y023519D01*
X044659Y023533D01*
X04467Y023551D01*
X044679Y023573D01*
X044686Y023599D01*
X044691Y023628D01*
X044692Y023636D01*
X044691Y023643D01*
X044686Y023673D01*
X044679Y023699D01*
X04467Y023721D01*
X044659Y023738D01*
X044647Y023752D01*
X044632Y023762D01*
X044615Y023768D01*
X044596Y02377D01*
X04499D01*
X044971Y023768D01*
D02*
G37*
G36*
X037324Y023769D02*
X037322Y023772D01*
X037316Y023776D01*
X037306Y023778D01*
X037293Y023781D01*
X037275Y023783D01*
X037198Y023787D01*
X037127Y023787D01*
Y023984D01*
X037165Y023984D01*
X037306Y023993D01*
X037316Y023996D01*
X037322Y023999D01*
X037324Y024003D01*
Y023769D01*
D02*
G37*
G36*
X04004Y022999D02*
X040046Y022996D01*
X040056Y022993D01*
X04007Y022991D01*
X040087Y022989D01*
X040164Y022985D01*
X040235Y022984D01*
Y022787D01*
X040198Y022787D01*
X040056Y022778D01*
X040046Y022776D01*
X04004Y022772D01*
X040038Y022769D01*
Y023003D01*
X04004Y022999D01*
D02*
G37*
G36*
X042365Y023269D02*
X042363Y023272D01*
X042358Y023276D01*
X042348Y023278D01*
X042334Y023281D01*
X042316Y023283D01*
X042239Y023287D01*
X042169Y023287D01*
Y023484D01*
X042206Y023484D01*
X042348Y023493D01*
X042358Y023496D01*
X042363Y023499D01*
X042365Y023503D01*
Y023269D01*
D02*
G37*
G36*
X044891Y024662D02*
X044894Y024628D01*
X044899Y024599D01*
X044906Y024573D01*
X044914Y024551D01*
X044925Y024533D01*
X044938Y024519D01*
X044953Y024509D01*
X044969Y024504D01*
X044988Y024502D01*
X044594D01*
X044613Y024504D01*
X04463Y024509D01*
X044645Y024519D01*
X044657Y024533D01*
X044668Y024551D01*
X044677Y024573D01*
X044684Y024599D01*
X044689Y024628D01*
X044692Y024662D01*
X044693Y0247D01*
X04489D01*
X044891Y024662D01*
D02*
G37*
G36*
X040123Y034612D02*
Y033917D01*
X040127Y033897D01*
X040118Y033886D01*
X040118D01*
Y033138D01*
Y032469D01*
X040252D01*
X040252Y032464D01*
X040253Y032459D01*
Y030531D01*
X040212Y030503D01*
X040195Y03051D01*
X040093Y030523D01*
X03999Y03051D01*
X039925Y030483D01*
X039875Y030516D01*
Y032459D01*
X039876Y032464D01*
X039876Y032469D01*
X04001D01*
Y033138D01*
Y033886D01*
X039828D01*
Y034382D01*
X040077Y034632D01*
X040123Y034612D01*
D02*
G37*
G36*
X041093Y033864D02*
Y033138D01*
Y032469D01*
X041226D01*
X041227Y032464D01*
X041228Y032459D01*
Y030536D01*
X041194Y030513D01*
X041178Y03051D01*
X04108Y030523D01*
X040977Y03051D01*
X040899Y030477D01*
X040849Y030503D01*
Y032459D01*
X04085Y032464D01*
X04085Y032469D01*
X040984D01*
Y033138D01*
Y033886D01*
X04075D01*
X040729Y033918D01*
X040625Y034021D01*
Y034266D01*
X040671Y034285D01*
X041093Y033864D01*
D02*
G37*
G36*
X042216Y030256D02*
X042226Y03025D01*
X042237Y030244D01*
X04225Y030239D01*
X042264Y030234D01*
X042279Y030231D01*
X042296Y030228D01*
X042315Y030226D01*
X042356Y030224D01*
Y030028D01*
X042334Y030027D01*
X042296Y030024D01*
X042279Y030021D01*
X042264Y030018D01*
X04225Y030013D01*
X042237Y030008D01*
X042226Y030002D01*
X042216Y029996D01*
X042208Y029988D01*
Y030264D01*
X042216Y030256D01*
D02*
G37*
G36*
X039326Y03444D02*
Y033886D01*
X039144D01*
Y033138D01*
Y032469D01*
X039278D01*
X039278Y032464D01*
X039279Y032459D01*
Y030525D01*
X039237Y030497D01*
X039208Y03051D01*
X039105Y030523D01*
X039003Y03051D01*
X03895Y030488D01*
X0389Y030521D01*
Y032459D01*
X038901Y032464D01*
X038902Y032469D01*
X039035D01*
Y033138D01*
Y033886D01*
X038853D01*
Y034038D01*
X039276Y03446D01*
X039326Y03444D01*
D02*
G37*
G36*
X051866Y03109D02*
X051875Y031082D01*
X051884Y031076D01*
X051893Y03107D01*
X051902Y031066D01*
X051911Y031062D01*
X05192Y031059D01*
X051929Y031057D01*
X051938Y031055D01*
X051948Y031055D01*
X051831Y030938D01*
X05183Y030947D01*
X051829Y030957D01*
X051827Y030966D01*
X051824Y030975D01*
X05182Y030984D01*
X051816Y030993D01*
X05181Y031002D01*
X051803Y031011D01*
X051796Y03102D01*
X051788Y031028D01*
X051858Y031098D01*
X051866Y03109D01*
D02*
G37*
G36*
X049244Y031094D02*
X049261Y03108D01*
X04927Y031074D01*
X049279Y031069D01*
X049288Y031064D01*
X049297Y031061D01*
X049306Y031058D01*
X049315Y031056D01*
X049324Y031054D01*
X049194Y030952D01*
X049195Y030961D01*
X049194Y03097D01*
X049193Y03098D01*
X049191Y030989D01*
X049187Y030998D01*
X049183Y031007D01*
X049178Y031015D01*
X049172Y031024D01*
X049164Y031033D01*
X049156Y031042D01*
X049235Y031102D01*
X049244Y031094D01*
D02*
G37*
G36*
X042083Y033924D02*
X042067Y033886D01*
X042067D01*
Y033138D01*
Y032469D01*
X042201D01*
X042201Y032464D01*
X042202Y032459D01*
Y030544D01*
X042152Y030512D01*
X042067Y030523D01*
X041964Y03051D01*
X041873Y030472D01*
X041836Y030485D01*
X041823Y030492D01*
Y032459D01*
X041825Y032464D01*
X041825Y032469D01*
X041959D01*
Y033138D01*
Y033886D01*
X041764D01*
X041737Y033928D01*
X041759Y03397D01*
X042038D01*
X042083Y033924D01*
D02*
G37*
G36*
X050547Y03109D02*
X050556Y031082D01*
X050565Y031076D01*
X050574Y03107D01*
X050583Y031066D01*
X050592Y031062D01*
X050601Y031059D01*
X05061Y031057D01*
X050619Y031055D01*
X050629Y031055D01*
X050512Y030938D01*
X050511Y030947D01*
X05051Y030957D01*
X050508Y030966D01*
X050505Y030975D01*
X050501Y030984D01*
X050497Y030993D01*
X050491Y031002D01*
X050485Y031011D01*
X050477Y03102D01*
X050469Y031028D01*
X050539Y031098D01*
X050547Y03109D01*
D02*
G37*
G36*
X041229Y030256D02*
X041239Y03025D01*
X04125Y030244D01*
X041263Y030239D01*
X041277Y030234D01*
X041292Y030231D01*
X041309Y030228D01*
X041327Y030226D01*
X041368Y030224D01*
Y030028D01*
X041347Y030027D01*
X041309Y030024D01*
X041292Y030021D01*
X041277Y030018D01*
X041263Y030013D01*
X04125Y030008D01*
X041239Y030002D01*
X041229Y029996D01*
X04122Y029988D01*
Y030264D01*
X041229Y030256D01*
D02*
G37*
G36*
X022954Y029157D02*
X02292Y029139D01*
X022891Y029109D01*
X022866Y029068D01*
X022844Y029015D01*
X022827Y02895D01*
X022813Y028873D01*
X022803Y028785D01*
X022803Y028779D01*
X022803Y028772D01*
X022813Y028683D01*
X022827Y028606D01*
X022844Y028541D01*
X022866Y028488D01*
X022892Y028447D01*
X022914Y028424D01*
X022929Y028421D01*
X022999Y028411D01*
X023167Y028398D01*
X023369Y028394D01*
Y028197D01*
X023263Y028196D01*
X022929Y028169D01*
X022914Y028166D01*
X022892Y028144D01*
X022866Y028102D01*
X022844Y028049D01*
X022827Y027984D01*
X022813Y027907D01*
X022805Y027806D01*
X022823Y027542D01*
X022833Y027501D01*
X022845Y027471D01*
X022858Y027454D01*
X022873Y027448D01*
X022127D01*
X022142Y027454D01*
X022155Y027471D01*
X022167Y027501D01*
X022177Y027542D01*
X022185Y027595D01*
X022198Y027737D01*
X022204Y027926D01*
X022205Y028038D01*
X022425D01*
X022205Y028295D01*
X022442Y028572D01*
X022205D01*
X022202Y028684D01*
X022193Y028785D01*
X022178Y028873D01*
X022157Y02895D01*
X022131Y029015D01*
X022098Y029068D01*
X02206Y029109D01*
X022016Y029139D01*
X021966Y029157D01*
X021909Y029163D01*
X022991D01*
X022954Y029157D01*
D02*
G37*
G36*
X022449Y030214D02*
X022471Y029899D01*
X022472Y029894D01*
X022485Y029862D01*
X022501Y029836D01*
X02252Y029815D01*
X022542Y029801D01*
X022567Y029792D01*
X022594Y029789D01*
X022478D01*
X02248Y029769D01*
X022489Y029731D01*
X0225Y029703D01*
X022512Y029685D01*
X022452D01*
X022455Y029631D01*
X022152D01*
X022153Y029633D01*
X022154Y029638D01*
X022155Y029646D01*
X022156Y029668D01*
X022156Y029685D01*
X022094D01*
X022106Y029703D01*
X022117Y029731D01*
X022126Y029769D01*
X02213Y029789D01*
X022012D01*
X022039Y029792D01*
X022064Y029801D01*
X022086Y029815D01*
X022105Y029836D01*
X022121Y029862D01*
X022134Y029894D01*
X022144Y029932D01*
X022148Y029952D01*
X022155Y030114D01*
X022157Y030324D01*
X022449D01*
X022449Y030214D01*
D02*
G37*
G36*
X040977Y029742D02*
X04108Y029729D01*
X041178Y029742D01*
X041194Y029739D01*
X041228Y029716D01*
Y029392D01*
X041238Y029315D01*
X041268Y029243D01*
X041315Y029181D01*
X043068Y027428D01*
Y024724D01*
X043048Y024701D01*
X042949D01*
X042949Y024705D01*
X042947Y02471D01*
Y026835D01*
X042947Y026835D01*
X042937Y026912D01*
X042908Y026984D01*
X04286Y027045D01*
X04286Y027045D01*
X040849Y029056D01*
Y029749D01*
X040899Y029775D01*
X040977Y029742D01*
D02*
G37*
G36*
X053716Y02733D02*
X053746Y027313D01*
X053782Y027298D01*
X053824Y027285D01*
X053872Y027274D01*
X053927Y027266D01*
X054055Y027255D01*
X054128Y027252D01*
X054208Y027252D01*
X05372Y026765D01*
X05372Y026844D01*
X053707Y027046D01*
X053698Y0271D01*
X053687Y027149D01*
X053674Y027191D01*
X053659Y027227D01*
X053642Y027257D01*
X053623Y02728D01*
X053692Y02735D01*
X053716Y02733D01*
D02*
G37*
G36*
X039254Y030256D02*
X039264Y03025D01*
X039275Y030244D01*
X039288Y030239D01*
X039302Y030234D01*
X039318Y030231D01*
X039335Y030228D01*
X039353Y030226D01*
X039394Y030224D01*
Y030028D01*
X039373Y030027D01*
X039335Y030024D01*
X039318Y030021D01*
X039302Y030018D01*
X039288Y030013D01*
X039275Y030008D01*
X039264Y030002D01*
X039254Y029996D01*
X039246Y029988D01*
Y030264D01*
X039254Y030256D01*
D02*
G37*
G36*
X040242D02*
X040251Y03025D01*
X040263Y030244D01*
X040275Y030239D01*
X040289Y030234D01*
X040305Y030231D01*
X040322Y030228D01*
X04034Y030226D01*
X040381Y030224D01*
Y030028D01*
X04036Y030027D01*
X040322Y030024D01*
X040305Y030021D01*
X040289Y030018D01*
X040275Y030013D01*
X040263Y030008D01*
X040251Y030002D01*
X040242Y029996D01*
X040233Y029988D01*
Y030264D01*
X040242Y030256D01*
D02*
G37*
G36*
X021599Y032128D02*
X021681Y031974D01*
X021792Y031839D01*
X021927Y031728D01*
X022081Y031646D01*
X022248Y031595D01*
X022421Y031578D01*
X022595Y031595D01*
X022762Y031646D01*
X022916Y031728D01*
X023051Y031839D01*
X023128Y031934D01*
X023178Y031916D01*
Y030964D01*
X022303D01*
X022214Y030952D01*
X02213Y030917D01*
X022059Y030862D01*
X022004Y030791D01*
X021969Y030708D01*
X021958Y030618D01*
Y03033D01*
X021957Y030326D01*
X021954Y03012D01*
X021948Y029988D01*
X021538D01*
Y032156D01*
X021588Y032164D01*
X021599Y032128D01*
D02*
G37*
G36*
X038267Y030256D02*
X038277Y03025D01*
X038288Y030244D01*
X038301Y030239D01*
X038315Y030234D01*
X038331Y030231D01*
X038347Y030228D01*
X038366Y030226D01*
X038407Y030224D01*
Y030028D01*
X038386Y030027D01*
X038347Y030024D01*
X038331Y030021D01*
X038315Y030018D01*
X038301Y030013D01*
X038288Y030008D01*
X038277Y030002D01*
X038267Y029996D01*
X038259Y029988D01*
Y030264D01*
X038267Y030256D01*
D02*
G37*
G36*
X042369Y037902D02*
X042445Y03787D01*
X042528Y037859D01*
X04261Y03787D01*
X042668Y037894D01*
X042706Y037856D01*
X042703Y03785D01*
X042695Y037783D01*
X042703Y037717D01*
X042717Y037685D01*
X042703Y037653D01*
X042695Y037587D01*
X042703Y03752D01*
X042717Y037488D01*
X042703Y037457D01*
X042695Y03739D01*
X042703Y037323D01*
X042717Y037291D01*
X042703Y03726D01*
X042695Y037193D01*
X042703Y037126D01*
X042717Y037094D01*
X042703Y037063D01*
X042695Y036996D01*
X042703Y036929D01*
X042717Y036898D01*
X042703Y036866D01*
X042695Y036799D01*
X042696Y036791D01*
X042649Y036762D01*
X042635Y036771D01*
X042539Y03679D01*
X042246D01*
X042214Y036814D01*
X042137Y036846D01*
X042055Y036857D01*
X041973Y036846D01*
X041896Y036814D01*
X04183Y036764D01*
X04178Y036698D01*
X041748Y036622D01*
X041737Y036539D01*
X041748Y036457D01*
X04178Y036381D01*
X04183Y036315D01*
X041831Y036314D01*
X041831Y036251D01*
X041819Y036241D01*
X041752Y03625D01*
X041685Y036241D01*
X041654Y036228D01*
X041622Y036241D01*
X041555Y03625D01*
X041488Y036241D01*
X041457Y036228D01*
X041425Y036241D01*
X041358Y03625D01*
X041322Y036282D01*
Y036353D01*
X041346Y036384D01*
X041378Y036461D01*
X041389Y036543D01*
X041378Y036626D01*
X041346Y036702D01*
X041295Y036768D01*
X04123Y036818D01*
X041153Y03685D01*
X041071Y036861D01*
X040989Y03685D01*
X040912Y036818D01*
X040846Y036768D01*
X040796Y036702D01*
X040764Y036626D01*
X040753Y036543D01*
X040757Y036513D01*
X040724Y036475D01*
X040433D01*
X0404Y036513D01*
X040404Y036543D01*
X040393Y036626D01*
X040362Y036702D01*
X040338Y036734D01*
Y036996D01*
X040318Y037092D01*
X040264Y037173D01*
X040183Y037228D01*
X040087Y037247D01*
X039445D01*
X039412Y037297D01*
X039423Y037323D01*
X039431Y03739D01*
X039423Y037457D01*
X039409Y037488D01*
X039423Y03752D01*
X039431Y037587D01*
X039423Y037653D01*
X039409Y037685D01*
X039423Y037717D01*
X039431Y037783D01*
X039423Y03785D01*
X039409Y037882D01*
X039423Y037914D01*
X039424Y037926D01*
X042337D01*
X042369Y037902D01*
D02*
G37*
G36*
X04293Y039304D02*
X042928Y039305D01*
X042923Y039306D01*
X042917Y039306D01*
X0429Y039308D01*
X042824Y039309D01*
Y039407D01*
X04293Y039413D01*
Y039304D01*
D02*
G37*
G36*
X039198Y039412D02*
X039203Y039411D01*
X039209Y03941D01*
X039226Y039409D01*
X039302Y039407D01*
Y039309D01*
X039196Y039304D01*
Y039413D01*
X039198Y039412D01*
D02*
G37*
G36*
X044156Y03928D02*
X044147Y039279D01*
X044138Y039278D01*
X044129Y039276D01*
X044119Y039273D01*
X04411Y039269D01*
X044101Y039264D01*
X044092Y039259D01*
X044084Y039252D01*
X044075Y039245D01*
X044066Y039237D01*
X043997Y039306D01*
X044005Y039315D01*
X044012Y039324D01*
X044019Y039333D01*
X044024Y039342D01*
X044029Y039351D01*
X044033Y03936D01*
X044036Y039369D01*
X044038Y039378D01*
X044039Y039387D01*
X044039Y039396D01*
X044156Y03928D01*
D02*
G37*
G36*
X046243Y041266D02*
X046188Y041203D01*
X046166Y041174D01*
X046147Y041146D01*
X046132Y041119D01*
X04612Y041093D01*
X046111Y041069D01*
X046106Y041046D01*
X046104Y041024D01*
X046006D01*
X046004Y041046D01*
X045999Y041069D01*
X045991Y041093D01*
X045979Y041119D01*
X045963Y041146D01*
X045944Y041174D01*
X045922Y041203D01*
X045867Y041266D01*
X045835Y041299D01*
X046276D01*
X046243Y041266D01*
D02*
G37*
G36*
X03964Y039747D02*
X039639Y039742D01*
X039638Y039736D01*
X039637Y039719D01*
X039636Y039643D01*
X039537D01*
X039532Y039749D01*
X039641D01*
X03964Y039747D01*
D02*
G37*
G36*
X044243Y041266D02*
X044188Y041203D01*
X044166Y041174D01*
X044147Y041146D01*
X044132Y041119D01*
X04412Y041093D01*
X044111Y041069D01*
X044106Y041046D01*
X044104Y041024D01*
X044006D01*
X044004Y041046D01*
X043999Y041069D01*
X043991Y041093D01*
X043979Y041119D01*
X043963Y041146D01*
X043944Y041174D01*
X043922Y041203D01*
X043867Y041266D01*
X043835Y041299D01*
X044276D01*
X044243Y041266D01*
D02*
G37*
G36*
X034737Y044394D02*
X034716Y044376D01*
X034697Y044358D01*
X034681Y044339D01*
X034667Y044319D01*
X034656Y044298D01*
X034647Y044277D01*
X034641Y044255D01*
X034637Y044232D01*
X034636Y044209D01*
X034537D01*
X034536Y044232D01*
X034532Y044255D01*
X034526Y044277D01*
X034517Y044298D01*
X034506Y044319D01*
X034492Y044339D01*
X034476Y044358D01*
X034457Y044376D01*
X034436Y044394D01*
X034412Y044411D01*
X034761D01*
X034737Y044394D01*
D02*
G37*
G36*
X041124Y039005D02*
X041125Y038994D01*
X041127Y038983D01*
X041129Y038972D01*
X041132Y038963D01*
X041136Y038954D01*
X04114Y038945D01*
X041145Y038937D01*
X041151Y03893D01*
X041157Y038923D01*
X040992D01*
X040998Y03893D01*
X041004Y038937D01*
X041009Y038945D01*
X041014Y038954D01*
X041017Y038963D01*
X04102Y038972D01*
X041023Y038983D01*
X041024Y038994D01*
X041025Y039005D01*
X041026Y039017D01*
X041124D01*
X041124Y039005D01*
D02*
G37*
G36*
X043568Y039018D02*
X043573Y039017D01*
X043579Y039016D01*
X043596Y039015D01*
X043672Y039014D01*
Y038915D01*
X043566Y03891D01*
Y039019D01*
X043568Y039018D01*
D02*
G37*
G36*
X050408Y04125D02*
X050125Y041075D01*
X050006Y041096D01*
X050023Y041115D01*
X050036Y041136D01*
X050045Y041158D01*
X05005Y041181D01*
X050051Y041205D01*
X050047Y04123D01*
X05004Y041257D01*
X050029Y041284D01*
X050013Y041313D01*
X049994Y041343D01*
X050408Y04125D01*
D02*
G37*
G36*
X042105Y039013D02*
X042106Y039001D01*
X042107Y038991D01*
X04211Y03898D01*
X042113Y038971D01*
X042116Y038962D01*
X042121Y038953D01*
X042126Y038945D01*
X042131Y038938D01*
X042138Y038931D01*
X041972D01*
X041979Y038938D01*
X041984Y038945D01*
X04199Y038953D01*
X041994Y038962D01*
X041998Y038971D01*
X042001Y03898D01*
X042003Y038991D01*
X042005Y039001D01*
X042006Y039013D01*
X042006Y039025D01*
X042104D01*
X042105Y039013D01*
D02*
G37*
G36*
X044608Y041266D02*
X04469Y041159D01*
X044797Y041077D01*
X044922Y041025D01*
X045055Y041007D01*
X045189Y041025D01*
X045313Y041077D01*
X04542Y041159D01*
X045502Y041266D01*
X045528Y041328D01*
X045582D01*
X045608Y041266D01*
X04569Y041159D01*
X045694Y041156D01*
X04572Y041129D01*
X045767Y041076D01*
X045781Y041057D01*
X045792Y04104D01*
X0458Y041027D01*
X045804Y041018D01*
Y039628D01*
X045392Y039215D01*
X044475D01*
X044444Y039265D01*
X044464Y039315D01*
X044475Y039398D01*
X044464Y03948D01*
X044433Y039556D01*
X044382Y039622D01*
X044316Y039673D01*
X04424Y039704D01*
X044157Y039715D01*
X044075Y039704D01*
X043999Y039673D01*
X043933Y039622D01*
X043882Y039556D01*
X043851Y03948D01*
X043829Y039466D01*
X043768Y039485D01*
X043767Y039487D01*
X043726Y039541D01*
X043672Y039582D01*
X04361Y039608D01*
X043543Y039616D01*
X042953D01*
X04293Y039613D01*
X04293Y039613D01*
X042929Y039613D01*
X042924Y039613D01*
X04292Y039613D01*
X042838Y039609D01*
X042795D01*
X04277Y039659D01*
X042789Y039705D01*
X042797Y039772D01*
Y039806D01*
X043829D01*
X043925Y039825D01*
X044006Y03988D01*
X044233Y040106D01*
X044287Y040187D01*
X044306Y040283D01*
Y041018D01*
X04431Y041027D01*
X044318Y04104D01*
X044329Y041057D01*
X044344Y041076D01*
X04439Y041129D01*
X044417Y041156D01*
X04442Y041159D01*
X044502Y041266D01*
X044528Y041328D01*
X044582D01*
X044608Y041266D01*
D02*
G37*
G36*
X043568Y039215D02*
X043573Y039214D01*
X043579Y039213D01*
X043596Y039212D01*
X043672Y039211D01*
Y039112D01*
X043566Y039107D01*
Y039216D01*
X043568Y039215D01*
D02*
G37*
G36*
X036398Y039309D02*
X036403Y039226D01*
X036408Y03919D01*
X036415Y039156D01*
X036423Y039126D01*
X036433Y0391D01*
X036444Y039076D01*
X036457Y039056D01*
X036471Y039039D01*
X036401Y03897D01*
X036385Y038984D01*
X036365Y038997D01*
X036341Y039008D01*
X036315Y039018D01*
X036285Y039026D01*
X036251Y039033D01*
X036215Y039038D01*
X036132Y039043D01*
X036086Y039043D01*
X036398Y039355D01*
X036398Y039309D01*
D02*
G37*
G36*
X039837Y039747D02*
X039836Y039742D01*
X039835Y039736D01*
X039834Y039719D01*
X039833Y039643D01*
X039734D01*
X039729Y039749D01*
X039838D01*
X039837Y039747D01*
D02*
G37*
G36*
X027783Y041402D02*
X02739Y040811D01*
X027386Y040886D01*
X027374Y040953D01*
X027354Y041012D01*
X027327Y041063D01*
X027291Y041106D01*
X027248Y041142D01*
X027197Y041169D01*
X027138Y041189D01*
X027071Y041201D01*
X026996Y041205D01*
Y041598D01*
X027071Y041602D01*
X027138Y041614D01*
X027197Y041634D01*
X027248Y041661D01*
X027291Y041697D01*
X027327Y04174D01*
X027354Y041791D01*
X027374Y04185D01*
X027386Y041917D01*
X02739Y041992D01*
X027783Y041402D01*
D02*
G37*
G36*
X041216Y040385D02*
X041107D01*
X041108Y040387D01*
X041109Y040392D01*
X04111Y040398D01*
X041111Y040415D01*
X041112Y040491D01*
X041211D01*
X041216Y040385D01*
D02*
G37*
G36*
X041019D02*
X04091D01*
X040911Y040387D01*
X040912Y040392D01*
X040913Y040398D01*
X040914Y040415D01*
X040915Y040491D01*
X041014D01*
X041019Y040385D01*
D02*
G37*
G36*
X026803Y044442D02*
X026799Y044432D01*
X026795Y04442D01*
X026792Y044404D01*
X026789Y044384D01*
X026786Y044336D01*
X026783Y044238D01*
X02639D01*
X02639Y044274D01*
X026381Y044404D01*
X026378Y04442D01*
X026375Y044432D01*
X026371Y044442D01*
X026366Y044448D01*
X026807D01*
X026803Y044442D01*
D02*
G37*
G36*
X025803D02*
X025799Y044432D01*
X025795Y04442D01*
X025792Y044404D01*
X025789Y044384D01*
X025786Y044336D01*
X025783Y044238D01*
X02539D01*
X02539Y044274D01*
X025381Y044404D01*
X025378Y04442D01*
X025375Y044432D01*
X025371Y044442D01*
X025366Y044448D01*
X025807D01*
X025803Y044442D01*
D02*
G37*
G36*
X049805Y041266D02*
X049821Y041245D01*
X049824Y041236D01*
X049825Y041235D01*
X049826Y041234D01*
X049839Y041213D01*
X04918Y040554D01*
X048703D01*
X048683Y0406D01*
X049072Y040989D01*
X049081Y040992D01*
X049096Y040996D01*
X049116Y041D01*
X04914Y041003D01*
X04921Y041008D01*
X049248Y041008D01*
X049252Y041007D01*
X049386Y041025D01*
X04951Y041077D01*
X049617Y041159D01*
X049699Y041266D01*
X049725Y041328D01*
X049779D01*
X049805Y041266D01*
D02*
G37*
G36*
X035711Y044382D02*
X035695Y044371D01*
X035681Y044358D01*
X035669Y044345D01*
X035659Y04433D01*
X035651Y044313D01*
X035644Y044296D01*
X03564Y044277D01*
X035637Y044257D01*
X035636Y044236D01*
X035537D01*
X035536Y044257D01*
X035534Y044277D01*
X035529Y044296D01*
X035522Y044313D01*
X035514Y04433D01*
X035504Y044345D01*
X035492Y044358D01*
X035478Y044371D01*
X035462Y044382D01*
X035444Y044392D01*
X035729D01*
X035711Y044382D01*
D02*
G37*
G36*
X039838Y040385D02*
X039729D01*
X03973Y040387D01*
X039731Y040392D01*
X039732Y040398D01*
X039733Y040415D01*
X039734Y040491D01*
X039833D01*
X039838Y040385D01*
D02*
G37*
G36*
X042598Y040146D02*
X042601Y040138D01*
X042606Y04013D01*
X042613Y040124D01*
X042622Y040119D01*
X042633Y040114D01*
X042646Y040111D01*
X042661Y040108D01*
X042678Y040107D01*
X042697Y040106D01*
Y040008D01*
X042678Y040007D01*
X042661Y040006D01*
X042646Y040003D01*
X042633Y04D01*
X042622Y039996D01*
X042613Y03999D01*
X042606Y039984D01*
X042601Y039976D01*
X042598Y039968D01*
X042597Y039959D01*
Y040156D01*
X042598Y040146D01*
D02*
G37*
G36*
X040428Y039747D02*
X040427Y039742D01*
X040426Y039736D01*
X040425Y039719D01*
X040423Y039643D01*
X040325D01*
X04032Y039749D01*
X040429D01*
X040428Y039747D01*
D02*
G37*
G36*
X040035Y040385D02*
X039926D01*
X039927Y040387D01*
X039928Y040392D01*
X039929Y040398D01*
X03993Y040415D01*
X039931Y040491D01*
X04003D01*
X040035Y040385D01*
D02*
G37*
G36*
X040822D02*
X040713D01*
X040714Y040387D01*
X040715Y040392D01*
X040716Y040398D01*
X040717Y040415D01*
X040718Y040491D01*
X040817D01*
X040822Y040385D01*
D02*
G37*
G36*
X040625D02*
X040516D01*
X040517Y040387D01*
X040518Y040392D01*
X040519Y040398D01*
X04052Y040415D01*
X040522Y040491D01*
X04062D01*
X040625Y040385D01*
D02*
G37*
G36*
X040232D02*
X040123D01*
X040124Y040387D01*
X040125Y040392D01*
X040125Y040398D01*
X040127Y040415D01*
X040128Y040491D01*
X040226D01*
X040232Y040385D01*
D02*
G37*
G36*
X02672Y042271D02*
X026711Y042259D01*
X026703Y042245D01*
X026696Y04223D01*
X02669Y042214D01*
X026686Y042197D01*
X026682Y042178D01*
X026679Y042158D01*
X026678Y042137D01*
X026677Y042114D01*
X02648D01*
X02648Y042137D01*
X026476Y042178D01*
X026472Y042197D01*
X026467Y042214D01*
X026461Y04223D01*
X026454Y042245D01*
X026446Y042259D01*
X026437Y042271D01*
X026427Y042282D01*
X02673D01*
X02672Y042271D01*
D02*
G37*
G36*
X037909Y038073D02*
X03789Y038071D01*
X037814Y038039D01*
X037748Y037988D01*
X037697Y037923D01*
X037666Y037846D01*
X037655Y037764D01*
X037666Y037682D01*
X037697Y037605D01*
X037748Y037539D01*
X037807Y037494D01*
X037805Y037469D01*
X037793Y037444D01*
X037506D01*
X03748Y037461D01*
X037476Y037462D01*
X037473Y037464D01*
X037438Y037469D01*
X037403Y037476D01*
X0374Y037476D01*
X037396Y037476D01*
X037361Y037468D01*
X037326Y037461D01*
X037323Y037459D01*
X03732Y037458D01*
X037293Y037439D01*
X037223Y037425D01*
X037141Y03737D01*
X037087Y037289D01*
X037068Y037193D01*
X037087Y037097D01*
X037141Y037016D01*
X037223Y036961D01*
X037293Y036947D01*
X03732Y036928D01*
X037323Y036927D01*
X037326Y036925D01*
X037361Y036918D01*
X037396Y03691D01*
X0374Y03691D01*
X037403Y03691D01*
X037438Y036916D01*
X037473Y036922D01*
X037476Y036924D01*
X03748Y036925D01*
X037506Y036942D01*
X038332D01*
X038333Y036929D01*
X038346Y036898D01*
X038333Y036866D01*
X038332Y036853D01*
X036077D01*
X03606Y036866D01*
X036033Y036877D01*
X036047Y036926D01*
X036083Y036921D01*
X036216Y036938D01*
X036341Y03699D01*
X036448Y037072D01*
X03653Y037179D01*
X036581Y037303D01*
X036599Y037437D01*
X036598Y037441D01*
X036599Y037479D01*
X036603Y037549D01*
X036606Y037573D01*
X03661Y037593D01*
X036614Y037608D01*
X036618Y037617D01*
X037124Y038123D01*
X037906D01*
X037909Y038073D01*
D02*
G37*
G36*
X036471Y037756D02*
X036457Y037739D01*
X036444Y037719D01*
X036433Y037696D01*
X036423Y037669D01*
X036415Y037639D01*
X036408Y037606D01*
X036403Y037569D01*
X036398Y037486D01*
X036398Y03744D01*
X036086Y037752D01*
X036132Y037752D01*
X036215Y037758D01*
X036251Y037763D01*
X036285Y037769D01*
X036315Y037777D01*
X036341Y037787D01*
X036365Y037798D01*
X036385Y037811D01*
X036401Y037825D01*
X036471Y037756D01*
D02*
G37*
G36*
X038133Y037855D02*
X038125Y037846D01*
X038118Y037838D01*
X038111Y037829D01*
X038106Y03782D01*
X038101Y037811D01*
X038097Y037802D01*
X038094Y037793D01*
X038092Y037784D01*
X038091Y037774D01*
X038091Y037765D01*
X037974Y037882D01*
X037983Y037882D01*
X037992Y037883D01*
X038001Y037886D01*
X038011Y037888D01*
X03802Y037892D01*
X038029Y037897D01*
X038037Y037903D01*
X038046Y037909D01*
X038055Y037916D01*
X038064Y037925D01*
X038133Y037855D01*
D02*
G37*
G36*
X039587Y041407D02*
X039595Y041401D01*
X039603Y041396D01*
X039611Y041392D01*
X03962Y041388D01*
X03963Y041385D01*
X03964Y041383D01*
X039651Y041381D01*
X039662Y04138D01*
X039674Y04138D01*
Y041281D01*
X039662Y041281D01*
X039651Y04128D01*
X03964Y041278D01*
X03963Y041276D01*
X03962Y041273D01*
X039611Y041269D01*
X039603Y041265D01*
X039595Y04126D01*
X039587Y041254D01*
X03958Y041248D01*
Y041413D01*
X039587Y041407D01*
D02*
G37*
G36*
X03514Y044415D02*
X035222Y044308D01*
X035329Y044226D01*
X035338Y044222D01*
X03534Y044214D01*
X035355Y04414D01*
X035409Y044059D01*
X035954Y043514D01*
X035935Y043467D01*
X035683D01*
X034921Y044229D01*
X03493Y044291D01*
X034952Y044308D01*
X035034Y044415D01*
X03506Y044478D01*
X035114D01*
X03514Y044415D01*
D02*
G37*
G36*
X026678Y041892D02*
X026697Y041596D01*
X026703Y041571D01*
X02671Y041552D01*
X026718Y041541D01*
X026439D01*
X026447Y041552D01*
X026454Y041571D01*
X02646Y041596D01*
X026466Y041628D01*
X026474Y041713D01*
X02648Y041892D01*
X02648Y041966D01*
X026677D01*
X026678Y041892D01*
D02*
G37*
G36*
X043568Y03705D02*
X043573Y037049D01*
X043579Y037048D01*
X043596Y037047D01*
X043672Y037045D01*
Y036947D01*
X043566Y036942D01*
Y037051D01*
X043568Y03705D01*
D02*
G37*
G36*
X037644Y044363D02*
X037643Y044361D01*
X037641Y044358D01*
X03764Y044354D01*
X037638Y044349D01*
X037638Y044343D01*
X037636Y044327D01*
X037636Y044307D01*
X037537D01*
X037537Y044318D01*
X037536Y044343D01*
X037535Y044349D01*
X037534Y044354D01*
X037532Y044358D01*
X037531Y044361D01*
X037529Y044363D01*
X037527Y044364D01*
X037646D01*
X037644Y044363D01*
D02*
G37*
G36*
X039198Y03705D02*
X039203Y037049D01*
X039209Y037048D01*
X039226Y037047D01*
X039302Y037045D01*
Y036947D01*
X039196Y036942D01*
Y037051D01*
X039198Y03705D01*
D02*
G37*
G36*
X03741Y037269D02*
X037418Y037264D01*
X037425Y037259D01*
X037434Y037254D01*
X037443Y03725D01*
X037453Y037247D01*
X037463Y037245D01*
X037474Y037243D01*
X037485Y037242D01*
X037497Y037242D01*
Y037144D01*
X037485Y037143D01*
X037474Y037142D01*
X037463Y037141D01*
X037453Y037138D01*
X037443Y037135D01*
X037434Y037132D01*
X037425Y037127D01*
X037418Y037122D01*
X03741Y037117D01*
X037403Y03711D01*
Y037276D01*
X03741Y037269D01*
D02*
G37*
G36*
X04782Y037491D02*
X047815Y037484D01*
X04781Y037476D01*
X047805Y037468D01*
X047802Y037458D01*
X047799Y037449D01*
X047796Y037439D01*
X047795Y037428D01*
X047794Y037416D01*
X047793Y037404D01*
X047695D01*
X047695Y037416D01*
X047694Y037428D01*
X047692Y037439D01*
X04769Y037449D01*
X047687Y037458D01*
X047683Y037468D01*
X047678Y037476D01*
X047673Y037484D01*
X047668Y037491D01*
X047661Y037498D01*
X047827D01*
X04782Y037491D01*
D02*
G37*
G36*
X043568Y037246D02*
X043573Y037246D01*
X043579Y037245D01*
X043596Y037243D01*
X043672Y037242D01*
Y037144D01*
X043566Y037138D01*
Y037247D01*
X043568Y037246D01*
D02*
G37*
G36*
X03856Y037138D02*
X038558Y037139D01*
X038553Y03714D01*
X038547Y037141D01*
X03853Y037142D01*
X038454Y037144D01*
Y037242D01*
X03856Y037247D01*
Y037138D01*
D02*
G37*
G36*
X042443Y038094D02*
X042436Y038101D01*
X042429Y038107D01*
X042421Y038112D01*
X042412Y038116D01*
X042403Y03812D01*
X042394Y038123D01*
X042383Y038125D01*
X042373Y038127D01*
X042361Y038128D01*
X042349Y038128D01*
Y038226D01*
X042361Y038227D01*
X042373Y038228D01*
X042383Y038229D01*
X042394Y038232D01*
X042403Y038235D01*
X042412Y038238D01*
X042421Y038243D01*
X042429Y038248D01*
X042436Y038253D01*
X042443Y03826D01*
Y038094D01*
D02*
G37*
G36*
X036689Y044374D02*
X036678Y044367D01*
X036668Y044358D01*
X036659Y044348D01*
X036652Y044337D01*
X036646Y044324D01*
X036642Y04431D01*
X036638Y044295D01*
X036636Y044278D01*
X036636Y04426D01*
X036537D01*
X036537Y044278D01*
X036535Y044295D01*
X036531Y04431D01*
X036527Y044324D01*
X036521Y044337D01*
X036514Y044348D01*
X036505Y044358D01*
X036495Y044367D01*
X036484Y044374D01*
X036472Y04438D01*
X036701D01*
X036689Y044374D01*
D02*
G37*
G36*
X049249Y041209D02*
X049202Y041208D01*
X04912Y041203D01*
X049083Y041198D01*
X04905Y041192D01*
X04902Y041183D01*
X048993Y041174D01*
X04897Y041162D01*
X04895Y04115D01*
X048933Y041135D01*
X048864Y041205D01*
X048878Y041222D01*
X048891Y041242D01*
X048902Y041265D01*
X048912Y041292D01*
X04892Y041322D01*
X048926Y041355D01*
X048931Y041391D01*
X048937Y041474D01*
X048937Y04152D01*
X049249Y041209D01*
D02*
G37*
G36*
X041804Y039303D02*
Y039037D01*
X04178Y039005D01*
X041748Y038929D01*
X041737Y038846D01*
X041748Y038764D01*
X04178Y038688D01*
X04183Y038622D01*
X041896Y038571D01*
X041973Y03854D01*
X042055Y038529D01*
X042137Y03854D01*
X042214Y038571D01*
X04228Y038622D01*
X04233Y038688D01*
X042362Y038764D01*
X042373Y038846D01*
X042362Y038929D01*
X04233Y039005D01*
X042306Y039037D01*
Y039107D01*
X042702D01*
X042703Y039095D01*
X042717Y039063D01*
X042703Y039031D01*
X042695Y038965D01*
X042703Y038898D01*
X042717Y038866D01*
X042703Y038835D01*
X042695Y038768D01*
X042703Y038701D01*
X042717Y038669D01*
X042703Y038638D01*
X042695Y038571D01*
X042703Y038504D01*
X042706Y038498D01*
X042668Y03846D01*
X04261Y038484D01*
X042528Y038495D01*
X042445Y038484D01*
X042369Y038452D01*
X042337Y038428D01*
X039424D01*
X039423Y038441D01*
X039409Y038472D01*
X039423Y038504D01*
X039431Y038571D01*
X039453Y038596D01*
X0399D01*
X039932Y038571D01*
X040008Y03854D01*
X040091Y038529D01*
X040173Y03854D01*
X040249Y038571D01*
X040315Y038622D01*
X040366Y038688D01*
X040397Y038764D01*
X040408Y038846D01*
X040408Y038849D01*
X040441Y038887D01*
X040726D01*
X040759Y038849D01*
X040757Y038839D01*
X040768Y038756D01*
X0408Y03868D01*
X04085Y038614D01*
X040916Y038563D01*
X040993Y038532D01*
X041075Y038521D01*
X041157Y038532D01*
X041234Y038563D01*
X041299Y038614D01*
X04135Y03868D01*
X041382Y038756D01*
X041392Y038839D01*
X041382Y038921D01*
X04135Y038997D01*
X041326Y039029D01*
Y039138D01*
X041315Y039191D01*
X041347Y039229D01*
X041567D01*
X041663Y039249D01*
X041744Y039303D01*
X041754Y039318D01*
X041804Y039303D01*
D02*
G37*
G36*
X040006Y038764D02*
X039999Y03877D01*
X039992Y038776D01*
X039984Y038781D01*
X039975Y038785D01*
X039966Y038789D01*
X039957Y038792D01*
X039946Y038794D01*
X039936Y038796D01*
X039924Y038797D01*
X039912Y038797D01*
Y038896D01*
X039924Y038896D01*
X039936Y038897D01*
X039946Y038899D01*
X039957Y038901D01*
X039966Y038904D01*
X039975Y038908D01*
X039984Y038912D01*
X039992Y038917D01*
X039999Y038923D01*
X040006Y038929D01*
Y038764D01*
D02*
G37*
G36*
X054208Y038866D02*
X054128Y038866D01*
X053927Y038853D01*
X053872Y038844D01*
X053824Y038833D01*
X053782Y03882D01*
X053746Y038805D01*
X053716Y038788D01*
X053692Y038768D01*
X053623Y038838D01*
X053642Y038862D01*
X053659Y038891D01*
X053674Y038927D01*
X053687Y038969D01*
X053698Y039018D01*
X053707Y039072D01*
X053718Y0392D01*
X05372Y039274D01*
X05372Y039353D01*
X054208Y038866D01*
D02*
G37*
G36*
X029693Y044375D02*
X029681Y044368D01*
X02967Y044358D01*
X029661Y044348D01*
X029653Y044336D01*
X029647Y044323D01*
X029642Y044308D01*
X029639Y044292D01*
X029637Y044275D01*
X029636Y044256D01*
X029537D01*
X029537Y044275D01*
X029535Y044292D01*
X029531Y044308D01*
X029526Y044323D01*
X02952Y044336D01*
X029512Y044348D01*
X029503Y044358D01*
X029492Y044368D01*
X029481Y044375D01*
X029467Y044382D01*
X029706D01*
X029693Y044375D01*
D02*
G37*
G36*
X027775Y044415D02*
X02772Y044353D01*
X027697Y044324D01*
X027679Y044296D01*
X027663Y044269D01*
X027651Y044243D01*
X027643Y044218D01*
X027638Y044195D01*
X027636Y044173D01*
X027537D01*
X027536Y044195D01*
X027531Y044218D01*
X027522Y044243D01*
X02751Y044269D01*
X027495Y044296D01*
X027476Y044324D01*
X027453Y044353D01*
X027399Y044415D01*
X027366Y044448D01*
X027807D01*
X027775Y044415D01*
D02*
G37*
G36*
X03856Y038516D02*
X038558Y038517D01*
X038553Y038518D01*
X038547Y038519D01*
X03853Y03852D01*
X038454Y038522D01*
Y03862D01*
X03856Y038625D01*
Y038516D01*
D02*
G37*
G36*
X043685Y038138D02*
X043666Y038138D01*
X043607Y038134D01*
X043596Y038132D01*
X043578Y038128D01*
X043571Y038126D01*
X043566Y038123D01*
Y038232D01*
X043565Y038233D01*
X043567Y038233D01*
X04357Y038234D01*
X043575Y038235D01*
X04359Y038235D01*
X043642Y038236D01*
X043685Y038138D01*
D02*
G37*
G36*
X03856Y038123D02*
X038558Y038124D01*
X038553Y038125D01*
X038547Y038125D01*
X03853Y038127D01*
X038454Y038128D01*
Y038226D01*
X03856Y038232D01*
Y038123D01*
D02*
G37*
G36*
X039198Y038231D02*
X039203Y03823D01*
X039209Y038229D01*
X039226Y038228D01*
X039302Y038226D01*
Y038128D01*
X039196Y038123D01*
Y038232D01*
X039198Y038231D01*
D02*
G37*
G36*
X03856Y03832D02*
X038558Y038321D01*
X038553Y038321D01*
X038547Y038322D01*
X03853Y038323D01*
X038454Y038325D01*
Y038423D01*
X03856Y038429D01*
Y03832D01*
D02*
G37*
G36*
X043568Y038428D02*
X043573Y038427D01*
X043579Y038426D01*
X043596Y038425D01*
X043672Y038423D01*
Y038325D01*
X043566Y03832D01*
Y038429D01*
X043568Y038428D01*
D02*
G37*
G36*
X059125Y045507D02*
X059089Y045496D01*
X058935Y045413D01*
X0588Y045303D01*
X058689Y045168D01*
X058607Y045014D01*
X058556Y044847D01*
X058539Y044673D01*
X058556Y0445D01*
X058607Y044333D01*
X058689Y044179D01*
X0588Y044044D01*
X058935Y043933D01*
X059089Y043851D01*
X059255Y0438D01*
X059429Y043783D01*
X059603Y0438D01*
X05977Y043851D01*
X059924Y043933D01*
X060059Y044044D01*
X060169Y044179D01*
X060251Y044333D01*
X060262Y044369D01*
X060312Y044361D01*
Y015714D01*
X060266Y015695D01*
X06024Y015721D01*
X060175Y015764D01*
X060098Y015779D01*
X059971D01*
Y016898D01*
X059972D01*
X059958Y017038D01*
X059917Y017172D01*
X059851Y017296D01*
X059762Y017404D01*
X059763Y017405D01*
X059616Y017526D01*
X059448Y017616D01*
X059266Y017671D01*
X059076Y01769D01*
Y017688D01*
X041601D01*
X041597Y017687D01*
X041465Y0177D01*
X041334Y01774D01*
X041213Y017804D01*
X041111Y017889D01*
X041108Y017892D01*
X041101Y017897D01*
X041019Y018004D01*
X040964Y018137D01*
X040946Y018271D01*
X040947Y01828D01*
Y020539D01*
X040985Y020572D01*
X041016Y020568D01*
X041098Y020579D01*
X04112Y020588D01*
X04288D01*
X042902Y020579D01*
X042984Y020568D01*
X043066Y020579D01*
X043143Y020611D01*
X043209Y020661D01*
X043259Y020727D01*
X043291Y020804D01*
X043302Y020886D01*
X043291Y020968D01*
X043259Y021045D01*
X043209Y02111D01*
X043143Y021161D01*
X043066Y021193D01*
X042984Y021203D01*
X042902Y021193D01*
X04288Y021184D01*
X04112D01*
X041098Y021193D01*
X041016Y021203D01*
X040985Y021199D01*
X040947Y021232D01*
Y022575D01*
X04095D01*
X040931Y022719D01*
X040875Y022853D01*
X040787Y022968D01*
X040786Y022967D01*
X040674Y02306D01*
X040545Y023128D01*
X040406Y02317D01*
X040261Y023185D01*
X040236Y023224D01*
Y023587D01*
X040242Y023588D01*
X040264D01*
X040341Y023598D01*
X040413Y023628D01*
X040474Y023675D01*
X040762Y023963D01*
X040809Y024024D01*
X040839Y024096D01*
X040849Y024173D01*
Y027961D01*
X040839Y028038D01*
X040809Y02811D01*
X040762Y028171D01*
X039875Y029058D01*
Y029736D01*
X039925Y029769D01*
X03999Y029742D01*
X040093Y029729D01*
X040195Y029742D01*
X040212Y029749D01*
X040253Y029721D01*
Y028933D01*
X040264Y028856D01*
X040293Y028784D01*
X040341Y028722D01*
X042352Y026711D01*
Y02471D01*
X042351Y024705D01*
X04235Y024701D01*
X042167D01*
Y024071D01*
Y023685D01*
X042161Y023684D01*
X042051D01*
Y023684D01*
X041926Y023672D01*
X041806Y023635D01*
X041695Y023576D01*
X041598Y023496D01*
X041518Y023399D01*
X041459Y023289D01*
X041423Y023168D01*
X041422Y023157D01*
X041402Y02311D01*
X041391Y023028D01*
X041402Y022945D01*
X041434Y022869D01*
X041484Y022803D01*
X04155Y022752D01*
X041626Y022721D01*
X041709Y02271D01*
X041791Y022721D01*
X041867Y022752D01*
X041933Y022803D01*
X041984Y022869D01*
X042016Y022945D01*
X042026Y023028D01*
X042023Y023049D01*
X042066Y023088D01*
X04216D01*
X042166Y023087D01*
X042167Y023087D01*
Y023071D01*
X042352D01*
X042365Y023068D01*
X042377Y023071D01*
X042389Y02307D01*
X042393Y023071D01*
X043132D01*
Y023571D01*
Y024071D01*
Y024467D01*
X043182Y024487D01*
X043994Y023675D01*
X044056Y023628D01*
X044128Y023598D01*
X044205Y023588D01*
X044205Y023588D01*
X044306D01*
X044312Y023587D01*
X044313Y023587D01*
Y023071D01*
Y022571D01*
X044775D01*
X044795Y022568D01*
X044816Y022571D01*
X045278D01*
Y023071D01*
Y023571D01*
Y024071D01*
Y024701D01*
X045091D01*
X04509Y024705D01*
X045089Y02471D01*
Y025099D01*
X045098Y025121D01*
X045109Y025203D01*
X045098Y025285D01*
X045066Y025362D01*
X045016Y025427D01*
X04495Y025478D01*
X044874Y02551D01*
X044791Y02552D01*
X044709Y02551D01*
X044633Y025478D01*
X044567Y025427D01*
X044516Y025362D01*
X044484Y025285D01*
X044474Y025203D01*
X044484Y025121D01*
X044494Y025099D01*
Y02471D01*
X044492Y024705D01*
X044492Y024701D01*
X044313D01*
Y024264D01*
X044267Y024245D01*
X043664Y024848D01*
Y027551D01*
X043664Y027551D01*
X043659Y02759D01*
X043654Y027628D01*
X043624Y0277D01*
X043577Y027762D01*
X041823Y029515D01*
Y02976D01*
X041836Y029766D01*
X041873Y02978D01*
X041964Y029742D01*
X042067Y029729D01*
X04217Y029742D01*
X042242Y029772D01*
X042242Y029772D01*
X042289Y029711D01*
X045785Y026215D01*
Y025978D01*
X045776Y025956D01*
X045765Y025874D01*
X045776Y025792D01*
X045785Y02577D01*
Y024681D01*
X045795Y024604D01*
X045825Y024532D01*
X045872Y024471D01*
X046167Y024175D01*
X046167Y024175D01*
X046229Y024128D01*
X046301Y024098D01*
X046378Y024088D01*
X046378Y024088D01*
X047225D01*
X047231Y024087D01*
X047232Y024087D01*
Y023571D01*
Y023071D01*
X047694D01*
X047715Y023068D01*
X047735Y023071D01*
X048197D01*
Y023571D01*
Y024071D01*
Y024701D01*
X047458D01*
X047454Y024702D01*
X047442Y024701D01*
X04743Y024703D01*
X047417Y024701D01*
X047232D01*
Y024685D01*
X047226Y024684D01*
X046501D01*
X046381Y024804D01*
Y02577D01*
X04639Y025792D01*
X0464Y025874D01*
X04639Y025956D01*
X046381Y025978D01*
Y026339D01*
X046381Y026339D01*
X04637Y026416D01*
X046341Y026487D01*
X046293Y026549D01*
X046293Y026549D01*
X042798Y030045D01*
Y032459D01*
X042799Y032464D01*
X042799Y032469D01*
X042933D01*
Y033138D01*
Y033886D01*
X042746D01*
X042732Y033958D01*
X042677Y03404D01*
X042522Y034195D01*
X042541Y034241D01*
X045672D01*
X048996Y030917D01*
X049004Y030855D01*
X049036Y030778D01*
X049086Y030712D01*
X049152Y030662D01*
X049229Y03063D01*
X049311Y030619D01*
X049393Y03063D01*
X04947Y030662D01*
X049536Y030712D01*
X049586Y030778D01*
X049618Y030855D01*
X049629Y030937D01*
X049622Y03099D01*
X049659Y03104D01*
X050172D01*
X050318Y030894D01*
X050323Y030855D01*
X050355Y030778D01*
X050405Y030712D01*
X050471Y030662D01*
X050548Y03063D01*
X05063Y030619D01*
X050712Y03063D01*
X050789Y030662D01*
X050854Y030712D01*
X050905Y030778D01*
X050937Y030855D01*
X050948Y030937D01*
X050937Y031019D01*
X050905Y031096D01*
X050854Y031162D01*
X0508Y031203D01*
X050814Y031253D01*
X051278D01*
X051637Y030894D01*
X051642Y030855D01*
X051674Y030778D01*
X051724Y030712D01*
X05179Y030662D01*
X051867Y03063D01*
X051949Y030619D01*
X052031Y03063D01*
X052108Y030662D01*
X052173Y030712D01*
X052224Y030778D01*
X052256Y030855D01*
X052266Y030937D01*
X052256Y031019D01*
X052224Y031096D01*
X052173Y031162D01*
X052108Y031212D01*
X052031Y031244D01*
X051992Y031249D01*
X051663Y031577D01*
X05169Y031621D01*
X051775Y031595D01*
X051949Y031578D01*
X052122Y031595D01*
X052289Y031646D01*
X052443Y031728D01*
X052578Y031839D01*
X052689Y031974D01*
X052771Y032128D01*
X052822Y032295D01*
X052829Y032368D01*
X052879Y032366D01*
Y021543D01*
X052898Y021447D01*
X052953Y021366D01*
X053478Y020841D01*
X053479Y020838D01*
X053485Y020823D01*
X053493Y020798D01*
X053501Y020763D01*
X053507Y020724D01*
X05352Y020538D01*
X05352Y020465D01*
X05352Y020462D01*
X05352Y020461D01*
X053534Y020326D01*
X053573Y020196D01*
X053637Y020076D01*
X053723Y019971D01*
X053828Y019885D01*
X053948Y019821D01*
X054078Y019782D01*
X054213Y019768D01*
X054348Y019782D01*
X054478Y019821D01*
X054597Y019885D01*
X054702Y019971D01*
X054788Y020076D01*
X054852Y020196D01*
X054892Y020326D01*
X054905Y020461D01*
X054892Y020596D01*
X054852Y020726D01*
X054788Y020845D01*
X054702Y02095D01*
X054597Y021036D01*
X054478Y0211D01*
X054348Y02114D01*
X054213Y021153D01*
X054211Y021153D01*
X054208Y021153D01*
X054132Y021154D01*
X054067Y021156D01*
X053951Y021166D01*
X05391Y021172D01*
X053875Y02118D01*
X05385Y021188D01*
X053835Y021194D01*
X053832Y021196D01*
X053381Y021647D01*
Y027172D01*
X053427Y027191D01*
X053478Y02714D01*
X053479Y027137D01*
X053485Y027122D01*
X053493Y027097D01*
X053501Y027063D01*
X053507Y027023D01*
X05352Y026837D01*
X05352Y026764D01*
X05352Y026761D01*
X05352Y02676D01*
X053534Y026625D01*
X053573Y026495D01*
X053637Y026375D01*
X053723Y02627D01*
X053828Y026184D01*
X053948Y02612D01*
X054078Y026081D01*
X054213Y026068D01*
X054348Y026081D01*
X054478Y02612D01*
X054597Y026184D01*
X054702Y02627D01*
X054788Y026375D01*
X054852Y026495D01*
X054892Y026625D01*
X054905Y02676D01*
X054892Y026895D01*
X054852Y027025D01*
X054788Y027144D01*
X054702Y027249D01*
X054597Y027335D01*
X054478Y027399D01*
X054348Y027439D01*
X054213Y027452D01*
X054211Y027452D01*
X054208Y027453D01*
X054132Y027453D01*
X054067Y027455D01*
X053951Y027465D01*
X05391Y027472D01*
X053875Y027479D01*
X05385Y027487D01*
X053835Y027493D01*
X053832Y027495D01*
X053558Y027769D01*
Y032716D01*
X053608Y032729D01*
X053637Y032674D01*
X053723Y03257D01*
X053828Y032483D01*
X053948Y032419D01*
X054078Y03238D01*
X054213Y032367D01*
X054348Y03238D01*
X054478Y032419D01*
X054597Y032483D01*
X054702Y03257D01*
X054788Y032674D01*
X054852Y032794D01*
X054892Y032924D01*
X054905Y033059D01*
X054892Y033194D01*
X054852Y033324D01*
X054788Y033444D01*
X054702Y033549D01*
X054597Y033635D01*
X054478Y033699D01*
X054348Y033738D01*
X054213Y033751D01*
X054211Y033751D01*
X054208Y033752D01*
X054132Y033752D01*
X054067Y033754D01*
X053951Y033764D01*
X05391Y033771D01*
X053875Y033779D01*
X05385Y033786D01*
X053835Y033793D01*
X053832Y033794D01*
X053397Y03423D01*
Y035453D01*
X053377Y035549D01*
X053323Y03563D01*
X052081Y036872D01*
X053832Y038623D01*
X053835Y038625D01*
X05385Y038631D01*
X053875Y038639D01*
X05391Y038647D01*
X053949Y038653D01*
X054135Y038665D01*
X054208Y038665D01*
X054211Y038666D01*
X054213Y038666D01*
X054348Y038679D01*
X054478Y038719D01*
X054597Y038783D01*
X054702Y038869D01*
X054788Y038974D01*
X054852Y039093D01*
X054892Y039223D01*
X054905Y039358D01*
X054892Y039493D01*
X054852Y039623D01*
X054788Y039743D01*
X054702Y039848D01*
X054597Y039934D01*
X054478Y039998D01*
X054348Y040037D01*
X054213Y040051D01*
X054078Y040037D01*
X053948Y039998D01*
X053828Y039934D01*
X053723Y039848D01*
X053637Y039743D01*
X053573Y039623D01*
X053534Y039493D01*
X05352Y039358D01*
X05352Y039357D01*
X05352Y039354D01*
X05352Y039277D01*
X053517Y039212D01*
X053508Y039097D01*
X053501Y039056D01*
X053493Y039021D01*
X053485Y038996D01*
X053479Y038981D01*
X053478Y038978D01*
X051746Y037247D01*
X048018D01*
X047986Y037286D01*
X047995Y037331D01*
Y037392D01*
X048019Y037424D01*
X048051Y0375D01*
X048062Y037583D01*
X048051Y037665D01*
X048019Y037742D01*
X047969Y037807D01*
X047903Y037858D01*
X047826Y03789D01*
X047744Y0379D01*
X047662Y03789D01*
X047585Y037858D01*
X047519Y037807D01*
X047469Y037742D01*
X047437Y037665D01*
X047426Y037583D01*
X047437Y0375D01*
X047443Y037485D01*
X047416Y037444D01*
X043794D01*
X043793Y037457D01*
X04378Y037488D01*
X043793Y03752D01*
X043801Y037587D01*
X043793Y037653D01*
X04378Y037685D01*
X043793Y037717D01*
X043801Y037783D01*
X043793Y03785D01*
X04378Y037882D01*
X043793Y037914D01*
X043796Y037936D01*
X045457D01*
X045553Y037955D01*
X045635Y03801D01*
X047677Y040052D01*
X049283D01*
X049379Y040071D01*
X049461Y040126D01*
X050254Y040919D01*
X050507Y041075D01*
X05051Y041077D01*
X050515Y04108D01*
X050515Y04108D01*
X050516Y041081D01*
X050617Y041159D01*
X050699Y041266D01*
X050751Y04139D01*
X050768Y041524D01*
X050751Y041657D01*
X050699Y041782D01*
X050617Y041889D01*
X05051Y041971D01*
X050386Y042022D01*
X050252Y04204D01*
X050118Y042022D01*
X049994Y041971D01*
X049887Y041889D01*
X049805Y041782D01*
X049779Y041719D01*
X049725D01*
X049699Y041782D01*
X049617Y041889D01*
X04951Y041971D01*
X049386Y042022D01*
X049252Y04204D01*
X049118Y042022D01*
X048994Y041971D01*
X048887Y041889D01*
X048805Y041782D01*
X048753Y041657D01*
X048736Y041524D01*
X048736Y041519D01*
X048736Y041481D01*
X048732Y041411D01*
X048728Y041388D01*
X048724Y041367D01*
X04872Y041352D01*
X048717Y041343D01*
X048105Y040731D01*
X0475D01*
X047404Y040712D01*
X047323Y040658D01*
X046352Y039687D01*
X046306Y039706D01*
Y041018D01*
X04631Y041027D01*
X046318Y04104D01*
X046329Y041057D01*
X046344Y041076D01*
X04639Y041129D01*
X046417Y041156D01*
X04642Y041159D01*
X046502Y041266D01*
X046554Y04139D01*
X046571Y041524D01*
X046554Y041657D01*
X046502Y041782D01*
X04642Y041889D01*
X046313Y041971D01*
X046189Y042022D01*
X046055Y04204D01*
X045922Y042022D01*
X045797Y041971D01*
X04569Y041889D01*
X045608Y041782D01*
X045582Y041719D01*
X045528D01*
X045502Y041782D01*
X04542Y041889D01*
X045313Y041971D01*
X045189Y042022D01*
X045055Y04204D01*
X044922Y042022D01*
X044797Y041971D01*
X04469Y041889D01*
X044608Y041782D01*
X044582Y041719D01*
X044528D01*
X044502Y041782D01*
X04442Y041889D01*
X044313Y041971D01*
X044189Y042022D01*
X044055Y04204D01*
X043922Y042022D01*
X043797Y041971D01*
X04369Y041889D01*
X043608Y041782D01*
X043556Y041657D01*
X043539Y041524D01*
X043556Y04139D01*
X043608Y041266D01*
X04369Y041159D01*
X043694Y041156D01*
X04372Y041129D01*
X043767Y041076D01*
X043781Y041057D01*
X043792Y04104D01*
X0438Y041027D01*
X043804Y041018D01*
Y040387D01*
X043725Y040308D01*
X042797D01*
Y040362D01*
X042789Y040429D01*
X042763Y040491D01*
X042722Y040545D01*
X042668Y040586D01*
X042606Y040612D01*
X042539Y04062D01*
X042473Y040612D01*
X042441Y040598D01*
X042409Y040612D01*
X042343Y04062D01*
X042276Y040612D01*
X042244Y040598D01*
X042212Y040612D01*
X042146Y04062D01*
X042079Y040612D01*
X042047Y040598D01*
X042016Y040612D01*
X041949Y04062D01*
X041882Y040612D01*
X04185Y040598D01*
X041819Y040612D01*
X041752Y04062D01*
X041685Y040612D01*
X041654Y040598D01*
X041622Y040612D01*
X041555Y04062D01*
X041488Y040612D01*
X041457Y040598D01*
X041425Y040612D01*
X041412Y040613D01*
Y042213D01*
X041393Y042309D01*
X041339Y042391D01*
X039745Y043984D01*
X039663Y044039D01*
X039567Y044058D01*
X038191D01*
X037951Y044298D01*
X037952Y044308D01*
X038034Y044415D01*
X03806Y044478D01*
X038114D01*
X03814Y044415D01*
X038222Y044308D01*
X038328Y044226D01*
X038453Y044175D01*
X038587Y044157D01*
X03872Y044175D01*
X038845Y044226D01*
X038952Y044308D01*
X039034Y044415D01*
X039085Y04454D01*
X039103Y044673D01*
X039085Y044807D01*
X039034Y044931D01*
X038952Y045038D01*
X038845Y04512D01*
X03872Y045172D01*
X038587Y045189D01*
X038453Y045172D01*
X038328Y04512D01*
X038222Y045038D01*
X03814Y044931D01*
X038114Y044869D01*
X03806D01*
X038034Y044931D01*
X037952Y045038D01*
X037845Y04512D01*
X03772Y045172D01*
X037587Y045189D01*
X037453Y045172D01*
X037329Y04512D01*
X037222Y045038D01*
X03714Y044931D01*
X037114Y044869D01*
X03706D01*
X037034Y044931D01*
X036952Y045038D01*
X036845Y04512D01*
X03672Y045172D01*
X036587Y045189D01*
X036453Y045172D01*
X036328Y04512D01*
X036222Y045038D01*
X03614Y044931D01*
X036114Y044869D01*
X03606D01*
X036034Y044931D01*
X035952Y045038D01*
X035845Y04512D01*
X03572Y045172D01*
X035587Y045189D01*
X035453Y045172D01*
X035329Y04512D01*
X035222Y045038D01*
X03514Y044931D01*
X035114Y044869D01*
X03506D01*
X035034Y044931D01*
X034952Y045038D01*
X034845Y04512D01*
X03472Y045172D01*
X034587Y045189D01*
X034453Y045172D01*
X034328Y04512D01*
X034222Y045038D01*
X03414Y044931D01*
X034088Y044807D01*
X03407Y044673D01*
X034088Y04454D01*
X03414Y044415D01*
X034222Y044308D01*
X034268Y044273D01*
X03427Y044269D01*
X034284Y04426D01*
X034295Y044248D01*
X034313Y044235D01*
X034322Y044227D01*
X034329Y044221D01*
X034333Y044216D01*
X034335Y044213D01*
X034336Y044212D01*
Y044209D01*
X034337Y044204D01*
X034337Y044198D01*
X034341Y044182D01*
X034355Y044113D01*
X034409Y044031D01*
X035116Y043325D01*
X035097Y043278D01*
X030919D01*
X029943Y044254D01*
X029946Y044304D01*
X029952Y044308D01*
X030034Y044415D01*
X030085Y04454D01*
X030103Y044673D01*
X030085Y044807D01*
X030034Y044931D01*
X029952Y045038D01*
X029845Y04512D01*
X02972Y045172D01*
X029587Y045189D01*
X029453Y045172D01*
X029328Y04512D01*
X029222Y045038D01*
X02914Y044931D01*
X029088Y044807D01*
X02907Y044673D01*
X029088Y04454D01*
X02914Y044415D01*
X029222Y044308D01*
X029328Y044226D01*
X029343Y04422D01*
X029355Y04416D01*
X029409Y044078D01*
X03034Y043147D01*
X030321Y043101D01*
X028954D01*
X027856Y0442D01*
X027861Y044207D01*
X027875Y044226D01*
X027921Y044278D01*
X027948Y044306D01*
X027952Y044308D01*
X028034Y044415D01*
X028085Y04454D01*
X028103Y044673D01*
X028085Y044807D01*
X028034Y044931D01*
X027952Y045038D01*
X027845Y04512D01*
X02772Y045172D01*
X027587Y045189D01*
X027453Y045172D01*
X027329Y04512D01*
X027222Y045038D01*
X02714Y044931D01*
X027114Y044869D01*
X02706D01*
X027034Y044931D01*
X026952Y045038D01*
X026845Y04512D01*
X02672Y045172D01*
X026587Y045189D01*
X026453Y045172D01*
X026328Y04512D01*
X026222Y045038D01*
X02614Y044931D01*
X026114Y044869D01*
X02606D01*
X026034Y044931D01*
X025952Y045038D01*
X025845Y04512D01*
X02572Y045172D01*
X025587Y045189D01*
X025453Y045172D01*
X025329Y04512D01*
X025222Y045038D01*
X02514Y044931D01*
X025088Y044807D01*
X02507Y044673D01*
X025088Y04454D01*
X02514Y044415D01*
X025183Y044358D01*
X025189Y044267D01*
X025189Y044237D01*
X02519Y044235D01*
Y043988D01*
X024598D01*
X024496Y043974D01*
X0244Y043934D01*
X024318Y043871D01*
X024255Y043789D01*
X024215Y043693D01*
X024201Y043591D01*
Y041402D01*
X024215Y041299D01*
X024255Y041203D01*
X024318Y041121D01*
X0244Y041058D01*
X024496Y041018D01*
X024598Y041004D01*
X026535D01*
X026557Y041007D01*
X026579Y041004D01*
X026985D01*
X026986Y041004D01*
X027048Y041001D01*
X027088Y040994D01*
X027117Y040984D01*
X027136Y040974D01*
X027149Y040964D01*
X027159Y040951D01*
X027169Y040932D01*
X027179Y040903D01*
X027186Y040863D01*
X027189Y0408D01*
X02719Y0408D01*
Y037551D01*
X027184Y037537D01*
X02717Y037429D01*
X027184Y037321D01*
X02719Y037308D01*
Y03113D01*
X027203Y031027D01*
X027243Y030931D01*
X027306Y030849D01*
X027388Y030786D01*
X027484Y030746D01*
X027587Y030733D01*
X035426D01*
Y027519D01*
X03542Y027506D01*
X035406Y027398D01*
X03542Y02729D01*
X035462Y027189D01*
X035528Y027103D01*
X035614Y027037D01*
X035715Y026995D01*
X035823Y026981D01*
X035931Y026995D01*
X036031Y027037D01*
X036118Y027103D01*
X036184Y027189D01*
X036226Y02729D01*
X03624Y027398D01*
X036226Y027506D01*
X03622Y027519D01*
Y03113D01*
X036206Y031233D01*
X036167Y031328D01*
X036104Y031411D01*
X036021Y031474D01*
X035926Y031513D01*
X035823Y031527D01*
X027984D01*
Y037308D01*
X027989Y037321D01*
X028004Y037429D01*
X027989Y037537D01*
X027984Y037551D01*
Y041402D01*
Y042283D01*
X028028Y04239D01*
X028043Y042508D01*
X028028Y042626D01*
X027982Y042736D01*
X02791Y042831D01*
X027815Y042903D01*
X027705Y042949D01*
X027587Y042965D01*
X027468Y042949D01*
X027358Y042903D01*
X027264Y042831D01*
X027191Y042736D01*
X027146Y042626D01*
X02713Y042508D01*
X027146Y04239D01*
X02719Y042283D01*
Y042003D01*
X027189Y042003D01*
X027186Y04194D01*
X027179Y0419D01*
X027169Y041871D01*
X027159Y041852D01*
X027149Y041839D01*
X027136Y041829D01*
X027117Y041819D01*
X027088Y041809D01*
X027048Y041802D01*
X026986Y041799D01*
X026985Y041799D01*
X026885D01*
X026878Y0419D01*
X026878Y041967D01*
X026877Y041973D01*
Y042104D01*
X026878Y042109D01*
X026878Y042127D01*
X026879Y042137D01*
X02688Y042145D01*
X026881Y042151D01*
X026881Y042152D01*
X026882Y042153D01*
X026883Y042154D01*
X026883Y042155D01*
X02694Y042229D01*
X026981Y042329D01*
X026996Y042437D01*
X026981Y042545D01*
X02694Y042645D01*
X026874Y042732D01*
X026787Y042798D01*
X026687Y04284D01*
X026579Y042854D01*
X026471Y04284D01*
X02637Y042798D01*
X026284Y042732D01*
X026218Y042645D01*
X026176Y042545D01*
X026162Y042437D01*
X026176Y042329D01*
X026218Y042229D01*
X026274Y042155D01*
X026275Y042154D01*
X026275Y042153D01*
X026276Y042152D01*
X026276Y042151D01*
X026277Y042148D01*
X026279Y042124D01*
X02628Y042109D01*
X026281Y042104D01*
Y041973D01*
X02628Y041967D01*
X026279Y041896D01*
X026276Y041799D01*
X024996D01*
Y043193D01*
X025587D01*
X025689Y043207D01*
X025785Y043247D01*
X025867Y04331D01*
X025931Y043392D01*
X02597Y043488D01*
X025984Y043591D01*
Y044232D01*
X025984Y044234D01*
X025986Y044326D01*
X025989Y044356D01*
X026034Y044415D01*
X02606Y044478D01*
X026114D01*
X02614Y044415D01*
X026183Y044358D01*
X026189Y044267D01*
X026189Y044237D01*
X02619Y044235D01*
Y043732D01*
X026146Y043626D01*
X02613Y043508D01*
X026146Y04339D01*
X026191Y04328D01*
X026264Y043185D01*
X026358Y043112D01*
X026468Y043067D01*
X026587Y043051D01*
X026705Y043067D01*
X026815Y043112D01*
X02691Y043185D01*
X026982Y04328D01*
X027028Y04339D01*
X027043Y043508D01*
X027028Y043626D01*
X026984Y043732D01*
Y044232D01*
X026984Y044234D01*
X026986Y044326D01*
X026988Y044356D01*
X027034Y044415D01*
X02706Y044478D01*
X027114D01*
X02714Y044415D01*
X027222Y044308D01*
X027225Y044306D01*
X027252Y044278D01*
X027298Y044226D01*
X027312Y044207D01*
X027324Y04419D01*
X027332Y044176D01*
X027336Y044167D01*
Y044114D01*
X027355Y044018D01*
X027409Y043937D01*
X028673Y042673D01*
X028754Y042619D01*
X02885Y0426D01*
X039084D01*
X039729Y041954D01*
Y041595D01*
X039679Y041584D01*
X039657Y041599D01*
X039654Y0416D01*
X03965Y041602D01*
X039615Y041607D01*
X03958Y041614D01*
X039577Y041613D01*
X039573Y041614D01*
X039538Y041606D01*
X039504Y041599D01*
X0395Y041597D01*
X039497Y041596D01*
X03947Y041576D01*
X0394Y041562D01*
X039319Y041508D01*
X039264Y041427D01*
X039245Y041331D01*
X039264Y041235D01*
X039319Y041153D01*
X0394Y041099D01*
X03947Y041085D01*
X039497Y041066D01*
X0395Y041065D01*
X039504Y041063D01*
X039533Y041057D01*
Y040613D01*
X03952Y040612D01*
X039458Y040586D01*
X039404Y040545D01*
X039363Y040491D01*
X039337Y040429D01*
X039328Y040362D01*
Y039772D01*
X039331Y039749D01*
X039331Y039749D01*
X039332Y039748D01*
X039332Y039743D01*
X039332Y039739D01*
X039336Y039659D01*
X039333Y039609D01*
X039249D01*
X039235Y039609D01*
X039229Y03961D01*
X039228Y03961D01*
X039228Y03961D01*
X039223Y03961D01*
X039221Y03961D01*
X039197Y039613D01*
X039196Y039613D01*
X039196Y039613D01*
X039173Y039616D01*
X038583D01*
X038516Y039608D01*
X038454Y039582D01*
X0384Y039541D01*
X038359Y039487D01*
X038333Y039425D01*
X038325Y039358D01*
X038333Y039291D01*
X038346Y03926D01*
X038333Y039228D01*
X038325Y039161D01*
X038333Y039095D01*
X038346Y039063D01*
X038333Y039031D01*
X038325Y038965D01*
X038333Y038898D01*
X038346Y038866D01*
X038333Y038835D01*
X038332Y038822D01*
X036974D01*
X036618Y039178D01*
X036614Y039187D01*
X03661Y039202D01*
X036606Y039223D01*
X036603Y039246D01*
X036599Y039316D01*
X036598Y039354D01*
X036599Y039358D01*
X036581Y039492D01*
X03653Y039616D01*
X036448Y039723D01*
X036341Y039805D01*
X036216Y039857D01*
X036083Y039874D01*
X035949Y039857D01*
X035825Y039805D01*
X035718Y039723D01*
X035636Y039616D01*
X035584Y039492D01*
X035566Y039358D01*
X035584Y039225D01*
X035636Y0391D01*
X035718Y038993D01*
X035825Y038911D01*
X035949Y03886D01*
X036083Y038842D01*
X036087Y038843D01*
X036125Y038842D01*
X036195Y038838D01*
X036218Y038835D01*
X036239Y038831D01*
X036254Y038827D01*
X036263Y038823D01*
X036689Y038398D01*
X036263Y037972D01*
X036254Y037969D01*
X036239Y037965D01*
X036218Y037961D01*
X036195Y037957D01*
X036125Y037953D01*
X036087Y037953D01*
X036083Y037953D01*
X035949Y037936D01*
X035825Y037884D01*
X035718Y037802D01*
X035636Y037695D01*
X035584Y037571D01*
X035566Y037437D01*
X035584Y037303D01*
X035636Y037179D01*
X035718Y037072D01*
X035825Y03699D01*
X035879Y036967D01*
X035882Y036956D01*
X035846Y036901D01*
X035819Y036897D01*
X035743Y036866D01*
X035677Y036815D01*
X035626Y036749D01*
X035595Y036673D01*
X035584Y036591D01*
X035595Y036508D01*
X035626Y036432D01*
X035656Y036394D01*
X035626Y036356D01*
X035595Y036279D01*
X035584Y036197D01*
X035595Y036115D01*
X035626Y036038D01*
X035677Y035972D01*
X035743Y035922D01*
X035819Y03589D01*
X035902Y035879D01*
X035984Y03589D01*
X03606Y035922D01*
X036126Y035972D01*
X036177Y036038D01*
X036208Y036115D01*
X036209Y036122D01*
X036242Y036155D01*
X038507D01*
X038521Y036154D01*
X038527Y036154D01*
X038527Y036154D01*
X038528Y036154D01*
X038533Y036154D01*
X038535Y036154D01*
X038559Y036151D01*
X03856Y03615D01*
X03856Y03615D01*
X038583Y036147D01*
X039173D01*
X03924Y036156D01*
X039302Y036182D01*
X039356Y036223D01*
X039397Y036276D01*
X039423Y036339D01*
X039431Y036406D01*
X039423Y036472D01*
X039409Y036504D01*
X039423Y036536D01*
X039431Y036602D01*
X039423Y036669D01*
X039409Y036701D01*
X039423Y036732D01*
X039424Y036745D01*
X039781D01*
X039799Y03672D01*
X039809Y036695D01*
X03978Y036626D01*
X039769Y036543D01*
X03978Y036461D01*
X039804Y036403D01*
X039803Y036402D01*
X039749Y03632D01*
X039737Y03626D01*
X039681Y03623D01*
X039653Y036241D01*
X039587Y03625D01*
X03952Y036241D01*
X039458Y036216D01*
X039404Y036175D01*
X039363Y036121D01*
X039337Y036059D01*
X039328Y035992D01*
Y035402D01*
X039331Y035379D01*
X039331Y035379D01*
X039332Y035378D01*
X039332Y035373D01*
X039332Y035369D01*
X039336Y035287D01*
Y03523D01*
X038425Y034319D01*
X038371Y034238D01*
X038351Y034142D01*
Y033886D01*
X038169D01*
Y033138D01*
Y032469D01*
X038303D01*
X038303Y032464D01*
X038305Y032459D01*
Y03052D01*
X038263Y030492D01*
X038221Y03051D01*
X038118Y030523D01*
X038015Y03051D01*
X03792Y03047D01*
X037837Y030407D01*
X037774Y030325D01*
X037735Y030229D01*
X037721Y030126D01*
X037735Y030023D01*
X037774Y029927D01*
X037837Y029845D01*
X03792Y029782D01*
X038015Y029742D01*
X038098Y029732D01*
X038118Y029681D01*
X037398Y028961D01*
X03735Y028899D01*
X037321Y028827D01*
X03731Y02875D01*
Y02471D01*
X037309Y024705D01*
X037309Y024701D01*
X037126D01*
Y024685D01*
X03712Y024684D01*
X036273D01*
X036264Y024692D01*
X036255Y024714D01*
X036205Y02478D01*
X036139Y02483D01*
X036063Y024862D01*
X03598Y024873D01*
X035898Y024862D01*
X035821Y02483D01*
X035756Y02478D01*
X035705Y024714D01*
X035673Y024637D01*
X035663Y024555D01*
X035673Y024473D01*
X035705Y024396D01*
X035756Y02433D01*
X035821Y02428D01*
X035843Y024271D01*
X035875Y024239D01*
X035864Y02418D01*
X035818Y024161D01*
X035752Y02411D01*
X035701Y024045D01*
X03567Y023968D01*
X035659Y023886D01*
X03567Y023804D01*
X035701Y023727D01*
X035752Y023661D01*
X035818Y023611D01*
X035894Y023579D01*
X035976Y023568D01*
X036059Y023579D01*
X03608Y023588D01*
X037119D01*
X037125Y023587D01*
X037126Y023587D01*
Y023071D01*
X037588D01*
X037608Y023068D01*
X037629Y023071D01*
X038091D01*
Y023587D01*
X038097Y023588D01*
X038622D01*
X038622Y023588D01*
X038699Y023598D01*
X038771Y023628D01*
X038833Y023675D01*
X039049Y023892D01*
X039049Y023892D01*
X039097Y023953D01*
X039126Y024025D01*
X039136Y024102D01*
X039136Y024102D01*
Y02512D01*
X039145Y025142D01*
X039156Y025224D01*
X039145Y025307D01*
X039114Y025383D01*
X039063Y025449D01*
X038997Y0255D01*
X038921Y025531D01*
X038839Y025542D01*
X038756Y025531D01*
X03868Y0255D01*
X038614Y025449D01*
X038563Y025383D01*
X038532Y025307D01*
X038521Y025224D01*
X038532Y025142D01*
X038541Y02512D01*
Y024226D01*
X038499Y024184D01*
X038098D01*
X038091Y024185D01*
X038091Y024185D01*
Y024701D01*
X037907D01*
X037907Y024705D01*
X037906Y02471D01*
Y028627D01*
X038813Y029534D01*
X038813Y029534D01*
X03886Y029595D01*
X03889Y029667D01*
X038899Y029731D01*
X038926Y029754D01*
X03895Y029764D01*
X039003Y029742D01*
X039105Y029729D01*
X039208Y029742D01*
X039237Y029755D01*
X039279Y029727D01*
Y028935D01*
X039289Y028858D01*
X039319Y028786D01*
X039366Y028724D01*
X040253Y027837D01*
Y024744D01*
X040236Y024701D01*
X040055D01*
X040055Y024705D01*
X040054Y02471D01*
Y025121D01*
X040061Y025138D01*
X040072Y02522D01*
X040061Y025303D01*
X040029Y025379D01*
X039979Y025445D01*
X039913Y025496D01*
X039836Y025527D01*
X039754Y025538D01*
X039672Y025527D01*
X039595Y025496D01*
X039529Y025445D01*
X039479Y025379D01*
X039447Y025303D01*
X039436Y02522D01*
X039447Y025138D01*
X039458Y025112D01*
Y02471D01*
X039457Y024705D01*
X039457Y024701D01*
X039272D01*
Y024071D01*
Y023571D01*
Y023071D01*
Y022571D01*
X040011D01*
X040015Y02257D01*
X040026Y022571D01*
X040038Y022568D01*
X040052Y022571D01*
X040236D01*
Y022571D01*
X040286Y022583D01*
X040317Y022577D01*
X040352Y022554D01*
Y01828D01*
X040351D01*
X040365Y018101D01*
X040407Y017926D01*
X040476Y01776D01*
X04057Y017607D01*
X040686Y01747D01*
X040686Y017469D01*
X04084Y017338D01*
X041014Y017232D01*
X041201Y017154D01*
X041399Y017106D01*
X041601Y017091D01*
Y017092D01*
X042041D01*
X042051Y017042D01*
X041987Y017015D01*
X041921Y016965D01*
X041871Y016899D01*
X041839Y016822D01*
X041828Y01674D01*
X041839Y016658D01*
X041848Y016636D01*
Y015346D01*
X038563D01*
X038486Y015331D01*
X038421Y015288D01*
X038224Y015091D01*
X038181Y015026D01*
X038165Y014949D01*
Y014358D01*
X038181Y014281D01*
X038224Y014216D01*
X038421Y014019D01*
X038486Y013976D01*
X038563Y013961D01*
X041236D01*
X041315Y013881D01*
Y01298D01*
X04133Y012904D01*
X041374Y012838D01*
X041531Y012681D01*
X041596Y012637D01*
X041673Y012622D01*
X0425D01*
X042577Y012637D01*
X042642Y012681D01*
X042839Y012878D01*
X042882Y012943D01*
X042898Y01302D01*
Y014949D01*
X042882Y015026D01*
X042839Y015091D01*
X042642Y015288D01*
X042577Y015331D01*
X0425Y015346D01*
X042443D01*
Y016636D01*
X042453Y016658D01*
X042463Y01674D01*
X042453Y016822D01*
X042421Y016899D01*
X04237Y016965D01*
X042305Y017015D01*
X04224Y017042D01*
X04225Y017092D01*
X059076D01*
X059079Y017092D01*
X059173Y01708D01*
X059263Y017042D01*
X059303Y017012D01*
X05934Y016982D01*
X059366Y016944D01*
X059375Y016898D01*
X059375D01*
Y015779D01*
X059232D01*
X059155Y015764D01*
X05909Y015721D01*
X058894Y015524D01*
X05885Y015459D01*
X058835Y015382D01*
Y013693D01*
X058637Y013496D01*
X058248D01*
X058171Y013481D01*
X058106Y013437D01*
X057437Y012768D01*
X057393Y012703D01*
X057378Y012626D01*
Y01172D01*
X057393Y011644D01*
X057437Y011579D01*
X057949Y011067D01*
X058014Y011023D01*
X058091Y011008D01*
X059783D01*
X05986Y011023D01*
X059925Y011067D01*
X060266Y011408D01*
X060312Y011388D01*
Y007977D01*
X060262Y00797D01*
X060251Y008006D01*
X060169Y00816D01*
X060059Y008295D01*
X059924Y008405D01*
X05977Y008488D01*
X059603Y008538D01*
X059429Y008555D01*
X059255Y008538D01*
X059089Y008488D01*
X058935Y008405D01*
X0588Y008295D01*
X058689Y00816D01*
X058607Y008006D01*
X058556Y007839D01*
X058539Y007665D01*
X058556Y007492D01*
X058607Y007325D01*
X058689Y007171D01*
X0588Y007036D01*
X058935Y006925D01*
X059089Y006843D01*
X059125Y006832D01*
X059117Y006782D01*
X054092D01*
X054073Y006828D01*
X054689Y007445D01*
X054733Y00751D01*
X054748Y007587D01*
Y00896D01*
X054788Y009D01*
X058799D01*
X058876Y009015D01*
X058941Y009059D01*
X059374Y009492D01*
X059418Y009557D01*
X059433Y009634D01*
Y010264D01*
X059418Y010341D01*
X059374Y010406D01*
X059099Y010681D01*
X059033Y010725D01*
X058957Y01074D01*
X054788D01*
X054748Y01078D01*
Y014122D01*
X054733Y014199D01*
X054689Y014264D01*
X054453Y0145D01*
X054388Y014544D01*
X054311Y014559D01*
X053484D01*
X053407Y014544D01*
X053342Y0145D01*
X053185Y014343D01*
X053141Y014278D01*
X053126Y014201D01*
Y010111D01*
X052063Y009047D01*
X047815D01*
X047738Y009032D01*
X047673Y008988D01*
X047279Y008595D01*
X047236Y00853D01*
X047221Y008453D01*
Y006878D01*
X04723Y006832D01*
X047193Y006782D01*
X022733D01*
X022726Y006832D01*
X022762Y006843D01*
X022916Y006925D01*
X023051Y007036D01*
X023161Y007171D01*
X023244Y007325D01*
X023294Y007492D01*
X023311Y007665D01*
X023294Y007839D01*
X023244Y008006D01*
X023161Y00816D01*
X023051Y008295D01*
X022916Y008405D01*
X022762Y008488D01*
X022595Y008538D01*
X022421Y008555D01*
X022248Y008538D01*
X022081Y008488D01*
X021927Y008405D01*
X021792Y008295D01*
X021681Y00816D01*
X021599Y008006D01*
X021588Y00797D01*
X021538Y007977D01*
Y017508D01*
X023189D01*
Y018531D01*
X021538D01*
Y028965D01*
X021883D01*
X021888Y028963D01*
X021921Y02896D01*
X021925Y028958D01*
X021929Y028956D01*
X021938Y028946D01*
X021951Y028924D01*
X021967Y028886D01*
X021982Y028831D01*
X021994Y028759D01*
X022001Y028673D01*
X022004Y028584D01*
Y028295D01*
Y027983D01*
X022003Y02793D01*
X021997Y027749D01*
X021988Y027646D01*
X021929D01*
Y027462D01*
X021926Y02745D01*
X021927Y027449D01*
X021926Y027448D01*
X021929Y027434D01*
Y025165D01*
X023071D01*
Y027434D01*
X023074Y027448D01*
X023073Y027449D01*
X023074Y02745D01*
X023071Y027462D01*
Y027646D01*
X023017D01*
X023006Y027805D01*
X023012Y027881D01*
X023023Y02794D01*
X023033Y027976D01*
X023272Y027995D01*
X023371Y027996D01*
X023377Y027997D01*
X024679D01*
Y027376D01*
X02467Y027354D01*
X024659Y027272D01*
X02467Y027189D01*
X024701Y027113D01*
X024752Y027047D01*
X024818Y026997D01*
X024894Y026965D01*
X024976Y026954D01*
X025059Y026965D01*
X025135Y026997D01*
X025201Y027047D01*
X025251Y027113D01*
X025283Y027189D01*
X025294Y027272D01*
X025283Y027354D01*
X025274Y027376D01*
Y028295D01*
X025264Y028372D01*
X025234Y028444D01*
X025187Y028506D01*
X025125Y028553D01*
X025053Y028583D01*
X024976Y028593D01*
X023379D01*
X023373Y028594D01*
X023177Y028599D01*
X023034Y02861D01*
X023023Y028651D01*
X023012Y028712D01*
X023004Y028778D01*
X023012Y028845D01*
X023023Y028906D01*
X023035Y028951D01*
X02304Y028965D01*
X023189D01*
Y029149D01*
X023192Y029163D01*
X023189Y029176D01*
Y02919D01*
X023189Y029194D01*
X023189Y029195D01*
Y029988D01*
X022666D01*
X02265Y030221D01*
X02265Y030237D01*
X022685Y030273D01*
X023524D01*
X023613Y030284D01*
X023696Y030319D01*
X023768Y030374D01*
X023823Y030445D01*
X023857Y030529D01*
X023869Y030618D01*
Y035745D01*
X024595D01*
X024618Y035748D01*
X025235D01*
Y036433D01*
X024618D01*
X024595Y036436D01*
X023524D01*
X023434Y036424D01*
X023351Y03639D01*
X023279Y036335D01*
X023224Y036263D01*
X02319Y03618D01*
X023178Y036091D01*
Y033021D01*
X023128Y033003D01*
X023051Y033098D01*
X022916Y033209D01*
X022762Y033291D01*
X022595Y033342D01*
X022421Y033359D01*
X022248Y033342D01*
X022081Y033291D01*
X021927Y033209D01*
X021792Y033098D01*
X021681Y032963D01*
X021599Y032809D01*
X021588Y032773D01*
X021538Y032781D01*
Y044361D01*
X021588Y044369D01*
X021599Y044333D01*
X021681Y044179D01*
X021792Y044044D01*
X021927Y043933D01*
X022081Y043851D01*
X022248Y0438D01*
X022421Y043783D01*
X022595Y0438D01*
X022762Y043851D01*
X022916Y043933D01*
X023051Y044044D01*
X023161Y044179D01*
X023244Y044333D01*
X023294Y0445D01*
X023311Y044673D01*
X023294Y044847D01*
X023244Y045014D01*
X023161Y045168D01*
X023051Y045303D01*
X022916Y045413D01*
X022762Y045496D01*
X022726Y045507D01*
X022733Y045557D01*
X051637D01*
X051644Y045507D01*
X051608Y045496D01*
X051454Y045413D01*
X051319Y045303D01*
X051209Y045168D01*
X051126Y045014D01*
X051076Y044847D01*
X051059Y044673D01*
X051076Y0445D01*
X051126Y044333D01*
X051209Y044179D01*
X051319Y044044D01*
X051454Y043933D01*
X051608Y043851D01*
X051775Y0438D01*
X051949Y043783D01*
X052122Y0438D01*
X052289Y043851D01*
X052443Y043933D01*
X052578Y044044D01*
X052689Y044179D01*
X052771Y044333D01*
X052822Y0445D01*
X052839Y044673D01*
X052822Y044847D01*
X052771Y045014D01*
X052689Y045168D01*
X052578Y045303D01*
X052443Y045413D01*
X052289Y045496D01*
X052253Y045507D01*
X052261Y045557D01*
X059117D01*
X059125Y045507D01*
D02*
G37*
%LPC*%
G36*
X056673Y02381D02*
X056557Y023799D01*
X056446Y023765D01*
X056344Y02371D01*
X056254Y023636D01*
X05618Y023546D01*
X056125Y023444D01*
X056091Y023332D01*
X05608Y023217D01*
X056091Y023101D01*
X056125Y022989D01*
X05618Y022887D01*
X056254Y022797D01*
X056344Y022723D01*
X056446Y022668D01*
X056557Y022635D01*
X056673Y022623D01*
X056789Y022635D01*
X0569Y022668D01*
X057003Y022723D01*
X057093Y022797D01*
X057167Y022887D01*
X057221Y022989D01*
X057255Y023101D01*
X057267Y023217D01*
X057255Y023332D01*
X057221Y023444D01*
X057167Y023546D01*
X057093Y023636D01*
X057003Y02371D01*
X0569Y023765D01*
X056789Y023799D01*
X056673Y02381D01*
D02*
G37*
G36*
X030766Y024342D02*
X030648Y024327D01*
X030537Y024281D01*
X030443Y024209D01*
X03037Y024114D01*
X030325Y024004D01*
X030309Y023886D01*
X030325Y023768D01*
X03037Y023657D01*
X030443Y023563D01*
X030537Y02349D01*
X030648Y023445D01*
X030766Y023429D01*
X030884Y023445D01*
X030994Y02349D01*
X031089Y023563D01*
X031161Y023657D01*
X031207Y023768D01*
X031222Y023886D01*
X031207Y024004D01*
X031161Y024114D01*
X031089Y024209D01*
X030994Y024281D01*
X030884Y024327D01*
X030766Y024342D01*
D02*
G37*
G36*
X032892Y0269D02*
X032879Y026898D01*
X031634D01*
Y025904D01*
X031634Y025894D01*
Y025854D01*
X031634Y025844D01*
Y02485D01*
X031921D01*
X031924Y024843D01*
X031932Y024814D01*
X031939Y024772D01*
X031943Y024718D01*
X031945Y024649D01*
X031945Y024648D01*
Y021846D01*
Y010929D01*
X03194Y010915D01*
X031926Y010807D01*
X03194Y010699D01*
X031981Y010599D01*
X032048Y010512D01*
X032134Y010446D01*
X032235Y010404D01*
X032343Y01039D01*
X03245Y010404D01*
X032551Y010446D01*
X032637Y010512D01*
X032704Y010599D01*
X032745Y010699D01*
X032759Y010807D01*
X032745Y010915D01*
X03274Y010929D01*
Y021489D01*
X033701D01*
X033807Y021445D01*
X033925Y021429D01*
X034043Y021445D01*
X034153Y02149D01*
X034248Y021563D01*
X034321Y021657D01*
X034366Y021768D01*
X034382Y021886D01*
X034366Y022004D01*
X034321Y022114D01*
X034248Y022209D01*
X034153Y022281D01*
X034043Y022327D01*
X033925Y022342D01*
X033807Y022327D01*
X033701Y022283D01*
X03274D01*
Y024648D01*
X03274Y024649D01*
X032742Y024718D01*
X032747Y024772D01*
X032753Y024814D01*
X032761Y024843D01*
X032764Y02485D01*
X033091D01*
Y025844D01*
X033091Y025854D01*
Y025894D01*
X033091Y025904D01*
Y025987D01*
X033107Y025989D01*
X03322Y025997D01*
X033289Y025998D01*
X033291Y025999D01*
X033528D01*
Y02411D01*
X033484Y024004D01*
X033469Y023886D01*
X033484Y023768D01*
X03353Y023657D01*
X033602Y023563D01*
X033697Y02349D01*
X033807Y023445D01*
X033925Y023429D01*
X034043Y023445D01*
X034153Y02349D01*
X034248Y023563D01*
X034321Y023657D01*
X034366Y023768D01*
X034382Y023886D01*
X034366Y024004D01*
X034322Y02411D01*
Y026244D01*
X034309Y026347D01*
X034269Y026443D01*
X034206Y026525D01*
X034054Y026676D01*
X033972Y02674D01*
X033876Y026779D01*
X033774Y026793D01*
X033294D01*
X033292Y026793D01*
X033157Y026797D01*
X033109Y026802D01*
X033091Y026804D01*
Y026898D01*
X032906D01*
X032892Y0269D01*
D02*
G37*
G36*
X028051Y023633D02*
X028015Y023629D01*
X027668D01*
X027575Y02361D01*
X027496Y023557D01*
X027443Y023478D01*
X027424Y023385D01*
Y023048D01*
X027443Y022955D01*
X027496Y022876D01*
X027575Y022823D01*
X027668Y022804D01*
X028015D01*
X028051Y0228D01*
X028088Y022804D01*
X028434D01*
X028527Y022823D01*
X028607Y022876D01*
X028659Y022955D01*
X028678Y023048D01*
Y023385D01*
X028659Y023478D01*
X028607Y023557D01*
X028527Y02361D01*
X028434Y023629D01*
X028088D01*
X028051Y023633D01*
D02*
G37*
G36*
X042705Y012311D02*
X041524D01*
Y011425D01*
X042705D01*
Y012311D01*
D02*
G37*
G36*
X022854Y015543D02*
X021988D01*
X021911Y015528D01*
X021908Y015526D01*
X021791D01*
Y015362D01*
X021787Y015343D01*
Y011484D01*
X021803Y011407D01*
X021846Y011342D01*
X022161Y011027D01*
X022226Y010984D01*
X022303Y010969D01*
X023563D01*
X02364Y010984D01*
X023705Y011027D01*
X023981Y011303D01*
X024024Y011368D01*
X024039Y011445D01*
Y012626D01*
X024024Y012703D01*
X023981Y012768D01*
X023055Y013693D01*
Y015343D01*
X02304Y015419D01*
X022996Y015484D01*
X022931Y015528D01*
X022854Y015543D01*
D02*
G37*
G36*
X02737Y018463D02*
X027288Y018453D01*
X027211Y018421D01*
X027145Y01837D01*
X027095Y018305D01*
X027086Y018283D01*
X026841Y018037D01*
X026793Y017976D01*
X026764Y017904D01*
X026753Y017827D01*
Y016844D01*
X026744Y016822D01*
X026734Y01674D01*
X026744Y016658D01*
X026776Y016581D01*
X026827Y016516D01*
X026892Y016465D01*
X026969Y016433D01*
X026989Y016431D01*
Y01638D01*
X026969Y016378D01*
X026892Y016346D01*
X026827Y016295D01*
X026776Y01623D01*
X026744Y016153D01*
X026734Y016071D01*
X026744Y015989D01*
X026776Y015912D01*
X026827Y015846D01*
X026892Y015796D01*
X026969Y015764D01*
X027051Y015753D01*
X027133Y015764D01*
X027155Y015773D01*
X029483D01*
X029753Y015503D01*
Y015272D01*
X029752Y015268D01*
X029751Y015246D01*
X029749Y015234D01*
X029745Y01522D01*
X029739Y015204D01*
X029731Y015185D01*
X029719Y015165D01*
X029705Y015145D01*
X02966Y01509D01*
X029632Y015061D01*
X029628Y015055D01*
X029558Y014969D01*
X029503Y014867D01*
X029469Y014756D01*
X029458Y01464D01*
X029469Y014524D01*
X029503Y014413D01*
X029558Y01431D01*
X029632Y01422D01*
X029722Y014146D01*
X029824Y014092D01*
X029935Y014058D01*
X030051Y014046D01*
X030167Y014058D01*
X030278Y014092D01*
X030381Y014146D01*
X030471Y01422D01*
X030545Y01431D01*
X030599Y014413D01*
X030633Y014524D01*
X030645Y01464D01*
X030633Y014756D01*
X030599Y014867D01*
X030545Y014969D01*
X030475Y015055D01*
X030471Y015061D01*
X030441Y015092D01*
X030418Y015118D01*
X030399Y015142D01*
X030384Y015165D01*
X030372Y015185D01*
X030363Y015204D01*
X030357Y01522D01*
X030353Y015234D01*
X030351Y015246D01*
X03035Y015268D01*
X030349Y015272D01*
Y015626D01*
X030339Y015703D01*
X030309Y015775D01*
X030262Y015837D01*
X029817Y016281D01*
X029755Y016329D01*
X029683Y016359D01*
X029606Y016369D01*
X027155D01*
X027133Y016378D01*
X027114Y01638D01*
Y016431D01*
X027133Y016433D01*
X02721Y016465D01*
X027276Y016516D01*
X027326Y016581D01*
X027358Y016658D01*
X027369Y01674D01*
X027358Y016822D01*
X027349Y016844D01*
Y017703D01*
X027507Y017862D01*
X027529Y017871D01*
X027595Y017921D01*
X027645Y017987D01*
X027677Y018063D01*
X027688Y018146D01*
X027677Y018228D01*
X027645Y018305D01*
X027595Y01837D01*
X027529Y018421D01*
X027452Y018453D01*
X02737Y018463D01*
D02*
G37*
G36*
X026051Y017058D02*
X025969Y017047D01*
X025892Y017015D01*
X025827Y016965D01*
X025776Y016899D01*
X025744Y016822D01*
X025733Y01674D01*
X025744Y016658D01*
X025753Y016636D01*
Y015272D01*
X025752Y015268D01*
X025751Y015246D01*
X025749Y015234D01*
X025745Y01522D01*
X025739Y015204D01*
X025731Y015185D01*
X025719Y015165D01*
X025705Y015145D01*
X02566Y01509D01*
X025632Y015061D01*
X025628Y015054D01*
X025558Y014969D01*
X025503Y014867D01*
X025469Y014756D01*
X025458Y01464D01*
X025469Y014524D01*
X025503Y014413D01*
X025558Y01431D01*
X025632Y01422D01*
X025721Y014146D01*
X025824Y014092D01*
X025935Y014058D01*
X026051Y014046D01*
X026167Y014058D01*
X026278Y014092D01*
X026381Y014146D01*
X026471Y01422D01*
X026545Y01431D01*
X026599Y014413D01*
X026633Y014524D01*
X026645Y01464D01*
X026633Y014756D01*
X026599Y014867D01*
X026545Y014969D01*
X026475Y015055D01*
X026471Y015061D01*
X026441Y015092D01*
X026418Y015118D01*
X026399Y015142D01*
X026384Y015165D01*
X026372Y015185D01*
X026363Y015204D01*
X026357Y01522D01*
X026353Y015234D01*
X026351Y015246D01*
X02635Y015268D01*
X026349Y015272D01*
Y016636D01*
X026358Y016658D01*
X026369Y01674D01*
X026358Y016822D01*
X026326Y016899D01*
X026276Y016965D01*
X02621Y017015D01*
X026133Y017047D01*
X026051Y017058D01*
D02*
G37*
G36*
X028602Y015425D02*
X027579D01*
X027502Y01541D01*
X027437Y015366D01*
X027082Y015012D01*
X027039Y014947D01*
X027024Y01487D01*
Y013851D01*
X023913Y01074D01*
X022894D01*
X022817Y010725D01*
X022752Y010681D01*
X022437Y010366D01*
X022393Y010301D01*
X022378Y010224D01*
Y009791D01*
X022393Y009715D01*
X022437Y009649D01*
X022791Y009295D01*
X022856Y009252D01*
X022933Y009236D01*
X028287D01*
X028364Y009252D01*
X028429Y009295D01*
X029099Y009964D01*
X029142Y010029D01*
X029157Y010106D01*
Y01487D01*
X029142Y014947D01*
X029099Y015012D01*
X028744Y015366D01*
X028679Y01541D01*
X028602Y015425D01*
D02*
G37*
G36*
X044154Y008766D02*
X043976Y008749D01*
X043805Y008697D01*
X043648Y008613D01*
X04351Y0085D01*
X043397Y008362D01*
X043313Y008205D01*
X043261Y008034D01*
X043244Y007856D01*
X043261Y007679D01*
X043313Y007508D01*
X043397Y007351D01*
X04351Y007213D01*
X043648Y0071D01*
X043805Y007016D01*
X043976Y006964D01*
X044154Y006946D01*
X044331Y006964D01*
X044502Y007016D01*
X044659Y0071D01*
X044797Y007213D01*
X04491Y007351D01*
X044994Y007508D01*
X045046Y007679D01*
X045063Y007856D01*
X045046Y008034D01*
X044994Y008205D01*
X04491Y008362D01*
X044797Y0085D01*
X044659Y008613D01*
X044502Y008697D01*
X044331Y008749D01*
X044154Y008766D01*
D02*
G37*
G36*
X028051D02*
X027874Y008749D01*
X027703Y008697D01*
X027546Y008613D01*
X027408Y0085D01*
X027295Y008362D01*
X027211Y008205D01*
X027159Y008034D01*
X027141Y007856D01*
X027159Y007679D01*
X027211Y007508D01*
X027295Y007351D01*
X027408Y007213D01*
X027546Y0071D01*
X027703Y007016D01*
X027874Y006964D01*
X028051Y006946D01*
X028229Y006964D01*
X028399Y007016D01*
X028557Y0071D01*
X028695Y007213D01*
X028808Y007351D01*
X028892Y007508D01*
X028944Y007679D01*
X028961Y007856D01*
X028944Y008034D01*
X028892Y008205D01*
X028808Y008362D01*
X028695Y0085D01*
X028557Y008613D01*
X028399Y008697D01*
X028229Y008749D01*
X028051Y008766D01*
D02*
G37*
G36*
X034154Y008568D02*
X034015Y008555D01*
X033881Y008514D01*
X033758Y008448D01*
X03365Y00836D01*
X033561Y008252D01*
X033496Y008129D01*
X033455Y007995D01*
X033441Y007856D01*
X033455Y007717D01*
X033496Y007584D01*
X033561Y007461D01*
X03365Y007353D01*
X033758Y007264D01*
X033881Y007198D01*
X034015Y007158D01*
X034154Y007144D01*
X034292Y007158D01*
X034426Y007198D01*
X034549Y007264D01*
X034657Y007353D01*
X034746Y007461D01*
X034811Y007584D01*
X034852Y007717D01*
X034866Y007856D01*
X034852Y007995D01*
X034811Y008129D01*
X034746Y008252D01*
X034657Y00836D01*
X034549Y008448D01*
X034426Y008514D01*
X034292Y008555D01*
X034154Y008568D01*
D02*
G37*
G36*
X044468Y015346D02*
X043878D01*
X043801Y015331D01*
X043736Y015288D01*
X043539Y015091D01*
X043496Y015026D01*
X04348Y014949D01*
Y011764D01*
X041039Y009323D01*
X037618D01*
X037541Y009307D01*
X037476Y009264D01*
X036964Y008752D01*
X036921Y008687D01*
X036906Y00861D01*
Y007665D01*
X036921Y007589D01*
X036964Y007523D01*
X037358Y00713D01*
X037423Y007086D01*
X0375Y007071D01*
X04187D01*
X041947Y007086D01*
X042012Y00713D01*
X042957Y008075D01*
X042957Y008075D01*
X045851Y010969D01*
X052264Y010969D01*
X052341Y010984D01*
X052406Y011027D01*
X052642Y011264D01*
X052685Y011329D01*
X052701Y011406D01*
Y012941D01*
X052685Y013018D01*
X052642Y013083D01*
X052406Y013319D01*
X052341Y013363D01*
X052264Y013378D01*
X04593D01*
X044905Y014402D01*
X044905Y014909D01*
X04489Y014986D01*
X044847Y015051D01*
X044807Y015091D01*
X04461Y015288D01*
X044545Y015331D01*
X044468Y015346D01*
D02*
G37*
G36*
X030766Y023342D02*
X030648Y023327D01*
X030537Y023281D01*
X030443Y023209D01*
X03037Y023114D01*
X030325Y023004D01*
X030309Y022886D01*
X030325Y022768D01*
X03037Y022657D01*
X030443Y022563D01*
X030537Y02249D01*
X030648Y022445D01*
X030766Y022429D01*
X030884Y022445D01*
X030994Y02249D01*
X031089Y022563D01*
X031161Y022657D01*
X031207Y022768D01*
X031222Y022886D01*
X031207Y023004D01*
X031161Y023114D01*
X031089Y023209D01*
X030994Y023281D01*
X030884Y023327D01*
X030766Y023342D01*
D02*
G37*
G36*
Y022342D02*
X030648Y022327D01*
X030537Y022281D01*
X030443Y022209D01*
X03037Y022114D01*
X030325Y022004D01*
X030309Y021886D01*
X030325Y021768D01*
X03037Y021657D01*
X030443Y021563D01*
X030537Y02149D01*
X030648Y021445D01*
X030766Y021429D01*
X030884Y021445D01*
X030994Y02149D01*
X031089Y021563D01*
X031161Y021657D01*
X031207Y021768D01*
X031222Y021886D01*
X031207Y022004D01*
X031161Y022114D01*
X031089Y022209D01*
X030994Y022281D01*
X030884Y022327D01*
X030766Y022342D01*
D02*
G37*
G36*
X049833Y025528D02*
X04975Y025517D01*
X049674Y025486D01*
X049608Y025435D01*
X049558Y025369D01*
X049526Y025293D01*
X049515Y025211D01*
X049526Y025128D01*
X049535Y025107D01*
Y02471D01*
X049534Y024705D01*
X049534Y024701D01*
X049378D01*
Y024071D01*
Y023571D01*
Y023071D01*
Y022571D01*
X050343D01*
Y023071D01*
Y023571D01*
Y024071D01*
Y024701D01*
X050132D01*
X050132Y024705D01*
X050131Y02471D01*
Y025107D01*
X05014Y025128D01*
X05015Y025211D01*
X05014Y025293D01*
X050108Y025369D01*
X050057Y025435D01*
X049992Y025486D01*
X049915Y025517D01*
X049833Y025528D01*
D02*
G37*
G36*
X033925Y023342D02*
X033807Y023327D01*
X033697Y023281D01*
X033602Y023209D01*
X03353Y023114D01*
X033484Y023004D01*
X033469Y022886D01*
X033484Y022768D01*
X03353Y022657D01*
X033602Y022563D01*
X033697Y02249D01*
X033807Y022445D01*
X033925Y022429D01*
X034043Y022445D01*
X034153Y02249D01*
X034248Y022563D01*
X034321Y022657D01*
X034366Y022768D01*
X034382Y022886D01*
X034366Y023004D01*
X034321Y023114D01*
X034248Y023209D01*
X034153Y023281D01*
X034043Y023327D01*
X033925Y023342D01*
D02*
G37*
G36*
X024409Y027646D02*
X023268D01*
Y025165D01*
X024409D01*
Y025983D01*
X024417Y025987D01*
X024447Y025995D01*
X024489Y026002D01*
X024542Y026006D01*
X02461Y026008D01*
X024612Y026008D01*
X026079D01*
Y021878D01*
X026093Y021775D01*
X026132Y021679D01*
X026191Y021604D01*
X026195Y021589D01*
X026189Y021539D01*
X026142Y021503D01*
X026076Y021417D01*
X026034Y021317D01*
X02602Y021209D01*
X026034Y021101D01*
X026076Y021D01*
X026142Y020914D01*
X026229Y020848D01*
X026329Y020806D01*
X026437Y020792D01*
X026482Y020798D01*
X027179D01*
X027224Y020792D01*
X02727Y020798D01*
X027662D01*
X027668Y020796D01*
X028015D01*
X028051Y020792D01*
X028088Y020796D01*
X028434D01*
X028527Y020815D01*
X028607Y020868D01*
X028659Y020947D01*
X028678Y02104D01*
Y021377D01*
X028659Y02147D01*
X028611Y021543D01*
X028659Y021616D01*
X028678Y021709D01*
Y022046D01*
X028659Y02214D01*
X028607Y022219D01*
X028527Y022272D01*
X028434Y02229D01*
X027668D01*
X027645Y022286D01*
X027239Y022275D01*
X027237Y022275D01*
X026873D01*
Y026406D01*
X02686Y026508D01*
X02682Y026604D01*
X026757Y026686D01*
X026675Y026749D01*
X026579Y026789D01*
X026476Y026803D01*
X024612D01*
X02461Y026803D01*
X024542Y026805D01*
X024489Y026809D01*
X024447Y026816D01*
X024417Y026824D01*
X024409Y026828D01*
Y027646D01*
D02*
G37*
G36*
X056673Y020267D02*
X056557Y020255D01*
X056446Y020221D01*
X056344Y020167D01*
X056254Y020093D01*
X05618Y020003D01*
X056125Y0199D01*
X056091Y019789D01*
X05608Y019673D01*
X056091Y019557D01*
X056125Y019446D01*
X05618Y019344D01*
X056254Y019254D01*
X056344Y01918D01*
X056446Y019125D01*
X056557Y019091D01*
X056673Y01908D01*
X056789Y019091D01*
X0569Y019125D01*
X057003Y01918D01*
X057093Y019254D01*
X057167Y019344D01*
X057221Y019446D01*
X057255Y019557D01*
X057267Y019673D01*
X057255Y019789D01*
X057221Y0199D01*
X057167Y020003D01*
X057093Y020093D01*
X057003Y020167D01*
X0569Y020221D01*
X056789Y020255D01*
X056673Y020267D01*
D02*
G37*
G36*
X043154Y016389D02*
X043071Y016378D01*
X042995Y016346D01*
X042929Y016295D01*
X042878Y01623D01*
X042847Y016153D01*
X042836Y016071D01*
X042847Y015989D01*
X042878Y015912D01*
X042929Y015846D01*
X042995Y015796D01*
X043071Y015764D01*
X043154Y015753D01*
X043236Y015764D01*
X043258Y015773D01*
X045349D01*
X045855Y015267D01*
X045854Y015246D01*
X045852Y015234D01*
X045848Y01522D01*
X045842Y015204D01*
X045833Y015185D01*
X045821Y015165D01*
X045808Y015145D01*
X045762Y01509D01*
X045734Y015061D01*
X04573Y015055D01*
X04566Y014969D01*
X045605Y014867D01*
X045572Y014756D01*
X04556Y01464D01*
X045572Y014524D01*
X045605Y014413D01*
X04566Y01431D01*
X045734Y01422D01*
X045824Y014146D01*
X045926Y014092D01*
X046038Y014058D01*
X046154Y014046D01*
X046269Y014058D01*
X046381Y014092D01*
X046483Y014146D01*
X046573Y01422D01*
X046647Y01431D01*
X046702Y014413D01*
X046736Y014524D01*
X046747Y01464D01*
X046736Y014756D01*
X046702Y014867D01*
X046647Y014969D01*
X046577Y015055D01*
X046573Y015061D01*
X046543Y015092D01*
X04652Y015118D01*
X046501Y015142D01*
X046486Y015165D01*
X046474Y015185D01*
X046465Y015204D01*
X046459Y01522D01*
X046456Y015234D01*
X046454Y015246D01*
X046452Y015268D01*
X046451Y015272D01*
Y01539D01*
X046441Y015467D01*
X046411Y015539D01*
X046364Y0156D01*
X045683Y016281D01*
X045621Y016329D01*
X04555Y016359D01*
X045472Y016369D01*
X043258D01*
X043236Y016378D01*
X043154Y016389D01*
D02*
G37*
G36*
X033925Y021342D02*
X033807Y021327D01*
X033697Y021281D01*
X033602Y021209D01*
X03353Y021114D01*
X033484Y021004D01*
X033469Y020886D01*
X033484Y020768D01*
X03353Y020657D01*
X033602Y020563D01*
X033697Y02049D01*
X033807Y020445D01*
X033925Y020429D01*
X034043Y020445D01*
X034153Y02049D01*
X034243Y020559D01*
X034245Y02056D01*
X034248Y020563D01*
X034248Y020563D01*
X034248Y020563D01*
X034256Y02057D01*
X03426Y020573D01*
X034263Y020576D01*
X034268Y020578D01*
X034272Y02058D01*
X034278Y020582D01*
X034285Y020584D01*
X034293Y020585D01*
X034303Y020586D01*
X034321Y020587D01*
X034327Y020588D01*
X036069D01*
X036091Y020579D01*
X036173Y020568D01*
X036255Y020579D01*
X036332Y020611D01*
X036398Y020661D01*
X036448Y020727D01*
X03648Y020804D01*
X036491Y020886D01*
X03648Y020968D01*
X036448Y021045D01*
X036398Y02111D01*
X036332Y021161D01*
X036255Y021193D01*
X036173Y021203D01*
X036091Y021193D01*
X036069Y021184D01*
X034327D01*
X034321Y021185D01*
X034303Y021185D01*
X034293Y021186D01*
X034285Y021188D01*
X034278Y02119D01*
X034272Y021192D01*
X034268Y021194D01*
X034263Y021196D01*
X03426Y021198D01*
X034256Y021202D01*
X034248Y021209D01*
X034248Y021209D01*
X034248Y021209D01*
X034245Y021211D01*
X034243Y021213D01*
X034153Y021281D01*
X034043Y021327D01*
X033925Y021342D01*
D02*
G37*
G36*
X059134Y021153D02*
X058999Y02114D01*
X058869Y0211D01*
X058749Y021036D01*
X058644Y02095D01*
X058558Y020845D01*
X058494Y020726D01*
X058455Y020596D01*
X058442Y020461D01*
X058455Y020326D01*
X058494Y020196D01*
X058558Y020076D01*
X058644Y019971D01*
X058749Y019885D01*
X058869Y019821D01*
X058999Y019782D01*
X059134Y019768D01*
X059269Y019782D01*
X059399Y019821D01*
X059518Y019885D01*
X059623Y019971D01*
X059709Y020076D01*
X059773Y020196D01*
X059813Y020326D01*
X059826Y020461D01*
X059813Y020596D01*
X059773Y020726D01*
X059709Y020845D01*
X059623Y02095D01*
X059518Y021036D01*
X059399Y0211D01*
X059269Y02114D01*
X059134Y021153D01*
D02*
G37*
G36*
X052451Y030067D02*
X051447D01*
Y02928D01*
X052451D01*
Y030067D01*
D02*
G37*
G36*
X042055Y04204D02*
X041922Y042022D01*
X041797Y041971D01*
X04169Y041889D01*
X041608Y041782D01*
X041556Y041657D01*
X041539Y041524D01*
X041556Y04139D01*
X041608Y041266D01*
X04169Y041159D01*
X041797Y041077D01*
X041922Y041025D01*
X042055Y041007D01*
X042189Y041025D01*
X042313Y041077D01*
X04242Y041159D01*
X042502Y041266D01*
X042554Y04139D01*
X042571Y041524D01*
X042554Y041657D01*
X042502Y041782D01*
X04242Y041889D01*
X042313Y041971D01*
X042189Y042022D01*
X042055Y04204D01*
D02*
G37*
G36*
X056673Y032865D02*
X056557Y032854D01*
X056446Y03282D01*
X056344Y032765D01*
X056254Y032691D01*
X05618Y032601D01*
X056125Y032499D01*
X056091Y032387D01*
X05608Y032272D01*
X056091Y032156D01*
X056125Y032045D01*
X05618Y031942D01*
X056254Y031852D01*
X056344Y031778D01*
X056446Y031723D01*
X056557Y03169D01*
X056673Y031678D01*
X056789Y03169D01*
X0569Y031723D01*
X057003Y031778D01*
X057093Y031852D01*
X057167Y031942D01*
X057221Y032045D01*
X057255Y032156D01*
X057267Y032272D01*
X057255Y032387D01*
X057221Y032499D01*
X057167Y032601D01*
X057093Y032691D01*
X057003Y032765D01*
X0569Y03282D01*
X056789Y032854D01*
X056673Y032865D01*
D02*
G37*
G36*
X049813Y030067D02*
X048809D01*
Y02928D01*
X049813D01*
Y030067D01*
D02*
G37*
G36*
X051132D02*
X050128D01*
Y02928D01*
X051132D01*
Y030067D01*
D02*
G37*
G36*
X048642Y039311D02*
X048508Y039294D01*
X048384Y039242D01*
X048277Y03916D01*
X048195Y039053D01*
X048143Y038929D01*
X048126Y038795D01*
X048143Y038662D01*
X048195Y038537D01*
X048277Y03843D01*
X048384Y038348D01*
X048508Y038297D01*
X048642Y038279D01*
X048775Y038297D01*
X0489Y038348D01*
X049007Y03843D01*
X049089Y038537D01*
X04914Y038662D01*
X049158Y038795D01*
X04914Y038929D01*
X049089Y039053D01*
X049007Y03916D01*
X0489Y039242D01*
X048775Y039294D01*
X048642Y039311D01*
D02*
G37*
G36*
X056673Y036408D02*
X056557Y036397D01*
X056446Y036363D01*
X056344Y036308D01*
X056254Y036235D01*
X05618Y036145D01*
X056125Y036042D01*
X056091Y035931D01*
X05608Y035815D01*
X056091Y035699D01*
X056125Y035588D01*
X05618Y035485D01*
X056254Y035395D01*
X056344Y035322D01*
X056446Y035267D01*
X056557Y035233D01*
X056673Y035222D01*
X056789Y035233D01*
X0569Y035267D01*
X057003Y035322D01*
X057093Y035395D01*
X057167Y035485D01*
X057221Y035588D01*
X057255Y035699D01*
X057267Y035815D01*
X057255Y035931D01*
X057221Y036042D01*
X057167Y036145D01*
X057093Y036235D01*
X057003Y036308D01*
X0569Y036363D01*
X056789Y036397D01*
X056673Y036408D01*
D02*
G37*
G36*
X022764Y042429D02*
X021898D01*
Y041551D01*
X021896Y041546D01*
X021897Y041535D01*
X021895Y041525D01*
X021898Y041511D01*
Y041327D01*
X021925D01*
X021933Y041199D01*
X021933Y04113D01*
X021934Y041128D01*
Y040732D01*
X021933Y04073D01*
X021931Y040662D01*
X021927Y040608D01*
X02192Y040566D01*
X021912Y040537D01*
X021909Y04053D01*
X021691D01*
Y038817D01*
X02297D01*
Y04053D01*
X022753D01*
X02275Y040537D01*
X022742Y040566D01*
X022735Y040608D01*
X02273Y040662D01*
X022728Y04073D01*
X022728Y040732D01*
Y041126D01*
X022728Y041128D01*
X022732Y041324D01*
X022732Y041327D01*
X022764D01*
Y041511D01*
X022766Y041525D01*
X022764Y041535D01*
X022765Y041546D01*
X022764Y041551D01*
Y042429D01*
D02*
G37*
G36*
X024595Y040924D02*
X023484D01*
X023395Y040912D01*
X023312Y040878D01*
X02324Y040823D01*
X023185Y040751D01*
X023151Y040668D01*
X023139Y040579D01*
Y038759D01*
X022331D01*
X022241Y038747D01*
X022158Y038713D01*
X022086Y038658D01*
X022032Y038586D01*
X021997Y038503D01*
X021985Y038413D01*
Y038084D01*
X021984Y03808D01*
X021981Y037982D01*
X021981Y03798D01*
X021898D01*
Y037796D01*
X021895Y037782D01*
X021898Y037769D01*
Y037102D01*
X021896Y037097D01*
X021897Y037086D01*
X021895Y037076D01*
X021898Y037063D01*
Y036878D01*
X021925D01*
X021933Y03675D01*
X021933Y036681D01*
X021934Y036679D01*
Y036244D01*
X021933Y036242D01*
X021931Y036173D01*
X021927Y03612D01*
X02192Y036078D01*
X021912Y036048D01*
X021909Y036041D01*
X021691D01*
Y034329D01*
X02297D01*
Y036041D01*
X022753D01*
X02275Y036048D01*
X022742Y036078D01*
X022735Y03612D01*
X02273Y036173D01*
X022728Y036242D01*
X022728Y036244D01*
Y036677D01*
X022728Y036679D01*
X022732Y036875D01*
X022732Y036878D01*
X022764D01*
Y037063D01*
X022766Y037076D01*
X022764Y037086D01*
X022765Y037097D01*
X022764Y037102D01*
Y037769D01*
X022766Y037782D01*
X022764Y037796D01*
Y03798D01*
X022706D01*
X022685Y03803D01*
X022693Y038048D01*
X022713Y038068D01*
X023484D01*
X023574Y03808D01*
X023657Y038114D01*
X023729Y038169D01*
X023783Y038241D01*
X023818Y038324D01*
X02383Y038413D01*
Y040233D01*
X024595D01*
X024618Y040236D01*
X025235D01*
Y040921D01*
X024618D01*
X024595Y040924D01*
D02*
G37*
G36*
X025235Y035528D02*
X023956D01*
Y034843D01*
X025235D01*
Y035528D01*
D02*
G37*
G36*
X059134Y040051D02*
X058999Y040037D01*
X058869Y039998D01*
X058749Y039934D01*
X058644Y039848D01*
X058558Y039743D01*
X058494Y039623D01*
X058455Y039493D01*
X058442Y039358D01*
X058455Y039223D01*
X058494Y039093D01*
X058558Y038974D01*
X058644Y038869D01*
X058749Y038783D01*
X058869Y038719D01*
X058999Y038679D01*
X059134Y038666D01*
X059269Y038679D01*
X059399Y038719D01*
X059518Y038783D01*
X059623Y038869D01*
X059709Y038974D01*
X059773Y039093D01*
X059813Y039223D01*
X059826Y039358D01*
X059813Y039493D01*
X059773Y039623D01*
X059709Y039743D01*
X059623Y039848D01*
X059518Y039934D01*
X059399Y039998D01*
X059269Y040037D01*
X059134Y040051D01*
D02*
G37*
G36*
Y033751D02*
X058999Y033738D01*
X058869Y033699D01*
X058749Y033635D01*
X058644Y033549D01*
X058558Y033444D01*
X058494Y033324D01*
X058455Y033194D01*
X058442Y033059D01*
X058455Y032924D01*
X058494Y032794D01*
X058558Y032674D01*
X058644Y03257D01*
X058749Y032483D01*
X058869Y032419D01*
X058999Y03238D01*
X059134Y032367D01*
X059269Y03238D01*
X059399Y032419D01*
X059518Y032483D01*
X059623Y03257D01*
X059709Y032674D01*
X059773Y032794D01*
X059813Y032924D01*
X059826Y033059D01*
X059813Y033194D01*
X059773Y033324D01*
X059709Y033444D01*
X059623Y033549D01*
X059518Y033635D01*
X059399Y033699D01*
X059269Y033738D01*
X059134Y033751D01*
D02*
G37*
G36*
X025235Y040016D02*
X023956D01*
Y039331D01*
X025235D01*
Y040016D01*
D02*
G37*
G36*
X059134Y027452D02*
X058999Y027439D01*
X058869Y027399D01*
X058749Y027335D01*
X058644Y027249D01*
X058558Y027144D01*
X058494Y027025D01*
X058455Y026895D01*
X058442Y02676D01*
X058455Y026625D01*
X058494Y026495D01*
X058558Y026375D01*
X058644Y02627D01*
X058749Y026184D01*
X058869Y02612D01*
X058999Y026081D01*
X059134Y026068D01*
X059269Y026081D01*
X059399Y02612D01*
X059518Y026184D01*
X059623Y02627D01*
X059709Y026375D01*
X059773Y026495D01*
X059813Y026625D01*
X059826Y02676D01*
X059813Y026895D01*
X059773Y027025D01*
X059709Y027144D01*
X059623Y027249D01*
X059518Y027335D01*
X059399Y027399D01*
X059269Y027439D01*
X059134Y027452D01*
D02*
G37*
G36*
X047252Y04204D02*
X047118Y042022D01*
X046994Y041971D01*
X046887Y041889D01*
X046805Y041782D01*
X046753Y041657D01*
X046736Y041524D01*
X046753Y04139D01*
X046805Y041266D01*
X046887Y041159D01*
X046994Y041077D01*
X047118Y041025D01*
X047252Y041007D01*
X047386Y041025D01*
X04751Y041077D01*
X047617Y041159D01*
X047699Y041266D01*
X047751Y04139D01*
X047768Y041524D01*
X047751Y041657D01*
X047699Y041782D01*
X047617Y041889D01*
X04751Y041971D01*
X047386Y042022D01*
X047252Y04204D01*
D02*
G37*
G36*
X056673Y026566D02*
X056557Y026554D01*
X056446Y026521D01*
X056344Y026466D01*
X056254Y026392D01*
X05618Y026302D01*
X056125Y0262D01*
X056091Y026088D01*
X05608Y025972D01*
X056091Y025857D01*
X056125Y025745D01*
X05618Y025643D01*
X056254Y025553D01*
X056344Y025479D01*
X056446Y025424D01*
X056557Y02539D01*
X056673Y025379D01*
X056789Y02539D01*
X0569Y025424D01*
X057003Y025479D01*
X057093Y025553D01*
X057167Y025643D01*
X057221Y025745D01*
X057255Y025857D01*
X057267Y025972D01*
X057255Y026088D01*
X057221Y0262D01*
X057167Y026302D01*
X057093Y026392D01*
X057003Y026466D01*
X0569Y026521D01*
X056789Y026554D01*
X056673Y026566D01*
D02*
G37*
G36*
Y039164D02*
X056557Y039153D01*
X056446Y039119D01*
X056344Y039064D01*
X056254Y03899D01*
X05618Y038901D01*
X056125Y038798D01*
X056091Y038687D01*
X05608Y038571D01*
X056091Y038455D01*
X056125Y038344D01*
X05618Y038241D01*
X056254Y038151D01*
X056344Y038077D01*
X056446Y038023D01*
X056557Y037989D01*
X056673Y037977D01*
X056789Y037989D01*
X0569Y038023D01*
X057003Y038077D01*
X057093Y038151D01*
X057167Y038241D01*
X057221Y038344D01*
X057255Y038455D01*
X057267Y038571D01*
X057255Y038687D01*
X057221Y038798D01*
X057167Y038901D01*
X057093Y03899D01*
X057003Y039064D01*
X0569Y039119D01*
X056789Y039153D01*
X056673Y039164D01*
D02*
G37*
G36*
X028524Y028949D02*
X028395Y028932D01*
X028275Y028883D01*
X028173Y028804D01*
X028094Y028701D01*
X028044Y028581D01*
X028027Y028453D01*
X028044Y028324D01*
X028094Y028205D01*
X028173Y028102D01*
X028275Y028023D01*
X028395Y027973D01*
X028524Y027956D01*
X028652Y027973D01*
X028772Y028023D01*
X028875Y028102D01*
X028953Y028205D01*
X029003Y028324D01*
X02902Y028453D01*
X029003Y028581D01*
X028953Y028701D01*
X028875Y028804D01*
X028772Y028883D01*
X028652Y028932D01*
X028524Y028949D01*
D02*
G37*
G36*
X056673Y030109D02*
X056557Y030098D01*
X056446Y030064D01*
X056344Y030009D01*
X056254Y029935D01*
X05618Y029845D01*
X056125Y029743D01*
X056091Y029632D01*
X05608Y029516D01*
X056091Y0294D01*
X056125Y029289D01*
X05618Y029186D01*
X056254Y029096D01*
X056344Y029022D01*
X056446Y028968D01*
X056557Y028934D01*
X056673Y028922D01*
X056789Y028934D01*
X0569Y028968D01*
X057003Y029022D01*
X057093Y029096D01*
X057167Y029186D01*
X057221Y029289D01*
X057255Y0294D01*
X057267Y029516D01*
X057255Y029632D01*
X057221Y029743D01*
X057167Y029845D01*
X057093Y029935D01*
X057003Y030009D01*
X0569Y030064D01*
X056789Y030098D01*
X056673Y030109D01*
D02*
G37*
G36*
X026781Y030067D02*
X025778D01*
Y02928D01*
X026781D01*
Y030067D01*
D02*
G37*
G36*
X056673Y042708D02*
X056557Y042696D01*
X056446Y042662D01*
X056344Y042608D01*
X056254Y042534D01*
X05618Y042444D01*
X056125Y042341D01*
X056091Y04223D01*
X05608Y042114D01*
X056091Y041998D01*
X056125Y041887D01*
X05618Y041784D01*
X056254Y041695D01*
X056344Y041621D01*
X056446Y041566D01*
X056557Y041532D01*
X056673Y041521D01*
X056789Y041532D01*
X0569Y041566D01*
X057003Y041621D01*
X057093Y041695D01*
X057167Y041784D01*
X057221Y041887D01*
X057255Y041998D01*
X057267Y042114D01*
X057255Y04223D01*
X057221Y042341D01*
X057167Y042444D01*
X057093Y042534D01*
X057003Y042608D01*
X0569Y042662D01*
X056789Y042696D01*
X056673Y042708D01*
D02*
G37*
G36*
X032461Y028949D02*
X032332Y028932D01*
X032212Y028883D01*
X03211Y028804D01*
X032031Y028701D01*
X031981Y028581D01*
X031964Y028453D01*
X031981Y028324D01*
X032031Y028205D01*
X03211Y028102D01*
X032212Y028023D01*
X032332Y027973D01*
X032461Y027956D01*
X032589Y027973D01*
X032709Y028023D01*
X032812Y028102D01*
X032891Y028205D01*
X03294Y028324D01*
X032957Y028453D01*
X03294Y028581D01*
X032891Y028701D01*
X032812Y028804D01*
X032709Y028883D01*
X032589Y028932D01*
X032461Y028949D01*
D02*
G37*
%LPD*%
G36*
X022558Y037072D02*
X022552Y03706D01*
X022546Y037041D01*
X022541Y037013D01*
X022537Y036978D01*
X022531Y036883D01*
X022528Y036682D01*
X022134D01*
X022133Y036757D01*
X022115Y037041D01*
X022109Y03706D01*
X022103Y037072D01*
X022096Y037076D01*
X022566D01*
X022558Y037072D01*
D02*
G37*
G36*
X022482Y037584D02*
X022179D01*
X02218Y037586D01*
X022181Y037591D01*
X022182Y037598D01*
X022184Y037621D01*
X022185Y037719D01*
X022476D01*
X022482Y037584D01*
D02*
G37*
G36*
X022477Y038018D02*
X022484Y037925D01*
X022491Y037887D01*
X022499Y037855D01*
X022509Y037829D01*
X02252Y037808D01*
X022534Y037794D01*
X022549Y037785D01*
X022566Y037782D01*
X022096D01*
X022113Y037785D01*
X022128Y037794D01*
X022141Y037808D01*
X022153Y037829D01*
X022163Y037855D01*
X022171Y037887D01*
X022177Y037925D01*
X022181Y037969D01*
X022185Y038074D01*
X022476D01*
X022477Y038018D01*
D02*
G37*
G36*
X028957Y01487D02*
Y010106D01*
X028287Y009437D01*
X022933D01*
X022579Y009791D01*
Y010224D01*
X022894Y010539D01*
X023996D01*
X027224Y013768D01*
Y01487D01*
X027579Y015224D01*
X028602D01*
X028957Y01487D01*
D02*
G37*
G36*
X044665Y014949D02*
X044705Y014909D01*
X044705Y014319D01*
X045846Y013177D01*
X052264D01*
X0525Y012941D01*
Y011406D01*
X052264Y011169D01*
X045768Y011169D01*
X042815Y008217D01*
X04187Y007272D01*
X0375D01*
X037106Y007665D01*
Y00861D01*
X037618Y009122D01*
X041122D01*
X043681Y011681D01*
Y014949D01*
X043878Y015146D01*
X044468D01*
X044665Y014949D01*
D02*
G37*
G36*
X022854Y01361D02*
X023839Y012626D01*
Y011445D01*
X023563Y011169D01*
X022303D01*
X021988Y011484D01*
Y015343D01*
X022854D01*
Y01361D01*
D02*
G37*
G36*
X02253Y036162D02*
X022535Y036095D01*
X022545Y036036D01*
X022559Y035984D01*
X022577Y035941D01*
X022598Y035905D01*
X022624Y035878D01*
X022654Y035858D01*
X022687Y035846D01*
X022724Y035842D01*
X021937D01*
X021974Y035846D01*
X022008Y035858D01*
X022037Y035878D01*
X022063Y035905D01*
X022085Y035941D01*
X022102Y035984D01*
X022116Y036036D01*
X022126Y036095D01*
X022132Y036162D01*
X022134Y036237D01*
X022528D01*
X02253Y036162D01*
D02*
G37*
G36*
X024215Y026762D02*
X024227Y026728D01*
X024247Y026699D01*
X024274Y026673D01*
X02431Y026652D01*
X024353Y026634D01*
X024404Y02662D01*
X024463Y02661D01*
X02453Y026604D01*
X024605Y026602D01*
Y026209D01*
X02453Y026207D01*
X024463Y026201D01*
X024404Y026191D01*
X024353Y026177D01*
X02431Y026159D01*
X024274Y026138D01*
X024247Y026112D01*
X024227Y026083D01*
X024215Y026049D01*
X024211Y026012D01*
Y026799D01*
X024215Y026762D01*
D02*
G37*
G36*
X032896Y026679D02*
X032908Y026661D01*
X032928Y026645D01*
X032955Y026631D01*
X032991Y026619D01*
X033034Y02661D01*
X033085Y026602D01*
X033144Y026597D01*
X033286Y026593D01*
Y026199D01*
X033211Y026198D01*
X033085Y026189D01*
X033034Y026182D01*
X032991Y026172D01*
X032955Y02616D01*
X032928Y026146D01*
X032908Y02613D01*
X032896Y026112D01*
X032892Y026092D01*
Y0267D01*
X032896Y026679D01*
D02*
G37*
G36*
X032699Y025046D02*
X032665Y025034D01*
X032636Y025014D01*
X03261Y024986D01*
X032589Y024951D01*
X032571Y024907D01*
X032557Y024856D01*
X032547Y024797D01*
X032541Y02473D01*
X032539Y024655D01*
X032146D01*
X032144Y02473D01*
X032138Y024797D01*
X032128Y024856D01*
X032114Y024907D01*
X032096Y024951D01*
X032075Y024986D01*
X032049Y025014D01*
X03202Y025034D01*
X031986Y025046D01*
X031949Y02505D01*
X032736D01*
X032699Y025046D01*
D02*
G37*
G36*
X049932Y024662D02*
X049935Y024628D01*
X04994Y024599D01*
X049947Y024573D01*
X049956Y024551D01*
X049967Y024533D01*
X049979Y024519D01*
X049994Y024509D01*
X050011Y024504D01*
X05003Y024502D01*
X049636D01*
X049655Y024504D01*
X049671Y024509D01*
X049686Y024519D01*
X049699Y024533D01*
X04971Y024551D01*
X049718Y024573D01*
X049725Y024599D01*
X04973Y024628D01*
X049733Y024662D01*
X049734Y0247D01*
X049931D01*
X049932Y024662D01*
D02*
G37*
G36*
X022558Y041521D02*
X022552Y041509D01*
X022546Y041489D01*
X022541Y041462D01*
X022537Y041426D01*
X022531Y041332D01*
X022528Y041131D01*
X022134D01*
X022133Y041206D01*
X022115Y041489D01*
X022109Y041509D01*
X022103Y041521D01*
X022096Y041525D01*
X022566D01*
X022558Y041521D01*
D02*
G37*
G36*
X027652Y021671D02*
X027645Y021673D01*
X027631Y021675D01*
X02758Y021677D01*
X027244Y021681D01*
Y022075D01*
X027652Y022085D01*
Y021671D01*
D02*
G37*
G36*
X030151Y015225D02*
X030157Y015192D01*
X030166Y015159D01*
X030178Y015125D01*
X030194Y015092D01*
X030213Y015058D01*
X030236Y015024D01*
X030263Y01499D01*
X030293Y014956D01*
X030327Y014921D01*
X029776D01*
X029809Y014956D01*
X029866Y015024D01*
X029889Y015058D01*
X029908Y015092D01*
X029924Y015125D01*
X029937Y015159D01*
X029946Y015192D01*
X029951Y015225D01*
X029953Y015257D01*
X03015D01*
X030151Y015225D01*
D02*
G37*
G36*
X026151D02*
X026157Y015192D01*
X026166Y015159D01*
X026178Y015125D01*
X026194Y015092D01*
X026213Y015058D01*
X026236Y015024D01*
X026263Y01499D01*
X026293Y014956D01*
X026327Y014921D01*
X025776Y014921D01*
X025809Y014956D01*
X025866Y015024D01*
X025889Y015058D01*
X025908Y015092D01*
X025924Y015125D01*
X025937Y015159D01*
X025946Y015192D01*
X025951Y015225D01*
X025953Y015257D01*
X02615Y015257D01*
X026151Y015225D01*
D02*
G37*
G36*
X046254D02*
X046259Y015192D01*
X046268Y015159D01*
X04628Y015125D01*
X046296Y015092D01*
X046316Y015058D01*
X046339Y015024D01*
X046365Y01499D01*
X046395Y014956D01*
X046429Y014921D01*
X045878D01*
X045912Y014956D01*
X045968Y015024D01*
X045991Y015058D01*
X046011Y015092D01*
X046027Y015125D01*
X046039Y015159D01*
X046048Y015192D01*
X046053Y015225D01*
X046055Y015257D01*
X046252D01*
X046254Y015225D01*
D02*
G37*
G36*
X034124Y02105D02*
X034142Y021036D01*
X03416Y021024D01*
X034179Y021013D01*
X034199Y021004D01*
X03422Y020997D01*
X034243Y020992D01*
X034266Y020987D01*
X03429Y020985D01*
X034315Y020984D01*
Y020787D01*
X03429Y020787D01*
X034266Y020784D01*
X034243Y02078D01*
X03422Y020774D01*
X034199Y020767D01*
X034179Y020758D01*
X03416Y020748D01*
X034142Y020736D01*
X034124Y020722D01*
X034108Y020707D01*
Y021065D01*
X034124Y02105D01*
D02*
G37*
G36*
X02253Y04065D02*
X022535Y040583D01*
X022545Y040524D01*
X022559Y040472D01*
X022577Y040429D01*
X022598Y040393D01*
X022624Y040366D01*
X022654Y040346D01*
X022687Y040334D01*
X022724Y04033D01*
X021937D01*
X021974Y040334D01*
X022008Y040346D01*
X022037Y040366D01*
X022063Y040393D01*
X022085Y040429D01*
X022102Y040472D01*
X022116Y040524D01*
X022126Y040583D01*
X022132Y04065D01*
X022134Y040725D01*
X022528D01*
X02253Y04065D01*
D02*
G37*
D10*
X059551Y017193D02*
G03*
X059076Y01739I-000475J-000475D01*
G01*
X059673Y016898D02*
G03*
X059551Y017193I-000417J0D01*
G01*
X040898Y017681D02*
G03*
X041601Y01739I000703J000703D01*
G01*
X042051Y023386D02*
G03*
X041709Y023043I0J-000343D01*
G01*
X04065Y01828D02*
G03*
X040898Y017681I000847J0D01*
G01*
X040575Y022756D02*
G03*
X040261Y022886I-000314J-000314D01*
G01*
X04065Y022575D02*
G03*
X040575Y022756I-000255J0D01*
G01*
X0425Y029921D02*
Y032843D01*
X042067Y030126D02*
X042488D01*
X046083Y025874D02*
Y026339D01*
X0425Y029921D02*
X046083Y026339D01*
X041526Y029392D02*
Y032843D01*
X04108Y030126D02*
X041524D01*
X040551Y030124D02*
Y032843D01*
X040551Y030124D02*
X040551Y030124D01*
X040093Y030126D02*
X040549D01*
X039577Y028935D02*
Y032843D01*
X039105Y030126D02*
X039569D01*
X038602Y030124D02*
Y032843D01*
X038118Y030126D02*
X0386D01*
X044793Y023886D02*
X044795D01*
X044205D02*
X044793D01*
X043366Y024724D02*
Y027551D01*
Y024724D02*
X044205Y023886D01*
X04265Y024386D02*
Y026835D01*
X059673Y01464D02*
Y016898D01*
X041601Y01739D02*
X059076D01*
X042051Y023386D02*
X04265D01*
X041709Y023028D02*
Y023043D01*
X039746Y023394D02*
X039754Y023386D01*
X028051Y023217D02*
X028051D01*
X024976Y027272D02*
Y028295D01*
X0225D02*
X024976D01*
X026051Y01464D02*
Y01674D01*
Y01464D02*
X026051D01*
X027051Y016071D02*
X029606D01*
X030051Y015626D01*
Y01464D02*
Y015626D01*
X042146Y01464D02*
X042154D01*
X043154Y016071D02*
X045472D01*
X046154Y01539D01*
Y01464D02*
Y01539D01*
X0425Y032843D02*
X0425D01*
X044793Y022886D02*
X044795D01*
X044791Y024388D02*
X044793Y024386D01*
X044791Y024388D02*
Y025203D01*
X041016Y020886D02*
X042984D01*
X027051Y01674D02*
Y017827D01*
X02737Y018146D01*
X033925Y020886D02*
X036173D01*
X026535Y041402D02*
X026579D01*
Y042437D01*
X041526Y029392D02*
X043366Y027551D01*
X044793Y023386D02*
Y023886D01*
X040551Y028933D02*
Y030124D01*
Y028933D02*
X04265Y026835D01*
X042648Y023886D02*
Y024386D01*
X042146Y01464D02*
Y01674D01*
X03615Y024386D02*
X037608D01*
X03598Y024555D02*
X03615Y024386D01*
X038839Y024102D02*
Y025224D01*
X038622Y023886D02*
X038839Y024102D01*
X038602Y030124D02*
X038602Y030124D01*
X039754Y023886D02*
X040264D01*
X040551Y024173D01*
X039754Y024386D02*
X039756Y024388D01*
Y025224D01*
X040551Y024173D02*
Y027961D01*
X046083Y024681D02*
Y025874D01*
Y024681D02*
X046378Y024386D01*
X047715D01*
X047732Y023878D02*
X04776Y02385D01*
X049833Y024386D02*
Y025211D01*
X049833Y024386D02*
X049833Y024386D01*
X04065Y01828D02*
Y022575D01*
X039754Y022886D02*
X040261D01*
X037608Y024386D02*
Y02875D01*
X038602Y029744D01*
Y030124D01*
X047715Y023386D02*
X047715Y023386D01*
X039577Y028935D02*
X040551Y027961D01*
X035976Y023886D02*
X037608D01*
X037608Y023886D01*
X038622D01*
X038622Y023886D01*
D11*
X032362Y025352D02*
D03*
Y026396D02*
D03*
D12*
X049311Y030539D02*
D03*
Y029673D02*
D03*
X051949D02*
D03*
Y030539D02*
D03*
X05063Y029673D02*
D03*
Y030539D02*
D03*
X02628Y029673D02*
D03*
Y030539D02*
D03*
D13*
X042114Y011868D02*
D03*
Y013344D02*
D03*
D14*
X024429Y01464D02*
D03*
X022303D02*
D03*
X059673D02*
D03*
X057547D02*
D03*
D15*
X022303Y01802D02*
D03*
X024508D02*
D03*
Y029476D02*
D03*
X022303D02*
D03*
D16*
X0425Y033512D02*
D03*
Y032843D02*
D03*
X041526Y033512D02*
D03*
Y032843D02*
D03*
X040551Y033512D02*
D03*
Y032843D02*
D03*
X039577Y033512D02*
D03*
Y032843D02*
D03*
X038602Y033512D02*
D03*
Y032843D02*
D03*
D17*
X024595Y03428D02*
D03*
Y036091D02*
D03*
Y035185D02*
D03*
Y038768D02*
D03*
Y040579D02*
D03*
Y039673D02*
D03*
D18*
X022331Y035185D02*
D03*
Y039673D02*
D03*
D19*
X023512Y037429D02*
D03*
X022331D02*
D03*
X023512Y041878D02*
D03*
X022331D02*
D03*
D20*
X047913Y012232D02*
D03*
Y007665D02*
D03*
X049291D02*
D03*
Y012232D02*
D03*
X05063D02*
D03*
Y007665D02*
D03*
X052008D02*
D03*
Y012232D02*
D03*
D21*
X037608Y024386D02*
D03*
Y023886D02*
D03*
Y023386D02*
D03*
Y022886D02*
D03*
X039754Y024386D02*
D03*
Y023886D02*
D03*
Y023386D02*
D03*
Y022886D02*
D03*
X04265Y024386D02*
D03*
Y023886D02*
D03*
Y023386D02*
D03*
Y022886D02*
D03*
X044795Y024386D02*
D03*
Y023886D02*
D03*
Y023386D02*
D03*
Y022886D02*
D03*
X047715Y024386D02*
D03*
Y023886D02*
D03*
Y023386D02*
D03*
Y022886D02*
D03*
X04986Y024386D02*
D03*
Y023886D02*
D03*
Y023386D02*
D03*
Y022886D02*
D03*
D22*
X023839Y026406D02*
D03*
X0225D02*
D03*
D23*
X023839Y022508D02*
D03*
D24*
X028051Y023886D02*
D03*
Y023217D02*
D03*
Y022547D02*
D03*
Y021878D02*
D03*
Y021209D02*
D03*
D25*
X039587Y040067D02*
D03*
X039783D02*
D03*
X03998D02*
D03*
X040177D02*
D03*
X040374D02*
D03*
X040571D02*
D03*
X040768D02*
D03*
X040965D02*
D03*
X041161D02*
D03*
X041358D02*
D03*
X041555D02*
D03*
X041752D02*
D03*
X041949D02*
D03*
X042146D02*
D03*
X042343D02*
D03*
X042539D02*
D03*
Y035697D02*
D03*
X042343D02*
D03*
X042146D02*
D03*
X041949D02*
D03*
X041752D02*
D03*
X041555D02*
D03*
X041358D02*
D03*
X041161D02*
D03*
X040965D02*
D03*
X040768D02*
D03*
X040571D02*
D03*
X040374D02*
D03*
X040177D02*
D03*
X03998D02*
D03*
X039783D02*
D03*
X039587D02*
D03*
D26*
X043248Y039358D02*
D03*
Y039161D02*
D03*
Y038965D02*
D03*
Y038768D02*
D03*
Y038571D02*
D03*
Y038374D02*
D03*
Y038177D02*
D03*
Y03798D02*
D03*
Y037783D02*
D03*
Y037587D02*
D03*
Y03739D02*
D03*
Y037193D02*
D03*
Y036996D02*
D03*
Y036799D02*
D03*
Y036602D02*
D03*
Y036406D02*
D03*
X038878D02*
D03*
Y036602D02*
D03*
Y036799D02*
D03*
Y036996D02*
D03*
Y037193D02*
D03*
Y03739D02*
D03*
Y037587D02*
D03*
Y037783D02*
D03*
Y03798D02*
D03*
Y038177D02*
D03*
Y038374D02*
D03*
Y038571D02*
D03*
Y038768D02*
D03*
Y038965D02*
D03*
Y039161D02*
D03*
Y039358D02*
D03*
D27*
X040402Y03948D02*
X041567D01*
X040374Y039453D02*
X040402Y03948D01*
X041526Y033512D02*
Y033785D01*
X035902Y036602D02*
X038888D01*
X03589Y036591D02*
X035902Y036602D01*
X043921Y039161D02*
X044157Y039398D01*
X043238Y039161D02*
X043921D01*
X037319Y037193D02*
X038888D01*
X039577Y033528D02*
Y034486D01*
X042425Y035189D02*
X043295D01*
X042343Y035272D02*
X042425Y035189D01*
X042343Y035272D02*
Y035707D01*
X042539D02*
Y036539D01*
X042055D02*
X042539D01*
X051639Y036406D02*
X052791Y035253D01*
X043238Y036406D02*
X051639D01*
X040374Y039453D02*
Y040057D01*
X039783Y039453D02*
X040374D01*
X038888Y038177D02*
X042528D01*
X03998Y036224D02*
X041071D01*
X03998Y035707D02*
Y036224D01*
X041071D02*
Y036543D01*
X038888Y036996D02*
X040087D01*
Y036543D02*
Y036996D01*
X042055Y039358D02*
X043238D01*
X042055Y038846D02*
Y039358D01*
X039587Y039138D02*
Y040057D01*
X041075Y038839D02*
Y039138D01*
X039587D02*
X041075D01*
X038888Y039358D02*
X039386D01*
Y038846D02*
Y039358D01*
Y038846D02*
X040091D01*
X041713Y034902D02*
X045961D01*
X041358Y035256D02*
X041713Y034902D01*
X041622Y034693D02*
X045882D01*
X041161Y035154D02*
X041622Y034693D01*
X041496Y034492D02*
X045776D01*
X040965Y035024D02*
X041496Y034492D01*
X045776D02*
X049311Y030957D01*
X051382Y031504D02*
X051949Y030937D01*
X041358Y035256D02*
Y035707D01*
X045961Y034902D02*
X049358Y031504D01*
X041161Y035154D02*
Y035707D01*
X040965Y035024D02*
Y035707D01*
X040768Y034874D02*
Y035707D01*
Y034874D02*
X041421Y03422D01*
X049358Y031504D02*
X051382D01*
X045882Y034693D02*
X049283Y031291D01*
X050275D01*
X05063Y030937D01*
X041421Y03422D02*
X042142D01*
X040571Y03474D02*
X041526Y033785D01*
X040571Y03474D02*
Y035707D01*
X042142Y03422D02*
X0425Y033862D01*
Y033512D02*
Y033862D01*
X040374Y033917D02*
Y035707D01*
Y033917D02*
X040551Y03374D01*
Y033512D02*
Y03374D01*
X039577Y033512D02*
Y033528D01*
X036138Y036406D02*
X038888D01*
X035929Y036197D02*
X036138Y036406D01*
X035902Y036197D02*
X035929D01*
X037972Y037764D02*
X038386Y038177D01*
X038888D01*
X03687Y038571D02*
X038888D01*
X036083Y039358D02*
X03687Y038571D01*
X03702Y038374D02*
X038888D01*
X036083Y037437D02*
X03702Y038374D01*
X042539Y040057D02*
X043829D01*
X044055Y040283D01*
Y041524D01*
X040571Y040057D02*
Y041968D01*
X039323Y043217D02*
X040571Y041968D01*
X040768Y040057D02*
Y04205D01*
X039404Y043413D02*
X040768Y04205D01*
X040965Y040057D02*
Y042132D01*
X039486Y04361D02*
X040965Y042132D01*
X041161Y040057D02*
Y042213D01*
X039567Y043807D02*
X041161Y042213D01*
X035579Y043217D02*
X039323D01*
X036409Y043413D02*
X039404D01*
X037236Y04361D02*
X039486D01*
X038087Y043807D02*
X039567D01*
X037587Y044307D02*
X038087Y043807D01*
X037587Y044307D02*
Y044673D01*
X036587Y04426D02*
X037236Y04361D01*
X036587Y04426D02*
Y044673D01*
X035587Y044236D02*
X036409Y043413D01*
X035587Y044236D02*
Y044673D01*
X034587Y044209D02*
X035579Y043217D01*
X034587Y044209D02*
Y044673D01*
X040177Y040057D02*
Y042112D01*
X039261Y043028D02*
X040177Y042112D01*
X030815Y043028D02*
X039261D01*
X029587Y044256D02*
X030815Y043028D01*
X029587Y044256D02*
Y044673D01*
X03998Y040057D02*
Y042058D01*
X039188Y04285D02*
X03998Y042058D01*
X02885Y04285D02*
X039188D01*
X027587Y044114D02*
X02885Y04285D01*
X027587Y044114D02*
Y044673D01*
X045394Y038374D02*
X0475Y04048D01*
X048209D01*
X049252Y041524D01*
X050252Y041272D02*
Y041524D01*
X049283Y040303D02*
X050252Y041272D01*
X047573Y040303D02*
X049283D01*
X043238Y038965D02*
X045496D01*
X046055Y039524D01*
Y041524D01*
X043238Y037193D02*
X047606D01*
X047744Y037331D01*
Y037583D01*
X043238Y036996D02*
X05185D01*
X054213Y039358D01*
X051799Y036799D02*
X053146Y035453D01*
X043238Y036799D02*
X051799D01*
X053146Y034126D02*
X054213Y033059D01*
X053146Y034126D02*
Y035453D01*
X043238Y036602D02*
X051693D01*
X052969Y035327D01*
Y033878D02*
Y035327D01*
Y033878D02*
X053307Y033539D01*
Y027665D02*
Y033539D01*
Y027665D02*
X054213Y02676D01*
X052791Y033805D02*
Y035253D01*
Y033805D02*
X05313Y033466D01*
Y021543D02*
Y033466D01*
Y021543D02*
X054213Y020461D01*
X039783Y039453D02*
Y041331D01*
X039496D02*
X039783D01*
X038602Y033512D02*
Y034142D01*
X039783Y035299D02*
Y035707D01*
X038602Y034142D02*
X039587Y035126D01*
Y035707D01*
X039783Y035299D02*
X039902Y035181D01*
Y035146D02*
Y035181D01*
X039577Y034486D02*
X03999Y0349D01*
X040003D01*
X040177Y035073D01*
Y035707D01*
X045457Y038187D02*
X047573Y040303D01*
X043248Y038374D02*
X045394D01*
X043258Y038187D02*
X045457D01*
X043248Y038177D02*
X043258Y038187D01*
D28*
X032362Y026396D02*
X033774D01*
X033925Y026244D01*
X026476Y021878D02*
X028051D01*
X026476D02*
Y026406D01*
X023839D02*
X026476D01*
X022331Y035185D02*
Y037429D01*
Y039673D02*
Y041878D01*
X032382Y021886D02*
X033925D01*
X032343Y021846D02*
X032382Y021886D01*
X032343Y010807D02*
Y021846D01*
Y025421D01*
X033925Y023886D02*
Y026244D01*
X026587Y043508D02*
Y044673D01*
Y043508D02*
X026587Y043508D01*
X025587Y043591D02*
Y044673D01*
X024598Y043591D02*
X025587D01*
X024598Y041402D02*
Y043591D01*
X027587Y037429D02*
Y041402D01*
Y042508D01*
Y03113D02*
Y037429D01*
Y03113D02*
X035823D01*
Y027398D02*
Y03113D01*
X024598Y041402D02*
X026535D01*
X026579D02*
X027587D01*
D29*
X0225Y026406D02*
Y028295D01*
X022303Y029476D02*
X0225D01*
Y028295D02*
Y029476D01*
D30*
X026437Y021209D02*
X027224D01*
X028051D01*
D31*
X022303Y029476D02*
Y030618D01*
X022331Y037429D02*
Y038413D01*
X023484D01*
Y040579D01*
X024595D01*
X022303Y030618D02*
X023524D01*
Y036091D01*
X024595D01*
D32*
X032461Y028453D02*
D03*
X028524D02*
D03*
D33*
X024587Y044673D02*
D03*
X025587D02*
D03*
X026587D02*
D03*
X027587D02*
D03*
X028587D02*
D03*
X029587D02*
D03*
X030587D02*
D03*
X031587D02*
D03*
X032587D02*
D03*
X033587D02*
D03*
X034587D02*
D03*
X035587D02*
D03*
X036587D02*
D03*
X037587D02*
D03*
X038587D02*
D03*
X039587D02*
D03*
X048642Y038795D02*
D03*
Y035795D02*
D03*
X036083Y039358D02*
D03*
Y037437D02*
D03*
X047252Y041524D02*
D03*
X048252D02*
D03*
X049252D02*
D03*
X050252D02*
D03*
X046055Y041524D02*
D03*
X045055D02*
D03*
X044055D02*
D03*
X043055D02*
D03*
X042055D02*
D03*
X055728Y013807D02*
D03*
X05376D02*
D03*
D34*
X022421Y032469D02*
D03*
Y044673D02*
D03*
X051949Y032469D02*
D03*
X051949Y044673D02*
D03*
D35*
X027587Y042508D02*
D03*
X025587D02*
D03*
X026587Y043508D02*
D03*
X030766Y020886D02*
D03*
Y021886D02*
D03*
Y022886D02*
D03*
Y023886D02*
D03*
X033925D02*
D03*
Y022886D02*
D03*
Y021886D02*
D03*
Y020886D02*
D03*
D36*
X028051Y007856D02*
D03*
X044154D02*
D03*
D37*
X030051Y01464D02*
D03*
X026051D02*
D03*
X028051D02*
D03*
X046154D02*
D03*
X042154D02*
D03*
X044154D02*
D03*
X05872Y009949D02*
D03*
Y011917D02*
D03*
X056673Y023217D02*
D03*
Y019673D02*
D03*
Y029516D02*
D03*
Y025972D02*
D03*
Y035815D02*
D03*
Y032272D02*
D03*
Y042114D02*
D03*
Y038571D02*
D03*
X023169Y011917D02*
D03*
Y009949D02*
D03*
D38*
X059429Y044673D02*
D03*
Y007665D02*
D03*
X022421Y032469D02*
D03*
Y044673D02*
D03*
X051949Y032469D02*
D03*
Y044673D02*
D03*
X022421Y007665D02*
D03*
D39*
X038091Y007856D02*
D03*
X034154D02*
D03*
D40*
X059134Y020461D02*
D03*
X054213D02*
D03*
X059134Y022429D02*
D03*
X054213D02*
D03*
X059134Y02676D02*
D03*
X054213D02*
D03*
X059134Y028728D02*
D03*
X054213D02*
D03*
X059134Y033059D02*
D03*
X054213D02*
D03*
X059134Y035028D02*
D03*
X054213D02*
D03*
X059134Y039358D02*
D03*
X054213D02*
D03*
X059134Y041327D02*
D03*
X054213D02*
D03*
D41*
X038882Y014665D02*
D03*
X039945D02*
D03*
X04098D02*
D03*
X042098Y01385D02*
D03*
Y013154D02*
D03*
X0595Y013D02*
D03*
X0585D02*
D03*
X058Y012D02*
D03*
X0575Y01D02*
D03*
X0565D02*
D03*
X0555D02*
D03*
X054Y013D02*
D03*
Y011D02*
D03*
X0545Y01D02*
D03*
X054Y009D02*
D03*
X053D02*
D03*
X0535Y008D02*
D03*
X053Y007D02*
D03*
X0515Y008D02*
D03*
X05Y007D02*
D03*
X0485Y008D02*
D03*
X05Y012D02*
D03*
X047D02*
D03*
X046D02*
D03*
X0455Y013D02*
D03*
X045Y012D02*
D03*
X0445Y013D02*
D03*
X044Y012D02*
D03*
X0445Y011D02*
D03*
X044Y01D02*
D03*
X0435Y011D02*
D03*
X043Y01D02*
D03*
X0425Y009D02*
D03*
X042Y008D02*
D03*
X0415Y009D02*
D03*
X041Y008D02*
D03*
X04D02*
D03*
X039D02*
D03*
X022303Y01802D02*
D03*
X028051Y023217D02*
D03*
X023839Y026406D02*
D03*
X028051Y021209D02*
D03*
X026437D02*
D03*
X027224D02*
D03*
X022303Y029476D02*
D03*
X032343Y010807D02*
D03*
X022331Y041878D02*
D03*
Y037429D02*
D03*
X027587D02*
D03*
X035823Y027398D02*
D03*
X026579Y042437D02*
D03*
D42*
X04108Y030126D02*
D03*
X038118D02*
D03*
X039105D02*
D03*
X040093D02*
D03*
X042067D02*
D03*
D43*
X032362Y026366D02*
D03*
D44*
X03598Y024555D02*
D03*
X042114Y011868D02*
D03*
X041567Y03948D02*
D03*
X044157Y039398D02*
D03*
X037319Y037193D02*
D03*
X043295Y035189D02*
D03*
X042055Y036539D02*
D03*
X042528Y038177D02*
D03*
X042055Y038846D02*
D03*
X041075Y038839D02*
D03*
X040091Y038846D02*
D03*
X051949Y030937D02*
D03*
X05063D02*
D03*
X049311D02*
D03*
X051949Y029673D02*
D03*
X05063D02*
D03*
X049311D02*
D03*
X039746Y023394D02*
D03*
X024976Y027272D02*
D03*
X026051Y01674D02*
D03*
X027051Y016071D02*
D03*
X042146Y01674D02*
D03*
X043154Y016071D02*
D03*
X038602Y033512D02*
D03*
X039577Y033528D02*
D03*
X040551Y033512D02*
D03*
X041526Y033528D02*
D03*
X0425Y033512D02*
D03*
X037608Y023386D02*
D03*
X039754Y023886D02*
D03*
X039754Y02522D02*
D03*
X044791Y025203D02*
D03*
X044795Y022886D02*
D03*
X046083Y025874D02*
D03*
X035902Y036591D02*
D03*
Y036197D02*
D03*
X041709Y023028D02*
D03*
X041016Y020886D02*
D03*
X042984D02*
D03*
X027051Y01674D02*
D03*
X02737Y018146D02*
D03*
X036173Y020886D02*
D03*
X049833Y025211D02*
D03*
X041071Y036543D02*
D03*
X040087D02*
D03*
X037972Y037764D02*
D03*
X047744Y037583D02*
D03*
X022331Y035185D02*
D03*
X02628Y029693D02*
D03*
X038839Y025224D02*
D03*
X047732Y023878D02*
D03*
X047715Y023386D02*
D03*
X039496Y041331D02*
D03*
X035976Y023886D02*
D03*
X0255Y018D02*
D03*
Y03D02*
D03*
X024Y033D02*
D03*
X0255Y036D02*
D03*
X024Y039D02*
D03*
X027Y027D02*
D03*
X0285Y03D02*
D03*
X027Y033D02*
D03*
X0285Y036D02*
D03*
X027Y039D02*
D03*
X0315Y012D02*
D03*
X03Y021D02*
D03*
X0315Y024D02*
D03*
X03Y027D02*
D03*
X0315Y03D02*
D03*
X03Y033D02*
D03*
X0315Y036D02*
D03*
X03Y039D02*
D03*
X0345Y018D02*
D03*
Y024D02*
D03*
Y03D02*
D03*
X033Y033D02*
D03*
X0345Y036D02*
D03*
X033Y039D02*
D03*
X0375Y012D02*
D03*
X036Y015D02*
D03*
X0375Y018D02*
D03*
Y03D02*
D03*
X036Y033D02*
D03*
X0375Y036D02*
D03*
X0405Y012D02*
D03*
X039Y027D02*
D03*
X042D02*
D03*
X0435Y03D02*
D03*
X042Y033D02*
D03*
X0435Y036D02*
D03*
Y042D02*
D03*
X0465Y03D02*
D03*
Y036D02*
D03*
Y042D02*
D03*
X048Y021D02*
D03*
Y027D02*
D03*
X0495Y036D02*
D03*
Y042D02*
D03*
X051Y021D02*
D03*
X0525Y024D02*
D03*
X051Y027D02*
D03*
X0525Y03D02*
D03*
X051Y033D02*
D03*
Y039D02*
D03*
X0525Y042D02*
D03*
X0555Y012D02*
D03*
Y024D02*
D03*
Y03D02*
D03*
Y036D02*
D03*
Y042D02*
D03*
X057Y015D02*
D03*
X0585Y024D02*
D03*
X057Y027D02*
D03*
X0585Y03D02*
D03*
X057Y033D02*
D03*
X0585Y036D02*
D03*
Y042D02*
D03*
X044106Y018602D02*
D03*
X044094Y019961D02*
D03*
X044087Y021406D02*
D03*
X039902Y035146D02*
D03*
M02*
