M48
;Layer_Color=9474304
;FILE_FORMAT=2:4
INCH,LZ
;TYPE=PLATED
T1F00S00C0.0118
T2F00S00C0.0236
T3F00S00C0.0280
T4F00S00C0.0315
T5F00S00C0.0394
T6F00S00C0.0512
T7F00S00C0.0591
T8F00S00C0.0630
T9F00S00C0.0787
T10F00S00C0.0984
T11F00S00C0.1220
T12F00S00C0.1260
%
T01
X0315Y012
X0375
X0405
X042114Y011868
X036Y015
X057
X0555Y012
Y024
X0525
X049833Y025211
X051Y027
X048
X047732Y023878
X047715Y023386
X048Y021
X051
X05063Y029673
X05063Y030937
X049311
Y029673
X051949
X0525Y03
X051949Y030937
X0555Y03
X0585
X057Y027
X0585Y024
X046083Y025874
X044791Y025203
X044795Y022886
X044087Y021406
X044094Y019961
X044106Y018602
X042984Y020886
X041016
X041709Y023028
X039746Y023394
X039754Y023886
X039754Y02522
X038839Y025224
X039Y027
X042
X0435Y03
X0465
X0375
X0345
X0315
Y024
X0345
X035976Y023886
X03598Y024555
X037608Y023386
X036173Y020886
X0375Y018
X0345
X042146Y01674
X043154Y016071
X027051Y016071
Y01674
X026051Y01674
X0255Y018
X02737Y018146
X03Y021
Y027
X027
X024976Y027272
X0255Y03
X02628Y029693
X0285Y03
X027Y033
X024
X022331Y035185
X0255Y036
X0285
X027Y039
X024
X03
Y033
X033
X036
X038602Y033512
X039577Y033528
X040551Y033512
X041526Y033528
X0425Y033512
X042Y033
X043295Y035189
X0435Y036
X042055Y036539
X041071Y036543
X040087
X039902Y035146
X0375Y036
X037319Y037193
X037972Y037764
X040091Y038846
X041075Y038839
X042055Y038846
X041567Y03948
X042528Y038177
X044157Y039398
X0435Y042
X0465
Y036
X035902Y036197
Y036591
X0345Y036
X0315
X033Y039
X039496Y041331
X0495Y042
X0525
X0555
X0585
Y036
X0555
X057Y033
X051
X0495Y036
X047744Y037583
X051Y039
T02
X032343Y010807
X039Y008
X04
X041
X042
X0425Y009
X0415
X043Y01
X044
X0445Y011
X0435
X044Y012
X045
X046
X0455Y013
X0445
X042098Y013154
Y01385
X04098Y014665
X039945
X038882
X047Y012
X05
X054Y013
Y011
X0545Y01
X0555
X0565
X0575
X058Y012
X0585Y013
X0595
X054Y009
X053
X0535Y008
X053Y007
X0515Y008
X05Y007
X0485Y008
X042067Y030126
X04108
X040093
X039105
X038118
X035823Y027398
X028051Y023217
Y021209
X027224
X026437
X022303Y01802
X023839Y026406
X022303Y029476
X022331Y037429
Y041878
X026579Y042437
X027587Y037429
T03
X032362Y026366
T04
X033925Y020886
Y021886
Y022886
Y023886
X030766
Y022886
Y021886
Y020886
X027587Y042508
X025587
X026587Y043508
T05
X05376Y013807
X055728
X032461Y028453
X028524
X028587Y044673
X027587
X026587
X025587
X024587
X029587
X030587
X031587
X032587
X033587
X034587
X035587
X036587
X037587
X038587
X039587
X042055Y041524
X043055
X044055
X045055
X046055
X036083Y039358
Y037437
X048642Y038795
Y035795
X048252Y041524
X047252
X049252
X050252
T06
X023169Y009949
Y011917
X026051Y01464
X028051
X030051
X042154
X044154
X046154
X05872Y011917
Y009949
T07
X034154Y007856
X038091
T08
X054213Y020461
Y022429
Y02676
Y028728
X059134
Y02676
Y022429
Y020461
Y033059
Y035028
Y039358
Y041327
X054213
Y039358
Y035028
Y033059
T09
X056673Y019673
Y023217
Y025972
Y029516
Y032272
Y035815
Y038571
Y042114
T10
X022421Y032469
Y044673
X051949
X051949Y032469
T11
X028051Y007856
X044154
T12
X022421Y007665
X059429
X022421Y032469
Y044673
X051949
X059429Y044673
X051949Y032469
M30
