G04 Layer_Color=2752767*
%FSTAX24Y24*%
%MOIN*%
G70*
G01*
G75*
%ADD97C,0.0020*%
%ADD98C,0.0027*%
%ADD99C,0.0013*%
D97*
X032381Y028373D02*
Y028533D01*
X032541D01*
Y028373D01*
X032381D01*
X028444D02*
Y028533D01*
X028604D01*
Y028373D01*
X028444D01*
X024507Y044593D02*
Y044753D01*
X024667D01*
Y044593D01*
X024507D01*
X025507D02*
Y044753D01*
X025667D01*
Y044593D01*
X025507D01*
X026507D02*
Y044753D01*
X026667D01*
Y044593D01*
X026507D01*
X027507D02*
Y044753D01*
X027667D01*
Y044593D01*
X027507D01*
X028507D02*
Y044753D01*
X028667D01*
Y044593D01*
X028507D01*
X029507D02*
Y044753D01*
X029667D01*
Y044593D01*
X029507D01*
X030507D02*
Y044753D01*
X030667D01*
Y044593D01*
X030507D01*
X031507D02*
Y044753D01*
X031667D01*
Y044593D01*
X031507D01*
X032507D02*
Y044753D01*
X032667D01*
Y044593D01*
X032507D01*
X033507D02*
Y044753D01*
X033667D01*
Y044593D01*
X033507D01*
X034507D02*
Y044753D01*
X034667D01*
Y044593D01*
X034507D01*
X035507D02*
Y044753D01*
X035667D01*
Y044593D01*
X035507D01*
X036507D02*
Y044753D01*
X036667D01*
Y044593D01*
X036507D01*
X037507D02*
Y044753D01*
X037667D01*
Y044593D01*
X037507D01*
X038507D02*
Y044753D01*
X038667D01*
Y044593D01*
X038507D01*
X039507D02*
Y044753D01*
X039667D01*
Y044593D01*
X039507D01*
X048562Y038715D02*
Y038875D01*
X048722D01*
Y038715D01*
X048562D01*
Y035715D02*
Y035875D01*
X048722D01*
Y035715D01*
X048562D01*
X036003Y039278D02*
Y039438D01*
X036163D01*
Y039278D01*
X036003D01*
Y037357D02*
Y037517D01*
X036163D01*
Y037357D01*
X036003D01*
X027587Y042428D02*
X027507Y042588D01*
X027667D01*
X027587Y042428D01*
X025587D02*
X025507Y042588D01*
X025667D01*
X025587Y042428D01*
X026587Y043428D02*
X026507Y043588D01*
X026667D01*
X026587Y043428D01*
X028051Y007776D02*
X028091Y007816D01*
X028131D01*
X028091Y007856D01*
X028131Y007896D01*
X028091D01*
X028051Y007936D01*
X028011Y007896D01*
X027971D01*
X028011Y007856D01*
X027971Y007816D01*
X028011D01*
X028051Y007776D01*
X029971Y01456D02*
X030011Y01464D01*
X029971Y01472D01*
X030051Y01468D01*
X030131Y01472D01*
X030091Y01464D01*
X030131Y01456D01*
X030051Y0146D01*
X029971Y01456D01*
X025971D02*
X026011Y01464D01*
X025971Y01472D01*
X026051Y01468D01*
X026131Y01472D01*
X026091Y01464D01*
X026131Y01456D01*
X026051Y0146D01*
X025971Y01456D01*
X027971D02*
X028011Y01464D01*
X027971Y01472D01*
X028051Y01468D01*
X028131Y01472D01*
X028091Y01464D01*
X028131Y01456D01*
X028051Y0146D01*
X027971Y01456D01*
X044154Y007776D02*
X044194Y007816D01*
X044234D01*
X044194Y007856D01*
X044234Y007896D01*
X044194D01*
X044154Y007936D01*
X044114Y007896D01*
X044074D01*
X044114Y007856D01*
X044074Y007816D01*
X044114D01*
X044154Y007776D01*
X046074Y01456D02*
X046114Y01464D01*
X046074Y01472D01*
X046154Y01468D01*
X046234Y01472D01*
X046194Y01464D01*
X046234Y01456D01*
X046154Y0146D01*
X046074Y01456D01*
X042074D02*
X042114Y01464D01*
X042074Y01472D01*
X042154Y01468D01*
X042234Y01472D01*
X042194Y01464D01*
X042234Y01456D01*
X042154Y0146D01*
X042074Y01456D01*
X044074D02*
X044114Y01464D01*
X044074Y01472D01*
X044154Y01468D01*
X044234Y01472D01*
X044194Y01464D01*
X044234Y01456D01*
X044154Y0146D01*
X044074Y01456D01*
X059389Y044633D02*
Y044593D01*
X059469D01*
Y044633D01*
X059509D01*
Y044713D01*
X059469D01*
Y044753D01*
X059389D01*
Y044713D01*
X059349D01*
Y044633D01*
X059389D01*
Y007625D02*
Y007585D01*
X059469D01*
Y007625D01*
X059509D01*
Y007705D01*
X059469D01*
Y007745D01*
X059389D01*
Y007705D01*
X059349D01*
Y007625D01*
X059389D01*
X022381Y032429D02*
Y032389D01*
X022461D01*
Y032429D01*
X022501D01*
Y032508D01*
X022461D01*
Y032548D01*
X022381D01*
Y032508D01*
X022341D01*
Y032429D01*
X022381D01*
Y044633D02*
Y044593D01*
X022461D01*
Y044633D01*
X022501D01*
Y044713D01*
X022461D01*
Y044753D01*
X022381D01*
Y044713D01*
X022341D01*
Y044633D01*
X022381D01*
X051909Y032429D02*
Y032389D01*
X051989D01*
Y032429D01*
X052029D01*
Y032508D01*
X051989D01*
Y032548D01*
X051909D01*
Y032508D01*
X051869D01*
Y032429D01*
X051909D01*
Y044633D02*
Y044593D01*
X051989D01*
Y044633D01*
X052029D01*
Y044713D01*
X051989D01*
Y044753D01*
X051909D01*
Y044713D01*
X051869D01*
Y044633D01*
X051909D01*
X022381Y007625D02*
Y007585D01*
X022461D01*
Y007625D01*
X022501D01*
Y007705D01*
X022461D01*
Y007745D01*
X022381D01*
Y007705D01*
X022341D01*
Y007625D01*
X022381D01*
X047172Y041444D02*
Y041604D01*
X047332D01*
Y041444D01*
X047172D01*
X048172D02*
Y041604D01*
X048332D01*
Y041444D01*
X048172D01*
X049172D02*
Y041604D01*
X049332D01*
Y041444D01*
X049172D01*
X050172D02*
Y041604D01*
X050332D01*
Y041444D01*
X050172D01*
X038011Y007776D02*
X038051D01*
X038091Y007816D01*
X038131Y007776D01*
X038171D01*
Y007816D01*
X038131Y007856D01*
X038171Y007896D01*
Y007936D01*
X038131D01*
X038091Y007896D01*
X038051Y007936D01*
X038011D01*
Y007896D01*
X038051Y007856D01*
X038011Y007816D01*
Y007776D01*
X034074D02*
X034114D01*
X034154Y007816D01*
X034194Y007776D01*
X034234D01*
Y007816D01*
X034194Y007856D01*
X034234Y007896D01*
Y007936D01*
X034194D01*
X034154Y007896D01*
X034114Y007936D01*
X034074D01*
Y007896D01*
X034114Y007856D01*
X034074Y007816D01*
Y007776D01*
X05864Y009869D02*
X05868Y009949D01*
X05864Y010029D01*
X05872Y009989D01*
X0588Y010029D01*
X05876Y009949D01*
X0588Y009869D01*
X05872Y009909D01*
X05864Y009869D01*
Y011837D02*
X05868Y011917D01*
X05864Y011997D01*
X05872Y011957D01*
X0588Y011997D01*
X05876Y011917D01*
X0588Y011837D01*
X05872Y011877D01*
X05864Y011837D01*
X059054Y020461D02*
X059134Y020541D01*
X059214Y020461D01*
X059134Y020381D01*
X059054Y020461D01*
X054133D02*
X054213Y020541D01*
X054293Y020461D01*
X054213Y020381D01*
X054133Y020461D01*
X059054Y022429D02*
X059134Y022509D01*
X059214Y022429D01*
X059134Y022349D01*
X059054Y022429D01*
X054133D02*
X054213Y022509D01*
X054293Y022429D01*
X054213Y022349D01*
X054133Y022429D01*
X056593Y023137D02*
Y023297D01*
X056753D01*
Y023137D01*
X056593D01*
X056633Y023177D02*
Y023257D01*
X056713D01*
Y023177D01*
X056633D01*
X056593Y019593D02*
Y019753D01*
X056753D01*
Y019593D01*
X056593D01*
X056633Y019633D02*
Y019713D01*
X056713D01*
Y019633D01*
X056633D01*
X059054Y02676D02*
X059134Y02684D01*
X059214Y02676D01*
X059134Y02668D01*
X059054Y02676D01*
X054133D02*
X054213Y02684D01*
X054293Y02676D01*
X054213Y02668D01*
X054133Y02676D01*
X059054Y028728D02*
X059134Y028808D01*
X059214Y028728D01*
X059134Y028648D01*
X059054Y028728D01*
X054133D02*
X054213Y028808D01*
X054293Y028728D01*
X054213Y028648D01*
X054133Y028728D01*
X056593Y029436D02*
Y029596D01*
X056753D01*
Y029436D01*
X056593D01*
X056633Y029476D02*
Y029556D01*
X056713D01*
Y029476D01*
X056633D01*
X056593Y025892D02*
Y026052D01*
X056753D01*
Y025892D01*
X056593D01*
X056633Y025932D02*
Y026012D01*
X056713D01*
Y025932D01*
X056633D01*
X059054Y033059D02*
X059134Y033139D01*
X059214Y033059D01*
X059134Y032979D01*
X059054Y033059D01*
X054133D02*
X054213Y033139D01*
X054293Y033059D01*
X054213Y032979D01*
X054133Y033059D01*
X059054Y035028D02*
X059134Y035108D01*
X059214Y035028D01*
X059134Y034948D01*
X059054Y035028D01*
X054133D02*
X054213Y035108D01*
X054293Y035028D01*
X054213Y034948D01*
X054133Y035028D01*
X056593Y035735D02*
Y035895D01*
X056753D01*
Y035735D01*
X056593D01*
X056633Y035775D02*
Y035855D01*
X056713D01*
Y035775D01*
X056633D01*
X056593Y032192D02*
Y032352D01*
X056753D01*
Y032192D01*
X056593D01*
X056633Y032232D02*
Y032312D01*
X056713D01*
Y032232D01*
X056633D01*
X059054Y039358D02*
X059134Y039438D01*
X059214Y039358D01*
X059134Y039278D01*
X059054Y039358D01*
X054133D02*
X054213Y039438D01*
X054293Y039358D01*
X054213Y039278D01*
X054133Y039358D01*
X059054Y041327D02*
X059134Y041407D01*
X059214Y041327D01*
X059134Y041247D01*
X059054Y041327D01*
X054133D02*
X054213Y041407D01*
X054293Y041327D01*
X054213Y041247D01*
X054133Y041327D01*
X056593Y042034D02*
Y042194D01*
X056753D01*
Y042034D01*
X056593D01*
X056633Y042074D02*
Y042154D01*
X056713D01*
Y042074D01*
X056633D01*
X056593Y038491D02*
Y038651D01*
X056753D01*
Y038491D01*
X056593D01*
X056633Y038531D02*
Y038611D01*
X056713D01*
Y038531D01*
X056633D01*
X023089Y011837D02*
X023129Y011917D01*
X023089Y011997D01*
X023169Y011957D01*
X023249Y011997D01*
X023209Y011917D01*
X023249Y011837D01*
X023169Y011877D01*
X023089Y011837D01*
Y009869D02*
X023129Y009949D01*
X023089Y010029D01*
X023169Y009989D01*
X023249Y010029D01*
X023209Y009949D01*
X023249Y009869D01*
X023169Y009909D01*
X023089Y009869D01*
X030766Y020806D02*
X030686Y020966D01*
X030846D01*
X030766Y020806D01*
Y021806D02*
X030686Y021966D01*
X030846D01*
X030766Y021806D01*
Y022806D02*
X030686Y022966D01*
X030846D01*
X030766Y022806D01*
Y023806D02*
X030686Y023966D01*
X030846D01*
X030766Y023806D01*
X033925D02*
X033845Y023966D01*
X034005D01*
X033925Y023806D01*
Y022806D02*
X033845Y022966D01*
X034005D01*
X033925Y022806D01*
Y021806D02*
X033845Y021966D01*
X034005D01*
X033925Y021806D01*
Y020806D02*
X033845Y020966D01*
X034005D01*
X033925Y020806D01*
X045975Y041444D02*
Y041604D01*
X046135D01*
Y041444D01*
X045975D01*
X044975D02*
Y041604D01*
X045135D01*
Y041444D01*
X044975D01*
X043975D02*
Y041604D01*
X044135D01*
Y041444D01*
X043975D01*
X042975D02*
Y041604D01*
X043135D01*
Y041444D01*
X042975D01*
X041975D02*
Y041604D01*
X042135D01*
Y041444D01*
X041975D01*
X055648Y013727D02*
Y013887D01*
X055808D01*
Y013727D01*
X055648D01*
X05368D02*
Y013887D01*
X05384D01*
Y013727D01*
X05368D01*
X032362Y026286D02*
X032282Y026446D01*
X032442D01*
X032362Y026286D01*
Y026326D02*
X032322Y026406D01*
X032402D01*
X032362Y026326D01*
X03598Y024475D02*
X03602Y024515D01*
X03606D01*
X03602Y024555D01*
X03606Y024595D01*
X03602D01*
X03598Y024635D01*
X03594Y024595D01*
X0359D01*
X03594Y024555D01*
X0359Y024515D01*
X03594D01*
X03598Y024475D01*
Y024515D02*
X036Y024535D01*
X03602D01*
X036Y024555D01*
X03602Y024575D01*
X036D01*
X03598Y024595D01*
X03596Y024575D01*
X03594D01*
X03596Y024555D01*
X03594Y024535D01*
X03596D01*
X03598Y024515D01*
X042114Y011788D02*
X042154Y011828D01*
X042194D01*
X042154Y011868D01*
X042194Y011908D01*
X042154D01*
X042114Y011948D01*
X042074Y011908D01*
X042034D01*
X042074Y011868D01*
X042034Y011828D01*
X042074D01*
X042114Y011788D01*
Y011828D02*
X042134Y011848D01*
X042154D01*
X042134Y011868D01*
X042154Y011888D01*
X042134D01*
X042114Y011908D01*
X042094Y011888D01*
X042074D01*
X042094Y011868D01*
X042074Y011848D01*
X042094D01*
X042114Y011828D01*
X041567Y0394D02*
X041607Y03944D01*
X041647D01*
X041607Y03948D01*
X041647Y03952D01*
X041607D01*
X041567Y03956D01*
X041527Y03952D01*
X041487D01*
X041527Y03948D01*
X041487Y03944D01*
X041527D01*
X041567Y0394D01*
Y03944D02*
X041587Y03946D01*
X041607D01*
X041587Y03948D01*
X041607Y0395D01*
X041587D01*
X041567Y03952D01*
X041547Y0395D01*
X041527D01*
X041547Y03948D01*
X041527Y03946D01*
X041547D01*
X041567Y03944D01*
X044157Y039318D02*
X044197Y039358D01*
X044237D01*
X044197Y039398D01*
X044237Y039438D01*
X044197D01*
X044157Y039478D01*
X044117Y039438D01*
X044077D01*
X044117Y039398D01*
X044077Y039358D01*
X044117D01*
X044157Y039318D01*
Y039358D02*
X044177Y039378D01*
X044197D01*
X044177Y039398D01*
X044197Y039418D01*
X044177D01*
X044157Y039438D01*
X044137Y039418D01*
X044117D01*
X044137Y039398D01*
X044117Y039378D01*
X044137D01*
X044157Y039358D01*
X037319Y037113D02*
X037359Y037153D01*
X037399D01*
X037359Y037193D01*
X037399Y037233D01*
X037359D01*
X037319Y037273D01*
X037279Y037233D01*
X037239D01*
X037279Y037193D01*
X037239Y037153D01*
X037279D01*
X037319Y037113D01*
Y037153D02*
X037339Y037173D01*
X037359D01*
X037339Y037193D01*
X037359Y037213D01*
X037339D01*
X037319Y037233D01*
X037299Y037213D01*
X037279D01*
X037299Y037193D01*
X037279Y037173D01*
X037299D01*
X037319Y037153D01*
X043295Y035109D02*
X043335Y035149D01*
X043375D01*
X043335Y035189D01*
X043375Y035229D01*
X043335D01*
X043295Y035269D01*
X043255Y035229D01*
X043215D01*
X043255Y035189D01*
X043215Y035149D01*
X043255D01*
X043295Y035109D01*
Y035149D02*
X043315Y035169D01*
X043335D01*
X043315Y035189D01*
X043335Y035209D01*
X043315D01*
X043295Y035229D01*
X043275Y035209D01*
X043255D01*
X043275Y035189D01*
X043255Y035169D01*
X043275D01*
X043295Y035149D01*
X042055Y036459D02*
X042095Y036499D01*
X042135D01*
X042095Y036539D01*
X042135Y036579D01*
X042095D01*
X042055Y036619D01*
X042015Y036579D01*
X041975D01*
X042015Y036539D01*
X041975Y036499D01*
X042015D01*
X042055Y036459D01*
Y036499D02*
X042075Y036519D01*
X042095D01*
X042075Y036539D01*
X042095Y036559D01*
X042075D01*
X042055Y036579D01*
X042035Y036559D01*
X042015D01*
X042035Y036539D01*
X042015Y036519D01*
X042035D01*
X042055Y036499D01*
X042528Y038097D02*
X042568Y038137D01*
X042608D01*
X042568Y038177D01*
X042608Y038217D01*
X042568D01*
X042528Y038257D01*
X042488Y038217D01*
X042448D01*
X042488Y038177D01*
X042448Y038137D01*
X042488D01*
X042528Y038097D01*
Y038137D02*
X042548Y038157D01*
X042568D01*
X042548Y038177D01*
X042568Y038197D01*
X042548D01*
X042528Y038217D01*
X042508Y038197D01*
X042488D01*
X042508Y038177D01*
X042488Y038157D01*
X042508D01*
X042528Y038137D01*
X042055Y038766D02*
X042095Y038806D01*
X042135D01*
X042095Y038846D01*
X042135Y038886D01*
X042095D01*
X042055Y038926D01*
X042015Y038886D01*
X041975D01*
X042015Y038846D01*
X041975Y038806D01*
X042015D01*
X042055Y038766D01*
Y038806D02*
X042075Y038826D01*
X042095D01*
X042075Y038846D01*
X042095Y038866D01*
X042075D01*
X042055Y038886D01*
X042035Y038866D01*
X042015D01*
X042035Y038846D01*
X042015Y038826D01*
X042035D01*
X042055Y038806D01*
X041075Y038759D02*
X041115Y038799D01*
X041155D01*
X041115Y038839D01*
X041155Y038879D01*
X041115D01*
X041075Y038919D01*
X041035Y038879D01*
X040995D01*
X041035Y038839D01*
X040995Y038799D01*
X041035D01*
X041075Y038759D01*
Y038799D02*
X041095Y038819D01*
X041115D01*
X041095Y038839D01*
X041115Y038859D01*
X041095D01*
X041075Y038879D01*
X041055Y038859D01*
X041035D01*
X041055Y038839D01*
X041035Y038819D01*
X041055D01*
X041075Y038799D01*
X040091Y038766D02*
X040131Y038806D01*
X040171D01*
X040131Y038846D01*
X040171Y038886D01*
X040131D01*
X040091Y038926D01*
X040051Y038886D01*
X040011D01*
X040051Y038846D01*
X040011Y038806D01*
X040051D01*
X040091Y038766D01*
Y038806D02*
X040111Y038826D01*
X040131D01*
X040111Y038846D01*
X040131Y038866D01*
X040111D01*
X040091Y038886D01*
X040071Y038866D01*
X040051D01*
X040071Y038846D01*
X040051Y038826D01*
X040071D01*
X040091Y038806D01*
X051949Y030857D02*
X051989Y030897D01*
X052029D01*
X051989Y030937D01*
X052029Y030977D01*
X051989D01*
X051949Y031017D01*
X051909Y030977D01*
X051869D01*
X051909Y030937D01*
X051869Y030897D01*
X051909D01*
X051949Y030857D01*
Y030897D02*
X051969Y030917D01*
X051989D01*
X051969Y030937D01*
X051989Y030957D01*
X051969D01*
X051949Y030977D01*
X051929Y030957D01*
X051909D01*
X051929Y030937D01*
X051909Y030917D01*
X051929D01*
X051949Y030897D01*
X05063Y030857D02*
X05067Y030897D01*
X05071D01*
X05067Y030937D01*
X05071Y030977D01*
X05067D01*
X05063Y031017D01*
X05059Y030977D01*
X05055D01*
X05059Y030937D01*
X05055Y030897D01*
X05059D01*
X05063Y030857D01*
Y030897D02*
X05065Y030917D01*
X05067D01*
X05065Y030937D01*
X05067Y030957D01*
X05065D01*
X05063Y030977D01*
X05061Y030957D01*
X05059D01*
X05061Y030937D01*
X05059Y030917D01*
X05061D01*
X05063Y030897D01*
X049311Y030857D02*
X049351Y030897D01*
X049391D01*
X049351Y030937D01*
X049391Y030977D01*
X049351D01*
X049311Y031017D01*
X049271Y030977D01*
X049231D01*
X049271Y030937D01*
X049231Y030897D01*
X049271D01*
X049311Y030857D01*
Y030897D02*
X049331Y030917D01*
X049351D01*
X049331Y030937D01*
X049351Y030957D01*
X049331D01*
X049311Y030977D01*
X049291Y030957D01*
X049271D01*
X049291Y030937D01*
X049271Y030917D01*
X049291D01*
X049311Y030897D01*
X051949Y029593D02*
X051989Y029633D01*
X052029D01*
X051989Y029673D01*
X052029Y029713D01*
X051989D01*
X051949Y029753D01*
X051909Y029713D01*
X051869D01*
X051909Y029673D01*
X051869Y029633D01*
X051909D01*
X051949Y029593D01*
Y029633D02*
X051969Y029653D01*
X051989D01*
X051969Y029673D01*
X051989Y029693D01*
X051969D01*
X051949Y029713D01*
X051929Y029693D01*
X051909D01*
X051929Y029673D01*
X051909Y029653D01*
X051929D01*
X051949Y029633D01*
X05063Y029593D02*
X05067Y029633D01*
X05071D01*
X05067Y029673D01*
X05071Y029713D01*
X05067D01*
X05063Y029753D01*
X05059Y029713D01*
X05055D01*
X05059Y029673D01*
X05055Y029633D01*
X05059D01*
X05063Y029593D01*
Y029633D02*
X05065Y029653D01*
X05067D01*
X05065Y029673D01*
X05067Y029693D01*
X05065D01*
X05063Y029713D01*
X05061Y029693D01*
X05059D01*
X05061Y029673D01*
X05059Y029653D01*
X05061D01*
X05063Y029633D01*
X049311Y029593D02*
X049351Y029633D01*
X049391D01*
X049351Y029673D01*
X049391Y029713D01*
X049351D01*
X049311Y029753D01*
X049271Y029713D01*
X049231D01*
X049271Y029673D01*
X049231Y029633D01*
X049271D01*
X049311Y029593D01*
Y029633D02*
X049331Y029653D01*
X049351D01*
X049331Y029673D01*
X049351Y029693D01*
X049331D01*
X049311Y029713D01*
X049291Y029693D01*
X049271D01*
X049291Y029673D01*
X049271Y029653D01*
X049291D01*
X049311Y029633D01*
X039746Y023314D02*
X039786Y023354D01*
X039826D01*
X039786Y023394D01*
X039826Y023434D01*
X039786D01*
X039746Y023474D01*
X039706Y023434D01*
X039666D01*
X039706Y023394D01*
X039666Y023354D01*
X039706D01*
X039746Y023314D01*
Y023354D02*
X039766Y023374D01*
X039786D01*
X039766Y023394D01*
X039786Y023414D01*
X039766D01*
X039746Y023434D01*
X039726Y023414D01*
X039706D01*
X039726Y023394D01*
X039706Y023374D01*
X039726D01*
X039746Y023354D01*
X024976Y027192D02*
X025016Y027232D01*
X025056D01*
X025016Y027272D01*
X025056Y027312D01*
X025016D01*
X024976Y027352D01*
X024936Y027312D01*
X024896D01*
X024936Y027272D01*
X024896Y027232D01*
X024936D01*
X024976Y027192D01*
Y027232D02*
X024996Y027252D01*
X025016D01*
X024996Y027272D01*
X025016Y027292D01*
X024996D01*
X024976Y027312D01*
X024956Y027292D01*
X024936D01*
X024956Y027272D01*
X024936Y027252D01*
X024956D01*
X024976Y027232D01*
X026051Y01666D02*
X026091Y0167D01*
X026131D01*
X026091Y01674D01*
X026131Y01678D01*
X026091D01*
X026051Y01682D01*
X026011Y01678D01*
X025971D01*
X026011Y01674D01*
X025971Y0167D01*
X026011D01*
X026051Y01666D01*
Y0167D02*
X026071Y01672D01*
X026091D01*
X026071Y01674D01*
X026091Y01676D01*
X026071D01*
X026051Y01678D01*
X026031Y01676D01*
X026011D01*
X026031Y01674D01*
X026011Y01672D01*
X026031D01*
X026051Y0167D01*
X027051Y015991D02*
X027091Y016031D01*
X027131D01*
X027091Y016071D01*
X027131Y016111D01*
X027091D01*
X027051Y016151D01*
X027011Y016111D01*
X026971D01*
X027011Y016071D01*
X026971Y016031D01*
X027011D01*
X027051Y015991D01*
Y016031D02*
X027071Y016051D01*
X027091D01*
X027071Y016071D01*
X027091Y016091D01*
X027071D01*
X027051Y016111D01*
X027031Y016091D01*
X027011D01*
X027031Y016071D01*
X027011Y016051D01*
X027031D01*
X027051Y016031D01*
X042146Y01666D02*
X042186Y0167D01*
X042226D01*
X042186Y01674D01*
X042226Y01678D01*
X042186D01*
X042146Y01682D01*
X042106Y01678D01*
X042066D01*
X042106Y01674D01*
X042066Y0167D01*
X042106D01*
X042146Y01666D01*
Y0167D02*
X042166Y01672D01*
X042186D01*
X042166Y01674D01*
X042186Y01676D01*
X042166D01*
X042146Y01678D01*
X042126Y01676D01*
X042106D01*
X042126Y01674D01*
X042106Y01672D01*
X042126D01*
X042146Y0167D01*
X043154Y015991D02*
X043194Y016031D01*
X043234D01*
X043194Y016071D01*
X043234Y016111D01*
X043194D01*
X043154Y016151D01*
X043114Y016111D01*
X043074D01*
X043114Y016071D01*
X043074Y016031D01*
X043114D01*
X043154Y015991D01*
Y016031D02*
X043174Y016051D01*
X043194D01*
X043174Y016071D01*
X043194Y016091D01*
X043174D01*
X043154Y016111D01*
X043134Y016091D01*
X043114D01*
X043134Y016071D01*
X043114Y016051D01*
X043134D01*
X043154Y016031D01*
X038602Y033432D02*
X038642Y033472D01*
X038682D01*
X038642Y033512D01*
X038682Y033552D01*
X038642D01*
X038602Y033592D01*
X038562Y033552D01*
X038522D01*
X038562Y033512D01*
X038522Y033472D01*
X038562D01*
X038602Y033432D01*
Y033472D02*
X038622Y033492D01*
X038642D01*
X038622Y033512D01*
X038642Y033532D01*
X038622D01*
X038602Y033552D01*
X038582Y033532D01*
X038562D01*
X038582Y033512D01*
X038562Y033492D01*
X038582D01*
X038602Y033472D01*
X039577Y033448D02*
X039617Y033488D01*
X039657D01*
X039617Y033528D01*
X039657Y033568D01*
X039617D01*
X039577Y033608D01*
X039537Y033568D01*
X039497D01*
X039537Y033528D01*
X039497Y033488D01*
X039537D01*
X039577Y033448D01*
Y033488D02*
X039597Y033508D01*
X039617D01*
X039597Y033528D01*
X039617Y033548D01*
X039597D01*
X039577Y033568D01*
X039557Y033548D01*
X039537D01*
X039557Y033528D01*
X039537Y033508D01*
X039557D01*
X039577Y033488D01*
X040551Y033432D02*
X040591Y033472D01*
X040631D01*
X040591Y033512D01*
X040631Y033552D01*
X040591D01*
X040551Y033592D01*
X040511Y033552D01*
X040471D01*
X040511Y033512D01*
X040471Y033472D01*
X040511D01*
X040551Y033432D01*
Y033472D02*
X040571Y033492D01*
X040591D01*
X040571Y033512D01*
X040591Y033532D01*
X040571D01*
X040551Y033552D01*
X040531Y033532D01*
X040511D01*
X040531Y033512D01*
X040511Y033492D01*
X040531D01*
X040551Y033472D01*
X041526Y033448D02*
X041566Y033488D01*
X041606D01*
X041566Y033528D01*
X041606Y033568D01*
X041566D01*
X041526Y033608D01*
X041486Y033568D01*
X041446D01*
X041486Y033528D01*
X041446Y033488D01*
X041486D01*
X041526Y033448D01*
Y033488D02*
X041546Y033508D01*
X041566D01*
X041546Y033528D01*
X041566Y033548D01*
X041546D01*
X041526Y033568D01*
X041506Y033548D01*
X041486D01*
X041506Y033528D01*
X041486Y033508D01*
X041506D01*
X041526Y033488D01*
X0425Y033432D02*
X04254Y033472D01*
X04258D01*
X04254Y033512D01*
X04258Y033552D01*
X04254D01*
X0425Y033592D01*
X04246Y033552D01*
X04242D01*
X04246Y033512D01*
X04242Y033472D01*
X04246D01*
X0425Y033432D01*
Y033472D02*
X04252Y033492D01*
X04254D01*
X04252Y033512D01*
X04254Y033532D01*
X04252D01*
X0425Y033552D01*
X04248Y033532D01*
X04246D01*
X04248Y033512D01*
X04246Y033492D01*
X04248D01*
X0425Y033472D01*
X037608Y023306D02*
X037648Y023346D01*
X037688D01*
X037648Y023386D01*
X037688Y023426D01*
X037648D01*
X037608Y023466D01*
X037568Y023426D01*
X037528D01*
X037568Y023386D01*
X037528Y023346D01*
X037568D01*
X037608Y023306D01*
Y023346D02*
X037628Y023366D01*
X037648D01*
X037628Y023386D01*
X037648Y023406D01*
X037628D01*
X037608Y023426D01*
X037588Y023406D01*
X037568D01*
X037588Y023386D01*
X037568Y023366D01*
X037588D01*
X037608Y023346D01*
X039754Y023806D02*
X039794Y023846D01*
X039834D01*
X039794Y023886D01*
X039834Y023926D01*
X039794D01*
X039754Y023966D01*
X039714Y023926D01*
X039674D01*
X039714Y023886D01*
X039674Y023846D01*
X039714D01*
X039754Y023806D01*
Y023846D02*
X039774Y023866D01*
X039794D01*
X039774Y023886D01*
X039794Y023906D01*
X039774D01*
X039754Y023926D01*
X039734Y023906D01*
X039714D01*
X039734Y023886D01*
X039714Y023866D01*
X039734D01*
X039754Y023846D01*
X039754Y02514D02*
X039794Y02518D01*
X039834D01*
X039794Y02522D01*
X039834Y02526D01*
X039794D01*
X039754Y0253D01*
X039714Y02526D01*
X039674D01*
X039714Y02522D01*
X039674Y02518D01*
X039714D01*
X039754Y02514D01*
Y02518D02*
X039774Y0252D01*
X039794D01*
X039774Y02522D01*
X039794Y02524D01*
X039774D01*
X039754Y02526D01*
X039734Y02524D01*
X039714D01*
X039734Y02522D01*
X039714Y0252D01*
X039734D01*
X039754Y02518D01*
X044791Y025123D02*
X044831Y025163D01*
X044871D01*
X044831Y025203D01*
X044871Y025243D01*
X044831D01*
X044791Y025283D01*
X044751Y025243D01*
X044711D01*
X044751Y025203D01*
X044711Y025163D01*
X044751D01*
X044791Y025123D01*
Y025163D02*
X044811Y025183D01*
X044831D01*
X044811Y025203D01*
X044831Y025223D01*
X044811D01*
X044791Y025243D01*
X044771Y025223D01*
X044751D01*
X044771Y025203D01*
X044751Y025183D01*
X044771D01*
X044791Y025163D01*
X044795Y022806D02*
X044835Y022846D01*
X044875D01*
X044835Y022886D01*
X044875Y022926D01*
X044835D01*
X044795Y022966D01*
X044755Y022926D01*
X044715D01*
X044755Y022886D01*
X044715Y022846D01*
X044755D01*
X044795Y022806D01*
Y022846D02*
X044815Y022866D01*
X044835D01*
X044815Y022886D01*
X044835Y022906D01*
X044815D01*
X044795Y022926D01*
X044775Y022906D01*
X044755D01*
X044775Y022886D01*
X044755Y022866D01*
X044775D01*
X044795Y022846D01*
X046083Y025794D02*
X046123Y025834D01*
X046163D01*
X046123Y025874D01*
X046163Y025914D01*
X046123D01*
X046083Y025954D01*
X046043Y025914D01*
X046003D01*
X046043Y025874D01*
X046003Y025834D01*
X046043D01*
X046083Y025794D01*
Y025834D02*
X046103Y025854D01*
X046123D01*
X046103Y025874D01*
X046123Y025894D01*
X046103D01*
X046083Y025914D01*
X046063Y025894D01*
X046043D01*
X046063Y025874D01*
X046043Y025854D01*
X046063D01*
X046083Y025834D01*
X035902Y036511D02*
X035942Y036551D01*
X035982D01*
X035942Y036591D01*
X035982Y036631D01*
X035942D01*
X035902Y036671D01*
X035862Y036631D01*
X035822D01*
X035862Y036591D01*
X035822Y036551D01*
X035862D01*
X035902Y036511D01*
Y036551D02*
X035922Y036571D01*
X035942D01*
X035922Y036591D01*
X035942Y036611D01*
X035922D01*
X035902Y036631D01*
X035882Y036611D01*
X035862D01*
X035882Y036591D01*
X035862Y036571D01*
X035882D01*
X035902Y036551D01*
Y036117D02*
X035942Y036157D01*
X035982D01*
X035942Y036197D01*
X035982Y036237D01*
X035942D01*
X035902Y036277D01*
X035862Y036237D01*
X035822D01*
X035862Y036197D01*
X035822Y036157D01*
X035862D01*
X035902Y036117D01*
Y036157D02*
X035922Y036177D01*
X035942D01*
X035922Y036197D01*
X035942Y036217D01*
X035922D01*
X035902Y036237D01*
X035882Y036217D01*
X035862D01*
X035882Y036197D01*
X035862Y036177D01*
X035882D01*
X035902Y036157D01*
X041709Y022948D02*
X041749Y022988D01*
X041789D01*
X041749Y023028D01*
X041789Y023068D01*
X041749D01*
X041709Y023108D01*
X041669Y023068D01*
X041629D01*
X041669Y023028D01*
X041629Y022988D01*
X041669D01*
X041709Y022948D01*
Y022988D02*
X041729Y023008D01*
X041749D01*
X041729Y023028D01*
X041749Y023048D01*
X041729D01*
X041709Y023068D01*
X041689Y023048D01*
X041669D01*
X041689Y023028D01*
X041669Y023008D01*
X041689D01*
X041709Y022988D01*
X041016Y020806D02*
X041056Y020846D01*
X041096D01*
X041056Y020886D01*
X041096Y020926D01*
X041056D01*
X041016Y020966D01*
X040976Y020926D01*
X040936D01*
X040976Y020886D01*
X040936Y020846D01*
X040976D01*
X041016Y020806D01*
Y020846D02*
X041036Y020866D01*
X041056D01*
X041036Y020886D01*
X041056Y020906D01*
X041036D01*
X041016Y020926D01*
X040996Y020906D01*
X040976D01*
X040996Y020886D01*
X040976Y020866D01*
X040996D01*
X041016Y020846D01*
X042984Y020806D02*
X043024Y020846D01*
X043064D01*
X043024Y020886D01*
X043064Y020926D01*
X043024D01*
X042984Y020966D01*
X042944Y020926D01*
X042904D01*
X042944Y020886D01*
X042904Y020846D01*
X042944D01*
X042984Y020806D01*
Y020846D02*
X043004Y020866D01*
X043024D01*
X043004Y020886D01*
X043024Y020906D01*
X043004D01*
X042984Y020926D01*
X042964Y020906D01*
X042944D01*
X042964Y020886D01*
X042944Y020866D01*
X042964D01*
X042984Y020846D01*
X027051Y01666D02*
X027091Y0167D01*
X027131D01*
X027091Y01674D01*
X027131Y01678D01*
X027091D01*
X027051Y01682D01*
X027011Y01678D01*
X026971D01*
X027011Y01674D01*
X026971Y0167D01*
X027011D01*
X027051Y01666D01*
Y0167D02*
X027071Y01672D01*
X027091D01*
X027071Y01674D01*
X027091Y01676D01*
X027071D01*
X027051Y01678D01*
X027031Y01676D01*
X027011D01*
X027031Y01674D01*
X027011Y01672D01*
X027031D01*
X027051Y0167D01*
X02737Y018066D02*
X02741Y018106D01*
X02745D01*
X02741Y018146D01*
X02745Y018186D01*
X02741D01*
X02737Y018226D01*
X02733Y018186D01*
X02729D01*
X02733Y018146D01*
X02729Y018106D01*
X02733D01*
X02737Y018066D01*
Y018106D02*
X02739Y018126D01*
X02741D01*
X02739Y018146D01*
X02741Y018166D01*
X02739D01*
X02737Y018186D01*
X02735Y018166D01*
X02733D01*
X02735Y018146D01*
X02733Y018126D01*
X02735D01*
X02737Y018106D01*
X036173Y020806D02*
X036213Y020846D01*
X036253D01*
X036213Y020886D01*
X036253Y020926D01*
X036213D01*
X036173Y020966D01*
X036133Y020926D01*
X036093D01*
X036133Y020886D01*
X036093Y020846D01*
X036133D01*
X036173Y020806D01*
Y020846D02*
X036193Y020866D01*
X036213D01*
X036193Y020886D01*
X036213Y020906D01*
X036193D01*
X036173Y020926D01*
X036153Y020906D01*
X036133D01*
X036153Y020886D01*
X036133Y020866D01*
X036153D01*
X036173Y020846D01*
X049833Y025131D02*
X049873Y025171D01*
X049913D01*
X049873Y025211D01*
X049913Y025251D01*
X049873D01*
X049833Y025291D01*
X049793Y025251D01*
X049753D01*
X049793Y025211D01*
X049753Y025171D01*
X049793D01*
X049833Y025131D01*
Y025171D02*
X049853Y025191D01*
X049873D01*
X049853Y025211D01*
X049873Y025231D01*
X049853D01*
X049833Y025251D01*
X049813Y025231D01*
X049793D01*
X049813Y025211D01*
X049793Y025191D01*
X049813D01*
X049833Y025171D01*
X041071Y036463D02*
X041111Y036503D01*
X041151D01*
X041111Y036543D01*
X041151Y036583D01*
X041111D01*
X041071Y036623D01*
X041031Y036583D01*
X040991D01*
X041031Y036543D01*
X040991Y036503D01*
X041031D01*
X041071Y036463D01*
Y036503D02*
X041091Y036523D01*
X041111D01*
X041091Y036543D01*
X041111Y036563D01*
X041091D01*
X041071Y036583D01*
X041051Y036563D01*
X041031D01*
X041051Y036543D01*
X041031Y036523D01*
X041051D01*
X041071Y036503D01*
X040087Y036463D02*
X040127Y036503D01*
X040167D01*
X040127Y036543D01*
X040167Y036583D01*
X040127D01*
X040087Y036623D01*
X040047Y036583D01*
X040007D01*
X040047Y036543D01*
X040007Y036503D01*
X040047D01*
X040087Y036463D01*
Y036503D02*
X040107Y036523D01*
X040127D01*
X040107Y036543D01*
X040127Y036563D01*
X040107D01*
X040087Y036583D01*
X040067Y036563D01*
X040047D01*
X040067Y036543D01*
X040047Y036523D01*
X040067D01*
X040087Y036503D01*
X037972Y037684D02*
X038012Y037724D01*
X038052D01*
X038012Y037764D01*
X038052Y037804D01*
X038012D01*
X037972Y037844D01*
X037932Y037804D01*
X037892D01*
X037932Y037764D01*
X037892Y037724D01*
X037932D01*
X037972Y037684D01*
Y037724D02*
X037992Y037744D01*
X038012D01*
X037992Y037764D01*
X038012Y037784D01*
X037992D01*
X037972Y037804D01*
X037952Y037784D01*
X037932D01*
X037952Y037764D01*
X037932Y037744D01*
X037952D01*
X037972Y037724D01*
X047744Y037503D02*
X047784Y037543D01*
X047824D01*
X047784Y037583D01*
X047824Y037623D01*
X047784D01*
X047744Y037663D01*
X047704Y037623D01*
X047664D01*
X047704Y037583D01*
X047664Y037543D01*
X047704D01*
X047744Y037503D01*
Y037543D02*
X047764Y037563D01*
X047784D01*
X047764Y037583D01*
X047784Y037603D01*
X047764D01*
X047744Y037623D01*
X047724Y037603D01*
X047704D01*
X047724Y037583D01*
X047704Y037563D01*
X047724D01*
X047744Y037543D01*
X022331Y035105D02*
X022371Y035145D01*
X022411D01*
X022371Y035185D01*
X022411Y035225D01*
X022371D01*
X022331Y035265D01*
X022291Y035225D01*
X022251D01*
X022291Y035185D01*
X022251Y035145D01*
X022291D01*
X022331Y035105D01*
Y035145D02*
X022351Y035165D01*
X022371D01*
X022351Y035185D01*
X022371Y035205D01*
X022351D01*
X022331Y035225D01*
X022311Y035205D01*
X022291D01*
X022311Y035185D01*
X022291Y035165D01*
X022311D01*
X022331Y035145D01*
X02628Y029613D02*
X02632Y029653D01*
X02636D01*
X02632Y029693D01*
X02636Y029733D01*
X02632D01*
X02628Y029773D01*
X02624Y029733D01*
X0262D01*
X02624Y029693D01*
X0262Y029653D01*
X02624D01*
X02628Y029613D01*
Y029653D02*
X0263Y029673D01*
X02632D01*
X0263Y029693D01*
X02632Y029713D01*
X0263D01*
X02628Y029733D01*
X02626Y029713D01*
X02624D01*
X02626Y029693D01*
X02624Y029673D01*
X02626D01*
X02628Y029653D01*
X038839Y025144D02*
X038879Y025184D01*
X038919D01*
X038879Y025224D01*
X038919Y025264D01*
X038879D01*
X038839Y025304D01*
X038799Y025264D01*
X038759D01*
X038799Y025224D01*
X038759Y025184D01*
X038799D01*
X038839Y025144D01*
Y025184D02*
X038859Y025204D01*
X038879D01*
X038859Y025224D01*
X038879Y025244D01*
X038859D01*
X038839Y025264D01*
X038819Y025244D01*
X038799D01*
X038819Y025224D01*
X038799Y025204D01*
X038819D01*
X038839Y025184D01*
X047732Y023798D02*
X047772Y023838D01*
X047812D01*
X047772Y023878D01*
X047812Y023918D01*
X047772D01*
X047732Y023958D01*
X047692Y023918D01*
X047652D01*
X047692Y023878D01*
X047652Y023838D01*
X047692D01*
X047732Y023798D01*
Y023838D02*
X047752Y023858D01*
X047772D01*
X047752Y023878D01*
X047772Y023898D01*
X047752D01*
X047732Y023918D01*
X047712Y023898D01*
X047692D01*
X047712Y023878D01*
X047692Y023858D01*
X047712D01*
X047732Y023838D01*
X047715Y023306D02*
X047755Y023346D01*
X047795D01*
X047755Y023386D01*
X047795Y023426D01*
X047755D01*
X047715Y023466D01*
X047675Y023426D01*
X047635D01*
X047675Y023386D01*
X047635Y023346D01*
X047675D01*
X047715Y023306D01*
Y023346D02*
X047735Y023366D01*
X047755D01*
X047735Y023386D01*
X047755Y023406D01*
X047735D01*
X047715Y023426D01*
X047695Y023406D01*
X047675D01*
X047695Y023386D01*
X047675Y023366D01*
X047695D01*
X047715Y023346D01*
X039496Y041251D02*
X039536Y041291D01*
X039576D01*
X039536Y041331D01*
X039576Y041371D01*
X039536D01*
X039496Y041411D01*
X039456Y041371D01*
X039416D01*
X039456Y041331D01*
X039416Y041291D01*
X039456D01*
X039496Y041251D01*
Y041291D02*
X039516Y041311D01*
X039536D01*
X039516Y041331D01*
X039536Y041351D01*
X039516D01*
X039496Y041371D01*
X039476Y041351D01*
X039456D01*
X039476Y041331D01*
X039456Y041311D01*
X039476D01*
X039496Y041291D01*
X035976Y023806D02*
X036016Y023846D01*
X036056D01*
X036016Y023886D01*
X036056Y023926D01*
X036016D01*
X035976Y023966D01*
X035936Y023926D01*
X035896D01*
X035936Y023886D01*
X035896Y023846D01*
X035936D01*
X035976Y023806D01*
Y023846D02*
X035996Y023866D01*
X036016D01*
X035996Y023886D01*
X036016Y023906D01*
X035996D01*
X035976Y023926D01*
X035956Y023906D01*
X035936D01*
X035956Y023886D01*
X035936Y023866D01*
X035956D01*
X035976Y023846D01*
X0255Y01792D02*
X02554Y01796D01*
X02558D01*
X02554Y018D01*
X02558Y01804D01*
X02554D01*
X0255Y01808D01*
X02546Y01804D01*
X02542D01*
X02546Y018D01*
X02542Y01796D01*
X02546D01*
X0255Y01792D01*
Y01796D02*
X02552Y01798D01*
X02554D01*
X02552Y018D01*
X02554Y01802D01*
X02552D01*
X0255Y01804D01*
X02548Y01802D01*
X02546D01*
X02548Y018D01*
X02546Y01798D01*
X02548D01*
X0255Y01796D01*
Y02992D02*
X02554Y02996D01*
X02558D01*
X02554Y03D01*
X02558Y03004D01*
X02554D01*
X0255Y03008D01*
X02546Y03004D01*
X02542D01*
X02546Y03D01*
X02542Y02996D01*
X02546D01*
X0255Y02992D01*
Y02996D02*
X02552Y02998D01*
X02554D01*
X02552Y03D01*
X02554Y03002D01*
X02552D01*
X0255Y03004D01*
X02548Y03002D01*
X02546D01*
X02548Y03D01*
X02546Y02998D01*
X02548D01*
X0255Y02996D01*
X024Y03292D02*
X02404Y03296D01*
X02408D01*
X02404Y033D01*
X02408Y03304D01*
X02404D01*
X024Y03308D01*
X02396Y03304D01*
X02392D01*
X02396Y033D01*
X02392Y03296D01*
X02396D01*
X024Y03292D01*
Y03296D02*
X02402Y03298D01*
X02404D01*
X02402Y033D01*
X02404Y03302D01*
X02402D01*
X024Y03304D01*
X02398Y03302D01*
X02396D01*
X02398Y033D01*
X02396Y03298D01*
X02398D01*
X024Y03296D01*
X0255Y03592D02*
X02554Y03596D01*
X02558D01*
X02554Y036D01*
X02558Y03604D01*
X02554D01*
X0255Y03608D01*
X02546Y03604D01*
X02542D01*
X02546Y036D01*
X02542Y03596D01*
X02546D01*
X0255Y03592D01*
Y03596D02*
X02552Y03598D01*
X02554D01*
X02552Y036D01*
X02554Y03602D01*
X02552D01*
X0255Y03604D01*
X02548Y03602D01*
X02546D01*
X02548Y036D01*
X02546Y03598D01*
X02548D01*
X0255Y03596D01*
X024Y03892D02*
X02404Y03896D01*
X02408D01*
X02404Y039D01*
X02408Y03904D01*
X02404D01*
X024Y03908D01*
X02396Y03904D01*
X02392D01*
X02396Y039D01*
X02392Y03896D01*
X02396D01*
X024Y03892D01*
Y03896D02*
X02402Y03898D01*
X02404D01*
X02402Y039D01*
X02404Y03902D01*
X02402D01*
X024Y03904D01*
X02398Y03902D01*
X02396D01*
X02398Y039D01*
X02396Y03898D01*
X02398D01*
X024Y03896D01*
X027Y02692D02*
X02704Y02696D01*
X02708D01*
X02704Y027D01*
X02708Y02704D01*
X02704D01*
X027Y02708D01*
X02696Y02704D01*
X02692D01*
X02696Y027D01*
X02692Y02696D01*
X02696D01*
X027Y02692D01*
Y02696D02*
X02702Y02698D01*
X02704D01*
X02702Y027D01*
X02704Y02702D01*
X02702D01*
X027Y02704D01*
X02698Y02702D01*
X02696D01*
X02698Y027D01*
X02696Y02698D01*
X02698D01*
X027Y02696D01*
X0285Y02992D02*
X02854Y02996D01*
X02858D01*
X02854Y03D01*
X02858Y03004D01*
X02854D01*
X0285Y03008D01*
X02846Y03004D01*
X02842D01*
X02846Y03D01*
X02842Y02996D01*
X02846D01*
X0285Y02992D01*
Y02996D02*
X02852Y02998D01*
X02854D01*
X02852Y03D01*
X02854Y03002D01*
X02852D01*
X0285Y03004D01*
X02848Y03002D01*
X02846D01*
X02848Y03D01*
X02846Y02998D01*
X02848D01*
X0285Y02996D01*
X027Y03292D02*
X02704Y03296D01*
X02708D01*
X02704Y033D01*
X02708Y03304D01*
X02704D01*
X027Y03308D01*
X02696Y03304D01*
X02692D01*
X02696Y033D01*
X02692Y03296D01*
X02696D01*
X027Y03292D01*
Y03296D02*
X02702Y03298D01*
X02704D01*
X02702Y033D01*
X02704Y03302D01*
X02702D01*
X027Y03304D01*
X02698Y03302D01*
X02696D01*
X02698Y033D01*
X02696Y03298D01*
X02698D01*
X027Y03296D01*
X0285Y03592D02*
X02854Y03596D01*
X02858D01*
X02854Y036D01*
X02858Y03604D01*
X02854D01*
X0285Y03608D01*
X02846Y03604D01*
X02842D01*
X02846Y036D01*
X02842Y03596D01*
X02846D01*
X0285Y03592D01*
Y03596D02*
X02852Y03598D01*
X02854D01*
X02852Y036D01*
X02854Y03602D01*
X02852D01*
X0285Y03604D01*
X02848Y03602D01*
X02846D01*
X02848Y036D01*
X02846Y03598D01*
X02848D01*
X0285Y03596D01*
X027Y03892D02*
X02704Y03896D01*
X02708D01*
X02704Y039D01*
X02708Y03904D01*
X02704D01*
X027Y03908D01*
X02696Y03904D01*
X02692D01*
X02696Y039D01*
X02692Y03896D01*
X02696D01*
X027Y03892D01*
Y03896D02*
X02702Y03898D01*
X02704D01*
X02702Y039D01*
X02704Y03902D01*
X02702D01*
X027Y03904D01*
X02698Y03902D01*
X02696D01*
X02698Y039D01*
X02696Y03898D01*
X02698D01*
X027Y03896D01*
X0315Y01192D02*
X03154Y01196D01*
X03158D01*
X03154Y012D01*
X03158Y01204D01*
X03154D01*
X0315Y01208D01*
X03146Y01204D01*
X03142D01*
X03146Y012D01*
X03142Y01196D01*
X03146D01*
X0315Y01192D01*
Y01196D02*
X03152Y01198D01*
X03154D01*
X03152Y012D01*
X03154Y01202D01*
X03152D01*
X0315Y01204D01*
X03148Y01202D01*
X03146D01*
X03148Y012D01*
X03146Y01198D01*
X03148D01*
X0315Y01196D01*
X03Y02092D02*
X03004Y02096D01*
X03008D01*
X03004Y021D01*
X03008Y02104D01*
X03004D01*
X03Y02108D01*
X02996Y02104D01*
X02992D01*
X02996Y021D01*
X02992Y02096D01*
X02996D01*
X03Y02092D01*
Y02096D02*
X03002Y02098D01*
X03004D01*
X03002Y021D01*
X03004Y02102D01*
X03002D01*
X03Y02104D01*
X02998Y02102D01*
X02996D01*
X02998Y021D01*
X02996Y02098D01*
X02998D01*
X03Y02096D01*
X0315Y02392D02*
X03154Y02396D01*
X03158D01*
X03154Y024D01*
X03158Y02404D01*
X03154D01*
X0315Y02408D01*
X03146Y02404D01*
X03142D01*
X03146Y024D01*
X03142Y02396D01*
X03146D01*
X0315Y02392D01*
Y02396D02*
X03152Y02398D01*
X03154D01*
X03152Y024D01*
X03154Y02402D01*
X03152D01*
X0315Y02404D01*
X03148Y02402D01*
X03146D01*
X03148Y024D01*
X03146Y02398D01*
X03148D01*
X0315Y02396D01*
X03Y02692D02*
X03004Y02696D01*
X03008D01*
X03004Y027D01*
X03008Y02704D01*
X03004D01*
X03Y02708D01*
X02996Y02704D01*
X02992D01*
X02996Y027D01*
X02992Y02696D01*
X02996D01*
X03Y02692D01*
Y02696D02*
X03002Y02698D01*
X03004D01*
X03002Y027D01*
X03004Y02702D01*
X03002D01*
X03Y02704D01*
X02998Y02702D01*
X02996D01*
X02998Y027D01*
X02996Y02698D01*
X02998D01*
X03Y02696D01*
X0315Y02992D02*
X03154Y02996D01*
X03158D01*
X03154Y03D01*
X03158Y03004D01*
X03154D01*
X0315Y03008D01*
X03146Y03004D01*
X03142D01*
X03146Y03D01*
X03142Y02996D01*
X03146D01*
X0315Y02992D01*
Y02996D02*
X03152Y02998D01*
X03154D01*
X03152Y03D01*
X03154Y03002D01*
X03152D01*
X0315Y03004D01*
X03148Y03002D01*
X03146D01*
X03148Y03D01*
X03146Y02998D01*
X03148D01*
X0315Y02996D01*
X03Y03292D02*
X03004Y03296D01*
X03008D01*
X03004Y033D01*
X03008Y03304D01*
X03004D01*
X03Y03308D01*
X02996Y03304D01*
X02992D01*
X02996Y033D01*
X02992Y03296D01*
X02996D01*
X03Y03292D01*
Y03296D02*
X03002Y03298D01*
X03004D01*
X03002Y033D01*
X03004Y03302D01*
X03002D01*
X03Y03304D01*
X02998Y03302D01*
X02996D01*
X02998Y033D01*
X02996Y03298D01*
X02998D01*
X03Y03296D01*
X0315Y03592D02*
X03154Y03596D01*
X03158D01*
X03154Y036D01*
X03158Y03604D01*
X03154D01*
X0315Y03608D01*
X03146Y03604D01*
X03142D01*
X03146Y036D01*
X03142Y03596D01*
X03146D01*
X0315Y03592D01*
Y03596D02*
X03152Y03598D01*
X03154D01*
X03152Y036D01*
X03154Y03602D01*
X03152D01*
X0315Y03604D01*
X03148Y03602D01*
X03146D01*
X03148Y036D01*
X03146Y03598D01*
X03148D01*
X0315Y03596D01*
X03Y03892D02*
X03004Y03896D01*
X03008D01*
X03004Y039D01*
X03008Y03904D01*
X03004D01*
X03Y03908D01*
X02996Y03904D01*
X02992D01*
X02996Y039D01*
X02992Y03896D01*
X02996D01*
X03Y03892D01*
Y03896D02*
X03002Y03898D01*
X03004D01*
X03002Y039D01*
X03004Y03902D01*
X03002D01*
X03Y03904D01*
X02998Y03902D01*
X02996D01*
X02998Y039D01*
X02996Y03898D01*
X02998D01*
X03Y03896D01*
X0345Y01792D02*
X03454Y01796D01*
X03458D01*
X03454Y018D01*
X03458Y01804D01*
X03454D01*
X0345Y01808D01*
X03446Y01804D01*
X03442D01*
X03446Y018D01*
X03442Y01796D01*
X03446D01*
X0345Y01792D01*
Y01796D02*
X03452Y01798D01*
X03454D01*
X03452Y018D01*
X03454Y01802D01*
X03452D01*
X0345Y01804D01*
X03448Y01802D01*
X03446D01*
X03448Y018D01*
X03446Y01798D01*
X03448D01*
X0345Y01796D01*
Y02392D02*
X03454Y02396D01*
X03458D01*
X03454Y024D01*
X03458Y02404D01*
X03454D01*
X0345Y02408D01*
X03446Y02404D01*
X03442D01*
X03446Y024D01*
X03442Y02396D01*
X03446D01*
X0345Y02392D01*
Y02396D02*
X03452Y02398D01*
X03454D01*
X03452Y024D01*
X03454Y02402D01*
X03452D01*
X0345Y02404D01*
X03448Y02402D01*
X03446D01*
X03448Y024D01*
X03446Y02398D01*
X03448D01*
X0345Y02396D01*
Y02992D02*
X03454Y02996D01*
X03458D01*
X03454Y03D01*
X03458Y03004D01*
X03454D01*
X0345Y03008D01*
X03446Y03004D01*
X03442D01*
X03446Y03D01*
X03442Y02996D01*
X03446D01*
X0345Y02992D01*
Y02996D02*
X03452Y02998D01*
X03454D01*
X03452Y03D01*
X03454Y03002D01*
X03452D01*
X0345Y03004D01*
X03448Y03002D01*
X03446D01*
X03448Y03D01*
X03446Y02998D01*
X03448D01*
X0345Y02996D01*
X033Y03292D02*
X03304Y03296D01*
X03308D01*
X03304Y033D01*
X03308Y03304D01*
X03304D01*
X033Y03308D01*
X03296Y03304D01*
X03292D01*
X03296Y033D01*
X03292Y03296D01*
X03296D01*
X033Y03292D01*
Y03296D02*
X03302Y03298D01*
X03304D01*
X03302Y033D01*
X03304Y03302D01*
X03302D01*
X033Y03304D01*
X03298Y03302D01*
X03296D01*
X03298Y033D01*
X03296Y03298D01*
X03298D01*
X033Y03296D01*
X0345Y03592D02*
X03454Y03596D01*
X03458D01*
X03454Y036D01*
X03458Y03604D01*
X03454D01*
X0345Y03608D01*
X03446Y03604D01*
X03442D01*
X03446Y036D01*
X03442Y03596D01*
X03446D01*
X0345Y03592D01*
Y03596D02*
X03452Y03598D01*
X03454D01*
X03452Y036D01*
X03454Y03602D01*
X03452D01*
X0345Y03604D01*
X03448Y03602D01*
X03446D01*
X03448Y036D01*
X03446Y03598D01*
X03448D01*
X0345Y03596D01*
X033Y03892D02*
X03304Y03896D01*
X03308D01*
X03304Y039D01*
X03308Y03904D01*
X03304D01*
X033Y03908D01*
X03296Y03904D01*
X03292D01*
X03296Y039D01*
X03292Y03896D01*
X03296D01*
X033Y03892D01*
Y03896D02*
X03302Y03898D01*
X03304D01*
X03302Y039D01*
X03304Y03902D01*
X03302D01*
X033Y03904D01*
X03298Y03902D01*
X03296D01*
X03298Y039D01*
X03296Y03898D01*
X03298D01*
X033Y03896D01*
X0375Y01192D02*
X03754Y01196D01*
X03758D01*
X03754Y012D01*
X03758Y01204D01*
X03754D01*
X0375Y01208D01*
X03746Y01204D01*
X03742D01*
X03746Y012D01*
X03742Y01196D01*
X03746D01*
X0375Y01192D01*
Y01196D02*
X03752Y01198D01*
X03754D01*
X03752Y012D01*
X03754Y01202D01*
X03752D01*
X0375Y01204D01*
X03748Y01202D01*
X03746D01*
X03748Y012D01*
X03746Y01198D01*
X03748D01*
X0375Y01196D01*
X036Y01492D02*
X03604Y01496D01*
X03608D01*
X03604Y015D01*
X03608Y01504D01*
X03604D01*
X036Y01508D01*
X03596Y01504D01*
X03592D01*
X03596Y015D01*
X03592Y01496D01*
X03596D01*
X036Y01492D01*
Y01496D02*
X03602Y01498D01*
X03604D01*
X03602Y015D01*
X03604Y01502D01*
X03602D01*
X036Y01504D01*
X03598Y01502D01*
X03596D01*
X03598Y015D01*
X03596Y01498D01*
X03598D01*
X036Y01496D01*
X0375Y01792D02*
X03754Y01796D01*
X03758D01*
X03754Y018D01*
X03758Y01804D01*
X03754D01*
X0375Y01808D01*
X03746Y01804D01*
X03742D01*
X03746Y018D01*
X03742Y01796D01*
X03746D01*
X0375Y01792D01*
Y01796D02*
X03752Y01798D01*
X03754D01*
X03752Y018D01*
X03754Y01802D01*
X03752D01*
X0375Y01804D01*
X03748Y01802D01*
X03746D01*
X03748Y018D01*
X03746Y01798D01*
X03748D01*
X0375Y01796D01*
Y02992D02*
X03754Y02996D01*
X03758D01*
X03754Y03D01*
X03758Y03004D01*
X03754D01*
X0375Y03008D01*
X03746Y03004D01*
X03742D01*
X03746Y03D01*
X03742Y02996D01*
X03746D01*
X0375Y02992D01*
Y02996D02*
X03752Y02998D01*
X03754D01*
X03752Y03D01*
X03754Y03002D01*
X03752D01*
X0375Y03004D01*
X03748Y03002D01*
X03746D01*
X03748Y03D01*
X03746Y02998D01*
X03748D01*
X0375Y02996D01*
X036Y03292D02*
X03604Y03296D01*
X03608D01*
X03604Y033D01*
X03608Y03304D01*
X03604D01*
X036Y03308D01*
X03596Y03304D01*
X03592D01*
X03596Y033D01*
X03592Y03296D01*
X03596D01*
X036Y03292D01*
Y03296D02*
X03602Y03298D01*
X03604D01*
X03602Y033D01*
X03604Y03302D01*
X03602D01*
X036Y03304D01*
X03598Y03302D01*
X03596D01*
X03598Y033D01*
X03596Y03298D01*
X03598D01*
X036Y03296D01*
X0375Y03592D02*
X03754Y03596D01*
X03758D01*
X03754Y036D01*
X03758Y03604D01*
X03754D01*
X0375Y03608D01*
X03746Y03604D01*
X03742D01*
X03746Y036D01*
X03742Y03596D01*
X03746D01*
X0375Y03592D01*
Y03596D02*
X03752Y03598D01*
X03754D01*
X03752Y036D01*
X03754Y03602D01*
X03752D01*
X0375Y03604D01*
X03748Y03602D01*
X03746D01*
X03748Y036D01*
X03746Y03598D01*
X03748D01*
X0375Y03596D01*
X0405Y01192D02*
X04054Y01196D01*
X04058D01*
X04054Y012D01*
X04058Y01204D01*
X04054D01*
X0405Y01208D01*
X04046Y01204D01*
X04042D01*
X04046Y012D01*
X04042Y01196D01*
X04046D01*
X0405Y01192D01*
Y01196D02*
X04052Y01198D01*
X04054D01*
X04052Y012D01*
X04054Y01202D01*
X04052D01*
X0405Y01204D01*
X04048Y01202D01*
X04046D01*
X04048Y012D01*
X04046Y01198D01*
X04048D01*
X0405Y01196D01*
X039Y02692D02*
X03904Y02696D01*
X03908D01*
X03904Y027D01*
X03908Y02704D01*
X03904D01*
X039Y02708D01*
X03896Y02704D01*
X03892D01*
X03896Y027D01*
X03892Y02696D01*
X03896D01*
X039Y02692D01*
Y02696D02*
X03902Y02698D01*
X03904D01*
X03902Y027D01*
X03904Y02702D01*
X03902D01*
X039Y02704D01*
X03898Y02702D01*
X03896D01*
X03898Y027D01*
X03896Y02698D01*
X03898D01*
X039Y02696D01*
X042Y02692D02*
X04204Y02696D01*
X04208D01*
X04204Y027D01*
X04208Y02704D01*
X04204D01*
X042Y02708D01*
X04196Y02704D01*
X04192D01*
X04196Y027D01*
X04192Y02696D01*
X04196D01*
X042Y02692D01*
Y02696D02*
X04202Y02698D01*
X04204D01*
X04202Y027D01*
X04204Y02702D01*
X04202D01*
X042Y02704D01*
X04198Y02702D01*
X04196D01*
X04198Y027D01*
X04196Y02698D01*
X04198D01*
X042Y02696D01*
X0435Y02992D02*
X04354Y02996D01*
X04358D01*
X04354Y03D01*
X04358Y03004D01*
X04354D01*
X0435Y03008D01*
X04346Y03004D01*
X04342D01*
X04346Y03D01*
X04342Y02996D01*
X04346D01*
X0435Y02992D01*
Y02996D02*
X04352Y02998D01*
X04354D01*
X04352Y03D01*
X04354Y03002D01*
X04352D01*
X0435Y03004D01*
X04348Y03002D01*
X04346D01*
X04348Y03D01*
X04346Y02998D01*
X04348D01*
X0435Y02996D01*
X042Y03292D02*
X04204Y03296D01*
X04208D01*
X04204Y033D01*
X04208Y03304D01*
X04204D01*
X042Y03308D01*
X04196Y03304D01*
X04192D01*
X04196Y033D01*
X04192Y03296D01*
X04196D01*
X042Y03292D01*
Y03296D02*
X04202Y03298D01*
X04204D01*
X04202Y033D01*
X04204Y03302D01*
X04202D01*
X042Y03304D01*
X04198Y03302D01*
X04196D01*
X04198Y033D01*
X04196Y03298D01*
X04198D01*
X042Y03296D01*
X0435Y03592D02*
X04354Y03596D01*
X04358D01*
X04354Y036D01*
X04358Y03604D01*
X04354D01*
X0435Y03608D01*
X04346Y03604D01*
X04342D01*
X04346Y036D01*
X04342Y03596D01*
X04346D01*
X0435Y03592D01*
Y03596D02*
X04352Y03598D01*
X04354D01*
X04352Y036D01*
X04354Y03602D01*
X04352D01*
X0435Y03604D01*
X04348Y03602D01*
X04346D01*
X04348Y036D01*
X04346Y03598D01*
X04348D01*
X0435Y03596D01*
Y04192D02*
X04354Y04196D01*
X04358D01*
X04354Y042D01*
X04358Y04204D01*
X04354D01*
X0435Y04208D01*
X04346Y04204D01*
X04342D01*
X04346Y042D01*
X04342Y04196D01*
X04346D01*
X0435Y04192D01*
Y04196D02*
X04352Y04198D01*
X04354D01*
X04352Y042D01*
X04354Y04202D01*
X04352D01*
X0435Y04204D01*
X04348Y04202D01*
X04346D01*
X04348Y042D01*
X04346Y04198D01*
X04348D01*
X0435Y04196D01*
X0465Y02992D02*
X04654Y02996D01*
X04658D01*
X04654Y03D01*
X04658Y03004D01*
X04654D01*
X0465Y03008D01*
X04646Y03004D01*
X04642D01*
X04646Y03D01*
X04642Y02996D01*
X04646D01*
X0465Y02992D01*
Y02996D02*
X04652Y02998D01*
X04654D01*
X04652Y03D01*
X04654Y03002D01*
X04652D01*
X0465Y03004D01*
X04648Y03002D01*
X04646D01*
X04648Y03D01*
X04646Y02998D01*
X04648D01*
X0465Y02996D01*
Y03592D02*
X04654Y03596D01*
X04658D01*
X04654Y036D01*
X04658Y03604D01*
X04654D01*
X0465Y03608D01*
X04646Y03604D01*
X04642D01*
X04646Y036D01*
X04642Y03596D01*
X04646D01*
X0465Y03592D01*
Y03596D02*
X04652Y03598D01*
X04654D01*
X04652Y036D01*
X04654Y03602D01*
X04652D01*
X0465Y03604D01*
X04648Y03602D01*
X04646D01*
X04648Y036D01*
X04646Y03598D01*
X04648D01*
X0465Y03596D01*
Y04192D02*
X04654Y04196D01*
X04658D01*
X04654Y042D01*
X04658Y04204D01*
X04654D01*
X0465Y04208D01*
X04646Y04204D01*
X04642D01*
X04646Y042D01*
X04642Y04196D01*
X04646D01*
X0465Y04192D01*
Y04196D02*
X04652Y04198D01*
X04654D01*
X04652Y042D01*
X04654Y04202D01*
X04652D01*
X0465Y04204D01*
X04648Y04202D01*
X04646D01*
X04648Y042D01*
X04646Y04198D01*
X04648D01*
X0465Y04196D01*
X048Y02092D02*
X04804Y02096D01*
X04808D01*
X04804Y021D01*
X04808Y02104D01*
X04804D01*
X048Y02108D01*
X04796Y02104D01*
X04792D01*
X04796Y021D01*
X04792Y02096D01*
X04796D01*
X048Y02092D01*
Y02096D02*
X04802Y02098D01*
X04804D01*
X04802Y021D01*
X04804Y02102D01*
X04802D01*
X048Y02104D01*
X04798Y02102D01*
X04796D01*
X04798Y021D01*
X04796Y02098D01*
X04798D01*
X048Y02096D01*
Y02692D02*
X04804Y02696D01*
X04808D01*
X04804Y027D01*
X04808Y02704D01*
X04804D01*
X048Y02708D01*
X04796Y02704D01*
X04792D01*
X04796Y027D01*
X04792Y02696D01*
X04796D01*
X048Y02692D01*
Y02696D02*
X04802Y02698D01*
X04804D01*
X04802Y027D01*
X04804Y02702D01*
X04802D01*
X048Y02704D01*
X04798Y02702D01*
X04796D01*
X04798Y027D01*
X04796Y02698D01*
X04798D01*
X048Y02696D01*
X0495Y03592D02*
X04954Y03596D01*
X04958D01*
X04954Y036D01*
X04958Y03604D01*
X04954D01*
X0495Y03608D01*
X04946Y03604D01*
X04942D01*
X04946Y036D01*
X04942Y03596D01*
X04946D01*
X0495Y03592D01*
Y03596D02*
X04952Y03598D01*
X04954D01*
X04952Y036D01*
X04954Y03602D01*
X04952D01*
X0495Y03604D01*
X04948Y03602D01*
X04946D01*
X04948Y036D01*
X04946Y03598D01*
X04948D01*
X0495Y03596D01*
Y04192D02*
X04954Y04196D01*
X04958D01*
X04954Y042D01*
X04958Y04204D01*
X04954D01*
X0495Y04208D01*
X04946Y04204D01*
X04942D01*
X04946Y042D01*
X04942Y04196D01*
X04946D01*
X0495Y04192D01*
Y04196D02*
X04952Y04198D01*
X04954D01*
X04952Y042D01*
X04954Y04202D01*
X04952D01*
X0495Y04204D01*
X04948Y04202D01*
X04946D01*
X04948Y042D01*
X04946Y04198D01*
X04948D01*
X0495Y04196D01*
X051Y02092D02*
X05104Y02096D01*
X05108D01*
X05104Y021D01*
X05108Y02104D01*
X05104D01*
X051Y02108D01*
X05096Y02104D01*
X05092D01*
X05096Y021D01*
X05092Y02096D01*
X05096D01*
X051Y02092D01*
Y02096D02*
X05102Y02098D01*
X05104D01*
X05102Y021D01*
X05104Y02102D01*
X05102D01*
X051Y02104D01*
X05098Y02102D01*
X05096D01*
X05098Y021D01*
X05096Y02098D01*
X05098D01*
X051Y02096D01*
X0525Y02392D02*
X05254Y02396D01*
X05258D01*
X05254Y024D01*
X05258Y02404D01*
X05254D01*
X0525Y02408D01*
X05246Y02404D01*
X05242D01*
X05246Y024D01*
X05242Y02396D01*
X05246D01*
X0525Y02392D01*
Y02396D02*
X05252Y02398D01*
X05254D01*
X05252Y024D01*
X05254Y02402D01*
X05252D01*
X0525Y02404D01*
X05248Y02402D01*
X05246D01*
X05248Y024D01*
X05246Y02398D01*
X05248D01*
X0525Y02396D01*
X051Y02692D02*
X05104Y02696D01*
X05108D01*
X05104Y027D01*
X05108Y02704D01*
X05104D01*
X051Y02708D01*
X05096Y02704D01*
X05092D01*
X05096Y027D01*
X05092Y02696D01*
X05096D01*
X051Y02692D01*
Y02696D02*
X05102Y02698D01*
X05104D01*
X05102Y027D01*
X05104Y02702D01*
X05102D01*
X051Y02704D01*
X05098Y02702D01*
X05096D01*
X05098Y027D01*
X05096Y02698D01*
X05098D01*
X051Y02696D01*
X0525Y02992D02*
X05254Y02996D01*
X05258D01*
X05254Y03D01*
X05258Y03004D01*
X05254D01*
X0525Y03008D01*
X05246Y03004D01*
X05242D01*
X05246Y03D01*
X05242Y02996D01*
X05246D01*
X0525Y02992D01*
Y02996D02*
X05252Y02998D01*
X05254D01*
X05252Y03D01*
X05254Y03002D01*
X05252D01*
X0525Y03004D01*
X05248Y03002D01*
X05246D01*
X05248Y03D01*
X05246Y02998D01*
X05248D01*
X0525Y02996D01*
X051Y03292D02*
X05104Y03296D01*
X05108D01*
X05104Y033D01*
X05108Y03304D01*
X05104D01*
X051Y03308D01*
X05096Y03304D01*
X05092D01*
X05096Y033D01*
X05092Y03296D01*
X05096D01*
X051Y03292D01*
Y03296D02*
X05102Y03298D01*
X05104D01*
X05102Y033D01*
X05104Y03302D01*
X05102D01*
X051Y03304D01*
X05098Y03302D01*
X05096D01*
X05098Y033D01*
X05096Y03298D01*
X05098D01*
X051Y03296D01*
Y03892D02*
X05104Y03896D01*
X05108D01*
X05104Y039D01*
X05108Y03904D01*
X05104D01*
X051Y03908D01*
X05096Y03904D01*
X05092D01*
X05096Y039D01*
X05092Y03896D01*
X05096D01*
X051Y03892D01*
Y03896D02*
X05102Y03898D01*
X05104D01*
X05102Y039D01*
X05104Y03902D01*
X05102D01*
X051Y03904D01*
X05098Y03902D01*
X05096D01*
X05098Y039D01*
X05096Y03898D01*
X05098D01*
X051Y03896D01*
X0525Y04192D02*
X05254Y04196D01*
X05258D01*
X05254Y042D01*
X05258Y04204D01*
X05254D01*
X0525Y04208D01*
X05246Y04204D01*
X05242D01*
X05246Y042D01*
X05242Y04196D01*
X05246D01*
X0525Y04192D01*
Y04196D02*
X05252Y04198D01*
X05254D01*
X05252Y042D01*
X05254Y04202D01*
X05252D01*
X0525Y04204D01*
X05248Y04202D01*
X05246D01*
X05248Y042D01*
X05246Y04198D01*
X05248D01*
X0525Y04196D01*
X0555Y01192D02*
X05554Y01196D01*
X05558D01*
X05554Y012D01*
X05558Y01204D01*
X05554D01*
X0555Y01208D01*
X05546Y01204D01*
X05542D01*
X05546Y012D01*
X05542Y01196D01*
X05546D01*
X0555Y01192D01*
Y01196D02*
X05552Y01198D01*
X05554D01*
X05552Y012D01*
X05554Y01202D01*
X05552D01*
X0555Y01204D01*
X05548Y01202D01*
X05546D01*
X05548Y012D01*
X05546Y01198D01*
X05548D01*
X0555Y01196D01*
Y02392D02*
X05554Y02396D01*
X05558D01*
X05554Y024D01*
X05558Y02404D01*
X05554D01*
X0555Y02408D01*
X05546Y02404D01*
X05542D01*
X05546Y024D01*
X05542Y02396D01*
X05546D01*
X0555Y02392D01*
Y02396D02*
X05552Y02398D01*
X05554D01*
X05552Y024D01*
X05554Y02402D01*
X05552D01*
X0555Y02404D01*
X05548Y02402D01*
X05546D01*
X05548Y024D01*
X05546Y02398D01*
X05548D01*
X0555Y02396D01*
Y02992D02*
X05554Y02996D01*
X05558D01*
X05554Y03D01*
X05558Y03004D01*
X05554D01*
X0555Y03008D01*
X05546Y03004D01*
X05542D01*
X05546Y03D01*
X05542Y02996D01*
X05546D01*
X0555Y02992D01*
Y02996D02*
X05552Y02998D01*
X05554D01*
X05552Y03D01*
X05554Y03002D01*
X05552D01*
X0555Y03004D01*
X05548Y03002D01*
X05546D01*
X05548Y03D01*
X05546Y02998D01*
X05548D01*
X0555Y02996D01*
Y03592D02*
X05554Y03596D01*
X05558D01*
X05554Y036D01*
X05558Y03604D01*
X05554D01*
X0555Y03608D01*
X05546Y03604D01*
X05542D01*
X05546Y036D01*
X05542Y03596D01*
X05546D01*
X0555Y03592D01*
Y03596D02*
X05552Y03598D01*
X05554D01*
X05552Y036D01*
X05554Y03602D01*
X05552D01*
X0555Y03604D01*
X05548Y03602D01*
X05546D01*
X05548Y036D01*
X05546Y03598D01*
X05548D01*
X0555Y03596D01*
Y04192D02*
X05554Y04196D01*
X05558D01*
X05554Y042D01*
X05558Y04204D01*
X05554D01*
X0555Y04208D01*
X05546Y04204D01*
X05542D01*
X05546Y042D01*
X05542Y04196D01*
X05546D01*
X0555Y04192D01*
Y04196D02*
X05552Y04198D01*
X05554D01*
X05552Y042D01*
X05554Y04202D01*
X05552D01*
X0555Y04204D01*
X05548Y04202D01*
X05546D01*
X05548Y042D01*
X05546Y04198D01*
X05548D01*
X0555Y04196D01*
X057Y01492D02*
X05704Y01496D01*
X05708D01*
X05704Y015D01*
X05708Y01504D01*
X05704D01*
X057Y01508D01*
X05696Y01504D01*
X05692D01*
X05696Y015D01*
X05692Y01496D01*
X05696D01*
X057Y01492D01*
Y01496D02*
X05702Y01498D01*
X05704D01*
X05702Y015D01*
X05704Y01502D01*
X05702D01*
X057Y01504D01*
X05698Y01502D01*
X05696D01*
X05698Y015D01*
X05696Y01498D01*
X05698D01*
X057Y01496D01*
X0585Y02392D02*
X05854Y02396D01*
X05858D01*
X05854Y024D01*
X05858Y02404D01*
X05854D01*
X0585Y02408D01*
X05846Y02404D01*
X05842D01*
X05846Y024D01*
X05842Y02396D01*
X05846D01*
X0585Y02392D01*
Y02396D02*
X05852Y02398D01*
X05854D01*
X05852Y024D01*
X05854Y02402D01*
X05852D01*
X0585Y02404D01*
X05848Y02402D01*
X05846D01*
X05848Y024D01*
X05846Y02398D01*
X05848D01*
X0585Y02396D01*
X057Y02692D02*
X05704Y02696D01*
X05708D01*
X05704Y027D01*
X05708Y02704D01*
X05704D01*
X057Y02708D01*
X05696Y02704D01*
X05692D01*
X05696Y027D01*
X05692Y02696D01*
X05696D01*
X057Y02692D01*
Y02696D02*
X05702Y02698D01*
X05704D01*
X05702Y027D01*
X05704Y02702D01*
X05702D01*
X057Y02704D01*
X05698Y02702D01*
X05696D01*
X05698Y027D01*
X05696Y02698D01*
X05698D01*
X057Y02696D01*
X0585Y02992D02*
X05854Y02996D01*
X05858D01*
X05854Y03D01*
X05858Y03004D01*
X05854D01*
X0585Y03008D01*
X05846Y03004D01*
X05842D01*
X05846Y03D01*
X05842Y02996D01*
X05846D01*
X0585Y02992D01*
Y02996D02*
X05852Y02998D01*
X05854D01*
X05852Y03D01*
X05854Y03002D01*
X05852D01*
X0585Y03004D01*
X05848Y03002D01*
X05846D01*
X05848Y03D01*
X05846Y02998D01*
X05848D01*
X0585Y02996D01*
X057Y03292D02*
X05704Y03296D01*
X05708D01*
X05704Y033D01*
X05708Y03304D01*
X05704D01*
X057Y03308D01*
X05696Y03304D01*
X05692D01*
X05696Y033D01*
X05692Y03296D01*
X05696D01*
X057Y03292D01*
Y03296D02*
X05702Y03298D01*
X05704D01*
X05702Y033D01*
X05704Y03302D01*
X05702D01*
X057Y03304D01*
X05698Y03302D01*
X05696D01*
X05698Y033D01*
X05696Y03298D01*
X05698D01*
X057Y03296D01*
X0585Y03592D02*
X05854Y03596D01*
X05858D01*
X05854Y036D01*
X05858Y03604D01*
X05854D01*
X0585Y03608D01*
X05846Y03604D01*
X05842D01*
X05846Y036D01*
X05842Y03596D01*
X05846D01*
X0585Y03592D01*
Y03596D02*
X05852Y03598D01*
X05854D01*
X05852Y036D01*
X05854Y03602D01*
X05852D01*
X0585Y03604D01*
X05848Y03602D01*
X05846D01*
X05848Y036D01*
X05846Y03598D01*
X05848D01*
X0585Y03596D01*
Y04192D02*
X05854Y04196D01*
X05858D01*
X05854Y042D01*
X05858Y04204D01*
X05854D01*
X0585Y04208D01*
X05846Y04204D01*
X05842D01*
X05846Y042D01*
X05842Y04196D01*
X05846D01*
X0585Y04192D01*
Y04196D02*
X05852Y04198D01*
X05854D01*
X05852Y042D01*
X05854Y04202D01*
X05852D01*
X0585Y04204D01*
X05848Y04202D01*
X05846D01*
X05848Y042D01*
X05846Y04198D01*
X05848D01*
X0585Y04196D01*
X044106Y018522D02*
X044146Y018562D01*
X044186D01*
X044146Y018602D01*
X044186Y018642D01*
X044146D01*
X044106Y018682D01*
X044066Y018642D01*
X044026D01*
X044066Y018602D01*
X044026Y018562D01*
X044066D01*
X044106Y018522D01*
Y018562D02*
X044126Y018582D01*
X044146D01*
X044126Y018602D01*
X044146Y018622D01*
X044126D01*
X044106Y018642D01*
X044086Y018622D01*
X044066D01*
X044086Y018602D01*
X044066Y018582D01*
X044086D01*
X044106Y018562D01*
X044094Y019881D02*
X044134Y019921D01*
X044174D01*
X044134Y019961D01*
X044174Y020001D01*
X044134D01*
X044094Y020041D01*
X044054Y020001D01*
X044014D01*
X044054Y019961D01*
X044014Y019921D01*
X044054D01*
X044094Y019881D01*
Y019921D02*
X044114Y019941D01*
X044134D01*
X044114Y019961D01*
X044134Y019981D01*
X044114D01*
X044094Y020001D01*
X044074Y019981D01*
X044054D01*
X044074Y019961D01*
X044054Y019941D01*
X044074D01*
X044094Y019921D01*
X044087Y021326D02*
X044127Y021366D01*
X044167D01*
X044127Y021406D01*
X044167Y021446D01*
X044127D01*
X044087Y021486D01*
X044047Y021446D01*
X044007D01*
X044047Y021406D01*
X044007Y021366D01*
X044047D01*
X044087Y021326D01*
Y021366D02*
X044107Y021386D01*
X044127D01*
X044107Y021406D01*
X044127Y021426D01*
X044107D01*
X044087Y021446D01*
X044067Y021426D01*
X044047D01*
X044067Y021406D01*
X044047Y021386D01*
X044067D01*
X044087Y021366D01*
X039902Y035066D02*
X039942Y035106D01*
X039982D01*
X039942Y035146D01*
X039982Y035186D01*
X039942D01*
X039902Y035226D01*
X039862Y035186D01*
X039822D01*
X039862Y035146D01*
X039822Y035106D01*
X039862D01*
X039902Y035066D01*
Y035106D02*
X039922Y035126D01*
X039942D01*
X039922Y035146D01*
X039942Y035166D01*
X039922D01*
X039902Y035186D01*
X039882Y035166D01*
X039862D01*
X039882Y035146D01*
X039862Y035126D01*
X039882D01*
X039902Y035106D01*
D98*
X022501Y032469D02*
G03*
X022501Y032469I-00008J0D01*
G01*
Y044673D02*
G03*
X022501Y044673I-00008J0D01*
G01*
X052029Y032469D02*
G03*
X052029Y032469I-00008J0D01*
G01*
X052029Y044673D02*
G03*
X052029Y044673I-00008J0D01*
G01*
X038962Y014665D02*
G03*
X038962Y014665I-00008J0D01*
G01*
X040025D02*
G03*
X040025Y014665I-00008J0D01*
G01*
X04106D02*
G03*
X04106Y014665I-00008J0D01*
G01*
X042178Y01385D02*
G03*
X042178Y01385I-00008J0D01*
G01*
Y013154D02*
G03*
X042178Y013154I-00008J0D01*
G01*
X04116Y030126D02*
G03*
X04116Y030126I-00008J0D01*
G01*
X038198D02*
G03*
X038198Y030126I-00008J0D01*
G01*
X039185D02*
G03*
X039185Y030126I-00008J0D01*
G01*
X040173D02*
G03*
X040173Y030126I-00008J0D01*
G01*
X042147D02*
G03*
X042147Y030126I-00008J0D01*
G01*
X05958Y013D02*
G03*
X05958Y013I-00008J0D01*
G01*
X05858D02*
G03*
X05858Y013I-00008J0D01*
G01*
X05808Y012D02*
G03*
X05808Y012I-00008J0D01*
G01*
X05758Y01D02*
G03*
X05758Y01I-00008J0D01*
G01*
X05658D02*
G03*
X05658Y01I-00008J0D01*
G01*
X05558D02*
G03*
X05558Y01I-00008J0D01*
G01*
X05408Y013D02*
G03*
X05408Y013I-00008J0D01*
G01*
Y011D02*
G03*
X05408Y011I-00008J0D01*
G01*
X05458Y01D02*
G03*
X05458Y01I-00008J0D01*
G01*
X05408Y009D02*
G03*
X05408Y009I-00008J0D01*
G01*
X05308D02*
G03*
X05308Y009I-00008J0D01*
G01*
X05358Y008D02*
G03*
X05358Y008I-00008J0D01*
G01*
X05308Y007D02*
G03*
X05308Y007I-00008J0D01*
G01*
X05158Y008D02*
G03*
X05158Y008I-00008J0D01*
G01*
X05008Y007D02*
G03*
X05008Y007I-00008J0D01*
G01*
X04858Y008D02*
G03*
X04858Y008I-00008J0D01*
G01*
X05008Y012D02*
G03*
X05008Y012I-00008J0D01*
G01*
X04708D02*
G03*
X04708Y012I-00008J0D01*
G01*
X04608D02*
G03*
X04608Y012I-00008J0D01*
G01*
X04558Y013D02*
G03*
X04558Y013I-00008J0D01*
G01*
X04508Y012D02*
G03*
X04508Y012I-00008J0D01*
G01*
X04458Y013D02*
G03*
X04458Y013I-00008J0D01*
G01*
X04408Y012D02*
G03*
X04408Y012I-00008J0D01*
G01*
X04458Y011D02*
G03*
X04458Y011I-00008J0D01*
G01*
X04408Y01D02*
G03*
X04408Y01I-00008J0D01*
G01*
X04358Y011D02*
G03*
X04358Y011I-00008J0D01*
G01*
X04308Y01D02*
G03*
X04308Y01I-00008J0D01*
G01*
X04258Y009D02*
G03*
X04258Y009I-00008J0D01*
G01*
X04208Y008D02*
G03*
X04208Y008I-00008J0D01*
G01*
X04158Y009D02*
G03*
X04158Y009I-00008J0D01*
G01*
X04108Y008D02*
G03*
X04108Y008I-00008J0D01*
G01*
X04008D02*
G03*
X04008Y008I-00008J0D01*
G01*
X03908D02*
G03*
X03908Y008I-00008J0D01*
G01*
X022383Y01802D02*
G03*
X022383Y01802I-00008J0D01*
G01*
X028131Y023217D02*
G03*
X028131Y023217I-00008J0D01*
G01*
X023919Y026406D02*
G03*
X023919Y026406I-00008J0D01*
G01*
X028131Y021209D02*
G03*
X028131Y021209I-00008J0D01*
G01*
X026517D02*
G03*
X026517Y021209I-00008J0D01*
G01*
X027304D02*
G03*
X027304Y021209I-00008J0D01*
G01*
X022383Y029476D02*
G03*
X022383Y029476I-00008J0D01*
G01*
X032423Y010807D02*
G03*
X032423Y010807I-00008J0D01*
G01*
X022411Y041878D02*
G03*
X022411Y041878I-00008J0D01*
G01*
Y037429D02*
G03*
X022411Y037429I-00008J0D01*
G01*
X027667D02*
G03*
X027667Y037429I-00008J0D01*
G01*
X035903Y027398D02*
G03*
X035903Y027398I-00008J0D01*
G01*
X026659Y042437D02*
G03*
X026659Y042437I-00008J0D01*
G01*
D99*
X038922Y014665D02*
G03*
X038922Y014665I-00004J0D01*
G01*
X039985D02*
G03*
X039985Y014665I-00004J0D01*
G01*
X04102D02*
G03*
X04102Y014665I-00004J0D01*
G01*
X042138Y01385D02*
G03*
X042138Y01385I-00004J0D01*
G01*
Y013154D02*
G03*
X042138Y013154I-00004J0D01*
G01*
X04112Y030126D02*
G03*
X04112Y030126I-00004J0D01*
G01*
X038158D02*
G03*
X038158Y030126I-00004J0D01*
G01*
X039145D02*
G03*
X039145Y030126I-00004J0D01*
G01*
X040133D02*
G03*
X040133Y030126I-00004J0D01*
G01*
X042107D02*
G03*
X042107Y030126I-00004J0D01*
G01*
X05954Y013D02*
G03*
X05954Y013I-00004J0D01*
G01*
X05854D02*
G03*
X05854Y013I-00004J0D01*
G01*
X05804Y012D02*
G03*
X05804Y012I-00004J0D01*
G01*
X05754Y01D02*
G03*
X05754Y01I-00004J0D01*
G01*
X05654D02*
G03*
X05654Y01I-00004J0D01*
G01*
X05554D02*
G03*
X05554Y01I-00004J0D01*
G01*
X05404Y013D02*
G03*
X05404Y013I-00004J0D01*
G01*
Y011D02*
G03*
X05404Y011I-00004J0D01*
G01*
X05454Y01D02*
G03*
X05454Y01I-00004J0D01*
G01*
X05404Y009D02*
G03*
X05404Y009I-00004J0D01*
G01*
X05304D02*
G03*
X05304Y009I-00004J0D01*
G01*
X05354Y008D02*
G03*
X05354Y008I-00004J0D01*
G01*
X05304Y007D02*
G03*
X05304Y007I-00004J0D01*
G01*
X05154Y008D02*
G03*
X05154Y008I-00004J0D01*
G01*
X05004Y007D02*
G03*
X05004Y007I-00004J0D01*
G01*
X04854Y008D02*
G03*
X04854Y008I-00004J0D01*
G01*
X05004Y012D02*
G03*
X05004Y012I-00004J0D01*
G01*
X04704D02*
G03*
X04704Y012I-00004J0D01*
G01*
X04604D02*
G03*
X04604Y012I-00004J0D01*
G01*
X04554Y013D02*
G03*
X04554Y013I-00004J0D01*
G01*
X04504Y012D02*
G03*
X04504Y012I-00004J0D01*
G01*
X04454Y013D02*
G03*
X04454Y013I-00004J0D01*
G01*
X04404Y012D02*
G03*
X04404Y012I-00004J0D01*
G01*
X04454Y011D02*
G03*
X04454Y011I-00004J0D01*
G01*
X04404Y01D02*
G03*
X04404Y01I-00004J0D01*
G01*
X04354Y011D02*
G03*
X04354Y011I-00004J0D01*
G01*
X04304Y01D02*
G03*
X04304Y01I-00004J0D01*
G01*
X04254Y009D02*
G03*
X04254Y009I-00004J0D01*
G01*
X04204Y008D02*
G03*
X04204Y008I-00004J0D01*
G01*
X04154Y009D02*
G03*
X04154Y009I-00004J0D01*
G01*
X04104Y008D02*
G03*
X04104Y008I-00004J0D01*
G01*
X04004D02*
G03*
X04004Y008I-00004J0D01*
G01*
X03904D02*
G03*
X03904Y008I-00004J0D01*
G01*
X022343Y01802D02*
G03*
X022343Y01802I-00004J0D01*
G01*
X028091Y023217D02*
G03*
X028091Y023217I-00004J0D01*
G01*
X023879Y026406D02*
G03*
X023879Y026406I-00004J0D01*
G01*
X028091Y021209D02*
G03*
X028091Y021209I-00004J0D01*
G01*
X026477D02*
G03*
X026477Y021209I-00004J0D01*
G01*
X027264D02*
G03*
X027264Y021209I-00004J0D01*
G01*
X022343Y029476D02*
G03*
X022343Y029476I-00004J0D01*
G01*
X032383Y010807D02*
G03*
X032383Y010807I-00004J0D01*
G01*
X022371Y041878D02*
G03*
X022371Y041878I-00004J0D01*
G01*
Y037429D02*
G03*
X022371Y037429I-00004J0D01*
G01*
X027627D02*
G03*
X027627Y037429I-00004J0D01*
G01*
X035863Y027398D02*
G03*
X035863Y027398I-00004J0D01*
G01*
X026619Y042437D02*
G03*
X026619Y042437I-00004J0D01*
G01*
M02*
