G04 Layer_Color=65535*
%FSTAX24Y24*%
%MOIN*%
G70*
G01*
G75*
%ADD27C,0.0098*%
%ADD52C,0.0236*%
%ADD53C,0.0118*%
%ADD54C,0.0079*%
%ADD55C,0.0100*%
%ADD56C,0.0039*%
%ADD57R,0.1063X0.0630*%
%ADD58R,0.0295X0.0197*%
%ADD59R,0.0518X0.4600*%
G36*
X048916Y018583D02*
X048502D01*
X048459Y018456D01*
X048842D01*
X048787Y018293D01*
X048403D01*
X048351Y018135D01*
X048776D01*
X048715Y017955D01*
X048042D01*
X048313Y018754D01*
X048975D01*
X048916Y018583D01*
D02*
G37*
G36*
X049573Y018752D02*
X049597Y018751D01*
X049625Y018749D01*
X049653Y018745D01*
X049679Y018741D01*
X049702Y018733D01*
X049705Y018732D01*
X049711Y018729D01*
X04972Y018725D01*
X049731Y018717D01*
X049743Y018707D01*
X049756Y018694D01*
X049766Y018679D01*
X049775Y01866D01*
X049777Y018657D01*
X049778Y018652D01*
X04978Y01864D01*
X049781Y018624D01*
X049783Y018605D01*
X04978Y018583D01*
X049775Y018558D01*
X049768Y018531D01*
X049766Y018528D01*
X049764Y018519D01*
X049758Y018507D01*
X04975Y018491D01*
X049742Y018474D01*
X049729Y018455D01*
X049715Y018434D01*
X049699Y018415D01*
X049698Y018414D01*
X049692Y018408D01*
X049682Y018399D01*
X04967Y018388D01*
X049656Y018376D01*
X049637Y018363D01*
X049618Y01835D01*
X049596Y018338D01*
X049594Y018337D01*
X049589Y018335D01*
X049581Y018331D01*
X04957Y018326D01*
X049555Y018322D01*
X049539Y018316D01*
X04952Y018312D01*
X049498Y018306D01*
X0495D01*
X049504Y018303D01*
X049511Y0183D01*
X04952Y018297D01*
X049538Y018287D01*
X049546Y018283D01*
X049552Y018277D01*
X049554Y018275D01*
X049557Y018273D01*
X049559Y018268D01*
X049562Y018262D01*
X049567Y018255D01*
X049571Y018246D01*
X049577Y018235D01*
X049578Y018233D01*
X04958Y018229D01*
X049583Y018223D01*
X049586Y018217D01*
X049592Y0182D01*
X049596Y018185D01*
X049638Y017955D01*
X049358D01*
X049309Y018198D01*
Y0182D01*
X049307Y018205D01*
X049304Y018214D01*
X049301Y018223D01*
X049294Y018243D01*
X04929Y018252D01*
X049284Y018259D01*
X049282Y018261D01*
X049279Y018262D01*
X049275Y018265D01*
X049269Y01827D01*
X049262Y018273D01*
X049253Y018275D01*
X049242Y018277D01*
X04923Y018278D01*
X049208D01*
X049099Y017955D01*
X048851D01*
X049122Y018754D01*
X049561D01*
X049573Y018752D01*
D02*
G37*
G36*
X050404Y019734D02*
X050152D01*
X049948Y019132D01*
X049701D01*
X049905Y019734D01*
X049653D01*
X04972Y019931D01*
X050471D01*
X050404Y019734D01*
D02*
G37*
G36*
X048134Y018557D02*
X047881D01*
X047677Y017955D01*
X047431D01*
X047635Y018557D01*
X047383D01*
X04745Y018754D01*
X048201D01*
X048134Y018557D01*
D02*
G37*
G36*
X045932Y019337D02*
X04561D01*
X04567Y019509D01*
X045992D01*
X045932Y019337D01*
D02*
G37*
G36*
X043745Y019454D02*
Y019453D01*
X043744Y019451D01*
X043741Y019442D01*
X043735Y019429D01*
X043728Y019412D01*
X043718Y01939D01*
X043706Y019368D01*
X043693Y019345D01*
X043677Y01932D01*
X043675Y019317D01*
X043669Y01931D01*
X043661Y019298D01*
X043648Y019283D01*
X043632Y019266D01*
X043614Y019247D01*
X043594Y019228D01*
X04357Y019211D01*
X043567Y019209D01*
X04356Y019203D01*
X043547Y019195D01*
X043532Y019184D01*
X043513Y019174D01*
X043493Y019164D01*
X043471Y019154D01*
X043449Y019145D01*
X043448D01*
X043445Y019144D01*
X04344Y019142D01*
X043435Y019141D01*
X043427Y019139D01*
X043419Y019136D01*
X043395Y019132D01*
X043369Y019127D01*
X043338Y019123D01*
X043303Y01912D01*
X043267Y019119D01*
X043245D01*
X043229Y01912D01*
X04321D01*
X04319Y019123D01*
X043166Y019125D01*
X043142Y019127D01*
X043139D01*
X043131Y019129D01*
X043118Y01913D01*
X043104Y019135D01*
X043088Y019138D01*
X04307Y019144D01*
X043054Y019151D01*
X043038Y019158D01*
X043037Y01916D01*
X043032Y019162D01*
X043025Y019168D01*
X043016Y019176D01*
X043006Y019186D01*
X042996Y019197D01*
X042986Y019211D01*
X042977Y019227D01*
X042975Y019228D01*
X042974Y019234D01*
X04297Y019244D01*
X042965Y019256D01*
X042961Y019269D01*
X042958Y019285D01*
X042955Y019302D01*
Y01932D01*
Y019321D01*
Y019323D01*
Y019327D01*
X042956Y019333D01*
Y019348D01*
X042959Y019365D01*
X042962Y019386D01*
X042967Y019409D01*
X042971Y019432D01*
X042978Y019454D01*
X04314Y019931D01*
X043387D01*
X04322Y019444D01*
X043219Y019441D01*
X043217Y019434D01*
X043215Y019421D01*
X043213Y019406D01*
X043212Y01939D01*
Y019374D01*
X043215Y019356D01*
X043222Y019342D01*
X043223Y01934D01*
X043226Y019336D01*
X043233Y01933D01*
X043242Y019324D01*
X043254Y019317D01*
X04327Y019311D01*
X043289Y019307D01*
X043311Y019305D01*
X043321D01*
X043334Y019307D01*
X043349Y01931D01*
X043366Y019314D01*
X043385Y01932D01*
X043404Y019329D01*
X043423Y01934D01*
X043426Y019342D01*
X043432Y019348D01*
X04344Y019355D01*
X043451Y019367D01*
X043462Y019381D01*
X043474Y0194D01*
X043486Y019421D01*
X043494Y019444D01*
X043661Y019931D01*
X043907D01*
X043745Y019454D01*
D02*
G37*
G36*
X047091Y018752D02*
X047116Y018751D01*
X047144Y018749D01*
X047171Y018745D01*
X047197Y018741D01*
X047221Y018733D01*
X047224Y018732D01*
X04723Y018729D01*
X047238Y018725D01*
X04725Y018717D01*
X047262Y018707D01*
X047275Y018694D01*
X047285Y018679D01*
X047294Y01866D01*
X047295Y018657D01*
X047297Y018652D01*
X047298Y01864D01*
X0473Y018624D01*
X047301Y018605D01*
X047298Y018583D01*
X047294Y018558D01*
X047286Y018531D01*
X047285Y018528D01*
X047282Y018519D01*
X047276Y018507D01*
X047269Y018491D01*
X04726Y018474D01*
X047247Y018455D01*
X047234Y018434D01*
X047218Y018415D01*
X047216Y018414D01*
X047211Y018408D01*
X0472Y018399D01*
X047189Y018388D01*
X047174Y018376D01*
X047155Y018363D01*
X047136Y01835D01*
X047114Y018338D01*
X047113Y018337D01*
X047107Y018335D01*
X0471Y018331D01*
X047088Y018326D01*
X047074Y018322D01*
X047058Y018316D01*
X047039Y018312D01*
X047017Y018306D01*
X047018D01*
X047023Y018303D01*
X04703Y0183D01*
X047039Y018297D01*
X047056Y018287D01*
X047065Y018283D01*
X047071Y018277D01*
X047072Y018275D01*
X047075Y018273D01*
X047078Y018268D01*
X047081Y018262D01*
X047085Y018255D01*
X04709Y018246D01*
X047095Y018235D01*
X047097Y018233D01*
X047098Y018229D01*
X047101Y018223D01*
X047104Y018217D01*
X04711Y0182D01*
X047114Y018185D01*
X047157Y017955D01*
X046877D01*
X046827Y018198D01*
Y0182D01*
X046826Y018205D01*
X046823Y018214D01*
X04682Y018223D01*
X046813Y018243D01*
X046808Y018252D01*
X046802Y018259D01*
X046801Y018261D01*
X046798Y018262D01*
X046794Y018265D01*
X046788Y01827D01*
X04678Y018273D01*
X046772Y018275D01*
X04676Y018277D01*
X046748Y018278D01*
X046727D01*
X046617Y017955D01*
X046369D01*
X046641Y018754D01*
X047079D01*
X047091Y018752D01*
D02*
G37*
G36*
X042637Y018765D02*
X04265D01*
X042663Y018764D01*
X042679Y018762D01*
X042697Y01876D01*
X042732Y018752D01*
X042768Y018741D01*
X042802Y018726D01*
X042816Y018716D01*
X042829Y018706D01*
X042831D01*
X042832Y018703D01*
X042835Y0187D01*
X04284Y018694D01*
X042844Y018688D01*
X04285Y018679D01*
X042856Y018671D01*
X042863Y018659D01*
X042869Y018647D01*
X042875Y018633D01*
X04288Y018618D01*
X042885Y018601D01*
X042889Y018582D01*
X042892Y018563D01*
X042895Y018541D01*
Y018517D01*
X042659Y018469D01*
Y018471D01*
Y018475D01*
Y018482D01*
Y01849D01*
X042657Y018507D01*
X042656Y018515D01*
X042653Y018522D01*
Y018523D01*
X042651Y018526D01*
X042649Y018532D01*
X042644Y018538D01*
X042634Y018552D01*
X042618Y018566D01*
X042616Y018567D01*
X042614Y018569D01*
X042608Y018571D01*
X0426Y018574D01*
X042592Y018577D01*
X042581Y018579D01*
X042568Y018582D01*
X042546D01*
X042541Y01858D01*
X042526Y018579D01*
X042506Y018573D01*
X042482Y018566D01*
X042456Y018552D01*
X04243Y018536D01*
X042417Y018525D01*
X042404Y018513D01*
X042401Y01851D01*
X042395Y018504D01*
X042386Y018491D01*
X042373Y018475D01*
X04236Y018453D01*
X042345Y018427D01*
X042331Y018395D01*
X042316Y018357D01*
Y018356D01*
X042315Y018351D01*
X042312Y018344D01*
X04231Y018335D01*
X042307Y018325D01*
X042303Y018312D01*
X042297Y018284D01*
X042291Y018255D01*
X042288Y018224D01*
X04229Y018197D01*
X042293Y018185D01*
X042296Y018175D01*
X042297Y018173D01*
X0423Y018168D01*
X042307Y01816D01*
X042316Y018152D01*
X042329Y018141D01*
X042347Y018134D01*
X042369Y018128D01*
X042393Y018127D01*
X042405D01*
X042418Y018128D01*
X042434Y018131D01*
X042453Y018137D01*
X042474Y018143D01*
X042494Y018153D01*
X042513Y018166D01*
X042516Y018168D01*
X042522Y018173D01*
X042532Y018182D01*
X042544Y018195D01*
X042558Y018211D01*
X042574Y018232D01*
X04259Y018255D01*
X042606Y018283D01*
X0428Y018216D01*
Y018214D01*
X042797Y018211D01*
X042794Y018207D01*
X042791Y018201D01*
X04278Y018184D01*
X042765Y018163D01*
X042748Y018138D01*
X042726Y018114D01*
X042704Y018089D01*
X042679Y018064D01*
X042676Y018061D01*
X042667Y018054D01*
X042654Y018044D01*
X042635Y018029D01*
X042614Y018014D01*
X042589Y018D01*
X042561Y017985D01*
X042532Y017972D01*
X04253D01*
X042529Y017971D01*
X042523Y017969D01*
X042517Y017968D01*
X04251Y017965D01*
X042501Y017962D01*
X042478Y017958D01*
X04245Y017952D01*
X042418Y017946D01*
X042383Y017943D01*
X042344Y017942D01*
X042322D01*
X042312Y017943D01*
X042299D01*
X042269Y017946D01*
X042237Y01795D01*
X042204Y017958D01*
X042172Y017966D01*
X042143Y017978D01*
X042141D01*
X04214Y017979D01*
X042131Y017985D01*
X042119Y017996D01*
X042105Y018009D01*
X042089Y018028D01*
X042073Y018049D01*
X042057Y018077D01*
X042045Y018111D01*
Y018112D01*
X042043Y018115D01*
Y018121D01*
X042042Y018128D01*
X042041Y018137D01*
X042039Y018149D01*
X042038Y018162D01*
Y018178D01*
Y018194D01*
X042039Y018213D01*
X042041Y018233D01*
X042043Y018255D01*
X042048Y018278D01*
X042052Y018303D01*
X042059Y018328D01*
X042068Y018356D01*
X04207Y018359D01*
X042071Y018364D01*
X042076Y018375D01*
X042081Y018388D01*
X042089Y018405D01*
X042097Y018424D01*
X042108Y018445D01*
X042119Y018468D01*
X042134Y018493D01*
X042148Y018517D01*
X042166Y018542D01*
X042185Y018569D01*
X042205Y018593D01*
X042227Y018617D01*
X04225Y01864D01*
X042277Y01866D01*
X042278Y018662D01*
X042284Y018665D01*
X042291Y018671D01*
X042302Y018676D01*
X042316Y018685D01*
X042332Y018694D01*
X042351Y018704D01*
X042373Y018714D01*
X042396Y018723D01*
X042421Y018733D01*
X042449Y018742D01*
X042478Y018751D01*
X04251Y018757D01*
X042542Y018762D01*
X042577Y018765D01*
X042612Y018767D01*
X042627D01*
X042637Y018765D01*
D02*
G37*
G36*
X045181Y017955D02*
X044914D01*
X044884Y018754D01*
X045142D01*
X045126Y018178D01*
X045499Y018754D01*
X04575D01*
X045181Y017955D01*
D02*
G37*
G36*
X044528D02*
X044295D01*
X044143Y018395D01*
X043994Y017955D01*
X043762D01*
X044034Y018754D01*
X044264D01*
X044416Y01831D01*
X044566Y018754D01*
X044799D01*
X044528Y017955D01*
D02*
G37*
G36*
X047529Y019943D02*
X047545Y019941D01*
X047564Y019938D01*
X047584Y019935D01*
X047606Y019931D01*
X047628Y019925D01*
X047651Y019918D01*
X047673Y019909D01*
X047695Y019899D01*
X047717Y019886D01*
X047736Y019871D01*
X047753Y019855D01*
X047768Y019836D01*
X047769Y019835D01*
X047771Y019832D01*
X047774Y019824D01*
X047778Y019817D01*
X047782Y019805D01*
X047787Y019792D01*
X047791Y019776D01*
X047796Y019759D01*
X047798Y019738D01*
X047801Y019717D01*
Y019692D01*
X0478Y019665D01*
X047797Y019636D01*
X047793Y019606D01*
X047784Y019572D01*
X047774Y019537D01*
Y019536D01*
X047772Y019531D01*
X047769Y019524D01*
X047765Y019514D01*
X047761Y019502D01*
X047755Y019488D01*
X047747Y019473D01*
X04774Y019456D01*
X047723Y019419D01*
X047701Y019381D01*
X047676Y019343D01*
X047648Y019307D01*
X047647Y019305D01*
X047645Y019302D01*
X047641Y019298D01*
X047635Y019292D01*
X047628Y019285D01*
X047618Y019276D01*
X047596Y019256D01*
X04757Y019234D01*
X047539Y019211D01*
X047502Y019189D01*
X047465Y019168D01*
X047463D01*
X04746Y019167D01*
X047454Y019164D01*
X047446Y019161D01*
X047435Y019157D01*
X047424Y019152D01*
X047411Y019148D01*
X047395Y019144D01*
X047379Y019139D01*
X04736Y019135D01*
X047319Y019126D01*
X047274Y01912D01*
X047225Y019119D01*
X047204D01*
X047192Y01912D01*
X047179Y019122D01*
X04715Y019125D01*
X047116Y019129D01*
X047081Y019136D01*
X047048Y019146D01*
X047017Y019161D01*
X047016D01*
X047014Y019162D01*
X047005Y01917D01*
X046992Y01918D01*
X046978Y019195D01*
X04696Y019212D01*
X046944Y019237D01*
X046931Y019265D01*
X046919Y019297D01*
Y019298D01*
X046918Y019301D01*
Y019307D01*
X046916Y019314D01*
X046915Y019323D01*
Y019333D01*
X046913Y019346D01*
Y019361D01*
Y019377D01*
X046915Y019394D01*
X046916Y019413D01*
X046919Y019435D01*
X046928Y01948D01*
X046935Y019504D01*
X046943Y01953D01*
X046944Y019533D01*
X046946Y019539D01*
X04695Y019549D01*
X046956Y019562D01*
X046963Y019578D01*
X046972Y019597D01*
X046982Y019619D01*
X046995Y019641D01*
X047008Y019665D01*
X047024Y01969D01*
X047042Y019715D01*
X047061Y019741D01*
X047081Y019766D01*
X047104Y019791D01*
X047129Y019813D01*
X047155Y019835D01*
X047157Y019836D01*
X047163Y019839D01*
X04717Y019845D01*
X047182Y019852D01*
X047195Y019859D01*
X047212Y01987D01*
X047231Y01988D01*
X047253Y01989D01*
X047277Y0199D01*
X047303Y019909D01*
X04733Y019919D01*
X047361Y019926D01*
X047393Y019934D01*
X047427Y01994D01*
X04746Y019943D01*
X047497Y019944D01*
X047516D01*
X047529Y019943D01*
D02*
G37*
G36*
X046722Y019929D02*
X046731D01*
X046743Y019928D01*
X046768Y019924D01*
X046794Y019916D01*
X04682Y019906D01*
X046843Y019891D01*
X046854Y019883D01*
X046862Y019873D01*
X046864Y01987D01*
X046868Y019862D01*
X046874Y019851D01*
X04688Y019833D01*
X046884Y019813D01*
X046886Y019789D01*
X046883Y019762D01*
X04688Y019747D01*
X046876Y019731D01*
Y01973D01*
X046874Y019728D01*
X046871Y019719D01*
X046865Y019706D01*
X046857Y01969D01*
X046845Y019671D01*
X04683Y019651D01*
X046813Y019631D01*
X046791Y01961D01*
X04679Y019609D01*
X046784Y019604D01*
X046775Y019598D01*
X046763Y019591D01*
X046747Y019582D01*
X04673Y019574D01*
X046709Y019565D01*
X046686Y019556D01*
X046687D01*
X046689Y019555D01*
X046699Y019552D01*
X046712Y019547D01*
X046728Y01954D01*
X046746Y01953D01*
X046762Y019517D01*
X046776Y019502D01*
X046788Y019485D01*
X04679Y019482D01*
X046791Y019476D01*
X046794Y019464D01*
X046797Y01945D01*
X046798Y019432D01*
X046797Y01941D01*
X046792Y019386D01*
X046785Y019358D01*
X046784Y019355D01*
X046781Y019348D01*
X046776Y019336D01*
X046769Y019321D01*
X04676Y019304D01*
X046749Y019285D01*
X046734Y019266D01*
X046718Y019247D01*
X046717Y019246D01*
X046711Y019238D01*
X046701Y01923D01*
X046687Y019219D01*
X046673Y019206D01*
X046655Y019193D01*
X046635Y01918D01*
X046613Y019168D01*
X046612D01*
X046606Y019165D01*
X046599Y019162D01*
X046587Y019158D01*
X046572Y019154D01*
X046555Y019149D01*
X046534Y019146D01*
X046511Y019142D01*
X046507D01*
X046502Y019141D01*
X046496D01*
X046482Y019139D01*
X046464Y019138D01*
X046444Y019135D01*
X046425Y019133D01*
X046409Y019132D01*
X04597D01*
X046241Y019931D01*
X046715D01*
X046722Y019929D01*
D02*
G37*
G36*
X042752D02*
X042761D01*
X042773Y019928D01*
X042798Y019924D01*
X042824Y019916D01*
X04285Y019906D01*
X042873Y019891D01*
X042884Y019883D01*
X042892Y019873D01*
X042894Y01987D01*
X042898Y019862D01*
X042904Y019851D01*
X04291Y019833D01*
X042914Y019813D01*
X042916Y019789D01*
X042913Y019762D01*
X04291Y019747D01*
X042905Y019731D01*
Y01973D01*
X042904Y019728D01*
X042901Y019719D01*
X042895Y019706D01*
X042886Y01969D01*
X042875Y019671D01*
X04286Y019651D01*
X042843Y019631D01*
X042821Y01961D01*
X042819Y019609D01*
X042814Y019604D01*
X042805Y019598D01*
X042793Y019591D01*
X042777Y019582D01*
X04276Y019574D01*
X042739Y019565D01*
X042716Y019556D01*
X042717D01*
X042719Y019555D01*
X042729Y019552D01*
X042742Y019547D01*
X042758Y01954D01*
X042776Y01953D01*
X042792Y019517D01*
X042806Y019502D01*
X042818Y019485D01*
X042819Y019482D01*
X042821Y019476D01*
X042824Y019464D01*
X042827Y01945D01*
X042828Y019432D01*
X042827Y01941D01*
X042822Y019386D01*
X042815Y019358D01*
X042814Y019355D01*
X042811Y019348D01*
X042806Y019336D01*
X042799Y019321D01*
X04279Y019304D01*
X042779Y019285D01*
X042764Y019266D01*
X042748Y019247D01*
X042747Y019246D01*
X042741Y019238D01*
X04273Y01923D01*
X042717Y019219D01*
X042703Y019206D01*
X042685Y019193D01*
X042665Y01918D01*
X042643Y019168D01*
X042642D01*
X042636Y019165D01*
X042628Y019162D01*
X042617Y019158D01*
X042602Y019154D01*
X042585Y019149D01*
X042564Y019146D01*
X042541Y019142D01*
X042537D01*
X042532Y019141D01*
X042526D01*
X042512Y019139D01*
X042494Y019138D01*
X042474Y019135D01*
X042455Y019133D01*
X042439Y019132D01*
X042D01*
X042271Y019931D01*
X042745D01*
X042752Y019929D01*
D02*
G37*
G36*
X048459Y019943D02*
X048475Y019941D01*
X048494Y019938D01*
X048514Y019935D01*
X048536Y019931D01*
X048558Y019925D01*
X048581Y019918D01*
X048603Y019909D01*
X048625Y019899D01*
X048647Y019886D01*
X048666Y019871D01*
X048683Y019855D01*
X048698Y019836D01*
X0487Y019835D01*
X048701Y019832D01*
X048704Y019824D01*
X048708Y019817D01*
X048713Y019805D01*
X048717Y019792D01*
X048721Y019776D01*
X048726Y019759D01*
X048729Y019738D01*
X048732Y019717D01*
Y019692D01*
X04873Y019665D01*
X048727Y019636D01*
X048723Y019606D01*
X048714Y019572D01*
X048704Y019537D01*
Y019536D01*
X048702Y019531D01*
X0487Y019524D01*
X048695Y019514D01*
X048691Y019502D01*
X048685Y019488D01*
X048678Y019473D01*
X04867Y019456D01*
X048653Y019419D01*
X048631Y019381D01*
X048606Y019343D01*
X048579Y019307D01*
X048577Y019305D01*
X048576Y019302D01*
X048571Y019298D01*
X048565Y019292D01*
X048558Y019285D01*
X048548Y019276D01*
X048526Y019256D01*
X0485Y019234D01*
X048469Y019211D01*
X048433Y019189D01*
X048395Y019168D01*
X048393D01*
X04839Y019167D01*
X048385Y019164D01*
X048376Y019161D01*
X048366Y019157D01*
X048354Y019152D01*
X048341Y019148D01*
X048325Y019144D01*
X048309Y019139D01*
X04829Y019135D01*
X048249Y019126D01*
X048204Y01912D01*
X048156Y019119D01*
X048134D01*
X048122Y01912D01*
X048109Y019122D01*
X04808Y019125D01*
X048046Y019129D01*
X048011Y019136D01*
X047978Y019146D01*
X047947Y019161D01*
X047946D01*
X047944Y019162D01*
X047936Y01917D01*
X047922Y01918D01*
X047908Y019195D01*
X04789Y019212D01*
X047874Y019237D01*
X047861Y019265D01*
X047849Y019297D01*
Y019298D01*
X047848Y019301D01*
Y019307D01*
X047847Y019314D01*
X047845Y019323D01*
Y019333D01*
X047844Y019346D01*
Y019361D01*
Y019377D01*
X047845Y019394D01*
X047847Y019413D01*
X047849Y019435D01*
X047858Y01948D01*
X047866Y019504D01*
X047873Y01953D01*
X047874Y019533D01*
X047876Y019539D01*
X04788Y019549D01*
X047886Y019562D01*
X047893Y019578D01*
X047902Y019597D01*
X047912Y019619D01*
X047925Y019641D01*
X047938Y019665D01*
X047954Y01969D01*
X047972Y019715D01*
X047991Y019741D01*
X048011Y019766D01*
X048035Y019791D01*
X048059Y019813D01*
X048086Y019835D01*
X048087Y019836D01*
X048093Y019839D01*
X0481Y019845D01*
X048112Y019852D01*
X048125Y019859D01*
X048143Y01987D01*
X048162Y01988D01*
X048183Y01989D01*
X048207Y0199D01*
X048233Y019909D01*
X048261Y019919D01*
X048291Y019926D01*
X048323Y019934D01*
X048357Y01994D01*
X04839Y019943D01*
X048427Y019944D01*
X048446D01*
X048459Y019943D01*
D02*
G37*
G36*
X042114Y012488D02*
X041878Y012764D01*
X04235D01*
X042114Y012488D01*
D02*
G37*
G36*
X060197Y01172D02*
X06Y011917D01*
X060197Y012114D01*
Y01172D01*
D02*
G37*
G36*
X02189Y011917D02*
X021693Y01172D01*
Y012114D01*
X02189Y011917D01*
D02*
G37*
G36*
X026412Y029998D02*
X026147D01*
X02628Y030215D01*
X026412Y029998D01*
D02*
G37*
G36*
X052082D02*
X051816D01*
X051949Y030215D01*
X052082Y029998D01*
D02*
G37*
G36*
X050763D02*
X050497D01*
X05063Y030215D01*
X050763Y029998D01*
D02*
G37*
G36*
X049444D02*
X049178D01*
X049311Y030215D01*
X049444Y029998D01*
D02*
G37*
G36*
X04538Y019629D02*
X045517Y019132D01*
X045212D01*
X045155Y019458D01*
X044982Y019326D01*
X044916Y019132D01*
X04467D01*
X044941Y019931D01*
X045187D01*
X045084Y019628D01*
X045445Y019931D01*
X045775D01*
X04538Y019629D01*
D02*
G37*
G36*
X04352Y018765D02*
X043536Y018764D01*
X043555Y018761D01*
X043576Y018758D01*
X043598Y018754D01*
X04362Y018748D01*
X043643Y018741D01*
X043665Y018732D01*
X043687Y018722D01*
X043708Y018708D01*
X043727Y018694D01*
X043745Y018678D01*
X04376Y018659D01*
X043761Y018657D01*
X043762Y018655D01*
X043765Y018647D01*
X04377Y01864D01*
X043774Y018628D01*
X043778Y018615D01*
X043783Y018599D01*
X043787Y018582D01*
X04379Y018561D01*
X043793Y018539D01*
Y018515D01*
X043792Y018488D01*
X043789Y018459D01*
X043784Y018429D01*
X043776Y018395D01*
X043765Y01836D01*
Y018359D01*
X043764Y018354D01*
X043761Y018347D01*
X043757Y018337D01*
X043752Y018325D01*
X043746Y01831D01*
X043739Y018296D01*
X043732Y018278D01*
X043714Y018242D01*
X043692Y018204D01*
X043668Y018166D01*
X04364Y01813D01*
X043639Y018128D01*
X043637Y018125D01*
X043633Y018121D01*
X043627Y018115D01*
X04362Y018108D01*
X043609Y018099D01*
X043587Y018079D01*
X043561Y018057D01*
X043531Y018033D01*
X043494Y018012D01*
X043456Y017991D01*
X043455D01*
X043452Y01799D01*
X043446Y017987D01*
X043437Y017984D01*
X043427Y017979D01*
X043415Y017975D01*
X043402Y017971D01*
X043386Y017966D01*
X04337Y017962D01*
X043351Y017958D01*
X04331Y017949D01*
X043265Y017943D01*
X043217Y017942D01*
X043195D01*
X043184Y017943D01*
X04317Y017944D01*
X043141Y017947D01*
X043108Y017952D01*
X043073Y017959D01*
X043039Y017969D01*
X043009Y017984D01*
X043007D01*
X043006Y017985D01*
X042997Y017993D01*
X042984Y018003D01*
X042969Y018017D01*
X042952Y018035D01*
X042936Y01806D01*
X042923Y018087D01*
X042911Y018119D01*
Y018121D01*
X042909Y018124D01*
Y01813D01*
X042908Y018137D01*
X042907Y018146D01*
Y018156D01*
X042905Y018169D01*
Y018184D01*
Y0182D01*
X042907Y018217D01*
X042908Y018236D01*
X042911Y018258D01*
X04292Y018303D01*
X042927Y018326D01*
X042934Y018353D01*
X042936Y018356D01*
X042937Y018361D01*
X042942Y018372D01*
X042947Y018385D01*
X042955Y018401D01*
X042963Y01842D01*
X042974Y018442D01*
X042987Y018464D01*
X043Y018488D01*
X043016Y018513D01*
X043033Y018538D01*
X043052Y018564D01*
X043073Y018589D01*
X043096Y018614D01*
X043121Y018636D01*
X043147Y018657D01*
X043149Y018659D01*
X043154Y018662D01*
X043162Y018668D01*
X043173Y018675D01*
X043187Y018682D01*
X043204Y018692D01*
X043223Y018703D01*
X043245Y018713D01*
X043268Y018723D01*
X043294Y018732D01*
X043322Y018742D01*
X043353Y018749D01*
X043385Y018757D01*
X043418Y018762D01*
X043452Y018765D01*
X043488Y018767D01*
X043507D01*
X04352Y018765D01*
D02*
G37*
G36*
X046435Y018583D02*
X046021D01*
X045977Y018456D01*
X046361D01*
X046305Y018293D01*
X045922D01*
X045869Y018135D01*
X046295D01*
X046234Y017955D01*
X04556D01*
X045831Y018754D01*
X046493D01*
X046435Y018583D01*
D02*
G37*
G36*
X044474Y019943D02*
X044487D01*
X0445Y019941D01*
X044517Y01994D01*
X044534Y019937D01*
X044569Y019929D01*
X044605Y019918D01*
X044639Y019903D01*
X044654Y019893D01*
X044667Y019883D01*
X044668D01*
X04467Y01988D01*
X044673Y019877D01*
X044677Y019871D01*
X044681Y019865D01*
X044687Y019856D01*
X044693Y019848D01*
X0447Y019836D01*
X044706Y019824D01*
X044712Y01981D01*
X044718Y019795D01*
X044722Y019778D01*
X044726Y019759D01*
X044729Y01974D01*
X044732Y019718D01*
Y019695D01*
X044496Y019647D01*
Y019648D01*
Y019652D01*
Y01966D01*
Y019667D01*
X044495Y019684D01*
X044493Y019692D01*
X04449Y019699D01*
Y0197D01*
X044489Y019703D01*
X044486Y019709D01*
X044482Y019715D01*
X044471Y01973D01*
X044455Y019743D01*
X044454Y019744D01*
X044451Y019746D01*
X044445Y019749D01*
X044438Y019752D01*
X044429Y019754D01*
X044419Y019756D01*
X044406Y019759D01*
X044384D01*
X044378Y019757D01*
X044363Y019756D01*
X044343Y01975D01*
X04432Y019743D01*
X044293Y01973D01*
X044267Y019714D01*
X044254Y019702D01*
X044241Y01969D01*
X044238Y019687D01*
X044232Y019682D01*
X044223Y019668D01*
X04421Y019652D01*
X044197Y019631D01*
X044183Y019604D01*
X044168Y019572D01*
X044153Y019534D01*
Y019533D01*
X044152Y019528D01*
X044149Y019521D01*
X044148Y019512D01*
X044145Y019502D01*
X04414Y019489D01*
X044135Y019461D01*
X044129Y019432D01*
X044126Y019402D01*
X044127Y019374D01*
X04413Y019362D01*
X044133Y019352D01*
X044135Y019351D01*
X044137Y019345D01*
X044145Y019337D01*
X044153Y019329D01*
X044167Y019318D01*
X044184Y019311D01*
X044206Y019305D01*
X044231Y019304D01*
X044242D01*
X044256Y019305D01*
X044272Y019308D01*
X044291Y019314D01*
X044311Y01932D01*
X044331Y01933D01*
X04435Y019343D01*
X044353Y019345D01*
X044359Y019351D01*
X044369Y019359D01*
X044381Y019372D01*
X044395Y019388D01*
X044412Y019409D01*
X044428Y019432D01*
X044444Y01946D01*
X044638Y019393D01*
Y019391D01*
X044635Y019388D01*
X044632Y019384D01*
X044629Y019378D01*
X044617Y019361D01*
X044603Y01934D01*
X044585Y019316D01*
X044563Y019291D01*
X044541Y019266D01*
X044517Y019241D01*
X044514Y019238D01*
X044505Y019231D01*
X044492Y019221D01*
X044473Y019206D01*
X044451Y019192D01*
X044426Y019177D01*
X044398Y019162D01*
X044369Y019149D01*
X044368D01*
X044366Y019148D01*
X04436Y019146D01*
X044355Y019145D01*
X044347Y019142D01*
X044339Y019139D01*
X044315Y019135D01*
X044288Y019129D01*
X044256Y019123D01*
X044221Y01912D01*
X044181Y019119D01*
X044159D01*
X044149Y01912D01*
X044136D01*
X044107Y019123D01*
X044075Y019127D01*
X044041Y019135D01*
X044009Y019144D01*
X04398Y019155D01*
X043979D01*
X043977Y019157D01*
X043968Y019162D01*
X043957Y019173D01*
X043942Y019186D01*
X043926Y019205D01*
X04391Y019227D01*
X043894Y019254D01*
X043882Y019288D01*
Y019289D01*
X043881Y019292D01*
Y019298D01*
X043879Y019305D01*
X043878Y019314D01*
X043876Y019326D01*
X043875Y019339D01*
Y019355D01*
Y019371D01*
X043876Y01939D01*
X043878Y01941D01*
X043881Y019432D01*
X043885Y019456D01*
X04389Y01948D01*
X043897Y019505D01*
X043906Y019533D01*
X043907Y019536D01*
X043909Y019542D01*
X043913Y019552D01*
X043919Y019565D01*
X043926Y019582D01*
X043935Y019601D01*
X043945Y019622D01*
X043957Y019645D01*
X043971Y01967D01*
X043986Y019695D01*
X044003Y019719D01*
X044022Y019746D01*
X044043Y01977D01*
X044065Y019794D01*
X044088Y019817D01*
X044114Y019838D01*
X044116Y019839D01*
X044121Y019842D01*
X044129Y019848D01*
X044139Y019854D01*
X044153Y019862D01*
X04417Y019871D01*
X044188Y019881D01*
X04421Y019891D01*
X044234Y0199D01*
X044258Y01991D01*
X044286Y019919D01*
X044315Y019928D01*
X044347Y019934D01*
X044379Y01994D01*
X044414Y019943D01*
X044449Y019944D01*
X044464D01*
X044474Y019943D01*
D02*
G37*
G36*
X02189Y009949D02*
X021693Y009752D01*
Y010146D01*
X02189Y009949D01*
D02*
G37*
G36*
X060197Y009752D02*
X06Y009949D01*
X060197Y010146D01*
Y009752D01*
D02*
G37*
G36*
X049326Y019943D02*
X04934D01*
X049353Y019941D01*
X049386Y019937D01*
X049421Y019929D01*
X049456Y019919D01*
X04949Y019905D01*
X049503Y019896D01*
X049516Y019886D01*
X049519Y019883D01*
X049525Y019875D01*
X049533Y019861D01*
X049544Y019842D01*
X049548Y01983D01*
X049551Y019817D01*
X049554Y019801D01*
X049555Y019785D01*
X049557Y019768D01*
X049555Y019749D01*
X049554Y019727D01*
X04955Y019705D01*
X049312Y019692D01*
Y019695D01*
X049313Y0197D01*
Y019711D01*
Y019722D01*
X049312Y019734D01*
X04931Y019747D01*
X049306Y01976D01*
X049299Y01977D01*
X049297Y019772D01*
X049294Y019775D01*
X04929Y019778D01*
X049283Y019784D01*
X049272Y019788D01*
X049259Y019791D01*
X049245Y019794D01*
X049226Y019795D01*
X049219D01*
X049211Y019794D01*
X049201Y019792D01*
X049179Y019788D01*
X049168Y019782D01*
X049156Y019776D01*
X049154Y019775D01*
X049151Y019773D01*
X049147Y019769D01*
X049141Y019765D01*
X049128Y01975D01*
X049124Y019741D01*
X049119Y019733D01*
Y019731D01*
X049118Y01973D01*
Y019721D01*
X049119Y019709D01*
X049121Y019703D01*
X049125Y019698D01*
X049128Y019695D01*
X049133Y019692D01*
X049138Y019687D01*
X049149Y019683D01*
X049162Y019679D01*
X049178Y019673D01*
X049198Y019668D01*
X0492D01*
X049205Y019667D01*
X049213Y019665D01*
X049223Y019663D01*
X049235Y01966D01*
X049249Y019655D01*
X04928Y019647D01*
X049315Y019636D01*
X049348Y019623D01*
X049364Y019617D01*
X04938Y01961D01*
X049394Y019604D01*
X049405Y019597D01*
X049408Y019596D01*
X049414Y019591D01*
X049424Y019584D01*
X049436Y019574D01*
X049449Y019561D01*
X049461Y019546D01*
X049469Y019528D01*
X049477Y019509D01*
Y019507D01*
X049478Y019501D01*
X04948Y019489D01*
X049481Y019474D01*
Y019457D01*
X04948Y019438D01*
X049477Y019415D01*
X049469Y019391D01*
Y01939D01*
X049468Y019388D01*
X049466Y019384D01*
X049465Y019378D01*
X049458Y019364D01*
X049449Y019345D01*
X049436Y019323D01*
X04942Y019298D01*
X049401Y019273D01*
X049379Y019248D01*
X049376Y019246D01*
X049367Y019238D01*
X049354Y019227D01*
X049335Y019212D01*
X049313Y019196D01*
X049287Y01918D01*
X049258Y019165D01*
X049226Y019151D01*
X049224D01*
X049221Y019149D01*
X049217Y019148D01*
X04921Y019146D01*
X049203Y019144D01*
X049192Y019141D01*
X049181Y019138D01*
X049168Y019135D01*
X049137Y019129D01*
X049103Y019123D01*
X049064Y01912D01*
X049022Y019119D01*
X049003D01*
X04899Y01912D01*
X048972Y019122D01*
X048955Y019123D01*
X048934Y019125D01*
X048914Y019129D01*
X04887Y019138D01*
X048848Y019144D01*
X048828Y019151D01*
X048809Y01916D01*
X048791Y019171D01*
X048777Y019183D01*
X048765Y019196D01*
Y019197D01*
X048764Y0192D01*
X048761Y019205D01*
X048758Y019211D01*
X048755Y019218D01*
X048751Y019227D01*
X048748Y019238D01*
X048743Y01925D01*
X048737Y019279D01*
X048734Y019314D01*
X048736Y019333D01*
X048737Y019352D01*
X04874Y019374D01*
X048745Y019396D01*
X048985Y019412D01*
Y019409D01*
X048984Y019402D01*
X048982Y019391D01*
X048981Y01938D01*
Y019365D01*
Y019351D01*
X048982Y019336D01*
X048987Y019324D01*
X048988Y019323D01*
X048991Y019317D01*
X048997Y01931D01*
X049007Y019301D01*
X049019Y019291D01*
X049035Y019283D01*
X049055Y019278D01*
X049079Y019276D01*
X049087D01*
X049098Y019278D01*
X049111Y019279D01*
X049124Y019282D01*
X04914Y019286D01*
X049154Y019292D01*
X049169Y0193D01*
X04917Y019301D01*
X049175Y019304D01*
X049182Y01931D01*
X049189Y019316D01*
X049198Y019324D01*
X049205Y019335D01*
X049213Y019346D01*
X049217Y019358D01*
Y019359D01*
X049219Y019364D01*
X04922Y01937D01*
Y019377D01*
Y019386D01*
X049219Y019394D01*
X049216Y019405D01*
X04921Y019413D01*
X049208Y019415D01*
X049205Y019418D01*
X0492Y019422D01*
X049189Y019428D01*
X049175Y019435D01*
X049154Y019444D01*
X049143Y019448D01*
X04913Y019451D01*
X049115Y019456D01*
X049099Y01946D01*
X049098D01*
X049093Y019461D01*
X049084Y019464D01*
X049074Y019466D01*
X049063Y01947D01*
X049049Y019474D01*
X049017Y019485D01*
X048984Y019499D01*
X048952Y019515D01*
X048936Y019524D01*
X048923Y019534D01*
X048909Y019544D01*
X048899Y019556D01*
X048898Y019559D01*
X048892Y019566D01*
X048886Y019579D01*
X048879Y019598D01*
X048874Y01962D01*
X048872Y019647D01*
Y019661D01*
X048874Y019676D01*
X048877Y019692D01*
X048882Y019709D01*
Y019711D01*
X048883Y019712D01*
X048886Y019719D01*
X048892Y019733D01*
X048899Y019747D01*
X048909Y019765D01*
X048923Y019785D01*
X048939Y019805D01*
X048958Y019826D01*
X04896Y019829D01*
X048968Y019835D01*
X048979Y019845D01*
X048995Y019858D01*
X049014Y019871D01*
X049038Y019886D01*
X049064Y019899D01*
X049093Y019912D01*
X049095D01*
X049098Y019913D01*
X049102Y019915D01*
X049108Y019916D01*
X049117Y019919D01*
X049127Y019922D01*
X049137Y019925D01*
X04915Y019928D01*
X049165Y019931D01*
X049181Y019934D01*
X049216Y01994D01*
X049256Y019943D01*
X049302Y019944D01*
X049316D01*
X049326Y019943D01*
D02*
G37*
%LPC*%
G36*
X043424Y01858D02*
X043417D01*
X043411Y018579D01*
X043398Y018577D01*
X043379Y018573D01*
X043357Y018567D01*
X043334Y018557D01*
X04331Y018544D01*
X043286Y018526D01*
X043283Y018523D01*
X043275Y018516D01*
X043264Y018503D01*
X043249Y018485D01*
X04324Y018474D01*
X043233Y018461D01*
X043224Y018446D01*
X043216Y018431D01*
X043205Y018414D01*
X043197Y018395D01*
X043189Y018375D01*
X043181Y018353D01*
Y018351D01*
X043179Y018347D01*
X043178Y018341D01*
X043175Y018334D01*
X043172Y018324D01*
X043169Y018312D01*
X043163Y018286D01*
X04316Y018258D01*
X043157Y018229D01*
X04316Y018201D01*
X043163Y018189D01*
X043168Y018179D01*
X043169Y018176D01*
X043173Y01817D01*
X043181Y018163D01*
X043191Y018153D01*
X043205Y018143D01*
X043223Y018135D01*
X043246Y01813D01*
X043273Y018127D01*
X04328D01*
X043286Y018128D01*
X043302Y01813D01*
X043321Y018133D01*
X043343Y01814D01*
X043366Y018149D01*
X043391Y01816D01*
X043414Y018178D01*
X043417Y018181D01*
X043424Y018188D01*
X04343Y018194D01*
X043436Y018201D01*
X043443Y01821D01*
X04345Y01822D01*
X043458Y018232D01*
X043466Y018245D01*
X043475Y018261D01*
X043485Y018277D01*
X043494Y018296D01*
X043503Y018316D01*
X043512Y018338D01*
X04352Y018363D01*
Y018364D01*
X043522Y018367D01*
X043523Y018373D01*
X043526Y018382D01*
X043528Y018391D01*
X043531Y018401D01*
X043536Y018426D01*
X043539Y018452D01*
X043541Y01848D01*
X043538Y018506D01*
X043535Y018517D01*
X043531Y018528D01*
X043529Y018531D01*
X043525Y018536D01*
X043517Y018544D01*
X043507Y018554D01*
X043493Y018564D01*
X043474Y018571D01*
X043452Y018577D01*
X043424Y01858D01*
D02*
G37*
G36*
X048363Y019757D02*
X048355D01*
X04835Y019756D01*
X048336Y019754D01*
X048318Y01975D01*
X048296Y019744D01*
X048272Y019734D01*
X048249Y019721D01*
X048224Y019703D01*
X048221Y0197D01*
X048214Y019693D01*
X048202Y01968D01*
X048188Y019663D01*
X048179Y019651D01*
X048172Y019638D01*
X048163Y019623D01*
X048154Y019609D01*
X048144Y019591D01*
X048135Y019572D01*
X048128Y019552D01*
X048119Y01953D01*
Y019528D01*
X048118Y019524D01*
X048116Y019518D01*
X048113Y019511D01*
X04811Y019501D01*
X048108Y019489D01*
X048102Y019463D01*
X048099Y019435D01*
X048096Y019406D01*
X048099Y019378D01*
X048102Y019367D01*
X048106Y019356D01*
X048108Y019353D01*
X048112Y019348D01*
X048119Y01934D01*
X048129Y01933D01*
X048144Y01932D01*
X048162Y019313D01*
X048185Y019307D01*
X048211Y019304D01*
X048218D01*
X048224Y019305D01*
X04824Y019307D01*
X048259Y01931D01*
X048281Y019317D01*
X048304Y019326D01*
X048329Y019337D01*
X048353Y019355D01*
X048355Y019358D01*
X048363Y019365D01*
X048369Y019371D01*
X048374Y019378D01*
X048382Y019387D01*
X048389Y019397D01*
X048396Y019409D01*
X048405Y019422D01*
X048414Y019438D01*
X048424Y019454D01*
X048433Y019473D01*
X048441Y019493D01*
X04845Y019515D01*
X048459Y01954D01*
Y019542D01*
X04846Y019544D01*
X048462Y01955D01*
X048465Y019559D01*
X048466Y019568D01*
X048469Y019578D01*
X048475Y019603D01*
X048478Y019629D01*
X048479Y019657D01*
X048476Y019683D01*
X048474Y019695D01*
X048469Y019705D01*
X048468Y019708D01*
X048463Y019714D01*
X048456Y019721D01*
X048446Y019731D01*
X048431Y019741D01*
X048412Y019749D01*
X04839Y019754D01*
X048363Y019757D01*
D02*
G37*
G36*
X047433D02*
X047425D01*
X047419Y019756D01*
X047406Y019754D01*
X047387Y01975D01*
X047365Y019744D01*
X047342Y019734D01*
X047319Y019721D01*
X047294Y019703D01*
X047291Y0197D01*
X047284Y019693D01*
X047272Y01968D01*
X047258Y019663D01*
X047249Y019651D01*
X047242Y019638D01*
X047233Y019623D01*
X047224Y019609D01*
X047214Y019591D01*
X047205Y019572D01*
X047198Y019552D01*
X047189Y01953D01*
Y019528D01*
X047188Y019524D01*
X047186Y019518D01*
X047183Y019511D01*
X04718Y019501D01*
X047177Y019489D01*
X047172Y019463D01*
X047169Y019435D01*
X047166Y019406D01*
X047169Y019378D01*
X047172Y019367D01*
X047176Y019356D01*
X047177Y019353D01*
X047182Y019348D01*
X047189Y01934D01*
X047199Y01933D01*
X047214Y01932D01*
X047231Y019313D01*
X047255Y019307D01*
X047281Y019304D01*
X047288D01*
X047294Y019305D01*
X04731Y019307D01*
X047329Y01931D01*
X047351Y019317D01*
X047374Y019326D01*
X047399Y019337D01*
X047422Y019355D01*
X047425Y019358D01*
X047433Y019365D01*
X047438Y019371D01*
X047444Y019378D01*
X047451Y019387D01*
X047459Y019397D01*
X047466Y019409D01*
X047475Y019422D01*
X047484Y019438D01*
X047494Y019454D01*
X047502Y019473D01*
X047511Y019493D01*
X04752Y019515D01*
X047529Y01954D01*
Y019542D01*
X04753Y019544D01*
X047532Y01955D01*
X047535Y019559D01*
X047536Y019568D01*
X047539Y019578D01*
X047545Y019603D01*
X047548Y019629D01*
X047549Y019657D01*
X047546Y019683D01*
X047543Y019695D01*
X047539Y019705D01*
X047537Y019708D01*
X047533Y019714D01*
X047526Y019721D01*
X047516Y019731D01*
X047501Y019741D01*
X047482Y019749D01*
X04746Y019754D01*
X047433Y019757D01*
D02*
G37*
G36*
X046545Y019769D02*
X046435D01*
X046384Y019617D01*
X046502D01*
X046513Y019619D01*
X046526Y01962D01*
X046553Y019626D01*
X046568Y019631D01*
X04658Y019636D01*
X046581Y019638D01*
X046584Y019641D01*
X04659Y019645D01*
X046596Y019651D01*
X046603Y01966D01*
X04661Y01967D01*
X046616Y019682D01*
X046622Y019695D01*
Y019696D01*
X046623Y0197D01*
X046625Y019706D01*
X046626Y019715D01*
Y019724D01*
X046625Y019733D01*
X046622Y019741D01*
X046617Y019749D01*
X046616Y01975D01*
X046615Y019752D01*
X046609Y019754D01*
X046603Y019759D01*
X046593Y019763D01*
X04658Y019766D01*
X046564Y019768D01*
X046545Y019769D01*
D02*
G37*
G36*
X042574D02*
X042465D01*
X042414Y019617D01*
X042532D01*
X042542Y019619D01*
X042555Y01962D01*
X042583Y019626D01*
X042598Y019631D01*
X042609Y019636D01*
X042611Y019638D01*
X042614Y019641D01*
X04262Y019645D01*
X042625Y019651D01*
X042633Y01966D01*
X04264Y01967D01*
X042646Y019682D01*
X042652Y019695D01*
Y019696D01*
X042653Y0197D01*
X042655Y019706D01*
X042656Y019715D01*
Y019724D01*
X042655Y019733D01*
X042652Y019741D01*
X042647Y019749D01*
X042646Y01975D01*
X042644Y019752D01*
X042639Y019754D01*
X042633Y019759D01*
X042623Y019763D01*
X042609Y019766D01*
X042593Y019768D01*
X042574Y019769D01*
D02*
G37*
G36*
X049424Y018592D02*
X049314D01*
X049259Y01843D01*
X049373D01*
X04938Y018431D01*
X049389Y018433D01*
X049401Y018434D01*
X049417Y018437D01*
X049434Y01844D01*
X049436D01*
X049438Y018442D01*
X049444Y018443D01*
X04945Y018445D01*
X049466Y018452D01*
X049473Y018458D01*
X049482Y018465D01*
X049484Y018466D01*
X049485Y018469D01*
X049489Y018472D01*
X049494Y018478D01*
X049504Y018493D01*
X049513Y018512D01*
Y018513D01*
X049514Y018517D01*
X049516Y018525D01*
X049517Y018534D01*
Y018542D01*
Y018552D01*
X049514Y018561D01*
X049508Y01857D01*
X049507Y018571D01*
X049504Y018573D01*
X0495Y018577D01*
X049491Y018582D01*
X049481Y018585D01*
X049466Y018589D01*
X049447Y01859D01*
X049424Y018592D01*
D02*
G37*
G36*
X046942D02*
X046833D01*
X046778Y01843D01*
X046891D01*
X046899Y018431D01*
X046907Y018433D01*
X046919Y018434D01*
X046935Y018437D01*
X046953Y01844D01*
X046954D01*
X046957Y018442D01*
X046963Y018443D01*
X046969Y018445D01*
X046985Y018452D01*
X046992Y018458D01*
X047001Y018465D01*
X047002Y018466D01*
X047004Y018469D01*
X047008Y018472D01*
X047012Y018478D01*
X047023Y018493D01*
X047031Y018512D01*
Y018513D01*
X047033Y018517D01*
X047034Y018525D01*
X047036Y018534D01*
Y018542D01*
Y018552D01*
X047033Y018561D01*
X047027Y01857D01*
X047025Y018571D01*
X047023Y018573D01*
X047018Y018577D01*
X047009Y018582D01*
X046999Y018585D01*
X046985Y018589D01*
X046966Y01859D01*
X046942Y018592D01*
D02*
G37*
G36*
X046457Y019466D02*
X046332D01*
X046278Y019304D01*
X046413D01*
X046425Y019305D01*
X04644Y019307D01*
X046456Y01931D01*
X046472Y019313D01*
X046488Y019318D01*
X046501Y019326D01*
X046502Y019327D01*
X046507Y01933D01*
X046513Y019335D01*
X04652Y019342D01*
X046527Y019351D01*
X046534Y019362D01*
X046542Y019374D01*
X046547Y019387D01*
Y019388D01*
X046549Y019393D01*
X04655Y019399D01*
Y019407D01*
Y019416D01*
X046549Y019426D01*
X046546Y019435D01*
X04654Y019444D01*
X046539Y019445D01*
X046536Y019447D01*
X046531Y019451D01*
X046523Y019456D01*
X046513Y019458D01*
X046498Y019463D01*
X046479Y019464D01*
X046457Y019466D01*
D02*
G37*
G36*
X042487D02*
X042362D01*
X042308Y019304D01*
X042443D01*
X042455Y019305D01*
X042469Y019307D01*
X042486Y01931D01*
X042502Y019313D01*
X042518Y019318D01*
X042531Y019326D01*
X042532Y019327D01*
X042537Y01933D01*
X042542Y019335D01*
X04255Y019342D01*
X042557Y019351D01*
X042564Y019362D01*
X042572Y019374D01*
X042577Y019387D01*
Y019388D01*
X042579Y019393D01*
X04258Y019399D01*
Y019407D01*
Y019416D01*
X042579Y019426D01*
X042576Y019435D01*
X04257Y019444D01*
X042569Y019445D01*
X042566Y019447D01*
X042561Y019451D01*
X042553Y019456D01*
X042542Y019458D01*
X042528Y019463D01*
X042509Y019464D01*
X042487Y019466D01*
D02*
G37*
%LPD*%
D27*
X037657Y02472D02*
G03*
X037657Y02472I-000049J0D01*
G01*
X042699D02*
G03*
X042699Y02472I-000049J0D01*
G01*
X047764Y02472D02*
G03*
X047764Y02472I-000049J0D01*
G01*
X038927Y039634D02*
G03*
X038927Y039634I-000049J0D01*
G01*
D52*
X038563Y024226D02*
G03*
X038563Y024226I-000118J0D01*
G01*
X043604D02*
G03*
X043604Y024226I-000118J0D01*
G01*
X048669Y024226D02*
G03*
X048669Y024226I-000118J0D01*
G01*
X039902Y039161D02*
G03*
X039902Y039161I-000118J0D01*
G01*
D53*
X024626Y045421D02*
G03*
X024626Y045421I-000039J0D01*
G01*
X023012Y044673D02*
G03*
X023012Y044673I-000591J0D01*
G01*
X052539D02*
G03*
X052539Y044673I-000591J0D01*
G01*
X052539Y032469D02*
G03*
X052539Y032469I-000591J0D01*
G01*
X023012D02*
G03*
X023012Y032469I-000591J0D01*
G01*
X049035Y037295D02*
G03*
X049035Y037295I-000394J0D01*
G01*
X051043D02*
G03*
X051043Y037295I-002402J0D01*
G01*
X049862Y03572D02*
G03*
X049862Y03572I-000394J0D01*
G01*
X035165Y037051D02*
G03*
X037Y037051I000917J0D01*
G01*
Y039744D02*
G03*
X035165Y039744I-000917J0D01*
G01*
X041043Y013171D02*
G03*
X041043Y013171I-004921J0D01*
G01*
X059437Y011917D02*
G03*
X059437Y011917I-000717J0D01*
G01*
Y009949D02*
G03*
X059437Y009949I-000717J0D01*
G01*
X023886D02*
G03*
X023886Y009949I-000717J0D01*
G01*
Y011917D02*
G03*
X023886Y011917I-000717J0D01*
G01*
X041395Y030126D02*
G03*
X041395Y030126I-000315J0D01*
G01*
X038433D02*
G03*
X038433Y030126I-000315J0D01*
G01*
X03942D02*
G03*
X03942Y030126I-000315J0D01*
G01*
X040407D02*
G03*
X040407Y030126I-000315J0D01*
G01*
X042382D02*
G03*
X042382Y030126I-000315J0D01*
G01*
X031806Y024315D02*
G03*
X032885Y024315I000539J0D01*
G01*
X048878Y030854D02*
X049744D01*
Y029354D02*
Y030854D01*
X048878Y029354D02*
X049744D01*
X048878D02*
Y030854D01*
X042114Y012764D02*
Y012921D01*
X041917Y012488D02*
X042311D01*
X042114Y012331D02*
Y012449D01*
X041602Y011504D02*
X042626D01*
Y013709D01*
X041602Y011504D02*
Y013709D01*
X042626D01*
X024154Y044161D02*
Y045185D01*
Y044161D02*
X04002D01*
Y045185D01*
X024154D02*
X04002D01*
X021437Y031484D02*
X052933D01*
X021437Y045657D02*
X052933D01*
X021437Y031484D02*
Y045657D01*
X052933Y031484D02*
Y045657D01*
X021791Y013852D02*
Y015427D01*
Y013852D02*
X024941D01*
Y015427D01*
X021791D02*
X024941D01*
X022421Y016681D02*
X024744D01*
X022067Y017035D02*
X022421Y016681D01*
Y019358D02*
X024744D01*
X022067Y019004D02*
X022421Y019358D01*
X024744Y018453D02*
Y019358D01*
Y016681D02*
Y017587D01*
X022067Y018453D02*
Y019004D01*
Y017035D02*
Y017587D01*
X051516Y029354D02*
Y030854D01*
Y029354D02*
X052382D01*
Y030854D01*
X051516D02*
X052382D01*
X050197Y029354D02*
Y030854D01*
Y029354D02*
X051063D01*
Y030854D01*
X050197D02*
X051063D01*
X042854Y032543D02*
Y033827D01*
X042146D02*
X042854D01*
X042146Y032543D02*
Y033827D01*
Y032543D02*
X042854D01*
X04188D02*
Y033827D01*
X041171D02*
X04188D01*
X041171Y032543D02*
Y033827D01*
Y032543D02*
X04188D01*
X040906D02*
Y033827D01*
X040197D02*
X040906D01*
X040197Y032543D02*
Y033827D01*
Y032543D02*
X040906D01*
X039931D02*
Y033827D01*
X039222D02*
X039931D01*
X039222Y032543D02*
Y033827D01*
Y032543D02*
X039931D01*
X038957D02*
Y033827D01*
X038248D02*
X038957D01*
X038248Y032543D02*
Y033827D01*
Y032543D02*
X038957D01*
X049468Y035327D02*
Y036114D01*
X049075Y03572D02*
X049862D01*
X036083Y038594D02*
Y038791D01*
Y038004D02*
Y038201D01*
X037Y037051D02*
Y039744D01*
X035165Y037051D02*
Y039744D01*
X035728Y038594D02*
X036437D01*
X035728Y038201D02*
X036437D01*
X024162Y034555D02*
Y034909D01*
Y036366D02*
Y036484D01*
X022745D02*
X024162D01*
X022745Y036051D02*
Y036484D01*
X024162Y033886D02*
Y034004D01*
X022745Y033886D02*
X024162D01*
X022745D02*
Y03428D01*
X024162Y035461D02*
Y035815D01*
X021976Y036957D02*
Y037902D01*
Y036957D02*
X023866D01*
Y037902D01*
X021976D02*
X023866D01*
X024162Y039043D02*
Y039398D01*
Y040854D02*
Y040972D01*
X022745D02*
X024162D01*
X022745Y040539D02*
Y040972D01*
X024162Y038374D02*
Y038492D01*
X022745Y038374D02*
X024162D01*
X022745D02*
Y038768D01*
X024162Y039949D02*
Y040303D01*
X021976Y041406D02*
Y04235D01*
Y041406D02*
X023866D01*
Y04235D01*
X021976D02*
X023866D01*
X048445Y008925D02*
Y010972D01*
X047382Y008925D02*
Y010972D01*
X048445D01*
X047382Y008925D02*
X048445D01*
X04876D02*
X049823D01*
X04876Y010972D02*
X049823D01*
X04876Y008925D02*
Y010972D01*
X049823Y008925D02*
Y010972D01*
X051161Y008925D02*
Y010972D01*
X050098Y008925D02*
Y010972D01*
X051161D01*
X050098Y008925D02*
X051161D01*
X051476D02*
X052539D01*
X051476Y010972D02*
X052539D01*
X051476Y008925D02*
Y010972D01*
X052539Y008925D02*
Y010972D01*
X046752Y042024D02*
X050752D01*
X046752Y041024D02*
Y042024D01*
Y041024D02*
X050752D01*
Y042024D01*
X059941Y012902D02*
X060492D01*
Y008768D02*
Y012902D01*
X059941Y008768D02*
X060492D01*
X059606D02*
Y012902D01*
X056949Y008768D02*
Y012902D01*
Y008768D02*
X059941D01*
X056949Y012902D02*
X059941D01*
Y008768D02*
Y012902D01*
X057736Y008768D02*
Y012902D01*
Y010933D02*
X059606D01*
X054311Y023217D02*
Y023807D01*
Y019083D02*
Y019673D01*
X059035Y019083D02*
Y019673D01*
Y023217D02*
Y023807D01*
X054311Y019083D02*
X059035D01*
X054311Y023807D02*
X059035D01*
X054311Y029516D02*
Y030106D01*
Y025382D02*
Y025972D01*
X059035Y025382D02*
Y025972D01*
Y029516D02*
Y030106D01*
X054311Y025382D02*
X059035D01*
X054311Y030106D02*
X059035D01*
X054311Y035815D02*
Y036406D01*
Y031681D02*
Y032272D01*
X059035Y031681D02*
Y032272D01*
Y035815D02*
Y036406D01*
X054311Y031681D02*
X059035D01*
X054311Y036406D02*
X059035D01*
X054311Y042114D02*
Y042705D01*
Y03798D02*
Y038571D01*
X059035Y03798D02*
Y038571D01*
Y042114D02*
Y042705D01*
X054311Y03798D02*
X059035D01*
X054311Y042705D02*
X059035D01*
X021398Y008965D02*
X021949D01*
X021398D02*
Y013098D01*
X021949D01*
X022283Y008965D02*
Y013098D01*
X024941Y008965D02*
Y013098D01*
X021949D02*
X024941D01*
X021949Y008965D02*
X024941D01*
X021949D02*
Y013098D01*
X024154Y008965D02*
Y013098D01*
X022283Y010933D02*
X024154D01*
X057035Y013852D02*
Y015427D01*
Y013852D02*
X060185D01*
Y015427D01*
X057035D02*
X060185D01*
X025846Y029354D02*
Y030854D01*
Y029354D02*
X026713D01*
Y030854D01*
X025846D02*
X026713D01*
X022067Y028492D02*
Y029043D01*
Y029909D02*
Y030461D01*
X024744Y028138D02*
Y029043D01*
Y029909D02*
Y030815D01*
X022067Y030461D02*
X022421Y030815D01*
X024744D01*
X022067Y028492D02*
X022421Y028138D01*
X024744D01*
X021988Y025224D02*
Y027587D01*
Y025224D02*
X02435D01*
Y027587D01*
X021988D02*
X02435D01*
X02661Y023886D02*
X027362D01*
X02661Y023217D02*
X027362D01*
X02661Y022547D02*
X027362D01*
X02661Y021878D02*
X027362D01*
X02661Y021209D02*
X027362D01*
X021851Y020247D02*
X02661D01*
Y024847D01*
X021851D02*
X02661D01*
X021851Y020247D02*
Y024847D01*
X033424Y020457D02*
Y024315D01*
X031267Y020457D02*
X033424D01*
X031267D02*
Y024315D01*
X032885D02*
X033424D01*
X031267D02*
X031806D01*
X030188D02*
X031267D01*
X030188Y02335D02*
X031267D01*
X030188D02*
Y024315D01*
X041555Y042024D02*
X046555D01*
X041555Y041024D02*
Y042024D01*
Y041024D02*
X046555D01*
Y042024D01*
X056713Y00672D02*
Y01302D01*
X052776Y00672D02*
Y01302D01*
Y00672D02*
X056713D01*
X052776Y01302D02*
X056713D01*
X05372Y012547D02*
Y012783D01*
X053602Y012665D02*
X053839D01*
X029331Y008177D02*
Y007783D01*
Y00798D01*
X029593D01*
Y008177D01*
Y007783D01*
X029724Y008177D02*
X029855D01*
X02979D01*
Y007783D01*
X029724D01*
X029855D01*
X030315Y008111D02*
X030249Y008177D01*
X030118D01*
X030052Y008111D01*
Y007849D01*
X030118Y007783D01*
X030249D01*
X030315Y007849D01*
Y00798D01*
X030183D01*
X030446Y008177D02*
Y007783D01*
Y00798D01*
X030708D01*
Y008177D01*
Y007783D01*
X049193Y027547D02*
X049587D01*
Y02781D01*
X049193Y028203D02*
Y027941D01*
X049587D01*
Y028203D01*
X04939Y027941D02*
Y028072D01*
X049193Y028334D02*
X049587D01*
Y028531D01*
X049521Y028597D01*
X049259D01*
X049193Y028531D01*
Y028334D01*
X049587Y028728D02*
Y028859D01*
Y028794D01*
X049193D01*
X049259Y028728D01*
X032568Y023617D02*
X032634Y023551D01*
X032765D01*
X032831Y023617D01*
Y023879D01*
X032765Y023945D01*
X032634D01*
X032568Y023879D01*
X032175Y023945D02*
X032437D01*
X032175Y023682D01*
Y023617D01*
X03224Y023551D01*
X032372D01*
X032437Y023617D01*
X031781Y023945D02*
X032044D01*
X031781Y023682D01*
Y023617D01*
X031847Y023551D01*
X031978D01*
X032044Y023617D01*
X025637Y017573D02*
X025571Y017508D01*
Y017377D01*
X025637Y017311D01*
X025899D01*
X025965Y017377D01*
Y017508D01*
X025899Y017573D01*
X025965Y017967D02*
Y017705D01*
X025702Y017967D01*
X025637D01*
X025571Y017901D01*
Y01777D01*
X025637Y017705D01*
X025571Y018361D02*
X025637Y018229D01*
X025768Y018098D01*
X025899D01*
X025965Y018164D01*
Y018295D01*
X025899Y018361D01*
X025833D01*
X025768Y018295D01*
Y018098D01*
X026948Y027703D02*
X026882Y027638D01*
Y027507D01*
X026948Y027441D01*
X02721D01*
X027276Y027507D01*
Y027638D01*
X02721Y027703D01*
X027276Y028097D02*
Y027835D01*
X027013Y028097D01*
X026948D01*
X026882Y028031D01*
Y0279D01*
X026948Y027835D01*
X026882Y028228D02*
Y02849D01*
X026948D01*
X02721Y028228D01*
X027276D01*
X024526Y037619D02*
X024461Y037685D01*
X024329D01*
X024264Y037619D01*
Y037357D01*
X024329Y037291D01*
X024461D01*
X024526Y037357D01*
X02492Y037291D02*
X024657D01*
X02492Y037554D01*
Y037619D01*
X024854Y037685D01*
X024723D01*
X024657Y037619D01*
X025051D02*
X025117Y037685D01*
X025248D01*
X025313Y037619D01*
Y037554D01*
X025248Y037488D01*
X025313Y037423D01*
Y037357D01*
X025248Y037291D01*
X025117D01*
X025051Y037357D01*
Y037423D01*
X025117Y037488D01*
X025051Y037554D01*
Y037619D01*
X025117Y037488D02*
X025248D01*
X024526Y042127D02*
X024461Y042193D01*
X024329D01*
X024264Y042127D01*
Y041865D01*
X024329Y041799D01*
X024461D01*
X024526Y041865D01*
X02492Y041799D02*
X024657D01*
X02492Y042062D01*
Y042127D01*
X024854Y042193D01*
X024723D01*
X024657Y042127D01*
X025051Y041865D02*
X025117Y041799D01*
X025248D01*
X025313Y041865D01*
Y042127D01*
X025248Y042193D01*
X025117D01*
X025051Y042127D01*
Y042062D01*
X025117Y041996D01*
X025313D01*
X051095Y01365D02*
X051488D01*
Y013846D01*
X051423Y013912D01*
X05116D01*
X051095Y013846D01*
Y01365D01*
X051488Y014043D02*
Y014174D01*
Y014109D01*
X051095D01*
X05116Y014043D01*
X030181Y025319D02*
X030312D01*
X030247D01*
Y024925D01*
X030181D01*
X030312D01*
X030771Y025253D02*
X030706Y025319D01*
X030575D01*
X030509Y025253D01*
Y024991D01*
X030575Y024925D01*
X030706D01*
X030771Y024991D01*
X030903Y024925D02*
X031034D01*
X030968D01*
Y025319D01*
X030903Y025253D01*
X025614Y03476D02*
Y034891D01*
Y034825D01*
X026008D01*
Y03476D01*
Y034891D01*
X02568Y03535D02*
X025614Y035285D01*
Y035153D01*
X02568Y035088D01*
X025942D01*
X026008Y035153D01*
Y035285D01*
X025942Y03535D01*
X026008Y035744D02*
Y035481D01*
X025745Y035744D01*
X02568D01*
X025614Y035678D01*
Y035547D01*
X02568Y035481D01*
X025614Y03922D02*
Y039352D01*
Y039286D01*
X026008D01*
Y03922D01*
Y039352D01*
X02568Y039811D02*
X025614Y039745D01*
Y039614D01*
X02568Y039548D01*
X025942D01*
X026008Y039614D01*
Y039745D01*
X025942Y039811D01*
X02568Y039942D02*
X025614Y040008D01*
Y040139D01*
X02568Y040204D01*
X025745D01*
X025811Y040139D01*
Y040073D01*
Y040139D01*
X025877Y040204D01*
X025942D01*
X026008Y040139D01*
Y040008D01*
X025942Y039942D01*
X031261Y018864D02*
Y018471D01*
X031523D01*
X031655D02*
X031786D01*
X03172D01*
Y018864D01*
X031655Y018799D01*
X025358Y026051D02*
X025752D01*
Y026314D01*
Y026707D02*
Y026445D01*
X02549Y026707D01*
X025424D01*
X025358Y026642D01*
Y02651D01*
X025424Y026445D01*
X050406Y027449D02*
X050799D01*
Y027711D01*
X050406Y028105D02*
Y027842D01*
X050799D01*
Y028105D01*
X050602Y027842D02*
Y027974D01*
X050406Y028236D02*
X050799D01*
Y028433D01*
X050734Y028498D01*
X050471D01*
X050406Y028433D01*
Y028236D01*
X050799Y028892D02*
Y02863D01*
X050537Y028892D01*
X050471D01*
X050406Y028826D01*
Y028695D01*
X050471Y02863D01*
X051744Y027449D02*
X052138D01*
Y027711D01*
X051744Y028105D02*
Y027842D01*
X052138D01*
Y028105D01*
X051941Y027842D02*
Y027974D01*
X051744Y028236D02*
X052138D01*
Y028433D01*
X052072Y028498D01*
X05181D01*
X051744Y028433D01*
Y028236D01*
X05181Y02863D02*
X051744Y028695D01*
Y028826D01*
X05181Y028892D01*
X051875D01*
X051941Y028826D01*
Y028761D01*
Y028826D01*
X052007Y028892D01*
X052072D01*
X052138Y028826D01*
Y028695D01*
X052072Y02863D01*
X027134Y029413D02*
X027528D01*
Y029676D01*
X027134Y030069D02*
Y029807D01*
X027528D01*
Y030069D01*
X027331Y029807D02*
Y029938D01*
X027134Y030201D02*
X027528D01*
Y030397D01*
X027462Y030463D01*
X0272D01*
X027134Y030397D01*
Y030201D01*
X027528Y030791D02*
X027134D01*
X027331Y030594D01*
Y030856D01*
X043567Y026626D02*
X043436D01*
X04337Y02656D01*
Y026298D01*
X043436Y026232D01*
X043567D01*
X043632Y026298D01*
Y02656D01*
X043567Y026626D01*
X043764Y026232D02*
Y026626D01*
X04396D01*
X044026Y02656D01*
Y026429D01*
X04396Y026363D01*
X043764D01*
X04442Y026232D02*
X044157D01*
X04442Y026495D01*
Y02656D01*
X044354Y026626D01*
X044223D01*
X044157Y02656D01*
X040717Y03428D02*
X040323D01*
Y034476D01*
X040389Y034542D01*
X04052D01*
X040585Y034476D01*
Y03428D01*
Y034411D02*
X040717Y034542D01*
X040389Y034673D02*
X040323Y034739D01*
Y03487D01*
X040389Y034935D01*
X040454D01*
X04052Y03487D01*
Y034804D01*
Y03487D01*
X040585Y034935D01*
X040651D01*
X040717Y03487D01*
Y034739D01*
X040651Y034673D01*
X038768Y03428D02*
X038374D01*
Y034476D01*
X03844Y034542D01*
X038571D01*
X038637Y034476D01*
Y03428D01*
Y034411D02*
X038768Y034542D01*
Y03487D02*
X038374D01*
X038571Y034673D01*
Y034935D01*
X039742Y03428D02*
X039349D01*
Y034476D01*
X039414Y034542D01*
X039545D01*
X039611Y034476D01*
Y03428D01*
Y034411D02*
X039742Y034542D01*
X039349Y034935D02*
X039414Y034804D01*
X039545Y034673D01*
X039677D01*
X039742Y034739D01*
Y03487D01*
X039677Y034935D01*
X039611D01*
X039545Y03487D01*
Y034673D01*
X041691Y03428D02*
X041297D01*
Y034476D01*
X041363Y034542D01*
X041494D01*
X04156Y034476D01*
Y03428D01*
Y034411D02*
X041691Y034542D01*
X041297Y034673D02*
Y034935D01*
X041363D01*
X041625Y034673D01*
X041691D01*
X042665Y03428D02*
X042272D01*
Y034476D01*
X042337Y034542D01*
X042469D01*
X042534Y034476D01*
Y03428D01*
Y034411D02*
X042665Y034542D01*
X042337Y034673D02*
X042272Y034739D01*
Y03487D01*
X042337Y034935D01*
X042403D01*
X042469Y03487D01*
X042534Y034935D01*
X0426D01*
X042665Y03487D01*
Y034739D01*
X0426Y034673D01*
X042534D01*
X042469Y034739D01*
X042403Y034673D01*
X042337D01*
X042469Y034739D02*
Y03487D01*
X02185Y0158D02*
Y016194D01*
X022047D01*
X022112Y016128D01*
Y015997D01*
X022047Y015931D01*
X02185D01*
X021981D02*
X022112Y0158D01*
X022244D02*
X022375D01*
X022309D01*
Y016194D01*
X022244Y016128D01*
X022834Y016194D02*
X022572D01*
Y015997D01*
X022703Y016062D01*
X022768D01*
X022834Y015997D01*
Y015866D01*
X022768Y0158D01*
X022637D01*
X022572Y015866D01*
X05709Y0158D02*
Y016194D01*
X057287D01*
X057352Y016128D01*
Y015997D01*
X057287Y015931D01*
X05709D01*
X057221D02*
X057352Y0158D01*
X057484D02*
X057615D01*
X057549D01*
Y016194D01*
X057484Y016128D01*
X057812D02*
X057877Y016194D01*
X058008D01*
X058074Y016128D01*
Y016062D01*
X058008Y015997D01*
X058074Y015931D01*
Y015866D01*
X058008Y0158D01*
X057877D01*
X057812Y015866D01*
Y015931D01*
X057877Y015997D01*
X057812Y016062D01*
Y016128D01*
X057877Y015997D02*
X058008D01*
X046046Y040041D02*
X04598Y040106D01*
X045849D01*
X045783Y040041D01*
Y039975D01*
X045849Y039909D01*
X04598D01*
X046046Y039844D01*
Y039778D01*
X04598Y039713D01*
X045849D01*
X045783Y039778D01*
X046177Y039713D02*
Y040106D01*
X046374D01*
X046439Y040041D01*
Y039909D01*
X046374Y039844D01*
X046177D01*
X046571Y039713D02*
X046702D01*
X046636D01*
Y040106D01*
X046571Y040041D01*
X028914Y022236D02*
X029241D01*
X029307Y022302D01*
Y022433D01*
X029241Y022499D01*
X028914D01*
X029307Y022892D02*
Y02263D01*
X029045Y022892D01*
X028979D01*
X028914Y022827D01*
Y022695D01*
X028979Y02263D01*
X035823Y041358D02*
X036217Y041621D01*
X035823D02*
X036217Y041358D01*
Y041752D02*
Y041883D01*
Y041817D01*
X035823D01*
X035889Y041752D01*
X043232Y012264D02*
X043626D01*
Y012461D01*
X04356Y012526D01*
X043298D01*
X043232Y012461D01*
Y012264D01*
X043626Y012854D02*
X043232D01*
X043429Y012657D01*
Y01292D01*
X040598Y044929D02*
Y044535D01*
X040861D01*
X041254Y044863D02*
X041189Y044929D01*
X041058D01*
X040992Y044863D01*
Y044601D01*
X041058Y044535D01*
X041189D01*
X041254Y044601D01*
X041386Y044929D02*
Y044535D01*
X041582D01*
X041648Y044601D01*
Y044863D01*
X041582Y044929D01*
X041386D01*
X041779Y044535D02*
X04191D01*
X041845D01*
Y044929D01*
X041779Y044863D01*
X04861Y013606D02*
X049004D01*
Y013803D01*
X048938Y013869D01*
X048676D01*
X04861Y013803D01*
Y013606D01*
X048676Y014D02*
X04861Y014065D01*
Y014197D01*
X048676Y014262D01*
X048742D01*
X048807Y014197D01*
Y014131D01*
Y014197D01*
X048873Y014262D01*
X048938D01*
X049004Y014197D01*
Y014065D01*
X048938Y014D01*
X054388Y016128D02*
X054323Y016194D01*
X054192D01*
X054126Y016128D01*
Y015866D01*
X054192Y0158D01*
X054323D01*
X054388Y015866D01*
X05452Y0158D02*
X054651D01*
X054585D01*
Y016194D01*
X05452Y016128D01*
X054848Y016194D02*
X05511D01*
Y016128D01*
X054848Y015866D01*
Y0158D01*
X038512Y026626D02*
X038381D01*
X038315Y02656D01*
Y026298D01*
X038381Y026232D01*
X038512D01*
X038577Y026298D01*
Y02656D01*
X038512Y026626D01*
X038709Y026232D02*
Y026626D01*
X038905D01*
X038971Y02656D01*
Y026429D01*
X038905Y026363D01*
X038709D01*
X039102Y026232D02*
X039233D01*
X039168D01*
Y026626D01*
X039102Y02656D01*
X048638Y026626D02*
X048507D01*
X048441Y02656D01*
Y026298D01*
X048507Y026232D01*
X048638D01*
X048703Y026298D01*
Y02656D01*
X048638Y026626D01*
X048835Y026232D02*
Y026626D01*
X049031D01*
X049097Y02656D01*
Y026429D01*
X049031Y026363D01*
X048835D01*
X049228Y02656D02*
X049294Y026626D01*
X049425D01*
X04949Y02656D01*
Y026495D01*
X049425Y026429D01*
X049359D01*
X049425D01*
X04949Y026363D01*
Y026298D01*
X049425Y026232D01*
X049294D01*
X049228Y026298D01*
X045591Y008059D02*
Y007665D01*
X045853D01*
X046181Y008059D02*
X04605D01*
X045984Y007993D01*
Y007731D01*
X04605Y007665D01*
X046181D01*
X046247Y007731D01*
Y007993D01*
X046181Y008059D01*
X046378D02*
Y007665D01*
X046509Y007797D01*
X04664Y007665D01*
Y008059D01*
X046306Y016163D02*
X04624Y016228D01*
X046109D01*
X046043Y016163D01*
Y0159D01*
X046109Y015835D01*
X04624D01*
X046306Y0159D01*
Y016031D01*
X046175D01*
X030262Y016005D02*
X030197Y016071D01*
X030066D01*
X03Y016005D01*
Y015743D01*
X030066Y015677D01*
X030197D01*
X030262Y015743D01*
Y015874D01*
X030131D01*
X041912Y042382D02*
X041847Y042447D01*
Y042579D01*
X041912Y042644D01*
X041978D01*
X042043Y042579D01*
Y042513D01*
Y042579D01*
X042109Y042644D01*
X042175D01*
X04224Y042579D01*
Y042447D01*
X042175Y042382D01*
X04224Y042775D02*
X042175D01*
Y042841D01*
X04224D01*
Y042775D01*
X041912Y043103D02*
X041847Y043169D01*
Y0433D01*
X041912Y043366D01*
X041978D01*
X042043Y0433D01*
Y043235D01*
Y0433D01*
X042109Y043366D01*
X042175D01*
X04224Y0433D01*
Y043169D01*
X042175Y043103D01*
X041847Y043497D02*
X042109D01*
X04224Y043628D01*
X042109Y043759D01*
X041847D01*
X042961Y042644D02*
X042895Y042579D01*
Y042447D01*
X042961Y042382D01*
X043223D01*
X043289Y042447D01*
Y042579D01*
X043223Y042644D01*
X043092D01*
Y042513D01*
X043289Y042775D02*
X042895D01*
X043289Y043038D01*
X042895D01*
Y043169D02*
X043289D01*
Y043366D01*
X043223Y043431D01*
X042961D01*
X042895Y043366D01*
Y043169D01*
X04401Y042644D02*
X043944Y042579D01*
Y042447D01*
X04401Y042382D01*
X044272D01*
X044338Y042447D01*
Y042579D01*
X044272Y042644D01*
X043944Y042775D02*
X044338D01*
Y043038D01*
X043944Y043169D02*
X044338D01*
X044206D01*
X043944Y043431D01*
X044141Y043235D01*
X044338Y043431D01*
X045386Y042382D02*
X044993D01*
Y042579D01*
X045058Y042644D01*
X04519D01*
X045255Y042579D01*
Y042382D01*
Y042513D02*
X045386Y042644D01*
X045058Y043038D02*
X044993Y042972D01*
Y042841D01*
X045058Y042775D01*
X045124D01*
X04519Y042841D01*
Y042972D01*
X045255Y043038D01*
X045321D01*
X045386Y042972D01*
Y042841D01*
X045321Y042775D01*
X044993Y043169D02*
Y043431D01*
Y0433D01*
X045386D01*
X046041Y042382D02*
X046435D01*
Y042579D01*
X046369Y042644D01*
X046107D01*
X046041Y042579D01*
Y042382D01*
Y042775D02*
Y042907D01*
Y042841D01*
X046435D01*
Y042775D01*
Y042907D01*
X046041Y0433D02*
Y043169D01*
X046107Y043103D01*
X046369D01*
X046435Y043169D01*
Y0433D01*
X046369Y043366D01*
X046107D01*
X046041Y0433D01*
X047156Y042382D02*
X04709Y042447D01*
Y042579D01*
X047156Y042644D01*
X047221D01*
X047287Y042579D01*
Y042513D01*
Y042579D01*
X047353Y042644D01*
X047418D01*
X047484Y042579D01*
Y042447D01*
X047418Y042382D01*
X047484Y042775D02*
X047418D01*
Y042841D01*
X047484D01*
Y042775D01*
X047156Y043103D02*
X04709Y043169D01*
Y0433D01*
X047156Y043366D01*
X047221D01*
X047287Y0433D01*
Y043235D01*
Y0433D01*
X047353Y043366D01*
X047418D01*
X047484Y0433D01*
Y043169D01*
X047418Y043103D01*
X04709Y043497D02*
X047353D01*
X047484Y043628D01*
X047353Y043759D01*
X04709D01*
X048204Y042644D02*
X048139Y042579D01*
Y042447D01*
X048204Y042382D01*
X048467D01*
X048532Y042447D01*
Y042579D01*
X048467Y042644D01*
X048336D01*
Y042513D01*
X048532Y042775D02*
X048139D01*
X048532Y043038D01*
X048139D01*
Y043169D02*
X048532D01*
Y043366D01*
X048467Y043431D01*
X048204D01*
X048139Y043366D01*
Y043169D01*
X049581Y042382D02*
X049188D01*
Y042579D01*
X049253Y042644D01*
X049384D01*
X04945Y042579D01*
Y042382D01*
Y042513D02*
X049581Y042644D01*
X049188Y042775D02*
X049581Y043038D01*
X049188D02*
X049581Y042775D01*
X050236Y042382D02*
Y042644D01*
Y042513D01*
X05063D01*
X050236Y042775D02*
X05063Y043038D01*
X050236D02*
X05063Y042775D01*
X056346Y037421D02*
Y037093D01*
X056412Y037028D01*
X056543D01*
X056609Y037093D01*
Y037421D01*
X05674Y037028D02*
Y037421D01*
X056937D01*
X057002Y037356D01*
Y037224D01*
X056937Y037159D01*
X05674D01*
X055953Y031012D02*
Y030618D01*
X05615D01*
X056215Y030684D01*
Y030946D01*
X05615Y031012D01*
X055953D01*
X056543D02*
X056412D01*
X056346Y030946D01*
Y030684D01*
X056412Y030618D01*
X056543D01*
X056609Y030684D01*
Y030946D01*
X056543Y031012D01*
X05674D02*
Y030618D01*
X056871Y030749D01*
X057002Y030618D01*
Y031012D01*
X057134Y030618D02*
Y031012D01*
X057396Y030618D01*
Y031012D01*
X056543Y024653D02*
X056412D01*
X056346Y024588D01*
Y024325D01*
X056412Y02426D01*
X056543D01*
X056609Y024325D01*
Y024588D01*
X056543Y024653D01*
X05674D02*
Y02426D01*
Y024391D01*
X057002Y024653D01*
X056806Y024457D01*
X057002Y02426D01*
X055822Y01856D02*
X055756Y018626D01*
X055625D01*
X055559Y01856D01*
Y018298D01*
X055625Y018232D01*
X055756D01*
X055822Y018298D01*
X055953Y018232D02*
Y018495D01*
X056084Y018626D01*
X056215Y018495D01*
Y018232D01*
Y018429D01*
X055953D01*
X056346Y018232D02*
Y018626D01*
X056609Y018232D01*
Y018626D01*
X057002Y01856D02*
X056937Y018626D01*
X056806D01*
X05674Y01856D01*
Y018298D01*
X056806Y018232D01*
X056937D01*
X057002Y018298D01*
X057396Y018626D02*
X057134D01*
Y018232D01*
X057396D01*
X057134Y018429D02*
X057265D01*
X057527Y018626D02*
Y018232D01*
X05779D01*
X038004Y028479D02*
Y02861D01*
Y028544D01*
X038398D01*
Y028479D01*
Y02861D01*
X038004Y028807D02*
Y028938D01*
Y028872D01*
X038398D01*
Y028807D01*
Y028938D01*
Y029135D02*
X038004D01*
X038398Y029397D01*
X038004D01*
X038929Y02802D02*
Y028151D01*
Y028085D01*
X039323D01*
Y02802D01*
Y028151D01*
X038929Y028544D02*
Y028413D01*
X038995Y028348D01*
X039257D01*
X039323Y028413D01*
Y028544D01*
X039257Y02861D01*
X038995D01*
X038929Y028544D01*
Y028741D02*
X039257D01*
X039323Y028807D01*
Y028938D01*
X039257Y029004D01*
X038929D01*
Y029135D02*
Y029397D01*
Y029266D01*
X039323D01*
X03989Y028413D02*
X040152D01*
X040283Y028544D01*
X040152Y028676D01*
X03989D01*
Y028807D02*
Y028938D01*
Y028872D01*
X040283D01*
Y028807D01*
Y028938D01*
Y029135D02*
X03989D01*
X040283Y029397D01*
X03989D01*
X040894Y027954D02*
X041156D01*
X041287Y028085D01*
X041156Y028216D01*
X040894D01*
Y028544D02*
Y028413D01*
X040959Y028348D01*
X041222D01*
X041287Y028413D01*
Y028544D01*
X041222Y02861D01*
X040959D01*
X040894Y028544D01*
Y028741D02*
X041222D01*
X041287Y028807D01*
Y028938D01*
X041222Y029004D01*
X040894D01*
Y029135D02*
Y029397D01*
Y029266D01*
X041287D01*
X041851Y027233D02*
Y027364D01*
Y027298D01*
X042244D01*
Y027233D01*
Y027364D01*
X041851Y027561D02*
X042244D01*
Y027757D01*
X042179Y027823D01*
X042113D01*
X042047Y027757D01*
Y027561D01*
Y027757D01*
X041982Y027823D01*
X041916D01*
X041851Y027757D01*
Y027561D01*
Y028151D02*
Y02802D01*
X041916Y027954D01*
X042179D01*
X042244Y02802D01*
Y028151D01*
X042179Y028216D01*
X041916D01*
X041851Y028151D01*
Y028544D02*
Y028413D01*
X041916Y028348D01*
X042179D01*
X042244Y028413D01*
Y028544D01*
X042179Y02861D01*
X041916D01*
X041851Y028544D01*
X041916Y029004D02*
X041851Y028938D01*
Y028807D01*
X041916Y028741D01*
X041982D01*
X042047Y028807D01*
Y028938D01*
X042113Y029004D01*
X042179D01*
X042244Y028938D01*
Y028807D01*
X042179Y028741D01*
X041851Y029135D02*
Y029397D01*
Y029266D01*
X042244D01*
D54*
X03187Y025815D02*
Y025933D01*
X032854Y025815D02*
Y025933D01*
X038051Y022652D02*
Y02462D01*
X039311Y022652D02*
Y02462D01*
X038051D02*
X039311D01*
X038051Y022652D02*
X039311D01*
X043093D02*
Y02462D01*
X044352Y022652D02*
Y02462D01*
X043093D02*
X044352D01*
X043093Y022652D02*
X044352D01*
X048157Y022652D02*
Y02462D01*
X049417Y022652D02*
Y02462D01*
X048157D02*
X049417D01*
X048157Y022652D02*
X049417D01*
X03939Y036209D02*
X042736D01*
X03939Y039555D02*
X042736D01*
Y036209D02*
Y039555D01*
X03939Y036209D02*
Y039555D01*
D55*
X03852Y04143D02*
Y04093D01*
X03862Y04083D01*
X03882D01*
X03892Y04093D01*
Y04143D01*
X03912Y04083D02*
X03932D01*
X03922D01*
Y04143D01*
X03912Y04133D01*
D56*
X046547Y041012D02*
X046613D01*
X04658D01*
Y041209D01*
X046547Y041176D01*
X04126Y041091D02*
X041325D01*
X041293D01*
Y041287D01*
X04126Y041255D01*
D57*
X047933Y00924D02*
D03*
X049311Y00924D02*
D03*
X05065Y00924D02*
D03*
X052028Y00924D02*
D03*
D58*
X060344Y009949D02*
D03*
Y011917D02*
D03*
X021545Y011917D02*
D03*
X021545Y009949D02*
D03*
D59*
X02211Y022547D02*
D03*
M02*
