G04 Layer_Physical_Order=2*
G04 Layer_Color=16711680*
%FSTAX24Y24*%
%MOIN*%
G70*
G01*
G75*
%ADD10C,0.0197*%
%ADD16R,0.0472X0.0354*%
%ADD20R,0.0472X0.1575*%
%ADD27C,0.0098*%
%ADD28C,0.0394*%
%ADD29C,0.0591*%
%ADD32C,0.0591*%
%ADD33C,0.0630*%
%ADD34C,0.1181*%
%ADD35C,0.0512*%
%ADD36C,0.1417*%
%ADD37C,0.0787*%
%ADD38C,0.1378*%
%ADD39C,0.1024*%
%ADD40C,0.0984*%
%ADD41C,0.0433*%
%ADD42C,0.0394*%
%ADD43C,0.0500*%
%ADD44C,0.0236*%
%ADD45R,0.0354X0.0472*%
G04:AMPARAMS|DCode=46|XSize=31.5mil|YSize=35.4mil|CornerRadius=1.6mil|HoleSize=0mil|Usage=FLASHONLY|Rotation=90.000|XOffset=0mil|YOffset=0mil|HoleType=Round|Shape=RoundedRectangle|*
%AMROUNDEDRECTD46*
21,1,0.0315,0.0323,0,0,90.0*
21,1,0.0283,0.0354,0,0,90.0*
1,1,0.0032,0.0161,0.0142*
1,1,0.0032,0.0161,-0.0142*
1,1,0.0032,-0.0161,-0.0142*
1,1,0.0032,-0.0161,0.0142*
%
%ADD46ROUNDEDRECTD46*%
%ADD47R,0.1378X0.0630*%
%ADD48R,0.0618X0.0612*%
%ADD49R,0.0612X0.0618*%
%ADD50C,0.0315*%
%ADD51C,0.0276*%
%ADD52C,0.0236*%
G36*
X045383Y016901D02*
X045389Y016888D01*
X045398Y016877D01*
X045412Y016866D01*
X04543Y016858D01*
X045452Y016851D01*
X045477Y016846D01*
X045507Y016842D01*
X04554Y016839D01*
X045578Y016839D01*
Y016642D01*
X04554Y016641D01*
X045477Y016635D01*
X045452Y016629D01*
X04543Y016622D01*
X045412Y016614D01*
X045398Y016604D01*
X045389Y016592D01*
X045383Y016579D01*
X045381Y016564D01*
Y016916D01*
X045383Y016901D01*
D02*
G37*
G36*
X044911Y016564D02*
X044909Y016579D01*
X044903Y016592D01*
X044893Y016604D01*
X044879Y016614D01*
X044861Y016622D01*
X04484Y016629D01*
X044814Y016635D01*
X044785Y016639D01*
X044751Y016641D01*
X044714Y016642D01*
Y016839D01*
X044751Y016839D01*
X044814Y016846D01*
X04484Y016851D01*
X044861Y016858D01*
X044879Y016866D01*
X044893Y016877D01*
X044903Y016888D01*
X044909Y016901D01*
X044911Y016916D01*
Y016564D01*
D02*
G37*
G36*
X028288Y016901D02*
X028294Y016888D01*
X028304Y016877D01*
X028318Y016867D01*
X028335Y016858D01*
X028357Y016851D01*
X028383Y016846D01*
X028412Y016842D01*
X028446Y016839D01*
X028483Y016839D01*
Y016642D01*
X028446Y016641D01*
X028383Y016635D01*
X028357Y016629D01*
X028335Y016622D01*
X028318Y016614D01*
X028304Y016604D01*
X028294Y016592D01*
X028288Y016579D01*
X028286Y016564D01*
Y016916D01*
X028288Y016901D01*
D02*
G37*
G36*
X045919Y016564D02*
X045917Y016579D01*
X045911Y016592D01*
X045901Y016604D01*
X045887Y016614D01*
X045869Y016622D01*
X045848Y016629D01*
X045822Y016635D01*
X045793Y016639D01*
X045759Y016641D01*
X045722Y016642D01*
Y016839D01*
X045759Y016839D01*
X045822Y016846D01*
X045848Y016851D01*
X045869Y016858D01*
X045887Y016866D01*
X045901Y016877D01*
X045911Y016888D01*
X045917Y016901D01*
X045919Y016916D01*
Y016564D01*
D02*
G37*
G36*
X030288Y016901D02*
X030294Y016888D01*
X030304Y016877D01*
X030318Y016866D01*
X030335Y016858D01*
X030357Y016851D01*
X030383Y016846D01*
X030412Y016842D01*
X030446Y016839D01*
X030483Y016839D01*
Y016642D01*
X030446Y016641D01*
X030383Y016635D01*
X030357Y016629D01*
X030335Y016622D01*
X030318Y016614D01*
X030304Y016604D01*
X030294Y016592D01*
X030288Y016579D01*
X030286Y016564D01*
Y016916D01*
X030288Y016901D01*
D02*
G37*
G36*
X042391Y016232D02*
X042396Y016219D01*
X042406Y016207D01*
X04242Y016197D01*
X042438Y016189D01*
X042459Y016182D01*
X042485Y016176D01*
X042515Y016172D01*
X042548Y01617D01*
X042585Y016169D01*
Y015972D01*
X042548Y015972D01*
X042485Y015965D01*
X042459Y01596D01*
X042438Y015953D01*
X04242Y015945D01*
X042406Y015934D01*
X042396Y015923D01*
X042391Y01591D01*
X042389Y015895D01*
Y016247D01*
X042391Y016232D01*
D02*
G37*
G36*
X026816Y015895D02*
X026814Y01591D01*
X026808Y015923D01*
X026798Y015934D01*
X026785Y015945D01*
X026767Y015953D01*
X026745Y01596D01*
X02672Y015965D01*
X02669Y015969D01*
X026657Y015972D01*
X026619Y015972D01*
Y016169D01*
X026657Y01617D01*
X02672Y016176D01*
X026745Y016182D01*
X026767Y016189D01*
X026785Y016197D01*
X026798Y016207D01*
X026808Y016219D01*
X026814Y016232D01*
X026816Y016247D01*
Y015895D01*
D02*
G37*
G36*
X029816Y016564D02*
X029814Y016579D01*
X029808Y016592D01*
X029798Y016604D01*
X029785Y016614D01*
X029767Y016622D01*
X029745Y016629D01*
X02972Y016635D01*
X02969Y016639D01*
X029657Y016641D01*
X029619Y016642D01*
Y016839D01*
X029657Y016839D01*
X02972Y016846D01*
X029745Y016851D01*
X029767Y016858D01*
X029785Y016867D01*
X029798Y016877D01*
X029808Y016888D01*
X029814Y016901D01*
X029816Y016916D01*
Y016564D01*
D02*
G37*
G36*
X044391Y016901D02*
X044396Y016888D01*
X044406Y016877D01*
X04442Y016866D01*
X044438Y016858D01*
X044459Y016851D01*
X044485Y016846D01*
X044515Y016842D01*
X044548Y016839D01*
X044585Y016839D01*
Y016642D01*
X044548Y016641D01*
X044485Y016635D01*
X044459Y016629D01*
X044438Y016622D01*
X04442Y016614D01*
X044406Y016604D01*
X044396Y016592D01*
X044391Y016579D01*
X044389Y016564D01*
Y016916D01*
X044391Y016901D01*
D02*
G37*
G36*
X028816Y016564D02*
X028814Y016579D01*
X028808Y016592D01*
X028798Y016604D01*
X028785Y016614D01*
X028767Y016622D01*
X028745Y016629D01*
X02872Y016635D01*
X02869Y016639D01*
X028657Y016641D01*
X028619Y016642D01*
Y016839D01*
X028657Y016839D01*
X02872Y016846D01*
X028745Y016851D01*
X028767Y016858D01*
X028785Y016867D01*
X028798Y016877D01*
X028808Y016888D01*
X028814Y016901D01*
X028816Y016916D01*
Y016564D01*
D02*
G37*
G36*
X037641Y025824D02*
X03769Y025791D01*
X037653Y025789D01*
X037641Y025787D01*
Y025714D01*
X037639Y025729D01*
X037633Y025742D01*
X037623Y025753D01*
X037609Y025763D01*
X037592Y025772D01*
X037588Y025773D01*
X037564Y02576D01*
X037542Y025742D01*
X037525Y02572D01*
X037511Y025695D01*
X037501Y025665D01*
X037495Y025632D01*
X037493Y025594D01*
X037296D01*
X037294Y025632D01*
X037288Y025665D01*
X037279Y025695D01*
X037265Y02572D01*
X037247Y025742D01*
X037225Y02576D01*
X037201Y025773D01*
X037198Y025772D01*
X03718Y025763D01*
X037166Y025753D01*
X037156Y025742D01*
X03715Y025729D01*
X037148Y025714D01*
Y025787D01*
X037137Y025789D01*
X037099Y025791D01*
X037148Y025824D01*
Y026066D01*
X03715Y026051D01*
X037156Y026038D01*
X037166Y026026D01*
X03718Y026016D01*
X037198Y026008D01*
X037219Y026001D01*
X037245Y025995D01*
X037274Y025991D01*
X037308Y025989D01*
X037345Y025988D01*
Y025955D01*
X037395Y025988D01*
X037444Y025955D01*
Y025988D01*
X037482Y025989D01*
X037545Y025995D01*
X03757Y026001D01*
X037592Y026008D01*
X037609Y026016D01*
X037623Y026026D01*
X037633Y026038D01*
X037639Y026051D01*
X037641Y026066D01*
Y025824D01*
D02*
G37*
G36*
X046891Y02514D02*
X046941Y025106D01*
X046904Y025104D01*
X046891Y025102D01*
Y025029D01*
X046889Y025043D01*
X046883Y025057D01*
X046873Y025068D01*
X046859Y025078D01*
X046842Y025087D01*
X046839Y025088D01*
X046815Y025075D01*
X046793Y025057D01*
X046776Y025035D01*
X046762Y02501D01*
X046752Y02498D01*
X046746Y024947D01*
X046744Y024909D01*
X046547D01*
X046545Y024947D01*
X046539Y02498D01*
X04653Y02501D01*
X046516Y025035D01*
X046498Y025057D01*
X046476Y025075D01*
X046451Y025089D01*
X046421Y025098D01*
X046415Y025099D01*
X046414Y025099D01*
X046389Y025094D01*
X046367Y025087D01*
X046349Y025078D01*
X046335Y025068D01*
X046326Y025057D01*
X04632Y025043D01*
X046318Y025029D01*
Y025381D01*
X04632Y025366D01*
X046326Y025353D01*
X046335Y025341D01*
X046349Y025331D01*
X046367Y025323D01*
X046389Y025316D01*
X046414Y02531D01*
X046444Y025306D01*
X046477Y025304D01*
X046515Y025303D01*
Y025216D01*
X046646Y025303D01*
X046694Y025271D01*
Y025303D01*
X046732Y025304D01*
X046795Y02531D01*
X04682Y025316D01*
X046842Y025323D01*
X046859Y025331D01*
X046873Y025341D01*
X046883Y025353D01*
X046889Y025366D01*
X046891Y025381D01*
Y02514D01*
D02*
G37*
G36*
X026329Y030618D02*
X026331Y030601D01*
X026333Y030586D01*
X026337Y030573D01*
X026341Y030562D01*
X026346Y030553D01*
X026353Y030546D01*
X02636Y030541D01*
X026369Y030538D01*
X026378Y030537D01*
X026181D01*
X02619Y030538D01*
X026199Y030541D01*
X026206Y030546D01*
X026213Y030553D01*
X026218Y030562D01*
X026222Y030573D01*
X026226Y030586D01*
X026228Y030601D01*
X02623Y030618D01*
X02623Y030637D01*
X026329D01*
X026329Y030618D01*
D02*
G37*
G36*
X022407Y035094D02*
X022401Y035086D01*
X022396Y035078D01*
X022392Y03507D01*
X022388Y035061D01*
X022385Y035051D01*
X022383Y035041D01*
X022381Y03503D01*
X02238Y035019D01*
X02238Y035007D01*
X022281D01*
X022281Y035019D01*
X02228Y03503D01*
X022278Y035041D01*
X022276Y035051D01*
X022273Y035061D01*
X022269Y03507D01*
X022265Y035078D01*
X02226Y035086D01*
X022254Y035094D01*
X022248Y035101D01*
X022413D01*
X022407Y035094D01*
D02*
G37*
G36*
X038054Y025044D02*
X038037Y025038D01*
X038023Y025028D01*
X03801Y025014D01*
X037999Y024996D01*
X03799Y024974D01*
X037983Y024949D01*
X037978Y024919D01*
X037975Y024885D01*
X037974Y024848D01*
X037778D01*
X037777Y024885D01*
X037774Y024919D01*
X037769Y024949D01*
X037762Y024974D01*
X037753Y024996D01*
X037742Y025014D01*
X037729Y025028D01*
X037715Y025038D01*
X037698Y025044D01*
X037679Y025046D01*
X038073D01*
X038054Y025044D01*
D02*
G37*
G36*
X043253Y017075D02*
X043256Y017042D01*
X043261Y017012D01*
X043268Y016986D01*
X043277Y016964D01*
X043287Y016947D01*
X0433Y016933D01*
X043315Y016923D01*
X043332Y016917D01*
X04335Y016915D01*
X042957D01*
X042975Y016917D01*
X042992Y016923D01*
X043007Y016933D01*
X04302Y016947D01*
X043031Y016964D01*
X043039Y016986D01*
X043046Y017012D01*
X043051Y017042D01*
X043054Y017075D01*
X043055Y017113D01*
X043252D01*
X043253Y017075D01*
D02*
G37*
G36*
X029288Y016901D02*
X029294Y016888D01*
X029304Y016877D01*
X029318Y016867D01*
X029335Y016858D01*
X029357Y016851D01*
X029383Y016846D01*
X029412Y016842D01*
X029446Y016839D01*
X029483Y016839D01*
Y016642D01*
X029446Y016641D01*
X029383Y016635D01*
X029357Y016629D01*
X029335Y016622D01*
X029318Y016614D01*
X029304Y016604D01*
X029294Y016592D01*
X029288Y016579D01*
X029286Y016564D01*
Y016916D01*
X029288Y016901D01*
D02*
G37*
G36*
X042245Y017075D02*
X042248Y017042D01*
X042253Y017012D01*
X04226Y016986D01*
X042269Y016964D01*
X04228Y016947D01*
X042292Y016933D01*
X042307Y016923D01*
X042324Y016917D01*
X042343Y016915D01*
X041949D01*
X041968Y016917D01*
X041984Y016923D01*
X041999Y016933D01*
X042012Y016947D01*
X042023Y016964D01*
X042031Y016986D01*
X042038Y017012D01*
X042043Y017042D01*
X042046Y017075D01*
X042047Y017113D01*
X042244D01*
X042245Y017075D01*
D02*
G37*
G36*
X045245D02*
X045248Y017042D01*
X045253Y017012D01*
X04526Y016986D01*
X045269Y016964D01*
X04528Y016947D01*
X045292Y016933D01*
X045307Y016923D01*
X045324Y016917D01*
X045343Y016915D01*
X044949D01*
X044968Y016917D01*
X044984Y016923D01*
X044999Y016933D01*
X045012Y016947D01*
X045023Y016964D01*
X045031Y016986D01*
X045038Y017012D01*
X045043Y017042D01*
X045046Y017075D01*
X045047Y017113D01*
X045244D01*
X045245Y017075D01*
D02*
G37*
G36*
X054547Y014122D02*
Y010697D01*
X054705Y010539D01*
X058957D01*
X059232Y010264D01*
Y009634D01*
X058799Y009201D01*
X054705D01*
X054547Y009043D01*
Y007587D01*
X053681Y00672D01*
X047579D01*
X047421Y006878D01*
Y008453D01*
X047815Y008846D01*
X052146D01*
X053327Y010028D01*
Y014201D01*
X053484Y014358D01*
X054311D01*
X054547Y014122D01*
D02*
G37*
G36*
X023269Y012502D02*
X023275Y012469D01*
X023284Y012436D01*
X023296Y012403D01*
X023312Y012369D01*
X023331Y012336D01*
X023355Y012302D01*
X023381Y012268D01*
X023411Y012233D01*
X023445Y012198D01*
X022894D01*
X022927Y012233D01*
X022984Y012302D01*
X023007Y012336D01*
X023027Y012369D01*
X023043Y012403D01*
X023055Y012436D01*
X023064Y012469D01*
X023069Y012502D01*
X023071Y012535D01*
X023268D01*
X023269Y012502D01*
D02*
G37*
G36*
X042697Y014949D02*
Y01302D01*
X0425Y012823D01*
X041673D01*
X041516Y01298D01*
Y013965D01*
X041516D01*
X041319Y014161D01*
X038563D01*
X038366Y014358D01*
Y014949D01*
X038563Y015146D01*
X0425D01*
X042697Y014949D01*
D02*
G37*
G36*
X044665D02*
X044705Y014909D01*
X044705Y014319D01*
X045846Y013177D01*
X052264D01*
X0525Y012941D01*
Y011406D01*
X052264Y011169D01*
X045768Y011169D01*
X042815Y008217D01*
X04187Y007272D01*
X0375D01*
X037106Y007665D01*
Y00861D01*
X037618Y009122D01*
X041122D01*
X043681Y011681D01*
Y014949D01*
X043878Y015146D01*
X044468D01*
X044665Y014949D01*
D02*
G37*
G36*
X060374Y015303D02*
Y011799D01*
X059783Y011209D01*
X058091D01*
X057579Y01172D01*
Y012626D01*
X058248Y013295D01*
X05872D01*
X059035Y01361D01*
Y015382D01*
X059232Y015579D01*
X060098D01*
X060374Y015303D01*
D02*
G37*
G36*
X059125Y045507D02*
X059089Y045496D01*
X058935Y045413D01*
X0588Y045303D01*
X058689Y045168D01*
X058607Y045014D01*
X058556Y044847D01*
X058539Y044673D01*
X058556Y0445D01*
X058607Y044333D01*
X058689Y044179D01*
X0588Y044044D01*
X058935Y043933D01*
X059089Y043851D01*
X059255Y0438D01*
X059429Y043783D01*
X059603Y0438D01*
X05977Y043851D01*
X059924Y043933D01*
X060059Y044044D01*
X060169Y044179D01*
X060251Y044333D01*
X060262Y044369D01*
X060312Y044361D01*
Y015714D01*
X060266Y015695D01*
X06024Y015721D01*
X060175Y015764D01*
X060098Y015779D01*
X059232D01*
X059155Y015764D01*
X05909Y015721D01*
X058894Y015524D01*
X05885Y015459D01*
X058835Y015382D01*
Y013693D01*
X058637Y013496D01*
X058248D01*
X058171Y013481D01*
X058106Y013437D01*
X057437Y012768D01*
X057393Y012703D01*
X057378Y012626D01*
Y01172D01*
X057393Y011644D01*
X057437Y011579D01*
X057949Y011067D01*
X058014Y011023D01*
X058091Y011008D01*
X059783D01*
X05986Y011023D01*
X059925Y011067D01*
X060266Y011408D01*
X060312Y011388D01*
Y007977D01*
X060262Y00797D01*
X060251Y008006D01*
X060169Y00816D01*
X060059Y008295D01*
X059924Y008405D01*
X05977Y008488D01*
X059603Y008538D01*
X059429Y008555D01*
X059255Y008538D01*
X059089Y008488D01*
X058935Y008405D01*
X0588Y008295D01*
X058689Y00816D01*
X058607Y008006D01*
X058556Y007839D01*
X058539Y007665D01*
X058556Y007492D01*
X058607Y007325D01*
X058689Y007171D01*
X0588Y007036D01*
X058935Y006925D01*
X059089Y006843D01*
X059125Y006832D01*
X059117Y006782D01*
X054092D01*
X054073Y006828D01*
X054689Y007445D01*
X054733Y00751D01*
X054748Y007587D01*
Y00896D01*
X054788Y009D01*
X058799D01*
X058876Y009015D01*
X058941Y009059D01*
X059374Y009492D01*
X059418Y009557D01*
X059433Y009634D01*
Y010264D01*
X059418Y010341D01*
X059374Y010406D01*
X059099Y010681D01*
X059033Y010725D01*
X058957Y01074D01*
X054788D01*
X054748Y01078D01*
Y014122D01*
X054733Y014199D01*
X054689Y014264D01*
X054453Y0145D01*
X054388Y014544D01*
X054311Y014559D01*
X054078D01*
Y01487D01*
X054067Y014952D01*
X054035Y015029D01*
X053984Y015095D01*
X053433Y015646D01*
X053368Y015696D01*
X053291Y015728D01*
X053209Y015739D01*
X045579D01*
Y016441D01*
X045582Y016441D01*
X045587Y016442D01*
X045712D01*
X045718Y016441D01*
X04572Y016441D01*
Y016366D01*
X045905D01*
X045919Y016363D01*
X045932Y016366D01*
X045945Y016365D01*
X045948Y016366D01*
X046587D01*
Y017114D01*
X045948D01*
X045945Y017115D01*
X045932Y017114D01*
X045919Y017117D01*
X045905Y017114D01*
X04572D01*
Y017039D01*
X045718Y017039D01*
X045712Y017038D01*
X045587D01*
X045582Y017039D01*
X045579Y017039D01*
Y017114D01*
X045445D01*
X045445Y017118D01*
X045443Y017124D01*
Y022121D01*
X045445D01*
X045429Y022324D01*
X045381Y022523D01*
X045303Y022711D01*
X045197Y022885D01*
X04508Y023022D01*
X045073Y023038D01*
X045092Y023088D01*
X047611D01*
X047632Y023079D01*
X047715Y023068D01*
X047797Y023079D01*
X047873Y023111D01*
X047939Y023161D01*
X04799Y023227D01*
X048021Y023304D01*
X048032Y023386D01*
X048021Y023468D01*
X04799Y023545D01*
X047955Y023589D01*
X047957Y023653D01*
X048007Y023719D01*
X048039Y023796D01*
X04805Y023878D01*
X048039Y02396D01*
X048007Y024037D01*
X047957Y024103D01*
X047891Y024153D01*
X047814Y024185D01*
X047732Y024196D01*
X04765Y024185D01*
X047628Y024176D01*
X046974D01*
X046943Y024206D01*
Y024831D01*
X047559D01*
Y025579D01*
X04692D01*
X046918Y02558D01*
X046904Y025579D01*
X046891Y025581D01*
X046878Y025579D01*
X046693D01*
Y025504D01*
X04669Y025504D01*
X046684Y025503D01*
X046524D01*
X046519Y025504D01*
X046516Y025504D01*
Y026248D01*
X04565D01*
Y0255D01*
Y024831D01*
X046289D01*
X046291Y02483D01*
X046298Y02483D01*
X046321Y024823D01*
X046348Y024786D01*
Y024083D01*
X046358Y024006D01*
X046388Y023934D01*
X046435Y023872D01*
X046577Y02373D01*
X046558Y023684D01*
X04315D01*
Y023685D01*
X04311Y023684D01*
X043101Y023682D01*
X043078Y023679D01*
X042947Y023669D01*
X042749Y023622D01*
X042561Y023543D01*
X042387Y023437D01*
X042264Y023332D01*
X042232Y023305D01*
X042232Y023305D01*
X042227Y0233D01*
X042227Y0233D01*
X042095Y023145D01*
X042065Y023096D01*
X042034Y023103D01*
X042015Y023111D01*
X041984Y023186D01*
X041933Y023252D01*
X041867Y023303D01*
X041791Y023334D01*
X041709Y023345D01*
X041626Y023334D01*
X04155Y023303D01*
X041484Y023252D01*
X041434Y023186D01*
X041402Y02311D01*
X041391Y023028D01*
X041402Y022945D01*
X041407Y022933D01*
Y01774D01*
X041407Y017736D01*
X041394Y017603D01*
X041354Y017471D01*
X041289Y01735D01*
X041202Y017243D01*
X041095Y017156D01*
X040974Y017091D01*
X040842Y017051D01*
X040709Y017037D01*
X040705Y017038D01*
X034993D01*
X034983Y017087D01*
X03501Y017098D01*
X035184Y017205D01*
X035339Y017337D01*
X035338Y017338D01*
X035485Y017485D01*
X035521Y017519D01*
X035521Y017519D01*
X035654Y017674D01*
X03576Y017848D01*
X035838Y018036D01*
X035886Y018235D01*
X035902Y018438D01*
X0359D01*
Y020647D01*
X035932Y020657D01*
X03595Y02066D01*
X036014Y020611D01*
X036091Y020579D01*
X036173Y020568D01*
X036255Y020579D01*
X036277Y020588D01*
X040912D01*
X040934Y020579D01*
X041016Y020568D01*
X041098Y020579D01*
X041175Y020611D01*
X04124Y020661D01*
X041291Y020727D01*
X041323Y020804D01*
X041333Y020886D01*
X041323Y020968D01*
X041291Y021045D01*
X04124Y02111D01*
X041175Y021161D01*
X041098Y021193D01*
X041016Y021203D01*
X040934Y021193D01*
X040912Y021184D01*
X036277D01*
X036255Y021193D01*
X036173Y021203D01*
X036091Y021193D01*
X036014Y021161D01*
X03595Y021112D01*
X035932Y021114D01*
X0359Y021125D01*
Y022583D01*
X035899Y022589D01*
X035915Y022708D01*
X035963Y022824D01*
X036036Y022919D01*
X036041Y022923D01*
X036047Y022931D01*
X036157Y023015D01*
X036293Y023071D01*
X03643Y023089D01*
X036439Y023088D01*
X037504D01*
X037526Y023079D01*
X037608Y023068D01*
X03769Y023079D01*
X037767Y023111D01*
X037833Y023161D01*
X037854Y023189D01*
X037921Y023194D01*
X037931Y023183D01*
X037931Y023183D01*
X037993Y023136D01*
X038065Y023106D01*
X038142Y023096D01*
X039642D01*
X039664Y023087D01*
X039746Y023076D01*
X039828Y023087D01*
X039905Y023119D01*
X039971Y023169D01*
X040021Y023235D01*
X040053Y023311D01*
X040064Y023394D01*
X040053Y023476D01*
X040021Y023553D01*
X039971Y023618D01*
Y023655D01*
X039979Y023661D01*
X040029Y023727D01*
X040061Y023804D01*
X040072Y023886D01*
X040061Y023968D01*
X040029Y024045D01*
X039979Y02411D01*
X039913Y024161D01*
X039836Y024193D01*
X039754Y024204D01*
X039672Y024193D01*
X03965Y024184D01*
X03884D01*
X038223Y0248D01*
X038242Y024846D01*
X038309D01*
Y025516D01*
Y026264D01*
X03767D01*
X037668Y026265D01*
X037654Y026264D01*
X037641Y026266D01*
X037628Y026264D01*
X037443D01*
Y026189D01*
X03744Y026189D01*
X037434Y026188D01*
X037355D01*
X037349Y026189D01*
X037346Y026189D01*
Y026264D01*
X037162D01*
X037148Y026266D01*
X037135Y026264D01*
X037122Y026265D01*
X037119Y026264D01*
X03648D01*
Y025516D01*
X037097D01*
Y024141D01*
X037107Y024064D01*
X037137Y023992D01*
X037184Y02393D01*
X037384Y02373D01*
X037365Y023684D01*
X036487D01*
X036439Y023685D01*
X036409Y023712D01*
Y024181D01*
Y024929D01*
X035543D01*
Y024181D01*
Y023512D01*
X035733D01*
X035756Y023467D01*
X035756Y023462D01*
X035619Y023345D01*
X03562Y023345D01*
X03551Y023216D01*
X035421Y023072D01*
X035357Y022916D01*
X035317Y022751D01*
X035304Y022583D01*
X035305D01*
Y018438D01*
X035305Y018434D01*
X035292Y018301D01*
X035252Y018169D01*
X035187Y018047D01*
X03513Y017978D01*
X035099Y017941D01*
X035064Y017907D01*
X034917Y017759D01*
X034914Y017756D01*
X034811Y017671D01*
X03469Y017606D01*
X034558Y017566D01*
X034424Y017553D01*
X03442Y017554D01*
X023743D01*
Y017556D01*
X023566Y017538D01*
X023397Y017487D01*
X02324Y017403D01*
X023103Y017291D01*
X023103Y01729D01*
X023004Y01717D01*
X022931Y017032D01*
X022885Y016882D01*
X02287Y016727D01*
X022871D01*
Y01255D01*
X02287Y012546D01*
X022869Y012524D01*
X022867Y012511D01*
X022864Y012497D01*
X022857Y012481D01*
X022849Y012463D01*
X022837Y012442D01*
X022823Y012422D01*
X022778Y012367D01*
X02275Y012338D01*
X022746Y012332D01*
X022676Y012247D01*
X022621Y012144D01*
X022587Y012033D01*
X022576Y011917D01*
X022587Y011802D01*
X022621Y01169D01*
X022676Y011588D01*
X02275Y011498D01*
X02284Y011424D01*
X022942Y011369D01*
X023054Y011335D01*
X023169Y011324D01*
X023285Y011335D01*
X023396Y011369D01*
X023499Y011424D01*
X023589Y011498D01*
X023663Y011588D01*
X023718Y01169D01*
X023751Y011802D01*
X023763Y011917D01*
X023751Y012033D01*
X023718Y012144D01*
X023663Y012247D01*
X023593Y012332D01*
X023589Y012338D01*
X023559Y012369D01*
X023536Y012395D01*
X023517Y01242D01*
X023502Y012442D01*
X02349Y012463D01*
X023481Y012481D01*
X023475Y012497D01*
X023471Y012511D01*
X023469Y012524D01*
X023468Y012546D01*
X023467Y01255D01*
Y016727D01*
X023467Y016731D01*
X023481Y016804D01*
X023522Y016866D01*
X023526Y016868D01*
X023526Y016869D01*
X023589Y016917D01*
X023663Y016948D01*
X023742Y016958D01*
X023743Y016958D01*
X025618D01*
Y016366D01*
Y015697D01*
X026257D01*
X02626Y015696D01*
X026273Y015697D01*
X026286Y015694D01*
X0263Y015697D01*
X026484D01*
Y015772D01*
X026487Y015772D01*
X026493Y015773D01*
X026609D01*
X026615Y015772D01*
X026618Y015772D01*
Y015697D01*
X026803D01*
X026816Y015694D01*
X026829Y015697D01*
X026843Y015696D01*
X026845Y015697D01*
X027484D01*
Y016366D01*
Y016958D01*
X027618D01*
Y016366D01*
Y015697D01*
X027752D01*
X027752Y015693D01*
X027753Y015687D01*
Y015272D01*
X027752Y015268D01*
X027751Y015246D01*
X027749Y015234D01*
X027745Y01522D01*
X027739Y015204D01*
X027731Y015185D01*
X027719Y015165D01*
X027705Y015145D01*
X02766Y01509D01*
X027632Y015061D01*
X027628Y015055D01*
X027558Y014969D01*
X027503Y014867D01*
X027469Y014756D01*
X027458Y01464D01*
X027469Y014524D01*
X027503Y014413D01*
X027558Y01431D01*
X027632Y01422D01*
X027722Y014146D01*
X027824Y014092D01*
X027935Y014058D01*
X028051Y014046D01*
X028167Y014058D01*
X028278Y014092D01*
X028381Y014146D01*
X028471Y01422D01*
X028545Y01431D01*
X028599Y014413D01*
X028633Y014524D01*
X028645Y01464D01*
X028633Y014756D01*
X028599Y014867D01*
X028545Y014969D01*
X028475Y015055D01*
X028471Y015061D01*
X028441Y015092D01*
X028418Y015118D01*
X028399Y015142D01*
X028384Y015165D01*
X028372Y015185D01*
X028363Y015204D01*
X028357Y01522D01*
X028353Y015234D01*
X028351Y015246D01*
X02835Y015268D01*
X028349Y015272D01*
Y015687D01*
X02835Y015693D01*
X02835Y015697D01*
X028484D01*
Y016441D01*
X028487Y016441D01*
X028493Y016442D01*
X028609D01*
X028615Y016441D01*
X028618Y016441D01*
Y016366D01*
X028803D01*
X028816Y016363D01*
X028829Y016366D01*
X028843Y016365D01*
X028845Y016366D01*
X029257D01*
X02926Y016365D01*
X029273Y016366D01*
X029286Y016363D01*
X0293Y016366D01*
X029484D01*
Y016441D01*
X029487Y016441D01*
X029493Y016442D01*
X029609D01*
X029615Y016441D01*
X029618Y016441D01*
Y016366D01*
X029803D01*
X029816Y016363D01*
X029829Y016366D01*
X029843Y016365D01*
X029845Y016366D01*
X030257D01*
X03026Y016365D01*
X030273Y016366D01*
X030286Y016363D01*
X0303Y016366D01*
X030484D01*
Y016441D01*
X030487Y016441D01*
X030493Y016442D01*
X040705D01*
Y016441D01*
X040908Y016457D01*
X041106Y016504D01*
X041295Y016582D01*
X041468Y016689D01*
X041623Y016821D01*
X041674Y01688D01*
X04172Y016863D01*
Y016366D01*
Y015697D01*
X042359D01*
X042362Y015696D01*
X042375Y015697D01*
X042389Y015694D01*
X042402Y015697D01*
X042587D01*
Y015772D01*
X04259Y015772D01*
X042595Y015773D01*
X042712D01*
X042718Y015772D01*
X04272Y015772D01*
Y015697D01*
X042854D01*
X042854Y015693D01*
X042856Y015687D01*
Y015144D01*
X042806Y015124D01*
X042642Y015288D01*
X042577Y015331D01*
X0425Y015346D01*
X038563D01*
X038486Y015331D01*
X038421Y015288D01*
X038224Y015091D01*
X038181Y015026D01*
X038165Y014949D01*
Y014358D01*
X038181Y014281D01*
X038224Y014216D01*
X038421Y014019D01*
X038486Y013976D01*
X038563Y013961D01*
X041236D01*
X041315Y013881D01*
Y01298D01*
X04133Y012904D01*
X041374Y012838D01*
X041531Y012681D01*
X041596Y012637D01*
X041673Y012622D01*
X0425D01*
X042577Y012637D01*
X042642Y012681D01*
X042806Y012845D01*
X042856Y012824D01*
Y012301D01*
X042721Y012166D01*
X042218D01*
X042196Y012175D01*
X042114Y012186D01*
X042032Y012175D01*
X041955Y012143D01*
X04189Y012093D01*
X041839Y012027D01*
X041807Y01195D01*
X041796Y011868D01*
X041807Y011786D01*
X041839Y011709D01*
X04189Y011643D01*
X041955Y011593D01*
X042032Y011561D01*
X042114Y01155D01*
X042196Y011561D01*
X042218Y01157D01*
X042844D01*
X042922Y01158D01*
X042993Y01161D01*
X043055Y011658D01*
X043364Y011967D01*
X043364Y011967D01*
X043411Y012028D01*
X04343Y012074D01*
X04348Y012064D01*
Y011764D01*
X041039Y009323D01*
X037618D01*
X037541Y009307D01*
X037476Y009264D01*
X036964Y008752D01*
X036921Y008687D01*
X036906Y00861D01*
Y007665D01*
X036921Y007589D01*
X036964Y007523D01*
X037358Y00713D01*
X037423Y007086D01*
X0375Y007071D01*
X04187D01*
X041947Y007086D01*
X042012Y00713D01*
X042957Y008075D01*
X042957Y008075D01*
X045851Y010969D01*
X052264Y010969D01*
X052341Y010984D01*
X052406Y011027D01*
X052642Y011264D01*
X052685Y011329D01*
X052701Y011406D01*
Y012941D01*
X052685Y013018D01*
X052642Y013083D01*
X052406Y013319D01*
X052341Y013363D01*
X052264Y013378D01*
X04593D01*
X044905Y014402D01*
X044905Y014909D01*
X04489Y014986D01*
X044847Y015051D01*
X044807Y015091D01*
X04461Y015288D01*
X044545Y015331D01*
X044468Y015346D01*
X043878D01*
X043801Y015331D01*
X043736Y015288D01*
X043539Y015091D01*
X043501Y015034D01*
X043462Y015039D01*
X043451Y015042D01*
Y015687D01*
X043453Y015693D01*
X043453Y015697D01*
X043587D01*
Y016366D01*
Y017114D01*
X043453D01*
X043453Y017118D01*
X043451Y017124D01*
Y020717D01*
X043441Y020794D01*
X043411Y020865D01*
X043364Y020927D01*
X043268Y021023D01*
X043259Y021045D01*
X043209Y02111D01*
X043143Y021161D01*
X043066Y021193D01*
X042984Y021203D01*
X042902Y021193D01*
X042825Y021161D01*
X04276Y02111D01*
X042709Y021045D01*
X042677Y020968D01*
X042667Y020886D01*
X042677Y020804D01*
X042709Y020727D01*
X04276Y020661D01*
X042825Y020611D01*
X042847Y020602D01*
X042856Y020593D01*
Y017124D01*
X042854Y017118D01*
X042854Y017114D01*
X04272D01*
Y01637D01*
X042718Y01637D01*
X042712Y016369D01*
X042595D01*
X04259Y01637D01*
X042587Y01637D01*
Y017114D01*
X042445D01*
X042445Y017118D01*
X042443Y017124D01*
Y022381D01*
X042443Y022385D01*
X042456Y022518D01*
X042496Y02265D01*
X042561Y022772D01*
X042646Y022875D01*
X042649Y022878D01*
X042654Y022882D01*
X042691Y022914D01*
X04276Y02297D01*
X042881Y023035D01*
X043013Y023075D01*
X043102Y023084D01*
X04315Y023088D01*
X04315Y023088D01*
X043199Y023088D01*
X044498D01*
X044517Y023038D01*
X044488Y022968D01*
X044478Y022886D01*
X044488Y022804D01*
X04452Y022727D01*
X044571Y022661D01*
X044636Y022611D01*
X044656Y022603D01*
X04473Y022512D01*
X044795Y02239D01*
X044835Y022258D01*
X044848Y022125D01*
X044848Y022121D01*
Y017124D01*
X044847Y017118D01*
X044847Y017114D01*
X044713D01*
Y017039D01*
X04471Y017039D01*
X044704Y017038D01*
X044595D01*
X04459Y017039D01*
X044587Y017039D01*
Y017114D01*
X044402D01*
X044389Y017117D01*
X044375Y017114D01*
X044362Y017115D01*
X044359Y017114D01*
X04372D01*
Y016366D01*
X044359D01*
X044362Y016365D01*
X044375Y016366D01*
X044389Y016363D01*
X044402Y016366D01*
X044587D01*
Y016441D01*
X04459Y016441D01*
X044595Y016442D01*
X044704D01*
X04471Y016441D01*
X044713Y016441D01*
Y015697D01*
X044827D01*
X044827Y015684D01*
X044831Y015666D01*
X044839Y015607D01*
X044871Y01553D01*
X044921Y015464D01*
X045189Y015197D01*
X045255Y015146D01*
X045331Y015114D01*
X045413Y015104D01*
X045718D01*
X045719Y0151D01*
X045729Y015054D01*
X04566Y014969D01*
X045605Y014867D01*
X045572Y014756D01*
X04556Y01464D01*
X045572Y014524D01*
X045605Y014413D01*
X04566Y01431D01*
X045734Y01422D01*
X045824Y014146D01*
X045926Y014092D01*
X046038Y014058D01*
X046154Y014046D01*
X046269Y014058D01*
X046381Y014092D01*
X046483Y014146D01*
X046573Y01422D01*
X046647Y01431D01*
X046702Y014413D01*
X046736Y014524D01*
X046747Y01464D01*
X046736Y014756D01*
X046702Y014867D01*
X046647Y014969D01*
X046578Y015054D01*
X046588Y0151D01*
X046589Y015104D01*
X053077D01*
X053442Y014738D01*
Y014551D01*
X053407Y014544D01*
X053342Y0145D01*
X053185Y014343D01*
X053141Y014278D01*
X053126Y014201D01*
Y010111D01*
X052063Y009047D01*
X047815D01*
X047738Y009032D01*
X047673Y008988D01*
X047279Y008595D01*
X047236Y00853D01*
X047221Y008453D01*
Y006878D01*
X04723Y006832D01*
X047193Y006782D01*
X022733D01*
X022726Y006832D01*
X022762Y006843D01*
X022916Y006925D01*
X023051Y007036D01*
X023161Y007171D01*
X023244Y007325D01*
X023294Y007492D01*
X023311Y007665D01*
X023294Y007839D01*
X023244Y008006D01*
X023161Y00816D01*
X023051Y008295D01*
X022916Y008405D01*
X022762Y008488D01*
X022595Y008538D01*
X022421Y008555D01*
X022248Y008538D01*
X022081Y008488D01*
X021927Y008405D01*
X021792Y008295D01*
X021681Y00816D01*
X021599Y008006D01*
X021588Y00797D01*
X021538Y007977D01*
Y009551D01*
X021588Y009575D01*
X021661Y009519D01*
X021781Y009469D01*
X021909Y009452D01*
X022845D01*
X022942Y009401D01*
X023054Y009367D01*
X023169Y009355D01*
X023285Y009367D01*
X023396Y009401D01*
X023499Y009455D01*
X023589Y009529D01*
X023663Y009619D01*
X023718Y009722D01*
X023751Y009833D01*
X023763Y009949D01*
X023751Y010065D01*
X023718Y010176D01*
X023663Y010279D01*
X023589Y010368D01*
X023499Y010442D01*
X023396Y010497D01*
X023285Y010531D01*
X023169Y010542D01*
X023054Y010531D01*
X022942Y010497D01*
X022845Y010445D01*
X022406D01*
Y017537D01*
X022432Y01754D01*
X022551Y01759D01*
X022654Y017669D01*
X022733Y017772D01*
X022783Y017891D01*
X0228Y01802D01*
X022783Y018148D01*
X022733Y018268D01*
X022654Y018371D01*
X022551Y01845D01*
X022432Y018499D01*
X022406Y018503D01*
Y020712D01*
X028051D01*
X02818Y020729D01*
X028299Y020779D01*
X028402Y020858D01*
X028481Y02096D01*
X028531Y02108D01*
X028548Y021209D01*
X028531Y021337D01*
X028481Y021457D01*
X028402Y02156D01*
X028299Y021639D01*
X02818Y021688D01*
X028051Y021705D01*
X021909D01*
X021781Y021688D01*
X021661Y021639D01*
X021588Y021582D01*
X021538Y021607D01*
Y032156D01*
X021588Y032164D01*
X021599Y032128D01*
X021681Y031974D01*
X021792Y031839D01*
X021927Y031728D01*
X022081Y031646D01*
X022248Y031595D01*
X022421Y031578D01*
X022595Y031595D01*
X022762Y031646D01*
X022916Y031728D01*
X023051Y031839D01*
X023161Y031974D01*
X023244Y032128D01*
X023294Y032295D01*
X023311Y032469D01*
X023294Y032642D01*
X023244Y032809D01*
X023161Y032963D01*
X023051Y033098D01*
X022916Y033209D01*
X022762Y033291D01*
X022595Y033342D01*
X022562Y033345D01*
X022564Y033395D01*
X026029D01*
Y030736D01*
X025846D01*
Y029988D01*
Y029319D01*
X026713D01*
Y029988D01*
Y030736D01*
X02653D01*
Y033646D01*
X026511Y033742D01*
X026457Y033823D01*
X026376Y033877D01*
X02628Y033897D01*
X022582D01*
Y034995D01*
X022606Y035026D01*
X022638Y035103D01*
X022648Y035185D01*
X022638Y035267D01*
X022606Y035344D01*
X022555Y03541D01*
X02249Y03546D01*
X022413Y035492D01*
X022331Y035503D01*
X022248Y035492D01*
X022172Y03546D01*
X022106Y03541D01*
X022056Y035344D01*
X022024Y035267D01*
X022013Y035185D01*
X022024Y035103D01*
X022056Y035026D01*
X02208Y034995D01*
Y033646D01*
X022099Y03355D01*
X022153Y033468D01*
X022235Y033414D01*
X022313Y033398D01*
X022311Y033348D01*
X022248Y033342D01*
X022081Y033291D01*
X021927Y033209D01*
X021792Y033098D01*
X021681Y032963D01*
X021599Y032809D01*
X021588Y032773D01*
X021538Y032781D01*
Y044361D01*
X021588Y044369D01*
X021599Y044333D01*
X021681Y044179D01*
X021792Y044044D01*
X021927Y043933D01*
X022081Y043851D01*
X022248Y0438D01*
X022421Y043783D01*
X022595Y0438D01*
X022762Y043851D01*
X022916Y043933D01*
X023051Y044044D01*
X023161Y044179D01*
X023244Y044333D01*
X023294Y0445D01*
X023311Y044673D01*
X023294Y044847D01*
X023244Y045014D01*
X023161Y045168D01*
X023051Y045303D01*
X022916Y045413D01*
X022762Y045496D01*
X022726Y045507D01*
X022733Y045557D01*
X051637D01*
X051644Y045507D01*
X051608Y045496D01*
X051454Y045413D01*
X051319Y045303D01*
X051209Y045168D01*
X051126Y045014D01*
X051076Y044847D01*
X051059Y044673D01*
X051076Y0445D01*
X051126Y044333D01*
X051209Y044179D01*
X051319Y044044D01*
X051454Y043933D01*
X051608Y043851D01*
X051775Y0438D01*
X051949Y043783D01*
X052122Y0438D01*
X052289Y043851D01*
X052443Y043933D01*
X052578Y044044D01*
X052689Y044179D01*
X052771Y044333D01*
X052822Y0445D01*
X052839Y044673D01*
X052822Y044847D01*
X052771Y045014D01*
X052689Y045168D01*
X052578Y045303D01*
X052443Y045413D01*
X052289Y045496D01*
X052253Y045507D01*
X052261Y045557D01*
X059117D01*
X059125Y045507D01*
D02*
G37*
G36*
X028151Y015225D02*
X028157Y015192D01*
X028166Y015159D01*
X028178Y015125D01*
X028194Y015092D01*
X028213Y015058D01*
X028236Y015024D01*
X028263Y01499D01*
X028293Y014956D01*
X028327Y014921D01*
X027776D01*
X027809Y014956D01*
X027866Y015024D01*
X027889Y015058D01*
X027908Y015092D01*
X027924Y015125D01*
X027937Y015159D01*
X027946Y015192D01*
X027951Y015225D01*
X027953Y015257D01*
X02815D01*
X028151Y015225D01*
D02*
G37*
G36*
X042919Y015895D02*
X042917Y01591D01*
X042911Y015923D01*
X042901Y015934D01*
X042887Y015945D01*
X042869Y015953D01*
X042848Y01596D01*
X042822Y015965D01*
X042793Y015969D01*
X042759Y015972D01*
X042722Y015972D01*
Y016169D01*
X042759Y01617D01*
X042822Y016176D01*
X042848Y016182D01*
X042869Y016189D01*
X042887Y016197D01*
X042901Y016207D01*
X042911Y016219D01*
X042917Y016232D01*
X042919Y016247D01*
Y015895D01*
D02*
G37*
G36*
X026288Y016232D02*
X026294Y016219D01*
X026304Y016207D01*
X026318Y016197D01*
X026335Y016189D01*
X026357Y016182D01*
X026383Y016176D01*
X026412Y016172D01*
X026446Y01617D01*
X026483Y016169D01*
Y015972D01*
X026446Y015972D01*
X026383Y015965D01*
X026357Y01596D01*
X026335Y015953D01*
X026318Y015945D01*
X026304Y015934D01*
X026294Y015923D01*
X026288Y01591D01*
X026286Y015895D01*
Y016247D01*
X026288Y016232D01*
D02*
G37*
G36*
X028229Y015894D02*
X028213Y015888D01*
X028198Y015878D01*
X028185Y015864D01*
X028174Y015847D01*
X028165Y015825D01*
X028158Y015799D01*
X028154Y015769D01*
X028151Y015736D01*
X02815Y015698D01*
X027953D01*
X027952Y015736D01*
X027949Y015769D01*
X027944Y015799D01*
X027937Y015825D01*
X027928Y015847D01*
X027917Y015864D01*
X027905Y015878D01*
X02789Y015888D01*
X027873Y015894D01*
X027854Y015896D01*
X028248D01*
X028229Y015894D01*
D02*
G37*
G36*
X043332D02*
X043315Y015888D01*
X0433Y015878D01*
X043287Y015864D01*
X043277Y015847D01*
X043268Y015825D01*
X043261Y015799D01*
X043256Y015769D01*
X043253Y015736D01*
X043252Y015698D01*
X043055D01*
X043054Y015736D01*
X043051Y015769D01*
X043046Y015799D01*
X043039Y015825D01*
X043031Y015847D01*
X04302Y015864D01*
X043007Y015878D01*
X042992Y015888D01*
X042975Y015894D01*
X042957Y015896D01*
X04335D01*
X043332Y015894D01*
D02*
G37*
G36*
X045335Y015894D02*
X04532Y015888D01*
X045307Y015877D01*
X045295Y015863D01*
X045286Y015844D01*
X045278Y015822D01*
X045272Y015795D01*
X045267Y015764D01*
X045265Y015728D01*
X045264Y015689D01*
X045028D01*
X045027Y015728D01*
X045024Y015764D01*
X04502Y015795D01*
X045014Y015822D01*
X045006Y015844D01*
X044996Y015863D01*
X044985Y015877D01*
X044971Y015888D01*
X044956Y015894D01*
X04494Y015896D01*
X045352D01*
X045335Y015894D01*
D02*
G37*
%LPC*%
G36*
X056673Y030109D02*
X056557Y030098D01*
X056446Y030064D01*
X056344Y030009D01*
X056254Y029935D01*
X05618Y029845D01*
X056125Y029743D01*
X056091Y029632D01*
X05608Y029516D01*
X056091Y0294D01*
X056125Y029289D01*
X05618Y029186D01*
X056254Y029096D01*
X056344Y029022D01*
X056446Y028968D01*
X056557Y028934D01*
X056673Y028922D01*
X056789Y028934D01*
X0569Y028968D01*
X057003Y029022D01*
X057093Y029096D01*
X057167Y029186D01*
X057221Y029289D01*
X057255Y0294D01*
X057267Y029516D01*
X057255Y029632D01*
X057221Y029743D01*
X057167Y029845D01*
X057093Y029935D01*
X057003Y030009D01*
X0569Y030064D01*
X056789Y030098D01*
X056673Y030109D01*
D02*
G37*
G36*
X049311Y031255D02*
X049229Y031244D01*
X049152Y031212D01*
X049086Y031162D01*
X049036Y031096D01*
X049004Y031019D01*
X048993Y030937D01*
X049004Y030855D01*
X049036Y030778D01*
X049045Y030767D01*
X04902Y030717D01*
X048878D01*
Y029969D01*
Y029299D01*
X049744D01*
Y029969D01*
Y030717D01*
X049602D01*
X049577Y030767D01*
X049586Y030778D01*
X049618Y030855D01*
X049629Y030937D01*
X049618Y031019D01*
X049586Y031096D01*
X049536Y031162D01*
X04947Y031212D01*
X049393Y031244D01*
X049311Y031255D01*
D02*
G37*
G36*
X028051Y008766D02*
X027874Y008749D01*
X027703Y008697D01*
X027546Y008613D01*
X027408Y0085D01*
X027295Y008362D01*
X027211Y008205D01*
X027159Y008034D01*
X027141Y007856D01*
X027159Y007679D01*
X027211Y007508D01*
X027295Y007351D01*
X027408Y007213D01*
X027546Y0071D01*
X027703Y007016D01*
X027874Y006964D01*
X028051Y006946D01*
X028229Y006964D01*
X028399Y007016D01*
X028557Y0071D01*
X028695Y007213D01*
X028808Y007351D01*
X028892Y007508D01*
X028944Y007679D01*
X028961Y007856D01*
X028944Y008034D01*
X028892Y008205D01*
X028808Y008362D01*
X028695Y0085D01*
X028557Y008613D01*
X028399Y008697D01*
X028229Y008749D01*
X028051Y008766D01*
D02*
G37*
G36*
X044154D02*
X043976Y008749D01*
X043805Y008697D01*
X043648Y008613D01*
X04351Y0085D01*
X043397Y008362D01*
X043313Y008205D01*
X043261Y008034D01*
X043244Y007856D01*
X043261Y007679D01*
X043313Y007508D01*
X043397Y007351D01*
X04351Y007213D01*
X043648Y0071D01*
X043805Y007016D01*
X043976Y006964D01*
X044154Y006946D01*
X044331Y006964D01*
X044502Y007016D01*
X044659Y0071D01*
X044797Y007213D01*
X04491Y007351D01*
X044994Y007508D01*
X045046Y007679D01*
X045063Y007856D01*
X045046Y008034D01*
X044994Y008205D01*
X04491Y008362D01*
X044797Y0085D01*
X044659Y008613D01*
X044502Y008697D01*
X044331Y008749D01*
X044154Y008766D01*
D02*
G37*
G36*
X032461Y028949D02*
X032332Y028932D01*
X032212Y028883D01*
X03211Y028804D01*
X032031Y028701D01*
X031981Y028581D01*
X031964Y028453D01*
X031971Y0284D01*
X031965Y028354D01*
Y028D01*
X031965Y027997D01*
X031965Y027995D01*
Y026575D01*
X031927Y026483D01*
X031911Y026366D01*
X031927Y026249D01*
X031972Y026141D01*
X032044Y026047D01*
X032137Y025976D01*
X032246Y025931D01*
X032362Y025915D01*
X032479Y025931D01*
X032588Y025976D01*
X032681Y026047D01*
X032753Y026141D01*
X032798Y026249D01*
X032813Y026366D01*
X032798Y026483D01*
X032759Y026575D01*
Y027993D01*
X03276Y027996D01*
X03276Y028026D01*
X032761Y028063D01*
X032812Y028102D01*
X032891Y028205D01*
X03294Y028324D01*
X032957Y028453D01*
X03294Y028581D01*
X032891Y028701D01*
X032812Y028804D01*
X032709Y028883D01*
X032589Y028932D01*
X032461Y028949D01*
D02*
G37*
G36*
X056908Y027786D02*
X056895Y027784D01*
X056882Y027784D01*
X056879Y027783D01*
X056467D01*
X056465Y027784D01*
X056451Y027784D01*
X056438Y027786D01*
X056425Y027783D01*
X05624D01*
Y027709D01*
X056237Y027709D01*
X056231Y027707D01*
X054213D01*
X054136Y027697D01*
X054064Y027667D01*
X054002Y02762D01*
X053955Y027558D01*
X053925Y027487D01*
X053918Y027435D01*
X053914Y027415D01*
X053913Y027391D01*
X053912Y02738D01*
X053828Y027335D01*
X053723Y027249D01*
X053637Y027144D01*
X053573Y027025D01*
X053534Y026895D01*
X05352Y02676D01*
X053534Y026625D01*
X053573Y026495D01*
X053637Y026375D01*
X053723Y02627D01*
X053828Y026184D01*
X053948Y02612D01*
X054078Y026081D01*
X054213Y026068D01*
X054348Y026081D01*
X054478Y02612D01*
X054597Y026184D01*
X054702Y02627D01*
X054788Y026375D01*
X054852Y026495D01*
X054892Y026625D01*
X054905Y02676D01*
X054892Y026895D01*
X054852Y027025D01*
X054829Y027069D01*
X054854Y027112D01*
X056231D01*
X056237Y02711D01*
X05624Y02711D01*
Y027035D01*
X056425D01*
X056438Y027033D01*
X056451Y027035D01*
X056465Y027035D01*
X056467Y027035D01*
X056879D01*
X056882Y027035D01*
X056895Y027035D01*
X056908Y027033D01*
X056922Y027035D01*
X057106D01*
Y02711D01*
X057109Y02711D01*
X057115Y027112D01*
X058492D01*
X058518Y027069D01*
X058494Y027025D01*
X058455Y026895D01*
X058442Y02676D01*
X058455Y026625D01*
X058494Y026495D01*
X058558Y026375D01*
X058644Y02627D01*
X058749Y026184D01*
X058869Y02612D01*
X058999Y026081D01*
X059134Y026068D01*
X059269Y026081D01*
X059399Y02612D01*
X059518Y026184D01*
X059623Y02627D01*
X059709Y026375D01*
X059773Y026495D01*
X059813Y026625D01*
X059826Y02676D01*
X059813Y026895D01*
X059773Y027025D01*
X059709Y027144D01*
X059623Y027249D01*
X059518Y027335D01*
X059435Y02738D01*
X059434Y027391D01*
X059433Y027415D01*
X059428Y027435D01*
X059422Y027487D01*
X059392Y027558D01*
X059344Y02762D01*
X059283Y027667D01*
X059211Y027697D01*
X059134Y027707D01*
X057115D01*
X057109Y027709D01*
X057106Y027709D01*
Y027783D01*
X056922D01*
X056908Y027786D01*
D02*
G37*
G36*
X05063Y031255D02*
X050548Y031244D01*
X050471Y031212D01*
X050405Y031162D01*
X050355Y031096D01*
X050323Y031019D01*
X050312Y030937D01*
X050323Y030855D01*
X050355Y030778D01*
X050364Y030767D01*
X050339Y030717D01*
X050197D01*
Y029969D01*
Y029299D01*
X051063D01*
Y029969D01*
Y030717D01*
X050921D01*
X050896Y030767D01*
X050905Y030778D01*
X050937Y030855D01*
X050948Y030937D01*
X050937Y031019D01*
X050905Y031096D01*
X050854Y031162D01*
X050789Y031212D01*
X050712Y031244D01*
X05063Y031255D01*
D02*
G37*
G36*
X042067Y030523D02*
X041964Y03051D01*
X041868Y03047D01*
X041786Y030407D01*
X041723Y030325D01*
X041683Y030229D01*
X04167Y030126D01*
X041683Y030023D01*
X041723Y029927D01*
X041786Y029845D01*
X041868Y029782D01*
X041964Y029742D01*
X042067Y029729D01*
X04217Y029742D01*
X042265Y029782D01*
X042348Y029845D01*
X042411Y029927D01*
X04245Y030023D01*
X042464Y030126D01*
X04245Y030229D01*
X042411Y030325D01*
X042348Y030407D01*
X042265Y03047D01*
X04217Y03051D01*
X042067Y030523D01*
D02*
G37*
G36*
X04108D02*
X040977Y03051D01*
X040881Y03047D01*
X040799Y030407D01*
X040736Y030325D01*
X040696Y030229D01*
X040683Y030126D01*
X040696Y030023D01*
X040736Y029927D01*
X040799Y029845D01*
X040881Y029782D01*
X040977Y029742D01*
X04108Y029729D01*
X041182Y029742D01*
X041278Y029782D01*
X041361Y029845D01*
X041424Y029927D01*
X041463Y030023D01*
X041477Y030126D01*
X041463Y030229D01*
X041424Y030325D01*
X041361Y030407D01*
X041278Y03047D01*
X041182Y03051D01*
X04108Y030523D01*
D02*
G37*
G36*
X051949Y033359D02*
X051775Y033342D01*
X051608Y033291D01*
X051454Y033209D01*
X051319Y033098D01*
X051209Y032963D01*
X051126Y032809D01*
X051076Y032642D01*
X051059Y032469D01*
X051076Y032295D01*
X051126Y032128D01*
X051209Y031974D01*
X051319Y031839D01*
X051454Y031728D01*
X051608Y031646D01*
X051775Y031595D01*
X051949Y031578D01*
X052122Y031595D01*
X052289Y031646D01*
X052443Y031728D01*
X052578Y031839D01*
X052689Y031974D01*
X052771Y032128D01*
X052822Y032295D01*
X052839Y032469D01*
X052822Y032642D01*
X052771Y032809D01*
X052689Y032963D01*
X052578Y033098D01*
X052443Y033209D01*
X052289Y033291D01*
X052122Y033342D01*
X051949Y033359D01*
D02*
G37*
G36*
X056673Y032865D02*
X056557Y032854D01*
X056446Y03282D01*
X056344Y032765D01*
X056254Y032691D01*
X05618Y032601D01*
X056125Y032499D01*
X056091Y032387D01*
X05608Y032272D01*
X056091Y032156D01*
X056125Y032045D01*
X05618Y031942D01*
X056254Y031852D01*
X056344Y031778D01*
X056446Y031723D01*
X056557Y03169D01*
X056673Y031678D01*
X056789Y03169D01*
X0569Y031723D01*
X057003Y031778D01*
X057093Y031852D01*
X057167Y031942D01*
X057221Y032045D01*
X057255Y032156D01*
X057267Y032272D01*
X057255Y032387D01*
X057221Y032499D01*
X057167Y032601D01*
X057093Y032691D01*
X057003Y032765D01*
X0569Y03282D01*
X056789Y032854D01*
X056673Y032865D01*
D02*
G37*
G36*
X038118Y030523D02*
X038015Y03051D01*
X03792Y03047D01*
X037837Y030407D01*
X037774Y030325D01*
X037735Y030229D01*
X037721Y030126D01*
X037735Y030023D01*
X037774Y029927D01*
X037837Y029845D01*
X03792Y029782D01*
X038015Y029742D01*
X038118Y029729D01*
X038221Y029742D01*
X038317Y029782D01*
X038399Y029845D01*
X038462Y029927D01*
X038502Y030023D01*
X038515Y030126D01*
X038502Y030229D01*
X038462Y030325D01*
X038399Y030407D01*
X038317Y03047D01*
X038221Y03051D01*
X038118Y030523D01*
D02*
G37*
G36*
X051949Y031255D02*
X051867Y031244D01*
X05179Y031212D01*
X051724Y031162D01*
X051674Y031096D01*
X051642Y031019D01*
X051631Y030937D01*
X051642Y030855D01*
X051674Y030778D01*
X051683Y030767D01*
X051658Y030717D01*
X051516D01*
Y029969D01*
Y029299D01*
X052382D01*
Y029969D01*
Y030717D01*
X05224D01*
X052215Y030767D01*
X052224Y030778D01*
X052256Y030855D01*
X052266Y030937D01*
X052256Y031019D01*
X052224Y031096D01*
X052173Y031162D01*
X052108Y031212D01*
X052031Y031244D01*
X051949Y031255D01*
D02*
G37*
G36*
X040093Y030523D02*
X03999Y03051D01*
X039894Y03047D01*
X039812Y030407D01*
X039749Y030325D01*
X039709Y030229D01*
X039695Y030126D01*
X039709Y030023D01*
X039749Y029927D01*
X039812Y029845D01*
X039894Y029782D01*
X03999Y029742D01*
X040093Y029729D01*
X040195Y029742D01*
X040291Y029782D01*
X040373Y029845D01*
X040436Y029927D01*
X040476Y030023D01*
X04049Y030126D01*
X040476Y030229D01*
X040436Y030325D01*
X040373Y030407D01*
X040291Y03047D01*
X040195Y03051D01*
X040093Y030523D01*
D02*
G37*
G36*
X039105D02*
X039003Y03051D01*
X038907Y03047D01*
X038825Y030407D01*
X038761Y030325D01*
X038722Y030229D01*
X038708Y030126D01*
X038722Y030023D01*
X038761Y029927D01*
X038825Y029845D01*
X038907Y029782D01*
X039003Y029742D01*
X039105Y029729D01*
X039208Y029742D01*
X039304Y029782D01*
X039386Y029845D01*
X039449Y029927D01*
X039489Y030023D01*
X039502Y030126D01*
X039489Y030229D01*
X039449Y030325D01*
X039386Y030407D01*
X039304Y03047D01*
X039208Y03051D01*
X039105Y030523D01*
D02*
G37*
G36*
X056673Y020267D02*
X056557Y020255D01*
X056446Y020221D01*
X056344Y020167D01*
X056254Y020093D01*
X05618Y020003D01*
X056125Y0199D01*
X056091Y019789D01*
X05608Y019673D01*
X056091Y019557D01*
X056125Y019446D01*
X05618Y019344D01*
X056254Y019254D01*
X056344Y01918D01*
X056446Y019125D01*
X056557Y019091D01*
X056673Y01908D01*
X056789Y019091D01*
X0569Y019125D01*
X057003Y01918D01*
X057093Y019254D01*
X057167Y019344D01*
X057221Y019446D01*
X057255Y019557D01*
X057267Y019673D01*
X057255Y019789D01*
X057221Y0199D01*
X057167Y020003D01*
X057093Y020093D01*
X057003Y020167D01*
X0569Y020221D01*
X056789Y020255D01*
X056673Y020267D01*
D02*
G37*
G36*
X034431Y013969D02*
X033419D01*
Y013907D01*
X033378Y013845D01*
X033362Y013768D01*
Y011996D01*
X033378Y011919D01*
X033419Y011857D01*
Y011853D01*
X033422D01*
X033486Y011811D01*
X033563Y011795D01*
X034311D01*
X034388Y011811D01*
X034453Y011854D01*
X034496Y011919D01*
X034512Y011996D01*
Y013768D01*
X034496Y013845D01*
X034453Y01391D01*
X034431Y013924D01*
Y013969D01*
D02*
G37*
G36*
X033925Y022342D02*
X033807Y022327D01*
X033697Y022281D01*
X033602Y022209D01*
X03353Y022114D01*
X033484Y022004D01*
X033469Y021886D01*
X033484Y021768D01*
X03353Y021657D01*
X033602Y021563D01*
X033697Y02149D01*
X033807Y021445D01*
X033925Y021429D01*
X034043Y021445D01*
X034153Y02149D01*
X034248Y021563D01*
X034321Y021657D01*
X034366Y021768D01*
X034382Y021886D01*
X034366Y022004D01*
X034321Y022114D01*
X034248Y022209D01*
X034153Y022281D01*
X034043Y022327D01*
X033925Y022342D01*
D02*
G37*
G36*
Y021342D02*
X033807Y021327D01*
X033697Y021281D01*
X033602Y021209D01*
X03353Y021114D01*
X033484Y021004D01*
X033469Y020886D01*
X033484Y020768D01*
X03353Y020657D01*
X033602Y020563D01*
X033697Y02049D01*
X033807Y020445D01*
X033925Y020429D01*
X034043Y020445D01*
X034153Y02049D01*
X034248Y020563D01*
X034321Y020657D01*
X034366Y020768D01*
X034382Y020886D01*
X034366Y021004D01*
X034321Y021114D01*
X034248Y021209D01*
X034153Y021281D01*
X034043Y021327D01*
X033925Y021342D01*
D02*
G37*
G36*
X030051Y015233D02*
X029935Y015222D01*
X029824Y015188D01*
X029722Y015133D01*
X029632Y015059D01*
X029558Y014969D01*
X029503Y014867D01*
X029469Y014756D01*
X029458Y01464D01*
X029469Y014524D01*
X029503Y014413D01*
X029558Y01431D01*
X029632Y01422D01*
X029722Y014146D01*
X029824Y014092D01*
X029935Y014058D01*
X030051Y014046D01*
X030167Y014058D01*
X030278Y014092D01*
X030381Y014146D01*
X030471Y01422D01*
X030545Y01431D01*
X030599Y014413D01*
X030633Y014524D01*
X030645Y01464D01*
X030633Y014756D01*
X030599Y014867D01*
X030545Y014969D01*
X030471Y015059D01*
X030381Y015133D01*
X030278Y015188D01*
X030167Y015222D01*
X030051Y015233D01*
D02*
G37*
G36*
X026614Y015484D02*
X025437D01*
X025427Y015482D01*
X025417Y015483D01*
X025389Y015475D01*
X02536Y015469D01*
X025352Y015463D01*
X025342Y01546D01*
X02532Y015442D01*
X025295Y015425D01*
X025289Y015417D01*
X025282Y015411D01*
X025268Y015385D01*
X025252Y01536D01*
X02525Y01535D01*
X025245Y015342D01*
X02508Y014794D01*
X025077Y014765D01*
X025071Y014736D01*
Y009835D01*
X025086Y009758D01*
X02513Y009693D01*
X02574Y009082D01*
X025805Y009039D01*
X025882Y009024D01*
X028484D01*
X030598Y006909D01*
X030663Y006866D01*
X03074Y00685D01*
X034823D01*
X0349Y006866D01*
X034965Y006909D01*
X037654Y009598D01*
X037697Y009663D01*
X037713Y00974D01*
Y010996D01*
X037697Y011073D01*
X037654Y011138D01*
X037453Y011339D01*
X037388Y011382D01*
X037311Y011398D01*
X029764D01*
X02711Y012992D01*
Y014988D01*
X027095Y015065D01*
X027051Y01513D01*
X026756Y015425D01*
X026691Y015469D01*
X026614Y015484D01*
D02*
G37*
G36*
X035825Y013969D02*
X034813D01*
Y013907D01*
X034771Y013845D01*
X034756Y013768D01*
Y011996D01*
X034771Y011919D01*
X034813Y011857D01*
Y011853D01*
X034816D01*
X03488Y011811D01*
X034957Y011795D01*
X035705D01*
X035782Y011811D01*
X035847Y011854D01*
X03589Y011919D01*
X035905Y011996D01*
Y013768D01*
X03589Y013845D01*
X035847Y01391D01*
X035825Y013924D01*
Y013969D01*
D02*
G37*
G36*
X037218D02*
X036207D01*
Y013907D01*
X036165Y013845D01*
X03615Y013768D01*
Y011996D01*
X036165Y011919D01*
X036207Y011857D01*
Y011853D01*
X03621D01*
X036274Y011811D01*
X03635Y011795D01*
X037098D01*
X037175Y011811D01*
X03724Y011854D01*
X037284Y011919D01*
X037299Y011996D01*
Y013768D01*
X037284Y013845D01*
X03724Y01391D01*
X037218Y013924D01*
Y013969D01*
D02*
G37*
G36*
X039272Y025579D02*
X038406D01*
Y024831D01*
X039272D01*
Y025579D01*
D02*
G37*
G36*
X033925Y024342D02*
X033807Y024327D01*
X033697Y024281D01*
X033602Y024209D01*
X03353Y024114D01*
X033484Y024004D01*
X033469Y023886D01*
X033484Y023768D01*
X03353Y023657D01*
X033602Y023563D01*
X033697Y02349D01*
X033807Y023445D01*
X033925Y023429D01*
X034043Y023445D01*
X034153Y02349D01*
X034248Y023563D01*
X034321Y023657D01*
X034366Y023768D01*
X034382Y023886D01*
X034366Y024004D01*
X034321Y024114D01*
X034248Y024209D01*
X034153Y024281D01*
X034043Y024327D01*
X033925Y024342D01*
D02*
G37*
G36*
X024342Y026911D02*
X023336D01*
Y0259D01*
X024342D01*
Y026911D01*
D02*
G37*
G36*
X056673Y026566D02*
X056557Y026554D01*
X056446Y026521D01*
X056344Y026466D01*
X056254Y026392D01*
X05618Y026302D01*
X056125Y0262D01*
X056091Y026088D01*
X05608Y025972D01*
X056091Y025857D01*
X056125Y025745D01*
X05618Y025643D01*
X056254Y025553D01*
X056344Y025479D01*
X056446Y025424D01*
X056557Y02539D01*
X056673Y025379D01*
X056789Y02539D01*
X0569Y025424D01*
X057003Y025479D01*
X057093Y025553D01*
X057167Y025643D01*
X057221Y025745D01*
X057255Y025857D01*
X057267Y025972D01*
X057255Y026088D01*
X057221Y0262D01*
X057167Y026302D01*
X057093Y026392D01*
X057003Y026466D01*
X0569Y026521D01*
X056789Y026554D01*
X056673Y026566D01*
D02*
G37*
G36*
X033925Y023342D02*
X033807Y023327D01*
X033697Y023281D01*
X033608Y023213D01*
X033605Y023211D01*
X033603Y023209D01*
X033602Y023209D01*
X033602Y023209D01*
X033595Y023202D01*
X033591Y023198D01*
X033587Y023196D01*
X033583Y023194D01*
X033578Y023192D01*
X033572Y02319D01*
X033566Y023188D01*
X033557Y023186D01*
X033547Y023185D01*
X033529Y023185D01*
X033524Y023184D01*
X033098D01*
X033021Y023173D01*
X03295Y023144D01*
X032888Y023096D01*
X032034Y022242D01*
X031986Y02218D01*
X031956Y022109D01*
X031946Y022031D01*
Y019186D01*
X031207Y018447D01*
X027465D01*
X027452Y018453D01*
X02737Y018463D01*
X027288Y018453D01*
X027211Y018421D01*
X027145Y01837D01*
X027095Y018305D01*
X027063Y018228D01*
X027052Y018146D01*
X027063Y018063D01*
X027095Y017987D01*
X027145Y017921D01*
X027211Y017871D01*
X027288Y017839D01*
X02737Y017828D01*
X027452Y017839D01*
X027484Y017852D01*
X031331D01*
X031408Y017862D01*
X03148Y017892D01*
X031541Y017939D01*
X032455Y018852D01*
X032455Y018852D01*
X032502Y018914D01*
X032532Y018986D01*
X032542Y019063D01*
Y021908D01*
X033222Y022588D01*
X033524D01*
X033529Y022587D01*
X033547Y022586D01*
X033557Y022585D01*
X033566Y022584D01*
X033572Y022582D01*
X033578Y02258D01*
X033583Y022578D01*
X033587Y022576D01*
X033591Y022573D01*
X033595Y02257D01*
X033602Y022563D01*
X033602Y022563D01*
X033603Y022563D01*
X033605Y02256D01*
X033608Y022559D01*
X033697Y02249D01*
X033807Y022445D01*
X033925Y022429D01*
X034043Y022445D01*
X034153Y02249D01*
X034248Y022563D01*
X034321Y022657D01*
X034366Y022768D01*
X034382Y022886D01*
X034366Y023004D01*
X034321Y023114D01*
X034248Y023209D01*
X034153Y023281D01*
X034043Y023327D01*
X033925Y023342D01*
D02*
G37*
G36*
X056908Y021448D02*
X056895Y021445D01*
X056882Y021446D01*
X056879Y021445D01*
X056467D01*
X056465Y021446D01*
X056451Y021445D01*
X056438Y021448D01*
X056425Y021445D01*
X05624D01*
Y02137D01*
X056237Y02137D01*
X056231Y021369D01*
X054213D01*
X054136Y021359D01*
X054064Y021329D01*
X054002Y021281D01*
X053955Y02122D01*
X053925Y021148D01*
X053918Y021098D01*
X053915Y021083D01*
X053828Y021036D01*
X053723Y02095D01*
X053637Y020845D01*
X053573Y020726D01*
X053534Y020596D01*
X05352Y020461D01*
X053534Y020326D01*
X053573Y020196D01*
X053637Y020076D01*
X053723Y019971D01*
X053828Y019885D01*
X053948Y019821D01*
X054078Y019782D01*
X054213Y019768D01*
X054348Y019782D01*
X054478Y019821D01*
X054597Y019885D01*
X054702Y019971D01*
X054788Y020076D01*
X054852Y020196D01*
X054892Y020326D01*
X054905Y020461D01*
X054892Y020596D01*
X054853Y020723D01*
X054851Y020732D01*
X054875Y020773D01*
X056231D01*
X056237Y020772D01*
X05624Y020772D01*
Y020697D01*
X056425D01*
X056438Y020694D01*
X056451Y020697D01*
X056465Y020696D01*
X056467Y020697D01*
X056879D01*
X056882Y020696D01*
X056895Y020697D01*
X056908Y020694D01*
X056922Y020697D01*
X057106D01*
Y020772D01*
X057109Y020772D01*
X057115Y020773D01*
X058471D01*
X058496Y020732D01*
X058493Y020723D01*
X058455Y020596D01*
X058442Y020461D01*
X058455Y020326D01*
X058494Y020196D01*
X058558Y020076D01*
X058644Y019971D01*
X058749Y019885D01*
X058869Y019821D01*
X058999Y019782D01*
X059134Y019768D01*
X059269Y019782D01*
X059399Y019821D01*
X059518Y019885D01*
X059623Y019971D01*
X059709Y020076D01*
X059773Y020196D01*
X059813Y020326D01*
X059826Y020461D01*
X059813Y020596D01*
X059773Y020726D01*
X059709Y020845D01*
X059623Y02095D01*
X059518Y021036D01*
X059431Y021083D01*
X059429Y021094D01*
X059422Y021148D01*
X059392Y02122D01*
X059344Y021281D01*
X059283Y021329D01*
X059211Y021359D01*
X059134Y021369D01*
X057115D01*
X057109Y02137D01*
X057106Y02137D01*
Y021445D01*
X056922D01*
X056908Y021448D01*
D02*
G37*
G36*
X02602Y027705D02*
X024602D01*
Y02705D01*
X0246Y027037D01*
X0246Y027034D01*
X0246Y027031D01*
X024602Y02702D01*
Y026839D01*
X024602D01*
X024623Y02681D01*
X024602Y02678D01*
X024602D01*
Y026599D01*
X0246Y026587D01*
X0246Y026584D01*
X0246Y026581D01*
X024602Y026568D01*
Y025913D01*
X025331D01*
X025331Y025911D01*
X025332Y025905D01*
Y025863D01*
X025331Y025857D01*
X025331Y025854D01*
X025256D01*
Y02567D01*
X025253Y025656D01*
X025256Y025643D01*
X025255Y02563D01*
X025256Y025627D01*
Y025215D01*
X025255Y025213D01*
X025256Y025199D01*
X025253Y025186D01*
X025256Y025173D01*
Y024988D01*
X025331D01*
X025331Y024985D01*
X025332Y024979D01*
Y023217D01*
X025342Y023139D01*
X025372Y023068D01*
X025419Y023006D01*
X025481Y022959D01*
X025553Y022929D01*
X02563Y022919D01*
X027718D01*
X027724Y022917D01*
X027741Y022917D01*
X027752Y022916D01*
X027759Y022915D01*
X027765Y022914D01*
X027766Y022914D01*
X027767Y022913D01*
X027768Y022913D01*
X027769Y022912D01*
X027843Y022855D01*
X027943Y022814D01*
X028051Y0228D01*
X028159Y022814D01*
X02826Y022855D01*
X028346Y022922D01*
X028412Y023008D01*
X028454Y023109D01*
X028468Y023217D01*
X028454Y023324D01*
X028412Y023425D01*
X028346Y023511D01*
X02826Y023578D01*
X028159Y023619D01*
X028051Y023633D01*
X027943Y023619D01*
X027843Y023578D01*
X027769Y023521D01*
X027768Y023521D01*
X027767Y02352D01*
X027766Y023519D01*
X027765Y023519D01*
X027762Y023518D01*
X027738Y023516D01*
X027724Y023516D01*
X027718Y023514D01*
X025928D01*
Y024979D01*
X025929Y024985D01*
X025929Y024988D01*
X026004D01*
Y025173D01*
X026007Y025186D01*
X026004Y025199D01*
X026005Y025213D01*
X026004Y025215D01*
Y025627D01*
X026005Y02563D01*
X026004Y025643D01*
X026007Y025656D01*
X026004Y02567D01*
Y025854D01*
X025929D01*
X025929Y025857D01*
X025928Y025863D01*
Y025904D01*
X025929Y02591D01*
X025929Y025913D01*
X02602D01*
Y026098D01*
X026022Y026111D01*
X02602Y026122D01*
X026021Y026134D01*
X02602Y026138D01*
Y026552D01*
X026021Y026555D01*
X02602Y026568D01*
X026022Y026581D01*
X02602Y026595D01*
Y02678D01*
X025945D01*
X025945Y026782D01*
X025943Y026788D01*
Y02683D01*
X025945Y026836D01*
X025945Y026839D01*
X02602D01*
Y027023D01*
X026022Y027037D01*
X02602Y02705D01*
X026021Y027063D01*
X02602Y027066D01*
Y027705D01*
D02*
G37*
G36*
X056673Y02381D02*
X056557Y023799D01*
X056446Y023765D01*
X056344Y02371D01*
X056254Y023636D01*
X05618Y023546D01*
X056125Y023444D01*
X056091Y023332D01*
X05608Y023217D01*
X056091Y023101D01*
X056125Y022989D01*
X05618Y022887D01*
X056254Y022797D01*
X056344Y022723D01*
X056446Y022668D01*
X056557Y022635D01*
X056673Y022623D01*
X056789Y022635D01*
X0569Y022668D01*
X057003Y022723D01*
X057093Y022797D01*
X057167Y022887D01*
X057221Y022989D01*
X057255Y023101D01*
X057267Y023217D01*
X057255Y023332D01*
X057221Y023444D01*
X057167Y023546D01*
X057093Y023636D01*
X057003Y02371D01*
X0569Y023765D01*
X056789Y023799D01*
X056673Y02381D01*
D02*
G37*
G36*
X039035Y033902D02*
X038169D01*
Y033154D01*
X039035D01*
Y033902D01*
D02*
G37*
G36*
X027587Y037846D02*
X027479Y037832D01*
X027465Y037826D01*
X022452D01*
X022439Y037832D01*
X022331Y037846D01*
X022223Y037832D01*
X022122Y03779D01*
X022036Y037724D01*
X02197Y037638D01*
X021928Y037537D01*
X021914Y037429D01*
X021928Y037321D01*
X02197Y037221D01*
X022036Y037134D01*
X022122Y037068D01*
X022223Y037026D01*
X022331Y037012D01*
X022439Y037026D01*
X022452Y037032D01*
X027465D01*
X027479Y037026D01*
X027587Y037012D01*
X027695Y037026D01*
X027795Y037068D01*
X027881Y037134D01*
X027948Y037221D01*
X027989Y037321D01*
X028004Y037429D01*
X027989Y037537D01*
X027948Y037638D01*
X027881Y037724D01*
X027795Y03779D01*
X027695Y037832D01*
X027587Y037846D01*
D02*
G37*
G36*
X056673Y039164D02*
X056557Y039153D01*
X056446Y039119D01*
X056344Y039064D01*
X056254Y03899D01*
X05618Y038901D01*
X056125Y038798D01*
X056091Y038687D01*
X05608Y038571D01*
X056091Y038455D01*
X056125Y038344D01*
X05618Y038241D01*
X056254Y038151D01*
X056344Y038077D01*
X056446Y038023D01*
X056557Y037989D01*
X056673Y037977D01*
X056789Y037989D01*
X0569Y038023D01*
X057003Y038077D01*
X057093Y038151D01*
X057167Y038241D01*
X057221Y038344D01*
X057255Y038455D01*
X057267Y038571D01*
X057255Y038687D01*
X057221Y038798D01*
X057167Y038901D01*
X057093Y03899D01*
X057003Y039064D01*
X0569Y039119D01*
X056789Y039153D01*
X056673Y039164D01*
D02*
G37*
G36*
Y036408D02*
X056557Y036397D01*
X056446Y036363D01*
X056344Y036308D01*
X056254Y036235D01*
X05618Y036145D01*
X056125Y036042D01*
X056091Y035931D01*
X05608Y035815D01*
X056091Y035699D01*
X056125Y035588D01*
X05618Y035485D01*
X056254Y035395D01*
X056344Y035322D01*
X056446Y035267D01*
X056557Y035233D01*
X056673Y035222D01*
X056789Y035233D01*
X0569Y035267D01*
X057003Y035322D01*
X057093Y035395D01*
X057167Y035485D01*
X057221Y035588D01*
X057255Y035699D01*
X057267Y035815D01*
X057255Y035931D01*
X057221Y036042D01*
X057167Y036145D01*
X057093Y036235D01*
X057003Y036308D01*
X0569Y036363D01*
X056789Y036397D01*
X056673Y036408D01*
D02*
G37*
G36*
X056908Y034085D02*
X056895Y034083D01*
X056882Y034084D01*
X056879Y034083D01*
X056467D01*
X056465Y034084D01*
X056451Y034083D01*
X056438Y034085D01*
X056425Y034083D01*
X05624D01*
Y034008D01*
X056237Y034008D01*
X056231Y034006D01*
X054213D01*
X054136Y033996D01*
X054064Y033967D01*
X054002Y033919D01*
X053955Y033858D01*
X053925Y033786D01*
X053918Y033735D01*
X053914Y033714D01*
X053913Y03369D01*
X053912Y03368D01*
X053828Y033635D01*
X053723Y033549D01*
X053637Y033444D01*
X053573Y033324D01*
X053534Y033194D01*
X05352Y033059D01*
X053534Y032924D01*
X053573Y032794D01*
X053637Y032674D01*
X053723Y03257D01*
X053828Y032483D01*
X053948Y032419D01*
X054078Y03238D01*
X054213Y032367D01*
X054348Y03238D01*
X054478Y032419D01*
X054597Y032483D01*
X054702Y03257D01*
X054788Y032674D01*
X054852Y032794D01*
X054892Y032924D01*
X054905Y033059D01*
X054892Y033194D01*
X054852Y033324D01*
X054829Y033368D01*
X054854Y033411D01*
X056231D01*
X056237Y03341D01*
X05624Y03341D01*
Y033335D01*
X056425D01*
X056438Y033332D01*
X056451Y033335D01*
X056465Y033334D01*
X056467Y033335D01*
X056879D01*
X056882Y033334D01*
X056895Y033335D01*
X056908Y033332D01*
X056922Y033335D01*
X057106D01*
Y03341D01*
X057109Y03341D01*
X057115Y033411D01*
X058492D01*
X058518Y033368D01*
X058494Y033324D01*
X058455Y033194D01*
X058442Y033059D01*
X058455Y032924D01*
X058494Y032794D01*
X058558Y032674D01*
X058644Y03257D01*
X058749Y032483D01*
X058869Y032419D01*
X058999Y03238D01*
X059134Y032367D01*
X059269Y03238D01*
X059399Y032419D01*
X059518Y032483D01*
X059623Y03257D01*
X059709Y032674D01*
X059773Y032794D01*
X059813Y032924D01*
X059826Y033059D01*
X059813Y033194D01*
X059773Y033324D01*
X059709Y033444D01*
X059623Y033549D01*
X059518Y033635D01*
X059435Y03368D01*
X059434Y03369D01*
X059433Y033714D01*
X059428Y033735D01*
X059422Y033786D01*
X059392Y033858D01*
X059344Y033919D01*
X059283Y033967D01*
X059211Y033996D01*
X059134Y034006D01*
X057115D01*
X057109Y034008D01*
X057106Y034008D01*
Y034083D01*
X056922D01*
X056908Y034085D01*
D02*
G37*
G36*
X043681Y035618D02*
X042933D01*
Y034752D01*
X043681D01*
Y035618D01*
D02*
G37*
G36*
X050252Y04204D02*
X050118Y042022D01*
X049994Y041971D01*
X049887Y041889D01*
X049805Y041782D01*
X049779Y041719D01*
X049725D01*
X049699Y041782D01*
X049617Y041889D01*
X04951Y041971D01*
X049386Y042022D01*
X049252Y04204D01*
X049118Y042022D01*
X048994Y041971D01*
X048887Y041889D01*
X048805Y041782D01*
X048753Y041657D01*
X048736Y041524D01*
X048753Y04139D01*
X048805Y041266D01*
X048887Y041159D01*
X048994Y041077D01*
X049118Y041025D01*
X049252Y041007D01*
X049386Y041025D01*
X04951Y041077D01*
X049617Y041159D01*
X049699Y041266D01*
X049725Y041328D01*
X049779D01*
X049805Y041266D01*
X049887Y041159D01*
X049994Y041077D01*
X050118Y041025D01*
X050252Y041007D01*
X050386Y041025D01*
X05051Y041077D01*
X050617Y041159D01*
X050699Y041266D01*
X050751Y04139D01*
X050768Y041524D01*
X050751Y041657D01*
X050699Y041782D01*
X050617Y041889D01*
X05051Y041971D01*
X050386Y042022D01*
X050252Y04204D01*
D02*
G37*
G36*
X048642Y039311D02*
X048508Y039294D01*
X048384Y039242D01*
X048277Y03916D01*
X048274Y039157D01*
X048258Y039142D01*
X048244Y03913D01*
X048231Y03912D01*
X048223Y039116D01*
X048217Y039118D01*
X048189Y039137D01*
X048171Y039141D01*
X048168Y039142D01*
X048162Y039143D01*
X048106Y039154D01*
X047783D01*
X047701Y039137D01*
X04763Y03909D01*
X047583Y03902D01*
X047567Y038937D01*
Y038654D01*
X047583Y038571D01*
X04763Y0385D01*
X047701Y038453D01*
X047783Y038437D01*
X048106D01*
X048162Y038448D01*
X048168Y038448D01*
X048171Y03845D01*
X048189Y038453D01*
X048217Y038472D01*
X048223Y038475D01*
X048231Y03847D01*
X048244Y038461D01*
X048258Y038449D01*
X048274Y038433D01*
X048277Y03843D01*
X048384Y038348D01*
X048508Y038297D01*
X048642Y038279D01*
X048775Y038297D01*
X0489Y038348D01*
X049007Y03843D01*
X049089Y038537D01*
X04914Y038662D01*
X049158Y038795D01*
X04914Y038929D01*
X049089Y039053D01*
X049007Y03916D01*
X0489Y039242D01*
X048775Y039294D01*
X048642Y039311D01*
D02*
G37*
G36*
Y036312D02*
X048508Y036294D01*
X048384Y036242D01*
X048277Y03616D01*
X048274Y036157D01*
X048258Y036142D01*
X048244Y03613D01*
X048231Y03612D01*
X048218Y036112D01*
X048207Y036106D01*
X048196Y036102D01*
X048186Y036099D01*
X048175Y036096D01*
X048172Y036096D01*
X048158Y036101D01*
X048125Y036132D01*
X048122Y036137D01*
Y036228D01*
X046705D01*
Y035589D01*
X046704Y035587D01*
X046705Y035573D01*
X046702Y03556D01*
X046705Y035547D01*
Y035362D01*
X04678D01*
X04678Y035359D01*
X046781Y035354D01*
Y027844D01*
X04678Y027838D01*
X046779Y027755D01*
X036036D01*
X036031Y027759D01*
X035931Y0278D01*
X035823Y027815D01*
X035715Y0278D01*
X035614Y027759D01*
X035528Y027692D01*
X035462Y027606D01*
X03542Y027506D01*
X035406Y027398D01*
X03542Y02729D01*
X035462Y027189D01*
X035528Y027103D01*
X035614Y027037D01*
X035715Y026995D01*
X035823Y026981D01*
X035931Y026995D01*
X036031Y027037D01*
X036036Y02704D01*
X040439D01*
X040442Y02704D01*
X040494Y027038D01*
X040531Y027034D01*
X040557Y027028D01*
X04056Y027027D01*
X040563Y026952D01*
X040564Y026947D01*
Y025518D01*
X040198D01*
X040192Y02552D01*
X040189Y02552D01*
Y025598D01*
X040004D01*
X039991Y025601D01*
X039978Y025599D01*
X039966Y025599D01*
X039962Y025598D01*
X039323D01*
Y02485D01*
X039961D01*
X039963Y02485D01*
X039975Y02485D01*
X039978D01*
X039991Y024848D01*
X040004Y02485D01*
X040189D01*
Y024921D01*
X040192Y024921D01*
X040198Y024923D01*
X040862D01*
X040939Y024933D01*
X041011Y024963D01*
X041073Y02501D01*
X04112Y025072D01*
X04115Y025143D01*
X04116Y02522D01*
Y026951D01*
X041161Y026958D01*
X041162Y027027D01*
X041168Y027028D01*
X041194Y027034D01*
X04123Y027038D01*
X041282Y02704D01*
X041285Y02704D01*
X043612D01*
X043615Y02704D01*
X043668Y027038D01*
X043704Y027034D01*
X04373Y027028D01*
X043733Y027027D01*
X043736Y026952D01*
X043738Y026947D01*
Y025205D01*
X043748Y025128D01*
X043778Y025056D01*
X043825Y024994D01*
X043887Y024947D01*
X043958Y024917D01*
X044035Y024907D01*
X044352D01*
X044357Y024906D01*
X04436Y024906D01*
Y024831D01*
X044545D01*
X044558Y024828D01*
X044571Y024831D01*
X044585Y02483D01*
X044587Y024831D01*
X045226D01*
Y025579D01*
X044587D01*
X044585Y02558D01*
X044571Y025579D01*
X044558Y025581D01*
X044545Y025579D01*
X04436D01*
X044333Y025618D01*
Y026951D01*
X044335Y026958D01*
X044335Y027027D01*
X044341Y027028D01*
X044367Y027034D01*
X044403Y027038D01*
X044455Y02704D01*
X044458Y02704D01*
X047079D01*
X047142Y027049D01*
X047205Y02704D01*
X048725D01*
Y025205D01*
X048737Y025112D01*
X048773Y025026D01*
X04883Y024952D01*
X048904Y024895D01*
X04899Y02486D01*
X049083Y024847D01*
X049277D01*
X049281Y024847D01*
X0494Y024845D01*
Y024831D01*
X049578D01*
X049587Y024828D01*
X049592Y024829D01*
X049598Y024828D01*
X049611Y024831D01*
X050266D01*
Y025579D01*
X049611D01*
X049598Y025581D01*
X049592Y02558D01*
X049587Y025581D01*
X049578Y025579D01*
X04944D01*
Y027398D01*
X049428Y02749D01*
X049392Y027576D01*
X049335Y02765D01*
X049261Y027707D01*
X049175Y027743D01*
X049083Y027755D01*
X047381D01*
X047378Y027844D01*
X047377Y027848D01*
Y035354D01*
X047378Y035359D01*
X047378Y035362D01*
X048122D01*
Y035454D01*
X048125Y035458D01*
X048158Y035489D01*
X048172Y035495D01*
X048175Y035494D01*
X048186Y035492D01*
X048196Y035489D01*
X048207Y035484D01*
X048218Y035478D01*
X048231Y03547D01*
X048244Y035461D01*
X048258Y035449D01*
X048274Y035433D01*
X048277Y03543D01*
X048384Y035348D01*
X048508Y035297D01*
X048642Y035279D01*
X048775Y035297D01*
X0489Y035348D01*
X049007Y03543D01*
X049089Y035537D01*
X04914Y035662D01*
X049158Y035795D01*
X04914Y035929D01*
X049089Y036053D01*
X049007Y03616D01*
X0489Y036242D01*
X048775Y036294D01*
X048642Y036312D01*
D02*
G37*
G36*
X036083Y039874D02*
X035949Y039857D01*
X035825Y039805D01*
X035718Y039723D01*
X035715Y03972D01*
X035688Y039693D01*
X03568Y039686D01*
X03563Y039709D01*
Y039791D01*
X034882D01*
Y038925D01*
X03563D01*
Y039008D01*
X03568Y03903D01*
X035688Y039023D01*
X035715Y038997D01*
X035718Y038993D01*
X035825Y038911D01*
X035949Y03886D01*
X036083Y038842D01*
X036216Y03886D01*
X036341Y038911D01*
X036448Y038993D01*
X03653Y0391D01*
X036581Y039225D01*
X036599Y039358D01*
X036581Y039492D01*
X03653Y039616D01*
X036448Y039723D01*
X036341Y039805D01*
X036216Y039857D01*
X036083Y039874D01*
D02*
G37*
G36*
X056673Y042708D02*
X056557Y042696D01*
X056446Y042662D01*
X056344Y042608D01*
X056254Y042534D01*
X05618Y042444D01*
X056125Y042341D01*
X056091Y04223D01*
X05608Y042114D01*
X056091Y041998D01*
X056125Y041887D01*
X05618Y041784D01*
X056254Y041695D01*
X056344Y041621D01*
X056446Y041566D01*
X056557Y041532D01*
X056673Y041521D01*
X056789Y041532D01*
X0569Y041566D01*
X057003Y041621D01*
X057093Y041695D01*
X057167Y041784D01*
X057221Y041887D01*
X057255Y041998D01*
X057267Y042114D01*
X057255Y04223D01*
X057221Y042341D01*
X057167Y042444D01*
X057093Y042534D01*
X057003Y042608D01*
X0569Y042662D01*
X056789Y042696D01*
X056673Y042708D01*
D02*
G37*
G36*
X056908Y040385D02*
X056895Y040382D01*
X056882Y040383D01*
X056879Y040382D01*
X056467D01*
X056465Y040383D01*
X056451Y040382D01*
X056438Y040385D01*
X056425Y040382D01*
X05624D01*
Y040307D01*
X056237Y040307D01*
X056231Y040306D01*
X054213D01*
X054136Y040296D01*
X054064Y040266D01*
X054002Y040218D01*
X053955Y040157D01*
X053925Y040085D01*
X053918Y040034D01*
X053914Y040013D01*
X053913Y039989D01*
X053912Y039979D01*
X053828Y039934D01*
X053723Y039848D01*
X053637Y039743D01*
X053573Y039623D01*
X053534Y039493D01*
X05352Y039358D01*
X053534Y039223D01*
X053573Y039093D01*
X053637Y038974D01*
X053723Y038869D01*
X053828Y038783D01*
X053948Y038719D01*
X054078Y038679D01*
X054213Y038666D01*
X054348Y038679D01*
X054478Y038719D01*
X054597Y038783D01*
X054702Y038869D01*
X054788Y038974D01*
X054852Y039093D01*
X054892Y039223D01*
X054905Y039358D01*
X054892Y039493D01*
X054852Y039623D01*
X054829Y039667D01*
X054854Y03971D01*
X056231D01*
X056237Y039709D01*
X05624Y039709D01*
Y039634D01*
X056425D01*
X056438Y039631D01*
X056451Y039634D01*
X056465Y039633D01*
X056467Y039634D01*
X056879D01*
X056882Y039633D01*
X056895Y039634D01*
X056908Y039631D01*
X056922Y039634D01*
X057106D01*
Y039709D01*
X057109Y039709D01*
X057115Y03971D01*
X058492D01*
X058518Y039667D01*
X058494Y039623D01*
X058455Y039493D01*
X058442Y039358D01*
X058455Y039223D01*
X058494Y039093D01*
X058558Y038974D01*
X058644Y038869D01*
X058749Y038783D01*
X058869Y038719D01*
X058999Y038679D01*
X059134Y038666D01*
X059269Y038679D01*
X059399Y038719D01*
X059518Y038783D01*
X059623Y038869D01*
X059709Y038974D01*
X059773Y039093D01*
X059813Y039223D01*
X059826Y039358D01*
X059813Y039493D01*
X059773Y039623D01*
X059709Y039743D01*
X059623Y039848D01*
X059518Y039934D01*
X059435Y039979D01*
X059434Y039989D01*
X059433Y040013D01*
X059428Y040034D01*
X059422Y040085D01*
X059392Y040157D01*
X059344Y040218D01*
X059283Y040266D01*
X059211Y040296D01*
X059134Y040306D01*
X057115D01*
X057109Y040307D01*
X057106Y040307D01*
Y040382D01*
X056922D01*
X056908Y040385D01*
D02*
G37*
G36*
X038587Y045189D02*
X038453Y045172D01*
X038328Y04512D01*
X038222Y045038D01*
X03814Y044931D01*
X038114Y044869D01*
X03806D01*
X038034Y044931D01*
X037952Y045038D01*
X037845Y04512D01*
X03772Y045172D01*
X037587Y045189D01*
X037453Y045172D01*
X037329Y04512D01*
X037222Y045038D01*
X03714Y044931D01*
X037114Y044869D01*
X03706D01*
X037034Y044931D01*
X036952Y045038D01*
X036845Y04512D01*
X03672Y045172D01*
X036587Y045189D01*
X036453Y045172D01*
X036328Y04512D01*
X036222Y045038D01*
X03614Y044931D01*
X036114Y044869D01*
X03606D01*
X036034Y044931D01*
X035952Y045038D01*
X035845Y04512D01*
X03572Y045172D01*
X035587Y045189D01*
X035453Y045172D01*
X035329Y04512D01*
X035222Y045038D01*
X03514Y044931D01*
X035114Y044869D01*
X03506D01*
X035034Y044931D01*
X034952Y045038D01*
X034845Y04512D01*
X03472Y045172D01*
X034587Y045189D01*
X034453Y045172D01*
X034328Y04512D01*
X034222Y045038D01*
X03414Y044931D01*
X034088Y044807D01*
X03407Y044673D01*
X034088Y04454D01*
X03414Y044415D01*
X034222Y044308D01*
X034328Y044226D01*
X034453Y044175D01*
X034587Y044157D01*
X03472Y044175D01*
X034845Y044226D01*
X034952Y044308D01*
X035034Y044415D01*
X03506Y044478D01*
X035114D01*
X03514Y044415D01*
X035222Y044308D01*
X035329Y044226D01*
X035453Y044175D01*
X035587Y044157D01*
X03572Y044175D01*
X035845Y044226D01*
X035952Y044308D01*
X036034Y044415D01*
X03606Y044478D01*
X036114D01*
X03614Y044415D01*
X036222Y044308D01*
X036328Y044226D01*
X036453Y044175D01*
X036587Y044157D01*
X03672Y044175D01*
X036845Y044226D01*
X036952Y044308D01*
X037034Y044415D01*
X03706Y044478D01*
X037114D01*
X03714Y044415D01*
X037222Y044308D01*
X037329Y044226D01*
X037453Y044175D01*
X037587Y044157D01*
X03772Y044175D01*
X037845Y044226D01*
X037952Y044308D01*
X038034Y044415D01*
X03806Y044478D01*
X038114D01*
X03814Y044415D01*
X038222Y044308D01*
X038225Y044306D01*
X03824Y04429D01*
X038252Y044276D01*
X038262Y044262D01*
X038269Y04425D01*
X038275Y044238D01*
X03828Y044227D01*
X038283Y044217D01*
X038285Y044207D01*
X038287Y044196D01*
X038288Y044176D01*
X038289Y044172D01*
Y044013D01*
X038288Y044008D01*
X038287Y044004D01*
X038154D01*
Y04326D01*
X038151Y04326D01*
X038145Y043258D01*
X027026D01*
X026994Y043308D01*
X027028Y04339D01*
X027043Y043508D01*
X027028Y043626D01*
X026982Y043736D01*
X02691Y043831D01*
X026815Y043903D01*
X026705Y043949D01*
X026587Y043965D01*
X026468Y043949D01*
X026358Y043903D01*
X026264Y043831D01*
X026191Y043736D01*
X026146Y043626D01*
X02613Y043508D01*
X026146Y04339D01*
X026191Y04328D01*
X026264Y043185D01*
X026336Y043129D01*
X026321Y04311D01*
X026291Y043038D01*
X026281Y042961D01*
Y04277D01*
X02628Y042765D01*
X026279Y042747D01*
X026278Y042737D01*
X026277Y042729D01*
X026276Y042723D01*
X026276Y042722D01*
X026275Y042721D01*
X026275Y04272D01*
X026274Y042719D01*
X026218Y042645D01*
X026176Y042545D01*
X026162Y042437D01*
X026176Y042329D01*
X026181Y042317D01*
X026153Y042275D01*
X022452D01*
X022439Y042281D01*
X022331Y042295D01*
X022223Y042281D01*
X022122Y042239D01*
X022036Y042173D01*
X02197Y042086D01*
X021928Y041986D01*
X021914Y041878D01*
X021928Y04177D01*
X02197Y041669D01*
X022036Y041583D01*
X022122Y041517D01*
X022223Y041475D01*
X022331Y041461D01*
X022439Y041475D01*
X022452Y041481D01*
X039729D01*
Y039344D01*
X039728Y03934D01*
X039728Y039285D01*
X039724Y03922D01*
X039654D01*
Y039209D01*
X03959Y039205D01*
X039536Y039205D01*
X039532Y039204D01*
X039469D01*
X039376Y039192D01*
X03929Y039156D01*
X039216Y039099D01*
X039208Y039091D01*
X039151Y039017D01*
X039115Y038931D01*
X039103Y038839D01*
Y037397D01*
X039015Y037393D01*
X03901Y037392D01*
X038414D01*
X038408Y037394D01*
X038406Y037394D01*
Y038138D01*
X037539D01*
X037539Y038138D01*
X0375Y038154D01*
Y038154D01*
X037496Y038154D01*
X036634D01*
Y037555D01*
X036584Y037551D01*
X036581Y037571D01*
X03653Y037695D01*
X036448Y037802D01*
X036341Y037884D01*
X036216Y037936D01*
X036083Y037953D01*
X035949Y037936D01*
X035825Y037884D01*
X035718Y037802D01*
X035715Y037799D01*
X035688Y037772D01*
X03568Y037765D01*
X03563Y037787D01*
Y03787D01*
X034882D01*
Y037004D01*
X03563D01*
Y037087D01*
X03568Y037109D01*
X035688Y037102D01*
X035715Y037075D01*
X035718Y037072D01*
X035825Y03699D01*
X035879Y036967D01*
X035882Y036956D01*
X035846Y036901D01*
X035819Y036897D01*
X035743Y036866D01*
X035677Y036815D01*
X035626Y036749D01*
X035595Y036673D01*
X03559Y036633D01*
X033161Y034205D01*
X033107Y034124D01*
X033088Y034028D01*
Y025458D01*
X031231Y023601D01*
X031193Y023634D01*
X031196Y023638D01*
X031245Y023757D01*
X031262Y023886D01*
Y025311D01*
Y028453D01*
X031245Y028581D01*
X031196Y028701D01*
X031117Y028804D01*
X031014Y028883D01*
X030894Y028932D01*
X030766Y028949D01*
X025398D01*
Y029476D01*
X025381Y029605D01*
X025331Y029725D01*
X025253Y029827D01*
X02515Y029906D01*
X02503Y029956D01*
X024902Y029973D01*
X022303D01*
X022175Y029956D01*
X022055Y029906D01*
X021952Y029827D01*
X021873Y029725D01*
X021824Y029605D01*
X021807Y029476D01*
X021824Y029348D01*
X021873Y029228D01*
X021952Y029125D01*
X022055Y029047D01*
X022175Y028997D01*
X022303Y02898D01*
X024405D01*
Y028453D01*
X024422Y028324D01*
X024472Y028205D01*
X024551Y028102D01*
X024653Y028023D01*
X024773Y027973D01*
X024902Y027956D01*
X030269D01*
Y025311D01*
Y023886D01*
X030286Y023757D01*
X030336Y023638D01*
X030415Y023535D01*
X030518Y023456D01*
X030637Y023406D01*
X03073Y023394D01*
X030753Y023391D01*
Y023341D01*
X03073Y023338D01*
X030648Y023327D01*
X030537Y023281D01*
X030443Y023209D01*
X03037Y023114D01*
X030325Y023004D01*
X030309Y022886D01*
X030325Y022768D01*
X03037Y022657D01*
X030443Y022563D01*
X030537Y02249D01*
X030648Y022445D01*
X030766Y022429D01*
X030884Y022445D01*
X03091Y022455D01*
X030938Y022413D01*
X030879Y022354D01*
X030879Y022354D01*
X03087Y022351D01*
X030858Y022349D01*
X030844Y022346D01*
X030795Y022343D01*
X030766Y022342D01*
X030766Y022342D01*
X030766Y022342D01*
X030648Y022327D01*
X030537Y022281D01*
X030443Y022209D01*
X03037Y022114D01*
X030325Y022004D01*
X030309Y021886D01*
X030325Y021768D01*
X03037Y021657D01*
X030443Y021563D01*
X030537Y02149D01*
X030648Y021445D01*
X030766Y021429D01*
X030884Y021445D01*
X030994Y02149D01*
X031089Y021563D01*
X031161Y021657D01*
X031207Y021768D01*
X031222Y021879D01*
X031222Y021882D01*
X031222Y021885D01*
X031222Y021886D01*
X031222Y021886D01*
X031224Y021944D01*
X031226Y021962D01*
X031228Y021978D01*
X031231Y02199D01*
X031234Y021999D01*
X031234Y021999D01*
X033803Y024569D01*
X033858Y02465D01*
X033877Y024746D01*
Y033817D01*
X035944Y035885D01*
X035984Y03589D01*
X03606Y035922D01*
X036126Y035972D01*
X036177Y036038D01*
X036208Y036115D01*
X036219Y036197D01*
X036208Y036279D01*
X036177Y036356D01*
X036148Y036394D01*
X036177Y036432D01*
X036208Y036508D01*
X036219Y036591D01*
X036208Y036673D01*
X036177Y036749D01*
X036126Y036815D01*
X03606Y036866D01*
X036033Y036877D01*
X036047Y036926D01*
X036083Y036921D01*
X036216Y036938D01*
X036341Y03699D01*
X036448Y037072D01*
X03653Y037179D01*
X036581Y037303D01*
X036592Y037386D01*
X036634Y037406D01*
X036645Y037406D01*
X037106D01*
X037127Y037356D01*
X037102Y037331D01*
X037048Y03725D01*
X037029Y037154D01*
X037048Y037058D01*
X037102Y036976D01*
X037184Y036922D01*
X03728Y036903D01*
X037376Y036922D01*
X037457Y036976D01*
X037489Y037009D01*
X037539Y036999D01*
Y03672D01*
X038178D01*
X038181Y03672D01*
X038194Y03672D01*
X038207Y036718D01*
X038221Y03672D01*
X038406D01*
Y036795D01*
X038408Y036795D01*
X038414Y036797D01*
X039014D01*
X039021Y036795D01*
X039103Y036795D01*
Y036543D01*
X039115Y036451D01*
X039151Y036365D01*
X039208Y036291D01*
X039282Y036234D01*
X039368Y036198D01*
X039461Y036186D01*
X039531D01*
X039535Y036185D01*
X039654Y036184D01*
Y036169D01*
X039831D01*
X039841Y036167D01*
X039846Y036168D01*
X039852Y036167D01*
X039865Y036169D01*
X040308D01*
X040322Y036167D01*
X040327Y036168D01*
X040333Y036167D01*
X040342Y036169D01*
X04052D01*
Y036181D01*
X040576Y036185D01*
X040638Y036184D01*
Y036169D01*
X040816D01*
X040825Y036167D01*
X04083Y036168D01*
X040836Y036167D01*
X040849Y036169D01*
X041293D01*
X041306Y036167D01*
X041311Y036168D01*
X041317Y036167D01*
X041326Y036169D01*
X041504D01*
Y036181D01*
X04156Y036185D01*
X041622Y036184D01*
Y036169D01*
X0418D01*
X041809Y036167D01*
X041815Y036168D01*
X04182Y036167D01*
X041833Y036169D01*
X042488D01*
Y036917D01*
X041833D01*
X04182Y03692D01*
X041815Y036919D01*
X041809Y03692D01*
X0418Y036917D01*
X041622D01*
Y036905D01*
X041566Y036902D01*
X041504Y036903D01*
Y036917D01*
X041326D01*
X041317Y03692D01*
X041311Y036919D01*
X041306Y03692D01*
X041293Y036917D01*
X040849D01*
X040836Y03692D01*
X04083Y036919D01*
X040825Y03692D01*
X040816Y036917D01*
X040638D01*
Y036905D01*
X040582Y036902D01*
X04052Y036903D01*
Y036917D01*
X040342D01*
X040333Y03692D01*
X040327Y036919D01*
X040322Y03692D01*
X040308Y036917D01*
X039865D01*
X039852Y03692D01*
X039828Y036945D01*
X039818Y036965D01*
Y037059D01*
X039816Y037077D01*
X039818Y037094D01*
Y038425D01*
X039828Y038445D01*
X039852Y03847D01*
X039865Y038472D01*
X040308D01*
X040322Y03847D01*
X040327Y038471D01*
X040333Y03847D01*
X040342Y038472D01*
X04052D01*
Y038484D01*
X040576Y038488D01*
X040638Y038487D01*
Y038472D01*
X040816D01*
X040825Y03847D01*
X04083Y038471D01*
X040836Y03847D01*
X040849Y038472D01*
X041293D01*
X041306Y03847D01*
X041311Y038471D01*
X041317Y03847D01*
X041326Y038472D01*
X041504D01*
Y038484D01*
X04156Y038488D01*
X041622Y038487D01*
Y038472D01*
X0418D01*
X041809Y03847D01*
X041815Y038471D01*
X04182Y03847D01*
X041833Y038472D01*
X041876D01*
X041904Y038429D01*
X041905Y038422D01*
X041904Y038415D01*
X041898Y038405D01*
X041896Y038377D01*
X041895Y038372D01*
X041878Y038355D01*
X041823Y038273D01*
X041804Y038177D01*
X041823Y038081D01*
X041878Y038D01*
X041959Y037945D01*
X042055Y037926D01*
X042151Y037945D01*
X042216Y037989D01*
X042233Y038D01*
X042283Y037979D01*
X042303Y037953D01*
X042369Y037902D01*
X042445Y03787D01*
X042528Y037859D01*
X04261Y03787D01*
X042686Y037902D01*
X042718Y037926D01*
X044701D01*
X044797Y037945D01*
X044878Y038D01*
X045233Y038354D01*
X045287Y038435D01*
X045306Y038531D01*
Y041018D01*
X04531Y041027D01*
X045318Y04104D01*
X045329Y041057D01*
X045344Y041076D01*
X04539Y041129D01*
X045417Y041156D01*
X04542Y041159D01*
X045502Y041266D01*
X045528Y041328D01*
X045582D01*
X045608Y041266D01*
X04569Y041159D01*
X045797Y041077D01*
X045922Y041025D01*
X046055Y041007D01*
X046189Y041025D01*
X046313Y041077D01*
X04642Y041159D01*
X046502Y041266D01*
X046554Y04139D01*
X046571Y041524D01*
X046554Y041657D01*
X046502Y041782D01*
X04642Y041889D01*
X046313Y041971D01*
X046189Y042022D01*
X046055Y04204D01*
X045922Y042022D01*
X045797Y041971D01*
X04569Y041889D01*
X045608Y041782D01*
X045582Y041719D01*
X045528D01*
X045502Y041782D01*
X04542Y041889D01*
X045313Y041971D01*
X045189Y042022D01*
X045055Y04204D01*
X044922Y042022D01*
X044797Y041971D01*
X04469Y041889D01*
X044608Y041782D01*
X044582Y041719D01*
X044528D01*
X044502Y041782D01*
X04442Y041889D01*
X044313Y041971D01*
X044189Y042022D01*
X044055Y04204D01*
X043922Y042022D01*
X043797Y041971D01*
X04369Y041889D01*
X043608Y041782D01*
X043556Y041657D01*
X043539Y041524D01*
X043556Y04139D01*
X043608Y041266D01*
X04369Y041159D01*
X043797Y041077D01*
X043922Y041025D01*
X044055Y041007D01*
X044189Y041025D01*
X044313Y041077D01*
X04442Y041159D01*
X044502Y041266D01*
X044528Y041328D01*
X044582D01*
X044608Y041266D01*
X04469Y041159D01*
X044694Y041156D01*
X04472Y041129D01*
X044767Y041076D01*
X044781Y041057D01*
X044792Y04104D01*
X0448Y041027D01*
X044804Y041018D01*
Y038635D01*
X044597Y038428D01*
X04276D01*
X04272Y038473D01*
X042721Y038489D01*
X04338Y039147D01*
X043504D01*
X0436Y039166D01*
X043681Y03922D01*
X043736Y039302D01*
X043749Y039369D01*
X043799Y039365D01*
Y038965D01*
X044547D01*
Y039831D01*
X043799D01*
Y039431D01*
X043749Y039426D01*
X043736Y039494D01*
X043681Y039575D01*
X0436Y039629D01*
X043504Y039649D01*
X043276D01*
X04318Y039629D01*
X043098Y039575D01*
X042534Y039011D01*
X042488Y03903D01*
Y03922D01*
X041833D01*
X04182Y039223D01*
X041815Y039222D01*
X041809Y039223D01*
X0418Y03922D01*
X041622D01*
Y039209D01*
X041566Y039205D01*
X041504Y039206D01*
Y03922D01*
X041326D01*
X041317Y039223D01*
X041311Y039222D01*
X041306Y039223D01*
X041293Y03922D01*
X040849D01*
X040836Y039223D01*
X04083Y039222D01*
X040825Y039223D01*
X040816Y03922D01*
X040638D01*
Y039209D01*
X040582Y039205D01*
X04052Y039206D01*
Y03922D01*
X040451D01*
X040445Y039287D01*
X040445Y03934D01*
X040444Y039344D01*
Y041481D01*
X04098D01*
X041083Y041494D01*
X041179Y041534D01*
X041261Y041597D01*
X041324Y041679D01*
X041364Y041775D01*
X041377Y041878D01*
Y042197D01*
X041453D01*
X041454Y042197D01*
X041517Y042194D01*
X041557Y042187D01*
X041585Y042177D01*
X041604Y042167D01*
X041617Y042157D01*
X041628Y042144D01*
X041638Y042125D01*
X041647Y042096D01*
X041655Y042056D01*
X041658Y041993D01*
X041658Y041993D01*
Y041965D01*
X041658Y041963D01*
X041656Y041871D01*
X041653Y041841D01*
X041608Y041782D01*
X041556Y041657D01*
X041539Y041524D01*
X041556Y04139D01*
X041608Y041266D01*
X04169Y041159D01*
X041797Y041077D01*
X041922Y041025D01*
X042055Y041007D01*
X042189Y041025D01*
X042313Y041077D01*
X04242Y041159D01*
X042502Y041266D01*
X042554Y04139D01*
X042571Y041524D01*
X042554Y041657D01*
X042502Y041782D01*
X042459Y041838D01*
X042453Y04193D01*
X042453Y04196D01*
X042452Y041962D01*
Y041993D01*
X042452Y041993D01*
X042456Y042056D01*
X042463Y042096D01*
X042472Y042125D01*
X042483Y042144D01*
X042493Y042157D01*
X042506Y042167D01*
X042525Y042177D01*
X042553Y042187D01*
X042594Y042194D01*
X042656Y042197D01*
X042657Y042197D01*
X046855D01*
Y041965D01*
X046854Y041963D01*
X046852Y041871D01*
X04685Y041841D01*
X046805Y041782D01*
X046753Y041657D01*
X046736Y041524D01*
X046753Y04139D01*
X046805Y041266D01*
X046887Y041159D01*
X046994Y041077D01*
X047118Y041025D01*
X047252Y041007D01*
X047386Y041025D01*
X04751Y041077D01*
X047617Y041159D01*
X047699Y041266D01*
X047751Y04139D01*
X047768Y041524D01*
X047751Y041657D01*
X047699Y041782D01*
X047656Y041838D01*
X04765Y04193D01*
X04765Y04196D01*
X047649Y041962D01*
Y042594D01*
X047636Y042697D01*
X047596Y042793D01*
X047533Y042875D01*
X047451Y042938D01*
X047355Y042978D01*
X047252Y042992D01*
X04098D01*
X040878Y042978D01*
X040782Y042938D01*
X0407Y042875D01*
X040636Y042793D01*
X040597Y042697D01*
X040583Y042594D01*
Y042275D01*
X028034D01*
X028001Y042325D01*
X028028Y04239D01*
X028043Y042508D01*
X028029Y042613D01*
X02806Y042663D01*
X038145D01*
X038151Y042662D01*
X038154Y042661D01*
Y042587D01*
X038338D01*
X038352Y042584D01*
X038365Y042587D01*
X038378Y042586D01*
X038381Y042587D01*
X03902D01*
Y043256D01*
Y044004D01*
X038886D01*
X038886Y044008D01*
X038884Y044013D01*
Y044172D01*
X038886Y044176D01*
X038886Y044196D01*
X038888Y044207D01*
X03889Y044217D01*
X038893Y044227D01*
X038898Y044238D01*
X038904Y04425D01*
X038911Y044262D01*
X038921Y044276D01*
X038933Y04429D01*
X038949Y044306D01*
X038952Y044308D01*
X039034Y044415D01*
X039085Y04454D01*
X039103Y044673D01*
X039085Y044807D01*
X039034Y044931D01*
X038952Y045038D01*
X038845Y04512D01*
X03872Y045172D01*
X038587Y045189D01*
D02*
G37*
G36*
X04724Y03878D02*
X046917D01*
X046834Y038763D01*
X046764Y038716D01*
X046717Y038646D01*
X046701Y038563D01*
Y03828D01*
X046706Y038252D01*
X046716Y038032D01*
X046705Y03802D01*
X046705D01*
Y037842D01*
X046702Y037833D01*
X046703Y037827D01*
X046702Y037822D01*
X046705Y037808D01*
Y037154D01*
X048122D01*
Y03802D01*
X047472D01*
X047439Y038069D01*
X047441Y038177D01*
X047443Y038209D01*
X047446Y038224D01*
X047448Y03823D01*
X047448Y038236D01*
X047457Y03828D01*
Y038563D01*
X04744Y038646D01*
X047393Y038716D01*
X047323Y038763D01*
X04724Y03878D01*
D02*
G37*
G36*
X029587Y045189D02*
X029453Y045172D01*
X029328Y04512D01*
X029222Y045038D01*
X02914Y044931D01*
X029088Y044807D01*
X02907Y044673D01*
X029088Y04454D01*
X02914Y044415D01*
X029222Y044308D01*
X029328Y044226D01*
X029453Y044175D01*
X029587Y044157D01*
X02972Y044175D01*
X029845Y044226D01*
X029952Y044308D01*
X030034Y044415D01*
X030085Y04454D01*
X030103Y044673D01*
X030085Y044807D01*
X030034Y044931D01*
X029952Y045038D01*
X029845Y04512D01*
X02972Y045172D01*
X029587Y045189D01*
D02*
G37*
G36*
X027587D02*
X027453Y045172D01*
X027329Y04512D01*
X027222Y045038D01*
X02714Y044931D01*
X027114Y044869D01*
X02706D01*
X027034Y044931D01*
X026952Y045038D01*
X026845Y04512D01*
X02672Y045172D01*
X026587Y045189D01*
X026453Y045172D01*
X026328Y04512D01*
X026222Y045038D01*
X02614Y044931D01*
X026114Y044869D01*
X02606D01*
X026034Y044931D01*
X025952Y045038D01*
X025845Y04512D01*
X02572Y045172D01*
X025587Y045189D01*
X025453Y045172D01*
X025329Y04512D01*
X025222Y045038D01*
X02514Y044931D01*
X025088Y044807D01*
X02507Y044673D01*
X025088Y04454D01*
X02514Y044415D01*
X025222Y044308D01*
X025329Y044226D01*
X025453Y044175D01*
X025587Y044157D01*
X02572Y044175D01*
X025845Y044226D01*
X025952Y044308D01*
X026034Y044415D01*
X02606Y044478D01*
X026114D01*
X02614Y044415D01*
X026222Y044308D01*
X026328Y044226D01*
X026453Y044175D01*
X026587Y044157D01*
X02672Y044175D01*
X026845Y044226D01*
X026952Y044308D01*
X027034Y044415D01*
X02706Y044478D01*
X027114D01*
X02714Y044415D01*
X027222Y044308D01*
X027329Y044226D01*
X027453Y044175D01*
X027587Y044157D01*
X02772Y044175D01*
X027845Y044226D01*
X027952Y044308D01*
X028034Y044415D01*
X028085Y04454D01*
X028103Y044673D01*
X028085Y044807D01*
X028034Y044931D01*
X027952Y045038D01*
X027845Y04512D01*
X02772Y045172D01*
X027587Y045189D01*
D02*
G37*
G36*
X041959Y033902D02*
X041093D01*
Y033154D01*
X041959D01*
Y033902D01*
D02*
G37*
G36*
X040984D02*
X040118D01*
Y033154D01*
X040984D01*
Y033902D01*
D02*
G37*
G36*
X04001D02*
X039144D01*
Y033154D01*
X04001D01*
Y033902D01*
D02*
G37*
G36*
X042933D02*
X042067D01*
Y033154D01*
X042933D01*
Y033902D01*
D02*
G37*
%LPD*%
G36*
X039852Y03867D02*
X039848Y038674D01*
X039839Y038677D01*
X039823Y03868D01*
X039801Y038682D01*
X039697Y038687D01*
X039537Y038689D01*
Y039004D01*
X039596Y039004D01*
X039848Y039019D01*
X039852Y039022D01*
Y03867D01*
D02*
G37*
G36*
X04236Y038412D02*
X042337Y038389D01*
X042303Y038349D01*
X042291Y038332D01*
X042282Y038318D01*
X042277Y038305D01*
X042275Y038294D01*
X042276Y038285D01*
X042281Y038278D01*
X042289Y038273D01*
X042092Y038352D01*
X042102Y038349D01*
X042113Y038349D01*
X042125Y03835D01*
X042138Y038354D01*
X042151Y03836D01*
X042165Y038368D01*
X042181Y038378D01*
X042197Y038391D01*
X042213Y038406D01*
X042231Y038423D01*
X04236Y038412D01*
D02*
G37*
G36*
X040836Y03867D02*
X040833Y038674D01*
X040823Y038677D01*
X040807Y03868D01*
X040785Y038682D01*
X040682Y038687D01*
X040571Y038688D01*
X040325Y038674D01*
X040322Y03867D01*
Y039022D01*
X040325Y039019D01*
X040334Y039016D01*
X04035Y039013D01*
X040372Y039011D01*
X040476Y039006D01*
X040586Y039004D01*
X040833Y039019D01*
X040836Y039022D01*
Y03867D01*
D02*
G37*
G36*
X04182D02*
X041817Y038674D01*
X041807Y038677D01*
X041792Y03868D01*
X04177Y038682D01*
X041666Y038687D01*
X041555Y038688D01*
X041309Y038674D01*
X041306Y03867D01*
Y039022D01*
X041309Y039019D01*
X041318Y039016D01*
X041334Y039013D01*
X041356Y039011D01*
X04146Y039006D01*
X041571Y039004D01*
X041817Y039019D01*
X04182Y039022D01*
Y03867D01*
D02*
G37*
G36*
X048417Y038575D02*
X048393Y038598D01*
X048368Y038619D01*
X048343Y038637D01*
X048317Y038653D01*
X048291Y038666D01*
X048265Y038677D01*
X048238Y038686D01*
X048216Y038691D01*
X048201Y038688D01*
X048179Y038683D01*
X04816Y038677D01*
X048145Y03867D01*
X048133Y038662D01*
X048124Y038653D01*
X048117Y038642D01*
Y038948D01*
X048124Y038938D01*
X048133Y038929D01*
X048145Y03892D01*
X04816Y038913D01*
X048179Y038907D01*
X048201Y038902D01*
X048216Y0389D01*
X048238Y038905D01*
X048265Y038913D01*
X048291Y038924D01*
X048317Y038938D01*
X048343Y038953D01*
X048368Y038972D01*
X048393Y038993D01*
X048417Y039016D01*
X048417Y038575D01*
D02*
G37*
G36*
X040245Y039278D02*
X040257Y039136D01*
X040263Y039101D01*
X040272Y039073D01*
X040282Y039051D01*
X040294Y039035D01*
X040307Y039026D01*
X040322Y039022D01*
X039852D01*
X039866Y039026D01*
X03988Y039035D01*
X039891Y039051D01*
X039901Y039073D01*
X03991Y039101D01*
X039917Y039136D01*
X039922Y039177D01*
X039928Y039278D01*
X039929Y039337D01*
X040244D01*
X040245Y039278D01*
D02*
G37*
G36*
X037737Y037665D02*
X037736Y037675D01*
X037733Y037683D01*
X037729Y03769D01*
X037722Y037697D01*
X037713Y037702D01*
X037702Y037707D01*
X037689Y03771D01*
X037674Y037713D01*
X037658Y037714D01*
X037639Y037715D01*
Y037813D01*
X037658Y037813D01*
X037674Y037815D01*
X037689Y037817D01*
X037702Y037821D01*
X037713Y037825D01*
X037722Y037831D01*
X037729Y037837D01*
X037733Y037844D01*
X037736Y037853D01*
X037737Y037862D01*
Y037665D01*
D02*
G37*
G36*
X054311Y021047D02*
X054315Y021005D01*
X054317Y020988D01*
X054321Y020973D01*
X054325Y020961D01*
X05433Y02095D01*
X054336Y020942D01*
X054343Y020937D01*
X05435Y020933D01*
X054075D01*
X054082Y020937D01*
X054089Y020942D01*
X054095Y02095D01*
X0541Y020961D01*
X054104Y020973D01*
X054108Y020988D01*
X054111Y021005D01*
X054113Y021025D01*
X054114Y021071D01*
X054311D01*
X054311Y021047D01*
D02*
G37*
G36*
X05691Y021232D02*
X056916Y021219D01*
X056926Y021207D01*
X05694Y021197D01*
X056957Y021189D01*
X056979Y021182D01*
X057005Y021176D01*
X057034Y021172D01*
X057068Y02117D01*
X057105Y021169D01*
Y020972D01*
X057068Y020972D01*
X057005Y020965D01*
X056979Y02096D01*
X056957Y020953D01*
X05694Y020945D01*
X056926Y020934D01*
X056916Y020923D01*
X05691Y02091D01*
X056908Y020895D01*
Y021247D01*
X05691Y021232D01*
D02*
G37*
G36*
X056438Y020895D02*
X056436Y02091D01*
X05643Y020923D01*
X05642Y020934D01*
X056407Y020945D01*
X056389Y020953D01*
X056367Y02096D01*
X056342Y020965D01*
X056312Y020969D01*
X056279Y020972D01*
X056241Y020972D01*
Y021169D01*
X056279Y02117D01*
X056342Y021176D01*
X056367Y021182D01*
X056389Y021189D01*
X056407Y021197D01*
X05642Y021207D01*
X05643Y021219D01*
X056436Y021232D01*
X056438Y021247D01*
Y020895D01*
D02*
G37*
G36*
X037888Y037681D02*
X037881Y037687D01*
X037874Y037693D01*
X037866Y037698D01*
X037857Y037703D01*
X037848Y037706D01*
X037839Y037709D01*
X037828Y037712D01*
X037818Y037713D01*
X037806Y037714D01*
X037794Y037715D01*
Y037813D01*
X037806Y037813D01*
X037818Y037814D01*
X037828Y037816D01*
X037839Y037818D01*
X037848Y037821D01*
X037857Y037825D01*
X037866Y037829D01*
X037874Y037834D01*
X037881Y03784D01*
X037888Y037846D01*
Y037681D01*
D02*
G37*
G36*
X037303Y037853D02*
X037306Y037844D01*
X037311Y037837D01*
X037318Y037831D01*
X037327Y037825D01*
X037337Y037821D01*
X03735Y037817D01*
X037365Y037815D01*
X037382Y037813D01*
X0374Y037813D01*
Y037715D01*
X037382Y037714D01*
X037365Y037713D01*
X03735Y03771D01*
X037337Y037707D01*
X037327Y037702D01*
X037318Y037697D01*
X037311Y03769D01*
X037306Y037683D01*
X037303Y037675D01*
X037302Y037665D01*
Y037862D01*
X037303Y037853D01*
D02*
G37*
G36*
X042619Y038253D02*
X042626Y038248D01*
X042634Y038243D01*
X042643Y038238D01*
X042652Y038235D01*
X042661Y038232D01*
X042672Y038229D01*
X042682Y038228D01*
X042694Y038227D01*
X042706Y038226D01*
Y038128D01*
X042694Y038128D01*
X042682Y038127D01*
X042672Y038125D01*
X042661Y038123D01*
X042652Y03812D01*
X042643Y038116D01*
X042634Y038112D01*
X042626Y038107D01*
X042619Y038101D01*
X042612Y038094D01*
Y03826D01*
X042619Y038253D01*
D02*
G37*
G36*
X047248Y038264D02*
X047246Y038254D01*
X047244Y038237D01*
X04724Y038185D01*
X047238Y038052D01*
X047251Y037825D01*
X047255Y037822D01*
X046903D01*
X046906Y037825D01*
X046909Y037834D01*
X046912Y03785D01*
X046915Y037872D01*
X04692Y037976D01*
X04692Y037983D01*
X046906Y038268D01*
X047251D01*
X047248Y038264D01*
D02*
G37*
G36*
X059233Y021047D02*
X059236Y021005D01*
X059239Y020988D01*
X059242Y020973D01*
X059246Y020961D01*
X059252Y02095D01*
X059257Y020942D01*
X059264Y020937D01*
X059272Y020933D01*
X058996D01*
X059004Y020937D01*
X05901Y020942D01*
X059016Y02095D01*
X059021Y020961D01*
X059026Y020973D01*
X059029Y020988D01*
X059032Y021005D01*
X059034Y021025D01*
X059035Y021071D01*
X059232D01*
X059233Y021047D01*
D02*
G37*
G36*
X034311Y011996D02*
X033563D01*
Y013768D01*
X034311D01*
Y011996D01*
D02*
G37*
G36*
X042646Y042398D02*
X042571Y042394D01*
X042504Y042382D01*
X042445Y042362D01*
X042394Y042335D01*
X04235Y042299D01*
X042315Y042256D01*
X042287Y042205D01*
X042268Y042146D01*
X042256Y042079D01*
X042252Y042004D01*
X041858D01*
X041854Y042079D01*
X041843Y042146D01*
X041823Y042205D01*
X041795Y042256D01*
X04176Y042299D01*
X041717Y042335D01*
X041665Y042362D01*
X041606Y042382D01*
X041539Y042394D01*
X041465Y042398D01*
X042055Y042791D01*
X042646Y042398D01*
D02*
G37*
G36*
X037098Y011996D02*
X03635D01*
Y013768D01*
X037098D01*
Y011996D01*
D02*
G37*
G36*
X035705D02*
X034957D01*
Y013768D01*
X035705D01*
Y011996D01*
D02*
G37*
G36*
X026678Y042737D02*
X026682Y042696D01*
X026686Y042677D01*
X02669Y04266D01*
X026696Y042644D01*
X026703Y042629D01*
X026711Y042615D01*
X02672Y042603D01*
X02673Y042592D01*
X026427D01*
X026437Y042603D01*
X026446Y042615D01*
X026454Y042629D01*
X026461Y042644D01*
X026467Y04266D01*
X026472Y042677D01*
X026476Y042696D01*
X026478Y042716D01*
X02648Y042737D01*
X02648Y04276D01*
X026677D01*
X026678Y042737D01*
D02*
G37*
G36*
X026909Y014988D02*
Y012878D01*
X029709Y011197D01*
X037311D01*
X037512Y010996D01*
Y00974D01*
X034823Y007051D01*
X03074D01*
X028567Y009224D01*
X025882D01*
X025272Y009835D01*
Y014736D01*
X025437Y015283D01*
X026614D01*
X026909Y014988D01*
D02*
G37*
G36*
X038784Y044424D02*
X038763Y044399D01*
X038745Y044374D01*
X038729Y044349D01*
X038716Y044323D01*
X038705Y044296D01*
X038696Y044269D01*
X03869Y044242D01*
X038686Y044214D01*
X038685Y044185D01*
X038488Y044185D01*
X038487Y044214D01*
X038483Y044242D01*
X038477Y044269D01*
X038469Y044296D01*
X038458Y044323D01*
X038444Y044349D01*
X038428Y044374D01*
X03841Y044399D01*
X038389Y044424D01*
X038366Y044448D01*
X038807Y044448D01*
X038784Y044424D01*
D02*
G37*
G36*
X038352Y042785D02*
X03835Y042799D01*
X038344Y042813D01*
X038334Y042824D01*
X03832Y042834D01*
X038302Y042843D01*
X038281Y04285D01*
X038255Y042855D01*
X038226Y042859D01*
X038192Y042861D01*
X038155Y042862D01*
Y043059D01*
X038192Y04306D01*
X038255Y043066D01*
X038281Y043071D01*
X038302Y043078D01*
X03832Y043087D01*
X038334Y043097D01*
X038344Y043109D01*
X03835Y043122D01*
X038352Y043137D01*
Y042785D01*
D02*
G37*
G36*
X038686Y043965D02*
X038689Y043931D01*
X038694Y043902D01*
X038701Y043876D01*
X03871Y043854D01*
X03872Y043836D01*
X038733Y043823D01*
X038748Y043813D01*
X038765Y043807D01*
X038783Y043805D01*
X03839D01*
X038408Y043807D01*
X038425Y043813D01*
X03844Y043823D01*
X038453Y043836D01*
X038464Y043854D01*
X038472Y043876D01*
X038479Y043902D01*
X038484Y043931D01*
X038487Y043965D01*
X038488Y044003D01*
X038685D01*
X038686Y043965D01*
D02*
G37*
G36*
X054312Y039977D02*
X054314Y039949D01*
X054319Y039924D01*
X054325Y039901D01*
X054332Y03988D01*
X054342Y039862D01*
X054353Y039847D01*
X054366Y039834D01*
X05438Y039823D01*
X054396Y039815D01*
X054029D01*
X054045Y039823D01*
X05406Y039834D01*
X054072Y039847D01*
X054083Y039862D01*
X054093Y03988D01*
X054101Y039901D01*
X054106Y039924D01*
X054111Y039949D01*
X054113Y039977D01*
X054114Y040008D01*
X054311D01*
X054312Y039977D01*
D02*
G37*
G36*
X059233D02*
X059236Y039949D01*
X05924Y039924D01*
X059246Y039901D01*
X059254Y03988D01*
X059263Y039862D01*
X059274Y039847D01*
X059287Y039834D01*
X059301Y039823D01*
X059318Y039815D01*
X05895D01*
X058966Y039823D01*
X058981Y039834D01*
X058994Y039847D01*
X059005Y039862D01*
X059014Y03988D01*
X059022Y039901D01*
X059028Y039924D01*
X059032Y039949D01*
X059035Y039977D01*
X059035Y040008D01*
X059232D01*
X059233Y039977D01*
D02*
G37*
G36*
X035858Y039138D02*
X035825Y03917D01*
X035762Y039225D01*
X035733Y039247D01*
X035705Y039266D01*
X035678Y039282D01*
X035652Y039294D01*
X035628Y039302D01*
X035605Y039307D01*
X035583Y039309D01*
Y039407D01*
X035605Y039409D01*
X035628Y039414D01*
X035652Y039423D01*
X035678Y039435D01*
X035705Y03945D01*
X035733Y039469D01*
X035762Y039491D01*
X035825Y039546D01*
X035858Y039579D01*
Y039138D01*
D02*
G37*
G36*
X035432Y039447D02*
X035435Y039439D01*
X03544Y039432D01*
X035447Y039425D01*
X035456Y03942D01*
X035467Y039415D01*
X035479Y039412D01*
X035494Y039409D01*
X035511Y039408D01*
X03553Y039407D01*
Y039309D01*
X035511Y039309D01*
X035494Y039307D01*
X035479Y039305D01*
X035467Y039301D01*
X035456Y039297D01*
X035447Y039291D01*
X03544Y039285D01*
X035435Y039278D01*
X035432Y039269D01*
X035431Y03926D01*
Y039457D01*
X035432Y039447D01*
D02*
G37*
G36*
X056438Y039832D02*
X056436Y039847D01*
X05643Y03986D01*
X05642Y039871D01*
X056407Y039882D01*
X056389Y03989D01*
X056367Y039897D01*
X056342Y039902D01*
X056312Y039906D01*
X056279Y039909D01*
X056241Y039909D01*
Y040106D01*
X056279Y040107D01*
X056342Y040113D01*
X056367Y040119D01*
X056389Y040126D01*
X056407Y040134D01*
X05642Y040144D01*
X05643Y040156D01*
X056436Y040169D01*
X056438Y040184D01*
Y039832D01*
D02*
G37*
G36*
X042252Y041923D02*
X04226Y041793D01*
X042264Y041777D01*
X042267Y041764D01*
X042271Y041755D01*
X042276Y041749D01*
X041835D01*
X041839Y041755D01*
X041843Y041764D01*
X041847Y041777D01*
X04185Y041793D01*
X041852Y041813D01*
X041856Y041861D01*
X041858Y041958D01*
X042252D01*
X042252Y041923D01*
D02*
G37*
G36*
X047449Y041923D02*
X047457Y041793D01*
X04746Y041777D01*
X047464Y041764D01*
X047468Y041755D01*
X047472Y041749D01*
X047031D01*
X047036Y041755D01*
X04704Y041764D01*
X047044Y041777D01*
X047047Y041793D01*
X047049Y041813D01*
X047053Y041861D01*
X047055Y041958D01*
X047449D01*
X047449Y041923D01*
D02*
G37*
G36*
X05691Y040169D02*
X056916Y040156D01*
X056926Y040144D01*
X05694Y040134D01*
X056957Y040126D01*
X056979Y040119D01*
X057005Y040113D01*
X057034Y040109D01*
X057068Y040107D01*
X057105Y040106D01*
Y039909D01*
X057068Y039909D01*
X057005Y039902D01*
X056979Y039897D01*
X056957Y03989D01*
X05694Y039882D01*
X056926Y039871D01*
X056916Y03986D01*
X05691Y039847D01*
X056908Y039832D01*
Y040184D01*
X05691Y040169D01*
D02*
G37*
G36*
X045243Y041266D02*
X045188Y041203D01*
X045166Y041174D01*
X045147Y041146D01*
X045132Y041119D01*
X04512Y041093D01*
X045111Y041069D01*
X045106Y041046D01*
X045104Y041024D01*
X045006D01*
X045004Y041046D01*
X044999Y041069D01*
X044991Y041093D01*
X044979Y041119D01*
X044963Y041146D01*
X044944Y041174D01*
X044922Y041203D01*
X044867Y041266D01*
X044835Y041299D01*
X045276D01*
X045243Y041266D01*
D02*
G37*
G36*
X035432Y037526D02*
X035435Y037518D01*
X03544Y03751D01*
X035447Y037504D01*
X035456Y037499D01*
X035467Y037494D01*
X035479Y037491D01*
X035494Y037488D01*
X035511Y037487D01*
X03553Y037486D01*
Y037388D01*
X035511Y037387D01*
X035494Y037386D01*
X035479Y037383D01*
X035467Y03738D01*
X035456Y037375D01*
X035447Y03737D01*
X03544Y037364D01*
X035435Y037356D01*
X035432Y037348D01*
X035431Y037339D01*
Y037535D01*
X035432Y037526D01*
D02*
G37*
G36*
X05691Y027571D02*
X056916Y027557D01*
X056926Y027546D01*
X05694Y027536D01*
X056957Y027527D01*
X056979Y02752D01*
X057005Y027515D01*
X057034Y027511D01*
X057068Y027509D01*
X057105Y027508D01*
Y027311D01*
X057068Y02731D01*
X057005Y027304D01*
X056979Y027299D01*
X056957Y027292D01*
X05694Y027283D01*
X056926Y027273D01*
X056916Y027261D01*
X05691Y027248D01*
X056908Y027233D01*
Y027585D01*
X05691Y027571D01*
D02*
G37*
G36*
X056438Y027233D02*
X056436Y027248D01*
X05643Y027261D01*
X05642Y027273D01*
X056407Y027283D01*
X056389Y027292D01*
X056367Y027299D01*
X056342Y027304D01*
X056312Y027308D01*
X056279Y02731D01*
X056241Y027311D01*
Y027508D01*
X056279Y027509D01*
X056342Y027515D01*
X056367Y02752D01*
X056389Y027527D01*
X056407Y027536D01*
X05642Y027546D01*
X05643Y027557D01*
X056436Y027571D01*
X056438Y027585D01*
Y027233D01*
D02*
G37*
G36*
X04719Y027509D02*
X046967D01*
X04697Y027515D01*
X046972Y027526D01*
X046974Y027544D01*
X046978Y027633D01*
X04698Y027836D01*
X047177D01*
X04719Y027509D01*
D02*
G37*
G36*
X032585Y028185D02*
X03258Y028181D01*
X032576Y028174D01*
X032572Y028163D01*
X032568Y028149D01*
X032566Y028132D01*
X032561Y028088D01*
X032559Y028031D01*
X032559Y027997D01*
X032165Y027997D01*
X032195Y028323D01*
X032585Y028185D01*
D02*
G37*
G36*
X048417Y035575D02*
X048393Y035598D01*
X048368Y035619D01*
X048343Y035637D01*
X048317Y035653D01*
X048291Y035666D01*
X048265Y035677D01*
X048238Y035686D01*
X04821Y035692D01*
X048182Y035696D01*
X048154Y035697D01*
Y035894D01*
X048182Y035895D01*
X04821Y035899D01*
X048238Y035905D01*
X048265Y035913D01*
X048291Y035924D01*
X048317Y035938D01*
X048343Y035954D01*
X048368Y035972D01*
X048393Y035993D01*
X048417Y036016D01*
X048417Y035575D01*
D02*
G37*
G36*
X041276Y02724D02*
X041216Y027238D01*
X041162Y027232D01*
X041115Y027222D01*
X041074Y027209D01*
X041039Y027191D01*
X041011Y027169D01*
X040989Y027144D01*
X040973Y027114D01*
X040964Y027081D01*
X040962Y027055D01*
X040961Y02696D01*
X040764D01*
X040759Y027088D01*
X040751Y027114D01*
X040735Y027144D01*
X040713Y027169D01*
X040685Y027191D01*
X04065Y027209D01*
X040609Y027222D01*
X040562Y027232D01*
X040509Y027238D01*
X040449Y02724D01*
X040862Y027555D01*
X041276Y02724D01*
D02*
G37*
G36*
X025807Y027035D02*
X025794Y027029D01*
X025782Y027019D01*
X025772Y027005D01*
X025763Y026987D01*
X025756Y026966D01*
X025751Y02694D01*
X025747Y026911D01*
X025745Y026877D01*
X025744Y02684D01*
X025547D01*
X025546Y026877D01*
X02554Y02694D01*
X025535Y026966D01*
X025528Y026987D01*
X025519Y027005D01*
X025509Y027019D01*
X025498Y027029D01*
X025484Y027035D01*
X02547Y027037D01*
X025822D01*
X025807Y027035D01*
D02*
G37*
G36*
X044449Y02724D02*
X044389Y027238D01*
X044335Y027232D01*
X044288Y027222D01*
X044247Y027209D01*
X044213Y027191D01*
X044184Y027169D01*
X044162Y027144D01*
X044146Y027114D01*
X044137Y027081D01*
X044135Y027055D01*
X044134Y02696D01*
X043937D01*
X043932Y027088D01*
X043924Y027114D01*
X043909Y027144D01*
X043887Y027169D01*
X043858Y027191D01*
X043824Y027209D01*
X043783Y027222D01*
X043735Y027232D01*
X043682Y027238D01*
X043622Y02724D01*
X044035Y027555D01*
X044449Y02724D01*
D02*
G37*
G36*
X059233Y027379D02*
X059236Y027351D01*
X05924Y027325D01*
X059246Y027302D01*
X059254Y027282D01*
X059263Y027264D01*
X059274Y027248D01*
X059287Y027235D01*
X059301Y027225D01*
X059318Y027216D01*
X05895D01*
X058966Y027225D01*
X058981Y027235D01*
X058994Y027248D01*
X059005Y027264D01*
X059014Y027282D01*
X059022Y027302D01*
X059028Y027325D01*
X059032Y027351D01*
X059035Y027379D01*
X059035Y027409D01*
X059232D01*
X059233Y027379D01*
D02*
G37*
G36*
X054312D02*
X054314Y027351D01*
X054319Y027325D01*
X054325Y027302D01*
X054332Y027282D01*
X054342Y027264D01*
X054353Y027248D01*
X054366Y027235D01*
X05438Y027225D01*
X054396Y027216D01*
X054029D01*
X054045Y027225D01*
X05406Y027235D01*
X054072Y027248D01*
X054083Y027264D01*
X054093Y027282D01*
X054101Y027302D01*
X054106Y027325D01*
X054111Y027351D01*
X054113Y027379D01*
X054114Y027409D01*
X054311D01*
X054312Y027379D01*
D02*
G37*
G36*
X04724Y035558D02*
X047227Y035552D01*
X047215Y035543D01*
X047205Y035529D01*
X047197Y035511D01*
X04719Y035489D01*
X047184Y035464D01*
X04718Y035434D01*
X047178Y035401D01*
X047177Y035363D01*
X04698D01*
X04698Y035401D01*
X046973Y035464D01*
X046968Y035489D01*
X046961Y035511D01*
X046952Y035529D01*
X046942Y035543D01*
X046931Y035552D01*
X046918Y035558D01*
X046903Y03556D01*
X047255D01*
X04724Y035558D01*
D02*
G37*
G36*
X051998Y030598D02*
X052Y030581D01*
X052002Y030566D01*
X052006Y030553D01*
X05201Y030542D01*
X052016Y030533D01*
X052022Y030526D01*
X052029Y030521D01*
X052038Y030518D01*
X052047Y030517D01*
X05185D01*
X05186Y030518D01*
X051868Y030521D01*
X051875Y030526D01*
X051882Y030533D01*
X051887Y030542D01*
X051892Y030553D01*
X051895Y030566D01*
X051898Y030581D01*
X051899Y030598D01*
X0519Y030617D01*
X051998D01*
X051998Y030598D01*
D02*
G37*
G36*
X05068D02*
X050681Y030581D01*
X050683Y030566D01*
X050687Y030553D01*
X050691Y030542D01*
X050697Y030533D01*
X050703Y030526D01*
X050711Y030521D01*
X050719Y030518D01*
X050728Y030517D01*
X050531D01*
X050541Y030518D01*
X050549Y030521D01*
X050557Y030526D01*
X050563Y030533D01*
X050568Y030542D01*
X050573Y030553D01*
X050576Y030566D01*
X050579Y030581D01*
X05058Y030598D01*
X050581Y030617D01*
X050679D01*
X05068Y030598D01*
D02*
G37*
G36*
X049387Y030846D02*
X049382Y030838D01*
X049377Y03083D01*
X049372Y030822D01*
X049369Y030813D01*
X049366Y030803D01*
X049363Y030793D01*
X049362Y030782D01*
X049361Y030771D01*
X04936Y030759D01*
X049262D01*
X049261Y030771D01*
X04926Y030782D01*
X049259Y030793D01*
X049256Y030803D01*
X049253Y030813D01*
X04925Y030822D01*
X049245Y03083D01*
X04924Y030838D01*
X049235Y030846D01*
X049228Y030853D01*
X049394D01*
X049387Y030846D01*
D02*
G37*
G36*
X052025D02*
X052019Y030838D01*
X052014Y03083D01*
X05201Y030822D01*
X052006Y030813D01*
X052003Y030803D01*
X052001Y030793D01*
X051999Y030782D01*
X051998Y030771D01*
X051998Y030759D01*
X0519D01*
X051899Y030771D01*
X051898Y030782D01*
X051897Y030793D01*
X051894Y030803D01*
X051891Y030813D01*
X051887Y030822D01*
X051883Y03083D01*
X051878Y030838D01*
X051872Y030846D01*
X051866Y030853D01*
X052031D01*
X052025Y030846D01*
D02*
G37*
G36*
X050706D02*
X0507Y030838D01*
X050695Y03083D01*
X050691Y030822D01*
X050687Y030813D01*
X050684Y030803D01*
X050682Y030793D01*
X05068Y030782D01*
X050679Y030771D01*
X050679Y030759D01*
X050581D01*
X05058Y030771D01*
X050579Y030782D01*
X050578Y030793D01*
X050575Y030803D01*
X050572Y030813D01*
X050569Y030822D01*
X050564Y03083D01*
X050559Y030838D01*
X050554Y030846D01*
X050547Y030853D01*
X050713D01*
X050706Y030846D01*
D02*
G37*
G36*
X056438Y033533D02*
X056436Y033547D01*
X05643Y033561D01*
X05642Y033572D01*
X056407Y033582D01*
X056389Y033591D01*
X056367Y033598D01*
X056342Y033603D01*
X056312Y033607D01*
X056279Y033609D01*
X056241Y03361D01*
Y033807D01*
X056279Y033808D01*
X056342Y033814D01*
X056367Y033819D01*
X056389Y033826D01*
X056407Y033835D01*
X05642Y033845D01*
X05643Y033857D01*
X056436Y03387D01*
X056438Y033885D01*
Y033533D01*
D02*
G37*
G36*
X05691Y03387D02*
X056916Y033857D01*
X056926Y033845D01*
X05694Y033835D01*
X056957Y033826D01*
X056979Y033819D01*
X057005Y033814D01*
X057034Y03381D01*
X057068Y033808D01*
X057105Y033807D01*
Y03361D01*
X057068Y033609D01*
X057005Y033603D01*
X056979Y033598D01*
X056957Y033591D01*
X05694Y033582D01*
X056926Y033572D01*
X056916Y033561D01*
X05691Y033547D01*
X056908Y033533D01*
Y033885D01*
X05691Y03387D01*
D02*
G37*
G36*
X059233Y033678D02*
X059236Y03365D01*
X05924Y033625D01*
X059246Y033602D01*
X059254Y033581D01*
X059263Y033563D01*
X059274Y033547D01*
X059287Y033534D01*
X059301Y033524D01*
X059318Y033516D01*
X05895D01*
X058966Y033524D01*
X058981Y033534D01*
X058994Y033547D01*
X059005Y033563D01*
X059014Y033581D01*
X059022Y033602D01*
X059028Y033625D01*
X059032Y03365D01*
X059035Y033678D01*
X059035Y033709D01*
X059232D01*
X059233Y033678D01*
D02*
G37*
G36*
X049361Y030598D02*
X049362Y030581D01*
X049365Y030566D01*
X049368Y030553D01*
X049373Y030542D01*
X049378Y030533D01*
X049384Y030526D01*
X049392Y030521D01*
X0494Y030518D01*
X049409Y030517D01*
X049213D01*
X049222Y030518D01*
X04923Y030521D01*
X049238Y030526D01*
X049244Y030533D01*
X04925Y030542D01*
X049254Y030553D01*
X049257Y030566D01*
X04926Y030581D01*
X049261Y030598D01*
X049262Y030617D01*
X04936D01*
X049361Y030598D01*
D02*
G37*
G36*
X054312Y033678D02*
X054314Y03365D01*
X054319Y033625D01*
X054325Y033602D01*
X054332Y033581D01*
X054342Y033563D01*
X054353Y033547D01*
X054366Y033534D01*
X05438Y033524D01*
X054396Y033516D01*
X054029D01*
X054045Y033524D01*
X05406Y033534D01*
X054072Y033547D01*
X054083Y033563D01*
X054093Y033581D01*
X054101Y033602D01*
X054106Y033625D01*
X054111Y03365D01*
X054113Y033678D01*
X054114Y033709D01*
X054311D01*
X054312Y033678D01*
D02*
G37*
G36*
X025745Y026741D02*
X025751Y026678D01*
X025756Y026652D01*
X025763Y026631D01*
X025772Y026613D01*
X025782Y026599D01*
X025794Y026589D01*
X025807Y026583D01*
X025822Y026581D01*
X02547D01*
X025484Y026583D01*
X025498Y026589D01*
X025509Y026599D01*
X025519Y026613D01*
X025528Y026631D01*
X025535Y026652D01*
X02554Y026678D01*
X025544Y026707D01*
X025546Y026741D01*
X025547Y026778D01*
X025744D01*
X025745Y026741D01*
D02*
G37*
G36*
X03112Y023066D02*
X03111Y023055D01*
X0311Y02304D01*
X031089Y023022D01*
X031079Y023002D01*
X031057Y022952D01*
X031035Y022889D01*
X031011Y022814D01*
X030842Y02313D01*
X030872Y023122D01*
X030901Y023116D01*
X030928Y023112D01*
X030953Y023111D01*
X030977Y023113D01*
X030999Y023117D01*
X031019Y023123D01*
X031039Y023132D01*
X031056Y023143D01*
X031072Y023157D01*
X03112Y023066D01*
D02*
G37*
G36*
X027897Y023065D02*
X027885Y023075D01*
X027873Y023084D01*
X02786Y023092D01*
X027845Y023099D01*
X027828Y023105D01*
X027811Y02311D01*
X027792Y023113D01*
X027772Y023116D01*
X027751Y023118D01*
X027728Y023118D01*
Y023315D01*
X027751Y023315D01*
X027792Y02332D01*
X027811Y023323D01*
X027828Y023328D01*
X027845Y023334D01*
X02786Y023341D01*
X027873Y023349D01*
X027885Y023358D01*
X027897Y023368D01*
Y023065D01*
D02*
G37*
G36*
X038209Y037256D02*
X038215Y037243D01*
X038225Y037231D01*
X038239Y037221D01*
X038257Y037212D01*
X038278Y037205D01*
X038304Y0372D01*
X038333Y037196D01*
X038367Y037194D01*
X038404Y037193D01*
Y036996D01*
X038367Y036995D01*
X038304Y036989D01*
X038278Y036984D01*
X038257Y036977D01*
X038239Y036968D01*
X038225Y036958D01*
X038215Y036946D01*
X038209Y036933D01*
X038207Y036919D01*
Y03727D01*
X038209Y037256D01*
D02*
G37*
G36*
X040836Y036367D02*
X040833Y036371D01*
X040823Y036374D01*
X040807Y036377D01*
X040785Y036379D01*
X040682Y036384D01*
X040571Y036385D01*
X040325Y036371D01*
X040322Y036367D01*
Y036719D01*
X040325Y036716D01*
X040334Y036713D01*
X04035Y03671D01*
X040372Y036707D01*
X040476Y036702D01*
X040586Y036701D01*
X040833Y036716D01*
X040836Y036719D01*
Y036367D01*
D02*
G37*
G36*
X04182D02*
X041817Y036371D01*
X041807Y036374D01*
X041792Y036377D01*
X04177Y036379D01*
X041666Y036384D01*
X041555Y036385D01*
X041309Y036371D01*
X041306Y036367D01*
Y036719D01*
X041309Y036716D01*
X041318Y036713D01*
X041334Y03671D01*
X041356Y036707D01*
X04146Y036702D01*
X041571Y036701D01*
X041817Y036716D01*
X04182Y036719D01*
Y036367D01*
D02*
G37*
G36*
X035858Y037217D02*
X035825Y037249D01*
X035762Y037304D01*
X035733Y037326D01*
X035705Y037345D01*
X035678Y03736D01*
X035652Y037372D01*
X035628Y037381D01*
X035605Y037386D01*
X035583Y037388D01*
Y037486D01*
X035605Y037488D01*
X035628Y037493D01*
X035652Y037502D01*
X035678Y037514D01*
X035705Y037529D01*
X035733Y037548D01*
X035762Y03757D01*
X035825Y037625D01*
X035858Y037657D01*
Y037217D01*
D02*
G37*
G36*
X031087Y022137D02*
X031074Y022123D01*
X031063Y022106D01*
X031053Y022087D01*
X031044Y022065D01*
X031037Y022042D01*
X031031Y022016D01*
X031027Y021987D01*
X031024Y021957D01*
X031022Y021888D01*
X030768Y022142D01*
X030804Y022142D01*
X030867Y022147D01*
X030895Y022151D01*
X030921Y022157D01*
X030945Y022164D01*
X030967Y022173D01*
X030986Y022183D01*
X031003Y022194D01*
X031017Y022207D01*
X031087Y022137D01*
D02*
G37*
G36*
X033742Y022707D02*
X033726Y022722D01*
X033709Y022736D01*
X033691Y022748D01*
X033671Y022758D01*
X033651Y022767D01*
X03363Y022774D01*
X033608Y02278D01*
X033585Y022784D01*
X033561Y022787D01*
X033535Y022787D01*
Y022984D01*
X033561Y022985D01*
X033585Y022987D01*
X033608Y022992D01*
X03363Y022997D01*
X033651Y023004D01*
X033671Y023013D01*
X033691Y023024D01*
X033709Y023036D01*
X033726Y02305D01*
X033742Y023065D01*
Y022707D01*
D02*
G37*
G36*
X039349Y036983D02*
X039344Y036986D01*
X039332Y036988D01*
X039314Y03699D01*
X039226Y036994D01*
X039023Y036996D01*
Y037193D01*
X039349Y037206D01*
Y036983D01*
D02*
G37*
G36*
X033375Y024971D02*
Y02485D01*
X031238Y022713D01*
X031196Y022742D01*
X031197Y022743D01*
X031203Y022755D01*
X031225Y022826D01*
X031244Y022878D01*
X03126Y022916D01*
X031265Y022925D01*
X031266Y022927D01*
X033329Y02499D01*
X033375Y024971D01*
D02*
G37*
G36*
X025791Y025184D02*
X025778Y025178D01*
X025766Y025169D01*
X025756Y025155D01*
X025748Y025137D01*
X025741Y025115D01*
X025735Y02509D01*
X025731Y02506D01*
X025729Y025027D01*
X025728Y024989D01*
X025531D01*
X025531Y025027D01*
X025525Y02509D01*
X025519Y025115D01*
X025512Y025137D01*
X025504Y025155D01*
X025494Y025169D01*
X025482Y025178D01*
X025469Y025184D01*
X025454Y025186D01*
X025806D01*
X025791Y025184D01*
D02*
G37*
G36*
X025804Y026109D02*
X025788Y026104D01*
X025774Y026094D01*
X025762Y02608D01*
X025752Y026062D01*
X025743Y026041D01*
X025737Y026015D01*
X025732Y025985D01*
X025729Y025952D01*
X025728Y025915D01*
X025531D01*
X025531Y025952D01*
X025526Y026015D01*
X025522Y026041D01*
X025516Y026062D01*
X025509Y02608D01*
X025501Y026094D01*
X025492Y026104D01*
X025481Y026109D01*
X02547Y026111D01*
X025822D01*
X025804Y026109D01*
D02*
G37*
G36*
X025729Y025816D02*
X025735Y025753D01*
X025741Y025727D01*
X025748Y025705D01*
X025756Y025688D01*
X025766Y025674D01*
X025778Y025664D01*
X025791Y025658D01*
X025806Y025656D01*
X025454D01*
X025469Y025658D01*
X025482Y025664D01*
X025494Y025674D01*
X025504Y025688D01*
X025512Y025705D01*
X025519Y025727D01*
X025525Y025753D01*
X025528Y025782D01*
X025531Y025816D01*
X025531Y025853D01*
X025728D01*
X025729Y025816D01*
D02*
G37*
G36*
X0359Y036079D02*
X035891Y036078D01*
X035882Y036077D01*
X035873Y036075D01*
X035863Y036072D01*
X035854Y036068D01*
X035845Y036064D01*
X035837Y036058D01*
X035828Y036052D01*
X035819Y036044D01*
X03581Y036036D01*
X035741Y036106D01*
X035749Y036114D01*
X035756Y036123D01*
X035763Y036132D01*
X035768Y036141D01*
X035773Y03615D01*
X035777Y036159D01*
X03578Y036168D01*
X035782Y036177D01*
X035783Y036186D01*
X035783Y036196D01*
X0359Y036079D01*
D02*
G37*
G36*
X025145Y027034D02*
X025139Y027026D01*
X025133Y027012D01*
X025128Y026993D01*
X025124Y026968D01*
X02512Y026937D01*
X025116Y02686D01*
X025115Y026801D01*
X025128Y026626D01*
X025133Y026606D01*
X025139Y026593D01*
X025145Y026584D01*
X025152Y026581D01*
X0248D01*
X024808Y026584D01*
X024814Y026593D01*
X02482Y026606D01*
X024825Y026626D01*
X024829Y02665D01*
X024832Y026681D01*
X024837Y026758D01*
X024838Y026817D01*
X024825Y026993D01*
X02482Y027012D01*
X024814Y027026D01*
X024808Y027034D01*
X0248Y027037D01*
X025152D01*
X025145Y027034D01*
D02*
G37*
G36*
X047925Y035973D02*
X047931Y035957D01*
X047941Y035942D01*
X047954Y035929D01*
X047972Y035918D01*
X047994Y035909D01*
X04802Y035903D01*
X04805Y035898D01*
X048083Y035895D01*
X048121Y035894D01*
Y035697D01*
X048083Y035696D01*
X04805Y035693D01*
X04802Y035688D01*
X047994Y035681D01*
X047972Y035672D01*
X047954Y035661D01*
X047941Y035649D01*
X047931Y035634D01*
X047925Y035617D01*
X047923Y035598D01*
Y035992D01*
X047925Y035973D01*
D02*
G37*
G36*
X049598Y025029D02*
X049595Y025032D01*
X049585Y025035D01*
X049569Y025038D01*
X049547Y025041D01*
X049443Y025046D01*
X049283Y025047D01*
Y025362D01*
X049343Y025362D01*
X049595Y025377D01*
X049598Y025381D01*
Y025029D01*
D02*
G37*
G36*
X044558D02*
X044556Y025043D01*
X04455Y025057D01*
X044541Y025068D01*
X044527Y025078D01*
X044509Y025087D01*
X044487Y025094D01*
X044462Y025099D01*
X044432Y025103D01*
X044399Y025106D01*
X044361Y025106D01*
Y025303D01*
X044399Y025304D01*
X044462Y02531D01*
X044487Y025316D01*
X044509Y025323D01*
X044527Y025331D01*
X044541Y025341D01*
X04455Y025353D01*
X044556Y025366D01*
X044558Y025381D01*
Y025029D01*
D02*
G37*
G36*
X039993Y025385D02*
X039999Y025371D01*
X040009Y025359D01*
X040022Y025348D01*
X04004Y025339D01*
X040062Y025332D01*
X040087Y025326D01*
X040117Y025322D01*
X04015Y02532D01*
X040188Y025319D01*
Y025122D01*
X04015Y025121D01*
X040087Y025115D01*
X040062Y02511D01*
X04004Y025104D01*
X040022Y025096D01*
X040009Y025086D01*
X039999Y025075D01*
X039993Y025062D01*
X039991Y025048D01*
Y0254D01*
X039993Y025385D01*
D02*
G37*
G36*
X039852Y036367D02*
X039848Y036371D01*
X039839Y036374D01*
X039823Y036377D01*
X039801Y036379D01*
X039697Y036384D01*
X039537Y036386D01*
Y036701D01*
X039596Y036701D01*
X039848Y036716D01*
X039852Y036719D01*
Y036367D01*
D02*
G37*
G36*
X0359Y036472D02*
X035891Y036472D01*
X035882Y036471D01*
X035873Y036469D01*
X035863Y036466D01*
X035854Y036462D01*
X035845Y036457D01*
X035837Y036452D01*
X035828Y036445D01*
X035819Y036438D01*
X03581Y03643D01*
X035741Y036499D01*
X035749Y036508D01*
X035756Y036517D01*
X035763Y036526D01*
X035768Y036534D01*
X035773Y036543D01*
X035777Y036552D01*
X03578Y036562D01*
X035782Y036571D01*
X035783Y03658D01*
X035783Y036589D01*
X0359Y036472D01*
D02*
G37*
D10*
X040705Y01674D02*
G03*
X041705Y01774I0J001D01*
G01*
X045146Y022121D02*
G03*
X044853Y022828I-001J0D01*
G01*
X03442Y017256D02*
G03*
X035128Y017549I0J001D01*
G01*
X023743Y017256D02*
G03*
X023315Y017079I0J-000605D01*
G01*
D02*
G03*
X023169Y016727I000352J-000352D01*
G01*
X042439Y023088D02*
G03*
X042146Y022381I000707J-000707D01*
G01*
X035309Y017731D02*
G03*
X035602Y018438I-000707J000707D01*
G01*
X036439Y023386D02*
G03*
X035831Y023134I0J-00086D01*
G01*
D02*
G03*
X035602Y022583I000551J-000551D01*
G01*
X04315Y023386D02*
G03*
X042443Y023093I0J-001D01*
G01*
X041705Y01774D02*
Y023028D01*
X030051Y01674D02*
X040705D01*
X045146D02*
Y022121D01*
X044795Y022886D02*
X044853Y022828D01*
X044154Y01674D02*
X046154D01*
X035128Y017549D02*
X035309Y017731D01*
X023743Y017256D02*
X03442D01*
X023169Y011917D02*
Y016727D01*
X02563Y025421D02*
Y026346D01*
X02737Y01815D02*
X031331D01*
X044035Y025205D02*
X044793D01*
X026051Y01464D02*
X026051Y01464D01*
X030051Y01674D02*
X030051Y01674D01*
X028051Y01674D02*
X029051D01*
X030051D01*
X028051Y01464D02*
Y016071D01*
X02563Y023217D02*
X028051D01*
X02563D02*
Y025421D01*
Y026346D02*
X025646D01*
Y027272D01*
X025646Y027272D01*
X026051Y016071D02*
X027051D01*
Y016071D01*
X042154D02*
X043154D01*
Y012177D02*
Y016071D01*
X042844Y011868D02*
X043154Y012177D01*
X042114Y011868D02*
X042844D01*
X043154Y016071D02*
Y016071D01*
X054213Y020461D02*
Y021071D01*
X056673D01*
X059134D01*
Y020461D02*
Y021071D01*
X054213Y02676D02*
Y027409D01*
X056673D01*
X059134Y02676D02*
Y027409D01*
X056673D02*
X059134D01*
X054213Y033059D02*
Y033709D01*
X056673D01*
X059134Y033059D02*
Y033709D01*
X056673D02*
X059134D01*
X054213Y039358D02*
Y040008D01*
X056673D01*
X059134Y039358D02*
Y040008D01*
X056673D02*
X059134D01*
X044791Y025203D02*
X044793Y025205D01*
X046154Y01674D02*
X046154Y01674D01*
X043154D02*
Y020717D01*
X041705Y023028D02*
X041709D01*
X042984Y020886D02*
X043154Y020717D01*
X033098Y022886D02*
X033925D01*
X032244Y022031D02*
X033098Y022886D01*
X032244Y019063D02*
Y022031D01*
X031331Y01815D02*
X032244Y019063D01*
X02737Y018146D02*
Y01815D01*
X036173Y020886D02*
X041016D01*
X049833Y025205D02*
Y025211D01*
X038587Y04363D02*
Y044673D01*
X038587Y044673D02*
X038587Y044673D01*
X047945Y038795D02*
X048642D01*
X048642Y038795D01*
X047748Y035795D02*
X048642D01*
X048642Y035795D01*
X039461Y037059D02*
Y037094D01*
X037972D02*
X039461D01*
X039754Y02522D02*
X040862D01*
Y027398D01*
X044035Y025205D02*
Y027398D01*
X047079D02*
X047205D01*
X047079D02*
Y035795D01*
X026579Y042961D02*
X038587D01*
X026579Y042437D02*
Y042961D01*
X042146Y01674D02*
Y022381D01*
X042439Y023088D02*
X042443Y023093D01*
X037876Y024726D02*
X038717Y023886D01*
X037876Y024726D02*
Y02522D01*
X038717Y023886D02*
X039754D01*
X038142Y023394D02*
X039746D01*
X037395Y024141D02*
Y02589D01*
Y024141D02*
X038142Y023394D01*
X036913Y02589D02*
X037395D01*
X037876D01*
X036439Y023386D02*
X037608D01*
X035602Y018438D02*
Y022583D01*
X038839Y025205D02*
Y025224D01*
X046646Y024083D02*
Y025205D01*
Y024083D02*
X04685Y023878D01*
X047732D01*
X046083Y025205D02*
X046646D01*
X047126D01*
X04311Y023386D02*
X047715D01*
D16*
X051949Y030343D02*
D03*
Y029673D02*
D03*
X05063Y030343D02*
D03*
Y029673D02*
D03*
X049311Y030343D02*
D03*
Y029673D02*
D03*
X056673Y021071D02*
D03*
Y02174D02*
D03*
Y027409D02*
D03*
Y028079D02*
D03*
Y033709D02*
D03*
Y034378D02*
D03*
X056673Y040008D02*
D03*
Y040677D02*
D03*
X037067Y03711D02*
D03*
Y03778D02*
D03*
X037972Y037764D02*
D03*
Y037094D02*
D03*
X038587Y042961D02*
D03*
Y04363D02*
D03*
X040087Y038177D02*
D03*
Y038846D02*
D03*
X041071Y038177D02*
D03*
Y038846D02*
D03*
X042055Y038177D02*
D03*
Y038846D02*
D03*
X040087Y037213D02*
D03*
Y036543D02*
D03*
X041071Y037213D02*
D03*
Y036543D02*
D03*
X042055Y037213D02*
D03*
Y036543D02*
D03*
X0425Y032858D02*
D03*
Y033528D02*
D03*
X041526Y032858D02*
D03*
Y033528D02*
D03*
X040551Y032858D02*
D03*
Y033528D02*
D03*
X039577Y032858D02*
D03*
Y033528D02*
D03*
X026051Y01674D02*
D03*
Y016071D02*
D03*
X027051Y016071D02*
D03*
Y01674D02*
D03*
X028051Y016071D02*
D03*
Y01674D02*
D03*
X029051Y016071D02*
D03*
Y01674D02*
D03*
X030051Y01674D02*
D03*
Y016071D02*
D03*
X046154Y01674D02*
D03*
Y016071D02*
D03*
X045146D02*
D03*
Y01674D02*
D03*
X044154Y016071D02*
D03*
Y01674D02*
D03*
X043154Y016071D02*
D03*
Y01674D02*
D03*
X042154Y016071D02*
D03*
Y01674D02*
D03*
X038602Y032858D02*
D03*
Y033528D02*
D03*
X02628Y030362D02*
D03*
Y029693D02*
D03*
X035976Y023886D02*
D03*
Y024555D02*
D03*
X036913Y02589D02*
D03*
Y02522D02*
D03*
X037876Y02589D02*
D03*
Y02522D02*
D03*
X038839Y025205D02*
D03*
Y025874D02*
D03*
X039756Y025224D02*
D03*
Y025894D02*
D03*
X047126Y025205D02*
D03*
Y025874D02*
D03*
X046083D02*
D03*
Y025205D02*
D03*
X044793Y025874D02*
D03*
Y025205D02*
D03*
X049833Y025874D02*
D03*
Y025205D02*
D03*
D20*
X049291Y012232D02*
D03*
Y007665D02*
D03*
X047913D02*
D03*
Y012232D02*
D03*
X052008D02*
D03*
Y007665D02*
D03*
X05063D02*
D03*
Y012232D02*
D03*
D27*
X03728Y037154D02*
X037319Y037193D01*
X042055Y036539D02*
Y036543D01*
X044701Y038177D02*
X045055Y038531D01*
X042528Y038177D02*
X044701D01*
X049311Y030937D02*
Y030957D01*
Y030343D02*
Y030937D01*
X051949Y030343D02*
Y030937D01*
Y030343D02*
X051949Y030343D01*
X05063Y030343D02*
Y030937D01*
Y030343D02*
X05063Y030343D01*
X033626Y033921D02*
X035902Y036197D01*
X030766Y022886D02*
X03087D01*
X033339Y025354D01*
X030766Y021886D02*
X033626Y024746D01*
Y033921D01*
X033339Y025354D02*
Y034028D01*
X035902Y036591D01*
X037083Y037764D02*
X037972D01*
X037067Y03778D02*
X037083Y037764D01*
X035256Y037437D02*
X036083D01*
X035256Y039358D02*
X036083D01*
X045055Y038531D02*
Y041524D01*
X047744Y037583D02*
X047748Y037587D01*
X022331Y033646D02*
Y035185D01*
Y033646D02*
X02628D01*
Y030362D02*
Y033646D01*
X043276Y039398D02*
X043504D01*
X042055Y038177D02*
X043276Y039398D01*
D28*
X032362Y028354D02*
X032461Y028453D01*
X032362Y026366D02*
Y028354D01*
X040075Y041878D02*
X04098D01*
X022331D02*
X040075D01*
X047252Y041524D02*
Y042594D01*
X042055Y041524D02*
Y042594D01*
X04098Y041878D02*
Y042594D01*
X042055D01*
X047252D01*
X022331Y037429D02*
X027587D01*
D29*
X021909Y009949D02*
X023169D01*
X021909Y01802D02*
X022303D01*
X021909Y021209D02*
X026437D01*
X027224D01*
X028051D01*
X022303Y029476D02*
X024902D01*
X030766Y023886D02*
Y025311D01*
X021909Y009949D02*
Y01802D01*
Y021209D01*
X030766Y025311D02*
Y028453D01*
X024902D02*
Y029476D01*
Y028453D02*
X030766D01*
D32*
X032461D02*
D03*
X028524D02*
D03*
D33*
X024587Y044673D02*
D03*
X025587D02*
D03*
X026587D02*
D03*
X027587D02*
D03*
X028587D02*
D03*
X029587D02*
D03*
X030587D02*
D03*
X031587D02*
D03*
X032587D02*
D03*
X033587D02*
D03*
X034587D02*
D03*
X035587D02*
D03*
X036587D02*
D03*
X037587D02*
D03*
X038587D02*
D03*
X039587D02*
D03*
X048642Y038795D02*
D03*
Y035795D02*
D03*
X036083Y039358D02*
D03*
Y037437D02*
D03*
X047252Y041524D02*
D03*
X048252D02*
D03*
X049252D02*
D03*
X050252D02*
D03*
X046055Y041524D02*
D03*
X045055D02*
D03*
X044055D02*
D03*
X043055D02*
D03*
X042055D02*
D03*
X055728Y013807D02*
D03*
X05376D02*
D03*
D34*
X022421Y032469D02*
D03*
Y044673D02*
D03*
X051949Y032469D02*
D03*
X051949Y044673D02*
D03*
D35*
X027587Y042508D02*
D03*
X025587D02*
D03*
X026587Y043508D02*
D03*
X030766Y020886D02*
D03*
Y021886D02*
D03*
Y022886D02*
D03*
Y023886D02*
D03*
X033925D02*
D03*
Y022886D02*
D03*
Y021886D02*
D03*
Y020886D02*
D03*
D36*
X028051Y007856D02*
D03*
X044154D02*
D03*
D37*
X030051Y01464D02*
D03*
X026051D02*
D03*
X028051D02*
D03*
X046154D02*
D03*
X042154D02*
D03*
X044154D02*
D03*
X05872Y009949D02*
D03*
Y011917D02*
D03*
X056673Y023217D02*
D03*
Y019673D02*
D03*
Y029516D02*
D03*
Y025972D02*
D03*
Y035815D02*
D03*
Y032272D02*
D03*
Y042114D02*
D03*
Y038571D02*
D03*
X023169Y011917D02*
D03*
Y009949D02*
D03*
D38*
X059429Y044673D02*
D03*
Y007665D02*
D03*
X022421Y032469D02*
D03*
Y044673D02*
D03*
X051949Y032469D02*
D03*
Y044673D02*
D03*
X022421Y007665D02*
D03*
D39*
X038091Y007856D02*
D03*
X034154D02*
D03*
D40*
X059134Y020461D02*
D03*
X054213D02*
D03*
X059134Y022429D02*
D03*
X054213D02*
D03*
X059134Y02676D02*
D03*
X054213D02*
D03*
X059134Y028728D02*
D03*
X054213D02*
D03*
X059134Y033059D02*
D03*
X054213D02*
D03*
X059134Y035028D02*
D03*
X054213D02*
D03*
X059134Y039358D02*
D03*
X054213D02*
D03*
X059134Y041327D02*
D03*
X054213D02*
D03*
D41*
X038882Y014665D02*
D03*
X039945D02*
D03*
X04098D02*
D03*
X042098Y01385D02*
D03*
Y013154D02*
D03*
X0595Y013D02*
D03*
X0585D02*
D03*
X058Y012D02*
D03*
X0575Y01D02*
D03*
X0565D02*
D03*
X0555D02*
D03*
X054Y013D02*
D03*
Y011D02*
D03*
X0545Y01D02*
D03*
X054Y009D02*
D03*
X053D02*
D03*
X0535Y008D02*
D03*
X053Y007D02*
D03*
X0515Y008D02*
D03*
X05Y007D02*
D03*
X0485Y008D02*
D03*
X05Y012D02*
D03*
X047D02*
D03*
X046D02*
D03*
X0455Y013D02*
D03*
X045Y012D02*
D03*
X0445Y013D02*
D03*
X044Y012D02*
D03*
X0445Y011D02*
D03*
X044Y01D02*
D03*
X0435Y011D02*
D03*
X043Y01D02*
D03*
X0425Y009D02*
D03*
X042Y008D02*
D03*
X0415Y009D02*
D03*
X041Y008D02*
D03*
X04D02*
D03*
X039D02*
D03*
X022303Y01802D02*
D03*
X028051Y023217D02*
D03*
X023839Y026406D02*
D03*
X028051Y021209D02*
D03*
X026437D02*
D03*
X027224D02*
D03*
X022303Y029476D02*
D03*
X032343Y010807D02*
D03*
X022331Y041878D02*
D03*
Y037429D02*
D03*
X027587D02*
D03*
X035823Y027398D02*
D03*
X026579Y042437D02*
D03*
D42*
X04108Y030126D02*
D03*
X038118D02*
D03*
X039105D02*
D03*
X040093D02*
D03*
X042067D02*
D03*
D43*
X032362Y026366D02*
D03*
D44*
X03598Y024555D02*
D03*
X042114Y011868D02*
D03*
X041567Y03948D02*
D03*
X044157Y039398D02*
D03*
X037319Y037193D02*
D03*
X043295Y035189D02*
D03*
X042055Y036539D02*
D03*
X042528Y038177D02*
D03*
X042055Y038846D02*
D03*
X041075Y038839D02*
D03*
X040091Y038846D02*
D03*
X051949Y030937D02*
D03*
X05063D02*
D03*
X049311D02*
D03*
X051949Y029673D02*
D03*
X05063D02*
D03*
X049311D02*
D03*
X039746Y023394D02*
D03*
X024976Y027272D02*
D03*
X026051Y01674D02*
D03*
X027051Y016071D02*
D03*
X042146Y01674D02*
D03*
X043154Y016071D02*
D03*
X038602Y033512D02*
D03*
X039577Y033528D02*
D03*
X040551Y033512D02*
D03*
X041526Y033528D02*
D03*
X0425Y033512D02*
D03*
X037608Y023386D02*
D03*
X039754Y023886D02*
D03*
X039754Y02522D02*
D03*
X044791Y025203D02*
D03*
X044795Y022886D02*
D03*
X046083Y025874D02*
D03*
X035902Y036591D02*
D03*
Y036197D02*
D03*
X041709Y023028D02*
D03*
X041016Y020886D02*
D03*
X042984D02*
D03*
X027051Y01674D02*
D03*
X02737Y018146D02*
D03*
X036173Y020886D02*
D03*
X049833Y025211D02*
D03*
X041071Y036543D02*
D03*
X040087D02*
D03*
X037972Y037764D02*
D03*
X047744Y037583D02*
D03*
X022331Y035185D02*
D03*
X02628Y029693D02*
D03*
X038839Y025224D02*
D03*
X047732Y023878D02*
D03*
X047715Y023386D02*
D03*
X039496Y041331D02*
D03*
X035976Y023886D02*
D03*
X0255Y018D02*
D03*
Y03D02*
D03*
X024Y033D02*
D03*
X0255Y036D02*
D03*
X024Y039D02*
D03*
X027Y027D02*
D03*
X0285Y03D02*
D03*
X027Y033D02*
D03*
X0285Y036D02*
D03*
X027Y039D02*
D03*
X0315Y012D02*
D03*
X03Y021D02*
D03*
X0315Y024D02*
D03*
X03Y027D02*
D03*
X0315Y03D02*
D03*
X03Y033D02*
D03*
X0315Y036D02*
D03*
X03Y039D02*
D03*
X0345Y018D02*
D03*
Y024D02*
D03*
Y03D02*
D03*
X033Y033D02*
D03*
X0345Y036D02*
D03*
X033Y039D02*
D03*
X0375Y012D02*
D03*
X036Y015D02*
D03*
X0375Y018D02*
D03*
Y03D02*
D03*
X036Y033D02*
D03*
X0375Y036D02*
D03*
X0405Y012D02*
D03*
X039Y027D02*
D03*
X042D02*
D03*
X0435Y03D02*
D03*
X042Y033D02*
D03*
X0435Y036D02*
D03*
Y042D02*
D03*
X0465Y03D02*
D03*
Y036D02*
D03*
Y042D02*
D03*
X048Y021D02*
D03*
Y027D02*
D03*
X0495Y036D02*
D03*
Y042D02*
D03*
X051Y021D02*
D03*
X0525Y024D02*
D03*
X051Y027D02*
D03*
X0525Y03D02*
D03*
X051Y033D02*
D03*
Y039D02*
D03*
X0525Y042D02*
D03*
X0555Y012D02*
D03*
Y024D02*
D03*
Y03D02*
D03*
Y036D02*
D03*
Y042D02*
D03*
X057Y015D02*
D03*
X0585Y024D02*
D03*
X057Y027D02*
D03*
X0585Y03D02*
D03*
X057Y033D02*
D03*
X0585Y036D02*
D03*
Y042D02*
D03*
X044106Y018602D02*
D03*
X044094Y019961D02*
D03*
X044087Y021406D02*
D03*
X039902Y035146D02*
D03*
D45*
X035256Y039358D02*
D03*
X034587D02*
D03*
X035256Y037437D02*
D03*
X034587D02*
D03*
X047079Y035795D02*
D03*
X047748D02*
D03*
X047748Y037587D02*
D03*
X047079D02*
D03*
X025646Y026346D02*
D03*
X024976D02*
D03*
X024961Y025421D02*
D03*
X02563D02*
D03*
X024976Y027272D02*
D03*
X025646D02*
D03*
X043504Y039398D02*
D03*
X044173D02*
D03*
X043307Y035185D02*
D03*
X043976D02*
D03*
D46*
X047945Y038795D02*
D03*
X047079Y039169D02*
D03*
Y038421D02*
D03*
D47*
X03924Y012514D02*
D03*
Y01464D02*
D03*
D48*
X036713Y013467D02*
D03*
Y014974D02*
D03*
X035319Y013467D02*
D03*
Y014974D02*
D03*
X033925Y013467D02*
D03*
Y014974D02*
D03*
X036713Y010848D02*
D03*
Y012356D02*
D03*
X035319Y010848D02*
D03*
Y012356D02*
D03*
X033925Y010848D02*
D03*
Y012356D02*
D03*
D49*
X022331Y026406D02*
D03*
X023839D02*
D03*
D50*
X041071Y038846D02*
X042055D01*
X041071Y036543D02*
X042055D01*
X040087Y038846D02*
Y041866D01*
X039461Y037094D02*
Y038839D01*
X040091Y038846D02*
X041071D01*
X040087D02*
X040091D01*
X039469D02*
X040087D01*
X039461Y038839D02*
X039469Y038846D01*
X040075Y041878D02*
X040087Y041866D01*
X040087Y036543D02*
X041071D01*
X047079Y037587D02*
Y038421D01*
X047079Y037587D02*
X047079Y037587D01*
X039461Y036543D02*
X040087D01*
X039461D02*
Y037059D01*
X049083Y025205D02*
Y027398D01*
X035823D02*
X040862D01*
X044035D01*
X047079D01*
X047205D02*
X049083D01*
Y025205D02*
X049833D01*
D51*
X024976Y026346D02*
X024976Y026346D01*
Y027272D01*
D52*
X05376Y013807D02*
Y01487D01*
X045146Y015689D02*
Y016071D01*
Y015689D02*
X045413Y015421D01*
X053209D01*
X05376Y01487D01*
M02*
