G04 Layer_Color=16711935*
%FSTAX24Y24*%
%MOIN*%
G70*
G01*
G75*
%ADD95C,0.0020*%
%ADD96C,0.0012*%
G36*
X042114Y012606D02*
X041917Y012803D01*
X042311D01*
X042114Y012606D01*
D02*
G37*
G36*
X033925Y01422D02*
X033728Y014417D01*
X034122D01*
X033925Y01422D01*
D02*
G37*
G36*
X035319D02*
X035122Y014417D01*
X035516D01*
X035319Y01422D01*
D02*
G37*
G36*
X033925Y011602D02*
X033728Y011799D01*
X034122D01*
X033925Y011602D01*
D02*
G37*
G36*
X035319D02*
X035122Y011799D01*
X035516D01*
X035319Y011602D01*
D02*
G37*
G36*
X036713D02*
X036516Y011799D01*
X036909D01*
X036713Y011602D01*
D02*
G37*
G36*
X049444Y029998D02*
X049178D01*
X049311Y030215D01*
X049444Y029998D01*
D02*
G37*
G36*
X050763D02*
X050497D01*
X05063Y030215D01*
X050763Y029998D01*
D02*
G37*
G36*
X052082D02*
X051816D01*
X051949Y030215D01*
X052082Y029998D01*
D02*
G37*
G36*
X036713Y01422D02*
X036516Y014417D01*
X036909D01*
X036713Y01422D01*
D02*
G37*
G36*
X023085Y026406D02*
X022888Y026209D01*
Y026602D01*
X023085Y026406D01*
D02*
G37*
G36*
X026412Y029998D02*
X026147D01*
X02628Y030215D01*
X026412Y029998D01*
D02*
G37*
D95*
X023091Y042823D02*
G03*
X024075Y043807I0J000984D01*
G01*
X050295D02*
G03*
X05128Y042823I000984J0D01*
G01*
Y034319D02*
G03*
X050295Y033335I0J-000984D01*
G01*
X024075D02*
G03*
X023091Y034319I-000984J0D01*
G01*
X023012Y032469D02*
G03*
X023012Y032469I-000591J0D01*
G01*
X052539D02*
G03*
X052539Y032469I-000591J0D01*
G01*
X052539Y044673D02*
G03*
X052539Y044673I-000591J0D01*
G01*
X023012D02*
G03*
X023012Y044673I-000591J0D01*
G01*
X024902D02*
G03*
X024902Y044673I-000315J0D01*
G01*
X025902D02*
G03*
X025902Y044673I-000315J0D01*
G01*
X026902D02*
G03*
X026902Y044673I-000315J0D01*
G01*
X027902D02*
G03*
X027902Y044673I-000315J0D01*
G01*
X028902D02*
G03*
X028902Y044673I-000315J0D01*
G01*
X029902D02*
G03*
X029902Y044673I-000315J0D01*
G01*
X030902D02*
G03*
X030902Y044673I-000315J0D01*
G01*
X031902D02*
G03*
X031902Y044673I-000315J0D01*
G01*
X032902D02*
G03*
X032902Y044673I-000315J0D01*
G01*
X033902D02*
G03*
X033902Y044673I-000315J0D01*
G01*
X034902D02*
G03*
X034902Y044673I-000315J0D01*
G01*
X035902D02*
G03*
X035902Y044673I-000315J0D01*
G01*
X036902D02*
G03*
X036902Y044673I-000315J0D01*
G01*
X037902D02*
G03*
X037902Y044673I-000315J0D01*
G01*
X038902D02*
G03*
X038902Y044673I-000315J0D01*
G01*
X039902D02*
G03*
X039902Y044673I-000315J0D01*
G01*
X024646Y01802D02*
G03*
X024646Y01802I-00124J0D01*
G01*
X049862Y03572D02*
G03*
X049862Y03572I-000394J0D01*
G01*
X051043Y037295D02*
G03*
X051043Y037295I-002402J0D01*
G01*
X049035D02*
G03*
X049035Y037295I-000394J0D01*
G01*
X048957Y038795D02*
G03*
X048957Y038795I-000315J0D01*
G01*
Y035795D02*
G03*
X048957Y035795I-000315J0D01*
G01*
X037Y039744D02*
G03*
X035165Y039744I-000917J0D01*
G01*
Y037051D02*
G03*
X037Y037051I000917J0D01*
G01*
X036398Y039358D02*
G03*
X036398Y039358I-000315J0D01*
G01*
Y037437D02*
G03*
X036398Y037437I-000315J0D01*
G01*
X02698Y042494D02*
G03*
X02698Y042494I-000394J0D01*
G01*
X028445Y01464D02*
G03*
X028445Y01464I-000394J0D01*
G01*
X026445D02*
G03*
X026445Y01464I-000394J0D01*
G01*
X030453D02*
G03*
X030453Y01464I-000394J0D01*
G01*
X044547D02*
G03*
X044547Y01464I-000394J0D01*
G01*
X042547D02*
G03*
X042547Y01464I-000394J0D01*
G01*
X046555D02*
G03*
X046555Y01464I-000394J0D01*
G01*
X047552Y041524D02*
G03*
X047552Y041524I-0003J0D01*
G01*
X048552D02*
G03*
X048552Y041524I-0003J0D01*
G01*
X049552D02*
G03*
X049552Y041524I-0003J0D01*
G01*
X050552D02*
G03*
X050552Y041524I-0003J0D01*
G01*
X059437Y011917D02*
G03*
X059437Y011917I-000717J0D01*
G01*
Y009949D02*
G03*
X059437Y009949I-000717J0D01*
G01*
X023886D02*
G03*
X023886Y009949I-000717J0D01*
G01*
Y011917D02*
G03*
X023886Y011917I-000717J0D01*
G01*
X041277Y030126D02*
G03*
X041277Y030126I-000197J0D01*
G01*
X038315D02*
G03*
X038315Y030126I-000197J0D01*
G01*
X039302D02*
G03*
X039302Y030126I-000197J0D01*
G01*
X040289D02*
G03*
X040289Y030126I-000197J0D01*
G01*
X042264D02*
G03*
X042264Y030126I-000197J0D01*
G01*
X024646Y029476D02*
G03*
X024646Y029476I-00124J0D01*
G01*
X031797Y024315D02*
G03*
X032894Y024315I000548J0D01*
G01*
X042355Y041524D02*
G03*
X042355Y041524I-0003J0D01*
G01*
X043355D02*
G03*
X043355Y041524I-0003J0D01*
G01*
X044355D02*
G03*
X044355Y041524I-0003J0D01*
G01*
X045355D02*
G03*
X045355Y041524I-0003J0D01*
G01*
X046355D02*
G03*
X046355Y041524I-0003J0D01*
G01*
X053209Y013807D02*
G03*
X053209Y013807I-000157J0D01*
G01*
X056043D02*
G03*
X056043Y013807I-000315J0D01*
G01*
X054075D02*
G03*
X054075Y013807I-000315J0D01*
G01*
X049311Y02989D02*
Y029998D01*
Y030215D02*
Y030323D01*
X049178Y030215D02*
X049444D01*
X049045Y029673D02*
Y030539D01*
Y029673D02*
X049577D01*
Y030539D01*
X049045D02*
X049577D01*
X041799Y013335D02*
X042429D01*
X041799Y011878D02*
Y013335D01*
Y011878D02*
X042429D01*
Y013335D01*
X042114Y012803D02*
Y013D01*
X041917Y012606D02*
X042311D01*
X042114Y012409D02*
Y012606D01*
X041799Y011976D02*
X042429D01*
X041799Y012094D02*
X042429D01*
X046959Y038468D02*
X04814D01*
X046959Y036409D02*
Y038468D01*
Y036409D02*
X04814D01*
Y038468D01*
X045577D02*
X046758D01*
X045577Y036409D02*
Y038468D01*
Y036409D02*
X046758D01*
Y038468D01*
X044195D02*
X045376D01*
X044195Y036409D02*
Y038468D01*
Y036409D02*
X045376D01*
Y038468D01*
X042813D02*
X043994D01*
X042813Y036409D02*
Y038468D01*
Y036409D02*
X043994D01*
Y038468D01*
X041431D02*
X042612D01*
X041431Y036409D02*
Y038468D01*
Y036409D02*
X042612D01*
Y038468D01*
X040049D02*
X04123D01*
X040049Y036409D02*
Y038468D01*
Y036409D02*
X04123D01*
Y038468D01*
X038667D02*
X039848D01*
X038667Y036409D02*
Y038468D01*
Y036409D02*
X039848D01*
Y038468D01*
X037285D02*
X038467D01*
X037285Y036409D02*
Y038468D01*
Y036409D02*
X038467D01*
Y038468D01*
X035904D02*
X037085D01*
X035904Y036409D02*
Y038468D01*
Y036409D02*
X037085D01*
Y038468D01*
X034522D02*
X035703D01*
X034522Y036409D02*
Y038468D01*
Y036409D02*
X035703D01*
Y038468D01*
X03314D02*
X034321D01*
X03314Y036409D02*
Y038468D01*
Y036409D02*
X034321D01*
Y038468D01*
X031758D02*
X032939D01*
X031758Y036409D02*
Y038468D01*
Y036409D02*
X032939D01*
Y038468D01*
X031557Y036409D02*
Y038468D01*
X030376Y036409D02*
X031557D01*
X030376D02*
Y038468D01*
X031557D01*
X030175Y036409D02*
Y038468D01*
X028994Y036409D02*
X030175D01*
X028994D02*
Y038468D01*
X030175D01*
X028793Y036409D02*
Y038468D01*
X027612Y036409D02*
X028793D01*
X027612D02*
Y038468D01*
X028793D01*
X027411Y036409D02*
Y038468D01*
X02623Y036409D02*
X027411D01*
X02623D02*
Y038468D01*
X027411D01*
X024193Y044161D02*
X03998D01*
X024193Y045185D02*
X03998D01*
Y044161D02*
Y045185D01*
X024193Y044161D02*
Y045185D01*
X052933Y031484D02*
Y045657D01*
X021437Y031484D02*
X052933D01*
X021437D02*
Y045657D01*
X052933D01*
X049921Y035303D02*
Y041839D01*
X024449Y035303D02*
X049921D01*
X024449D02*
Y041839D01*
X049921D01*
X023091Y034319D02*
Y042823D01*
X024075Y043807D02*
X050295D01*
X05124Y042823D02*
X05128D01*
Y034319D02*
Y042823D01*
X024075Y033335D02*
X050295D01*
X028793Y038673D02*
Y040732D01*
X027612Y038673D02*
X028793D01*
X027612D02*
Y040732D01*
X028793D01*
X030175Y038673D02*
Y040732D01*
X028994Y038673D02*
X030175D01*
X028994D02*
Y040732D01*
X030175D01*
X031557Y038673D02*
Y040732D01*
X030376Y038673D02*
X031557D01*
X030376D02*
Y040732D01*
X031557D01*
X032939Y038673D02*
Y040732D01*
X031758Y038673D02*
X032939D01*
X031758D02*
Y040732D01*
X032939D01*
X034321Y038673D02*
Y040732D01*
X03314Y038673D02*
X034321D01*
X03314D02*
Y040732D01*
X034321D01*
X035703Y038673D02*
Y040732D01*
X034522Y038673D02*
X035703D01*
X034522D02*
Y040732D01*
X035703D01*
X037085Y038673D02*
Y040732D01*
X035904Y038673D02*
X037085D01*
X035904D02*
Y040732D01*
X037085D01*
X038467Y038673D02*
Y040732D01*
X037285Y038673D02*
X038467D01*
X037285D02*
Y040732D01*
X038467D01*
X039848Y038673D02*
Y040732D01*
X038667Y038673D02*
X039848D01*
X038667D02*
Y040732D01*
X039848D01*
X04123Y038673D02*
Y040732D01*
X040049Y038673D02*
X04123D01*
X040049D02*
Y040732D01*
X04123D01*
X042612Y038673D02*
Y040732D01*
X041431Y038673D02*
X042612D01*
X041431D02*
Y040732D01*
X042612D01*
X043994Y038673D02*
Y040732D01*
X042813Y038673D02*
X043994D01*
X042813D02*
Y040732D01*
X043994D01*
X045376Y038673D02*
Y040732D01*
X044195Y038673D02*
X045376D01*
X044195D02*
Y040732D01*
X045376D01*
X046758Y038673D02*
Y040732D01*
X045577Y038673D02*
X046758D01*
X045577D02*
Y040732D01*
X046758D01*
X04814Y038673D02*
Y040732D01*
X046959Y038673D02*
X04814D01*
X046959D02*
Y040732D01*
X04814D01*
X027411Y036409D02*
Y038468D01*
X02623Y036409D02*
X027411D01*
X02623D02*
Y038468D01*
X027411D01*
X02623Y040732D02*
X027411D01*
X02623Y038673D02*
Y040732D01*
Y038673D02*
X027411D01*
Y040732D01*
X027612Y038468D02*
X028793D01*
X027612Y036409D02*
Y038468D01*
Y036409D02*
X028793D01*
Y038468D01*
X028994D02*
X030175D01*
X028994Y036409D02*
Y038468D01*
Y036409D02*
X030175D01*
Y038468D01*
X030376D02*
X031557D01*
X030376Y036409D02*
Y038468D01*
Y036409D02*
X031557D01*
Y038468D01*
X031758D02*
X032939D01*
X031758Y036409D02*
Y038468D01*
Y036409D02*
X032939D01*
Y038468D01*
X03314D02*
X034321D01*
X03314Y036409D02*
Y038468D01*
Y036409D02*
X034321D01*
Y038468D01*
X034522D02*
X035703D01*
X034522Y036409D02*
Y038468D01*
Y036409D02*
X035703D01*
Y038468D01*
X035904D02*
X037085D01*
X035904Y036409D02*
Y038468D01*
Y036409D02*
X037085D01*
Y038468D01*
X037285D02*
X038467D01*
X037285Y036409D02*
Y038468D01*
Y036409D02*
X038467D01*
Y038468D01*
X038667D02*
X039848D01*
X038667Y036409D02*
Y038468D01*
Y036409D02*
X039848D01*
Y038468D01*
X040049D02*
X04123D01*
X040049Y036409D02*
Y038468D01*
Y036409D02*
X04123D01*
Y038468D01*
X041431D02*
X042612D01*
X041431Y036409D02*
Y038468D01*
Y036409D02*
X042612D01*
Y038468D01*
X042813D02*
X043994D01*
X042813Y036409D02*
Y038468D01*
Y036409D02*
X043994D01*
Y038468D01*
X044195D02*
X045376D01*
X044195Y036409D02*
Y038468D01*
Y036409D02*
X045376D01*
Y038468D01*
X045577D02*
X046758D01*
X045577Y036409D02*
Y038468D01*
Y036409D02*
X046758D01*
Y038468D01*
X046959D02*
X04814D01*
X046959Y036409D02*
Y038468D01*
Y036409D02*
X04814D01*
Y038468D01*
X024114Y01403D02*
Y01525D01*
X022618Y01403D02*
Y01523D01*
X022126Y01525D02*
X024606D01*
Y01403D02*
Y01525D01*
X022126Y01403D02*
X024606D01*
X022126D02*
Y01525D01*
X024744Y017705D02*
X025217D01*
Y018335D01*
X024744D02*
X025217D01*
X021594Y017705D02*
X022067D01*
X021594D02*
Y018335D01*
X022067D01*
Y017035D02*
Y019004D01*
X022421Y019358D01*
X024744D01*
X022067Y017035D02*
X022421Y016681D01*
X024744D01*
Y019358D01*
X051683Y030539D02*
X052215D01*
Y029673D02*
Y030539D01*
X051683Y029673D02*
X052215D01*
X051683D02*
Y030539D01*
X051816Y030215D02*
X052082D01*
X051949Y030215D02*
Y030323D01*
Y02989D02*
Y029998D01*
X050364Y030539D02*
X050896D01*
Y029673D02*
Y030539D01*
X050364Y029673D02*
X050896D01*
X050364D02*
Y030539D01*
X050497Y030215D02*
X050763D01*
X05063Y030215D02*
Y030323D01*
Y02989D02*
Y029998D01*
X042343Y033335D02*
X042657D01*
X042343Y03302D02*
X042657D01*
Y032862D02*
Y033492D01*
X042343D02*
X042657D01*
X042343Y032862D02*
Y033492D01*
Y032862D02*
X042657D01*
X041368Y033335D02*
X041683D01*
X041368Y03302D02*
X041683D01*
Y032862D02*
Y033492D01*
X041368D02*
X041683D01*
X041368Y032862D02*
Y033492D01*
Y032862D02*
X041683D01*
X040394Y033335D02*
X040709D01*
X040394Y03302D02*
X040709D01*
Y032862D02*
Y033492D01*
X040394D02*
X040709D01*
X040394Y032862D02*
Y033492D01*
Y032862D02*
X040709D01*
X039419Y033335D02*
X039734D01*
X039419Y03302D02*
X039734D01*
Y032862D02*
Y033492D01*
X039419D02*
X039734D01*
X039419Y032862D02*
Y033492D01*
Y032862D02*
X039734D01*
X038445Y033335D02*
X03876D01*
X038445Y03302D02*
X03876D01*
Y032862D02*
Y033492D01*
X038445D02*
X03876D01*
X038445Y032862D02*
Y033492D01*
Y032862D02*
X03876D01*
X049468Y035327D02*
Y036114D01*
X049075Y03572D02*
X049862D01*
X036083Y038594D02*
Y038791D01*
Y038004D02*
Y038201D01*
X035689Y038594D02*
X035886D01*
X035689Y038201D02*
X036476D01*
X035886Y038594D02*
X036476D01*
X037Y037051D02*
Y039744D01*
X035165Y037051D02*
Y039744D01*
X024193Y035945D02*
X025038D01*
Y036236D01*
X024193D02*
X025038D01*
X024193Y035039D02*
X025038D01*
Y035331D01*
X024193D02*
X025038D01*
X024193Y034425D02*
X025038D01*
Y034134D02*
Y034425D01*
X024193Y034134D02*
X025038D01*
X021888Y034526D02*
X022733D01*
X021888D02*
Y035844D01*
X022733D01*
Y033864D02*
Y036506D01*
Y033864D02*
X024193D01*
Y036506D01*
X022733D02*
X024193D01*
X023276Y037114D02*
Y037744D01*
X022567Y037114D02*
Y037744D01*
X022291D02*
X023551D01*
Y037114D02*
Y037744D01*
X022291Y037114D02*
X023551D01*
X022291D02*
Y037744D01*
X024193Y040433D02*
X025038D01*
Y040724D01*
X024193D02*
X025038D01*
X024193Y039528D02*
X025038D01*
Y039819D01*
X024193D02*
X025038D01*
X024193Y038913D02*
X025038D01*
Y038622D02*
Y038913D01*
X024193Y038622D02*
X025038D01*
X021888Y039014D02*
X022733D01*
X021888D02*
Y040333D01*
X022733D01*
Y038352D02*
Y040994D01*
Y038352D02*
X024193D01*
Y040994D01*
X022733D02*
X024193D01*
X023276Y041563D02*
Y042193D01*
X022567Y041563D02*
Y042193D01*
X022291D02*
X023551D01*
Y041563D02*
Y042193D01*
X022291Y041563D02*
X023551D01*
X022291D02*
Y042193D01*
X051791Y030165D02*
X052106D01*
X051791Y02985D02*
X052106D01*
X051791Y029693D02*
Y030323D01*
X052106D01*
Y029693D02*
Y030323D01*
X051791Y029693D02*
X052106D01*
X050472Y030165D02*
X050787D01*
X050472Y02985D02*
X050787D01*
X050472Y029693D02*
Y030323D01*
X050787D01*
Y029693D02*
Y030323D01*
X050472Y029693D02*
X050787D01*
X049154Y030165D02*
X049468D01*
X049154Y02985D02*
X049468D01*
X049154Y029693D02*
Y030323D01*
X049468D01*
Y029693D02*
Y030323D01*
X049154Y029693D02*
X049468D01*
X056516Y021248D02*
X056831D01*
X056516Y021563D02*
X056831D01*
Y021091D02*
Y02172D01*
X056516Y021091D02*
X056831D01*
X056516D02*
Y02172D01*
X056831D01*
X056516Y027587D02*
X056831D01*
X056516Y027902D02*
X056831D01*
Y027429D02*
Y028059D01*
X056516Y027429D02*
X056831D01*
X056516D02*
Y028059D01*
X056831D01*
X056516Y033886D02*
X056831D01*
X056516Y034201D02*
X056831D01*
Y033728D02*
Y034358D01*
X056516Y033728D02*
X056831D01*
X056516D02*
Y034358D01*
X056831D01*
X056516Y040185D02*
X056831D01*
X056516Y0405D02*
X056831D01*
Y040028D02*
Y040657D01*
X056516Y040028D02*
X056831D01*
X056516D02*
Y040657D01*
X056831D01*
X025287Y043776D02*
X027886D01*
X025295Y041024D02*
X027894D01*
Y043776D01*
X025295Y041024D02*
Y043776D01*
X026587Y0421D02*
Y042888D01*
X026193Y042494D02*
X02698D01*
X036909Y037287D02*
X037224D01*
X036909Y037602D02*
X037224D01*
Y03713D02*
Y03776D01*
X036909Y03713D02*
X037224D01*
X036909D02*
Y03776D01*
X037224D01*
X037815Y037587D02*
X03813D01*
X037815Y037272D02*
X03813D01*
X037815Y037114D02*
Y037744D01*
X03813D01*
Y037114D02*
Y037744D01*
X037815Y037114D02*
X03813D01*
X035079Y039201D02*
Y039516D01*
X034764Y039201D02*
Y039516D01*
X034606D02*
X035236D01*
Y039201D02*
Y039516D01*
X034606Y039201D02*
X035236D01*
X034606D02*
Y039516D01*
X035079Y03728D02*
Y037594D01*
X034764Y03728D02*
Y037594D01*
X034606D02*
X035236D01*
Y03728D02*
Y037594D01*
X034606Y03728D02*
X035236D01*
X034606D02*
Y037594D01*
X038429Y043138D02*
X038744D01*
X038429Y043453D02*
X038744D01*
Y04298D02*
Y04361D01*
X038429Y04298D02*
X038744D01*
X038429D02*
Y04361D01*
X038744D01*
X048122Y038717D02*
Y038874D01*
X047768Y038717D02*
X048122D01*
X047768Y038874D02*
X048122D01*
X046902Y038343D02*
X047256D01*
X046902D02*
Y0385D01*
X047256D01*
X046902Y039091D02*
X047256D01*
X046902D02*
Y039248D01*
X047256D01*
X046902Y0385D02*
X047256D01*
X046902Y038343D02*
Y0385D01*
Y038343D02*
X047256D01*
X047256Y038224D02*
X047768D01*
X047256D02*
Y039366D01*
X047768D01*
Y038224D02*
Y039366D01*
X047256Y035638D02*
Y035953D01*
X047571Y035638D02*
Y035953D01*
X047098Y035638D02*
X047728D01*
X047098D02*
Y035953D01*
X047728D01*
Y035638D02*
Y035953D01*
X047571Y037429D02*
Y037744D01*
X047256Y037429D02*
Y037744D01*
X047098D02*
X047728D01*
Y037429D02*
Y037744D01*
X047098Y037429D02*
X047728D01*
X047098D02*
Y037744D01*
X039929Y038354D02*
X040244D01*
X039929Y038669D02*
X040244D01*
Y038197D02*
Y038827D01*
X039929Y038197D02*
X040244D01*
X039929D02*
Y038827D01*
X040244D01*
X040913Y038354D02*
X041228D01*
X040913Y038669D02*
X041228D01*
Y038197D02*
Y038827D01*
X040913Y038197D02*
X041228D01*
X040913D02*
Y038827D01*
X041228D01*
X041898Y038354D02*
X042213D01*
X041898Y038669D02*
X042213D01*
Y038197D02*
Y038827D01*
X041898Y038197D02*
X042213D01*
X041898D02*
Y038827D01*
X042213D01*
X039929Y037035D02*
X040244D01*
X039929Y03672D02*
X040244D01*
X039929Y036563D02*
Y037193D01*
X040244D01*
Y036563D02*
Y037193D01*
X039929Y036563D02*
X040244D01*
X040913Y037035D02*
X041228D01*
X040913Y03672D02*
X041228D01*
X040913Y036563D02*
Y037193D01*
X041228D01*
Y036563D02*
Y037193D01*
X040913Y036563D02*
X041228D01*
X041898Y037035D02*
X042213D01*
X041898Y03672D02*
X042213D01*
X041898Y036563D02*
Y037193D01*
X042213D01*
Y036563D02*
Y037193D01*
X041898Y036563D02*
X042213D01*
X042343Y033035D02*
X042657D01*
X042343Y03335D02*
X042657D01*
Y032878D02*
Y033508D01*
X042343Y032878D02*
X042657D01*
X042343D02*
Y033508D01*
X042657D01*
X041368Y033035D02*
X041683D01*
X041368Y03335D02*
X041683D01*
Y032878D02*
Y033508D01*
X041368Y032878D02*
X041683D01*
X041368D02*
Y033508D01*
X041683D01*
X040394Y033035D02*
X040709D01*
X040394Y03335D02*
X040709D01*
Y032878D02*
Y033508D01*
X040394Y032878D02*
X040709D01*
X040394D02*
Y033508D01*
X040709D01*
X039419Y033035D02*
X039734D01*
X039419Y03335D02*
X039734D01*
Y032878D02*
Y033508D01*
X039419Y032878D02*
X039734D01*
X039419D02*
Y033508D01*
X039734D01*
X025894Y016563D02*
X026209D01*
X025894Y016248D02*
X026209D01*
X025894Y016091D02*
Y01672D01*
X026209D01*
Y016091D02*
Y01672D01*
X025894Y016091D02*
X026209D01*
X026894Y016248D02*
X027209D01*
X026894Y016563D02*
X027209D01*
Y016091D02*
Y01672D01*
X026894Y016091D02*
X027209D01*
X026894D02*
Y01672D01*
X027209D01*
X027894Y016248D02*
X028209D01*
X027894Y016563D02*
X028209D01*
Y016091D02*
Y01672D01*
X027894Y016091D02*
X028209D01*
X027894D02*
Y01672D01*
X028209D01*
X028894Y016248D02*
X029209D01*
X028894Y016563D02*
X029209D01*
Y016091D02*
Y01672D01*
X028894Y016091D02*
X029209D01*
X028894D02*
Y01672D01*
X029209D01*
X029894Y016563D02*
X030209D01*
X029894Y016248D02*
X030209D01*
X029894Y016091D02*
Y01672D01*
X030209D01*
Y016091D02*
Y01672D01*
X029894Y016091D02*
X030209D01*
X03863Y012829D02*
X03985D01*
X03865Y014325D02*
X03985D01*
X03863Y012337D02*
Y014817D01*
Y012337D02*
X03985D01*
Y014817D01*
X03863D02*
X03985D01*
X036713Y014024D02*
Y01422D01*
X036516D02*
X036909D01*
X036142Y013709D02*
X037283D01*
X036142Y013512D02*
X037283D01*
X036713Y014417D02*
Y014614D01*
X036142Y013316D02*
X037283D01*
Y015125D01*
X036142D02*
X037283D01*
X036142Y013316D02*
Y015125D01*
X035319Y014024D02*
Y01422D01*
X035122D02*
X035516D01*
X034749Y013709D02*
X035889D01*
X034749Y013512D02*
X035889D01*
X035319Y014417D02*
Y014614D01*
X034749Y013316D02*
X035889D01*
Y015125D01*
X034749D02*
X035889D01*
X034749Y013316D02*
Y015125D01*
X033925Y014024D02*
Y01422D01*
X033728D02*
X034122D01*
X033355Y013709D02*
X034495D01*
X033355Y013512D02*
X034495D01*
X033925Y014417D02*
Y014614D01*
X033355Y013316D02*
X034495D01*
Y015125D01*
X033355D02*
X034495D01*
X033355Y013316D02*
Y015125D01*
X036713Y011406D02*
Y011602D01*
X036516D02*
X036909D01*
X036142Y011091D02*
X037283D01*
X036142Y010894D02*
X037283D01*
X036713Y011799D02*
Y011996D01*
X036142Y010697D02*
X037283D01*
Y012507D01*
X036142D02*
X037283D01*
X036142Y010697D02*
Y012507D01*
X035319Y011406D02*
Y011602D01*
X035122D02*
X035516D01*
X034749Y011091D02*
X035889D01*
X034749Y010894D02*
X035889D01*
X035319Y011799D02*
Y011996D01*
X034749Y010697D02*
X035889D01*
Y012507D01*
X034749D02*
X035889D01*
X034749Y010697D02*
Y012507D01*
X033925Y011406D02*
Y011602D01*
X033728D02*
X034122D01*
X033355Y011091D02*
X034495D01*
X033355Y010894D02*
X034495D01*
X033925Y011799D02*
Y011996D01*
X033355Y010697D02*
X034495D01*
Y012507D01*
X033355D02*
X034495D01*
X033355Y010697D02*
Y012507D01*
X045996Y016563D02*
X046311D01*
X045996Y016248D02*
X046311D01*
X045996Y016091D02*
Y01672D01*
X046311D01*
Y016091D02*
Y01672D01*
X045996Y016091D02*
X046311D01*
X044988Y016248D02*
X045303D01*
X044988Y016563D02*
X045303D01*
Y016091D02*
Y01672D01*
X044988Y016091D02*
X045303D01*
X044988D02*
Y01672D01*
X045303D01*
X043996Y016248D02*
X044311D01*
X043996Y016563D02*
X044311D01*
Y016091D02*
Y01672D01*
X043996Y016091D02*
X044311D01*
X043996D02*
Y01672D01*
X044311D01*
X042996Y016248D02*
X043311D01*
X042996Y016563D02*
X043311D01*
Y016091D02*
Y01672D01*
X042996Y016091D02*
X043311D01*
X042996D02*
Y01672D01*
X043311D01*
X041996Y016248D02*
X042311D01*
X041996Y016563D02*
X042311D01*
Y016091D02*
Y01672D01*
X041996Y016091D02*
X042311D01*
X041996D02*
Y01672D01*
X042311D01*
X046752Y042024D02*
X050752D01*
X046752Y041024D02*
Y042024D01*
Y041024D02*
X050752D01*
Y042024D01*
X057736Y010933D02*
X059606D01*
X059941Y008768D02*
Y012902D01*
X056949Y008768D02*
Y012902D01*
Y008768D02*
X059941D01*
X056949Y012902D02*
X059941D01*
X057736Y008768D02*
Y012902D01*
X059606Y008768D02*
Y012902D01*
X022283Y010933D02*
X024154D01*
X021949Y008965D02*
Y013098D01*
X024941Y008965D02*
Y013098D01*
X021949D02*
X024941D01*
X021949Y008965D02*
X024941D01*
X024154D02*
Y013098D01*
X022283Y008965D02*
Y013098D01*
X059358Y01403D02*
Y01525D01*
X057862Y01403D02*
Y01523D01*
X05737Y01525D02*
X05985D01*
Y01403D02*
Y01525D01*
X05737Y01403D02*
X05985D01*
X05737D02*
Y01525D01*
X026014Y030539D02*
X026545D01*
Y029673D02*
Y030539D01*
X026014Y029673D02*
X026545D01*
X026014D02*
Y030539D01*
X026147Y030215D02*
X026412D01*
X02628Y030215D02*
Y030323D01*
Y02989D02*
Y029998D01*
X038445Y033035D02*
X03876D01*
X038445Y03335D02*
X03876D01*
Y032878D02*
Y033508D01*
X038445Y032878D02*
X03876D01*
X038445D02*
Y033508D01*
X03876D01*
X025626Y026189D02*
Y026504D01*
X024996D02*
X025626D01*
X024996Y026189D02*
Y026504D01*
Y026189D02*
X025626D01*
X025468D02*
Y026504D01*
X025154Y026189D02*
Y026504D01*
X02498Y025264D02*
Y025579D01*
Y025264D02*
X02561D01*
Y025579D01*
X02498D02*
X02561D01*
X025138Y025264D02*
Y025579D01*
X025453Y025264D02*
Y025579D01*
X024996Y027114D02*
Y027429D01*
Y027114D02*
X025626D01*
Y027429D01*
X024996D02*
X025626D01*
X025154Y027114D02*
Y027429D01*
X025468Y027114D02*
Y027429D01*
X026122Y030343D02*
X026437D01*
X026122Y029713D02*
Y030343D01*
Y029713D02*
X026437D01*
Y030343D01*
X026122Y030185D02*
X026437D01*
X026122Y02987D02*
X026437D01*
X024744Y028138D02*
Y030815D01*
X022421Y028138D02*
X024744D01*
X022067Y028492D02*
X022421Y028138D01*
Y030815D02*
X024744D01*
X022067Y030461D02*
X022421Y030815D01*
X022067Y028492D02*
Y030461D01*
X021594Y029791D02*
X022067D01*
X021594Y029161D02*
Y029791D01*
Y029161D02*
X022067D01*
X024744Y029791D02*
X025217D01*
Y029161D02*
Y029791D01*
X024744Y029161D02*
X025217D01*
X022224Y025461D02*
X024114D01*
X022224D02*
Y02735D01*
X024114D01*
Y025461D02*
Y02735D01*
X026231Y023886D02*
X027618D01*
X026231Y023217D02*
X027626D01*
X026231Y022547D02*
X027618Y022547D01*
X026231Y021878D02*
X027626D01*
X026231Y021209D02*
X027626D01*
X022472Y020421D02*
Y024673D01*
X027626Y023675D02*
X028476D01*
Y024096D01*
X027626D02*
X028476D01*
X027626Y023675D02*
Y024096D01*
Y023006D02*
X028476D01*
Y023427D01*
X027626D02*
X028476D01*
X027626Y023006D02*
Y023427D01*
Y022337D02*
X028476D01*
Y022758D01*
X027626D02*
X028476D01*
X027626Y022337D02*
Y022758D01*
Y021667D02*
X028476D01*
Y022089D01*
X027626D02*
X028476D01*
X027626Y021667D02*
Y022089D01*
Y020998D02*
Y021419D01*
X028476D01*
Y020998D02*
Y021419D01*
X027626Y020998D02*
X028476D01*
X026231Y020498D02*
Y024596D01*
X023381Y020498D02*
X026231D01*
X022931D02*
X023381D01*
X022731Y021148D02*
X022931Y020498D01*
X022731Y023947D02*
X022931Y024596D01*
X022731Y021148D02*
Y023947D01*
X022931Y024596D02*
X026231D01*
X023228D02*
Y024673D01*
X022472Y024673D02*
X023228Y024673D01*
Y024181D02*
Y024596D01*
Y024181D02*
X025217D01*
Y020913D02*
Y024181D01*
X023228Y020913D02*
X025217D01*
X023228Y0205D02*
Y020913D01*
X022472Y020421D02*
X023228D01*
Y0205D01*
X02218Y025835D02*
X02399D01*
X02218D02*
Y026976D01*
X02399D01*
Y025835D02*
Y026976D01*
X022691Y026406D02*
X022888D01*
X023793Y025835D02*
Y026976D01*
X023596Y025835D02*
Y026976D01*
X023085Y026209D02*
Y026602D01*
Y026406D02*
X023281D01*
X032892Y024315D02*
X033621D01*
X03107D02*
X031789D01*
X033621Y020457D02*
Y024315D01*
X03107Y020457D02*
X033621D01*
X03107D02*
Y024315D01*
X035819Y023906D02*
X036134D01*
Y024535D01*
X035819D02*
X036134D01*
X035819Y023906D02*
Y024535D01*
Y024063D02*
X036134D01*
X035819Y024378D02*
X036134D01*
X036756Y02587D02*
X037071D01*
X036756Y02524D02*
Y02587D01*
Y02524D02*
X037071D01*
Y02587D01*
X036756Y025713D02*
X037071D01*
X036756Y025398D02*
X037071D01*
X037719Y02587D02*
X038033D01*
X037719Y02524D02*
Y02587D01*
Y02524D02*
X038033D01*
Y02587D01*
X037719Y025713D02*
X038033D01*
X037719Y025398D02*
X038033D01*
X038681Y025224D02*
X038996D01*
Y025854D01*
X038681D02*
X038996D01*
X038681Y025224D02*
Y025854D01*
Y025382D02*
X038996D01*
X038681Y025697D02*
X038996D01*
X039598Y025402D02*
X039913D01*
X039598Y025717D02*
X039913D01*
Y025244D02*
Y025874D01*
X039598Y025244D02*
X039913D01*
X039598D02*
Y025874D01*
X039913D01*
X046968Y025224D02*
X047283D01*
Y025854D01*
X046968D02*
X047283D01*
X046968Y025224D02*
Y025854D01*
Y025382D02*
X047283D01*
X046968Y025697D02*
X047283D01*
X045925Y025854D02*
X04624D01*
X045925Y025224D02*
Y025854D01*
Y025224D02*
X04624D01*
Y025854D01*
X045925Y025697D02*
X04624D01*
X045925Y025382D02*
X04624D01*
X044636Y025854D02*
X044951D01*
X044636Y025224D02*
Y025854D01*
Y025224D02*
X044951D01*
Y025854D01*
X044636Y025697D02*
X044951D01*
X044636Y025382D02*
X044951D01*
X049675Y025854D02*
X04999D01*
X049675Y025224D02*
Y025854D01*
Y025224D02*
X04999D01*
Y025854D01*
X049675Y025697D02*
X04999D01*
X049675Y025382D02*
X04999D01*
X041555Y042024D02*
X046555D01*
X041555Y041024D02*
Y042024D01*
Y041024D02*
X046555D01*
Y042024D01*
X053051Y01365D02*
Y013965D01*
X052894Y013807D02*
X053209D01*
X043681Y03924D02*
Y039555D01*
X043996Y03924D02*
Y039555D01*
X043524Y03924D02*
X044154D01*
X043524D02*
Y039555D01*
X044154D01*
Y03924D02*
Y039555D01*
X043484Y035028D02*
Y035343D01*
X043799Y035028D02*
Y035343D01*
X043327Y035028D02*
X043957D01*
X043327D02*
Y035343D01*
X043957D01*
Y035028D02*
Y035343D01*
X040157Y044496D02*
X040262D01*
X04021D01*
Y044811D01*
X040157Y044758D01*
X04063Y044811D02*
X040525Y044758D01*
X04042Y044653D01*
Y044549D01*
X040472Y044496D01*
X040577D01*
X04063Y044549D01*
Y044601D01*
X040577Y044653D01*
X04042D01*
X047661Y038311D02*
X047346D01*
Y038468D01*
X047399Y038521D01*
X047451D01*
X047504Y038468D01*
Y038311D01*
Y038468D01*
X047556Y038521D01*
X047609D01*
X047661Y038468D01*
Y038311D01*
X023957Y044476D02*
X024062D01*
X024009D01*
Y044791D01*
X023957Y044739D01*
X048878Y038992D02*
Y038677D01*
X048563Y038992D01*
X048484D01*
X048406Y038913D01*
Y038756D01*
X048484Y038677D01*
X048839Y035717D02*
Y035874D01*
Y035795D01*
X048366D01*
X048445Y035717D01*
X02366Y033965D02*
X023398D01*
X023266Y034096D01*
X023398Y034227D01*
X02366D01*
X023463D01*
Y033965D01*
X02366Y034358D02*
X023266D01*
X023398Y034489D01*
X023266Y034621D01*
X02366D01*
X023332Y035014D02*
X023266Y034948D01*
Y034817D01*
X023332Y034752D01*
X023398D01*
X023463Y034817D01*
Y034948D01*
X023529Y035014D01*
X023594D01*
X02366Y034948D01*
Y034817D01*
X023594Y034752D01*
X02366Y035145D02*
Y035276D01*
Y035211D01*
X023266D01*
X023332Y035145D01*
X02366Y035473D02*
Y035604D01*
Y035539D01*
X023266D01*
X023332Y035473D01*
X02366Y035801D02*
Y035932D01*
Y035867D01*
X023266D01*
X023332Y035801D01*
X023266Y036129D02*
Y036392D01*
X023332D01*
X023594Y036129D01*
X02366D01*
Y038453D02*
X023398D01*
X023266Y038584D01*
X023398Y038715D01*
X02366D01*
X023463D01*
Y038453D01*
X02366Y038846D02*
X023266D01*
X023398Y038978D01*
X023266Y039109D01*
X02366D01*
X023332Y039502D02*
X023266Y039437D01*
Y039306D01*
X023332Y03924D01*
X023398D01*
X023463Y039306D01*
Y039437D01*
X023529Y039502D01*
X023594D01*
X02366Y039437D01*
Y039306D01*
X023594Y03924D01*
X02366Y039633D02*
Y039765D01*
Y039699D01*
X023266D01*
X023332Y039633D01*
X02366Y039961D02*
Y040093D01*
Y040027D01*
X023266D01*
X023332Y039961D01*
X02366Y040289D02*
Y040421D01*
Y040355D01*
X023266D01*
X023332Y040289D01*
X023266Y040617D02*
Y04088D01*
X023332D01*
X023594Y040617D01*
X02366D01*
X047668Y038899D02*
X04772Y038846D01*
Y038741D01*
X047668Y038689D01*
X047458D01*
X047406Y038741D01*
Y038846D01*
X047458Y038899D01*
X047665Y039304D02*
Y039094D01*
X04735D01*
Y039304D01*
X047508Y039094D02*
Y039199D01*
X030216Y014482D02*
X030138Y014404D01*
X02998D01*
X029902Y014482D01*
Y014797D01*
X02998Y014876D01*
X030138D01*
X030216Y014797D01*
Y01464D01*
X030059D01*
X027933Y014404D02*
Y014876D01*
X028169D01*
X028248Y014797D01*
Y014482D01*
X028169Y014404D01*
X027933D01*
X026201Y014482D02*
X026122Y014404D01*
X025965D01*
X025886Y014482D01*
Y014561D01*
X025965Y01464D01*
X026122D01*
X026201Y014719D01*
Y014797D01*
X026122Y014876D01*
X025965D01*
X025886Y014797D01*
X046319Y014482D02*
X04624Y014404D01*
X046083D01*
X046004Y014482D01*
Y014797D01*
X046083Y014876D01*
X04624D01*
X046319Y014797D01*
Y01464D01*
X046161D01*
X044035Y014404D02*
Y014876D01*
X044272D01*
X04435Y014797D01*
Y014482D01*
X044272Y014404D01*
X044035D01*
X042303Y014482D02*
X042224Y014404D01*
X042067D01*
X041988Y014482D01*
Y014561D01*
X042067Y01464D01*
X042224D01*
X042303Y014719D01*
Y014797D01*
X042224Y014876D01*
X042067D01*
X041988Y014797D01*
X047185Y041382D02*
X04729D01*
X047238D01*
Y041697D01*
X047185Y041644D01*
X04834Y041382D02*
X04813D01*
X04834Y041592D01*
Y041644D01*
X048287Y041697D01*
X048182D01*
X04813Y041644D01*
X049154D02*
X049206Y041697D01*
X049311D01*
X049363Y041644D01*
Y041592D01*
X049311Y041539D01*
X049258D01*
X049311D01*
X049363Y041487D01*
Y041434D01*
X049311Y041382D01*
X049206D01*
X049154Y041434D01*
X050295Y041382D02*
Y041697D01*
X050138Y041539D01*
X050348D01*
X058945Y012114D02*
Y011799D01*
X058631Y012114D01*
X058552D01*
X058473Y012035D01*
Y011878D01*
X058552Y011799D01*
X058945Y009874D02*
Y010031D01*
Y009953D01*
X058473D01*
X058552Y009874D01*
X022944Y009752D02*
Y010067D01*
X023259Y009752D01*
X023338D01*
X023417Y009831D01*
Y009989D01*
X023338Y010067D01*
X022944Y011992D02*
Y011835D01*
Y011914D01*
X023417D01*
X023338Y011992D01*
X031159Y020776D02*
X031474D01*
X031317Y020933D01*
Y020723D01*
X033403Y023972D02*
X033456Y02392D01*
Y023815D01*
X033403Y023763D01*
X033351D01*
X033298Y023815D01*
X033246Y023763D01*
X033193D01*
X033141Y023815D01*
Y02392D01*
X033193Y023972D01*
X033246D01*
X033298Y02392D01*
X033351Y023972D01*
X033403D01*
X033298Y02392D02*
Y023815D01*
X033467Y020743D02*
Y020953D01*
X03331D01*
X033362Y020848D01*
Y020795D01*
X03331Y020743D01*
X033205D01*
X033153Y020795D01*
Y0209D01*
X033205Y020953D01*
X045079Y041366D02*
Y041681D01*
X044921Y041524D01*
X045131D01*
X043976Y041629D02*
X044029Y041681D01*
X044134D01*
X044186Y041629D01*
Y041576D01*
X044134Y041524D01*
X044081D01*
X044134D01*
X044186Y041471D01*
Y041419D01*
X044134Y041366D01*
X044029D01*
X043976Y041419D01*
X043171Y041366D02*
X042961D01*
X043171Y041576D01*
Y041629D01*
X043118Y041681D01*
X043013D01*
X042961Y041629D01*
X042016Y041366D02*
X042121D01*
X042068D01*
Y041681D01*
X042016Y041629D01*
X046163Y041681D02*
X045953D01*
Y041524D01*
X046058Y041576D01*
X04611D01*
X046163Y041524D01*
Y041419D01*
X04611Y041366D01*
X046005D01*
X045953Y041419D01*
D96*
X031199Y023925D02*
Y02382D01*
Y023873D01*
X031514D01*
X031461Y023925D01*
M02*
